<?xml version="1.0" encoding="utf-8"?>
<!-- Generator: Adobe Illustrator 25.0.0, SVG Export Plug-In . SVG Version: 6.00 Build 0)  -->
<svg version="1.1"
	 id="svg2" xmlns:cc="http://creativecommons.org/ns#" xmlns:dc="http://purl.org/dc/elements/1.1/" xmlns:inkscape="http://www.inkscape.org/namespaces/inkscape" xmlns:rdf="http://www.w3.org/1999/02/22-rdf-syntax-ns#" xmlns:sodipodi="http://sodipodi.sourceforge.net/DTD/sodipodi-0.dtd" xmlns:svg="http://www.w3.org/2000/svg"
	 xmlns="http://www.w3.org/2000/svg" xmlns:xlink="http://www.w3.org/1999/xlink" x="0px" y="0px" viewBox="0 0 506.3 508.1"
	 style="enable-background:new 0 0 506.3 508.1;" xml:space="preserve">
<style type="text/css">
	.st0{fill:#FF6F0D;stroke:#FFFFFF;}
	.st1{fill:#BFBFBF;stroke:#FFFFFF;}
	.st2{fill:none;stroke:#FFFFFF;}
</style>
<sodipodi:namedview  bordercolor="#666666" borderopacity="1.0" fit-margin-bottom="0" fit-margin-left="0" fit-margin-right="0" fit-margin-top="0" id="base" inkscape:current-layer="layer34" inkscape:cx="317.66497" inkscape:cy="291.89807" inkscape:document-units="px" inkscape:pageopacity="0.0" inkscape:pageshadow="2" inkscape:showpageshadow="false" inkscape:window-height="934" inkscape:window-maximized="1" inkscape:window-width="1280" inkscape:window-x="-4" inkscape:window-y="-4" inkscape:zoom="1.08" pagecolor="#ffffff" showgrid="false" width="700px">
	</sodipodi:namedview>
<g>
	<g id="norte">
		<g id="pa" transform="translate(-36.05404,-190.90844)" inkscape:groupmode="layer" inkscape:label="para">
			<path id="path3991-7" inkscape:connector-curvature="0" class="st0" d="M282.8,227.5l-1.5-0.8l-1.2,0.8l-0.6,1.7l-1.4,0.3
				l-1.2-0.6l-2.7-0.4l-2.1-0.4h-2.6l-0.6-0.5l-0.9,1.2l-1.4,1.8c0,0,0.5,1.4,1,1.4s1.2,1.3,1.5,1.8s0.1,2.2,0.1,2.2l-2.2,0.1
				l-2.3-0.3l-1.3-0.9l-4.4,0.8l-1.5,1l-1.2-0.8L255,235l-2.1-0.3l-2.1,0.4l-1.2,1.8l-0.6,1l-2.2,1l-1.2,0.5l-1.2,0.8l-7.7,0.1
				l-0.1,2.8l-1.2,2.1l-1.7,1.3l-2.1,0.5l-1.4,0.1l-0.4,12.8l0.4,3.5l0.5,2.4l1,2.8c0,0,1.7,2.8,2.2,2.8s2.6,1.2,2.6,1.2
				s1.2,3.6,1.7,4.1s1.5,3.5,1.5,3.5s1.3,1.7,1.8,2.1s1.8,0.1,2.9,0.4s5.1-0.1,5.6,0.3s2.4,1.4,2.4,1.4l2.9,2.2L236.7,342l-1.4,1.4
				c0,0,0,1.9,0.5,2.1c0.5,0.1,2.8,2.7,2.8,2.7l2.1,2.3c0,0,1,2.1,1.3,2.6s1.8,2.4,1.8,2.4s1.5,1.9,2.1,2.4c0.5,0.5,1.9,2.2,2.3,2.8
				s0.8,1.2,0.9,2.1c0.1,0.9-1,3.8-1,3.8s-0.1,1.2-0.1,1.9s0.4,2.6,0.4,2.6l9.9,10.6l78.5,6.4l7.8-0.9l1.7-0.9l1-3.7l0.3-3.6
				l2.8-2.3c0,0,3.2-2.4,3.6-2.9s1.7-2.4,1.7-2.4s1-1.7,1.7-2.7c0.6-1,0.8-2.1,0.9-2.6s0.4-2.1,0.4-2.9c0-0.9-0.3-1.7-0.5-2.8
				c-0.3-1.2-0.5-2.3-0.5-2.3l-0.6-1.5l1.7-6.4l1.9-1.9l2.2-0.5l2.3-1.2l1.5-3.2l1.7-2.1l2.2-2.4c0,0,0.6-3.2,0.6-3.7
				s-0.1-3.5-0.1-3.5l-1.5-1.7l-2.2-1l-1.5-0.1l-0.6-0.5l0.8-4l3.1-2.6l3.5-2.3l4-3.2l2.6-2.9l4.7-3.7l2.1-1.8l4.1-5.4l1.7-2.1
				l1-5.3c0,0,0.8-2.6,1-3.1c0.3-0.5,0-2.8,0-2.8l1.7-3.2l1.2-2.7l-0.1-3.7l1.7-3.1v-1.8c0,0-1.8-1.2-2.3-1.3s-2.8-1.4-2.8-1.4
				l-2.8-0.1c0,0-0.6-1.2-2.1-1.2s-4,0-4,0l-2.8-0.3l-3.3-1.3L376,269l-2.4,1.2l-1.3,1.3l-1.7,0.8c0,0-1.7,0.9-1.5,1.7
				c0.1,0.8-1,2.7-1,2.7l-1.8,0.5l0.5,3.3l0.9,2.6l-3.2,3.1l-2.2,1.9h-3.8l-1-0.4l-1.7,0.4l-1.3,2.7l-2.3,2.1l0.5-3.6l1.7-4.1
				l-0.5-0.6l-1.4,0.6l-2.3,1h-2.4l-1.5-1.5c0,0,1.5-1.3,2.3-1.3s3.2-0.9,3.2-0.9s2.8-1.4,3.7-1.7c0.9-0.3,3.6-0.9,3.6-0.9l2.7-0.9
				l1.7-3.3c0,0,0.1-1,1.4-2.2s2.2-1.5,2.2-2.8s0-2.7-0.4-3.5s-1.3-2.6-1.3-2.6s-1.2-1.2-1.7-1.2s-2.2,0-2.8,0s-2.8-0.6-2.8-0.6
				s-1.3-1-2.2-0.9s-2.1-0.1-2.4,0.5c-0.4,0.6-2.2,1-2.2,1s-2.2,1-2.8,0.6c-0.6-0.4-1.9-0.6-1.9-0.6l-2.7-0.5l-1.8-1.3l-2.9,0.8
				l-2.4,2.4l-1.8,3.3l-0.5,3.8l0.1,3.1l1.3,2.2l2.6,3.7l3.2,0.5l2.6,0.8l1.9,1.8l-2.2,0.9l-2.1,2.1c0,0-1.2,2.1-1.7,0.9
				s-2.1-3.3-2.1-3.3s-1.2-1.4-1.7-2.1c-0.5-0.6-1.8-1.3-1.8-2.4s0-2.1,0-2.1l-2.3-2.2l-1.4-0.3l-3.8,1.2c0,0-0.8,0.4-1.5,1.4
				s-3.6,3.2-3.6,3.2s-1.8,0.3-2.3,0s-1.7-1.9-1.7-1.9s-1.4-0.6-0.4-1.2s2.3-0.8,2.3-0.8s0.5,0.1,0.5-1.2s0-1.7,0-1.7l-2.1-0.8
				c0,0-0.8-0.3-1.3-0.5s-1.8-1.3-2.1-2.4s-0.6-3.5-0.6-3.5s0-0.3-0.6-2.1s-1.5-3.3-1.5-3.3l-1.9-0.9l-2.1-0.8c0,0-1.4-0.1-1.4-1.8
				c0-1.7-0.1-3.1-0.1-3.1s-0.9-2.6-0.9-3.3s-0.3-2.1-0.3-2.1L304,248c0,0-0.3,0.8-0.8-0.9s-1-2.7-1-2.7s-1-1.3-2.1-2.1
				s-2.7-1.4-2.7-1.4l-1-0.4l-2.8-2.8c0,0-1.7-1-2.3-1s-3.5-0.9-4-1.2s-3.1-0.5-3.1-1s-1.2-2.3-1.2-2.3v-2.1l1.2-1.8L282.8,227.5z"
				/>
		</g>
		<g id="ap" transform="translate(-36.05404,-190.90844)" inkscape:groupmode="layer" inkscape:label="amapa">
			<path id="path3994" inkscape:connector-curvature="0" class="st1" d="M283.3,228.2l-0.9,2.1l0.1,2.1c0,0,0.3,1.5,0.9,1.8
				s2.4,0.9,2.4,0.9l3.6,1.4l2.6,1.3l2.7,1.4c0,0,1,0.6,1.7,1.4c0.6,0.8,2.4,1.7,2.9,2.1c0.5,0.4,1.4,1.7,1.4,1.7l2.9,4.5l1.9,3.6
				c0,0,0.1,2.2,0.3,3.1c0.2,0.9,0.9,3.2,0.9,3.2s1.3,1.2,1.8,1.5c0.5,0.4,2.4,1.8,2.4,1.8l3.3,5.4l0.5,3.3l2.6,2.9l2.8,0.8h2.4
				c0,0,0.3-2.9,0.9-3.8s4.2-6.3,4.2-6.3s3.1-2.6,3.5-2.7s1.5-2.4,2.6-3.3s2.4-3.8,2.4-3.8l6-5.3c0,0,2.2-3.1,2.7-3.5
				s3.8-2.8,3.8-2.8s0.4-2.7-0.3-3.3c-0.6-0.6-2.8-3.2-2.8-3.2s-1.4-1.5-2.1-1.5s-2.6,0.5-3.6-0.1s-2.6-1.8-2.6-1.8
				s-1.7-2.1-1.8-2.6c-0.1-0.5-1.5-3.5-1.5-3.5l-0.5-3.3l-0.6-3.1c0,0-0.9-2.1-0.9-3.1s0.3-4.2,0.3-4.2s-0.6-1.7-0.9-2.9
				c-0.3-1.3,0-1.7-0.4-2.7s-1.2-2.1-1.8-2.6s-1.2-1.2-1.7-1.7s-1.9-2.8-1.9-2.8s-0.9,0.8-0.9,1.3s-0.5,4.2-0.5,4.2l0.1,1.7
				l-2.3,3.1l-1.8,1.5l-2.8,2.2l-0.5,3.5l-1.8,3.1l-1.5,2.1c0,0-0.3-1.8-0.6,0.5c-0.4,2.3-1.8,3.6-1.8,4.1s-1.3,4-1.3,4l-1.9,0.8
				l-2.4-1.2c0,0-1.3-0.6-1.9-1.2s-1.9-0.9-1.9-0.9s-1.3,0.1-1.3,0.6s-1.7,1.8-1.7,1.8l-2.4,1.4c0,0-1,0.6-1.9,0s-2.7-2.4-2.7-2.4
				s-1.8-1.5-2.7-2.2s-2.7-0.5-2.7-0.5H285L283.3,228.2z"/>
		</g>
		<g id="to" transform="translate(-36.05404,-190.90844)" inkscape:groupmode="layer" inkscape:label="tocantins">
			<path id="path3951" inkscape:connector-curvature="0" class="st0" d="M345.9,384.1l0.2-4.5l1.8-2.3l3-2.5l2.5-2.3l3.4-5.5
				c0,0-0.5-0.9,0.2-2.3s0.7-1.2,0.7-2.7s-0.5-2.9-0.5-2.9l-1.2-2.9l0.9-3.6l0.5-3.6l1.8-1.6l4.1-0.7c0,0,0.4-0.7,1.1-2s2-2.9,2-2.9
				l1.8-2c0,0,0.9-0.5,1.2-1.6c0.4-1.1,0.5-3.4,0.5-3.4l0.4-2.9v-2l-1.8-0.4l-2-1.6l-0.2-1.2l2.7-1.4l3.2,0.5l4.3,2.5l2.7,0.7
				l-0.4,19.4l-1.6,1.8c0,0-2.1,1.1-1.2,1.2c0.9,0.2,1.6,1.6,1.6,1.6l0.5,2l-1.4,1.1l0.4,2l3.6,2.7l5,2.3l2.1-0.4l2-0.9h1.8v1.8
				l-0.4,1.8l-2,2l-2.5,3.7l-1.4,3.9l-0.7,1.4c0,0,2.3,0.7,2.7,1.2c0.4,0.5,1.4,2.5,1.4,2.5l1.1,0.7l1.1,2l-1.1,1.6l0.5,2.1l2.3,3.2
				l2.5,1.4l2.9,2.9l-0.7,1.8l-3.6,4.8l-2.9,5l0.9,2c0,0,0.7,1.6,1.8,2s0.9-0.5,1.2,0.4c0.4,0.9,0.4,3.6,0.4,3.6s-1.1,2.1-1.1,3
				s-0.2,2.1,0.7,2.5s1.2,2,1.2,2l-0.9,1.6l-0.5,3.4l-3,0.2l-2.7,1.1l-1.8,0.7l-1.6,1.2l-2.5,1.2l-2.5,1.4l-2.1-0.9l-1.6-1.2
				l-1.6-1.2l-0.2,3.6h-3.4l-2.3-1.6l-2-0.2l-1.8,0.7l-2-1.8l-1.8-2l-1.4-1.8l-0.5-0.2l-0.9,0.9h-1.6l-0.7-0.9L356,426l-1.4,3.7
				l-1.6,1.2l-8.6-5.5l-1.8-1.6l-0.2-2l-1.1-1.8l-1.2,1.6l-1.2,3l-1.6,0.2l-0.9-7.5l0.2-9.5l-0.4-4.1l2.1-2l1.1-3.6l0.5-5.4l1.8-4.1
				l1.4-1.6l1.8-1.4L345.9,384.1z"/>
		</g>
		<g id="ro" transform="translate(-36.05404,-190.90844)" inkscape:groupmode="layer" inkscape:label="rondonia">
		</g>
		<g id="ac" transform="translate(-36.05404,-190.90844)" inkscape:groupmode="layer" inkscape:label="acre">
			<path id="path3013" inkscape:connector-curvature="0" class="st1" d="M116.6,399.5l0.1-1.1l1-1.2l1.1-1l0.8-1h2l1.3-0.5l0.6-0.2
				h2.4l1.3-0.7c0,0,0.2-1.4,0.2-1.8s1.7-1.9,1.7-1.9l0.7-1.2l-0.8-1.2l-40.8-19.1l-4.4-3l-1.9-0.2l-5.1-0.8l-4.9-1l-4.4-1
				c0,0-4.7-0.8-5.3-1.1s-4.2-1.2-4.2-1.2l-6.7-2.5l-3.8-2l-2.5-0.5l-3.1-1.8l-2.3-1.6l-1.6,1.6l-1,1.2l-0.5,1.8l0.4,2.5l1.9,2.6
				v2.8c0,0,0,1.8,0.5,2.3s2.2,2.3,2.2,2.3s1.4,1.7,1.9,2s2.4,2,2.4,2l1.6,1.2l2.8,1.8l-0.1,1.2l-1.8,1.1l-1.9,1.6l1,0.8l1.8-0.4
				l2,0.4l1.1,0.2l4.7,0.2l1.3,1.4v1.4v4.8l4.1-0.2l1.7,0.5l0.6,0.5c0,0,0.7-0.1,1.2,0.1s1.6,0.2,2.4,0.2s2.3-0.6,2.3-0.6l1.6-1.2
				l1.7-0.5l1.1-1.2l1.1-1.7l1.7-2l1.7-1l1.6-0.4l1,1l-0.4,2.2l0.1,3.1l-1.3,2.5l-0.2,2.4l0.1,2.4l-0.8,1.6l-1.3,2.6
				c0,0,1.7,1.3,2.2,1.3s1.6,0.6,2,1.1c0.5,0.5,1.9,2.3,1.9,2.3l2.2,0.6l0.6-1.7l2.3-0.6l1.7-0.2l2.9-0.2l1.4-0.6l1.4-0.1l1.8,0.1
				l0.6,1.2l1.3,1.2l2,0.4c0,0,1.4,0.1,2.2,0.1s2.2-0.6,2.2-0.6l1.2-1.3l1.1-1.2l0.7-1.2l0.7-1.6l0.8-0.4l0.6-0.4v0.4l0.1,0.1
				l-0.5-0.8l0.2,0.1"/>
			<path id="path3015" inkscape:connector-curvature="0" class="st2" d="M114.5,400l-0.8-0.7l-0.6-0.7l-1.6-1"/>
		</g>
		<g id="am" transform="translate(-36.05404,-190.90844)" inkscape:groupmode="layer" inkscape:label="amazonas">
			<path id="path3008" inkscape:connector-curvature="0" class="st0" d="M176.5,230.6l2.5,3.1l1,4.3l4.8,7.2l0.4,2.2l0.1,2.7
				l0.1,5.2l-0.3,4.5l0.1,3.7l0.9,3.4l0.1,1.9l3.1,4l3.5,3.1l1.8-0.6l1.2-1.8l0.8-1.9l1.2-2.5l2.5-2.7l1.2-0.6l2.3,0.4l2.3,0.8
				l1.6,2.3l3.1,0.9l2.2-1.3l0.1-3.1l0.1-1.3l1.8-0.9l1.8-1.9l0.4-2.1l0.5-2.1l2.1-1.2l1.9-0.1h1.9h1.6l1.2,1.3l2.8,0.4l1.7-0.6
				l-0.1,3.4l0.8,2.8l0.4,3l1.6,3l1.8,1.3l2.1,1.4l0.6,1.9l0.9,1.3l1.4,2.6l0.8,1.8l0.9,1.7l10.1,0.3l2.5,1.8l2.3,2.3l-19.8,55.4
				l-1.3,1.9l1,3.1l1.7,1.6l2.6,2.3l1,2.8l-1,1.2l-0.4,3.7l-1.3,5.4v4.1l-1.8,4.8l-4,0.8l-3-0.8l-1.8,2.2l-30.2-0.5l-3.7-1.2
				l-1.4-0.8l-1.9-0.6l-1.4-0.4l-1.6-0.8l-2.2-1.2l-1.7-1.4l-1.7-1.7l-1.7-1.7l-1-1.4l-1-0.6l-5.9,0.4l-0.6,0.4l-1.6,1.3l-1.4,1.8
				l-0.6,1.7l-4.1-0.1v1.7l-1,2.2l-0.5,1.3l-6.1,3.6l-1.4,0.5l-1.2-0.1l-2.2,1.2l-1,1.6l-0.5,1.3l-1.8,1.3l-1.6,0.3l-1.3,1.3
				l-2.8,0.1l-0.4,0.3l-3.4-2.6l-4.5-0.6l-1.3,1l-1.2,1.8l-1.3,1.6l-1.4,1.7l-0.6,0.8l-42.8-19.8l-2.8-1.8l-3.5-0.5l-4.3-0.9l-3.9-1
				l-5.6-0.6l-3.7-1.3l-4.7-1.2l-3.2-1.2l-4.1-1.8l-3.2-1.3l-4.9-1.9l-1.8-1.2l-1.3-1.4l0.1-1.2l0.3-1.8l0.6-1.2l2.3-0.9l1.8-0.4
				l1.3-0.5l0.4-2.3v-4.5l-0.1-3.5c0,0-0.4-2.1,0.4-2.5c0.8-0.4,1.9-2.2,1.9-2.2l0.9-3l1.6-1.2l1.8-1.7l2.2-1.7l2.8-1.4l4.3-2.1
				c0,0,1.3-1,2.3-1c1,0,3.4-0.5,3.4-0.5l2.3-1.3h1.9c0,0,1.3-0.6,1.8-0.8s1.4-0.6,1.4-0.6l1.4-1l8.7,0.3c0,0,0.5-2.3,0.9-3
				c0.4-0.6,1-3.5,1-3.5l1.4-3.4l1.4-4.4l0.5-3.7l2.5-5.8l0.8-3.6l0.8-1.9c0,0-0.5-15.4-0.5-15.9s-1-3.2-1-3.2l-1.9-1.6l-3-0.8
				l-1.4-2.1l0.5-3.1l-1.2-1.4l-0.1-1.7v-3.1l2.6-0.3l2.1-1l2.1-0.9l1.6-0.6l1.9,0.6l0.9,1.2l1.4-0.4l0.6-0.9l-0.4-4.3
				c0,0-0.6-0.9-1.3-0.9c-0.6,0-2.7,0-3.2,0s-5.4,0.1-5.4,0.1l0.3-8.3l19.5,0.5l0.9-1.9l1.2-1.3l0.8,0.1l1,1.2l0.3,1.4l0.8,0.6
				l0.9-0.1l0.6-0.8l0.6-0.9l0.5-0.9l1.7-1.6l0.8-1.4l0.9-0.8l1,0.6l0.4,1.7l0.5,2.1l0.1,1.2l1.7,0.4l0.5,0.8l0.5,1.6l0.1,1.9
				l-0.1,1.7l-1,1.6l0.4,1l0.9,0.4l1.8-0.4l1-1.6l1.8,0.1l1.2,1.8l0.3,1.6l0.9,1.9l13.8,0.1l1.2-1.6h2.8l1.3-0.8l2.6-1.8l2.6-2.2
				l1.7-1.4l1.8-1.6l1.3-0.8l2.2-1.2l0.5-1.2l0.4-1.8l1.3-1.6l1.8-0.9l1.3-1l3.4,0.5h2.1l1.7-0.5L176.5,230.6z"/>
		</g>
		<g id="rr" transform="translate(-36.05404,-190.90844)" inkscape:groupmode="layer" inkscape:label="roraima">
			<path id="path2999" inkscape:connector-curvature="0" class="st1" d="M154.9,203.1l0.7,1.2l0.1,0.9v0.7v1l0.7,0.6l0.4,0.7
				l0.6,0.7h1h1l0.9,0.4l0.3,0.7l0.6,0.7l1,0.3l0.3,1v0.9l-0.1,1l-0.3,2.1l-0.4,0.4l-0.3,0.7l-0.1,1.5l0.1,1.5l-0.3,0.4l-0.9,1
				l-0.3,1l0.1,1.5l0.1,1.8l0.7,1.5l1,1.2l1.5,0.4l1,0.6l2.1,0.1l1.5-0.3h1.5l1.3-0.9l0.9-0.3l1.5,0.1l1.2,0.4l0.9,1.6l0.9,1.2
				l1,0.6l0.9,1.2l0.3,2.1l0.6,1.8l0.9,1.9l1,0.9l1.2,1.5l0.3,1.2l0.6,0.9l0.7,1.5l1.2,0.9l0.1,17.9l0.6,0.6l0.1,1l0.1,1.9l0.3,1.2
				l1,1l0.6,1.9l1,0.4l1,1.3l1,1.5l1.2,0.7l0.9,0.4l1.3-0.4l0.9-0.7l0.7-1.6l0.1-1.8l1-1.5l0.4-1.3l1-1l0.7-0.7l1.3-0.9h1.2l1.5,0.1
				l1,0.6h1.5l0.6,1.3l1,0.7l0.3,0.9l1,0.4l0.7,0.3l1.6-0.4l1.3-0.6l0.7-1.5v-1.5l-0.1-1.2v-1l1.3-0.4l1.2-0.9l0.7-0.7l0.4-1
				l0.4-1.3l-0.1-1.5l0.6-0.7l0.6-0.9l1.5-0.4l2.4-0.1l2.8,0.1l0.4,0.4l1.2,0.7h1l2.1,0.1l1.5-0.1L231,246l-2.7-2.7l-1.5-1.6
				l-1.6-1.8L224,239l-1.3-1.9l-1.2-0.7l-1-3.7l-0.3-1.9l-1.2-1.3l-1.2-1.2l-0.9-0.7l0.1-3.7l0.7-3l0.6-2.2l-0.3-2.4l0.7-1.8l1-1
				l0.9-0.9l0.7-1.5l1-1l0.3-1.3l-0.7-0.9l-1-1l-1-1.3l-0.3-2.7l-0.1-1.8l-2.2-0.3l-2.2,0.1v-1.5l1.2-1l0.9-1l0.7-1.6l0.3-1L217,193
				l-1-1.3l-2.4-0.3h-2.2h-1.6l-1,0.7l-1.3,0.7l0.4,1.8l0.9,1.2l0.3,1.8l-0.4,1l-0.9,1h-1.3l-0.7,1.6l-1.2-0.4h-2.2l-1-1.2l-0.7-0.3
				L199,200l-1.8,1.2l-0.9,1l-1,0.9l-0.7,0.9l-0.4,1.3l-4.4-0.1l-3.8-0.4l-1.9,0.9l-1,1.2l-0.4,1.5L182,210l-1,1.3l-1,1.2h-1.2
				l-1.3-0.9l-1.2-1.3l-1-0.9l-2.8,0.4l-1.3-0.6l-0.9-1l-1,0.1l-1.5,1.5l-2.4-0.6l-0.9-1.2l-1-1.5l-1.2-0.6l-3.2,0.1l-1.2-1.3
				l-1-1.6l-1.3-1L154.9,203.1z"/>
		</g>
		<g id="ro_1_" transform="translate(-36.05404,-190.90844)" inkscape:groupmode="layer" inkscape:label="rondonia">
			<path id="path3018-8" inkscape:connector-curvature="0" class="st1" d="M198.5,374.4l-2.6-1.4l-4-1.1l-1.9-1l-3.2-1.1l-2.1-1.6
				l-1.6-1.6l-2.2-1.9l-1.4-1.5l-1.2-1.4l-4.2,0.6l-1.2,0.1l-1.6,1.2l-1.4,1.6l-0.9,1.2l-0.4,1.4l-2.2-0.5l-1.5,0.1l-0.7,2l-1,2.5
				l-1.6,2.2l-3.4,1.4l-2.4,1.6l-1.5-0.6l-1.6,0.7l-1.5,1.2l-0.5,1.9l-1.9,1.4l-1.7,0.6l-1.7,1.2l-2.5-0.4l-2.4-0.4l-1.4-1.4
				l-2.1-0.9h-2.1l-1.6,1.1l-1.2,1.5l-2.1,2.7l-0.9,1.6c0,0,0.2,1.4,0.9,1.4s1.6,0.4,2.1,0.2c0.5-0.1,1.4-1.1,1.4-1.1
				s0.4-1.1,0.9-1.1s2-0.7,2.6-0.7s1.4-0.2,1.9-0.2s0.6-0.6,2.7-0.1s1.6,0.2,2.5,0.2s1.5,0,2,0s1.7,0.2,1.7,0.2l0.1,2.5
				c0,0-0.5,1.9-0.5,2.4s-0.7,2.5-0.6,3c0.1,0.5,0.2,2.6,0.2,3.4c0,0.7,0,2.5,0,2.5l-0.2,3c0,0,0.4,1,0.9,2s0.7,1.9,1.4,2.2
				c0.6,0.4,0.7,3.1,0.7,3.1s0.4,1,0.5,1.5s0.6,1.7,1.1,2.1s1.6,1.6,1.6,1.6l1.5,0.9c0,0,0,1.4,0.7,2s1.1,1.2,1.1,1.2
				s0.1,0.4,0.6,0.6s0.4,0.5,1.2,0.7c0.9,0.2,1.1,0.2,1.7,0.4c0.6,0.1,1.4,0.1,1.6,0.6c0.2,0.5,1.2,0.5,1.2,0.5l1.7-1.1l1.1-0.7
				c0,0,0.9-0.1,1.4-0.1s-1.1-1.1,0.7,0.1c1.9,1.2,2.9,2.7,2.9,2.7l1.4,0.5c0,0,1.4-0.5,2-0.7s1.4-0.6,1.4-0.6l0.5,0.7l1.5,1.2
				c0,0,0.2,0.9,0.7,1s2.5,1.7,2.5,1.7s0.6,0.6,1.1,0.9c0.5,0.2,2,1.6,2,1.6s1,0.2,1.9,0.4s2.7,0,2.7,0s1.1-0.1,1.4,0.5
				s0.2,1,0.5,1.5c0.2,0.5,1.5,1,1.5,1l1,0.2c0,0,1.7,0.6,2.1,1.2s1,1.1,1,1.1s0.4,0.2,0.9,0s1.2-1.2,1.7-1.2s2-0.4,2-0.4l1.7,0.6
				l1.6,0.4c0,0,0.1,0.2,0.7,0.6s3,0.4,3,0.4l2.2-1.9l2.1-2.5l1.6-3.2l0.2-2l1.7-1.7c0,0-0.1-1.2,0.5-1.2s1.9-2.2,2.1-2.7
				s1.2-0.5,1.2-2s-0.5-3.2-0.5-3.2l-1-1.5l-0.7-2.7l-0.4-1.6l1.4-1.6c0,0,0.9-1.4,0.7-1.9c-0.1-0.5-0.5-1.7-0.5-1.7s-0.5-1-1.4-1.2
				s-2.5-0.4-2.5-0.4l-2.7,0.1c0,0-1.1-0.7-1.7-0.9c-0.6-0.1-3.1-0.6-3.1-0.6l-2.9-0.1c0,0-0.6-0.9-1.1-1.2s-1.4-0.7-2-1.4
				c-0.6-0.6-2.1-1.9-2.1-1.9s-1.2-1.2-1-1.7s-0.6-2.7-0.6-2.7l0.4-2.6l1.4-2.5l0.4-3.1l0.5-2v-2.1l-0.9-2l-0.5-1.7l0.2-1.1
				L198.5,374.4z"/>
		</g>
	</g>
	<g id="nordeste">
		<g id="pe" transform="translate(-36.05404,-190.90844)" inkscape:groupmode="layer" inkscape:label="pernambuco">
			<path id="path3978-9" inkscape:connector-curvature="0" class="st0" d="M504.9,374.6l-0.8,0.3l-1.1,0.8l-1.9,2.4l-0.6,1.1l-1,1.8
				l-1.1-1.4l-1.3-3.3l0.2-1l-2.1-0.2l-1.1-1.1l-1.1-0.1l-1.1,0.2l-5-3l-2.2-0.8l-1.7-0.1l-1.5,1.4l-2.2,1l-3.4,1.7l-1.3,1.2
				l-1.7,2.6l-2.4,2.1l-3.2,1l-2.1-1.4c0,0-1.6-1.1-1.8-1.4s-1.5-1.4-1.8-1.8s-1.4-1.6-1.4-1.6l-1.3-1.3c0,0-0.7-1.1-0.5-1.4
				s-0.2-1.1,0.3-1.4s2.3-1.4,2.3-1.4l1.1-0.4c0,0,0.8-1.2,1.1-1.5s1.3-1.4,1.4-1.8s0.8-1.7,1-2s0.6-1.2,0.6-1.2l-0.1-3.3l-0.9-3.2
				c0,0-0.1-1.6,0.4-1.8c0.5-0.2,1.6-0.5,1.6-0.5l2.6,0.5l6.5,0.5h3.1l2.2,0.5l2.1,2.8l1.5,2.5c0,0,1.1,0.1,1.7-0.1s2-1.1,2.5-1.4
				s1.2-0.8,1.7-0.9s1.1,0.5,1.1,0.5s1.6,0.3,2,0.3s1-0.4,1.4-0.2s0.8,0.5,1.4,0.6s1.8,0.3,1.8,0.3l2.1,0.1c0,0,1.6,0.2,2-0.2
				s1.2-1.1,1.6-1.4s1.1-1.1,1.5-1.4s1.2-1.5,1.2-1.5l0.8-0.4l3.9-0.3l2.1,0.2l0.5,1l-0.4,1l-1.4,1.8c0,0-1.4,1.7-1.4,2.1
				s0.4,1.6,0.4,1.6l1.1,0.7l1.1-0.4l5.1-0.5l2.4-1.2l4-1.1l1.8-0.5l2.4-0.3l2.3-1.4l2.4-1.4l2.7-2.7l1.9-1.5l2-1.5l0.4,0.5l0.9,2.4
				l-0.2,3.9l-0.9,5.1v4.4L541,369l-1.2,2.3l-0.8,2.1l-1.5,1.8l-1.4,0.8c0,0-1.1-0.1-1.1,0.3c-0.1,0.4-2.2,0.8-2.2,0.8L532,377
				l-1.6-1.2c0,0-0.7-0.8-1.1-0.7s-1.2,0.1-1.8,0.7c-0.5,0.6-1.8,0.7-2.4,1.1s-2.1,0.7-2.2,1.1c-0.1,0.5-1.1,1.2-1.4,1.8
				s-1.3,0.9-1.8,1.5s-2.5,0.7-2.5,0.7H515l-2.3-1l-1.9-1.5c0,0-0.2,0.1-0.5-0.5s-1.1-1.4-1.1-1.4l-1.3-0.5l-1-1l-0.5-0.6
				L504.9,374.6z"/>
		</g>
		<g id="pi" transform="translate(-36.05404,-190.90844)" inkscape:groupmode="layer" inkscape:label="piaui">
			<path id="path3959-0" inkscape:connector-curvature="0" class="st0" d="M437.8,329.5l1.6-4.2l0.7-0.7l0.7-2.8l-1.4-3L439,316
				l0.4-1.8l1.2-2.1l1.9-2.3l0.7-2.6c0,0,0-1.2,0.7-1.8c0.7-0.5,2.6-1.6,2.6-1.6l2.8-0.9l1.8-1.6c0,0,0.2-1.1,0.9-2.3
				c0.7-1.2,0.2-1.9,0.9-1.9s2.6,0.9,2.6,0.9l2.3,0.9l0.4,2.3c0,0-1.1,1.6-1.1,2.1s-1.4,1.6-1.4,2.3s0,2.8,0,2.8s0.9,1.6,1.9,2.8
				s2.1,3,2.1,3l1.1,3.7c0,0-0.5,1.4,0,2.8s-0.4,3.5,0.2,4.6c0.5,1.1,0.5,3.4,0.5,4.1s-0.2,0.9,0.2,2.1s0,2.5,0.5,3.7
				s1.1,2.6,1.4,3.5c0.4,0.9,0.7,1.8,0.9,3.5c0.2,1.8,0.4,2.6,0.7,3.4s0.5,0.7,1.2,1.1s1.6,0.4,2.1,1.2s0.7,2.5,0.7,2.5l-0.7,1.9
				l-1.4,1.2c0,0-1.2,1.8-1.2,2.5s0.9,4.4,0.9,4.4l0.5,3c0,0,0,0.7-0.7,1.8s-1.9,3-1.9,3l-2.1,3c0,0-1.6,0-1.9,0.7s-1.4,1.4-1.4,1.4
				l-3,0.4l-1.9,1.8l-1.8,1.9l-1.9,2.6l-2.6,2.1h-2.6l-1.1,1.9l-1.6,1.1l-1.9,0.7l-4.6-2.5l-2.1-1.2h-2.6l-2.5,0.2l-1.1,3v3.5
				l-0.2,3.4l-1.8,3.5l-2.5,2.3l-3.2,0.4l-2.1,0.4l-2.6,1.9l-3.5,1.6l-3.9-1.2L406,399l-2.3-2.1l-2.5-1.8h-2.8l0.7-0.2
				c0,0,0.5-0.5,1.2-1.4s0.2-2.1,1.1-3s1.1-1.6,1.4-2.3c0.4-0.7,0.2-1.6,0.2-1.6s-1.2-0.9-1.2-2.3s-1.1-2.1-1.1-3.5
				s-0.2-3.4-0.2-3.4l0.2-2.6l1.1-2.1l2.8-5.5l1.2-6.4l1.6-2.5l3.4-1.4l3-0.9l3.9-1.4l3-2.5c0,0,2.3-2.3,3-2.8s1.9-1.6,3-1.6
				s3,0,3,0l1.8,1.9c0,0,0.5-0.4,1.4-0.7c0.9-0.4,0.5-1.1,1.9-1.1s2.8-0.7,2.8-0.7s1.8-0.4,2.3-1.1s-0.5-1.4-0.7-2.8
				s-0.9-1.8-0.9-2.6s-1.1-3.2-1.1-3.2l-0.7-2.1l-1.1-3.5L437.8,329.5z"/>
		</g>
		<g id="se" transform="translate(-36.05404,-190.90844)" inkscape:groupmode="layer" inkscape:label="sergipe">
			<path id="path3984" inkscape:connector-curvature="0" class="st0" d="M517.6,397.7l1.2-0.9l1-0.9l1.2-0.9c0,0,0.2-0.7-0.1-1
				s-1.3-1.2-1.3-1.2l-0.9-0.7l-0.7-0.7l-1.5-1.4l-1.6-1.2l-1.2-1.2l-1.5-1.2c0,0-1.2-0.9-1.5-1.1s-1.2-0.7-1.6-1s-1.5-0.7-1.8-0.7
				c-0.3-0.1-2-0.8-2-0.8l-1.3-0.3l-1.3-0.2l-0.9-0.2l-0.5,0.3l-0.5,1c0,0-0.2,1.1-0.1,1.3c0.1,0.2-0.1,2.1-0.1,2.1l0.4,0.7
				c0,0,0,0.7,0.5,1s1.3,1.3,1.3,1.3l0.8,0.7l0.5,1.3c0,0-0.1,0.6-0.2,1.2c-0.1,0.5-0.7,1.6-0.7,1.6l-0.6,1.5l-0.5,1.1
				c0,0-1.1,0.3-1.3,0.4c-0.2,0.1-0.7-0.5-1.5,0.4s-1.3,1.2-1.3,1.2l-0.3,1.1c0,0-0.3,1.2-0.2,1.7c0.1,0.5,0.2,2.3,0.2,2.3l0.7,0.7
				l1.3,1.2c0,0,0.9,1.1,1,1.4s0.1,0.7,0.6,1.2s1.8,0.5,1.8,0.5l2.1,1"/>
			<path id="path3986" inkscape:connector-curvature="0" class="st0" d="M503.5,409.6l1.9,0.7l2.1,0.3c0,0,0.8-0.1,1.3-0.6
				s1.2-1.7,1.3-2c0.1-0.3,1-2.2,1.1-2.6s0.6-2.1,0.6-2.1l1-1.2l1.2-0.9l1.6-1.4l0.9-1.3l1.2-0.9l0.4-0.2l0.5-0.3l1.6-1.3
				c0,0,0.9-0.2,0.8-0.8c-0.1-0.5-0.1-1-0.4-1.3s-1.6-1.4-2-1.5s-2.6-1.5-2.6-1.5s-0.7-0.9-1.2-1.3s-1.8-1.5-1.8-1.5l-1.8-1.2
				l-2.5-1.7l-2.3-0.9c0,0-1.8-0.7-2.6-0.7c-0.7-0.1-2.2-0.4-2.2-0.4s-0.7,0.7-0.6,1.2c0.1,0.4,0.4,2.1,0.4,2.1l0.1,1.5
				c0,0,0.2,1.5,0.7,1.7s1,0.9,1.2,1s0.3,2,0.3,2l-0.3,2.1l-0.7,1.2l-1,1.7l-1.2,0.5l-2.9,1.2l-0.3,1.8c0,0-0.1,2-0.1,2.3
				c0.1,0.3-0.2,0.7,0.7,1.5c1,0.9,1.9,2.3,2.3,2.8s1,0.8,1.5,1.1C502.3,408.8,503.5,409.6,503.5,409.6L503.5,409.6z"/>
		</g>
		<g id="al" transform="translate(-36.05404,-190.90844)" inkscape:groupmode="layer" inkscape:label="alagoas">
			<path id="path3981" inkscape:connector-curvature="0" class="st0" d="M500.2,380.2l0.9-2.2l1.9-2.4l1.8-0.8l2.5,0.9l3.1,1.8
				c0,0-0.8,0.2,0.3,1s2.1,1.5,2.1,1.5s1.8,0.5,2.1,0.6s1.1,0.1,1.7,0.2c0.5,0.1,2.6-0.7,2.6-0.7s1.5-0.8,1.8-0.9s1.2-1.2,1.2-1.2
				l1.4-1.1l1.9-1.1l2.1-0.6l1.3-0.3c0,0,1.4,0.3,1.7,0.6s2.1,0.7,2.1,0.7s0.7-0.4,1.1-0.4s2-0.7,2-0.7s1.4-0.9,1.7-0.9s1.3-1,1.3-1
				l0.2,0.8l-2.4,0.5l0.5,1.3l0.2,1.4l-1.9,2.3l-1.8,1.8l-1.8,1.1l-1,0.8l-1.1,2.1c0,0-1.4,1.8-1.4,2.1c0.1,0.4,0,1.2-0.1,1.5
				s-1.2,1.5-1.2,1.5l-1.2,2l-1.2,0.5l-1.5,1.5l-2.1,0.2c0,0-1.6-1.8-2-2s-2.4-1.3-2.4-1.3l-1.8-1.8l-1.7-1.5l-2.2-1.8l-2.4-1.4
				l-2.2-0.8l-2.4-0.8l-2.1-0.4l-0.8-0.7L500.2,380.2z"/>
		</g>
		<g id="pb" transform="translate(-36.05404,-190.90844)" inkscape:groupmode="layer" inkscape:label="paraiba">
			<path id="path3971" inkscape:connector-curvature="0" class="st0" d="M494.5,360.3l1.4-0.3l1.1,0.4c0,0,0.6,0.5,1,0.5
				s2.7,0.1,2.7,0.1l1.8-0.1c0,0,0.6-0.3,1.4-0.7s1.4-1.3,1.4-1.3l0.5-0.8l1.1-1.3l0.8-1.1c0,0,2.2-0.2,2.7-0.2s3.4,0.2,3.4,0.2
				l0.1,0.8c0,0-0.8,0.7-0.9,1.1s-1.7,2.4-1.7,2.4s-0.5,1.2-0.4,1.6s0.2,0.6,0.4,1.1s0.3,0.9,0.6,1.1s0.8,0.2,1.4,0.1
				c0.7-0.1,0.2-0.3,1.4-0.5s0.8-0.3,2-0.2c1.2,0.1,2.1-0.4,2.4-0.4s1.3-0.4,1.8-0.6s0.5-0.8,1.3-0.8s1.1-0.4,2.3-0.5
				c1.1-0.1,1.1-0.5,2-0.5s1.1-0.2,1.9-0.2s1.1-0.4,1.6-0.5s1.3-0.6,1.9-1s1.1-1.1,1.4-1.3s1.3-1,1.6-1.2s1.6-1.4,1.6-1.4l0.7-0.9
				l1.1-0.9c0,0,0.5-0.9,0.8-1.1s1.1-0.8,1.1-0.8l1.5-0.6c0,0-0.6-1.4-0.9-2s-0.9-1.5-0.9-2.4s-0.2-1.6-0.2-1.6s0.1-0.6-0.6-1.3
				c-0.7-0.7-1.4-1.6-1.4-1.6l-0.4-0.5l-4.7,0.1l-1.2,0.7l-1.4,1.2l-0.9,0.6l-1.4,0.4l-1.2-0.9l-1.8-1.4l-0.5-1l-1.4,0.2l-1.1,0.8
				l-1,0.8c0,0,0.2,1.4,0.2,1.8s-0.5,3.2-0.5,3.2l-1.1,0.9l-2,0.2l-1.6-1.4c0,0-0.5-0.7-0.8-0.7s-3.6-0.4-3.6-0.4s-1.5,0-1.8-0.2
				s-0.6-1-0.6-1l2.9-3.7l0.5-1.5c0,0,0.8-1,0.3-1s-0.5-0.3-1.1-0.3s-0.9-0.1-1.4-0.1s-1.3,0-1.3,0l-2.1,0.9c0,0-1.4,0.8-1.8,0.8
				s-2,1.3-2,1.3l-1.6,0.8l-1.7,0.8l-1.3-0.2l-1.4-0.5l-0.9-1l-1.1-0.2l-0.4,0.3l-1.3,2.1l-0.2,2.7l-0.4,1.8l-0.6,1.4l-0.6,1.5
				c0,0,0,2.1,0.4,2.3s0.8,1.9,0.8,1.9l0.1,1.2l-0.6,1.2l-1,0.8l-0.1,0.1l0.5,0.5l1.2,0.6l1.3,0.4L494.5,360.3z"/>
		</g>
		<g id="ma" transform="translate(-36.05404,-190.90844)" inkscape:groupmode="layer" inkscape:label="maranhao">
			
				<path id="path3968" inkscape:connector-curvature="0" sodipodi:nodetypes="ccccccccccccccccccccccccccccccscccccccccccccccccscccccsccccccscccccccccccccccccccccccccccccccscsccssscccccccsccccccccscccccc" class="st1" d="
				M397.9,275.2l-1.4,1.4l-1.2,2.4v2.6l-0.8,2.2l-1,2.8l-1.2,2.2v2.6l-1,3.4l-0.4,2.8l-0.6,2.2l-1.8,2.4l-2.2,2.4l-1.8,3l-1.6,0.8
				l-2,1.8l-2.4,1.6l-2,2.2l-2.2,2.6l-2,1.4l-2.4,1.2l-1.8,2.2l-2.2,1.6l-1.4,2.2l-0.4,1.4l0.2,1.8h2l1.8-1l2.2-1l2.6,0.2
				c0,0,3.2,2,4,2.2s1.6,1.2,1.6,1.2l-0.4,18.6l-1.8,2.2l-1,1.2l1.8,1.6l-0.8,2.6l0.2,2.6l3.2,2.4l3.2,1.6l3.4,1.2l2.4-0.4l2.2-0.8
				v1.4l-1.2,1.8l-4,3.8l-1.6,6l2.8,2c0,0,0.8,0.2,1.6,1.6s1,2.4,1,2.4l0.2,1.4l0.6,5.2l2.4,2.4l3.4,1.6c0,0,0.4,1.4,1.6,1.8
				s2.2-0.4,2.2-0.4l1.6-4.2l1.4-3.2l-1.6-4l-0.8-5.6v-3.4c0,0,2.8-3.4,3.2-4.4s1.4-6.8,1.4-6.8l1.4-3.6l2.8-1.6l4.2-2l3.2-0.2
				l2.6-1.4l2.4-2.4l1.8-1.8l1.6-1.2l2.4-0.6l1.6,0.8l1.2,1l2.4-0.8l1-0.6l2-0.4l2.8-0.8l1.4-2.2l-4.8-12.8l2.6-3l1.2-2.8l1.6-2.8
				l0.4-3l-1.8-3.6l-0.2-2.6l1-2.2l1.8-1.8l1.8-3.6l1.6-2.6l3.8-2l1.8-1.2l1-3c0,0,1-1.2,0.2-1.2s-3.2,0-3.2,0s-1.6-0.6-2.4,0.2
				s-2.6,1-2.6,1l-2-2.4c0,0-3-1.6-4-2.2s-2-1.6-3-1.6s-3.2,0.2-4,0.4c-0.8,0.2-3.6,1.6-3.6,1.6l-2.2,0.8l-2.8,1l-1.8,1.6l-1.4,2
				l-1.4,1.6l-1.8,2.6c0,0-1.2-0.8-0.8-1.6s1.4-5.2,1.4-5.2l0.6-2.6l-0.4-2.6l-1.6-1.2l1.6-2.4l0.8-1.8l-2.6-2l-4.6-3
				c0,0,0.2-1-1.2,0s-2.2,1.2-2.2,1.2l-1-1.8l-2.4-2.4l-2-1.4l-1.6-0.8L397.9,275.2z"/>
		</g>
		<g id="rn" transform="translate(-36.05404,-190.90844)" inkscape:groupmode="layer" inkscape:label="rio-grande-norte">
			
				<path id="path3965" inkscape:connector-curvature="0" sodipodi:nodetypes="ccccccccccccccccccccccccccccsccccccccccccccsccccccc" class="st1" d="
				M511,323l-3,0.7l-1.6,1.4l-1.8,0.9l-1.4,0.7l-0.7,2.3l-1.2,1.9l-1.2,3.7l-1.8,2.1l-1.2,2.5l-1.9,1.9l1.6,1.9l2.6,0.7l3-1.4
				l3.4-2.1l1.9-0.9l1.9-0.5l1.9,0.5l-0.4,1.6l-1.6,1.8l-1.6,2.1l0.7,1.8c0,0,0.7,0.2,1.4,0.4c0.7,0.2,2.5,0.2,2.5,0.2l2.3,0.2
				l1.9,1.9l1.4,0.7l2.5-1.4c0,0,0.4-0.2,0.5-1.6c0.2-1.4-0.2-3.9-0.2-3.9l1.1-0.9l1.8-0.2l0.5,1.2l2.6,1.8l2.3-0.4l1.4-1.1
				c0,0,2.6-1.8,3.5-1.6c0.9,0.2,1.9,0,1.9,0l2.3,0.2l-0.4-2.6l-0.9-4.2l-1.2-4.2l-1.6-2.3c0,0-1.2-1.6-2.5-1.6s-3.5-1.1-3.5-1.1
				h-4.1l-3.2-1.4h-1.4l-4.1-1.4c-1-0.8-0.2-1.3-3-2.3C512.1,320.9,511.6,323.1,511,323"/>
		</g>
		<g id="ce" transform="translate(-36.05404,-190.90844)" inkscape:groupmode="layer" inkscape:label="ceara">
			
				<path id="path3962" inkscape:connector-curvature="0" sodipodi:nodetypes="cccccccccccccccccccccccccccccccsccccsccccccscccccccccccsccscccccccccc" class="st0" d="
				M457.9,298.3l-1.1,2.5l-1.6,1.8l-0.5,3l0.4,2.3l1.1,2.3l1.2,2.3l1.6,3.4l0.9,5.1v3.7l0.4,3.5c0,0,0,1.9,0.2,2.6s0.5,2.6,0.5,2.6
				l1.2,5.1l0.9,3.5l0.9,2.3l1.9,2.5l1.4,1.1l0.4,1.6l-0.9,3l-1.2,1.9l-0.2,0.4l0.2,0.4h0.9l-0.4,0.2l0.2,0.4h0.2l0.5-0.4l-1.1-0.4
				l1.2,0.2l4.6,0.4c0,0,4.2,0.2,4.9,0.2c0.7,0,3.7,0,3.7,0l1.8,0.7l1.1,2.5l1.9,3.2c0,0,0.9,0,1.8,0s2.5-1.8,2.5-1.8
				s1.2-1.4,2.1-1.6s1.2-1.2,1.2-1.2l1.1-1.2l-1.2-1.9l-0.7-2.6c0,0,0.2-1.8,0.9-2.6c0.7-0.9,0.5-4.8,0.5-4.8l1.6-2.6l3.2-2.6
				l1.4-2.3l1.4-2.8l3.2-7.1l3.9-2.5l2.8-0.7l0.7-0.7l-2.8-3.4l-3.4-2.3c0,0-2.1-1.4-2.8-1.8s-4.8-2.5-4.8-2.5l-1.8-2.1
				c0,0-1.2-1.9-2.3-2.5s-6-3.5-6-3.5l-3-2.3l-4.6-3l-4.1-1.1l-4.4-2.5l-2.6,0.2l-1.6,1.8l-3,0.2l-3.7-0.2L457.9,298.3z"/>
		</g>
		<g id="ba" transform="translate(-36.05404,-190.90844)" inkscape:groupmode="layer" inkscape:label="bahia">
			<path id="path3954" inkscape:connector-curvature="0" class="st0" d="M406.2,398.1l-1.9-2.1l-2.8-1.6h-2.8l-2.1,0.9l-1.1,3
				l-3.4,4.1l-1.6,3l0.2,1.2l1.6,2.8l1.2,1.1l1.2,1.2l-0.9,1.2l-0.4,4.1l0.4,1.6l1.2,1.8v1.9l-0.7,3l-0.5,2.5l0.7,11.1v2.5l2.5,2.5
				l0.5,4.2l0.5,3.9l0.2,2.1l2.8,1.4l4.9-1.4l3.9-2.8l4.4-3.9l2.5-1.9c0,0,1.8-0.4,2.6-0.4s3.2-0.4,3.2-0.4l1.4-0.5l1.1-0.9l1.2-0.7
				l1.4,0.7l-1.2,1.4l-0.7,1.4l0.9,4.2l2.8,0.9l2.3-1.2l2.5-1.1l3.2,1.4l2.8,2.1l2.1,2.6l1.6,1.6l3.7-0.2l3.4,1.4l3.9,2.8l3.5,3.9
				c0,0,0,1.1,0.7,1.1s4.9-0.7,4.9-0.7h2.6l2.6,0.4l4.1,2.1l2.3,2.1l-0.4,1.8l-2.6,1.6l-1.4,2.8l-0.7,3l-2.3,3.9l-2.1,2.3l3.9,4.8
				l1.1,1.4l3,3.2l3.4,2.5l1.8,0.5l1.4-2.3l1.6-4.6l1.1-5.8l1.4-4.8l1.8-4.8l0.7-3.5l1.1-4.6l0.9-3.2l1.1-2.3l-1.8-2.1l0.4-16.6
				l-0.9-0.7v-1.8l-1.2-2.1c0,0-1.4-0.9-0.7-0.9s1.6-0.9,1.6-0.9s1.2-0.2,0.5-1.4s-1.2-2.3-1.2-2.3l1.8-1.1l1.1-1.8l1.8-1.6
				c0,0,0.7-1.4,0-1.6S490,426,490,426l-0.2-0.9l1.4-1.2l0.4-1.2l1.8-0.7l1.8,0.2l0.5,1.4l0.9,1.8l1.2,1.1l1.9-2.3l1.6-2.5l1.8-1.6
				l0.7-1.9l1.2-2.3l1.1-2.8l1.8-1.6l0.5-1.1l-3.5-0.4l-3-2.1l-1.2-1.8l-2.1-2.5l0.2-2.3V399l2.1-0.7l2.1-0.5l1.2-2.1
				c0,0,0.2-1.6,0.7-2.3s0.5-2.5,0.5-2.5l-1.8-1.2l-1.6-2.1v-3v-2.8l-2.1-1.9l-1.6-2.8c0,0,0.5-2.1-0.9-1.9s-3.7-1.8-3.7-1.8
				l-1.6,0.5l-1.9-1.6l-3.2-1.8l-1.9-0.9l-1.6,0.2l-1.8,1.4l-3,1.6l-3.9,2.1l-1.4,2.1l-1.9,2.3l-1.2,0.9l-2.6,0.7l-2.1-1.8
				c0,0-1.2-0.5-1.6-1.2s-1.8-2.3-1.8-2.3l-1.8-1.8l-1.2-1.4l-1.1-0.4l-4.6,2.3l-3.2,4.2l-1.9,1.8l-1.4-0.4l-2.3,1.1l-1.2,1.8
				l-1.2,1.4l-1.8-0.5c0,0-0.9-0.2-1.6-0.5c-0.7-0.4-2.1-1.4-2.1-1.4l-1.1-0.7l-1.8,0.2l-2.3-0.4l-1.2-0.5l-1.9,1.1l-1.1,1.8
				l-0.2,6.5l-1.1,3.4l-0.9,1.8l-2.6,1.9h-3.4l-1.8,0.9l-0.9,0.5l-2.1,1.9l-2.5,0.9l-3-0.9l-1.4-1.6L406.2,398.1z"/>
		</g>
	</g>
	<g id="centro-oeste">
		<g id="go" transform="translate(-36.05404,-190.90844)" inkscape:groupmode="layer" inkscape:label="goias">
			
				<path id="path3937" inkscape:connector-curvature="0" sodipodi:nodetypes="cccccccccccccccccccccscscccccccccccccccccccccccscsccccccccccccccccccsccccccsccccccccccccccsccccccccccccccccccccccccccccccccsccccsccccccscccccccccccc" class="st0" d="
				M346.9,426.8l-2.4-1.4l-1-0.8l-0.4-1.2v-2.3l-1.4-1.4H341l-1.3,1.9l-0.8,1.9l-0.9,1.8l-1.3,0.6l-0.1,2.5l0.2,2.3l-0.3,2.3
				l-0.7,1.3l-1.2,1.8l-0.1,1.4l-0.3,2l-0.9,1.2l-1.1,1.1c0,0-0.1,1.4,0.1,2s0.1,2.1,0.1,2.6s-0.3,2.1-0.3,2.1s-0.9,1.1-0.9,1.4
				s-1.3,1.6-1.3,1.6l-1.7,0.9l-1.6,1.4l-0.7,0.9l-1.4,2.8l-0.8,3.5l-1.6,1.9l-1.3,1.2l-1.8,0.3l-5.3,6.7l-0.2,1.4l-1.7,2.3
				l-1.3,1.3l-2.6,2.8l-1.1,1.4l-0.9,2.1l0.3,2.3l0.2,3.6l-0.8,2l-1.4,2.3l-1,1.4l7.1,5.8l2.6,1.6c0,0,2.9,0.3,3.7,0.7
				c0.8,0.4,3.5,1.1,3.5,1.1s2.4,0.9,3.3,1.4s3.2,1.9,3.6,2.1s2.8,2,3.2,2.4c0.4,0.4,3.2,1.5,3.2,1.5l0.5-0.4l0.6-1.5l2.3-1.5
				l2.5-1.4l1.3-1.3l0.7-1.4l0.9-1.4l1.2-1.1h1l2.3-0.4l2.1-0.5l1.6-0.5l1.4-0.7l1.3,0.4l1.1,0.7c0,0,1,0.9,1.4,0.9s0.9-0.1,0.9-0.1
				l1.7-2.8l1.6-1.2l3.3-0.7l3.3,0.5l1.1,1c0,0,1.7,0.3,2.6,0.5s2.6,0.2,2.6,0.2l0.9-0.1l1.4,0.9l2.7-1.1l2.3-1.8l2.1-2.7l0.4-1.7
				l0.3-1.9l0.6-1.4l-0.4-1.6l-1-1.5l-0.2-1.4l1.6-1.4l0.4-3.2c0,0-0.4-1.8-1.1-2.3s-2.4-2.7-2.4-2.7l-1.5-3.2l-0.9-1.2l0.1,0.2h4.6
				l1.3-2.6l1.5-1l1.9-1.6c0,0,0.2-1.6-0.1-2.2c-0.3-0.6-1.3-3.6-1.3-3.6l0.6-2.2l2.6-1.8l0.7-1.7l0.9-2.1l0.2-1.3l3.1,2.1l2.6,1.4
				l1.8,0.5l-0.5-9l-1.8-2.6l-1.4-1.9V426h-3.8l-1.7,0.2l-1.7,1.1l-2.2,1.1l-2.2,1.6c0,0-1.2,0.6-1.5,0.8s-1.9,0.8-1.9,0.8l-1.4-1.4
				c0,0-0.7-1.1-1.4-1.3s-1.2,0-1.2,0s-0.8,0.8-0.8,1.2s-0.2,1.3-0.2,1.3l-0.9,1.2l-1.7-0.5l-1.6-1.3c0,0-1.5-1.2-1.9-1.2
				s-1.1,0.1-1.1,0.1l-0.7,0.5l-1,0.5l-1.4-1.1c0,0-0.9-0.8-1-1.2s-1.2-2.4-1.2-2.4s-0.6-1.3-1.2-1.3s-1.3,0-1.3,0l-1.2,1.3
				l-0.6-0.8L357,425l-1.4,0.4l-1.1,1.4l-0.7,1.6l-1.1,1.7l-1.5-1.1l-1.8-0.8l-1.4-0.8L346.9,426.8z"/>
		</g>
		<g id="df" transform="translate(-36.05404,-190.90844)" inkscape:groupmode="layer" inkscape:label="distrito-federal">
			<path id="path3934" inkscape:connector-curvature="0" class="st1" d="M366.2,470.1h15.4l1.6-0.5l0.1-1.9l0.8-0.5l-0.1-1.3
				l-0.3-1.6l-0.1-1.8l-1.7-1.2c0,0-2.6-1.1-3-1.1s-4.2,0.1-4.2,0.1l-3.4,0.1l-0.2,1.3l-3.5-0.3l-1.5-0.3l-0.1,2.1l-1.5,1.1l0.3,2.2
				v1.6l1.1,0.1l0.3,0.9L366.2,470.1z"/>
		</g>
		<g id="ms" transform="translate(-36.05404,-190.90844)" inkscape:groupmode="layer" inkscape:label="mato-grosso-sul">
			<path id="path3910" inkscape:connector-curvature="0" class="st0" d="M304.2,493.7l-3.1-1.5l-1.2-1.5l-0.8-0.9v-2.2v-2.8v-2.3
				v-1.4l-1.5,0.3l-1.2,0.8l-0.6,1.5l-0.6,1.7l-0.8,1.5l-0.9,0.3l-1.8,0.5l-2.5-0.5l-1.8-1.1l-1.7-1.5l-1.1,1.1l-1.1,1.5l-2.8,0.3
				l-3.7-0.8l-1.7-1.2l-1.4-1.5l-2.2-0.6l-2.8-0.3l-1.5-0.8l-1.4-0.9l-0.8,0.8l-3.4,1.2l-2.6,0.3l-1.4,0.3l-1.7,1.8l-1.7,0.9l-2,1.7
				l-2.8,0.2l-3.7,0.5l-0.9,2.2l2,2l-0.2,3.8l-1.1,3.4v2.8l0.8,1.2l0.2,2.6l-1.2,2.5l-2.9,2.8l-1.5,2.3c0,0,0.5,1.2,0.8,1.8
				s0.9,1.7,1.5,2.2s1.2,1.1,1.2,1.1l-0.9,2.5l-1.7,0.6v2.5l0.5,2.8l0.2,2.3v2.9c0,0-0.2,1.2,0.8,1.8c0.9,0.6,1.2,1.2,1.2,1.2v2.5
				l-0.2,2.6l-1.1,2.3l-0.9,1.7l-0.3,1.8l2.3,0.6l1.5-1.5l1.7,0.2l1.4,1.2l4.3,0.8l3.2,0.2l2.2-0.2l2.3-0.9l3.2-0.3l1.8,0.3
				c0,0,4.5,2.3,5.2,2.8c0.8,0.5,1.5,2.5,1.5,2.5l0.2,4v4.8c0,0,0.6,2,0.8,2.6c0.2,0.6,2,3.5,2.3,4.2s1.8,2.5,1.8,2.5l1.2,0.9
				l2.2-2.5l2.2-1.5l1.8-0.8l1.2,1.4l1.4,2.9v2.3l0.8,2.5c0,0-0.2,0.6,0.8,0.3c0.9-0.3,1.4-1.2,1.4-1.2l0.3-2.3c0,0-0.6-1.5,0.2-2.2
				c0.8-0.6,1.7-2.3,1.7-2.3l2.8-3.5l1.4-2.5l1.8-2.6l1.2-3.1l1.5-1.8c0,0,3.5-2,4.2-2.2s2.9-2.5,2.9-2.5l4.2-1.7l2.8-2.6l1.7-3.7
				l2.8-4.2l1.2-2.2l1.2-2.6l2-2.6l0.3-3.4l0.9-1.8l2.6-1.7l2.9-1.5l1.2-0.9V518l0.9-3.2c0,0-0.2-1.2,0-2.2c0.2-0.9,1.2-1.2,0.2-1.8
				c-1.1-0.6-4-2.6-4-2.6s-2.5-2-3.1-2.3s-2.8-1.5-2.8-1.5l-2.5-1.4c0,0-1.1-0.3-2.2-0.3s-4.8-0.9-4.8-0.9l-2.3-0.6L311,500
				l-2.8-2.2l-2.5-2L304.2,493.7z"/>
		</g>
		<g id="mt" transform="translate(-36.05404,-190.90844)" inkscape:groupmode="layer" inkscape:label="mato-grosso">
			<path id="path3905" inkscape:connector-curvature="0" class="st0" d="M199,373.8l29.8,0.7l2.1-2.6l3.7,0.2h2.6l1.9-3l0.7-5.1
				l0.7-3.5l0.2-4.7l1.2-2.6l0.7,0.2l2.6,1.9l2.1,3.5l1.6,2.6l-0.2,3.7l-0.5,4.2l1.6,2.3l8.4,8.6l4.9,0.7l17.9,1.6l19.3,1.6l20,1.4
				l16.3,1.9h6.7l-3,6.7l-0.9,5.3l-0.7,2.8l-1.6,2.6l0.2,7.9v7.9l0.2,6l0.2,4.7l-2.1,4.2l-0.7,4.7c0,0-2.1,1.4-1.6,3
				s-0.2,5.8-0.2,5.8l-1.9,3l-3.3,1.9c0,0-1.9,1.4-1.9,2.6s-1.2,3.7-1.2,3.7L323,464l-3.7,1.2l-2.1,2.6l-1.4,1.9L313,475l-2.3,2.6
				l-2.3,1.9c0,0-1.4,1.2-1.4,2.3s0.2,4.2,0.2,4.2l0.2,3.5l-2.8,4l-0.7,0.7l-2.8-1.6l-1.9-2.8l-0.2-3.3v-5.1l-3,1.4l-1.4,4l-3.7,1.4
				l-3.3-1.2l-1.9-2.1l-3.3,2.6l-1.9,0.7l-4.2-1.2l-1.4-1.4l-1.6-1.4l-2.1-0.2l-3.5-0.7l-1.2-1.2l-0.9-0.2l-2.1,1.9l-3.3,0.2h-2.3
				l-1.4,2.3l-2.8,1.4l-1.4,1.2l-1.9,0.2l-3.7,0.2l-1.6-0.9l-1.2-3.3l-2.1-1.2l-2.8-2.6l-2.1-2.1v-4.7l1.4-2.6l0.5-2.1l-0.5-0.9
				l-1.4,0.2l-1.9,1.2l-2.1,0.9l-11.2,0.2l-1.6-1.4H219l-1.4,1.4l-4-0.7l-0.9-1.9l-0.2-5.1l-1.4-2.8l-2.6-2.8l1.6-2.6l0.7-4.4l1.9-3
				l-0.9-5.3l-1.9-4.2L208,436l3-2.8l1.9-1.9l0.7-2.3l0.2-2.8l1.9-1.6l1.6-2.1l1.9-3.5l0.5-1.6l-0.7-1.9l-0.7-2.3l-0.9-2.1l-0.2-1.4
				l0.9-1.6l0.9-1.2v-1.6l-0.5-1.2l-1.6-1.4h-2.1H212l-1.9-0.5c0,0-2.3-0.2-3.3-0.2c-0.9,0-3-0.7-3-0.7l-2.3-1.4l-2.8-2.3l-1.4-1.9
				l-0.2-3.7l0.9-2.6l1.6-4.2l0.7-3l-0.7-2.8l-0.9-1.9v-2.8L199,373.8z"/>
		</g>
	</g>
	<g id="sudeste">
		<g id="mg" transform="translate(-36.05404,-190.90844)" inkscape:groupmode="layer" inkscape:label="minas-gerais">
			<path id="path3931" inkscape:connector-curvature="0" class="st0" d="M338.5,506l-1.5,0.5l-2.3,1.6l-0.5,0.9v1.4l-0.4,1.5
				l-0.3,1.5l-0.2,1.9l-0.1,1.7l0.6,0.4l1.6-0.1l2.2-1.2l2.5-0.9l1.2,0.8l2.8,1.3l1.9,0.6l2.1,0.1l1.2-0.1l0.9-0.8
				c0,0,0.2-0.2,0.9-0.1c0.6,0.1,1.9,0.1,1.9,0.1l1.4,0.4l1.1,0.9l-0.1,0.9l0.2,2.1c0,0-0.6,1.8-0.2,1.9s0.4,0.3,1.4,0.4
				c1,0.1,1.5,0,2.2-0.2c0.6-0.2,0.6-0.9,1.1-0.9s1.5-0.5,2.2-0.5c0.6,0,0.9-1,0.9-1l1.1-0.8l1.8,0.3l4.2-0.1h1.4l1-1.1l1.9-1.8
				l1.8-0.4l1.6,0.1l1.5,0.6l1.5,2.7l-0.1,2.2l0.3,1.5l0.6,2.1l0.3,1.7c0,0-0.6,1.2-0.6,1.6c0,0.4-0.1,1.3-0.1,1.3l2.7,4.7l1.6,1.4
				c0,0,1.3,0.5,1.8,0.5s1.9,0,1.9,0l0.8,1.2l-1.2,2.3l-1.3,2.2c0,0,0.2,1.8,0.4,2.3c0.2,0.4,0.9,2.4,0.9,2.4l0.4,2.3l1.1,2.4
				c0,0,1.6,1.9,1.8,2.4s2.5,2.7,2.5,2.7l3,0.2l2.5-1.1l2.3-1.4l1.7-1l3.8-1.4l2.8-0.8l1.8-1.1l1.2-0.1l1-1.5l1.8-0.3l2.7-0.4
				l2.9-0.5l1.7-1.3l2.2-0.2l3.2-0.3c0,0,6.4-1.4,6.8-1.4s4.2-1.4,4.2-1.4l2.8-2.1l1.7-3.1l1-3.8l0.1-3.6l2.4-0.6l0.5-1.6l3.2-5.5
				l4.2-2.4l2.5-4.1l1.4-3.8l1.1-2.6l1.6-3.7l1.3-4.3l1.9-3.9l2.2-2.1l1.6-2.2l1.1-2.3l0.9-0.4l-1.4-1.9l-1.5-1.7l-1.2-1.3
				c0,0-1.4-1.4-0.8-2.5s1.7-2.4,2.2-3s1.5-3.4,1.5-3.4l1.3-3.7l1.5-1.4l2.6-2.2c0,0,0.4-1.2-0.1-1.7s-1.7-1.6-1.7-1.6l-1.6-0.6
				L470,465c0,0-1.2-0.4-1.6-0.5s-2.2-0.1-2.2-0.1l-7.5,0.2l-1.7-2.8l-3-2.3c0,0-1.4-1-1.9-1.4s-2.4-1.6-2.4-1.6l-2.8-0.4l-2.8,0.1
				L442,454l-1.3-1.7l-1.4-1.6l-2.1-0.9c0,0-1.6-1.3-2.1-1.3s-1.1-0.2-1.7,0.1c-0.6,0.3-1.1-0.2-1.7,0.5c-0.6,0.8-1.4,0.4-1.8,1
				s-1.8,0.6-1.8,0.6s-1.2-0.9-1.1-1.3s0-1.7,0-1.7l-0.2-2.6l1.5-0.9l-0.2-1.3l-0.6-0.6l-2.2-0.1l-1.1,0.5l-0.5,1.1l-1.9,0.3
				l-2.1,0.1h-1.4l-1,0.9l-1.6,0.2c0,0-1.3,0.2-1.7,1.1c-0.4,0.9-1.8,2.1-1.8,2.1l-2.3,1.8l-1.8,1.5l-1.4,1l-2.5,1.1l-1.3,0.5
				l-2.6,0.8l-2.3-1.3l-3-0.8l-2.1-1.9l-1.8-1.4c0,0-0.8,2.7-0.8,3.1s-0.4,1.8-0.4,1.8l-1.7,1.2l-1.3,0.4c0,0-1.5,1.2-1.2,1.6
				s1.2,3.5,1.2,3.5l0.6,1.9c0,0,0.4,0.1,0.1,0.6S386,466,386,466l-1.5,1.3l-1.3-0.1l-0.2,2.7l-4,0.4c0,0,0.2,2.8,0.6,3
				s1.6,2.2,1.6,2.2s1.7,1.9,1.9,2.6c0.2,0.6,0.4,2.8,0.4,2.8s-0.3,0.5-0.5,1c-0.2,0.4-1.9,1.9-1.9,1.9l0.6,1.8l1.2,1.9l0.2,0.3
				l-1,2.2l-0.2,2.6l-1.6,2.2l-1.9,1.7l-1.3,1.1l-2.3,0.4c0,0-0.4-1.4-1.4-1.1s-3.2,0.4-3.2,0.4l-2.6-0.9c0,0,0.3-1.3-1.1-1.2
				c-1.4,0.1-4.4,0.3-4.4,0.3l-2.9,0.8c0,0-0.5-0.2-1.4,1.1c-0.9,1.3-1.4,2.5-1.4,2.5l-1.6-0.5c0,0-0.8-1.3-1.3-1.3
				s-1.9-0.3-2.2,0.3c-0.2,0.6-3.4,1.3-4.2,1.5c-0.9,0.2-3.2,0-3.2,0s-1.4,0.8-1.4,1.4S341,503,341,503s0.3,0.8-0.1,1.3
				s-1.3,0.8-1.3,0.8L338.5,506z"/>
		</g>
		<g id="es" transform="translate(-36.05404,-190.90844)" inkscape:groupmode="layer" inkscape:label="espirito-santo">
			<path id="path3928" inkscape:connector-curvature="0" class="st1" d="M448.9,531.1l1.7,1.7l2,1.5c0,0,0.9,0.2,1.7,0.3
				c0.7,0.1,0.9,0,1.9,0.1s1.7-0.5,2.4-0.4s2,0.7,2,0.7l1.1,0.9l0.8,0.7l0.6-1.2c0,0-1.1-1.5-0.3-2.2c0.8-0.7,1.3-1.6,1.9-1.9
				c0.5-0.3,1.3-1.1,1.6-1.3s1.6-1.7,1.6-1.7s0.4-1.1,1-1.7s1.3-1.5,1.5-1.9c0.2-0.3,0.1-1.3,0.4-2s0.5-1.9,0.5-1.9s0.4-1.5,0.5-2.1
				s0-1.3,0.4-1.8s1.5-2.2,1.5-2.2s1.3-1.3,1.7-1.8s-1.2,0.3,0.9-1.3c2.1-1.7,1.7-1.5,2.1-1.7c0.3-0.3,0.1-0.8,0.6-1.8
				s0.6-1.2,0.4-1.7s-0.8-0.7-1.3-1.8c-0.5-1.1-0.7-1.1-0.8-1.9s0.4-2.5,0.6-3.1c0.2-0.5,1.2-2.4,1.2-2.4l-0.1-0.7l-1.4-0.7
				l-2.4-1.7c0,0-1.3-1.5-1.7-1.5s-1.7-0.1-1.7-0.1s-1.2,0.5-1.1,1s-0.9,1.9-0.9,1.9l-1.3,1.5l-1.3,1.5l-1.5,1.9l-2.1,4.9l-0.7,2.7
				l-0.7,2.1l-1.4,2.5l-0.9,2.2l-0.4,1.5l-1.1,1.5l-1.2,2.4c0,0-1.3,1.5-1.5,1.7c-0.2,0.3-2.3,1.3-2.3,1.3s-2,1.3-2.1,1.9
				c-0.1,0.6-0.7,1.6-1,2.3s-1.1,1.7-1.1,1.7s-0.7,0.5-0.6,0.9s0.7,1.3,0.7,1.3L448.9,531.1z"/>
		</g>
		<g id="rj" transform="translate(-36.05404,-190.90844)" inkscape:groupmode="layer" inkscape:label="rio-janeiro">
			<path id="path3925" inkscape:connector-curvature="0" class="st0" d="M413.9,550.8l2.4,1.5l2.2,1.1l0.8,1.1l-0.8,1.1l-0.3,1.5
				l0.9-0.3l4.4,0.3l0.6,0.7c0,0,0.1,0.9,0.8,0.9s0.3-0.3,1.7-0.2s1-0.6,1.7-0.5s0.9,0.1,1.9,0.1s1.8-0.9,1.8-0.9l1.7-0.5v-1.8
				l0.9-2.3l1.4-0.5c0,0,0.5,0.5,0.6,1.3s-0.2,1.8-0.2,1.8l0.3,1.3c0,0,0.2,0.2,1.1,0.3s10-0.2,10-0.2l0.2-3.4c0,0,0.8-1.3,1.6-1.3
				s1.5-1.5,1.5-1.5s0.5-0.7,3.4-1.1s3.6-2.5,3.6-2.5l1.9-1.8l0.9-1.4l-1.1-2.2c0,0,0.7-1,0.8-1.5c0.1-0.5,1.4-3.4,1.4-3.4
				s-1.7-2.3-2.4-2.3s-2.9,0.1-3.7,0.1c-0.8,0-2.8,0.1-3.4-0.3s-2.4-1.6-2.4-1.6s-1.1-1.4-1.6-1.4s-2.3,0-2.3,0l-0.6,5.6l-1.3,2.9
				l-0.7,2.1l-2.6,1.5l-3.2,1.5c0,0-2.4,0.8-2.9,0.8s-3,0.2-3,0.2l-4.4,0.9l-3.4-0.1l-1.5,1.6l-4.5,1l-3.3,0.3L413.9,550.8z"/>
		</g>
		<g id="sp" transform="translate(-36.05404,-190.90844)" inkscape:groupmode="layer" inkscape:label="sao-paulo">
			<path id="path3922" inkscape:connector-curvature="0" class="st0" d="M333.3,518.6l-0.7,2.3l-1.1,1.3l-2.4,1.4l-2.2,0.7l-1,1.1
				c0,0-1.1,1.6-1,2.2c0.1,0.6-0.2,2.1-0.2,2.1l-1.5,2.1l-1,2.4l-1.1,2.2c0,0-1.3,2.1-1.4,2.5s-0.8,0.8-0.9,1.4
				c-0.1,0.6-1.5,2.2-1.5,2.2l-1,1.9l-0.8,1.4l-1.5,1.1l-1.5,1.4l-1.8,1.3c0,0-1.8,0.1-1.8,0.9c0,0.8-0.6,1-0.6,1l-0.5,0.9l2.9,0.5
				c0,0,1.7,0.6,2.3,0.6s2.8-1.3,3.2-1.3c0.5,0,2.3-0.9,2.9-0.7s4.5,1.7,4.5,1.7s3.9,1.1,5,1.4c1.1,0.2,1.7,0.2,3.8,1
				s3.9,1.3,3.9,1.3l2.3,0.7c0,0,2.6-1,3.1-0.7s2.4,0,3,0.3s2.5,0.1,2.9,0.7s3.4,1.6,3.4,1.6l1.5,1.8l-0.3,2.2c0,0-0.2,1.5,0,1.9
				c0.2,0.5,0.8,1.5,1,1.9c0.2,0.5,0.1,1.9,0.5,2.5c0.3,0.6,0.2,0.5,0.9,1.8s1.7,2.2,1.8,2.6c0.1,0.5,0.1,2.8,0.1,3.2
				s-0.2,1.7-0.2,1.7l1,1.5c0,0,0.2,0.1,1.3,0.3s1.4-0.7,1.8-0.7s1.5-0.8,1.5-0.8l2.5,0.2l0.7,1.7l-0.2,3.2l2.2,0.7l1.8-0.3l2.6,1
				l1.6-1.5l1.6-1.6c0,0,0.7-1.6,1.3-1.7s2.1-1.5,2.9-1.5s2.2-0.9,2.2-0.9s1.4-1.5,2.1-1.5s1.7-1,1.7-1l1.7-0.8c0,0,1.7-1.6,2.6-1.9
				s0.6-0.6,2.1-1.1c1.5-0.6,1.6-1.5,2.1-1.7s0.7-1.3,1.5-1.5s2.5-1.5,2.5-1.5s1.1-1.3,1.7-1.3s1.7,0,1.7,0l1.6,0.2
				c0,0,0.8,1.7,1.4,1.7s1.6-0.7,1.6-0.7l0.6-1.3l1.1-1.3l0.7-0.5l3.4-2.2l3.2-0.5l2.1-1.3l-0.5-1l-0.9-1l0.7-1l1.5-0.7
				c0,0,0.8-0.5,1.3-0.6s1.3-0.8,1.3-0.8l0.2-1.5c0,0-1.6-1-2.1-1.1s-2.8-1-2.8-1l-0.9-0.9h-2.2c0,0-1.1,1-1.6,1.4
				c-0.5,0.3-2.9,0.5-2.9,0.5l-1.8,0.9l-1.8,0.5c0,0-0.6-0.2-0.9,0.2c-0.3,0.5-1.9,1.4-1.9,1.4s0.8-0.5-0.5,0.6s-3.9,1.4-3.9,1.4
				l-1.6-0.5l-1.3-1.5l-1.1-2.1l-0.8-1.4l-1-1.5l-1.1-1.8l-0.5-1.7l-0.3-1.9l-0.7-1.5c0,0,0-0.8,0.6-1.4s1.3-1.7,1.3-1.7l1.1-1.9
				l-1.5-1.4l-2.2-0.2l-1.8-0.7l-0.9-1.1l-1.4-1.8l-1.6-3.3l1.1-1.9l-0.3-2.5l-1-1.9l0.2-1.9c0,0,0-1-0.3-1.7s-0.8-1.4-0.8-1.4
				l-1.7-2.1c0,0-0.6,0-1.8,0.1c-1.3,0.1-1.9-0.3-2.6,0.2s-1.4,1.1-1.4,1.1l-1.1,1.7l-0.8,0.5H369l-3.2-0.1l-2.2-0.5
				c0,0-1.3,0.3-1,0.8s-0.6,1.6-0.6,1.6l-2.4-0.2l-0.9,1.3l-2.6,0.1l-0.3-2.2c0,0,0.3-1.3,0.6-1.7s0-1.6,0-1.6l-1.5-0.5
				c0,0-0.3-0.6-1.1-0.7s-2.1-0.1-2.1-0.1l-1.5,0.2l-0.2,1.1l-1.3,0.1H347l-3.1-1c0,0-1.6-0.5-2.1-0.7s-1.5-1.1-1.5-1.1l-1.1,0.2
				l-0.7,0.9l-0.6,0.2l-1.8,0.7l-0.8,0.1l-1.7,0.3L333.3,518.6z"/>
		</g>
	</g>
	<g id="sul">
		<g id="rs" transform="translate(-36.05404,-190.90844)" inkscape:groupmode="layer" inkscape:label="rio-grande-sul">
			<path id="path3919" inkscape:connector-curvature="0" class="st0" d="M297.7,610.6l2.3-0.1h1.5l1.3,0.4l1.5,0.8
				c0,0,1.3,0.1,2.1,0.1c0.8,0,1.9,0,2.5,0s3.3,0,3.3,0l1.6,0.1l1.3,0.5l2.1,0.7l1.3-0.1l2.7,0.4l2.7,1.7l2,0.4l1.3,0.4l1.9,1.2
				l2.4,2.5l3.1,2.4l1.5,2l1.1,2.1l2.1,1.3l2.4,1.5h2.9l2.5,0.5c0,0-0.3,1.1-0.3,1.6s-1.3,2.8-1.3,2.8l-1.2,2.8l-0.5,2.5
				c0,0,0.4,0.9,0.9,0.9s1.5-0.3,1.5-0.3l1.2,0.4l0.9,0.7l0.3,1.1l-5.9,8.2l-3.6,6.6l-4.4,6.6l-4.3,4.4l-1.3,2.1l-2.4,1.2l-2.9,0.4
				l-2.4,2.3c0,0-2,3.1-2.1,3.6s-1.5,2-1.5,2.9s-0.5,2.4-0.5,2.9s-1.3,4-1.3,4l-6,5c0,0-1.6,1.2-2.1,1.7s-3.6,2.7-3.6,2.7l-1.6,1.6
				l-1.5-2.4c0,0-0.9-2.1-0.9-2.8s-0.1-2,0.8-2.5s3.5-4.3,3.5-4.3l-0.5-2.9l-3.1-2.7c0,0-2.5-1.6-3.1-2.5c-0.5-0.9-2.8-3.3-2.8-3.3
				l-3.6-3.2l-2.9-2.1l-2.7-2.1l-3.5-1.1l-2.5-1.3l-2-2.7c0,0-1.5-2-2.1-2.1s-2-0.3-2-0.3l-1.3,1.3l-1.1,1.2l-1.7,1.6
				c0,0-1.3,0.4-1.5-0.1s-0.5-3.8-0.5-3.8l-0.4-1.9l-1.5-1.5c0,0-1.3-1.5-1.9-1.6s-1.3-0.8-1.3-0.8l-1.5-1.5l-1.6-1.7
				c0,0-0.8-0.7-1.5-0.5c-0.7,0.1-1.9,0.3-1.9,0.3l-1.9,2.3l-1.5,1.3l-2.1,0.9l-2.3-1.9L248,652l3.1-3.8l3.9-3.2l2.7-3.6l1.6-2
				l3.5-2.4c0,0,0.1-0.5,0.8-2c0.7-1.5,1.2-2.7,1.2-2.7l1.5-1.6l2.8-2c0,0,2.8-1.1,3.8-1.1c0.9,0,2.1-1.6,2.1-1.6l1.5-2.8l2-1.5
				l2.7-0.7l2.8-0.8l1.1-1.5l1.3-2l3.1-1.5l2.4-1.5l1.7-1.6l2.3-0.9L297.7,610.6z"/>
		</g>
		<g id="sc" transform="translate(-36.05404,-190.90844)" inkscape:groupmode="layer" inkscape:label="santa-catarina">
			
				<path id="path3916" inkscape:connector-curvature="0" sodipodi:nodetypes="cccccccccccccccccccccccccccccccccccccccccccsscccscccscccscssccsccccccccssssscccccccscscccscccccccccccc" class="st0" d="
				M363.5,597l-1.6,0.1l-2.5,0.3l-2.3,1.3l-2.7-0.3l-1.9,1.3l-2.5-0.9l-1.7-1.3l-2.4-0.8l-1.3-0.6h-1.3h-1.5l-1.3,0.5l-1.5,0.9
				l-3,1.3l-1.4,0.8l-1.9,0.8l-1.9,1.3l-1.8,0.8l-0.8,1l-2,0.9l-2.4,0.3h-2l-1.3-0.7l-1.7-0.7l-1.3-0.7l-1.5-0.2l-0.8-0.2l-1.3-0.7
				l-0.8-0.5l-0.7-0.4l-1.9-0.3l-1,0.1l-1.8,0.2l-2.7,0.1l-1.9-0.6l-2-0.3l-1.9-0.3h-0.7l-0.5,0.7l-0.8,0.7l0.3,9.9
				c0,0,4.6-0.4,5-0.1s1.2,1.3,1.5,1.3s0.1,0,1.2,0s3.4,0,3.4,0l2.3,0.1l2.3,0.1c0,0,1.1,0.9,1.8,0.9s2.3,0.1,2.3,0.1s1-0.3,2-0.2
				s1.7,0,2.1,0.4s1.3,1.3,1.7,1.5c0.3,0.2,1.7,0.9,1.7,0.9s2.4,0.3,2.7,0.4s1.6,0.8,1.7,1.1s1.9,1.5,1.9,1.9c0,0.3,1.3,0.9,1.9,1.2
				s1.1,0.7,1.6,1.3c0.5,0.7,2.1,1.8,2.1,2.1s0.4,1.9,0.4,1.9l1.3,1.4c0,0,1.5,0.4,1.9,0.8c0.4,0.3,2,1.3,2,1.3l0.8-0.1l3.3,0.1
				l1.1,0.7l0.2,1.2l-0.6,1.6l-1,1.2l-1,1.7c0,0-0.8,1.2-0.8,1.5s-0.3,1.8-0.2,2.2c0.1,0.3-0.2,0.2,0,0.9s1.6-0.4,2.4,0
				c0.8,0.3,1.9,0.9,2.8,1s1.1-1.2,1.1-1.2l0.8-1.5c0,0,0.8-1.9,1.2-2.1c0.4-0.3,0.9-1.3,0.9-1.3l2.4-1.2l1.4-1.3l2.2-1.6
				c0,0,1.3-1.5,2.1-1.7c0.8-0.2,1.9-1.2,1.9-1.2s0.2-2.4,0.3-3c0.2-0.7,0.2-6.8,0.2-6.8l-0.3-1.8l-1.1-1.3c0,0,0.7-4.5,0.3-5.2
				c-0.3-0.8-0.5-5.2-0.5-5.2l0.1-1.9l-0.1-1.2c0,0-0.8-0.3-0.9-0.8s-0.1-1.5-0.1-1.5l1-0.3l1,0.3l1,0.3c0,0,0.4,0.4,0.8,0
				s0.8-1.3,0.5-1.6s-0.9-1-0.9-1L363.5,597z"/>
		</g>
		<g id="pr" transform="translate(-36.05404,-190.90844)" inkscape:groupmode="layer" inkscape:label="parana">
			
				<path id="path3913" inkscape:connector-curvature="0" sodipodi:nodetypes="cccccsccccccccscccscccccccccccccsssssscccscccccccsccccccccccccccccccccccccccccccccccccccccccccccccccccccccccccccc" class="st0" d="
				M290.1,576.4l1.1-1.6l0.2-1.8v-2l1.1-1.3c0,0,1.4-2.3,1.9-2.6s2.2-2.9,2.2-2.9l1.7-2.5l1.2-2.5l1.1-2.6l1.1-1.3l1.9-1.6l3.1-0.8
				l2.7-0.1c0,0,2.7,0.4,3.5,0.2c0.7-0.1,3-0.6,3-0.6l1.6-1.1h1c0,0,3.1,0.8,3.6,0.7s2.2,1.1,2.2,1.1l2.3,0.4l3.1,1l3.8,0.6l1.9,1.1
				l1.8,1l2.3-0.4c0,0,2.9-0.1,3.5,0s3.5,0.2,3.5,0.2l3,1.2l2.2,1c0,0,1,1.1,1.2,1.9c0.2,0.8,0.2,1.7,0.2,1.7s-0.4,0.8-0.4,1.7
				c0,0.8-0.2,1.8,0.1,2.3s1.9,2.6,2.3,3.5s0.6,1.7,1.1,2.4s1.2,1.4,1.2,2s0,1.9-0.2,2.4s-0.6,0.8-0.6,0.8l0.1,2.5l1.4,0.6
				c0,0,1.6,0.5,2-0.1c0.5-0.6,0.7-1.3,0.7-1.3l2.4,0.2l1.8,0.6l0.1,1.8v2l1.9,1.1l2.5-0.1c0,0,1.2,0.5,1.2,1s-0.8,3.1-0.8,3.1
				l-1.6,0.1l-2.2-1.2l-1.4,0.8l-1.6,0.8l0.4,1l1.7,0.8l1.1,1.2l-0.8,1.2l-1.1,1.6l-0.7,1.8H362l-1.2-0.1l-1.4,0.5l-1.2,0.2
				l-1.8,0.1l-1.2,0.1l-1,1l-1.4,0.5l-3.2-0.8l-1.1-1l-0.8-0.5l-1.6-1.1l-2-0.4l-2.5,0.1l-1.2,0.7l-2.3,1.3l-1.7,0.7l-3,1.7
				l-1.6,0.7l-2,1.3l-1.1,1.2l-2,1.1l-2.6,0.2h-3l-1.6-0.8l-2.9-1l-1.9-0.2l-2.3-1.3l-0.7-0.5l-4.9,0.2l-2.5-0.2l-1.9-0.8l-1.4-0.5
				h-2.2l-0.8-1.1l-1.2-1.3c0,0-0.6-0.5-0.4-1.1s0.1-3,0.1-3l-1.2-1.4l-1.3-1l-1-0.1l-1.3,1.1l-1.6-0.2l-1.9-0.2l-1.9-0.8
				c0,0,0.4-1.3,0.6-1.8s0.5-2.7,0.5-2.7l1.4-3.6l0.7-1.1l0.6-2.2l0.1-1.3L290.1,576.4z"/>
		</g>
	</g>
</g>
</svg>
