<svg id="svg2" xmlns="http://www.w3.org/2000/svg" viewBox="0 0 506.35 508.12"><defs><style>.cls-1{fill:#ff6f0d;}.cls-1,.cls-2,.cls-3{stroke:#fff;}.cls-2{fill:#bfbfbf;}.cls-3{fill:none;}</style></defs><g id="norte"><g id="pa"><path id="path3991-7" class="cls-1" d="M246.79,36.57l-1.53-.77-1.16.77-.64,1.67-1.41.25-1.15-.64-2.69-.38-2.05-.39H233.6l-.65-.51-.89,1.15-1.41,1.8s.51,1.41,1,1.41,1.16,1.28,1.54,1.79.13,2.18.13,2.18l-2.18.13-2.31-.26-1.28-.9-4.35.77-1.54,1-1.15-.77-1.29-.9-2.05-.25-2.05.38L214,45.92l-.64,1-2.18,1-1.15.52-1.16.77-7.68.12-.13,2.82-1.16,2-1.66,1.29-2,.51-1.41.13L194.38,69l.39,3.46.51,2.43,1,2.82s1.66,2.82,2.17,2.82a12.23,12.23,0,0,1,2.57,1.16,23.24,23.24,0,0,0,1.66,4.1,17.59,17.59,0,0,1,1.54,3.46,18.05,18.05,0,0,0,1.8,2.05c.51.38,1.79.12,2.94.38s5.13-.13,5.64.26,2.44,1.41,2.44,1.41L220,95.51l-19.35,55.62-1.41,1.41s0,1.92.52,2.05a19.52,19.52,0,0,1,2.82,2.69l2,2.3,1.28,2.57a29.45,29.45,0,0,0,1.79,2.43s1.54,1.92,2,2.44a25.31,25.31,0,0,1,2.31,2.82,4.92,4.92,0,0,1,.89,2c.13.89-1,3.84-1,3.84s-.13,1.15-.13,1.92a18.36,18.36,0,0,0,.39,2.56l9.86,10.64,78.55,6.41,7.82-.9,1.66-.9,1-3.71.26-3.59,2.82-2.31s3.2-2.43,3.58-2.94,1.67-2.44,1.67-2.44l1.66-2.69a7.45,7.45,0,0,0,.9-2.56,16.42,16.42,0,0,0,.39-2.95,13,13,0,0,0-.52-2.82l-.51-2.31-.64-1.53,1.67-6.41,1.92-1.92,2.18-.51,2.3-1.16,1.54-3.2,1.67-2,2.17-2.44s.65-3.2.65-3.71-.13-3.46-.13-3.46l-1.54-1.67-2.18-1-1.54-.13-.64-.51.77-4,3.08-2.56,3.46-2.31,4-3.2,2.56-3,4.74-3.71,2.05-1.8,4.1-5.38,1.67-2,1-5.25s.77-2.56,1-3.08a10.06,10.06,0,0,0,0-2.82l1.67-3.2,1.15-2.69-.13-3.72,1.67-3.07v-1.8a17.08,17.08,0,0,0-2.31-1.28,29.21,29.21,0,0,1-2.82-1.41L353.66,81a2.43,2.43,0,0,0-2.05-1.15h-4l-2.82-.25-3.33-1.29L340,78.09l-2.43,1.15-1.28,1.28-1.67.77s-1.67.9-1.54,1.67-1,2.69-1,2.69l-1.8.51.52,3.33.89,2.56-3.2,3.08-2.18,1.92H322.4l-1-.38-1.66.38-1.29,2.69-2.3,2.05.51-3.58,1.67-4.1-.52-.65-1.41.65-2.3,1h-2.44l-1.54-1.54s1.54-1.28,2.31-1.28a17.22,17.22,0,0,0,3.2-.9,38.82,38.82,0,0,1,3.72-1.66c.9-.26,3.59-.9,3.59-.9l2.69-.9,1.67-3.33a4,4,0,0,1,1.4-2.18c1.29-1.15,2.18-1.53,2.18-2.81a9.25,9.25,0,0,0-.38-3.46c-.39-.77-1.28-2.57-1.28-2.57s-1.16-1.15-1.67-1.15H324.7a19.19,19.19,0,0,1-2.82-.64s-1.28-1-2.17-.9-2.06-.13-2.44.51-2.18,1-2.18,1-2.18,1-2.82.64a8,8,0,0,0-1.92-.64l-2.69-.51-1.79-1.28-2.95.76-2.44,2.44-1.79,3.33L298.18,81l.13,3.08,1.28,2.18L302.15,90l3.2.52,2.57.77,1.92,1.79-2.18.9-2.05,2s-1.15,2-1.67.89a28.54,28.54,0,0,0-2.05-3.33s-1.15-1.41-1.66-2-1.8-1.28-1.8-2.43v-2l-2.3-2.18-1.41-.26-3.85,1.16a4.8,4.8,0,0,0-1.53,1.41,29.82,29.82,0,0,1-3.59,3.2,6.71,6.71,0,0,1-2.31,0,9.75,9.75,0,0,1-1.66-1.92s-1.41-.64-.39-1.16a11,11,0,0,1,2.31-.77s.51.13.51-1.15V83.73l-2-.77a11.77,11.77,0,0,1-1.28-.52A4.41,4.41,0,0,1,278.83,80c-.26-1.15-.64-3.46-.64-3.46a11.15,11.15,0,0,0-.64-2A22.42,22.42,0,0,0,276,71.17l-1.92-.9-2-.77a1.64,1.64,0,0,1-1.41-1.79c0-1.67-.13-3.08-.13-3.08a19.27,19.27,0,0,1-.9-3.33,14.1,14.1,0,0,0-.25-2l-1.54-1.92s-.26.77-.77-.9a18.81,18.81,0,0,0-1-2.69A13.63,13.63,0,0,0,264,51.69a13.37,13.37,0,0,0-2.69-1.41l-1-.38-2.82-2.82a8,8,0,0,0-2.31-1,20,20,0,0,1-4-1.15c-.51-.26-3.07-.51-3.07-1a9.51,9.51,0,0,0-1.16-2.3v-2l1.16-1.8Z"/></g><g id="ap"><path id="path3994" class="cls-2" d="M247.26,37.28l-.89,2,.12,2.05s.26,1.54.9,1.8,2.44.89,2.44.89l3.58,1.41L256,46.76l2.69,1.41a8.15,8.15,0,0,1,1.66,1.41,17.44,17.44,0,0,0,2.95,2.05,11,11,0,0,1,1.41,1.67l2.95,4.48,1.92,3.59s.13,2.18.26,3.08a28.75,28.75,0,0,0,.89,3.2s1.28,1.15,1.8,1.54L274.94,71l3.33,5.38.52,3.34,2.56,2.94,2.82.77h2.43s.26-3,.9-3.84,4.23-6.28,4.23-6.28,3.07-2.56,3.46-2.69,1.53-2.44,2.56-3.33a17.32,17.32,0,0,0,2.43-3.85l6-5.25a37.41,37.41,0,0,1,2.69-3.46c.51-.39,3.84-2.82,3.84-2.82s.39-2.69-.25-3.33-2.82-3.21-2.82-3.21-1.41-1.53-2.05-1.53-2.57.51-3.59-.13-2.56-1.8-2.56-1.8a17.25,17.25,0,0,1-1.8-2.56c-.13-.51-1.54-3.46-1.54-3.46l-.51-3.33L297,29.46a11.32,11.32,0,0,1-.9-3.07c0-1,.26-4.23.26-4.23a22.33,22.33,0,0,1-.9-2.95c-.25-1.28,0-1.66-.38-2.69A6.61,6.61,0,0,0,293.27,14a17.53,17.53,0,0,1-1.67-1.67,28.16,28.16,0,0,1-1.92-2.82s-.9.77-.9,1.29-.51,4.22-.51,4.22l.13,1.67-2.31,3.08-1.79,1.53-2.82,2.18L281,26.9,279.17,30,277.63,32s-.25-1.8-.64.51-1.79,3.59-1.79,4.1a36.81,36.81,0,0,1-1.28,4l-1.93.77-2.43-1.15a14.25,14.25,0,0,1-1.92-1.15,7,7,0,0,0-1.92-.9s-1.29.13-1.29.64-1.66,1.79-1.66,1.79L260.33,42a1.83,1.83,0,0,1-1.92,0,32.39,32.39,0,0,1-2.69-2.43s-1.79-1.54-2.69-2.18a5.11,5.11,0,0,0-2.69-.51h-1.28Z"/></g><g id="to"><path id="path3951" class="cls-1" d="M309.8,193.2l.18-4.46,1.78-2.32,3-2.49,2.49-2.32,3.39-5.53a2.51,2.51,0,0,1,.18-2.32,3.85,3.85,0,0,0,.71-2.68,9.45,9.45,0,0,0-.53-2.85l-1.25-2.85.89-3.57.54-3.57,1.78-1.6,4.1-.72s.36-.71,1.07-2a30.53,30.53,0,0,1,2-2.85l1.78-2a3.19,3.19,0,0,0,1.25-1.6,20.49,20.49,0,0,0,.53-3.39l.36-2.85v-2l-1.78-.35-2-1.61-.17-1.25,2.67-1.42,3.21.53,4.28,2.5,2.68.71-.36,19.45-1.6,1.78s-2.14,1.07-1.25,1.25,1.6,1.6,1.6,1.6l.54,2-1.43,1.07.36,2,3.56,2.67,5,2.32,2.14-.36,2-.89h1.79v1.79l-.36,1.78-2,2-2.5,3.75L349,184.46l-.71,1.43s2.32.71,2.67,1.25,1.43,2.49,1.43,2.49l1.07.72,1.07,2-1.07,1.61.54,2.14,2.32,3.21,2.49,1.42,2.86,2.86-.72,1.78-3.56,4.82-2.86,5,.89,2s.72,1.61,1.79,2,.89-.54,1.25.35a15.85,15.85,0,0,1,.35,3.57,11.23,11.23,0,0,0-1.07,3c0,.89-.18,2.14.72,2.5s1.24,2,1.24,2l-.89,1.61-.53,3.39-3,.17-2.68,1.07-1.78.72-1.61,1.25-2.5,1.24-2.49,1.43-2.14-.89-1.61-1.25-1.6-1.25-.18,3.57h-3.39L333,239.93l-2-.17-1.79.71-2-1.78-1.78-2-1.43-1.78-.53-.18-.9.89H321l-.71-.89-.54.72-1.43,3.74-1.6,1.25-8.56-5.53-1.79-1.61-.18-2-1.07-1.78-1.24,1.6-1.25,3-1.61.17-.89-7.49.18-9.45-.36-4.1,2.14-2,1.07-3.57.54-5.35,1.78-4.11,1.43-1.6,1.78-1.43Z"/></g><g id="ac"><path id="path3013" class="cls-2" d="M80.58,208.6l.12-1.08,1-1.2,1.09-1,.84-1h2l1.33-.48.6-.24H90l1.32-.72s.24-1.44.24-1.8,1.69-1.93,1.69-1.93l.72-1.2-.84-1.2L52.32,177.7l-4.44-3L46,174.45l-5.05-.84-4.93-1-4.45-1s-4.69-.84-5.29-1.08S22,169.4,22,169.4l-6.73-2.52-3.85-2-2.52-.48-3.13-1.8L3.51,161l-1.57,1.56-1,1.2L.5,165.56l.36,2.52,1.92,2.65v2.76s0,1.81.49,2.29,2.16,2.28,2.16,2.28a26.33,26.33,0,0,0,1.92,2.05c.48.36,2.41,2,2.41,2l1.56,1.2,2.77,1.81-.12,1.2-1.81,1.08L10.24,189l1,.84,1.81-.36,2,.36,1.08.25,4.69.24,1.32,1.44V198l4.09-.24,1.69.48.6.48a2.33,2.33,0,0,1,1.2.12,7,7,0,0,0,2.4.24,8.13,8.13,0,0,0,2.29-.6L36,197.3l1.69-.48,1.08-1.2,1.08-1.69,1.68-2,1.69-1,1.56-.36,1,1-.36,2.16.12,3.13-1.32,2.52-.24,2.41.12,2.4-.84,1.57-1.33,2.64A8.53,8.53,0,0,0,44,209.69a4.24,4.24,0,0,1,2,1.08c.48.48,1.93,2.28,1.93,2.28l2.16.6.6-1.68,2.29-.6,1.68-.24,2.89-.24,1.44-.6,1.44-.12,1.81.12.6,1.2,1.32,1.2,2,.36s1.45.12,2.17.12a8.27,8.27,0,0,0,2.16-.6l1.2-1.32,1.09-1.2.72-1.21.72-1.56.84-.36.6-.36v.36l.12.12-.48-.84.24.12"/><path id="path3015" class="cls-3" d="M78.42,209.08l-.84-.72-.61-.72-1.56-1"/></g><g id="am"><path id="path3008" class="cls-1" d="M140.48,39.71l2.45,3.11,1,4.26,4.78,7.24.39,2.2.13,2.71.13,5.17-.26,4.52.13,3.75.9,3.36L150.3,78l3.1,4,3.49,3.11,1.81-.65,1.16-1.81.78-1.94,1.16-2.45,2.46-2.72,1.16-.64,2.33.38,2.32.78,1.55,2.33,3.11.9L176.92,78l.13-3.1.13-1.3,1.81-.9,1.81-1.94.39-2.07.51-2.06,2.07-1.17,1.94-.13h3.49l1.16,1.3,2.85.38,1.68-.64-.13,3.36.77,2.84.39,3,1.55,3,1.81,1.3,2.07,1.42.64,1.94.91,1.29L204.32,87l.78,1.81.9,1.68,10.08.26,2.46,1.81,2.32,2.33-19.77,55.44-1.29,1.94,1,3.1,1.68,1.55,2.59,2.33,1,2.84-1,1.16-.39,3.75-1.29,5.43v4.13l-1.81,4.78-4,.78-3-.78-1.81,2.2L162.58,183l-3.75-1.16-1.42-.77-1.94-.65-1.42-.39-1.55-.77-2.2-1.17-1.68-1.42L146.94,175l-1.68-1.68-1-1.42-1-.65-5.94.39-.65.39-1.55,1.29-1.42,1.81-.65,1.68-4.13-.13v1.68l-1,2.2-.51,1.29-6.08,3.62-1.42.52-1.16-.13-2.2,1.16-1,1.55-.52,1.29-1.81,1.3-1.55.26-1.29,1.29-2.84.13-.39.26-3.36-2.59-4.53-.65-1.29,1-1.16,1.81-1.29,1.55L94,196l-.65.77L50.53,177l-2.84-1.81-3.49-.52-4.26-.9-3.88-1-5.56-.65-3.75-1.29-4.65-1.17-3.23-1.16-4.14-1.81-3.23-1.29-4.91-1.94-1.81-1.16-1.29-1.42.13-1.17.26-1.81.65-1.16,2.32-.9,1.81-.39,1.29-.52.39-2.32V148l-.13-3.49s-.39-2.06.39-2.45a8.66,8.66,0,0,0,1.94-2.2l.9-3L15,135.74l1.81-1.68,2.2-1.68L21.84,131l4.27-2.06a4.81,4.81,0,0,1,2.32-1,23.43,23.43,0,0,0,3.36-.51l2.33-1.3h1.94a14.76,14.76,0,0,1,1.81-.77,8.13,8.13,0,0,0,1.42-.65l1.42-1,8.66.26a17.83,17.83,0,0,1,.9-3,22.67,22.67,0,0,0,1-3.49L52.73,114l1.42-4.39.52-3.75,2.45-5.81.78-3.62.77-1.94s-.51-15.38-.51-15.9a24.3,24.3,0,0,0-1-3.23l-1.94-1.55-3-.77L50.79,71l.52-3.1-1.17-1.42L50,64.79V61.68l2.58-.25,2.07-1,2.07-.9,1.55-.65,1.94.65.9,1.16,1.42-.39.65-.9-.39-4.27s-.65-.9-1.29-.9H58.29c-.52,0-5.43.13-5.43.13l.26-8.27,19.51.51.91-1.93,1.16-1.3.77.13,1,1.17.26,1.42.77.64.91-.13.64-.77.65-.91.52-.9,1.68-1.55L82.71,41l.91-.78,1,.65L85,42.56l.51,2.07.13,1.16,1.68.39.52.77.52,1.55.13,1.94-.13,1.68-1,1.55.39,1,.91.38,1.81-.38,1-1.55,1.81.12,1.16,1.81.26,1.55.91,1.94,13.82.13,1.17-1.55h2.84l1.29-.77,2.59-1.81,2.58-2.2L121.61,51l1.81-1.55,1.29-.78,2.2-1.16.52-1.16.38-1.81,1.3-1.55,1.81-.91,1.29-1,3.36.51h2.07l1.68-.51Z"/></g><g id="rr"><path id="path2999" class="cls-2" d="M118.81,12.16l.74,1.18.15.89V16l.74.59.44.74.59.74h2.07l.88.44.3.74.59.74,1,.29.3,1v.88l-.15,1-.3,2.06-.44.45-.29.73L125.31,28l.15,1.48-.3.44-.89,1L124,32l.15,1.47.14,1.77.74,1.48,1,1.18,1.47.44,1,.59,2.06.15,1.48-.29h1.47l1.33-.89.89-.29,1.48.14,1.18.45.88,1.62.89,1.18,1,.59.89,1.18.29,2.07.59,1.77.89,1.92,1,.89,1.18,1.47.3,1.18.59.89.74,1.48,1.18.88.15,17.86.59.6.14,1,.15,1.92.3,1.18,1,1,.59,1.92,1,.44,1,1.33,1,1.48,1.18.74.89.44,1.33-.44.88-.74.74-1.62.15-1.78,1-1.47.44-1.33,1-1,.74-.74,1.33-.89h1.18l1.47.15,1,.59h1.47l.59,1.33,1,.74.29.88,1,.45.74.29,1.63-.44,1.33-.59.73-1.48V75.64l-.14-1.18v-1l1.32-.44,1.19-.89.73-.74.45-1,.44-1.33-.15-1.48.59-.73.59-.89,1.48-.44,2.36-.15,2.81.15.44.44,1.18.74h1l2.07.15,1.48-.15L195,55.12l-2.66-2.65-1.47-1.63-1.63-1.77-1.18-.88-1.33-1.92-1.18-.74-1-3.69-.3-1.92L183,38.59l-1.18-1.18-.89-.74.15-3.69.74-2.95.59-2.22-.29-2.36.73-1.77,1-1,.88-.88.74-1.48,1-1,.3-1.33-.74-.89-1-1-1-1.33L183.77,12l-.15-1.78L181.41,10l-2.22.15V8.62l1.18-1,.89-1L182,4.93l.29-1-1.18-1.78-1-1.32L177.72.5h-3.84l-1,.74L171.52,2,172,3.75l.88,1.18.3,1.77-.44,1-.89,1h-1.33l-.74,1.62L168.56,10h-2.21l-1-1.18-.74-.3L163,9.06l-1.77,1.18-.88,1-1,.88-.74.89-.44,1.33-4.43-.15-3.84-.44-1.91.88-1,1.18-.44,1.48L145.68,19l-1,1.33-1,1.18h-1.18l-1.33-.88-1.18-1.33-1-.89-2.81.45-1.32-.59-.89-1-1,.15-1.48,1.48L129,18.22,128.11,17l-1-1.47L125.9,15l-3.25.15-1.18-1.33-1-1.63-1.33-1Z"/></g><g id="ro"><path id="path3018-8" class="cls-1" d="M162.45,183.48l-2.61-1.36-4-1.12L154,180l-3.23-1.12-2.12-1.61L147,175.65l-2.24-1.87-1.37-1.49-1.24-1.37-4.23.63-1.25.12-1.61,1.24-1.37,1.62-.87,1.24-.37,1.37-2.24-.5-1.49.13-.75,2-1,2.48-1.62,2.24L122,184.85l-2.36,1.62-1.49-.62-1.62.74-1.49,1.25-.5,1.86-1.86,1.37-1.75.62-1.74,1.24-2.48-.37-2.37-.37L103,190.82,100.9,190H98.79l-1.62,1.12-1.24,1.49-2.12,2.74-.87,1.61s.25,1.37.87,1.37a14.6,14.6,0,0,0,2.12.25c.5-.13,1.37-1.12,1.37-1.12s.37-1.12.87-1.12,2-.75,2.61-.75,1.37-.24,1.86-.24a3.69,3.69,0,0,1,2.74-.13,4.85,4.85,0,0,0,2.49.25h2a14.16,14.16,0,0,1,1.74.25l.12,2.49a18.31,18.31,0,0,0-.5,2.36c0,.5-.74,2.49-.62,3a25.49,25.49,0,0,1,.25,3.36v2.49l-.25,3s.37,1,.87,2,.75,1.87,1.37,2.24.75,3.11.75,3.11.37,1,.49,1.49a5.09,5.09,0,0,0,1.12,2.11,19.78,19.78,0,0,1,1.62,1.62l1.49.87a3,3,0,0,0,.75,2,5.72,5.72,0,0,1,1.12,1.24,1.2,1.2,0,0,0,.62.63c.5.24.37.49,1.24.74a13.87,13.87,0,0,0,1.74.37c.62.13,1.37.13,1.62.63s1.24.49,1.24.49l1.74-1.12,1.12-.74a12.39,12.39,0,0,1,1.37-.13c.5,0-1.12-1.12.75.13a11.21,11.21,0,0,1,2.86,2.73l1.36.5,2-.74c.63-.25,1.37-.63,1.37-.63l.5.75,1.49,1.24s.25.87.75,1a16.51,16.51,0,0,1,2.48,1.74,6,6,0,0,0,1.12.87,17.59,17.59,0,0,1,2,1.62s1,.24,1.87.37a19.55,19.55,0,0,0,2.73,0s1.12-.13,1.37.5.25,1,.5,1.49,1.49,1,1.49,1l1,.25s1.74.62,2.11,1.25a4.74,4.74,0,0,0,1,1.11.9.9,0,0,0,.87,0c.5-.24,1.25-1.24,1.75-1.24a14.56,14.56,0,0,0,2-.37l1.75.62,1.61.37a2,2,0,0,0,.75.62,9.86,9.86,0,0,0,3,.38l2.24-1.87,2.11-2.48,1.62-3.24.25-2,1.74-1.74s-.12-1.24.5-1.24,1.86-2.24,2.11-2.74,1.25-.49,1.25-2a13.89,13.89,0,0,0-.5-3.23l-1-1.49-.74-2.74-.38-1.61,1.37-1.62s.87-1.37.75-1.87-.5-1.74-.5-1.74a2.64,2.64,0,0,0-1.37-1.24,16.38,16.38,0,0,0-2.48-.37l-2.74.12a7.43,7.43,0,0,0-1.74-.87l-3.11-.62-2.86-.13a7,7,0,0,0-1.12-1.24,13.27,13.27,0,0,1-2-1.37c-.62-.62-2.11-1.86-2.11-1.86s-1.25-1.25-1-1.74-.62-2.74-.62-2.74l.37-2.61,1.37-2.49.38-3.11.49-2v-2.12l-.87-2-.49-1.74.24-1.12Z"/></g></g><g id="nordeste"><g id="pe"><path id="path3978-9" class="cls-1" d="M468.8,183.71l-.84.3-1.14.84-1.91,2.44-.61,1.14-1,1.76-1.14-1.38-1.3-3.27.15-1-2.13-.16-1.15-1.06-1.14-.08-1.14.15-5-3.05-2.22-.84-1.67-.07L445,180.89l-2.21,1-3.35,1.67-1.3,1.22-1.67,2.6-2.37,2-3.2,1L428.85,189a11.36,11.36,0,0,1-1.75-1.37c-.15-.31-1.53-1.45-1.75-1.76s-1.45-1.6-1.45-1.6l-1.3-1.3s-.69-1.06-.53-1.37-.23-1.14.3-1.45,2.29-1.37,2.29-1.37l1.07-.38s.83-1.22,1.06-1.52,1.3-1.45,1.45-1.76l1-2,.61-1.22-.07-3.28-.92-3.2s-.07-1.6.38-1.83a9.34,9.34,0,0,1,1.6-.46l2.6.46,6.48.46H443l2.21.53,2.14,2.82,1.52,2.52a6.69,6.69,0,0,0,1.68-.08,15.28,15.28,0,0,0,2.51-1.37,7.41,7.41,0,0,1,1.68-.91c.46-.08,1.14.53,1.14.53s1.61.3,2,.3,1-.38,1.37-.22a14.39,14.39,0,0,0,1.37.61,17.52,17.52,0,0,0,1.83.3l2.06.08s1.6.15,2-.16,1.22-1.14,1.6-1.44,1.15-1.15,1.53-1.45a11.9,11.9,0,0,0,1.22-1.53l.83-.38,3.89-.3,2.06.15.46,1-.38,1-1.38,1.83a9.65,9.65,0,0,0-1.37,2.06,10,10,0,0,0,.38,1.6l1.15.69,1.14-.39,5.11-.53,2.36-1.22,4-1.07,1.83-.45,2.36-.31,2.29-1.45,2.37-1.44,2.66-2.75,1.91-1.52,2-1.53.38.46.92,2.44-.16,3.89-.91,5.1v4.43l-.08,2.21-1.22,2.28-.76,2.06-1.52,1.75-1.45.77s-1.07-.08-1.15.3-2.21.76-2.21.76l-.83-.07L494,184.7s-.68-.84-1.06-.69-1.22.08-1.76.69-1.83.68-2.44,1.07-2.13.68-2.21,1.14-1.14,1.22-1.44,1.75-1.3.92-1.83,1.53-2.52.68-2.52.68h-2.21l-2.29-1-1.9-1.52s-.23.07-.54-.54a8.21,8.21,0,0,0-1.06-1.44l-1.3-.54-1-1-.53-.61Z"/></g><g id="pi"><path id="path3959-0" class="cls-1" d="M401.71,138.56l1.59-4.23.71-.71.7-2.82-1.41-3L403,125l.35-1.77,1.23-2.11,2-2.3.7-2.64a2.5,2.5,0,0,1,.71-1.77c.7-.53,2.64-1.58,2.64-1.58l2.83-.89,1.76-1.58A7.89,7.89,0,0,1,416,108c.71-1.23.18-1.94.89-1.94a11.33,11.33,0,0,1,2.64.88l2.3.88.35,2.3a7.77,7.77,0,0,0-1.06,2.12c0,.53-1.41,1.58-1.41,2.29v2.82a19.85,19.85,0,0,0,1.94,2.83,26.06,26.06,0,0,1,2.12,3l1.05,3.71a4.51,4.51,0,0,0,0,2.82c.53,1.41-.35,3.53.18,4.59a11.66,11.66,0,0,1,.53,4.06,4.69,4.69,0,0,0,.18,2.12c.35,1.23,0,2.47.53,3.7s1.06,2.65,1.41,3.53a11.34,11.34,0,0,1,.88,3.53,9.54,9.54,0,0,0,.71,3.35c.35.71.53.71,1.23,1.06s1.59.35,2.12,1.23a7.58,7.58,0,0,1,.7,2.47l-.7,1.94-1.41,1.24a7.82,7.82,0,0,0-1.24,2.47c0,.71.88,4.41.88,4.41l.53,3a3.55,3.55,0,0,1-.7,1.76c-.71,1.06-1.94,3-1.94,3l-2.12,3s-1.59,0-1.94.71a4.85,4.85,0,0,1-1.41,1.41l-3,.35-1.94,1.77-1.77,1.94L414.59,189,412,191.14H409.3l-1.06,1.94-1.59,1.06-1.94.71-4.59-2.47L398,191.14h-2.65l-2.47.18-1.06,3v3.53l-.18,3.35-1.76,3.53L387.42,207l-3.18.35-2.11.36-2.65,1.94L376,211.26,372.07,210,370,208.08,367.66,206l-2.47-1.76h-2.82l.7-.18s.53-.53,1.24-1.41.17-2.12,1.06-3a6.89,6.89,0,0,0,1.41-2.29,2.81,2.81,0,0,0,.17-1.59,3.1,3.1,0,0,1-1.23-2.29c0-1.42-1.06-2.12-1.06-3.53s-.18-3.35-.18-3.35l.18-2.65,1.06-2.12,2.82-5.47,1.24-6.35,1.58-2.47,3.36-1.41,3-.88,3.88-1.41,3-2.48s2.29-2.29,3-2.82,1.94-1.59,3-1.59h3l1.76,1.94a8.49,8.49,0,0,1,1.41-.7c.88-.35.53-1.06,1.94-1.06a7.33,7.33,0,0,0,2.83-.71,4.91,4.91,0,0,0,2.29-1c.53-.71-.53-1.42-.71-2.83s-.88-1.76-.88-2.64a12.89,12.89,0,0,0-1.06-3.18l-.7-2.12L399.42,141Z"/></g><g id="se"><path id="path3984" class="cls-1" d="M481.57,206.77l1.22-.85,1-.85,1.16-.86s.25-.67-.06-1-1.28-1.16-1.28-1.16l-.91-.73-.74-.67-1.46-1.41-1.59-1.15L477.67,197l-1.53-1.22-1.46-1.1c-.25-.18-1.22-.73-1.65-1a6.93,6.93,0,0,0-1.77-.73c-.3-.06-1.95-.79-1.95-.79l-1.34-.31-1.28-.18-.91-.24-.55.3-.49,1a4.54,4.54,0,0,0-.06,1.34,11.33,11.33,0,0,1-.12,2.13l.36.74a1.11,1.11,0,0,0,.55,1,4.91,4.91,0,0,1,1.28,1.28l.79.67.55,1.28a11.69,11.69,0,0,1-.18,1.16,9.1,9.1,0,0,1-.67,1.59l-.61,1.52-.55,1.1-1.34.37c-.25.06-.67-.49-1.46.36a7.75,7.75,0,0,1-1.29,1.16l-.3,1.1a6.93,6.93,0,0,0-.24,1.7c.06.49.24,2.26.24,2.26l.67.67,1.34,1.22a13,13,0,0,1,1,1.4,1.91,1.91,0,0,0,.61,1.16,3.27,3.27,0,0,0,1.77.49l2.07,1"/><path id="path3986" class="cls-1" d="M467.42,218.73l1.89.67,2.14.3a2.6,2.6,0,0,0,1.28-.61,9.72,9.72,0,0,0,1.28-2c.12-.31,1-2.2,1.09-2.62l.61-2.14,1-1.16,1.16-.91,1.58-1.4.86-1.28,1.22-.92.36-.24.49-.31,1.59-1.28s.85-.24.79-.79-.12-1-.43-1.28a20.23,20.23,0,0,0-1.95-1.52c-.3-.13-2.56-1.47-2.56-1.47s-.73-.85-1.16-1.28-1.77-1.52-1.77-1.52l-1.83-1.22L472.6,194l-2.25-.85a15.93,15.93,0,0,0-2.56-.73,22.1,22.1,0,0,1-2.2-.43s-.73.73-.61,1.16.43,2.07.43,2.07l.12,1.52s.18,1.53.73,1.71,1,.86,1.22,1,.31,1.95.31,1.95l-.31,2.07-.73,1.16-1,1.71-1.22.55-2.86,1.16-.31,1.76s-.12,2-.06,2.32-.24.67.73,1.53a17.08,17.08,0,0,1,2.26,2.8,5.34,5.34,0,0,0,1.46,1.1c.49.3,1.71,1.1,1.71,1.1Z"/></g><g id="al"><path id="path3981" class="cls-2" d="M464.19,189.29l.91-2.21,1.91-2.44,1.75-.76,2.52.92,3.12,1.83s-.84.22.31,1,2.06,1.52,2.06,1.52l2.05.61c.31.08,1.15.08,1.68.15a11,11,0,0,0,2.59-.68s1.53-.84,1.83-.92,1.22-1.22,1.22-1.22l1.45-1.06,1.91-1.15,2.06-.61,1.29-.3a5.62,5.62,0,0,1,1.68.61,8.47,8.47,0,0,0,2.13.68,3.17,3.17,0,0,1,1.15-.38,9.79,9.79,0,0,0,2-.68,8.15,8.15,0,0,1,1.68-.92c.3,0,1.29-1,1.29-1l.23.76-2.36.54.45,1.29.16,1.45-1.91,2.29-1.75,1.83-1.76,1.14-1,.76-1.14,2.06s-1.45,1.75-1.37,2.14a5,5,0,0,1-.08,1.52,9.13,9.13,0,0,1-1.22,1.53l-1.22,2-1.22.53-1.52,1.53-2.06.15a15.94,15.94,0,0,0-2-2c-.38-.16-2.37-1.3-2.37-1.3l-1.83-1.83-1.67-1.52-2.21-1.83-2.44-1.38-2.21-.83-2.44-.77-2.06-.38-.76-.68Z"/></g><g id="pb"><path id="path3971" class="cls-1" d="M458.47,169.4l1.45-.31,1.07.38s.61.54,1,.54l2.67.07,1.75-.07s.61-.31,1.45-.69a4.09,4.09,0,0,0,1.45-1.3l.53-.76L470.9,166l.76-1.15s2.21-.23,2.67-.23,3.35.23,3.35.23l.08.77a4.66,4.66,0,0,0-.92,1.06c-.15.38-1.67,2.44-1.67,2.44s-.54,1.22-.39,1.6.16.61.39,1.15.3.91.61,1.14.76.15,1.44.08.16-.31,1.38-.46.76-.31,2-.23A8.65,8.65,0,0,0,483,172a6.93,6.93,0,0,0,1.75-.61c.46-.23.46-.76,1.3-.76s1.14-.38,2.28-.46,1.15-.46,2-.46,1.14-.23,1.9-.23,1.07-.38,1.6-.45a6.41,6.41,0,0,0,1.91-1,14.17,14.17,0,0,0,1.45-1.29l1.6-1.22c.3-.23,1.6-1.37,1.6-1.37l.68-.92,1.07-.91a4.21,4.21,0,0,1,.84-1.07,8.13,8.13,0,0,0,1.07-.84l1.52-.61s-.61-1.37-.91-2a5.79,5.79,0,0,1-.92-2.44,5.59,5.59,0,0,0-.23-1.6,1.69,1.69,0,0,0-.61-1.3c-.68-.68-1.44-1.6-1.44-1.6l-.39-.46-4.65.08-1.22.69-1.44,1.22-.92.61-1.37.38-1.22-.92-1.83-1.37-.46-1-1.37.23-1.14.76-1,.76s.15,1.45.15,1.76-.46,3.2-.46,3.2l-1.14.91-2,.16-1.61-1.38s-.45-.68-.83-.68-3.59-.38-3.59-.38a5.91,5.91,0,0,1-1.83-.23,3.2,3.2,0,0,1-.61-1l2.9-3.74.46-1.52s.76-1,.3-1-.45-.31-1.14-.31-.92-.08-1.37-.08h-1.3l-2.06.92a6.91,6.91,0,0,1-1.83.84c-.45,0-2,1.29-2,1.29l-1.6.84-1.68.76L462,152l-1.45-.46-.92-1-1.14-.23-.38.3-1.3,2.14-.15,2.74-.38,1.76-.61,1.44-.61,1.53s0,2.13.38,2.29.84,1.9.84,1.9l.08,1.22-.61,1.22-1,.84-.07.08.46.53,1.22.61,1.29.38Z"/></g><g id="ma"><path id="path3968" class="cls-2" d="M361.88,84.3l-1.41,1.4-1.2,2.41v2.6l-.8,2.21-1,2.8-1.21,2.21v2.61l-1,3.4-.4,2.81-.6,2.21-1.8,2.4-2.21,2.41-1.8,3-1.61.81-2,1.8-2.41,1.6-2,2.21-2.21,2.6-2,1.41-2.41,1.2-1.8,2.21-2.21,1.6-1.4,2.2-.4,1.41.2,1.8h2l1.81-1,2.2-1,2.61.2a32.76,32.76,0,0,0,4,2.2,3.89,3.89,0,0,1,1.6,1.21l-.4,18.64-1.8,2.2-1,1.21,1.81,1.6-.8,2.61.2,2.6,3.2,2.41,3.21,1.6,3.41,1.21,2.41-.4,2.2-.81v1.41l-1.2,1.8-4,3.81-1.61,6,2.81,2s.8.2,1.61,1.6a9,9,0,0,1,1,2.41l.2,1.4.6,5.21,2.41,2.41,3.4,1.6a2.86,2.86,0,0,0,1.61,1.81,2.51,2.51,0,0,0,2.2-.4l1.61-4.21,1.4-3.21-1.6-4-.81-5.61v-3.41a36.69,36.69,0,0,0,3.21-4.41c.4-1,1.4-6.82,1.4-6.82l1.41-3.61,2.8-1.6,4.21-2,3.21-.2,2.61-1.4,2.4-2.4,1.81-1.81,1.6-1.2,2.41-.6,1.6.8,1.2,1,2.41-.8,1-.6,2-.4,2.8-.8,1.41-2.21-4.82-12.83,2.61-3L403,135l1.61-2.81.4-3-1.81-3.61L403,123l1-2.21,1.8-1.8,1.8-3.61,1.61-2.61,3.81-2,1.8-1.2,1-3s1-1.2.2-1.2h-3.2s-1.61-.6-2.41.2a5.32,5.32,0,0,1-2.61,1l-2-2.41s-3-1.6-4-2.2-2-1.6-3-1.6a24.86,24.86,0,0,0-4,.4,35.55,35.55,0,0,0-3.6,1.6l-2.21.8-2.81,1-1.8,1.61-1.4,2-1.41,1.61-1.8,2.6s-1.2-.8-.8-1.6a53.52,53.52,0,0,0,1.4-5.21l.6-2.61-.4-2.61-1.6-1.2,1.6-2.4.8-1.81-2.6-2-4.61-3s.2-1-1.21,0a7.52,7.52,0,0,1-2.2,1.2l-1-1.8-2.41-2.41-2-1.4-1.61-.8Z"/></g><g id="rn"><path id="path3965" class="cls-2" d="M474.9,132.05l-3,.7-1.58,1.42-1.77.88-1.41.7-.71,2.3L465.2,140l-1.24,3.7-1.76,2.12L461,148.28l-2,1.94,1.59,1.94,2.65.71,3-1.41,3.35-2.12,1.94-.88,1.94-.53,1.94.53-.35,1.58-1.59,1.77-1.59,2.12.71,1.76L474,156a15.25,15.25,0,0,0,2.47.18l2.3.18,1.94,1.94,1.41.7,2.47-1.41s.35-.17.53-1.59a19.87,19.87,0,0,0-.18-3.88l1.06-.88,1.76-.18.53,1.24L491,154.1l2.29-.35,1.41-1.06s2.65-1.76,3.53-1.59a6.19,6.19,0,0,0,1.94,0l2.3.18-.36-2.65-.88-4.23L500,140.16l-1.59-2.29s-1.24-1.59-2.47-1.59a12,12,0,0,1-3.53-1.06h-4.06l-3.17-1.41h-1.41l-4.06-1.41c-1-.76-.18-1.27-3-2.28-.68-.13-1.17,2.09-1.76,1.94"/></g><g id="ce"><path id="path3962" class="cls-1" d="M421.8,107.35l-1.06,2.47-1.59,1.76-.53,3,.35,2.29,1.06,2.3,1.24,2.29,1.59,3.35.88,5.12v3.71l.35,3.53a17,17,0,0,0,.18,2.64c.17.71.53,2.65.53,2.65l1.23,5.11.88,3.53.89,2.3,1.94,2.47,1.41,1.06.35,1.58-.88,3-1.24,1.94-.17.36.17.35h.89l-.36.18.18.35h.18l.52-.35-1.05-.36,1.23.18,4.59.35s4.23.18,4.94.18h3.7l1.77.7,1.06,2.47L449,171h1.76c.88,0,2.47-1.76,2.47-1.76s1.24-1.42,2.12-1.59,1.23-1.24,1.23-1.24l1.06-1.23-1.23-1.94-.71-2.65a6.3,6.3,0,0,1,.88-2.65c.71-.88.53-4.76.53-4.76l1.59-2.65,3.18-2.64,1.41-2.3,1.41-2.82,3.18-7.06,3.88-2.47,2.82-.7.71-.71-2.83-3.35-3.35-2.29s-2.12-1.42-2.82-1.77-4.77-2.47-4.77-2.47l-1.76-2.12a8.6,8.6,0,0,0-2.29-2.47c-1.06-.53-6-3.52-6-3.52l-3-2.3-4.59-3-4.06-1.06-4.41-2.47-2.64.18L431.15,107l-3,.18-3.71-.18Z"/></g><g id="ba"><path id="path3954" class="cls-1" d="M370.1,207.21l-1.94-2.12-2.82-1.59h-2.83l-2.11.89-1.06,3L356,211.44l-1.59,3,.17,1.24,1.59,2.82,1.24,1.06,1.23,1.24-.88,1.23-.35,4.06.35,1.59,1.24,1.76v1.94l-.71,3-.53,2.47.71,11.12v2.47l2.47,2.47.53,4.23L362,261l.18,2.12,2.82,1.41,4.94-1.41,3.89-2.82,4.41-3.88,2.47-1.95a19.23,19.23,0,0,1,2.64-.35c.89,0,3.18-.35,3.18-.35l1.41-.53,1.06-.88,1.23-.71,1.42.71-1.24,1.41-.7,1.41.88,4.24,2.82.88,2.29-1.24,2.47-1.06,3.18,1.42,2.82,2.11,2.12,2.65,1.59,1.59,3.7-.18,3.36,1.41,3.88,2.82,3.53,3.89s0,1,.7,1,4.94-.7,4.94-.7h2.65l2.64.35,4.06,2.12,2.3,2.12-.36,1.76L436.62,282l-1.41,2.82-.71,3-2.29,3.88-2.12,2.3,3.88,4.76,1.06,1.41,3,3.18,3.35,2.47,1.77.53,1.41-2.3,1.58-4.58,1.06-5.83,1.41-4.76,1.77-4.76.71-3.53,1.05-4.59.89-3.18,1.05-2.29-1.76-2.12.35-16.58-.88-.71v-1.76l-1.23-2.12s-1.42-.88-.71-.88,1.59-.88,1.59-.88,1.23-.18.53-1.41-1.24-2.3-1.24-2.3l1.77-1.06,1.06-1.76,1.76-1.59s.71-1.41,0-1.59-1.76-.53-1.76-.53l-.18-.88,1.41-1.23.35-1.24,1.77-.7,1.76.17.53,1.41.88,1.77,1.24,1.06,1.94-2.3,1.59-2.47,1.76-1.59.71-1.94,1.23-2.29,1.06-2.82,1.77-1.59.52-1.06-3.52-.35-3-2.12-1.24-1.76L462,212.86l.18-2.3v-2.29l2.12-.71,2.12-.53,1.23-2.11a6.13,6.13,0,0,1,.71-2.3,5.49,5.49,0,0,0,.53-2.47l-1.77-1.23-1.59-2.12V191L463.44,189l-1.59-2.83s.53-2.11-.88-1.94-3.71-1.76-3.71-1.76l-1.59.53-1.94-1.59-3.17-1.76-1.95-.89L447,179l-1.77,1.41-3,1.59-3.88,2.12L437,186.21l-1.94,2.3-1.24.88-2.64.71L429,188.33a3.83,3.83,0,0,1-1.59-1.23,17.51,17.51,0,0,0-1.76-2.3L423.91,183l-1.23-1.41-1.06-.36-4.59,2.3-3.17,4.23-1.94,1.77-1.42-.36-2.29,1.06L407,192l-1.24,1.41-1.76-.53a7.47,7.47,0,0,1-1.59-.53,20.12,20.12,0,0,1-2.12-1.41l-1.06-.71-1.76.18-2.29-.35-1.24-.53L392,190.63l-1.06,1.76-.18,6.53-1.05,3.35L388.8,204,386.16,206H382.8l-1.76.88-.88.53L378,209.33l-2.47.88-3-.88-1.41-1.59Z"/></g></g><g id="centro-oeste"><g id="go"><path id="path3937" class="cls-1" d="M310.83,235.92l-2.41-1.44-1-.77-.38-1.16v-2.32l-1.35-1.45H305l-1.26,1.93-.77,1.93-.87,1.84-1.25.58-.1,2.51.19,2.31-.29,2.32-.67,1.25-1.16,1.83-.1,1.36-.29,2-.86,1.16-1.07,1.06a8.17,8.17,0,0,0,.1,2,12.15,12.15,0,0,1,.1,2.6c0,.49-.29,2.13-.29,2.13s-.87,1.06-.87,1.44-1.25,1.64-1.25,1.64l-1.74.87L290.86,263l-.68.87-1.35,2.8-.77,3.47-1.64,1.93-1.25,1.16-1.84.29L278,280.21l-.19,1.45L276.1,284l-1.26,1.25-2.6,2.8-1.07,1.45-.86,2.12.29,2.32.19,3.57-.77,2-1.45,2.32-1,1.45,7.14,5.79,2.61,1.64a19.33,19.33,0,0,1,3.67.67,28.76,28.76,0,0,0,3.47,1.06,22.91,22.91,0,0,1,3.28,1.45c.87.58,3.18,1.93,3.57,2.12a35.51,35.51,0,0,1,3.18,2.41,23,23,0,0,0,3.19,1.55l.48-.39.58-1.54,2.32-1.54,2.51-1.45,1.25-1.26.67-1.35.87-1.44,1.16-1.07h1l2.31-.38,2.12-.48,1.65-.49,1.44-.67,1.26.38,1.06.68s1,.87,1.35.87a5.12,5.12,0,0,0,.87-.1l1.73-2.8,1.64-1.16,3.29-.67,3.28.48,1.06,1s1.73.29,2.6.48a16.94,16.94,0,0,0,2.61.19l.87-.09L339,308l2.7-1.06,2.31-1.83,2.13-2.7.38-1.74.29-1.93.58-1.35-.38-1.64L346,294.11l-.19-1.35,1.64-1.35.39-3.19s-.39-1.83-1.06-2.31a23.77,23.77,0,0,1-2.42-2.7L342.77,280l-.87-1.16.13.24,4.6,0,1.25-2.6,1.55-1,1.93-1.64a6,6,0,0,0-.1-2.22c-.29-.58-1.25-3.57-1.25-3.57l.58-2.22,2.6-1.83.68-1.74.87-2.12.19-1.25,3.09,2.12,2.6,1.45,1.83.48-.48-9-1.83-2.61-1.35-1.93V235.35H355l-1.73.19-1.74,1.06-2.22,1.06-2.22,1.64-1.54.77c-.39.2-1.93.78-1.93.78l-1.45-1.36s-.67-1.06-1.35-1.25a2,2,0,0,0-1.16,0s-.77.77-.77,1.16a8.88,8.88,0,0,1-.19,1.25l-.87,1.16-1.74-.48-1.64-1.26a8.36,8.36,0,0,0-1.93-1.15c-.38,0-1.06.09-1.06.09l-.67.48-1,.49-1.45-1.06s-.87-.78-1-1.16-1.16-2.41-1.16-2.41-.58-1.26-1.16-1.26h-1.25l-1.16,1.26-.58-.78-.87-.19-1.35.39-1.06,1.44-.67,1.64-1.07,1.74-1.54-1.06-1.83-.77-1.35-.77Z"/></g><g id="df"><path id="path3934" class="cls-2" d="M330.13,279.17h15.35l1.63-.54.11-1.94.75-.54-.11-1.3-.32-1.62-.11-1.84-1.73-1.19a23.16,23.16,0,0,0-3-1.08c-.43,0-4.21.1-4.21.1l-3.36.11-.21,1.3-3.46-.32-1.52-.33L329.8,272l-1.51,1.08.32,2.16v1.62l1.09.11.32.87Z"/></g><g id="ms"><path id="path3910" class="cls-1" d="M268.14,302.81l-3.08-1.54-1.23-1.54-.77-.93v-8.62l-1.54.31-1.23.77-.62,1.54-.61,1.69-.77,1.54-.93.31-1.84.46-2.47-.46-1.84-1.08-1.7-1.54-1.07,1.08-1.08,1.54-2.77.31-3.7-.77-1.69-1.23-1.39-1.54-2.15-.62-2.77-.31-1.54-.77-1.39-.92-.77.77-3.38,1.23-2.62.31-1.39.31L220.11,295l-1.69.93-2,1.69-2.78.16-3.69.46-.92,2.15,2,2-.16,3.85-1.07,3.39v2.77l.77,1.23.15,2.62-1.23,2.46-2.93,2.77L205,323.74s.47,1.23.77,1.85a7,7,0,0,0,1.54,2.15,14,14,0,0,1,1.23,1.08l-.92,2.47-1.69.61v2.46l.46,2.78.15,2.3v2.93a2.07,2.07,0,0,0,.77,1.85,3.54,3.54,0,0,1,1.23,1.23v2.46l-.15,2.62-1.08,2.31-.92,1.69-.31,1.85,2.31.61,1.54-1.54,1.69.16,1.39,1.23,4.31.77,3.23.15,2.16-.15,2.31-.92,3.23-.31,1.85.31s4.46,2.31,5.23,2.77,1.54,2.46,1.54,2.46l.15,4v4.78s.62,2,.77,2.61,2,3.54,2.31,4.16a25.87,25.87,0,0,0,1.85,2.46l1.23.93,2.16-2.47,2.15-1.54,1.85-.77,1.23,1.39,1.39,2.92v2.31l.77,2.47s-.16.61.77.3a2.65,2.65,0,0,0,1.38-1.23l.31-2.31s-.62-1.54.15-2.15a10.23,10.23,0,0,0,1.7-2.31l2.77-3.54,1.38-2.46,1.85-2.62,1.23-3.08,1.54-1.85s3.54-2,4.16-2.15a17.77,17.77,0,0,0,2.92-2.47l4.16-1.69,2.77-2.62,1.69-3.69,2.78-4.16,1.23-2.15,1.23-2.62,2-2.62.31-3.38.92-1.85,2.62-1.7,2.92-1.53,1.23-.93v-3.54l.93-3.23a8.74,8.74,0,0,1,0-2.16c.15-.92,1.23-1.23.15-1.84s-4-2.62-4-2.62-2.46-2-3.08-2.31-2.77-1.54-2.77-1.54l-2.46-1.39a9.26,9.26,0,0,0-2.16-.3,37.11,37.11,0,0,1-4.77-.93l-2.31-.61-1.08-1.23-2.77-2.16-2.46-2Z"/></g><g id="mt"><path id="path3905" class="cls-1" d="M163,182.86l29.76.7,2.09-2.56,3.72.23h2.56l1.86-3,.7-5.12.7-3.48.23-4.66,1.16-2.55.7.23,2.56,1.86,2.09,3.49,1.63,2.56-.23,3.72-.47,4.18,1.63,2.33,8.37,8.6,4.88.7,17.91,1.63,19.3,1.62,20,1.4,16.28,1.86h6.74l-3,6.74-.93,5.35-.7,2.79L300.87,214l.24,7.9v7.91l.23,6,.23,4.66-2.09,4.18-.7,4.65s-2.09,1.4-1.63,3-.23,5.82-.23,5.82l-1.86,3-3.25,1.86s-1.86,1.4-1.86,2.56a14,14,0,0,1-1.17,3.72l-1.86,3.72-3.72,1.16-2.09,2.56-1.4,1.86L276.92,284l-2.32,2.56-2.33,1.86s-1.39,1.16-1.39,2.32.23,4.19.23,4.19l.23,3.48-2.79,4-.69.69-2.79-1.62-1.86-2.79L263,295.4v-5.11l-3,1.39-1.4,3.95-3.72,1.4-3.25-1.16-1.86-2.1-3.26,2.56-1.86.7-4.18-1.16-1.4-1.4-1.62-1.39-2.1-.24-3.49-.69L230.65,291l-.93-.23-2.09,1.86-3.26.23h-2.32l-1.4,2.33-2.79,1.39-1.39,1.17-1.86.23-3.72.23-1.63-.93L208.1,294l-2.1-1.17-2.79-2.55-2.09-2.1v-4.65l1.4-2.56.46-2.09-.46-.93-1.4.23-1.86,1.17-2.09.93-11.16.23-1.63-1.4H183l-1.39,1.4-4-.7-.93-1.86-.24-5.11-1.39-2.79-2.56-2.79,1.63-2.56.7-4.42,1.86-3-.93-5.35-1.86-4.19-1.86-2.55,3-2.79,1.86-1.86.7-2.33.23-2.79,1.86-1.63,1.63-2.09,1.86-3.49.46-1.63-.7-1.86-.69-2.32-.93-2.09-.24-1.4.93-1.63.93-1.16v-1.63l-.46-1.16-1.63-1.4H176l-1.86-.46s-2.33-.23-3.26-.23a14.57,14.57,0,0,1-3-.7l-2.32-1.4-2.8-2.32L161.36,205l-.23-3.72.93-2.56,1.62-4.18.7-3-.7-2.79-.93-1.86V184Z"/></g></g><g id="sudeste"><g id="mg"><path id="path3931" class="cls-1" d="M302.44,315.08l-1.51.54-2.27,1.62-.54.87v1.4l-.44,1.52-.32,1.51-.22,1.95-.1,1.73.64.43,1.63-.11,2.16-1.19,2.49-.86,1.19.75,2.81,1.3,1.94.65,2.06.11,1.19-.11.86-.76s.22-.21.87-.11a16.28,16.28,0,0,0,1.95.11l1.4.44,1.08.86-.1.87.21,2s-.65,1.84-.21,2a4.23,4.23,0,0,0,1.4.43,4.37,4.37,0,0,0,2.16-.22c.65-.21.65-.86,1.09-.86s1.51-.54,2.16-.54.86-1,.86-1l1.09-.75,1.83.32,4.22-.11h1.41l1-1.08,2-1.84,1.84-.43,1.62.11,1.51.65,1.52,2.7-.11,2.16.32,1.52.65,2.05.33,1.73a6.14,6.14,0,0,0-.65,1.63c0,.43-.11,1.29-.11,1.29L348,345l1.62,1.41a7.76,7.76,0,0,0,1.84.54h1.95l.76,1.19L353,350.44l-1.3,2.16a14.07,14.07,0,0,0,.43,2.28c.22.43.87,2.37.87,2.37l.43,2.28,1.08,2.37s1.62,2,1.84,2.38a33,33,0,0,0,2.49,2.71l3,.21,2.49-1.08,2.27-1.4,1.73-1,3.79-1.4,2.81-.76,1.84-1.08,1.19-.11,1-1.51,1.84-.33,2.7-.43,2.92-.54,1.73-1.3,2.17-.22,3.24-.32s6.38-1.41,6.81-1.41,4.22-1.4,4.22-1.4l2.81-2.06,1.73-3.13,1-3.79.11-3.57,2.38-.65.54-1.62,3.24-5.51,4.22-2.38,2.49-4.11,1.4-3.79,1.08-2.59,1.63-3.68,1.29-4.32,1.95-3.9,2.16-2.05,1.62-2.17,1.09-2.27.86-.43-1.4-2-1.52-1.73L432,295.94s-1.4-1.41-.76-2.49,1.73-2.38,2.17-3a35.17,35.17,0,0,0,1.51-3.35l1.3-3.68,1.51-1.41,2.6-2.16s.43-1.19-.11-1.73-1.73-1.62-1.73-1.62l-1.62-.65L434,274.09s-1.19-.43-1.62-.54a17.56,17.56,0,0,0-2.17-.11l-7.46.22L421,270.85l-3-2.28s-1.4-1-1.94-1.4-2.38-1.62-2.38-1.62l-2.82-.44-2.81.11-2.05-2.16-1.3-1.73-1.41-1.62-2.05-.87a8.47,8.47,0,0,0-2.05-1.3,3.34,3.34,0,0,0-1.74.11c-.64.33-1.08-.21-1.73.54s-1.4.44-1.83,1-1.84.64-1.84.64-1.19-.86-1.08-1.29a9.63,9.63,0,0,0,0-1.73l-.22-2.6,1.51-.86L392,252l-.65-.65-2.16-.11-1.09.54-.54,1.08-1.94.33-2.06.11h-1.4l-1,.86-1.62.22a2.58,2.58,0,0,0-1.73,1.08,9.36,9.36,0,0,1-1.84,2.05l-2.27,1.84-1.84,1.52-1.4,1L368,263l-1.3.54-2.59.76-2.28-1.3-3-.76-2.06-1.94-1.84-1.41s-.75,2.71-.75,3.14a11.62,11.62,0,0,1-.44,1.84L352,265l-1.29.43s-1.52,1.19-1.19,1.62a27.15,27.15,0,0,1,1.19,3.46l.64,2s.44.11.11.65-1.62,2.05-1.62,2.05l-1.51,1.3-1.3-.11-.22,2.7-4,.44s.22,2.81.65,3a11,11,0,0,1,1.62,2.16,16.42,16.42,0,0,1,1.95,2.59,22,22,0,0,1,.43,2.82s-.32.54-.54,1a16.83,16.83,0,0,1-1.95,1.95l.65,1.83,1.19,1.95.22.33-1,2.16-.22,2.59-1.62,2.17-1.95,1.73-1.3,1.08-2.27.43s-.43-1.41-1.4-1.08a18,18,0,0,1-3.25.43l-2.59-.86a.92.92,0,0,0-1.09-1.19l-4.43.32-2.92.76s-.54-.22-1.41,1.08a20.18,20.18,0,0,0-1.4,2.49l-1.62-.54s-.76-1.3-1.3-1.3-1.95-.33-2.16.32-3.36,1.3-4.22,1.52a16.13,16.13,0,0,1-3.25,0s-1.4.75-1.4,1.4-1.52,1.73-1.52,1.73a1.39,1.39,0,0,1-.1,1.3,2.83,2.83,0,0,1-1.3.76Z"/></g><g id="es"><path id="path3928" class="cls-2" d="M412.89,340.18l1.67,1.73,2,1.46s.94.2,1.67.27.86,0,1.86.07,1.73-.47,2.4-.4a9.17,9.17,0,0,1,2,.66l1.06.87.8.73.6-1.2s-1.13-1.46-.33-2.19,1.33-1.6,1.86-1.87a18,18,0,0,0,1.6-1.26,17.16,17.16,0,0,0,1.6-1.73,4.81,4.81,0,0,1,1-1.67,10.49,10.49,0,0,0,1.53-1.86c.2-.34.06-1.27.4-2a9.78,9.78,0,0,0,.53-1.93s.4-1.53.47-2.06a3.45,3.45,0,0,1,.4-1.8c.39-.54,1.46-2.2,1.46-2.2s1.27-1.33,1.66-1.8-1.19.34.87-1.33,1.73-1.46,2.06-1.73.07-.8.6-1.8.6-1.2.4-1.73-.8-.73-1.26-1.8-.67-1.06-.8-1.86a8.68,8.68,0,0,1,.6-3.06c.2-.54,1.2-2.4,1.2-2.4l-.07-.67-1.4-.73-2.4-1.66s-1.33-1.47-1.73-1.53-1.66-.07-1.66-.07-1.2.53-1.13,1-.93,1.93-.93,1.93L432.2,306l-1.33,1.53-1.47,1.87-2.06,4.86-.73,2.66-.73,2.13-1.4,2.53-.87,2.2-.4,1.53-1.06,1.47-1.2,2.39s-1.27,1.47-1.47,1.73a17.55,17.55,0,0,1-2.26,1.34s-2,1.33-2.06,1.93a17.91,17.91,0,0,1-1,2.33,7.63,7.63,0,0,1-1.13,1.73s-.74.46-.6.86a11.84,11.84,0,0,0,.66,1.34Z"/></g><g id="rj"><path id="path3925" class="cls-1" d="M377.89,359.91l2.4,1.49,2.18,1.15.81,1.15-.81,1.14-.34,1.49.92-.34,4.35.34.58.69s.11.92.8.92.34-.35,1.72-.23,1-.57,1.72-.46a8.93,8.93,0,0,0,1.95.12,2.79,2.79,0,0,0,1.83-.92l1.72-.46v-1.84l.92-2.29,1.38-.46a2.35,2.35,0,0,1,.57,1.26,4.74,4.74,0,0,1-.23,1.84l.35,1.26s.22.23,1.14.34,10-.23,10-.23l.23-3.43s.8-1.27,1.6-1.27,1.49-1.49,1.49-1.49.46-.68,3.44-1.14,3.56-2.53,3.56-2.53l2-1.83.91-1.38-1.14-2.18a7.6,7.6,0,0,0,.8-1.49c.11-.45,1.38-3.44,1.38-3.44s-1.72-2.29-2.41-2.29-2.87.12-3.67.12-2.75.11-3.44-.35l-2.41-1.6s-1.15-1.38-1.6-1.38h-2.3l-.57,5.62-1.26,2.87-.69,2.06-2.64,1.49-3.21,1.49a24,24,0,0,1-2.86.8c-.46,0-3,.23-3,.23l-4.35.92-3.44-.11-1.49,1.6-4.48,1-3.32.35Z"/></g><g id="sp"><path id="path3922" class="cls-1" d="M297.28,327.69l-.69,2.29-1.15,1.27L293,332.62l-2.17.69-1,1.15s-1.14,1.6-1,2.18a7.57,7.57,0,0,1-.23,2.06l-1.49,2.06-1,2.41-1.15,2.18a22,22,0,0,0-1.37,2.52c-.12.46-.81.81-.92,1.38a9.88,9.88,0,0,1-1.49,2.18l-1,1.95-.81,1.37-1.49,1.15-1.49,1.37-1.83,1.27s-1.84.11-1.84.91a1.07,1.07,0,0,1-.57,1l-.46.91,2.87.46a13.09,13.09,0,0,0,2.29.57c.58,0,2.75-1.26,3.21-1.26s2.3-.91,2.87-.68l4.47,1.72s3.9,1.14,5.05,1.37a16,16,0,0,1,3.78,1,34.11,34.11,0,0,0,3.9,1.26l2.29.69s2.64-1,3.1-.69,2.41,0,3,.35,2.52.11,2.87.69,3.44,1.6,3.44,1.6l1.49,1.84-.35,2.18a5.34,5.34,0,0,0,0,1.94c.23.46.81,1.5,1,1.95s.11,1.95.45,2.53.23.46.92,1.83,1.72,2.18,1.84,2.64a31.3,31.3,0,0,1,.11,3.21,15.84,15.84,0,0,1-.23,1.72l1,1.49a7.78,7.78,0,0,0,1.26.34c1,.23,1.38-.68,1.84-.68s1.49-.81,1.49-.81l2.52.23.69,1.72-.23,3.21,2.18.69,1.83-.34,2.64,1,1.61-1.49,1.6-1.61s.69-1.6,1.26-1.72,2.07-1.49,2.87-1.49a5.77,5.77,0,0,0,2.18-.91s1.37-1.5,2.06-1.5,1.72-1,1.72-1l1.72-.8a12.59,12.59,0,0,1,2.64-1.95c.92-.34.57-.57,2.06-1.15s1.61-1.49,2.07-1.72.69-1.26,1.49-1.49a13.12,13.12,0,0,0,2.52-1.49s1.15-1.26,1.72-1.26h1.72l1.61.23s.8,1.72,1.37,1.72a4.29,4.29,0,0,0,1.61-.69l.57-1.26,1.15-1.26.69-.46,3.44-2.18,3.21-.46,2.06-1.26-.46-1-.92-1,.69-1,1.49-.69a7,7,0,0,1,1.26-.57,4.94,4.94,0,0,0,1.27-.81l.22-1.49a14.32,14.32,0,0,0-2.06-1.14c-.46-.12-2.75-1-2.75-1l-.92-.91h-2.18s-1.14,1-1.6,1.37a10.2,10.2,0,0,1-2.87.46l-1.83.92-1.84.46a.81.81,0,0,0-.92.23,10.68,10.68,0,0,1-1.94,1.37s.8-.46-.46.58a9.61,9.61,0,0,1-3.9,1.37l-1.61-.46-1.26-1.49L356.44,363l-.8-1.38-1-1.49-1.15-1.83-.46-1.72-.34-1.95-.69-1.49a2.12,2.12,0,0,1,.58-1.38,11.38,11.38,0,0,0,1.26-1.72L355,348.1l-1.49-1.37-2.18-.23-1.83-.69-.92-1.15-1.37-1.83-1.61-3.33,1.15-1.95-.35-2.52-1-1.95.23-1.95a4.66,4.66,0,0,0-.34-1.72,14.7,14.7,0,0,0-.81-1.37L342.68,326s-.57,0-1.83.12-2-.35-2.64.23l-1.37,1.14-1.15,1.72-.8.46h-1.95l-3.21-.11-2.18-.46s-1.26.34-1,.8-.58,1.61-.58,1.61l-2.4-.23-.92,1.26-2.64.11-.34-2.18a14.22,14.22,0,0,1,.57-1.72,3.58,3.58,0,0,0,0-1.6l-1.49-.46a1.65,1.65,0,0,0-1.15-.69,19.32,19.32,0,0,0-2.06-.11l-1.49.23-.23,1.14-1.26.12h-1.72l-3.1-1a21.19,21.19,0,0,1-2.06-.69,11.47,11.47,0,0,1-1.49-1.15l-1.15.23-.69.92-.57.23-1.84.68-.8.12-1.72.34Z"/></g></g><g id="sul"><g id="rs"><path id="path3919" class="cls-1" d="M261.66,419.72l2.28-.13h1.47l1.34.4,1.47.81s1.34.13,2.15.13h5.89l1.61.13,1.34.54,2.15.67,1.34-.13,2.67.4,2.68,1.74,2,.4,1.34.4,1.88,1.21,2.41,2.54,3.08,2.42,1.48,2,1.07,2.14,2.14,1.34,2.41,1.47h2.95l2.55.54a9.37,9.37,0,0,0-.27,1.61,14,14,0,0,1-1.34,2.81L308.55,446l-.53,2.55s.4.94.94.94a7.27,7.27,0,0,0,1.47-.27l1.21.4.93.67.27,1.07L307,459.52l-3.62,6.56-4.42,6.57-4.29,4.42-1.34,2.14-2.41,1.21-2.95.4-2.41,2.28a37.71,37.71,0,0,0-2.15,3.62c-.13.53-1.47,2-1.47,2.94s-.53,2.42-.53,2.95a34.79,34.79,0,0,1-1.34,4l-6,5s-1.61,1.2-2.15,1.74-3.62,2.68-3.62,2.68l-1.6,1.61-1.48-2.41a13.69,13.69,0,0,1-.93-2.82c0-.67-.14-2,.8-2.54s3.48-4.29,3.48-4.29l-.53-2.95-3.08-2.68s-2.55-1.61-3.09-2.54A31.15,31.15,0,0,0,259,484l-3.62-3.22-3-2.14-2.68-2.15-3.48-1.07-2.54-1.34-2-2.68s-1.48-2-2.15-2.14-2-.27-2-.27l-1.34,1.34-1.07,1.21-1.74,1.6s-1.34.41-1.48-.13-.53-3.75-.53-3.75l-.4-1.88L229.5,466s-1.34-1.48-1.87-1.61a4.63,4.63,0,0,1-1.34-.8l-1.48-1.48-1.6-1.74a2.2,2.2,0,0,0-1.48-.53c-.67.13-1.87.26-1.87.26L218,462.33l-1.47,1.34-2.15.94-2.27-1.88-.14-1.6,3.08-3.76,3.89-3.21,2.68-3.62,1.61-2,3.48-2.41a13.61,13.61,0,0,1,.8-2c.67-1.47,1.21-2.68,1.21-2.68l1.47-1.61,2.82-2a19.11,19.11,0,0,1,3.75-1.07c.94,0,2.14-1.61,2.14-1.61l1.48-2.81,2-1.48,2.68-.67,2.81-.8,1.07-1.47,1.34-2,3.08-1.48,2.41-1.47,1.75-1.61,2.27-.94Z"/></g><g id="sc"><path id="path3916" class="cls-1" d="M327.47,406.1l-1.61.08-2.52.25-2.28,1.27-2.7-.34-1.93,1.26-2.53-.92-1.69-1.35-2.36-.84-1.35-.59h-2.86l-1.35.5-1.52.93-3,1.26-1.44.85-1.93.84-1.94,1.35-1.77.76-.76,1-2,.92-2.45.26h-2l-1.27-.68-1.68-.67-1.27-.68-1.51-.16-.76-.17-1.27-.68-.75-.5-.68-.42-1.94-.26-1,.09-1.77.17-2.7.08-1.93-.59-2-.25-1.94-.26h-.67l-.51.68-.84.67.34,9.95s4.55-.42,5-.09,1.18,1.27,1.52,1.27h4.55l2.28.08,2.27.09a4.14,4.14,0,0,0,1.77.92c.68,0,2.28.09,2.28.09a7.23,7.23,0,0,1,2-.17c1,.08,1.69,0,2.11.42a13.63,13.63,0,0,0,1.68,1.52c.34.17,1.69.93,1.69.93s2.36.33,2.7.42,1.6.76,1.68,1.09,1.86,1.52,1.86,1.86,1.34.92,1.85,1.18a4.38,4.38,0,0,1,1.6,1.35c.51.67,2.11,1.77,2.11,2.1a15.92,15.92,0,0,0,.42,1.86l1.35,1.43a8.59,8.59,0,0,1,1.94.76c.42.34,2,1.26,2,1.26l.84-.08,3.29.08,1.1.68.16,1.18-.59,1.6-1,1.18-1,1.68a6.25,6.25,0,0,0-.76,1.52,19.72,19.72,0,0,0-.19,2.15c.09.34-.19.24,0,.91s1.56-.36,2.4,0a16.69,16.69,0,0,0,2.8,1c.92.17,1.12-1.16,1.12-1.16l.8-1.47a7.85,7.85,0,0,1,1.18-2.1,4.19,4.19,0,0,0,.93-1.35l2.45-1.18,1.43-1.27,2.19-1.6s1.26-1.51,2.11-1.68A4.88,4.88,0,0,0,327,437.2s.17-2.36.34-3,.17-6.82.17-6.82l-.26-1.77-1.09-1.27s.67-4.47.34-5.22a34.39,34.39,0,0,1-.51-5.23l.08-1.94-.08-1.18s-.84-.34-.93-.84a13.63,13.63,0,0,1-.08-1.52l1-.34,1,.26,1,.33s.42.43.76,0,.76-1.26.51-1.6-.93-1-.93-1Z"/></g><g id="pr"><path id="path3913" class="cls-1" d="M254.06,385.49l1.08-1.55.24-1.8v-2l1.07-1.31a20.54,20.54,0,0,1,1.91-2.63,25.41,25.41,0,0,0,2.16-2.87l1.67-2.51,1.19-2.51,1.08-2.63,1.08-1.32,1.91-1.55,3.11-.84,2.75-.12a23.13,23.13,0,0,0,3.46.24c.72-.12,3-.6,3-.6l1.55-1.07h1a20.94,20.94,0,0,0,3.59.72c.47-.12,2.15,1.07,2.15,1.07l2.27.36,3.11,1,3.82.59,1.92,1.08,1.79,1,2.27-.36a32.91,32.91,0,0,1,3.47,0c.59.12,3.46.24,3.46.24l3,1.19,2.15,1a6.47,6.47,0,0,1,1.2,1.91,6.88,6.88,0,0,1,.24,1.67,4.91,4.91,0,0,0-.36,1.68c0,.84-.24,1.79.12,2.27a29,29,0,0,1,2.27,3.47,14.85,14.85,0,0,0,1.08,2.39c.47.71,1.19,1.43,1.19,2a7.71,7.71,0,0,1-.24,2.39,3.64,3.64,0,0,1-.6.84l.12,2.51,1.44.59s1.55.48,2-.12a4.72,4.72,0,0,0,.72-1.31l2.39.24,1.79.6.12,1.79v2l1.91,1.08,2.51-.12s1.2.48,1.2.95a27.34,27.34,0,0,1-.84,3.11l-1.55.12-2.15-1.19-1.44.83-1.55.84.36,1,1.67.83,1.08,1.2-.84,1.19-1.08,1.56-.71,1.79H325.9l-1.19-.12-1.44.48-1.19.24-1.8.12-1.19.12-1,.95-1.43.48-3.23-.83-1.08-1-.83-.48L310,405.21l-2-.35-2.51.12-1.19.71L302,407l-1.67.72-3,1.67-1.55.72-2,1.31-1.08,1.2-2,1.07-2.63.24h-3l-1.55-.84-2.87-1-1.92-.24-2.27-1.32-.71-.47-4.9.24-2.51-.24-1.92-.84-1.43-.48h-2.15l-.84-1.07-1.2-1.32a1,1,0,0,1-.35-1.08,14.1,14.1,0,0,0,.12-3l-1.2-1.44L258,400l-1-.12-1.32,1.07-1.55-.24-1.91-.24-1.92-.83a15.13,15.13,0,0,1,.6-1.8,16.42,16.42,0,0,0,.48-2.75l1.43-3.58.72-1.08.6-2.15.12-1.31Z"/></g></g></svg>