<svg width="440" height="460" viewBox="0 0 440 460" fill="none" xmlns="http://www.w3.org/2000/svg">
<path d="M65.2906 168.219C63.1278 167.27 61.1549 165.946 59.1503 164.701C55.943 162.717 52.625 160.924 49.3016 159.135C47.4078 158.117 45.5141 157.094 43.5359 156.245C38.4243 154.05 32.8906 153.058 27.4783 151.771C18.8851 149.73 10.4871 146.892 2.41083 143.315C2.47413 143.711 2.52161 143.954 2.52161 143.954L0.327148 144.37L1.20282 147.688C1.20282 147.688 8.66188 159.019 10.1231 160.264C11.5843 161.509 11.1465 163.719 11.1465 163.719L9.24742 166.209C9.24742 166.209 9.98067 166.626 14.0742 167.038C20.9477 168.145 19.9243 173.394 19.9243 173.394L30.3058 172.977L37.9126 168.277C37.9126 168.277 36.8892 181.407 37.9126 184.171C38.9359 186.935 43.9104 183.897 43.9104 183.897L54.1495 184.451C54.1495 184.451 54.0018 185.416 59.2664 185.97C64.531 186.524 65.4066 180.996 65.4066 180.996L70.2334 180.305L72.718 178.231L80.0294 173.895C77.376 172.471 74.5959 171.279 71.7263 170.361C69.5687 169.67 67.3584 169.127 65.2906 168.219Z" fill="#0C46E6" stroke="#0C46E6"/>
<path d="M175.626 156.329C175.91 155.59 176.264 154.789 176.021 154.034C175.816 153.38 175.193 152.916 175.019 152.251C174.829 151.544 175.188 150.816 175.557 150.183C176.449 148.669 177.53 147.034 177.208 145.309C177.06 144.502 176.617 143.785 176.18 143.088C175.552 142.091 174.929 141.089 174.302 140.092C174.091 139.76 173.88 139.401 173.869 139.011C173.864 138.562 174.127 138.161 174.37 137.787C176.116 135.123 177.44 132.206 178.749 129.299C181.502 123.201 184.119 117.282 187.131 111.311C190.016 105.598 192.58 99.7161 194.801 93.713C195.001 93.1749 195.207 92.6632 195.186 92.0935C195.977 91.1651 196.526 90.0309 196.747 88.8335C196.858 88.2321 196.906 87.578 197.285 87.098C197.67 86.6126 198.303 86.4122 198.826 86.0799C199.348 85.7475 199.802 85.0934 199.527 84.5395C197.56 85.4416 195.312 85.7053 193.187 85.2886C193.387 84.7241 192.97 84.1175 192.464 83.801C191.957 83.4845 191.356 83.3421 190.86 83.015C189.779 82.3134 189.309 80.8575 188.144 80.3141C187.695 80.1031 187.189 80.0556 186.698 79.9712C184.314 79.5545 182.214 78.2146 180.183 76.9011C179.941 76.7428 179.677 76.5582 179.614 76.2786C179.556 76.0202 179.677 75.7617 179.767 75.5137C179.962 74.9704 179.951 74.2794 179.503 73.9154C178.664 73.2296 177.472 74.3374 176.396 74.253C175.557 74.1844 174.961 73.3931 174.639 72.6124C174.323 71.8317 174.149 70.9666 173.616 70.3124C172.835 69.3576 171.363 68.9462 171.02 67.7593C170.772 66.91 171.179 65.8286 170.54 65.2167C170.203 64.8949 169.675 64.8368 169.332 64.5203C168.921 64.1352 168.895 63.5022 168.895 62.9431C168.9 61.0862 168.91 59.2294 168.916 57.3725C168.473 57.3725 168.024 57.4569 167.581 57.478C164.817 57.6046 162.053 57.7312 159.288 57.8578C158.207 57.9053 157.052 57.9844 156.197 58.6491C154.768 59.7621 154.842 61.9461 153.887 63.4864C153.333 64.3832 152.389 65.1903 152.489 66.24C152.568 67.0893 153.349 67.8173 153.206 68.6613C153.111 69.2205 152.637 69.6214 152.199 69.9696C151.624 70.4232 151.001 70.898 150.268 70.9349C149.361 70.9771 148.569 70.323 148.005 69.6109C147.441 68.8987 146.982 68.0758 146.248 67.5377C144.792 66.4721 142.624 66.9047 141.269 68.0969C139.913 69.2891 139.217 71.0562 138.737 72.797C138.599 73.2929 138.473 73.8151 138.578 74.3216C138.726 75.0284 139.29 75.5612 139.676 76.1679C140.066 76.7745 140.245 77.6765 139.702 78.1513C138.937 77.2598 137.75 76.7587 136.579 76.822C136.157 76.8484 135.672 76.9222 135.35 76.6479C135.16 76.4844 135.076 76.2364 134.991 75.9991C134.174 73.8257 132.327 72.164 130.259 71.1037C129.742 70.84 129.194 70.5973 128.803 70.17C128.408 69.7427 128.213 69.0675 128.519 68.5769C130.692 68.2762 132.005 65.8233 131.916 63.6288C131.826 61.4344 130.734 59.4298 129.822 57.4358C128.909 55.4365 128.149 53.1946 128.74 51.0793C128.919 50.4357 129.231 49.7921 129.141 49.1274C129.083 48.6949 128.861 48.2993 128.64 47.9194C127.685 46.2683 126.736 44.6225 125.781 42.9714C125.454 42.4016 125.116 41.7211 125.38 41.1198C125.506 40.8296 125.754 40.6186 125.95 40.376C126.503 39.6955 126.672 38.7143 126.372 37.8914C125.264 36.4407 122.268 37.8597 121.418 36.2403C121.313 36.0398 121.255 35.7972 121.086 35.6442C120.912 35.4806 120.659 35.449 120.421 35.4226C119.614 35.3277 118.807 35.238 118 35.143C117.552 35.9976 116.945 36.9049 116.133 37.6751C113.79 39.8854 109.697 40.3021 109.697 40.3021L109.259 44.8651C109.259 44.8651 99.0199 49.8396 97.7064 51.6384C96.3876 53.4372 95.3643 54.1283 95.3643 54.1283H93.903C93.903 54.1283 93.7553 50.5359 92.004 50.5359C90.2474 50.5359 87.9105 53.4372 87.9105 53.4372L83.817 53.5744L79.8659 48.5999L76.0625 48.046C76.0625 48.046 76.3526 43.2087 76.2102 42.792C76.0625 42.3753 74.0157 38.92 72.5545 38.3714C71.0933 37.8175 68.461 42.3805 68.461 42.3805L65.8287 42.7973L65.2432 40.7241H63.4865L63.0487 42.2434L45.646 42.6601L45.4983 49.9873C45.4983 49.9873 51.053 50.5412 52.2241 50.5412C53.3952 50.5412 53.5376 54.4131 53.5376 54.4131C53.5376 54.4131 53.5376 54.4132 51.3432 54.5503C49.1487 54.6875 44.6173 55.5157 44.6173 55.5157C44.6173 55.5157 43.594 58.1427 43.1561 61.4607C42.7183 64.7788 47.6875 67.543 48.5684 68.234C49.4441 68.9251 51.3484 74.5906 51.3484 74.5906L44.7703 109.143L41.7002 109.417L41.4101 107.898C41.4101 107.898 39.9488 107.761 37.1688 107.761C34.3888 107.761 33.5132 110.388 33.5132 110.388L28.6864 110.525L28.3963 111.907H22.9945L12.613 118.543L11.2995 125.316L8.37709 127.115L9.11033 131.678L9.69587 133.614C9.69587 133.614 5.16452 136.795 3.26019 137.486C1.74623 138.035 2.17879 141.817 2.41617 143.342C10.4924 146.918 18.8905 149.756 27.4837 151.798C32.896 153.085 38.4296 154.077 43.5412 156.271C45.5194 157.12 47.4132 158.138 49.307 159.162C52.625 160.95 55.9484 162.738 59.1557 164.727C61.1655 165.972 63.1331 167.296 65.2959 168.246C67.3638 169.153 69.5741 169.696 71.7263 170.387C74.596 171.305 77.376 172.497 80.0294 173.922L83.5585 171.827C83.7115 171.627 83.8539 171.416 83.9699 171.184C84.2231 170.677 84.3761 170.087 84.8192 169.738C85.1779 169.459 85.6527 169.39 86.1064 169.359C87.5096 169.258 88.9233 169.38 90.2896 169.712C90.9648 169.876 91.6717 170.097 92.3416 169.918C92.732 169.812 93.0748 169.58 93.4599 169.443C93.8556 169.301 94.2829 169.269 94.6732 169.127C95.7546 168.731 96.72 167.496 97.7908 167.934C98.2656 168.13 98.5505 168.599 98.9039 168.968C99.2573 169.338 99.8429 169.617 100.265 169.327C100.882 169.016 101.056 168.219 101.072 167.528C101.083 166.837 101.019 166.088 101.394 165.508C102.032 164.532 103.446 164.627 104.606 164.664C105.878 164.706 107.159 164.558 108.389 164.21C108.884 164.843 109.718 165.197 110.52 165.102C110.789 164.057 110.725 162.923 110.33 161.915C111.126 161.699 111.918 161.483 112.714 161.267C112.371 160.491 112.028 159.695 111.981 158.851C111.939 158.007 112.261 157.083 112.989 156.656C113.289 156.477 113.637 156.392 113.927 156.202C115.077 155.443 114.925 153.359 116.227 152.89C116.502 152.789 116.808 152.789 117.098 152.789C119.677 152.784 122.257 152.784 124.837 152.779C125.274 152.779 125.823 152.969 126.029 153.359C126.234 153.749 126.303 154.208 126.561 154.562C126.92 155.058 127.611 155.306 127.78 155.896C127.854 156.144 127.812 156.419 127.875 156.672C128.049 157.384 128.898 157.648 129.526 158.022C130.402 158.55 130.977 159.452 131.51 160.322C132.042 161.193 132.612 162.095 133.488 162.628C134.363 163.16 135.64 163.176 136.294 162.385C136.51 162.121 136.642 161.794 136.869 161.536C137.518 160.808 138.81 160.961 139.449 161.699C139.517 161.778 139.57 161.863 139.628 161.947H174.824C174.671 160.032 174.95 158.107 175.626 156.329Z" fill="#0C46E6" stroke="#0C46E6"/>
<path d="M169.053 46.2578C168.689 46.3474 168.399 46.3844 168.209 46.3474C166.014 45.9307 157.97 41.4099 157.97 41.4099C157.97 41.4099 158.407 37.2636 156.656 35.1905C154.905 33.1174 156.508 27.4519 157.094 25.7902C157.679 24.1338 159.874 20.5361 160.164 19.0169C160.454 17.4977 158.555 12.9347 158.555 12.9347L154.314 12.6604L154.024 10.8615L155.195 9.75375L154.135 0.258484H147.261C147.261 0.258484 147.34 3.81921 146.538 5.40175C145.747 6.97375 134.669 12.4335 134.669 12.4335L129.273 12.6393C128.297 12.6762 127.368 13.0613 126.651 13.7207L123.95 16.2158L124.472 21.0531C124.646 21.8075 124.625 22.4669 124.625 22.4669L124.472 21.0531C124.267 20.1616 123.792 19.1435 122.684 18.9167C120.637 18.4999 120.97 15.8835 120.97 15.8835L112.857 15.4193L110.483 13.573L102.966 11.1991C102.966 11.1991 102.565 12.2172 104.611 14.4275C106.658 16.6378 108.679 20.8052 108.679 20.8052C108.679 20.8052 110.214 25.4684 110.942 26.2966C111.675 27.1248 112.26 31.9674 112.26 31.9674L119.118 32.0993C119.118 32.0993 118.844 33.5236 118.005 35.1325C118.812 35.2274 119.619 35.3171 120.426 35.4121C120.664 35.4384 120.917 35.4754 121.091 35.6336C121.26 35.7866 121.318 36.0293 121.423 36.2297C122.273 37.8439 125.269 36.4302 126.377 37.8808C126.672 38.709 126.509 39.6849 125.955 40.3654C125.754 40.6081 125.512 40.8244 125.385 41.1092C125.121 41.7106 125.459 42.3911 125.786 42.9608C126.741 44.6119 127.69 46.2578 128.645 47.9089C128.867 48.2887 129.088 48.6791 129.146 49.1169C129.236 49.7816 128.925 50.4251 128.745 51.0687C128.149 53.184 128.914 55.426 129.827 57.4253C130.739 59.4245 131.826 61.4291 131.921 63.6183C132.011 65.8127 130.702 68.2657 128.524 68.5664C128.218 69.0622 128.418 69.7322 128.809 70.1595C129.204 70.5867 129.753 70.8294 130.264 71.0932C132.332 72.1535 134.179 73.8151 134.996 75.9885C135.086 76.2206 135.165 76.4738 135.355 76.6373C135.677 76.9169 136.157 76.8378 136.584 76.8114C137.755 76.7428 138.942 77.2493 139.707 78.1408C140.25 77.666 140.071 76.7639 139.681 76.1573C139.29 75.5507 138.731 75.0179 138.583 74.311C138.478 73.8046 138.605 73.2876 138.742 72.7865C139.222 71.0457 139.918 69.2785 141.274 68.0863C142.629 66.8941 144.792 66.4616 146.253 67.5272C146.987 68.0652 147.446 68.8881 148.01 69.6003C148.575 70.3124 149.366 70.9666 150.273 70.9243C151.001 70.8927 151.629 70.4179 152.204 69.959C152.647 69.6056 153.122 69.2047 153.211 68.6508C153.354 67.812 152.573 67.0788 152.494 66.2295C152.394 65.1797 153.338 64.3726 153.892 63.4758C154.841 61.9355 154.773 59.7516 156.202 58.6385C157.057 57.9739 158.212 57.8947 159.294 57.8473C162.058 57.7207 164.822 57.5941 167.586 57.4675C168.029 57.4464 168.478 57.3619 168.921 57.3619C168.916 58.7757 168.91 60.1894 168.905 61.6084C168.968 61.4766 169.021 61.3394 169.068 61.197L169.053 46.2578Z" fill="#0C46E6" stroke="#0C46E6"/>
<path d="M222.068 41.6842C222.854 42.3383 223.287 43.3722 224.146 43.9209C225.497 44.7807 227.406 44.1582 228.783 44.9864C230.318 45.9096 230.408 48.0882 231.405 49.5758C231.922 50.3513 232.687 50.9315 233.288 51.649C233.89 52.3664 234.327 53.3423 234.016 54.2285C233.9 54.5608 233.679 54.8615 233.594 55.2044C233.441 55.8269 233.747 56.4599 234.048 57.0296C235.14 59.1027 236.258 61.2075 237.93 62.8481C238.252 63.1646 238.606 63.4758 238.796 63.8926C239.186 64.7419 238.859 65.9235 239.582 66.5196C239.877 66.7675 240.299 66.8414 240.568 67.1157C240.832 67.3847 240.906 67.7803 240.964 68.1549C241.117 69.1097 241.264 70.0645 241.417 71.0193C241.481 71.4044 241.544 71.8106 241.776 72.1218C241.982 72.3961 242.288 72.5755 242.588 72.739C244.836 73.9575 247.721 74.8227 249.831 73.3878C249.958 71.8739 250.095 70.323 250.77 68.962C251.055 68.3923 251.424 67.8753 251.799 67.3583C252.585 66.2611 253.376 65.1639 254.162 64.0614C253.466 63.9875 252.87 63.5391 252.685 62.827C252.295 61.3552 261.067 55.0883 261.067 55.0883C261.067 55.0883 262.043 54.1652 264.966 53.6166C267.888 53.0627 266.722 51.5909 268.864 48.0882C271.011 44.5855 265.941 43.1138 264.243 42.006C262.544 40.8982 263.599 39.0572 264.185 37.77C264.77 36.4776 260.677 36.2983 259.311 36.4776C257.944 36.6623 255.022 27.6312 255.022 27.6312V19.344C255.022 19.344 252.437 13.2301 249.952 13.4463C247.32 13.6784 234.597 37.9547 234.597 37.9547C234.597 37.9547 231.674 36.6464 230.793 35.6811C229.917 34.7157 228.599 34.4361 226.114 34.299C223.629 34.1618 221.873 36.235 221.873 36.235L218.085 36.0978L216.065 34.8423C215.901 36.4935 215.817 38.1499 215.822 39.8062C217.647 41.0459 220.375 40.281 222.068 41.6842Z" fill="#0C46E6" stroke="#0C46E6"/>
<path d="M289.927 68.9145C288.266 65.3485 285.438 64.1616 285.438 64.1616L277.204 62.1834L275.479 61.1284L272.688 59.414L271.628 57.172L266.912 57.2353C266.912 57.2353 266.337 56.1961 264.976 55.2783C263.61 54.3551 262.249 56.75 260.882 58.2271C259.516 59.6988 257.57 60.9913 256.399 62.8323C255.792 63.7871 254.922 64.1458 254.172 64.0667C253.386 65.1639 252.595 66.2611 251.809 67.3636C251.44 67.8806 251.065 68.3976 250.781 68.9673C250.1 70.323 249.963 71.8792 249.842 73.3931C247.732 74.828 244.841 73.9628 242.599 72.7443C242.298 72.5807 241.992 72.4014 241.786 72.1271C241.554 71.8106 241.486 71.4097 241.428 71.0246C241.275 70.0698 241.127 69.115 240.974 68.1602C240.916 67.7856 240.842 67.39 240.578 67.121C240.304 66.8467 239.887 66.7728 239.592 66.5249C238.875 65.9288 239.196 64.7472 238.806 63.8979C238.616 63.4864 238.263 63.1752 237.941 62.8534C236.269 61.2128 235.15 59.1028 234.058 57.0349C233.758 56.4652 233.452 55.8322 233.605 55.2097C233.689 54.8668 233.905 54.5714 234.027 54.2338C234.338 53.3528 233.9 52.3717 233.299 51.6542C232.703 50.9368 231.938 50.3566 231.416 49.5811C230.419 48.0935 230.329 45.9149 228.794 44.9917C227.422 44.1635 225.507 44.786 224.157 43.9261C223.297 43.3775 222.865 42.3436 222.079 41.6895C220.385 40.2863 217.653 41.0565 215.838 39.8115C215.833 38.1551 215.917 36.4987 216.081 34.8476L212.093 32.3683L198.783 33.4761C198.783 33.4761 198.783 36.657 199.517 36.7941C200.25 36.9313 200.392 39.168 200.392 39.168L185.474 38.0602C185.474 38.0602 172.904 45.3241 169.058 46.263L169.074 61.2075C169.026 61.35 168.968 61.4871 168.91 61.619C168.91 62.0621 168.905 62.5052 168.905 62.9483C168.905 63.5128 168.931 64.1458 169.343 64.5256C169.686 64.8421 170.213 64.9001 170.551 65.2219C171.189 65.8338 170.783 66.9152 171.031 67.7645C171.374 68.9462 172.846 69.3576 173.626 70.3177C174.159 70.9718 174.333 71.837 174.65 72.6177C174.966 73.3984 175.562 74.1897 176.406 74.2583C177.488 74.3479 178.675 73.2401 179.513 73.9206C179.962 74.2846 179.967 74.9757 179.777 75.519C179.687 75.7669 179.566 76.0254 179.624 76.2839C179.687 76.5635 179.951 76.7481 180.194 76.9064C182.225 78.2199 184.33 79.5598 186.709 79.9765C187.199 80.0609 187.706 80.1084 188.154 80.3194C189.32 80.8627 189.789 82.3187 190.871 83.0203C191.372 83.3473 191.973 83.4898 192.474 83.8063C192.981 84.1228 193.398 84.7347 193.197 85.2939C195.318 85.7106 197.57 85.4416 199.538 84.5448C199.812 85.0987 199.358 85.7528 198.836 86.0851C198.314 86.4175 197.681 86.6179 197.296 87.1032C196.916 87.5833 196.869 88.2374 196.758 88.8388C196.531 90.0362 195.988 91.1756 195.196 92.0988C195.217 92.6738 195.012 93.1802 194.811 93.7183C192.59 99.7214 190.032 105.603 187.141 111.316C184.124 117.288 181.513 123.206 178.759 129.304C177.445 132.211 176.127 135.128 174.381 137.792C174.133 138.167 173.874 138.568 173.879 139.016C173.885 139.412 174.101 139.765 174.312 140.097C174.94 141.094 175.562 142.097 176.19 143.094C176.601 143.753 177.013 144.434 177.182 145.188C178.501 146.048 179.624 147.219 180.173 148.685C180.721 150.157 180.674 151.835 181.428 153.217C181.914 154.103 182.71 154.841 182.953 155.823C183.106 156.445 183.016 157.099 183.006 157.743C182.974 159.246 183.385 160.755 184.171 162.037C185.886 162.031 186.798 164.221 188.439 164.716C188.792 164.822 189.204 164.864 189.436 165.154C189.763 165.561 189.531 166.199 189.779 166.658C190.28 167.581 192.131 166.99 192.469 167.987C192.548 168.224 192.501 168.493 192.569 168.736C192.743 169.353 193.519 169.533 194.157 169.591C196.462 169.807 198.783 169.886 201.094 169.833C212.91 169.564 225.164 171.421 236.954 172.239C246.492 172.898 256.029 173.558 265.567 174.222C266.057 174.254 266.611 174.27 266.959 173.922C267.271 173.616 267.302 173.136 267.345 172.703C267.582 170.261 268.642 167.903 270.314 166.104C271.053 165.307 271.902 164.627 272.688 163.878C275.737 160.987 277.837 157.104 278.586 152.969C278.739 152.141 278.818 151.223 278.359 150.516C277.81 149.677 276.597 149.313 276.365 148.337C276.265 147.926 276.376 147.493 276.486 147.082C277.067 144.929 277.652 142.777 278.232 140.625C278.338 140.24 278.454 139.834 278.755 139.57C279.066 139.301 279.504 139.248 279.915 139.174C282.395 138.715 284.468 136.943 285.86 134.843C287.248 132.739 288.044 130.312 288.83 127.917C289.189 126.82 289.5 125.49 288.741 124.625C288.081 123.882 286.952 123.876 285.966 123.718C284.985 123.56 283.845 122.89 283.982 121.903C284.035 121.518 284.283 121.186 284.536 120.885C288.498 116.164 295.229 114.233 298.626 109.09C300.741 105.888 301.992 101.826 304.286 98.7508C305.204 97.5164 306.465 96.4297 306.787 94.9263C307.061 93.6286 306.602 92.1568 307.293 91.0279C307.805 90.1945 308.849 89.7408 309.176 88.8229C309.398 88.2005 309.234 87.5041 309.414 86.8711C309.598 86.2434 310.094 85.7633 310.474 85.2358C311.418 83.917 311.672 82.2395 311.893 80.6359C312.152 78.7685 312.405 76.8958 312.553 75.0179C306.75 72.5333 298.747 69.0992 297.74 68.7457C296.168 68.176 292.855 68.176 289.927 68.9145Z" fill="#0C46E6" stroke="#0C46E6"/>
<path d="M153.058 214.419C153.649 213.338 153.982 212.119 154.699 211.117C155.01 210.684 155.395 210.294 155.627 209.808C156.171 208.685 155.817 207.229 156.54 206.211C157.062 205.478 158.049 205.145 158.46 204.349C158.787 203.721 158.671 202.956 158.423 202.291C157.964 201.073 157.094 200.06 156.419 198.947C155.743 197.834 155.432 196.473 155.833 195.238C155.48 194.674 156.218 194.094 156.656 193.593C157.511 192.611 157.273 191.119 156.983 189.847C156.951 189.705 156.914 189.557 156.809 189.452C156.672 189.315 156.456 189.299 156.26 189.293C155.416 189.272 154.578 189.246 153.734 189.225C153.111 189.209 152.304 189.04 152.225 188.418C148.147 188.17 144.07 187.917 139.992 187.669C140.409 185.807 140.519 183.871 140.324 181.971C140.282 181.571 140.224 181.164 140.071 180.79C139.86 180.289 139.475 179.867 139.311 179.344C139.153 178.838 139.227 178.289 139.301 177.762C139.543 176.011 139.786 174.259 140.029 172.503C140.082 172.107 140.14 171.706 140.071 171.31C139.923 170.477 139.264 169.849 138.815 169.127C138.71 168.958 138.615 168.768 138.647 168.578C138.678 168.367 138.837 168.203 138.947 168.024C139.327 167.396 139.058 166.579 139.19 165.856C139.28 165.355 139.565 164.917 139.749 164.442C140.103 163.535 140.066 162.417 139.433 161.678C138.8 160.939 137.502 160.786 136.853 161.514C136.626 161.768 136.494 162.1 136.278 162.364C135.624 163.155 134.347 163.134 133.472 162.606C132.596 162.074 132.026 161.172 131.494 160.301C130.961 159.431 130.386 158.529 129.51 158.001C128.877 157.621 128.033 157.363 127.859 156.651C127.796 156.398 127.838 156.129 127.764 155.875C127.595 155.29 126.904 155.037 126.545 154.541C126.287 154.187 126.218 153.728 126.013 153.338C125.807 152.948 125.258 152.758 124.82 152.758C122.241 152.763 119.661 152.763 117.082 152.768C116.786 152.768 116.486 152.768 116.211 152.869C114.914 153.338 115.067 155.422 113.911 156.181C113.621 156.371 113.273 156.461 112.973 156.635C112.245 157.068 111.923 157.985 111.965 158.829C112.007 159.673 112.355 160.47 112.698 161.245C111.902 161.462 111.11 161.678 110.314 161.894C110.709 162.902 110.773 164.031 110.504 165.08C109.707 165.17 108.868 164.822 108.373 164.189C107.143 164.532 105.867 164.685 104.59 164.643C103.43 164.6 102.011 164.511 101.378 165.487C100.998 166.067 101.067 166.811 101.056 167.507C101.045 168.198 100.871 168.995 100.249 169.306C99.8269 169.596 99.2413 169.316 98.8879 168.947C98.5345 168.578 98.2496 168.103 97.7748 167.913C96.704 167.475 95.7439 168.71 94.6572 169.105C94.2616 169.248 93.8396 169.279 93.4439 169.422C93.0641 169.559 92.716 169.791 92.3256 169.897C91.6557 170.076 90.9488 169.86 90.2736 169.691C88.9073 169.353 87.4936 169.237 86.0904 169.338C85.6367 169.369 85.1619 169.438 84.8032 169.717C84.3601 170.065 84.2071 170.662 83.9539 171.163C83.8379 171.395 83.6955 171.606 83.5425 171.806L85.2833 170.772L92.3045 170.635C92.3045 170.635 94.7891 169.807 96.2503 171.189C97.7115 172.571 95.2269 176.855 95.2269 177.825C95.2269 178.791 95.6648 189.019 95.9602 190.538C96.2503 192.058 105.661 201.964 105.661 201.964C105.661 201.964 108.584 202.518 115.8 202.703C116.776 206.021 131.203 209.339 131.203 209.339L134.516 213.026C134.516 213.026 144.265 214.319 146.607 215.421C147.957 216.059 148.722 217.004 149.181 218.148C150.785 217.246 152.188 216.012 153.058 214.419Z" fill="#0C46E6" stroke="#0C46E6"/>
<path d="M187.869 266.965C189.568 266.421 190.66 264.823 191.678 263.362C192.343 262.407 193.118 261.399 194.247 261.104C195.08 260.888 195.961 261.099 196.821 261.03C198.414 260.904 199.886 259.827 201.474 260.023C202.202 260.112 202.861 260.466 203.505 260.814C205.736 262.017 207.968 263.219 210.199 264.417C210.853 264.77 211.534 265.129 212.272 265.166C213.417 265.224 214.435 264.522 215.437 263.974C216.439 263.425 217.721 263.019 218.687 263.631C219.045 263.858 219.314 264.206 219.668 264.448C220.929 265.324 222.68 264.559 223.851 263.567C225.022 262.576 226.119 261.304 227.639 261.067C228.361 262.196 227.612 263.684 226.737 264.696C225.856 265.704 224.758 266.733 224.727 268.072C226.504 268.415 228.309 268.605 230.118 268.642C231.669 268.674 232.998 268.906 234.533 269.112C234.866 268.442 234.243 267.73 233.8 267.128C232.803 265.773 232.618 263.947 232.961 262.296C233.304 260.65 234.122 259.142 234.992 257.702C235.736 256.478 236.533 255.27 237.551 254.262C238.163 253.655 238.859 253.117 239.365 252.421C239.872 251.725 240.172 250.796 239.872 249.989C239.735 249.62 239.476 249.277 239.476 248.887C239.476 248.386 239.893 247.979 240.341 247.763C240.79 247.547 241.291 247.457 241.739 247.23C242.71 246.74 243.279 245.674 244.218 245.126C244.762 244.809 245.384 244.688 245.991 244.529C247.267 244.192 248.565 243.633 249.356 242.572C250.222 241.417 250.338 239.893 250.617 238.479C250.897 237.065 251.503 235.53 252.833 234.971C253.36 234.749 253.94 234.712 254.5 234.607C255.702 234.385 256.868 233.816 257.654 232.877C258.44 231.938 258.794 230.603 258.409 229.443C257.981 228.155 258.73 226.446 258.941 225.112C259.015 224.642 259.094 224.167 259.226 223.714C259.369 223.244 259.569 222.796 259.675 222.316C259.886 221.366 259.685 220.364 259.849 219.404C260.017 218.396 260.571 217.5 261.051 216.598C262.354 214.145 263.172 211.438 263.457 208.674C263.415 208.738 263.378 208.806 263.33 208.869C262.972 209.328 262.312 209.629 261.795 209.36C261.721 205.203 261.642 201.046 261.568 196.884C261.558 196.394 261.553 195.903 261.447 195.423C261.363 195.043 261.215 194.674 261.141 194.289C261.025 193.693 261.072 193.081 261.13 192.48C261.716 186.629 263.336 180.88 265.894 175.583C266.084 175.193 266.279 174.787 266.279 174.354C266.279 174.301 266.268 174.254 266.263 174.201C266.031 174.228 265.788 174.222 265.556 174.206C256.019 173.547 246.481 172.888 236.944 172.223C225.154 171.405 212.9 169.549 201.084 169.818C198.768 169.87 196.452 169.791 194.147 169.575C193.508 169.517 192.733 169.338 192.559 168.72C192.49 168.478 192.538 168.209 192.459 167.971C192.121 166.974 190.269 167.565 189.768 166.642C189.52 166.183 189.753 165.545 189.425 165.138C189.193 164.848 188.782 164.806 188.428 164.701C186.788 164.205 185.875 162.021 184.161 162.021C183.375 160.739 182.969 159.23 182.995 157.727C183.006 157.083 183.101 156.429 182.942 155.807C182.7 154.826 181.898 154.092 181.418 153.201C180.669 151.819 180.716 150.141 180.162 148.669C179.614 147.208 178.495 146.032 177.171 145.172C177.182 145.214 177.198 145.256 177.208 145.299C177.525 147.024 176.443 148.659 175.557 150.173C175.188 150.806 174.829 151.534 175.019 152.241C175.198 152.9 175.816 153.37 176.021 154.024C176.264 154.778 175.905 155.58 175.626 156.318C174.95 158.096 174.666 160.022 174.808 161.915H139.612C140.071 162.643 140.071 163.619 139.755 164.432C139.57 164.906 139.29 165.344 139.196 165.845C139.064 166.568 139.333 167.386 138.953 168.013C138.842 168.193 138.679 168.356 138.652 168.567C138.626 168.763 138.721 168.952 138.821 169.116C139.264 169.833 139.929 170.466 140.076 171.3C140.145 171.696 140.092 172.096 140.034 172.492C139.792 174.243 139.549 175.995 139.306 177.751C139.232 178.279 139.159 178.828 139.317 179.334C139.48 179.856 139.865 180.278 140.076 180.779C140.235 181.154 140.287 181.56 140.33 181.961C140.525 183.86 140.414 185.791 139.997 187.658C144.075 187.906 148.153 188.159 152.23 188.407C152.315 189.024 153.117 189.193 153.739 189.214C154.583 189.235 155.422 189.262 156.266 189.283C156.461 189.288 156.677 189.304 156.814 189.441C156.92 189.541 156.957 189.694 156.989 189.837C157.279 191.108 157.516 192.596 156.662 193.582C156.224 194.083 155.485 194.664 155.839 195.228C155.438 196.468 155.749 197.829 156.424 198.936C157.099 200.049 157.97 201.062 158.429 202.281C158.677 202.94 158.787 203.71 158.466 204.338C158.049 205.135 157.068 205.472 156.545 206.2C155.817 207.213 156.171 208.674 155.633 209.798C155.401 210.283 155.016 210.668 154.704 211.106C153.987 212.103 153.649 213.327 153.064 214.408C152.193 216.001 150.79 217.236 149.197 218.127C149.535 218.966 149.709 219.916 149.83 220.928C150.11 223.323 152.278 224.985 152.278 224.985L152.863 230.329C152.863 230.329 149.16 230.883 149.941 231.437C150.722 231.99 152.283 236.321 152.283 236.321V245.257C152.283 245.257 162.227 246.365 172.366 246.55C171.39 257.976 175.615 259.078 175.615 259.078C175.615 259.078 178.796 258.709 181.138 262.766C181.782 263.879 182.077 264.918 182.183 265.846C183.997 266.669 185.981 267.566 187.869 266.965Z" fill="#0C46E6" stroke="#0C46E6"/>
<path d="M295.393 123.328C295.878 123.628 296.374 123.94 296.722 124.388C297.06 124.821 297.244 125.353 297.408 125.881C299.301 132.032 298.901 139.253 294.828 144.233C295.472 144.845 296.284 145.288 297.149 145.494C297.508 147.662 298.974 149.461 300.383 151.144C301.359 152.309 302.894 153.591 304.202 152.816C304.598 152.584 304.883 152.188 305.262 151.93C306.412 151.144 308.18 151.951 308.586 153.28C308.997 154.609 308.243 156.107 307.066 156.857C306.518 157.205 305.869 157.437 305.468 157.948C305.131 158.381 305.03 158.945 304.909 159.484C304.445 161.604 303.585 163.635 302.387 165.45C304.192 165.819 304.118 168.662 305.647 169.691C306.528 170.282 308.069 170.498 307.974 171.558C307.932 172.038 307.499 172.402 307.388 172.872C307.288 173.294 307.452 173.726 307.61 174.127C308.19 175.567 308.802 177.06 309.941 178.121C311.076 179.181 312.896 179.687 314.214 178.864C315.676 177.957 315.908 175.963 315.992 174.243C316.071 172.587 316.15 170.904 315.728 169.306C315.385 167.998 314.726 166.774 314.526 165.439C313.908 161.261 317.849 157.817 318.719 153.681C318.978 152.468 318.973 151.175 319.521 150.067C320.766 147.546 324.074 147.119 326.748 146.259C329.744 145.299 332.435 143.4 334.344 140.904C334.935 140.134 335.494 139.269 336.365 138.847C336.887 138.594 337.483 138.52 338.063 138.504C339.794 138.452 341.503 138.831 343.222 138.979C344.947 139.127 346.783 139.016 348.234 138.082C349.69 137.149 350.586 135.186 349.858 133.614C349.231 132.264 347.659 131.589 346.889 130.317C345.623 128.228 346.936 125.585 348.213 123.507C349.489 121.429 350.755 118.738 349.421 116.697C349.141 116.264 348.745 115.879 348.645 115.373C348.45 114.392 349.447 113.458 349.231 112.482C349.131 112.034 348.793 111.685 348.571 111.285C347.548 109.433 349.141 107.265 350.618 105.756C350.65 103.836 351.626 102.116 353.198 101.019C354.917 99.8216 357.207 99.5368 358.742 98.1125C359.739 97.1893 360.298 95.8969 360.773 94.6256C360.789 94.5834 360.804 94.5359 360.82 94.4937C360.514 94.404 360.156 94.2985 359.702 94.1614C356.584 93.2382 357.555 91.9511 357.555 91.9511C357.555 91.9511 350.534 91.9511 349.368 91.7665C348.197 91.5818 348.002 89.7408 344.494 88.4484C340.986 87.156 335.136 88.0791 333.769 88.0791C332.403 88.0791 331.042 88.633 329.908 89.5509C328.779 90.474 327.919 93.0536 326.358 92.6843C324.796 92.3151 329.28 87.5252 329.866 87.3406C330.451 87.156 324.211 77.2071 322.844 75.9146C321.478 74.6222 319.532 77.9403 318.556 77.571C318.213 77.4392 315.686 76.363 312.505 75.002C312.363 76.88 312.11 78.7527 311.846 80.6201C311.624 82.229 311.371 83.9012 310.427 85.22C310.047 85.7528 309.551 86.2276 309.366 86.8553C309.182 87.4883 309.345 88.1899 309.129 88.8071C308.802 89.725 307.758 90.1839 307.246 91.0121C306.555 92.141 307.014 93.6128 306.739 94.9105C306.418 96.4139 305.162 97.5005 304.239 98.7349C301.95 101.81 300.694 105.872 298.579 109.074C295.187 114.217 288.45 116.148 284.489 120.869C284.236 121.17 283.988 121.497 283.935 121.888C283.919 122.014 283.924 122.135 283.946 122.252C285.122 121.244 286.604 120.606 288.155 120.574C290.803 120.532 293.182 121.951 295.393 123.328Z" fill="#0C46E6" stroke="#0C46E6"/>
<path d="M318.798 177.699C319.547 177.999 319.315 179.16 319.769 179.825C320.059 180.241 320.618 180.447 320.813 180.916C321.183 181.803 319.948 182.715 320.202 183.644C320.27 183.897 320.449 184.113 320.629 184.308C321.969 185.775 323.741 186.84 325.667 187.342C325.978 187.421 326.31 187.489 326.621 187.405C327.165 187.257 327.476 186.714 327.798 186.255C329.08 184.419 331.332 183.301 333.574 183.401C334.017 183.422 334.476 183.485 334.898 183.348C335.304 183.222 335.637 182.921 335.943 182.626C337.673 180.943 339.102 178.954 340.136 176.775C340.337 176.353 340.527 175.91 340.511 175.446C340.474 174.122 338.897 173.32 338.617 172.023C338.438 171.205 338.833 170.35 339.435 169.765C340.031 169.179 340.806 168.821 341.566 168.478C341.993 168.288 342.478 168.103 342.906 168.288C343.613 168.594 343.818 169.77 344.583 169.749C344.852 169.738 345.084 169.57 345.332 169.469C346.155 169.148 347.068 169.659 347.733 170.245C348.397 170.83 349.041 171.537 349.911 171.701C350.935 171.896 351.916 171.273 352.776 170.683C354.379 169.585 356.083 168.467 358.014 168.298C358.789 168.23 359.602 168.314 360.308 167.998C360.815 167.771 361.216 167.365 361.606 166.969C362.988 165.555 364.37 164.141 365.752 162.728C367.156 161.293 368.912 159.557 370.516 158.355C372.167 157.115 373.713 155.728 375.121 154.219C375.343 153.982 375.575 153.713 375.612 153.385C375.643 153.101 375.517 152.821 375.385 152.563C374.868 151.555 374.219 150.6 373.908 149.514C373.597 148.427 373.697 147.124 374.514 146.343C374.936 145.942 375.527 145.689 375.775 145.167C376.023 144.645 375.844 144.017 375.965 143.447C376.166 142.482 377.178 141.822 377.294 140.841C377.416 139.797 376.456 138.953 375.517 138.483C374.578 138.014 373.496 137.65 372.927 136.763C372.668 136.368 372.547 135.898 372.431 135.439C371.729 132.754 371.028 130.027 371.091 127.252C371.128 125.675 371.017 124.093 371.022 122.515C371.022 122.025 371.022 121.529 370.875 121.065C370.727 120.606 370.447 120.2 370.141 119.825C369.039 118.464 367.525 117.245 367.272 115.51C367.076 114.159 367.715 112.846 368.258 111.59C368.801 110.335 369.26 108.895 368.728 107.639C368.453 106.996 367.952 106.484 367.562 105.904C366.206 103.889 366.322 101.246 366.67 98.8404C366.908 97.1946 367.224 95.5118 367.187 93.866C366.475 93.9557 365.858 94.0506 365.394 94.1508C362.392 94.7786 362.661 95.0054 360.857 94.4832C360.841 94.5254 360.825 94.5728 360.81 94.615C360.33 95.8864 359.776 97.1788 358.779 98.1019C357.238 99.5262 354.954 99.8111 353.235 101.009C351.663 102.106 350.681 103.825 350.655 105.746C349.173 107.254 347.58 109.422 348.608 111.274C348.83 111.675 349.167 112.023 349.268 112.471C349.484 113.447 348.492 114.381 348.682 115.362C348.782 115.869 349.173 116.254 349.458 116.686C350.792 118.728 349.526 121.418 348.249 123.496C346.973 125.575 345.659 128.218 346.925 130.307C347.696 131.578 349.268 132.253 349.895 133.604C350.623 135.17 349.721 137.133 348.271 138.072C346.815 139.005 344.979 139.116 343.259 138.968C341.534 138.821 339.825 138.436 338.1 138.494C337.52 138.51 336.924 138.583 336.402 138.837C335.526 139.259 334.972 140.124 334.381 140.894C332.466 143.394 329.781 145.288 326.785 146.248C324.11 147.108 320.803 147.535 319.558 150.057C319.009 151.17 319.015 152.462 318.756 153.67C317.88 157.801 313.945 161.251 314.562 165.429C314.758 166.769 315.422 167.987 315.765 169.295C316.182 170.899 316.108 172.582 316.029 174.233C315.96 175.657 315.776 177.261 314.889 178.289C315.602 178.743 316.377 179.07 317.2 179.218C317.3 178.933 317.39 178.643 317.532 178.374C317.754 177.904 318.303 177.498 318.798 177.699Z" fill="#0C46E6" stroke="#0C46E6"/>
<path d="M265.899 175.589C263.341 180.885 261.721 186.635 261.136 192.485C261.078 193.086 261.025 193.698 261.146 194.294C261.225 194.679 261.368 195.043 261.452 195.428C261.558 195.908 261.568 196.399 261.573 196.89C261.647 201.046 261.726 205.203 261.8 209.365C262.317 209.64 262.977 209.334 263.335 208.875C263.694 208.416 263.852 207.836 264.095 207.303C264.754 205.842 266.121 204.723 267.682 204.359C266.981 206.132 266.274 207.904 265.572 209.682C267.323 209.371 269.091 210.12 270.594 211.069C272.097 212.019 273.48 213.19 275.115 213.881C275.621 214.092 276.318 214.208 276.623 213.754C276.808 213.485 276.761 213.132 276.755 212.805C276.734 211.386 277.763 210.014 279.129 209.629C279.483 209.919 279.725 210.336 279.815 210.784C280.474 210.911 281.287 210.742 281.572 210.135C281.693 209.888 281.761 209.534 282.031 209.492C282.183 209.466 282.331 209.56 282.458 209.65C283.919 210.668 285.523 211.918 285.66 213.691C286.52 213.818 287.416 213.939 288.234 213.654C288.471 213.575 288.698 213.459 288.941 213.411C289.526 213.295 290.112 213.57 290.65 213.833C292.185 214.593 293.72 215.353 295.255 216.112C295.324 215.194 295.398 214.276 295.466 213.359C296.579 212.731 297.867 213.891 299.143 213.981C299.702 214.018 300.256 213.849 300.773 213.633C301.839 213.195 302.836 212.583 303.701 211.824C303.98 211.581 304.26 211.312 304.619 211.212C305.014 211.101 305.436 211.217 305.843 211.28C308.67 211.739 311.619 209.302 311.693 206.438C311.703 206.042 311.666 205.641 311.508 205.277C311.181 204.528 310.4 204.09 309.899 203.447C309.187 202.539 309.097 201.194 309.672 200.197C310.042 199.559 310.69 198.926 310.49 198.208C310.421 197.966 310.263 197.765 310.179 197.528C309.852 196.615 310.738 195.75 311.519 195.18C310.991 193.957 309.176 193.988 308.264 193.023C307.393 192.1 307.636 190.57 308.295 189.483C308.955 188.402 309.941 187.542 310.569 186.44C311.793 184.271 313.608 182.541 315.786 181.328C316.641 180.853 317.669 180.289 317.749 179.313C316.704 179.239 315.723 178.864 314.842 178.3C314.657 178.511 314.457 178.711 314.204 178.864C312.885 179.687 311.065 179.181 309.931 178.121C308.797 177.06 308.179 175.567 307.599 174.127C307.436 173.726 307.272 173.289 307.378 172.872C307.494 172.402 307.921 172.038 307.963 171.558C308.058 170.498 306.523 170.282 305.637 169.691C304.107 168.668 304.181 165.824 302.377 165.45C303.574 163.635 304.429 161.604 304.898 159.484C305.014 158.945 305.12 158.381 305.457 157.948C305.858 157.437 306.507 157.205 307.056 156.857C308.232 156.113 308.987 154.615 308.575 153.28C308.164 151.951 306.396 151.144 305.252 151.93C304.872 152.193 304.592 152.584 304.191 152.816C302.883 153.586 301.348 152.304 300.372 151.144C298.958 149.461 297.497 147.662 297.139 145.494C296.273 145.288 295.466 144.85 294.817 144.233C298.89 139.248 299.291 132.032 297.397 125.881C297.234 125.353 297.054 124.821 296.711 124.388C296.358 123.94 295.867 123.628 295.382 123.328C293.166 121.956 290.787 120.532 288.181 120.59C286.63 120.622 285.148 121.26 283.972 122.267C284.119 123.053 285.09 123.576 285.945 123.718C286.926 123.876 288.055 123.882 288.719 124.625C289.484 125.485 289.168 126.82 288.809 127.917C288.028 130.312 287.232 132.739 285.839 134.843C284.452 136.948 282.373 138.721 279.894 139.174C279.488 139.248 279.05 139.301 278.734 139.57C278.433 139.828 278.312 140.24 278.211 140.625C277.631 142.777 277.046 144.929 276.465 147.082C276.354 147.493 276.244 147.92 276.344 148.337C276.576 149.313 277.789 149.677 278.338 150.516C278.797 151.217 278.718 152.141 278.565 152.969C277.81 157.104 275.711 160.982 272.667 163.878C271.881 164.627 271.032 165.307 270.293 166.104C268.621 167.903 267.561 170.255 267.323 172.703C267.281 173.136 267.244 173.616 266.938 173.922C266.754 174.106 266.511 174.185 266.253 174.217C266.258 174.27 266.268 174.317 266.268 174.37C266.289 174.792 266.089 175.198 265.899 175.589Z" fill="#0C46E6" stroke="#0C46E6"/>
<path d="M377.679 146.195C379.726 146.944 381.936 145.816 384.105 145.599C384.537 145.557 384.98 145.552 385.397 145.678C385.998 145.868 386.473 146.317 386.927 146.749C387.934 147.715 388.937 148.68 389.944 149.645C390.561 150.241 391.237 150.859 392.081 151.006C393.046 151.17 394.011 150.658 394.713 149.972C395.414 149.287 395.921 148.432 396.549 147.683C397.081 147.045 397.741 146.385 397.757 145.552C397.778 144.149 396.021 143.363 395.636 142.018C395.267 140.72 396.264 139.475 396.765 138.225C397.609 136.12 397.124 133.53 398.463 131.699C399.424 130.391 401.101 129.816 402.256 128.677C403.164 127.78 403.707 126.588 404.224 125.422C404.989 123.713 405.754 122.004 406.513 120.294C406.767 119.725 407.025 119.15 407.4 118.654C408.55 117.119 410.501 116.618 412.395 116.08L389.422 99.3099C383.461 94.9579 376.081 92.9375 368.722 93.6972C368.174 93.7552 367.657 93.8132 367.182 93.8712C367.219 95.5171 366.908 97.1999 366.665 98.8457C366.317 101.251 366.201 103.894 367.556 105.909C367.947 106.489 368.448 107.001 368.722 107.645C369.255 108.9 368.796 110.346 368.253 111.596C367.709 112.851 367.076 114.159 367.266 115.515C367.514 117.251 369.028 118.469 370.136 119.83C370.442 120.205 370.721 120.606 370.869 121.07C371.017 121.534 371.017 122.035 371.017 122.521C371.012 124.098 371.122 125.68 371.085 127.258C371.017 130.032 371.724 132.76 372.425 135.445C372.547 135.904 372.668 136.368 372.921 136.769C373.491 137.655 374.572 138.014 375.511 138.488C376.45 138.958 377.41 139.807 377.289 140.846C377.178 141.822 376.16 142.487 375.96 143.452C375.844 144.022 376.018 144.645 375.77 145.172C375.754 145.204 375.733 145.235 375.717 145.267C375.828 145.309 375.944 145.346 376.049 145.394C376.603 145.647 377.11 145.99 377.679 146.195Z" fill="#0C46E6" stroke="#0C46E6"/>
<path d="M403.248 135.244C404.25 134.727 405.121 133.989 406.044 133.34C407.911 132.032 410.037 131.087 412.263 130.592C412.527 130.534 412.812 130.481 413.06 130.592C413.461 130.776 413.572 131.325 413.413 131.742C413.255 132.153 412.912 132.459 412.59 132.765C411.493 133.804 410.538 135.002 409.773 136.31C409.462 136.843 409.209 137.592 409.663 138.008C410.275 138.568 411.519 137.877 411.978 138.562C412.263 138.984 411.989 139.67 412.374 140.002C412.68 140.271 413.171 140.092 413.455 139.802C413.74 139.512 413.92 139.127 414.241 138.879C414.653 138.562 415.207 138.531 415.724 138.515C416.489 138.488 417.412 138.546 417.781 139.211C418.087 139.76 417.887 140.551 418.351 140.978C418.715 141.316 419.327 141.216 419.707 140.899C420.086 140.583 420.292 140.108 420.482 139.654C420.762 138.99 421.041 138.288 420.946 137.576C420.83 136.769 420.229 136.02 420.382 135.218C420.566 134.263 421.753 133.825 422.708 134.005C423.663 134.184 424.486 134.775 425.377 135.165C427.002 135.872 428.833 135.898 430.6 135.909C433.121 135.925 435.637 135.941 438.159 135.956C436.149 128.571 432.446 120.759 428.374 118.849C424.723 117.14 413.165 116.639 413.165 116.639L412.4 116.08C410.507 116.618 408.555 117.119 407.405 118.654C407.03 119.155 406.772 119.73 406.519 120.294C405.754 122.004 404.989 123.713 404.229 125.422C403.707 126.588 403.169 127.78 402.262 128.677C401.106 129.816 399.429 130.391 398.469 131.699C397.947 132.411 397.699 133.245 397.546 134.115C398.353 134.638 399.081 135.36 399.999 135.666C401.054 136.03 402.246 135.756 403.248 135.244Z" fill="#0C46E6" stroke="#0C46E6"/>
<path d="M397.646 150.284C398.036 150.173 398.168 149.661 398.522 149.461C398.986 149.197 399.556 149.587 399.888 150.009C400.22 150.431 400.537 150.954 401.064 151.043C401.391 151.101 401.718 150.969 402.019 150.838C404.509 149.767 406.856 148.358 408.977 146.66C409.663 146.111 410.333 145.531 411.124 145.162C411.915 144.792 412.875 144.666 413.661 145.051C414.447 145.436 414.948 146.438 414.584 147.235C414.199 148.084 412.97 148.712 413.318 149.577C413.392 149.751 413.524 149.899 413.598 150.073C413.946 150.89 412.928 151.56 412.195 152.061C412.005 152.193 411.81 152.352 411.757 152.578C411.609 153.206 412.532 153.465 413.176 153.422C413.071 154.335 413.039 155.427 413.762 155.991C414.521 156.587 415.64 156.223 416.478 155.738C417.649 155.063 418.704 154.193 419.596 153.174C420.028 152.679 420.435 152.141 420.967 151.75C422.429 150.69 424.428 151.017 426.227 150.859C428.247 150.679 430.199 149.804 431.676 148.411C432.842 147.314 434.081 145.773 435.648 146.106C436.371 146.259 436.935 146.802 437.489 147.287C438.117 147.841 438.782 148.342 439.473 148.812C439.546 148.316 439.605 147.841 439.652 147.388C439.942 144.629 439.346 140.366 438.143 135.946C435.622 135.93 433.106 135.914 430.584 135.898C428.812 135.888 426.981 135.861 425.362 135.155C424.47 134.764 423.652 134.173 422.692 133.994C421.738 133.815 420.545 134.253 420.366 135.207C420.213 136.009 420.814 136.758 420.93 137.565C421.031 138.277 420.746 138.979 420.466 139.644C420.276 140.103 420.071 140.572 419.691 140.889C419.311 141.205 418.699 141.3 418.335 140.968C417.871 140.54 418.071 139.749 417.765 139.201C417.396 138.531 416.473 138.473 415.708 138.504C415.191 138.52 414.637 138.552 414.226 138.868C413.904 139.116 413.725 139.501 413.44 139.791C413.155 140.082 412.664 140.261 412.358 139.992C411.973 139.654 412.248 138.974 411.963 138.552C411.504 137.866 410.254 138.557 409.647 137.998C409.193 137.581 409.446 136.832 409.758 136.299C410.523 134.991 411.477 133.799 412.575 132.754C412.896 132.448 413.239 132.142 413.398 131.731C413.556 131.32 413.445 130.766 413.044 130.581C412.796 130.47 412.511 130.518 412.248 130.581C410.021 131.082 407.896 132.021 406.028 133.329C405.105 133.978 404.24 134.717 403.232 135.234C402.23 135.751 401.038 136.02 399.967 135.661C399.054 135.355 398.321 134.627 397.514 134.11C397.271 135.471 397.25 136.932 396.739 138.219C396.238 139.475 395.241 140.715 395.61 142.012C395.995 143.363 397.751 144.143 397.73 145.547C397.715 146.38 397.06 147.034 396.522 147.678C396.216 148.047 395.937 148.437 395.652 148.822C396 149.165 396.348 149.508 396.702 149.851C396.971 150.11 397.298 150.379 397.646 150.284Z" fill="#0C46E6" stroke="#0C46E6"/>
<path d="M434.403 163.63C434.161 163.514 433.918 163.403 433.675 163.282C433.301 163.086 432.91 162.875 432.488 162.881C432.198 162.886 431.924 162.992 431.644 163.076C430.663 163.382 429.518 163.793 428.564 163.408C427.366 162.923 426.253 164.184 425.377 165.128C423.362 167.301 420.345 168.435 417.386 168.356C414.426 168.277 411.546 167.038 409.299 165.112C408.492 164.421 407.537 163.577 406.508 163.857C406.128 163.962 405.807 164.21 405.506 164.463C404.425 165.381 403.48 166.463 402.71 167.655C402.441 167.729 402.167 167.734 401.903 167.692C402.077 168.815 402.499 169.881 403.248 170.725C404.251 171.854 405.701 172.455 407.11 172.988C409.731 173.98 412.438 174.866 414.727 176.485C416.837 177.983 418.514 180.046 420.382 181.84C427.097 175.182 431.512 169.037 434.403 163.63Z" fill="#0C46E6" stroke="#0C46E6"/>
<path d="M419.469 182.742C419.78 182.441 420.081 182.146 420.382 181.845C418.514 180.051 416.842 177.989 414.727 176.491C412.437 174.871 409.731 173.98 407.11 172.993C405.944 172.555 404.757 172.06 403.813 171.268C403.67 171.896 403.565 172.529 403.491 173.167C403.443 173.595 403.412 174.038 403.559 174.444C403.739 174.934 404.145 175.298 404.514 175.673C405.3 176.475 405.949 177.414 406.419 178.437C406.582 178.796 406.724 179.202 406.598 179.571C406.498 179.856 406.26 180.062 406.065 180.294C405.084 181.444 405.242 183.148 405.458 184.641C404.155 185.152 402.721 185.332 401.333 185.163C400.611 185.865 400.98 187.109 401.608 187.89C402.235 188.676 403.1 189.336 403.364 190.306C403.47 190.681 403.47 191.076 403.544 191.461C403.639 191.963 403.85 192.437 404.161 192.844C404.915 193.835 406.165 194.331 407.4 194.521C408.091 194.627 408.787 194.653 409.489 194.674C409.642 194.136 409.779 193.714 409.911 193.466C411.076 191.256 414.985 185.321 419.469 182.742Z" fill="#0C46E6" stroke="#0C46E6"/>
<path d="M409.483 194.674C408.787 194.653 408.086 194.632 407.394 194.521C406.16 194.331 404.91 193.835 404.156 192.844C403.85 192.437 403.633 191.963 403.538 191.461C403.464 191.076 403.464 190.681 403.359 190.306C403.095 189.336 402.23 188.676 401.602 187.89C400.975 187.104 400.605 185.859 401.328 185.163C402.715 185.332 404.15 185.152 405.453 184.641C405.242 183.143 405.084 181.444 406.06 180.294C406.255 180.062 406.498 179.856 406.593 179.571C406.719 179.202 406.577 178.791 406.413 178.437C405.944 177.414 405.295 176.475 404.509 175.673C404.145 175.298 403.734 174.94 403.554 174.444C403.406 174.038 403.438 173.595 403.486 173.167C403.554 172.529 403.665 171.896 403.807 171.268C403.607 171.099 403.417 170.925 403.243 170.73C402.494 169.886 402.072 168.815 401.898 167.697C401.048 167.56 400.257 166.89 399.703 166.178C398.975 165.244 398.353 164.131 397.282 163.63C396.797 163.403 396.259 163.324 395.731 163.213C394.075 162.87 392.476 162.216 391.052 161.303C390.118 160.707 389.19 159.974 388.082 159.916C386.42 159.826 385.112 161.272 384.194 162.654C383.276 164.036 382.322 165.619 380.723 166.072C380.264 166.204 379.774 166.23 379.325 166.399C378.408 166.747 377.827 167.634 377.316 168.467C376.804 169.301 376.234 170.192 375.327 170.561C374.42 170.931 373.117 170.44 373.074 169.459C373.053 168.979 373.328 168.541 373.459 168.082C373.934 166.431 372.594 164.854 371.323 163.693C370.184 162.654 369.007 161.657 367.81 160.681C367.077 161.377 366.37 162.089 365.737 162.733C364.355 164.147 362.972 165.56 361.59 166.974C361.2 167.37 360.799 167.776 360.293 168.003C359.581 168.319 358.773 168.235 357.998 168.304C356.062 168.472 354.358 169.591 352.76 170.688C351.9 171.279 350.919 171.901 349.895 171.706C349.025 171.543 348.381 170.836 347.717 170.25C347.052 169.665 346.145 169.153 345.317 169.475C345.069 169.57 344.837 169.744 344.567 169.754C343.797 169.781 343.592 168.599 342.89 168.293C342.463 168.108 341.977 168.293 341.55 168.483C340.785 168.821 340.015 169.185 339.419 169.77C338.823 170.356 338.427 171.21 338.601 172.028C338.881 173.32 340.458 174.127 340.495 175.451C340.506 175.916 340.321 176.359 340.121 176.781C339.087 178.959 337.657 180.948 335.927 182.631C335.621 182.926 335.288 183.227 334.882 183.354C334.46 183.485 334.001 183.427 333.558 183.406C331.322 183.306 329.064 184.419 327.782 186.26C327.46 186.719 327.144 187.262 326.606 187.41C326.294 187.495 325.962 187.426 325.651 187.347C323.725 186.846 321.953 185.78 320.613 184.314C320.434 184.118 320.26 183.907 320.186 183.649C319.933 182.721 321.162 181.808 320.798 180.922C320.602 180.452 320.043 180.252 319.753 179.83C319.294 179.165 319.532 178.005 318.783 177.704C318.287 177.503 317.738 177.91 317.49 178.384C317.348 178.653 317.258 178.944 317.158 179.228C317.353 179.265 317.553 179.297 317.754 179.313C317.675 180.289 316.646 180.853 315.792 181.328C313.613 182.541 311.798 184.271 310.574 186.44C309.952 187.542 308.96 188.402 308.301 189.483C307.641 190.57 307.399 192.1 308.269 193.023C309.182 193.994 311.002 193.962 311.524 195.18C310.738 195.755 309.857 196.615 310.184 197.528C310.268 197.765 310.427 197.966 310.495 198.208C310.696 198.921 310.052 199.554 309.678 200.197C309.097 201.194 309.192 202.539 309.904 203.447C310.406 204.09 311.186 204.528 311.513 205.277C311.672 205.636 311.709 206.042 311.698 206.438C311.666 207.63 311.134 208.743 310.327 209.608C311.076 209.903 311.83 210.178 312.605 210.41C311.323 211.249 310.569 212.826 310.722 214.35C311.608 214.408 312.505 214.276 313.333 213.96C313.792 215.047 313.001 216.46 311.835 216.634C311.403 217.299 312.384 218.059 312.384 218.85C312.384 219.156 312.236 219.436 312.099 219.71C311.508 220.907 311.139 222.384 311.825 223.529C312.632 224.874 314.71 225.407 314.868 226.968C314.911 227.401 314.784 227.828 314.689 228.256C314.04 231.12 314.795 234.343 313.323 236.886C313.782 237.239 314.467 237.06 314.932 236.712C315.396 236.364 315.739 235.878 316.214 235.541C316.646 235.235 317.158 235.076 317.654 234.892C321.863 233.367 325.276 230.276 328.858 227.591C330.33 226.488 331.944 225.407 333.78 225.27C334.793 225.196 335.8 225.412 336.792 225.634C337.309 225.75 337.842 225.871 338.274 226.182C338.702 226.494 339.002 227.048 338.849 227.559C338.675 228.134 338.016 228.451 337.821 229.021C337.557 229.812 338.306 230.556 339.007 231.004C339.952 231.605 341.149 232.101 342.151 231.605C342.426 231.468 342.663 231.268 342.922 231.094C344.705 229.912 347.142 230.482 349.004 231.537C350.866 232.592 352.501 234.085 354.511 234.813C355.73 235.256 357.033 235.393 358.32 235.53C360.171 234.586 362.503 236.137 363.991 237.593C364.734 238.315 365.457 239.101 365.837 240.067C366.116 240.774 366.206 241.554 366.596 242.208C366.987 242.862 367.847 243.343 368.506 242.963C368.78 242.804 368.96 242.53 369.197 242.319C369.973 241.633 371.175 241.76 372.135 242.145C373.095 242.53 373.982 243.137 375 243.311C376.282 243.532 377.701 243.063 378.84 243.691C379.563 244.092 380.006 244.851 380.665 245.352C381.43 245.933 382.601 246.334 382.628 247.299C382.649 248.117 381.778 248.623 381.093 249.071C379.71 249.984 378.655 251.382 378.165 252.964C378.059 253.297 377.98 253.65 378.038 253.993C378.144 254.626 378.692 255.233 378.444 255.824C378.086 256.683 376.667 256.267 375.981 256.894C375.617 257.227 375.554 257.765 375.517 258.255C375.427 259.353 375.337 260.455 375.253 261.552C375.221 261.927 375.2 262.328 375.38 262.655C375.712 263.256 376.53 263.32 377.184 263.531C378.539 263.968 379.494 265.408 379.368 266.827C379.331 267.239 379.215 267.65 379.252 268.062C379.352 269.185 380.491 269.882 381.499 270.388C382.58 270.926 383.667 271.454 384.748 271.981C386.167 269.877 388.868 268.152 389.876 266.105C391.242 263.341 391.427 250.527 392.012 248.317C392.598 246.107 394.354 244.445 392.988 243.158C391.622 241.865 393.199 221.757 392.888 212.652C405.78 210.763 408.27 198.889 409.483 194.674Z" fill="#0C46E6" stroke="#0C46E6"/>
<path d="M234.554 272.356C234.992 273.437 236.511 273.411 237.661 273.195C237.107 274.239 236.554 275.289 236 276.333C238.447 276.228 240.768 277.33 242.973 278.406C245.147 279.467 247.32 280.532 249.488 281.593C252.854 283.238 256.314 284.911 260.049 285.222C260.054 284.589 260.065 283.961 260.07 283.328C261.415 283.687 262.592 282.373 263.256 281.15C263.921 279.92 264.496 278.565 265.62 277.737C266.764 276.887 268.257 276.745 269.66 276.497C271.538 276.17 273.379 275.616 275.131 274.846C274.561 275.431 275.653 276.344 276.407 276.038C277.162 275.727 277.547 274.909 278.127 274.339C279.841 272.657 282.664 273.469 285.059 273.274C286.267 273.174 287.496 272.788 288.656 273.131C289.564 273.395 290.281 274.07 291.104 274.529C291.927 274.993 293.04 275.215 293.763 274.603C294.237 274.197 294.411 273.543 294.796 273.047C296.036 271.459 299.206 271.781 299.623 269.813C298.653 269.608 298.146 268.442 298.315 267.461C298.479 266.485 299.127 265.667 299.745 264.892C298.995 264.76 298.22 264.617 297.592 264.195C296.959 263.768 296.511 262.982 296.717 262.249C296.843 261.806 297.181 261.457 297.508 261.13C298.515 260.123 299.523 259.11 300.531 258.102C300.763 257.87 301.005 257.612 301.037 257.29C301.063 257.037 300.953 256.794 300.831 256.573C300.082 255.201 298.774 254.194 298.03 252.822C297.286 251.445 297.423 249.325 298.89 248.781C298.642 247.853 299.08 246.724 299.818 246.107C300.557 245.49 301.543 245.231 302.503 245.189C303.659 245.136 305.21 245.104 305.458 243.981C305.806 242.419 302.889 241.417 303.442 239.914C303.653 239.339 304.323 239.033 304.54 238.463C304.983 237.292 303.268 236.11 303.701 234.939C304.049 233.995 305.547 234.079 306.18 234.855C306.397 235.124 306.565 235.451 306.871 235.604C307.605 235.973 308.369 235.034 308.385 234.211C308.401 233.394 308.053 232.565 308.253 231.769C308.702 231.447 309.303 231.932 309.525 232.439C309.746 232.945 309.878 233.568 310.374 233.816C310.664 233.958 311.007 233.926 311.329 233.879C312.368 233.721 313.354 233.425 314.309 233.03C314.415 231.442 314.357 229.791 314.705 228.245C314.8 227.823 314.926 227.39 314.884 226.958C314.726 225.396 312.648 224.864 311.84 223.519C311.155 222.379 311.529 220.897 312.115 219.699C312.252 219.425 312.4 219.14 312.4 218.839C312.4 218.048 311.418 217.289 311.851 216.624C313.017 216.45 313.808 215.036 313.349 213.949C312.521 214.266 311.624 214.398 310.738 214.34C310.59 212.815 311.345 211.238 312.621 210.399C311.851 210.167 311.091 209.893 310.342 209.597C309.203 210.816 307.515 211.544 305.864 211.275C305.458 211.212 305.036 211.096 304.64 211.206C304.281 211.307 304.002 211.576 303.722 211.818C302.852 212.578 301.86 213.195 300.794 213.628C300.277 213.839 299.723 214.013 299.164 213.976C297.888 213.886 296.601 212.726 295.488 213.353C295.419 214.271 295.345 215.189 295.277 216.107C293.741 215.347 292.206 214.588 290.671 213.828C290.133 213.564 289.548 213.29 288.962 213.406C288.72 213.454 288.493 213.57 288.255 213.649C287.432 213.928 286.536 213.807 285.681 213.686C285.539 211.913 283.94 210.658 282.479 209.645C282.352 209.555 282.205 209.46 282.052 209.487C281.777 209.534 281.709 209.882 281.593 210.13C281.303 210.737 280.496 210.906 279.836 210.779C279.752 210.331 279.504 209.914 279.15 209.624C277.784 210.009 276.755 211.375 276.777 212.799C276.782 213.126 276.829 213.48 276.645 213.749C276.339 214.203 275.642 214.092 275.136 213.876C273.495 213.185 272.119 212.013 270.615 211.064C269.112 210.114 267.345 209.365 265.593 209.677C266.295 207.904 267.002 206.132 267.703 204.354C266.142 204.718 264.776 205.842 264.116 207.297C263.905 207.762 263.752 208.252 263.483 208.68C263.198 211.444 262.375 214.15 261.078 216.603C260.598 217.505 260.049 218.402 259.875 219.409C259.711 220.369 259.907 221.372 259.701 222.321C259.595 222.801 259.39 223.25 259.253 223.719C259.115 224.178 259.042 224.647 258.968 225.117C258.757 226.457 258.008 228.161 258.435 229.448C258.82 230.608 258.467 231.943 257.681 232.882C256.895 233.821 255.729 234.391 254.526 234.612C253.967 234.718 253.387 234.755 252.859 234.976C251.53 235.53 250.923 237.065 250.643 238.484C250.364 239.898 250.243 241.422 249.383 242.578C248.591 243.638 247.299 244.197 246.017 244.535C245.411 244.693 244.783 244.814 244.245 245.131C243.3 245.679 242.736 246.745 241.765 247.236C241.322 247.462 240.816 247.552 240.367 247.768C239.919 247.985 239.502 248.391 239.502 248.892C239.502 249.288 239.761 249.625 239.898 249.995C240.199 250.802 239.898 251.73 239.392 252.426C238.885 253.123 238.189 253.661 237.577 254.267C236.559 255.275 235.757 256.483 235.018 257.707C234.143 259.147 233.33 260.656 232.988 262.301C232.645 263.947 232.835 265.772 233.826 267.133C234.269 267.735 234.892 268.452 234.56 269.117C234.475 269.106 234.396 269.096 234.317 269.085C234.502 269.523 234.612 269.982 234.596 270.478C234.538 271.111 234.317 271.77 234.554 272.356Z" fill="#0C46E6" stroke="#0C46E6"/>
<path d="M262.808 290.36C263.99 290.006 265.256 290.223 266.464 290.45C268.932 290.903 271.396 291.357 273.865 291.811C274.54 291.937 275.236 292.069 275.822 292.428C276.998 293.156 277.462 294.606 277.837 295.941C278.586 295.361 279.335 294.786 280.079 294.205C280.685 294.949 281.055 295.883 281.107 296.843C281.192 297.349 282.036 297.149 282.242 296.68C282.447 296.21 282.395 295.625 282.727 295.239C282.943 294.986 283.286 294.87 283.608 294.775C284.7 294.438 285.792 294.1 286.879 293.757C287.606 293.53 288.361 293.303 289.12 293.383C289.843 293.456 290.518 293.805 291.246 293.836C292.586 293.894 293.715 292.887 294.997 292.486C296.965 291.874 299.307 292.945 300.135 294.833C300.04 295.777 299.95 296.727 299.855 297.671C300.779 297.328 301.681 298.415 301.681 299.402C301.681 300.388 301.164 301.295 300.953 302.255C300.246 305.505 303.464 308.612 306.782 308.839C307.446 308.886 308.285 308.955 308.507 309.588C308.786 310.395 307.747 310.965 307.183 311.608C305.595 313.402 307.689 316.604 306.244 318.508C307.415 320.333 308.591 322.158 309.762 323.984C310.052 324.432 310.348 324.891 310.749 325.239C312.257 326.558 314.578 325.978 316.472 325.318C316.609 324.569 316.752 323.825 316.889 323.076C322.982 323.345 328.352 319.336 334.223 317.696C340.031 316.071 346.398 316.773 351.984 314.504C352.844 314.156 353.694 313.729 354.342 313.064C356.885 310.469 355.466 305.447 358.272 303.131C359.048 302.493 360.092 302.124 360.593 301.253C361.015 300.509 361.327 299.523 360.973 298.747C359.222 294.923 363.5 293.504 365.842 294.464C366.037 293.81 366.227 293.15 366.422 292.496C366.095 292.027 366.396 291.594 366.876 291.278C367.351 290.961 367.947 290.708 368.132 290.165C368.311 289.637 368.031 288.999 368.327 288.529C368.459 288.318 368.68 288.192 368.891 288.06C370.041 287.343 371.102 286.198 371.054 284.842C370.975 282.637 368.058 281.102 368.459 278.929C369.25 278.929 370.036 278.929 370.827 278.929C371.07 277.103 369.651 275.505 368.237 274.334C367.852 274.012 367.425 273.632 367.419 273.137C367.414 272.14 368.854 272.002 369.646 271.401C370.321 270.889 370.832 269.819 371.65 270.04C371.903 270.109 372.109 270.304 372.357 270.394C373.354 270.747 374.019 269.37 374.905 268.785C375.517 268.384 376.298 268.368 377.031 268.326C377.78 268.283 378.529 268.194 379.267 268.062V268.057C379.23 267.645 379.347 267.234 379.383 266.822C379.51 265.403 378.555 263.963 377.2 263.525C376.545 263.314 375.728 263.251 375.395 262.65C375.211 262.323 375.237 261.922 375.269 261.547C375.359 260.45 375.448 259.347 375.533 258.25C375.57 257.76 375.633 257.221 375.997 256.889C376.683 256.261 378.102 256.678 378.46 255.818C378.708 255.227 378.16 254.621 378.054 253.988C377.996 253.645 378.075 253.291 378.181 252.959C378.671 251.377 379.726 249.973 381.108 249.066C381.794 248.618 382.659 248.111 382.644 247.294C382.622 246.334 381.451 245.927 380.681 245.347C380.022 244.851 379.579 244.086 378.856 243.685C377.717 243.058 376.298 243.527 375.016 243.306C373.998 243.132 373.111 242.525 372.151 242.14C371.191 241.755 369.988 241.628 369.213 242.314C368.976 242.525 368.796 242.799 368.522 242.957C367.868 243.337 367.003 242.857 366.612 242.203C366.222 241.549 366.132 240.768 365.853 240.061C365.468 239.096 364.745 238.315 364.006 237.587C362.519 236.137 360.187 234.581 358.336 235.525C357.049 235.388 355.746 235.25 354.527 234.807C352.512 234.079 350.882 232.587 349.02 231.531C347.158 230.476 344.72 229.907 342.937 231.088C342.679 231.257 342.442 231.463 342.167 231.6C341.165 232.096 339.968 231.595 339.023 230.999C338.322 230.55 337.567 229.807 337.836 229.015C338.026 228.446 338.691 228.129 338.865 227.554C339.018 227.048 338.717 226.488 338.29 226.177C337.863 225.866 337.33 225.745 336.808 225.629C335.816 225.412 334.809 225.191 333.796 225.265C331.96 225.402 330.346 226.483 328.874 227.586C325.292 230.271 321.879 233.362 317.67 234.886C317.174 235.066 316.657 235.229 316.229 235.535C315.755 235.868 315.412 236.358 314.948 236.706C314.483 237.055 313.798 237.234 313.339 236.88C314.014 235.709 314.22 234.391 314.309 233.03C313.354 233.42 312.368 233.721 311.329 233.879C311.007 233.926 310.664 233.958 310.374 233.816C309.878 233.573 309.746 232.945 309.525 232.439C309.303 231.932 308.702 231.442 308.253 231.769C308.053 232.565 308.401 233.388 308.385 234.211C308.369 235.029 307.605 235.973 306.871 235.604C306.565 235.451 306.397 235.119 306.18 234.855C305.547 234.074 304.049 233.995 303.701 234.939C303.268 236.11 304.983 237.292 304.54 238.463C304.323 239.038 303.653 239.339 303.442 239.914C302.889 241.417 305.806 242.419 305.458 243.981C305.21 245.11 303.653 245.141 302.503 245.189C301.543 245.231 300.557 245.49 299.818 246.107C299.08 246.724 298.642 247.848 298.89 248.781C297.424 249.325 297.286 251.45 298.03 252.822C298.774 254.199 300.077 255.201 300.831 256.573C300.953 256.794 301.063 257.037 301.037 257.29C301.005 257.617 300.763 257.876 300.531 258.102C299.523 259.11 298.515 260.123 297.508 261.13C297.181 261.457 296.843 261.806 296.717 262.249C296.511 262.982 296.959 263.768 297.592 264.195C298.225 264.622 298.996 264.76 299.745 264.892C299.122 265.662 298.479 266.479 298.315 267.461C298.151 268.436 298.653 269.607 299.623 269.813C299.207 271.781 296.036 271.459 294.797 273.047C294.411 273.537 294.243 274.197 293.763 274.603C293.04 275.215 291.927 274.993 291.104 274.529C290.281 274.065 289.558 273.395 288.656 273.131C287.496 272.788 286.261 273.173 285.059 273.274C282.664 273.474 279.841 272.662 278.127 274.339C277.547 274.909 277.162 275.727 276.407 276.038C275.653 276.349 274.561 275.431 275.131 274.846C273.385 275.611 271.544 276.17 269.66 276.497C268.257 276.74 266.764 276.887 265.62 277.736C264.496 278.57 263.921 279.92 263.256 281.149C262.592 282.373 261.415 283.687 260.07 283.328C260.065 283.961 260.054 284.589 260.049 285.222C259.928 285.211 259.806 285.196 259.685 285.185C259.69 285.222 259.696 285.259 259.701 285.296C259.754 285.734 259.785 286.203 259.559 286.583C259.332 286.963 258.899 287.163 258.567 287.459C257.069 288.814 258.203 291.373 258.076 293.367C258.567 293.114 259.042 292.834 259.49 292.507C260.566 291.737 261.542 290.745 262.808 290.36Z" fill="#0C46E6" stroke="#0C46E6"/>
<path d="M383.872 274.35C383.925 273.485 384.268 272.704 384.764 271.965C383.677 271.438 382.591 270.916 381.514 270.372C380.507 269.866 379.367 269.175 379.267 268.051C378.529 268.183 377.78 268.273 377.031 268.315C376.297 268.357 375.522 268.368 374.905 268.774C374.018 269.354 373.359 270.736 372.357 270.383C372.109 270.293 371.903 270.098 371.65 270.03C370.832 269.808 370.321 270.879 369.645 271.39C368.854 271.992 367.414 272.134 367.419 273.126C367.419 273.627 367.852 274.007 368.237 274.323C369.651 275.5 371.07 277.098 370.827 278.918C370.036 278.918 369.25 278.918 368.458 278.918C368.058 281.091 370.975 282.627 371.054 284.832C371.101 286.187 370.041 287.332 368.891 288.049C368.68 288.181 368.458 288.313 368.327 288.519C368.031 288.988 368.311 289.627 368.131 290.154C367.947 290.692 367.351 290.951 366.876 291.267C366.401 291.584 366.095 292.016 366.422 292.486C366.227 293.14 366.037 293.799 365.842 294.453C363.5 293.493 359.222 294.912 360.973 298.737C361.305 299.454 361.057 300.356 360.683 301.074C360.978 301.311 361.242 301.585 361.411 301.928C361.812 302.741 361.601 303.759 362.012 304.566C362.513 305.558 363.737 305.9 364.819 306.154C366.375 306.518 367.92 306.913 369.461 307.325C371.724 301.401 377.795 299.692 380.185 296.384C380.771 291.779 384.585 285.243 384.585 285.243C384.585 285.243 383.677 277.668 383.872 274.35Z" fill="#0C46E6" stroke="#0C46E6"/>
<path d="M369.461 307.335C367.921 306.924 366.37 306.528 364.819 306.164C363.737 305.911 362.513 305.568 362.012 304.576C361.601 303.769 361.807 302.751 361.411 301.939C361.242 301.601 360.984 301.327 360.683 301.084C360.651 301.142 360.625 301.2 360.593 301.253C360.097 302.123 359.048 302.493 358.272 303.131C355.466 305.447 356.89 310.469 354.342 313.064C353.693 313.729 352.844 314.156 351.984 314.504C346.398 316.778 340.031 316.076 334.223 317.696C332.087 318.292 330.019 319.204 327.956 320.106C328.684 321.272 329.523 322.417 330.82 322.739C331.875 322.997 333.041 322.644 334.038 323.076C334.16 323.129 334.281 323.198 334.35 323.309C334.503 323.567 334.307 323.889 334.091 324.1C332.983 325.192 331.343 325.503 329.808 325.719C329.37 325.783 328.927 325.841 328.531 326.036C327.914 326.336 327.497 326.933 327.17 327.534C326.648 328.505 326.315 329.57 326.157 330.662C330.377 327.961 335.188 325.044 337.504 325.044C340.817 325.044 349.484 325.313 356.505 324.205C358.652 314.99 368.791 316.651 368.791 316.651C368.791 316.651 368.986 315.359 368.596 312.046C368.633 310.221 368.949 308.67 369.461 307.335Z" fill="#0C46E6" stroke="#0C46E6"/>
<path d="M221.298 339.598C221.514 339.334 221.646 339.007 221.762 338.686C222.221 337.356 222.395 335.937 222.859 334.613C223.323 333.284 224.178 331.986 225.497 331.496C226.003 331.306 226.599 331.227 226.953 330.81C227.501 330.166 227.137 329.185 227.259 328.352C227.412 327.333 228.282 326.6 229.1 325.972C233.045 322.955 237.155 320.149 241.401 317.569C242.446 316.936 243.543 316.271 244.171 315.227C244.646 314.436 244.809 313.491 245.162 312.637C245.516 311.782 246.181 310.944 247.104 310.838C246.381 310.089 246.645 308.828 247.183 307.931C247.716 307.035 248.475 306.228 248.665 305.204C248.75 304.74 248.718 304.234 248.934 303.812C249.267 303.163 250.095 302.894 250.443 302.25C250.675 301.823 250.649 301.306 250.712 300.821C251.018 298.362 253.513 296.838 255.824 295.946C256.356 295.741 256.916 295.535 257.332 295.139C259.3 293.272 256.552 289.268 258.567 287.448C258.894 287.153 259.332 286.952 259.558 286.572C259.785 286.193 259.754 285.723 259.701 285.285C259.696 285.248 259.69 285.211 259.685 285.174C256.093 284.789 252.743 283.175 249.488 281.587C247.315 280.527 245.141 279.461 242.973 278.401C240.768 277.325 238.453 276.223 236 276.328C236.553 275.284 237.107 274.234 237.661 273.189C236.517 273.406 234.992 273.432 234.554 272.351C234.317 271.765 234.538 271.106 234.559 270.473C234.575 269.977 234.464 269.518 234.28 269.08C232.845 268.88 231.574 268.674 230.107 268.642C228.298 268.605 226.494 268.415 224.716 268.072C224.748 266.733 225.845 265.704 226.726 264.696C227.607 263.689 228.351 262.196 227.628 261.067C226.109 261.304 225.017 262.576 223.84 263.567C222.669 264.559 220.918 265.324 219.657 264.448C219.309 264.206 219.04 263.858 218.676 263.631C217.711 263.014 216.434 263.425 215.426 263.974C214.424 264.522 213.406 265.224 212.261 265.166C211.523 265.129 210.842 264.77 210.188 264.417C207.957 263.214 205.726 262.011 203.494 260.814C202.851 260.466 202.186 260.112 201.463 260.023C199.875 259.822 198.404 260.903 196.81 261.03C195.951 261.099 195.07 260.888 194.236 261.104C193.107 261.399 192.332 262.407 191.667 263.362C190.649 264.823 189.557 266.421 187.859 266.965C185.97 267.566 183.987 266.669 182.156 265.852C182.43 268.305 181.307 269.956 181.307 269.956L180.721 277.325C180.721 277.325 179.16 280.458 177.409 283.407C175.652 286.356 176.237 285.987 175.652 291.331C175.066 296.674 178.77 298.331 178.77 298.331L177.013 313.075C177.013 313.075 191.05 314.731 193.392 314.916C195.734 315.1 202.36 316.572 202.36 316.572L205.478 335.368C205.478 335.368 205.478 336.106 211.523 334.814C217.568 333.521 218.739 337.024 218.934 339.973C218.945 340.173 218.94 340.416 218.913 340.695C219.003 340.669 219.093 340.637 219.182 340.611C219.963 340.4 220.797 340.21 221.298 339.598Z" fill="#0C46E6" stroke="#0C46E6"/>
<path d="M334.344 323.314C334.276 323.203 334.154 323.134 334.033 323.082C333.036 322.649 331.87 323.008 330.815 322.744C329.517 322.422 328.684 321.278 327.951 320.112C324.343 321.694 320.761 323.25 316.883 323.082C316.746 323.831 316.604 324.575 316.467 325.324C314.573 325.978 312.252 326.563 310.743 325.244C310.342 324.891 310.047 324.437 309.757 323.989C308.586 322.164 307.409 320.339 306.238 318.513C307.684 316.609 305.589 313.407 307.177 311.613C307.742 310.975 308.781 310.4 308.501 309.593C308.285 308.96 307.441 308.892 306.776 308.844C303.458 308.617 300.246 305.51 300.947 302.261C301.158 301.295 301.675 300.393 301.675 299.407C301.675 298.42 300.773 297.328 299.85 297.677C299.945 296.732 300.035 295.783 300.13 294.839C299.301 292.95 296.959 291.879 294.992 292.491C293.71 292.887 292.581 293.9 291.241 293.842C290.518 293.81 289.838 293.462 289.115 293.388C288.355 293.309 287.601 293.541 286.873 293.762C285.781 294.1 284.689 294.438 283.603 294.781C283.281 294.881 282.943 294.992 282.722 295.245C282.389 295.635 282.442 296.221 282.236 296.685C282.031 297.154 281.187 297.355 281.102 296.848C281.049 295.888 280.685 294.955 280.073 294.211C279.324 294.791 278.575 295.366 277.832 295.946C277.457 294.617 276.993 293.161 275.816 292.433C275.231 292.074 274.535 291.942 273.859 291.816C271.391 291.362 268.927 290.909 266.458 290.455C265.245 290.233 263.979 290.012 262.803 290.365C261.531 290.75 260.555 291.742 259.479 292.517C259.031 292.839 258.556 293.124 258.066 293.377C258.023 294.063 257.828 294.68 257.327 295.16C256.91 295.556 256.356 295.756 255.818 295.967C253.508 296.859 251.013 298.383 250.707 300.842C250.649 301.327 250.67 301.839 250.438 302.271C250.09 302.915 249.261 303.184 248.929 303.833C248.713 304.255 248.75 304.756 248.66 305.225C248.47 306.249 247.71 307.056 247.178 307.953C246.645 308.849 246.376 310.11 247.099 310.859C246.181 310.959 245.511 311.803 245.157 312.658C244.804 313.513 244.64 314.452 244.166 315.248C243.538 316.298 242.441 316.957 241.396 317.59C239.117 318.972 236.886 320.423 234.691 321.937C235.578 322.195 236.469 322.401 237.371 322.544C238.089 322.317 238.822 322.148 239.566 322.037C239.734 322.011 239.919 321.995 240.062 322.085C240.204 322.18 240.267 322.359 240.383 322.486C240.563 322.681 240.848 322.723 241.106 322.755C241.982 322.86 242.857 322.923 243.738 322.95C243.96 322.955 244.213 322.95 244.366 322.781C244.582 322.544 244.45 322.153 244.566 321.858C244.725 321.457 245.263 321.373 245.69 321.431C246.798 321.578 247.768 322.206 248.755 322.723C249.741 323.245 250.87 323.683 251.952 323.414C252.273 323.335 252.574 323.192 252.896 323.129C254.584 322.786 255.982 324.474 257.665 324.849C258.408 325.018 259.332 324.986 259.748 325.624C260.06 326.099 260.054 326.896 260.608 327.022C260.972 327.101 261.294 326.801 261.621 326.611C262.249 326.241 263.029 326.294 263.752 326.352C265.277 326.479 266.807 326.605 268.331 326.732C268.695 326.764 269.101 326.811 269.339 327.091C269.528 327.318 269.565 327.639 269.75 327.871C270.135 328.346 270.911 328.172 271.449 328.452C272.272 328.879 272.298 330.208 273.047 330.752C273.627 332.197 273.337 333.822 273.353 335.383C273.379 337.667 274.181 340.036 275.933 341.492C276.318 341.808 276.745 342.088 277.056 342.473C277.367 342.858 277.552 343.407 277.357 343.866C277.051 344.578 275.943 344.9 276.017 345.67C278.475 346.292 281.028 346.561 283.566 346.456C284.104 346.435 284.663 346.403 285.153 346.619C285.644 346.836 286.034 347.4 285.855 347.907C285.713 348.302 285.291 348.534 285.101 348.909C284.816 349.478 285.185 350.201 285.739 350.512C286.293 350.824 286.968 350.818 287.601 350.766C288.15 350.723 288.825 350.702 289.12 351.172C289.152 351.225 289.178 351.277 289.194 351.335C297.492 344.509 310.416 336.765 311.888 335.652C313.84 334.181 314.615 334.914 316.567 336.022C318.519 337.129 319.104 337.863 320.465 338.417C321.832 338.97 321.051 336.206 321.246 333.811C322.596 332.978 324.311 331.849 326.136 330.683C326.289 329.591 326.621 328.526 327.149 327.555C327.476 326.954 327.893 326.363 328.51 326.057C328.906 325.862 329.349 325.804 329.786 325.74C331.327 325.524 332.967 325.213 334.07 324.121C334.302 323.894 334.502 323.572 334.344 323.314Z" fill="#0C46E6" stroke="#0C46E6"/>
<path d="M229.131 365.325C229.812 365.156 230.44 364.745 231.141 364.724C232.412 364.681 233.452 365.895 234.723 365.905C235.393 365.911 236.015 365.578 236.675 365.489C238.3 365.267 239.777 366.507 241.412 366.654C242.129 366.718 242.884 366.57 243.564 366.802C244.171 367.008 244.64 367.488 245.189 367.815C247.03 368.907 249.467 368.142 251.456 368.939C251.994 369.155 252.495 369.482 253.054 369.624C253.619 369.767 254.304 369.666 254.631 369.186C255.048 368.569 254.663 367.72 254.816 366.992C255.016 366.032 256.077 365.51 257.042 365.346C258.007 365.183 259.047 365.214 259.907 364.734C260.682 364.302 261.188 363.521 261.816 362.893C262.444 362.265 263.383 361.764 264.2 362.107C264.633 362.287 264.955 362.672 265.398 362.83C266.543 363.241 267.598 361.954 268.8 361.807C270.583 361.585 271.781 363.811 273.559 364.075C275.326 364.339 276.697 362.629 278.322 361.87C279.572 361.29 280.997 361.284 282.373 361.284C282.637 361.284 282.896 361.284 283.159 361.284C283.228 359.765 283.233 358.436 283.112 357.486C284.267 355.708 286.499 353.567 289.226 351.32C289.205 351.261 289.184 351.209 289.152 351.156C288.862 350.686 288.187 350.702 287.633 350.75C287 350.803 286.324 350.803 285.771 350.497C285.217 350.185 284.847 349.463 285.132 348.893C285.322 348.518 285.744 348.286 285.887 347.891C286.066 347.384 285.681 346.82 285.185 346.604C284.694 346.387 284.13 346.419 283.597 346.44C281.06 346.54 278.512 346.276 276.048 345.654C275.975 344.884 277.082 344.562 277.388 343.85C277.584 343.391 277.404 342.848 277.088 342.457C276.771 342.067 276.344 341.793 275.964 341.476C274.207 340.02 273.406 337.652 273.385 335.367C273.369 333.811 273.664 332.181 273.079 330.736C272.329 330.193 272.303 328.863 271.48 328.436C270.937 328.156 270.167 328.33 269.782 327.856C269.597 327.629 269.56 327.302 269.37 327.075C269.133 326.795 268.727 326.748 268.363 326.716C266.838 326.59 265.308 326.463 263.784 326.336C263.056 326.278 262.28 326.226 261.653 326.595C261.331 326.785 261.009 327.091 260.64 327.006C260.086 326.885 260.091 326.088 259.78 325.608C259.363 324.97 258.44 324.997 257.696 324.833C256.019 324.458 254.616 322.77 252.928 323.113C252.606 323.177 252.3 323.319 251.983 323.398C250.902 323.667 249.773 323.229 248.787 322.707C247.8 322.185 246.829 321.557 245.722 321.415C245.294 321.357 244.756 321.441 244.598 321.842C244.482 322.137 244.614 322.528 244.398 322.765C244.245 322.929 243.991 322.939 243.77 322.934C242.889 322.908 242.013 322.844 241.138 322.739C240.874 322.707 240.594 322.66 240.415 322.47C240.299 322.343 240.236 322.164 240.093 322.069C239.951 321.979 239.766 321.995 239.597 322.021C238.853 322.132 238.12 322.301 237.403 322.528C236.501 322.385 235.609 322.18 234.723 321.921C232.824 323.229 230.957 324.58 229.126 325.978C228.308 326.605 227.438 327.339 227.285 328.357C227.158 329.19 227.528 330.177 226.979 330.815C226.626 331.226 226.035 331.311 225.523 331.501C224.204 331.991 223.35 333.289 222.886 334.618C222.421 335.948 222.253 337.361 221.788 338.691C221.678 339.013 221.546 339.34 221.324 339.603C220.823 340.215 219.989 340.405 219.23 340.622C219.14 340.648 219.051 340.68 218.961 340.706C218.618 344.562 214.888 355.466 214.888 355.466L222.88 355.65L225.418 361.548C225.418 361.548 225.344 362.186 225.101 365.209C225.808 365.267 226.51 365.325 227.216 365.383C227.834 365.431 228.498 365.483 229.131 365.325Z" fill="#0C46E6" stroke="#0C46E6"/>
<path d="M286.029 379.6C286.029 379.6 286.029 379.6 283.107 377.205C281.714 375.886 282.901 367.145 283.154 361.284C282.89 361.284 282.632 361.284 282.368 361.284C280.991 361.279 279.562 361.284 278.317 361.87C276.697 362.624 275.326 364.333 273.553 364.075C271.776 363.811 270.578 361.585 268.795 361.807C267.592 361.954 266.537 363.236 265.393 362.83C264.955 362.672 264.628 362.287 264.195 362.107C263.372 361.764 262.439 362.265 261.811 362.893C261.183 363.521 260.677 364.302 259.901 364.734C259.041 365.209 258.007 365.177 257.037 365.346C256.066 365.515 255.011 366.032 254.811 366.992C254.658 367.725 255.043 368.569 254.626 369.186C254.299 369.666 253.613 369.767 253.049 369.624C252.484 369.482 251.989 369.155 251.45 368.939C249.462 368.147 247.03 368.907 245.184 367.815C244.63 367.488 244.165 367.008 243.559 366.802C242.873 366.57 242.124 366.718 241.407 366.654C239.771 366.512 238.3 365.267 236.669 365.489C236.01 365.578 235.388 365.911 234.718 365.905C233.446 365.895 232.407 364.681 231.136 364.724C230.434 364.745 229.807 365.156 229.126 365.325C228.493 365.483 227.834 365.431 227.185 365.373C226.478 365.314 225.776 365.256 225.069 365.198C224.922 367.055 224.711 369.814 224.41 373.881C224.178 373.902 223.919 373.955 223.64 374.04C226.198 374.804 228.836 375.316 231.495 375.559C233.045 375.696 234.602 375.749 236.147 375.918C240.162 376.355 244.044 377.595 247.842 378.961C251.06 380.111 254.331 381.414 256.805 383.772C258.287 385.186 259.453 386.958 261.188 388.056C263.657 389.617 266.775 389.517 269.676 389.854C270.483 389.949 271.507 390.345 271.438 391.152C271.385 391.78 270.684 392.107 270.251 392.566C269.323 393.558 269.655 395.203 268.985 396.385C268.505 397.229 267.492 398.136 268.025 398.949C268.257 399.302 268.7 399.434 269.101 399.555C270.346 399.941 271.517 400.5 272.651 401.143C277.388 395.831 281.545 394.154 281.545 394.154L281.936 383.097C281.936 383.097 284.278 381.625 285.248 381.071C286.224 380.517 286.029 379.6 286.029 379.6Z" fill="#0C46E6" stroke="#0C46E6"/>
<path d="M199.417 424.412L199.258 424.38C199.258 424.375 199.501 425.499 199.417 424.412Z" fill="#0C46E6" stroke="#0C46E6" stroke-miterlimit="10"/>
<path d="M268.025 398.949C267.492 398.136 268.505 397.229 268.985 396.385C269.66 395.203 269.323 393.558 270.251 392.566C270.684 392.107 271.385 391.785 271.438 391.152C271.507 390.345 270.483 389.949 269.676 389.854C266.775 389.512 263.657 389.612 261.188 388.056C259.458 386.964 258.287 385.186 256.805 383.772C254.336 381.414 251.06 380.111 247.842 378.961C244.039 377.6 240.162 376.361 236.147 375.918C234.602 375.749 233.046 375.701 231.495 375.559C228.831 375.321 226.198 374.804 223.64 374.04C219.436 375.242 210.125 382.485 206.469 384.384C202.571 386.41 186.972 407.236 184.825 409.262C182.679 411.287 181.513 414.236 181.513 414.236C181.513 414.236 184.825 415.708 185.997 413.682C187.168 411.657 190.48 411.841 191.261 412.759C192.042 413.682 198.868 419.58 199.253 422.893C199.337 423.615 199.385 424.095 199.411 424.401L201.79 424.918C201.79 424.918 202.766 423.626 203.742 421.785C204.718 419.944 204.718 421.785 205.694 422.893C206.67 424.001 210.959 429.16 210.959 429.16L216.223 430.452L218.95 433.585C224.996 435.426 225.581 441.139 226.942 442.063C228.308 442.986 230.645 444.642 231.231 446.119C231.816 447.591 226.942 450.176 226.942 450.176V459.207H230.06L239.028 450.36C239.028 450.36 241.565 440.781 242.731 439.488C243.902 438.196 263.789 420.508 263.789 420.508L264.375 414.795C266.838 408.703 269.84 404.287 272.641 401.143C271.507 400.505 270.336 399.946 269.091 399.555C268.695 399.434 268.257 399.302 268.025 398.949Z" fill="#0C46E6" stroke="#0C46E6"/>
<path d="M437.494 147.303C436.94 146.813 436.376 146.275 435.653 146.122C434.087 145.784 432.847 147.324 431.681 148.427C430.204 149.819 428.252 150.695 426.232 150.874C424.433 151.033 422.434 150.706 420.973 151.766C420.44 152.151 420.039 152.689 419.601 153.19C418.709 154.208 417.654 155.079 416.483 155.754C415.645 156.239 414.532 156.603 413.767 156.007C413.044 155.437 413.076 154.351 413.181 153.438C412.538 153.48 411.614 153.222 411.762 152.594C411.815 152.367 412.01 152.209 412.2 152.077C412.933 151.576 413.951 150.901 413.603 150.088C413.529 149.914 413.392 149.767 413.324 149.593C412.97 148.727 414.199 148.1 414.59 147.25C414.954 146.454 414.452 145.452 413.666 145.067C412.88 144.681 411.926 144.808 411.129 145.177C410.338 145.547 409.663 146.127 408.982 146.675C406.861 148.369 404.514 149.777 402.024 150.853C401.718 150.985 401.391 151.112 401.069 151.059C400.542 150.969 400.22 150.447 399.893 150.025C399.561 149.603 398.996 149.213 398.527 149.477C398.173 149.677 398.041 150.189 397.651 150.3C397.308 150.394 396.981 150.125 396.723 149.877C396.374 149.535 396.026 149.192 395.673 148.849C395.372 149.25 395.066 149.645 394.713 149.994C394.011 150.679 393.046 151.191 392.081 151.027C391.237 150.885 390.561 150.263 389.944 149.666C388.937 148.701 387.934 147.736 386.927 146.77C386.473 146.338 385.998 145.884 385.397 145.7C384.98 145.568 384.537 145.573 384.105 145.62C381.936 145.837 379.726 146.966 377.679 146.217C377.11 146.011 376.603 145.668 376.055 145.415C375.944 145.362 375.833 145.33 375.722 145.288C375.453 145.747 374.91 145.995 374.52 146.37C373.702 147.15 373.602 148.453 373.913 149.54C374.224 150.627 374.873 151.581 375.39 152.589C375.522 152.847 375.648 153.127 375.617 153.412C375.58 153.739 375.348 154.003 375.126 154.245C373.718 155.754 372.172 157.141 370.521 158.381C369.645 159.04 368.722 159.858 367.836 160.702C369.033 161.678 370.21 162.675 371.349 163.714C372.615 164.875 373.96 166.452 373.486 168.103C373.354 168.562 373.079 169 373.101 169.48C373.143 170.461 374.446 170.952 375.353 170.582C376.26 170.213 376.83 169.322 377.342 168.488C377.853 167.655 378.434 166.769 379.352 166.42C379.8 166.252 380.285 166.225 380.75 166.093C382.348 165.64 383.303 164.062 384.221 162.675C385.138 161.288 386.447 159.848 388.108 159.937C389.211 159.995 390.145 160.728 391.078 161.325C392.503 162.237 394.101 162.886 395.757 163.234C396.28 163.345 396.823 163.424 397.308 163.651C398.379 164.157 399.002 165.265 399.729 166.199C400.457 167.132 401.586 167.998 402.731 167.686C403.501 166.494 404.445 165.413 405.527 164.495C405.828 164.242 406.149 163.994 406.529 163.888C407.558 163.609 408.507 164.453 409.32 165.144C411.567 167.069 414.447 168.309 417.407 168.388C420.366 168.467 423.383 167.333 425.398 165.16C426.279 164.21 427.387 162.949 428.585 163.44C429.539 163.825 430.684 163.414 431.665 163.108C431.94 163.023 432.219 162.912 432.509 162.912C432.931 162.907 433.322 163.118 433.696 163.313C433.934 163.435 434.181 163.545 434.424 163.661C437.589 157.743 438.945 152.705 439.504 148.859C438.792 148.358 438.122 147.852 437.494 147.303Z" fill="#0C46E6" stroke="#0C46E6"/>
</svg>
