<svg width="177" height="124" viewBox="0 0 177 124" fill="none" xmlns="http://www.w3.org/2000/svg">
<path d="M49.2216 121.793C50.9202 121.249 52.0121 119.651 53.0302 118.19C53.6949 117.235 54.4704 116.227 55.5992 115.932C56.4327 115.716 57.3136 115.927 58.1735 115.858C59.7666 115.731 61.2384 114.655 62.8262 114.851C63.5541 114.94 64.2135 115.294 64.8571 115.642C67.0885 116.845 69.3199 118.047 71.5513 119.245C72.2054 119.598 72.8859 119.957 73.6244 119.994C74.7691 120.052 75.7872 119.35 76.7895 118.802C77.7918 118.253 79.0736 117.847 80.039 118.459C80.3977 118.686 80.6667 119.034 81.0202 119.276C82.2809 120.152 84.0323 119.387 85.2033 118.395C86.3744 117.404 87.4716 116.132 88.9909 115.895C89.7136 117.024 88.9645 118.511 88.0889 119.524C87.2079 120.532 86.1107 121.561 86.079 122.9C87.8567 123.243 89.6608 123.433 91.4702 123.47C93.0211 123.502 94.3504 123.734 95.8855 123.94C96.2178 123.27 95.5954 122.558 95.1523 121.956C94.1553 120.6 93.9706 118.775 94.3135 117.124C94.6564 115.478 95.4741 113.97 96.3445 112.529C97.0882 111.306 97.8848 110.098 98.9029 109.09C99.5148 108.483 100.211 107.945 100.718 107.249C101.224 106.553 101.525 105.624 101.224 104.817C101.087 104.448 100.828 104.105 100.828 103.715C100.828 103.214 101.245 102.807 101.693 102.591C102.142 102.375 102.643 102.285 103.091 102.058C104.062 101.568 104.632 100.502 105.571 99.9535C106.114 99.637 106.736 99.5157 107.343 99.3574C108.62 99.0198 109.917 98.4606 110.709 97.4003C111.574 96.2451 111.69 94.7206 111.969 93.3068C112.249 91.8931 112.856 90.358 114.185 89.7988C114.713 89.5773 115.293 89.5404 115.852 89.4349C117.055 89.2133 118.22 88.6436 119.006 87.7046C119.792 86.7656 120.146 85.431 119.761 84.2705C119.334 82.9834 120.083 81.2742 120.294 79.9396C120.367 79.4701 120.447 78.9953 120.578 78.5417C120.721 78.0722 120.921 77.6238 121.027 77.1438C121.238 76.1942 121.037 75.192 121.201 74.2319C121.37 73.2243 121.924 72.3276 122.404 71.4255C123.707 68.9726 124.524 66.2664 124.809 63.5022C124.767 63.5655 124.73 63.6341 124.683 63.6974C124.324 64.1563 123.664 64.457 123.147 64.188C123.074 60.0312 122.994 55.8744 122.921 51.7123C122.91 51.2217 122.905 50.7311 122.799 50.251C122.715 49.8712 122.567 49.502 122.493 49.1169C122.377 48.5208 122.425 47.9089 122.483 47.3075C123.068 41.4574 124.688 35.7075 127.246 30.4112C127.436 30.0209 127.631 29.6147 127.631 29.1821C127.631 29.1294 127.621 29.0819 127.616 29.0291C127.383 29.0555 127.141 29.0502 126.909 29.0344C117.371 28.375 107.834 27.7156 98.2963 27.051C86.5063 26.2333 74.2521 24.3765 62.4358 24.6455C60.12 24.6982 57.8042 24.6191 55.499 24.4028C54.8607 24.3448 54.0853 24.1654 53.9112 23.5483C53.8426 23.3056 53.8901 23.0366 53.811 22.7992C53.4733 21.8022 51.6218 22.393 51.1206 21.4698C50.8727 21.0109 51.1048 20.3726 50.7777 19.9664C50.5456 19.6763 50.1342 19.6341 49.7807 19.5286C48.1402 19.0327 47.2276 16.8488 45.5131 16.8488C44.7271 15.567 44.321 14.0583 44.3473 12.5548C44.3579 11.9113 44.4528 11.2572 44.2946 10.6347C44.0519 9.65351 43.2501 8.92028 42.7701 8.02878C42.021 6.64669 42.0685 4.96918 41.5146 3.49741C40.966 2.03619 39.8476 0.859849 38.5236 0C38.5341 0.0422012 38.5499 0.0843972 38.5605 0.126598C38.877 1.85157 37.7956 3.48686 36.9094 5.00083C36.5401 5.63385 36.1814 6.36183 36.3713 7.0687C36.5507 7.72809 37.1679 8.19758 37.3736 8.8517C37.6162 9.60604 37.2575 10.4079 36.978 11.1464C36.3027 12.9241 36.0179 14.8495 36.1603 16.7433H0.964543C1.42348 17.4713 1.42347 18.4472 1.10697 19.2596C0.922336 19.7343 0.642754 20.1722 0.547802 20.6733C0.415923 21.396 0.68496 22.2136 0.305149 22.8414C0.194371 23.0207 0.030838 23.1843 0.00446228 23.3953C-0.0219134 23.5905 0.073043 23.7804 0.173271 23.9439C0.616383 24.6613 1.28105 25.2943 1.42876 26.1278C1.49733 26.5234 1.44457 26.9243 1.38655 27.32C1.14389 29.0713 0.901232 30.8227 0.658575 32.5793C0.584723 33.1068 0.510881 33.6554 0.669136 34.1618C0.832665 34.6841 1.21775 35.1061 1.42876 35.6073C1.58701 35.9818 1.63975 36.388 1.68195 36.7889C1.87714 38.6879 1.76637 40.6186 1.34963 42.486C5.42732 42.734 9.50499 42.9872 13.5827 43.2351C13.6671 43.8523 14.4689 44.0211 15.0914 44.0422C15.9354 44.0633 16.7742 44.0897 17.6182 44.1108C17.8134 44.1161 18.0296 44.1319 18.1668 44.269C18.2723 44.3693 18.3092 44.5222 18.3409 44.6647C18.631 45.936 18.8684 47.4236 18.0138 48.41C17.576 48.9112 16.8375 49.4914 17.1909 50.0559C16.79 51.2955 17.1012 52.6565 17.7764 53.7643C18.4516 54.8774 19.322 55.8902 19.781 57.1087C20.0289 57.7681 20.1397 58.5383 19.8179 59.166C19.4012 59.9626 18.42 60.3002 17.8978 61.0282C17.1698 62.041 17.5232 63.5022 16.9852 64.6258C16.753 65.1111 16.368 65.4962 16.0567 65.9341C15.3393 66.9311 15.0017 68.1549 14.4162 69.2363C13.5458 70.8294 12.1426 72.0638 10.5495 72.9553C10.8871 73.794 11.0612 74.7436 11.1825 75.7564C11.4621 78.1513 13.6302 79.813 13.6302 79.813L14.2157 85.1567C14.2157 85.1567 10.5125 85.7106 11.2933 86.2645C12.074 86.8184 13.6354 91.1493 13.6354 91.1493V100.085C13.6354 100.085 23.5791 101.193 33.7179 101.378C32.742 112.804 36.9674 113.906 36.9674 113.906C36.9674 113.906 40.1483 113.537 42.4905 117.594C43.1341 118.707 43.4295 119.746 43.535 120.674C45.3496 121.497 47.3331 122.394 49.2216 121.793Z" fill="#F3AA47"/>
<path d="M57.0248 79.1098C58.2064 78.7564 59.4725 78.9726 60.6805 79.1995C63.1493 79.6531 65.6127 80.1068 68.0815 80.5605C68.7567 80.6871 69.453 80.8189 70.0386 81.1777C71.2149 81.9056 71.6792 83.3563 72.0537 84.6909C72.8028 84.1107 73.5518 83.5356 74.2956 82.9554C74.9023 83.6992 75.2715 84.6329 75.3243 85.5929C75.4087 86.0994 76.2527 85.8989 76.4584 85.4294C76.6642 84.9599 76.6114 84.3744 76.9438 83.9893C77.16 83.7361 77.5029 83.6201 77.8247 83.5251C78.9167 83.1875 80.0086 82.8499 81.0953 82.507C81.8233 82.2802 82.5776 82.0533 83.3372 82.1325C84.0599 82.2063 84.7351 82.5545 85.4631 82.5861C86.803 82.6442 87.9319 81.6366 89.2137 81.2357C91.1814 80.6238 93.5236 81.6946 94.3518 83.5831C94.2568 84.5274 94.1671 85.4769 94.0722 86.4212C94.9953 86.0783 95.8974 87.165 95.8974 88.1514C95.8974 89.1379 95.3804 90.0452 95.1694 91.0053C94.4625 94.2547 97.6804 97.3618 100.998 97.5887C101.663 97.6361 102.502 97.7047 102.723 98.3377C103.003 99.1448 101.964 99.7145 101.399 100.358C99.8115 102.152 101.906 105.354 100.46 107.258C101.631 109.083 102.808 110.908 103.979 112.734C104.269 113.182 104.564 113.641 104.965 113.989C106.474 115.308 108.795 114.728 110.689 114.068C110.826 113.319 110.968 112.575 111.106 111.826C117.198 112.095 122.569 108.086 128.44 106.446C134.248 104.821 140.615 105.522 146.201 103.254C147.061 102.906 147.91 102.479 148.559 101.814C151.102 99.2187 149.683 94.1967 152.489 91.881C153.265 91.2427 154.309 90.8734 154.81 90.003C155.232 89.2592 155.543 88.2728 155.19 87.4973C153.439 83.6728 157.717 82.2538 160.059 83.2139C160.254 82.5598 160.444 81.9004 160.639 81.2462C160.312 80.7767 160.613 80.3442 161.093 80.0277C161.568 79.7112 162.164 79.458 162.348 78.9146C162.528 78.3871 162.248 77.7488 162.544 77.2794C162.675 77.0683 162.897 76.9417 163.108 76.8099C164.258 76.0924 165.318 74.9477 165.271 73.592C165.192 71.387 162.275 69.8519 162.675 67.6786C163.467 67.6786 164.253 67.6786 165.044 67.6786C165.287 65.8534 163.868 64.255 162.454 63.0839C162.069 62.7621 161.642 62.3823 161.636 61.8865C161.631 60.8895 163.071 60.7523 163.862 60.1509C164.538 59.6392 165.049 58.5684 165.867 58.79C166.12 58.8585 166.326 59.0537 166.574 59.1434C167.571 59.4968 168.235 58.12 169.122 57.5345C169.734 57.1336 170.514 57.1177 171.248 57.0755C171.997 57.0333 172.746 56.9436 173.484 56.8118V56.8065C173.447 56.395 173.563 55.9836 173.6 55.5721C173.727 54.1531 172.772 52.713 171.416 52.2751C170.762 52.0641 169.945 52.0008 169.612 51.3995C169.428 51.0724 169.454 50.6715 169.486 50.297C169.575 49.1997 169.665 48.0972 169.749 47C169.786 46.5094 169.85 45.9713 170.214 45.639C170.899 45.0113 172.318 45.428 172.677 44.5682C172.925 43.9773 172.376 43.3707 172.271 42.7377C172.213 42.3948 172.292 42.0414 172.398 41.709C172.888 40.1265 173.943 38.7233 175.325 37.816C176.011 37.3676 176.876 36.8612 176.86 36.0435C176.839 35.0834 175.668 34.6773 174.898 34.097C174.239 33.6011 173.795 32.8362 173.073 32.4353C171.933 31.8076 170.514 32.2771 169.232 32.0555C168.214 31.8814 167.328 31.2748 166.368 30.8897C165.408 30.5046 164.205 30.378 163.43 31.0638C163.192 31.2748 163.013 31.5491 162.739 31.7073C162.085 32.0872 161.22 31.6071 160.829 30.953C160.439 30.2989 160.349 29.5181 160.07 28.8113C159.684 27.8459 158.962 27.0652 158.223 26.3373C156.736 24.8866 154.404 23.3304 152.552 24.2747C151.265 24.1375 149.962 24.0003 148.744 23.5572C146.729 22.8293 145.099 21.3364 143.237 20.2814C141.374 19.2263 138.937 18.6566 137.154 19.8383C136.896 20.0071 136.658 20.2128 136.384 20.35C135.382 20.8458 134.184 20.3447 133.24 19.7486C132.539 19.3002 131.784 18.5564 132.053 17.7651C132.243 17.1954 132.908 16.8789 133.082 16.3039C133.235 15.7975 132.934 15.2383 132.507 14.9271C132.08 14.6159 131.547 14.4945 131.025 14.3785C130.033 14.1622 129.025 13.9406 128.012 14.0145C126.177 14.1517 124.563 15.2331 123.091 16.3356C119.509 19.0206 116.096 22.1118 111.886 23.6364C111.39 23.8157 110.873 23.9793 110.446 24.2852C109.971 24.6175 109.629 25.1081 109.164 25.4563C108.7 25.8045 108.014 25.9838 107.555 25.6304C108.231 24.4593 108.436 23.1405 108.526 21.7795C107.571 22.1699 106.585 22.4706 105.546 22.6288C105.224 22.6763 104.881 22.7079 104.591 22.5655C104.095 22.3229 103.963 21.6951 103.742 21.1887C103.52 20.6823 102.919 20.1917 102.47 20.5187C102.27 21.3153 102.618 22.1382 102.602 22.9611C102.586 23.7788 101.821 24.7231 101.088 24.3538C100.782 24.2008 100.613 23.8685 100.397 23.6047C99.764 22.824 98.2659 22.7449 97.9177 23.6891C97.4852 24.8602 99.1996 26.0418 98.7565 27.2129C98.5402 27.7879 97.8703 28.0886 97.6593 28.6636C97.1054 30.167 100.023 31.1693 99.6744 32.7307C99.4264 33.8596 97.8703 33.8912 96.7203 33.9387C95.7602 33.9809 94.7738 34.2394 94.0352 34.8566C93.2967 35.4738 92.8589 36.5974 93.1068 37.5311C91.6403 38.0744 91.5032 40.2003 92.2469 41.5719C92.9907 42.9487 94.2937 43.951 95.0481 45.3225C95.1694 45.5441 95.2802 45.7867 95.2538 46.0399C95.2221 46.367 94.9795 46.6255 94.7474 46.8523C93.7398 47.8598 92.7323 48.8727 91.7247 49.8802C91.3977 50.2073 91.06 50.5555 90.9334 50.9986C90.7277 51.7318 91.1761 52.5178 91.8091 52.9451C92.4422 53.3724 93.2123 53.5095 93.9614 53.6414C93.3389 54.4116 92.6954 55.2292 92.5318 56.2104C92.3683 57.1863 92.8694 58.3574 93.84 58.5631C93.4233 60.5308 90.253 60.209 89.0133 61.7968C88.6282 62.2874 88.4594 62.9468 87.9794 63.353C87.2567 63.9649 86.1436 63.7433 85.3207 63.2791C84.4978 62.8149 83.7751 62.145 82.873 61.8812C81.7125 61.5383 80.4781 61.9234 79.2754 62.0236C76.8805 62.2241 74.0582 61.4117 72.3438 63.0892C71.7636 63.6589 71.3785 64.4766 70.6241 64.7878C69.8698 65.099 68.7778 64.1812 69.3475 63.5956C67.6015 64.3605 65.7604 64.9197 63.8772 65.2467C62.474 65.4894 60.9812 65.6371 59.8365 66.4864C58.7128 67.3199 58.1378 68.6703 57.4732 69.8994C56.8085 71.1232 55.6322 72.4367 54.287 72.078C54.2817 72.711 54.2712 73.3388 54.2659 73.9718C54.1446 73.9613 54.0232 73.9454 53.9019 73.9349C53.9072 73.9718 53.9125 74.0088 53.9177 74.0457C53.9705 74.4835 54.0021 74.953 53.7753 75.3328C53.5485 75.7126 53.1159 75.9131 52.7836 76.2085C51.2854 77.5642 52.4196 80.1226 52.293 82.1166C52.7836 81.8634 53.2583 81.5839 53.7067 81.2568C54.7829 80.4866 55.7588 79.4949 57.0248 79.1098Z" fill="#DE5E57"/>
</svg>
