<svg width="86" height="24" viewBox="0 0 86 24" fill="none" xmlns="http://www.w3.org/2000/svg">
<path d="M14.6313 13.4169C17.0217 12.2603 18.506 10.2747 18.506 7.40244V7.34461C18.506 5.32051 17.8891 3.85545 16.7132 2.67955C15.3446 1.2916 13.1084 0.424133 9.61926 0.424133H0V18.2554H6.57349V14.4964H7.98071L14.2072 24H21.7253L14.6313 13.4169ZM11.9518 7.88437C11.9518 9.09882 10.9879 9.7928 9.42649 9.7928H6.57349V5.93738H9.44577C10.9687 5.93738 11.9518 6.55425 11.9518 7.82653V7.88437Z" fill="#5FC4E4"/>
<path d="M65.0601 0C60.4336 0 56.6167 2.64096 55.0553 6.39999C54.8818 4.85783 54.3035 3.66265 53.301 2.67951C51.9131 1.29156 49.6962 0.424096 46.2071 0.424096H36.5878V16.2506L29.9179 0.289156H23.383L17.2529 14.9397L19.4698 18.2554H36.5878H37.4167H43.1613V14.4964H44.5685L47.0553 18.2554H54.5155L51.1998 13.4169C52.5492 12.7614 53.5902 11.8554 54.2649 10.6795C54.3613 13.7638 55.8263 16.4626 58.1203 18.2554H71.8071C74.236 16.3855 75.7396 13.5132 75.7396 10.2747V10.2169C75.7781 4.51084 71.1323 0 65.0601 0ZM24.5782 13.3976L26.6023 8.03854L28.6071 13.3976H24.5782ZM48.5396 7.88433C48.5396 9.09878 47.5758 9.79276 46.0143 9.79276H43.1806V5.93734H46.0529C47.5758 5.93734 48.5589 6.55421 48.5589 7.8265V7.88433H48.5396V7.88433ZM69.1468 10.3325C69.1468 12.6458 67.5661 14.7277 65.0601 14.7277C62.5348 14.7277 60.9155 12.6265 60.9155 10.2747V10.2169C60.9155 7.9036 62.4962 5.82168 65.0022 5.82168C67.5275 5.82168 69.1468 7.92288 69.1468 10.2747V10.3325Z" fill="#5FC4E4"/>
<path d="M77.6864 18.3133V17.0988H84.9925V18.3133H77.6864Z" fill="#5FC4E4"/>
<path d="M84.9923 12.6843H84.3369C84.761 13.0506 85.0887 13.5903 85.0887 14.4C85.0887 15.4024 84.5104 16.2891 83.4502 16.2891H83.4309C82.255 16.2891 81.696 15.3831 81.696 14.1494C81.696 13.5132 81.7923 13.0891 81.908 12.6843H81.8116C81.0791 12.6843 80.6743 13.147 80.6743 13.9952C80.6743 14.5928 80.8092 15.0169 81.002 15.4988L80.0381 15.8265C79.7682 15.2482 79.5948 14.6699 79.5948 13.8217C79.5948 12.2602 80.4237 11.5084 81.8309 11.5084H84.9731L84.9923 12.6843ZM82.7755 12.6458C82.6598 12.9542 82.5634 13.3783 82.5634 13.8602C82.5634 14.612 82.8719 15.0747 83.3923 15.0747H83.4116C83.9128 15.0747 84.202 14.6313 84.202 14.053C84.202 13.2434 83.7586 12.6458 83.0839 12.6458H82.7755Z" fill="#5FC4E4"/>
<path d="M84.1635 9.23381H84.9925V10.4483H77.6864V9.23381H80.5973C80.0382 8.84827 79.6141 8.28923 79.6141 7.44104C79.6141 6.18803 80.5973 4.97357 82.3515 4.97357H82.3708C84.125 4.97357 85.1081 6.16875 85.1081 7.44104C85.1081 8.30851 84.6647 8.84827 84.1635 9.23381ZM82.3515 6.20731H82.3322C81.3105 6.20731 80.6358 6.90128 80.6358 7.71092C80.6358 8.53983 81.3105 9.25308 82.3322 9.25308H82.3515C83.3732 9.25308 84.0479 8.53983 84.0479 7.71092C84.0479 6.882 83.3925 6.20731 82.3515 6.20731Z" fill="#5FC4E4"/>
<path d="M84.2985 4.56872L83.4696 4.02896C83.8937 3.45065 84.125 2.83378 84.125 2.29402C84.125 1.77354 83.913 1.46511 83.5467 1.46511H83.5274C83.1226 1.46511 82.9684 2.02414 82.7949 2.64101C82.5828 3.43137 82.2551 4.29884 81.2527 4.29884H81.2334C80.231 4.29884 79.6142 3.46992 79.6142 2.40968C79.6142 1.75426 79.8455 1.02173 80.2118 0.462698L81.0792 0.944625C80.7708 1.44583 80.578 2.00486 80.578 2.42896C80.578 2.89161 80.7901 3.16149 81.1178 3.16149H81.1371C81.5226 3.16149 81.6768 2.58318 81.8696 1.96631C82.1009 1.19523 82.4672 0.327759 83.4118 0.327759H83.431C84.5491 0.327759 85.0889 1.19523 85.0889 2.29402C85.0889 3.0651 84.819 3.89402 84.2985 4.56872Z" fill="#5FC4E4"/>
</svg>
