<svg width="162" height="169" viewBox="0 0 162 169" fill="none" xmlns="http://www.w3.org/2000/svg">
<g clip-path="url(#clip0)">
<path d="M24.0388 61.8742C23.2425 61.5249 22.5161 61.0379 21.778 60.58C20.5972 59.8505 19.3755 59.1908 18.1519 58.533C17.4547 58.1585 16.7574 57.7821 16.0291 57.4697C14.1471 56.6626 12.1097 56.2978 10.117 55.8243C6.95312 55.0735 3.86112 54.0296 0.887589 52.7141C0.910896 52.8596 0.928375 52.9488 0.928375 52.9488L0.120415 53.1021L0.442822 54.3226C0.442822 54.3226 3.18911 58.4903 3.7271 58.9482C4.2651 59.4061 4.10389 60.2191 4.10389 60.2191L3.4047 61.1349C3.4047 61.1349 3.67466 61.2882 5.18182 61.4396C7.71253 61.847 7.33574 63.7776 7.33574 63.7776L11.158 63.6243L13.9587 61.8955C13.9587 61.8955 13.5819 66.7249 13.9587 67.7416C14.3355 68.7584 16.167 67.6407 16.167 67.6407L19.9368 67.8445C19.9368 67.8445 19.8824 68.1996 21.8208 68.4033C23.7591 68.607 24.0815 66.5736 24.0815 66.5736L25.8586 66.3194L26.7734 65.5569L29.4653 63.9619C28.4884 63.4381 27.4648 62.9996 26.4083 62.662C25.6139 62.4078 24.8001 62.2079 24.0388 61.8742Z" fill="#F3AA47" stroke="#F3AA47"/>
<path d="M64.6621 57.5008C64.767 57.2291 64.8971 56.9342 64.8078 56.6567C64.732 56.4161 64.5028 56.2454 64.4388 56.0009C64.3688 55.7409 64.5009 55.4732 64.6369 55.2403C64.9651 54.6835 65.3632 54.082 65.2448 53.4475C65.1904 53.1506 65.0272 52.8867 64.866 52.6306C64.6349 52.2639 64.4057 51.8952 64.1746 51.5285C64.0969 51.4063 64.0192 51.2743 64.0154 51.1308C64.0134 50.9658 64.1105 50.8184 64.1999 50.6806C64.8427 49.7008 65.3302 48.6278 65.8119 47.5587C66.8257 45.3157 67.7891 43.1387 68.8981 40.9423C69.9605 38.8409 70.9044 36.6775 71.7221 34.4694C71.7959 34.2715 71.8716 34.0833 71.8638 33.8737C72.1552 33.5323 72.3572 33.1151 72.4387 32.6746C72.4795 32.4534 72.497 32.2128 72.6368 32.0363C72.7786 31.8578 73.0117 31.784 73.204 31.6618C73.3962 31.5396 73.5633 31.299 73.4623 31.0952C72.7378 31.427 71.9104 31.524 71.1277 31.3708C71.2015 31.1631 71.0481 30.94 70.8617 30.8236C70.6752 30.7072 70.4538 30.6548 70.2712 30.5345C69.8731 30.2764 69.7002 29.7409 69.271 29.5411C69.1059 29.4634 68.9194 29.446 68.7388 29.4149C67.8609 29.2617 67.0879 28.7688 66.3402 28.2857C66.2508 28.2275 66.1537 28.1596 66.1304 28.0567C66.1091 27.9617 66.1537 27.8666 66.1867 27.7754C66.2586 27.5755 66.2547 27.3214 66.0896 27.1875C65.7808 26.9352 65.3419 27.3427 64.9457 27.3117C64.6369 27.2864 64.4174 26.9954 64.2989 26.7082C64.1824 26.4211 64.1183 26.1028 63.9221 25.8622C63.6347 25.5111 63.0928 25.3597 62.9666 24.9231C62.8753 24.6108 63.0248 24.213 62.7898 23.9879C62.6655 23.8696 62.4713 23.8482 62.345 23.7318C62.1936 23.5902 62.1838 23.3573 62.1838 23.1517C62.1858 22.4687 62.1897 21.7857 62.1916 21.1027C62.0285 21.1027 61.8634 21.1337 61.7002 21.1415C60.6825 21.1881 59.6648 21.2346 58.6471 21.2812C58.2489 21.2987 57.8236 21.3278 57.5089 21.5722C56.9826 21.9817 57.0098 22.7849 56.6582 23.3515C56.4543 23.6814 56.1067 23.9782 56.1436 24.3643C56.1727 24.6767 56.4601 24.9445 56.4077 25.2549C56.3727 25.4606 56.1979 25.6081 56.0367 25.7361C55.825 25.903 55.5959 26.0776 55.3259 26.0912C54.9918 26.1067 54.7005 25.8661 54.4927 25.6042C54.2849 25.3423 54.1159 25.0396 53.8459 24.8417C53.3099 24.4497 52.5116 24.6088 52.0125 25.0473C51.5133 25.4858 51.257 26.1358 51.0802 26.7761C51.0297 26.9585 50.9831 27.1506 51.0219 27.3369C51.0763 27.5969 51.2841 27.7928 51.4259 28.016C51.5696 28.2391 51.6357 28.5709 51.4356 28.7455C51.154 28.4176 50.717 28.2333 50.2858 28.2566C50.1305 28.2663 49.9518 28.2934 49.8333 28.1925C49.7634 28.1324 49.7323 28.0412 49.7012 27.9539C49.4002 27.1545 48.7204 26.5433 47.9591 26.1533C47.7687 26.0563 47.5667 25.967 47.423 25.8099C47.2774 25.6527 47.2055 25.4043 47.3181 25.2239C48.1183 25.1133 48.6019 24.2111 48.5689 23.4039C48.5359 22.5967 48.1339 21.8594 47.7979 21.126C47.4619 20.3906 47.1822 19.566 47.3997 18.7879C47.4658 18.5512 47.5803 18.3145 47.5473 18.07C47.526 17.9109 47.4444 17.7654 47.3628 17.6257C47.0113 17.0184 46.6617 16.413 46.3101 15.8057C46.1897 15.5961 46.0654 15.3458 46.1625 15.1246C46.2091 15.0179 46.3004 14.9403 46.3723 14.8511C46.5762 14.6008 46.6384 14.2399 46.5277 13.9372C46.1198 13.4036 45.0166 13.9255 44.7039 13.3299C44.6651 13.2561 44.6437 13.1669 44.5816 13.1106C44.5175 13.0505 44.4242 13.0388 44.3368 13.0291C44.0397 12.9942 43.7425 12.9612 43.4454 12.9263C43.2803 13.2406 43.0569 13.5743 42.7578 13.8576C41.8955 14.6706 40.3883 14.8239 40.3883 14.8239L40.2271 16.5022C40.2271 16.5022 36.4573 18.3319 35.9737 18.9936C35.4881 19.6552 35.1113 19.9094 35.1113 19.9094H34.5733C34.5733 19.9094 34.519 18.5881 33.8741 18.5881C33.2274 18.5881 32.367 19.6552 32.367 19.6552L30.8598 19.7057L29.4051 17.876L28.0048 17.6722C28.0048 17.6722 28.1116 15.893 28.0592 15.7397C28.0048 15.5864 27.2512 14.3155 26.7132 14.1137C26.1752 13.91 25.206 15.5884 25.206 15.5884L24.2369 15.7416L24.0213 14.9791H23.3745L23.2133 15.5379L16.806 15.6912L16.7516 18.3863C16.7516 18.3863 18.7967 18.59 19.2279 18.59C19.6591 18.59 19.7115 20.0142 19.7115 20.0142C19.7115 20.0142 19.7115 20.0142 18.9036 20.0646C18.0956 20.1151 16.4272 20.4197 16.4272 20.4197C16.4272 20.4197 16.0505 21.386 15.8892 22.6064C15.728 23.8269 17.5576 24.8436 17.882 25.0978C18.2044 25.352 18.9055 27.4358 18.9055 27.4358L16.4836 40.1448L15.3532 40.2457L15.2464 39.6869C15.2464 39.6869 14.7084 39.6364 13.6848 39.6364C12.6613 39.6364 12.3389 40.6027 12.3389 40.6027L10.5618 40.6531L10.4549 41.1615H8.46611L4.64383 43.6024L4.16022 46.0938L3.08424 46.7554L3.3542 48.4338L3.56979 49.1458C3.56979 49.1458 1.90143 50.3158 1.20029 50.57C0.642875 50.7718 0.802137 52.163 0.889536 52.7238C3.86306 54.0393 6.95507 55.0832 10.1189 55.8341C12.1116 56.3075 14.149 56.6723 16.031 57.4794C16.7594 57.7918 17.4566 58.1663 18.1539 58.5427C19.3755 59.2005 20.5991 59.8582 21.78 60.5897C22.52 61.0476 23.2444 61.5346 24.0407 61.8839C24.8021 62.2176 25.6159 62.4175 26.4083 62.6717C27.4648 63.0093 28.4884 63.4478 29.4653 63.9717L30.7647 63.2014C30.821 63.1276 30.8734 63.05 30.9161 62.9646C31.0094 62.7784 31.0657 62.5611 31.2288 62.433C31.3609 62.3302 31.5357 62.3049 31.7027 62.2933C32.2194 62.2564 32.7399 62.3011 33.2429 62.4233C33.4915 62.4835 33.7518 62.5649 33.9984 62.499C34.1422 62.4602 34.2684 62.3748 34.4102 62.3243C34.5559 62.272 34.7132 62.2603 34.8569 62.2079C35.2551 62.0624 35.6105 61.6084 36.0047 61.7694C36.1796 61.8412 36.2844 62.0139 36.4146 62.1497C36.5447 62.2855 36.7603 62.3884 36.9156 62.2817C37.1429 62.1672 37.207 61.8742 37.2128 61.62C37.2167 61.3658 37.1934 61.0903 37.3313 60.8769C37.5663 60.5179 38.0868 60.5529 38.5141 60.5664C38.9822 60.582 39.4541 60.5276 39.9067 60.3996C40.0892 60.6324 40.3961 60.7624 40.6913 60.7275C40.7904 60.3433 40.7671 59.9261 40.6214 59.5555C40.9147 59.476 41.206 59.3964 41.4993 59.3169C41.373 59.0317 41.2468 58.7387 41.2293 58.4282C41.2138 58.1178 41.3322 57.7782 41.6003 57.6211C41.711 57.5551 41.8392 57.524 41.946 57.4542C42.3694 57.1748 42.3131 56.4084 42.7928 56.2357C42.8938 56.1988 43.0064 56.1988 43.1133 56.1988C44.063 56.1969 45.0127 56.1969 45.9625 56.1949C46.1237 56.1949 46.3257 56.2648 46.4014 56.4084C46.4772 56.552 46.5024 56.7208 46.5976 56.8508C46.7296 57.0332 46.9841 57.1243 47.0462 57.3417C47.0734 57.4329 47.0579 57.5338 47.0812 57.6269C47.1453 57.8888 47.458 57.9858 47.6891 58.1236C48.0115 58.3176 48.2232 58.6494 48.4194 58.9696C48.6155 59.2897 48.8253 59.6215 49.1477 59.8175C49.4701 60.0135 49.9401 60.0193 50.181 59.7282C50.2606 59.6312 50.3091 59.5109 50.3927 59.4158C50.6316 59.1481 51.1074 59.2043 51.3424 59.476C51.3677 59.5051 51.3871 59.5361 51.4084 59.5672H64.3669C64.3106 58.8629 64.4135 58.1546 64.6621 57.5008Z" fill="#F3AA47" stroke="#F3AA47"/>
<path d="M62.2421 17.0145C62.1081 17.0475 62.0013 17.061 61.9314 17.0475C61.1234 16.8942 58.1615 15.2313 58.1615 15.2313C58.1615 15.2313 58.3227 13.7063 57.6779 12.9437C57.0331 12.1812 57.6235 10.0973 57.8391 9.48612C58.0547 8.87687 58.8627 7.55358 58.9695 6.99478C59.0763 6.43597 58.3771 4.75761 58.3771 4.75761L56.8156 4.65672L56.7088 3.99508L57.1399 3.58761L56.7495 0.0950775H54.2188C54.2188 0.0950775 54.248 1.40478 53.9528 1.98687C53.6614 2.56508 49.5828 4.57329 49.5828 4.57329L47.5959 4.64896C47.2366 4.66254 46.8947 4.80418 46.6306 5.04672L45.6362 5.96448L45.8285 7.74373C45.8926 8.0212 45.8848 8.26373 45.8848 8.26373L45.8285 7.74373C45.7527 7.41582 45.5779 7.04135 45.1701 6.95791C44.4165 6.80463 44.5388 5.84224 44.5388 5.84224L41.5517 5.67149L40.6777 4.99239L37.9101 4.11926C37.9101 4.11926 37.7625 4.49373 38.516 5.30672C39.2696 6.1197 40.0135 7.65254 40.0135 7.65254C40.0135 7.65254 40.5787 9.36776 40.8467 9.67239C41.1167 9.97702 41.3323 11.7582 41.3323 11.7582L43.8571 11.8067C43.8571 11.8067 43.7561 12.3306 43.4473 12.9224C43.7445 12.9573 44.0416 12.9903 44.3388 13.0252C44.4262 13.0349 44.5194 13.0485 44.5835 13.1067C44.6457 13.163 44.667 13.2522 44.7059 13.326C45.0186 13.9197 46.1218 13.3997 46.5296 13.9333C46.6384 14.2379 46.5782 14.5969 46.3742 14.8472C46.3004 14.9364 46.2111 15.016 46.1645 15.1207C46.0674 15.3419 46.1917 15.5922 46.3121 15.8018C46.6636 16.4091 47.0132 17.0145 47.3648 17.6218C47.4463 17.7615 47.5279 17.9051 47.5493 18.0661C47.5823 18.3106 47.4677 18.5473 47.4017 18.784C47.1822 19.5621 47.4638 20.3867 47.7998 21.1221C48.1358 21.8575 48.5359 22.5948 48.5709 23.4C48.6039 24.2072 48.1222 25.1094 47.3201 25.22C47.2074 25.4024 47.2812 25.6488 47.425 25.806C47.5706 25.9631 47.7726 26.0524 47.961 26.1494C48.7224 26.5394 49.4021 27.1506 49.7032 27.95C49.7362 28.0354 49.7653 28.1285 49.8353 28.1887C49.9537 28.2915 50.1305 28.2624 50.2878 28.2527C50.719 28.2275 51.156 28.4137 51.4376 28.7416C51.6376 28.567 51.5716 28.2352 51.4279 28.0121C51.2842 27.789 51.0783 27.593 51.0239 27.333C50.9851 27.1467 51.0317 26.9566 51.0822 26.7722C51.2589 26.1319 51.5153 25.4819 52.0144 25.0434C52.5136 24.6049 53.3099 24.4458 53.8479 24.8378C54.1178 25.0357 54.2868 25.3384 54.4946 25.6003C54.7024 25.8622 54.9938 26.1028 55.3278 26.0873C55.5959 26.0757 55.827 25.901 56.0387 25.7322C56.2018 25.6022 56.3766 25.4548 56.4097 25.251C56.4621 24.9425 56.1746 24.6728 56.1455 24.3604C56.1086 23.9743 56.4563 23.6775 56.6602 23.3476C57.0098 22.781 56.9845 21.9778 57.5109 21.5684C57.8255 21.3239 58.2509 21.2948 58.649 21.2773C59.6667 21.2307 60.6845 21.1842 61.7022 21.1376C61.8653 21.1299 62.0304 21.0988 62.1936 21.0988C62.1916 21.6188 62.1897 22.1388 62.1877 22.6607C62.211 22.6122 62.2305 22.5618 62.2479 22.5094L62.2421 17.0145Z" fill="#F3AA47" stroke="#F3AA47"/>
<path d="M81.7614 15.3322C82.0507 15.5728 82.21 15.9531 82.5266 16.1549C83.0238 16.4712 83.7269 16.2422 84.2338 16.5469C84.799 16.8864 84.832 17.6878 85.1991 18.2349C85.3894 18.5201 85.671 18.7336 85.8924 18.9975C86.1139 19.2613 86.2751 19.6203 86.1605 19.9463C86.1177 20.0685 86.0362 20.1791 86.0051 20.3052C85.9488 20.5342 86.0614 20.767 86.1721 20.9766C86.5742 21.7391 86.9859 22.5133 87.6016 23.1167C87.7201 23.2331 87.8502 23.3476 87.9201 23.5009C88.0638 23.8133 87.9434 24.2479 88.2095 24.4672C88.3183 24.5584 88.4736 24.5855 88.5727 24.6864C88.6698 24.7854 88.697 24.9309 88.7184 25.0687C88.7747 25.4198 88.8291 25.771 88.8854 26.1222C88.9087 26.2639 88.932 26.4133 89.0175 26.5278C89.0932 26.6287 89.2059 26.6946 89.3166 26.7548C90.144 27.203 91.2063 27.5212 91.9832 26.9934C92.0298 26.4366 92.0803 25.8661 92.3289 25.3655C92.4338 25.156 92.5698 24.9658 92.7077 24.7757C92.9971 24.3721 93.2884 23.9685 93.5778 23.563C93.3214 23.5358 93.1019 23.3709 93.034 23.109C92.8902 22.5676 96.1201 20.2625 96.1201 20.2625C96.1201 20.2625 96.4795 19.923 97.5554 19.7212C98.6314 19.5175 98.2022 18.9761 98.9907 17.6878C99.7812 16.3994 97.9148 15.8581 97.2894 15.4506C96.664 15.0431 97.0524 14.366 97.268 13.8925C97.4836 13.4172 95.9764 13.3512 95.4734 13.4172C94.9704 13.4851 93.8944 10.1633 93.8944 10.1633V7.11507C93.8944 7.11507 92.9427 4.86627 92.0279 4.94582C91.0587 5.03119 86.3741 13.9604 86.3741 13.9604C86.3741 13.9604 85.2981 13.4793 84.9738 13.1242C84.6514 12.7691 84.1658 12.6663 83.251 12.6158C82.3363 12.5654 81.6895 13.3279 81.6895 13.3279L80.295 13.2775L79.5511 12.8157C79.4909 13.423 79.4598 14.0322 79.4618 14.6415C80.1338 15.0975 81.1379 14.8161 81.7614 15.3322Z" fill="#F3AA47" stroke="#F3AA47"/>
<path d="M106.746 25.3481C106.134 24.0364 105.093 23.5999 105.093 23.5999L102.061 22.8722L101.426 22.4842L100.399 21.8536L100.008 21.029L98.2721 21.0522C98.2721 21.0522 98.0604 20.67 97.5593 20.3324C97.0563 19.9928 96.5552 20.8737 96.0521 21.417C95.5491 21.9584 94.8324 22.4337 94.4013 23.1109C94.1779 23.4621 93.8574 23.594 93.5817 23.5649C93.2923 23.9685 93.0009 24.3721 92.7115 24.7776C92.5756 24.9678 92.4377 25.1579 92.3328 25.3675C92.0823 25.8661 92.0318 26.4385 91.9871 26.9954C91.2102 27.5231 90.1459 27.2049 89.3204 26.7567C89.2097 26.6966 89.0971 26.6306 89.0213 26.5297C88.9359 26.4133 88.9106 26.2658 88.8893 26.1242C88.8329 25.773 88.7786 25.4218 88.7222 25.0706C88.7009 24.9328 88.6737 24.7873 88.5766 24.6884C88.4756 24.5875 88.3221 24.5603 88.2134 24.4691C87.9492 24.2499 88.0677 23.8152 87.924 23.5028C87.8541 23.3515 87.7239 23.237 87.6055 23.1187C86.9898 22.5152 86.578 21.7391 86.176 20.9785C86.0653 20.769 85.9526 20.5361 86.009 20.3072C86.04 20.181 86.1197 20.0724 86.1643 19.9482C86.2789 19.6242 86.1177 19.2633 85.8963 18.9994C85.6768 18.7355 85.3952 18.5221 85.2029 18.2369C84.8359 17.6897 84.8029 16.8884 84.2377 16.5488C83.7327 16.2442 83.0277 16.4731 82.5305 16.1569C82.2139 15.9551 82.0546 15.5748 81.7652 15.3342C81.1418 14.8181 80.1357 15.1013 79.4676 14.6434C79.4657 14.0342 79.4967 13.4249 79.5569 12.8176L78.0886 11.9057L73.1884 12.3131C73.1884 12.3131 73.1884 13.4831 73.4584 13.5336C73.7284 13.584 73.7808 14.4067 73.7808 14.4067L68.2882 13.9993C68.2882 13.9993 63.6599 16.671 62.244 17.0164L62.2499 22.5133C62.2324 22.5657 62.211 22.6161 62.1897 22.6646C62.1897 22.8276 62.1877 22.9906 62.1877 23.1536C62.1877 23.3612 62.1974 23.594 62.3489 23.7337C62.4752 23.8502 62.6694 23.8715 62.7937 23.9899C63.0287 24.2149 62.8791 24.6127 62.9704 24.9251C63.0967 25.3597 63.6386 25.511 63.926 25.8642C64.1222 26.1048 64.1863 26.423 64.3028 26.7102C64.4193 26.9973 64.6388 27.2884 64.9495 27.3136C65.3477 27.3466 65.7847 26.9391 66.0935 27.1894C66.2586 27.3233 66.2605 27.5775 66.1906 27.7773C66.1576 27.8685 66.1129 27.9636 66.1343 28.0587C66.1576 28.1615 66.2547 28.2294 66.3441 28.2876C67.0918 28.7707 67.8668 29.2636 68.7427 29.4169C68.9233 29.4479 69.1098 29.4654 69.2749 29.543C69.7041 29.7428 69.8769 30.2784 70.2751 30.5364C70.4596 30.6567 70.681 30.7091 70.8655 30.8255C71.052 30.9419 71.2054 31.167 71.1316 31.3727C71.9124 31.526 72.7417 31.427 73.4662 31.0972C73.5672 31.3009 73.4001 31.5415 73.2078 31.6637C73.0156 31.786 72.7825 31.8597 72.6407 32.0382C72.5009 32.2148 72.4834 32.4554 72.4426 32.6766C72.3591 33.117 72.159 33.5361 71.8677 33.8757C71.8755 34.0872 71.7997 34.2734 71.7259 34.4713C70.9083 36.6794 69.9663 38.8428 68.902 40.9442C67.791 43.1406 66.8296 45.3176 65.8158 47.5606C65.3322 48.6297 64.8466 49.7027 64.2037 50.6825C64.1125 50.8203 64.0173 50.9678 64.0192 51.1327C64.0212 51.2782 64.1008 51.4082 64.1785 51.5304C64.4096 51.8972 64.6388 52.2658 64.8699 52.6325C65.0214 52.8751 65.1729 53.1254 65.2351 53.4028C65.7206 53.7191 66.1343 54.1498 66.3363 54.6893C66.5383 55.2306 66.5208 55.8476 66.7985 56.356C66.9772 56.6819 67.2705 56.9536 67.3598 57.3145C67.4162 57.5434 67.3831 57.784 67.3793 58.0207C67.3676 58.5737 67.5191 59.1287 67.8085 59.6002C68.4397 59.5982 68.7757 60.4034 69.3797 60.5858C69.5099 60.6246 69.6614 60.6401 69.7468 60.7469C69.8672 60.8963 69.7818 61.131 69.8731 61.2999C70.0576 61.6394 70.7393 61.4221 70.8636 61.7888C70.8927 61.8761 70.8752 61.9751 70.9005 62.0643C70.9646 62.2913 71.2501 62.3573 71.4851 62.3787C72.3338 62.4582 73.1884 62.4873 74.0391 62.4679C78.3897 62.369 82.9014 63.0519 87.2423 63.3527C90.7538 63.5952 94.2653 63.8378 97.7768 64.0822C97.9575 64.0939 98.1614 64.0997 98.2896 63.9716C98.4042 63.8591 98.4158 63.6825 98.4314 63.5234C98.5188 62.6251 98.9091 61.7578 99.5248 61.0961C99.7967 60.8031 100.109 60.5528 100.399 60.2773C101.521 59.214 102.294 57.786 102.57 56.2648C102.627 55.9602 102.656 55.6225 102.487 55.3625C102.285 55.054 101.838 54.9202 101.753 54.5612C101.716 54.4099 101.756 54.2508 101.797 54.0994C102.011 53.3078 102.226 52.5161 102.44 51.7245C102.479 51.5828 102.522 51.4334 102.632 51.3364C102.747 51.2375 102.908 51.2181 103.06 51.1909C103.972 51.0221 104.736 50.3702 105.249 49.5979C105.759 48.8237 106.053 47.9312 106.342 47.0503C106.474 46.6467 106.589 46.1578 106.309 45.8396C106.066 45.566 105.651 45.564 105.287 45.5058C104.926 45.4476 104.507 45.2012 104.557 44.8384C104.577 44.6967 104.668 44.5745 104.761 44.4639C106.22 42.7273 108.698 42.0172 109.949 40.1254C110.728 38.9476 111.188 37.4536 112.033 36.3224C112.371 35.8684 112.835 35.4687 112.953 34.9157C113.054 34.4384 112.885 33.897 113.14 33.4818C113.328 33.1752 113.713 33.0084 113.833 32.6707C113.915 32.4418 113.854 32.1857 113.921 31.9528C113.988 31.7219 114.171 31.5454 114.311 31.3513C114.659 30.8663 114.752 30.2493 114.833 29.6594C114.929 28.9725 115.022 28.2837 115.076 27.593C112.94 26.6791 109.993 25.416 109.622 25.286C109.044 25.0764 107.824 25.0764 106.746 25.3481Z" fill="#F3AA47" stroke="#F3AA47"/>
<path d="M56.3533 78.8673C56.5708 78.4696 56.6932 78.0213 56.9573 77.6527C57.0719 77.4936 57.2137 77.35 57.2992 77.1715C57.4992 76.7582 57.3691 76.2227 57.6352 75.8482C57.8275 75.5785 58.1906 75.4563 58.3421 75.1633C58.4626 74.9324 58.4198 74.6511 58.3285 74.4066C58.1596 73.9584 57.8391 73.5858 57.5905 73.1764C57.3419 72.767 57.2273 72.2664 57.3749 71.8124C57.2448 71.6048 57.5167 71.3914 57.6779 71.207C57.9925 70.8461 57.9051 70.297 57.7983 69.8294C57.7867 69.777 57.7731 69.7227 57.7342 69.6839C57.6837 69.6334 57.6041 69.6276 57.5322 69.6257C57.2215 69.6179 56.9127 69.6082 56.6019 69.6005C56.3727 69.5946 56.0756 69.5325 56.0464 69.3036C54.5451 69.2124 53.0438 69.1193 51.5425 69.0281C51.6959 68.3431 51.7367 67.6311 51.6648 66.9325C51.6493 66.7851 51.6279 66.6357 51.5716 66.4979C51.4939 66.3136 51.3521 66.1584 51.2919 65.9663C51.2336 65.78 51.2608 65.5782 51.288 65.3842C51.3774 64.74 51.4667 64.0958 51.5561 63.4497C51.5755 63.3042 51.5968 63.1567 51.5716 63.0112C51.5172 62.7046 51.2744 62.4737 51.1093 62.2079C51.0705 62.1458 51.0355 62.076 51.0472 62.0061C51.0588 61.9285 51.1171 61.8684 51.1579 61.8024C51.2977 61.5715 51.1987 61.2708 51.2472 61.0049C51.2803 60.8206 51.3851 60.6596 51.4531 60.4849C51.5832 60.1512 51.5696 59.7399 51.3366 59.4682C51.1035 59.1966 50.6257 59.1403 50.3868 59.4081C50.3033 59.5012 50.2548 59.6235 50.1751 59.7205C49.9343 60.0115 49.4643 60.0037 49.1419 59.8097C48.8195 59.6137 48.6097 59.282 48.4135 58.9618C48.2174 58.6417 48.0057 58.3099 47.6833 58.1158C47.4502 57.9761 47.1395 57.8811 47.0754 57.6191C47.0521 57.526 47.0676 57.427 47.0404 57.3339C46.9783 57.1185 46.7238 57.0254 46.5918 56.843C46.4966 56.713 46.4713 56.5442 46.3956 56.4006C46.3198 56.257 46.1179 56.1872 45.9566 56.1872C45.0069 56.1891 44.0572 56.1891 43.1074 56.1911C42.9987 56.1911 42.888 56.1911 42.787 56.2279C42.3092 56.4006 42.3655 57.167 41.9402 57.4464C41.8333 57.5163 41.7051 57.5493 41.5944 57.6133C41.3264 57.7724 41.2079 58.11 41.2235 58.4205C41.239 58.7309 41.3672 59.0239 41.4934 59.3091C41.2002 59.3887 40.9088 59.4682 40.6156 59.5478C40.7612 59.9184 40.7845 60.3336 40.6855 60.7197C40.3922 60.7527 40.0834 60.6246 39.9008 60.3918C39.4483 60.5179 38.9783 60.5742 38.5083 60.5587C38.081 60.5431 37.5585 60.5102 37.3255 60.8691C37.1856 61.0826 37.2109 61.3561 37.207 61.6123C37.2031 61.8664 37.139 62.1594 36.9098 62.2739C36.7544 62.3806 36.5389 62.2778 36.4087 62.142C36.2786 62.0061 36.1737 61.8315 35.9989 61.7617C35.6047 61.6006 35.2512 62.0546 34.8511 62.2002C34.7054 62.2526 34.55 62.2642 34.4044 62.3166C34.2645 62.367 34.1363 62.4524 33.9926 62.4912C33.746 62.5572 33.4857 62.4776 33.2371 62.4155C32.7341 62.2914 32.2136 62.2487 31.6969 62.2855C31.5299 62.2972 31.3551 62.3224 31.223 62.4252C31.0599 62.5533 31.0036 62.7726 30.9103 62.9569C30.8676 63.0423 30.8152 63.1199 30.7588 63.1936L31.3998 62.8133L33.9849 62.7629C33.9849 62.7629 34.8996 62.4582 35.4376 62.9666C35.9756 63.4749 35.0608 65.0505 35.0608 65.4075C35.0608 65.7626 35.222 69.5248 35.3308 70.0836C35.4376 70.6424 38.9025 74.2863 38.9025 74.2863C38.9025 74.2863 39.9785 74.49 42.6355 74.5579C42.9948 75.7784 48.3067 76.9988 48.3067 76.9988L49.5264 78.3551C49.5264 78.3551 53.1156 78.8305 53.978 79.236C54.4752 79.4708 54.7568 79.8181 54.9258 80.2391C55.5162 79.9073 56.0328 79.4533 56.3533 78.8673Z" fill="#F3AA47" stroke="#F3AA47"/>
<path d="M69.17 98.1946C69.7954 97.9948 70.1974 97.4069 70.5722 96.8694C70.817 96.5182 71.1025 96.1476 71.5181 96.039C71.825 95.9594 72.1493 96.037 72.4659 96.0118C73.0525 95.9652 73.5943 95.5694 74.1789 95.6412C74.447 95.6742 74.6897 95.8042 74.9267 95.9323C75.7482 96.3746 76.5698 96.817 77.3914 97.2575C77.6322 97.3875 77.8827 97.5194 78.1546 97.533C78.5761 97.5543 78.951 97.2963 79.32 97.0945C79.689 96.8927 80.161 96.7433 80.5164 96.9684C80.6484 97.0518 80.7475 97.1799 80.8776 97.2691C81.3418 97.5912 81.9866 97.3099 82.4178 96.9451C82.849 96.5803 83.253 96.1127 83.8123 96.0254C84.0784 96.4406 83.8026 96.9878 83.4802 97.3603C83.1558 97.7309 82.7519 98.1093 82.7402 98.6021C83.3947 98.7282 84.059 98.7981 84.7252 98.8117C85.2962 98.8233 85.7856 98.9087 86.3508 98.9843C86.4731 98.7379 86.244 98.476 86.0808 98.2548C85.7137 97.7561 85.6458 97.0848 85.772 96.4775C85.8982 95.8721 86.1993 95.3172 86.5198 94.7875C86.7936 94.3373 87.0869 93.893 87.4617 93.5224C87.687 93.2993 87.9434 93.1014 88.1299 92.8452C88.3163 92.5891 88.427 92.2476 88.3163 91.9508C88.2658 91.8149 88.1706 91.6888 88.1706 91.5452C88.1706 91.3609 88.3241 91.2115 88.4892 91.132C88.6542 91.0524 88.8388 91.0194 89.0038 90.936C89.3612 90.7555 89.571 90.3636 89.9167 90.1618C90.1167 90.0454 90.3459 90.0008 90.5693 89.9426C91.0393 89.8184 91.5171 89.6127 91.8084 89.2227C92.1269 88.7978 92.1697 88.237 92.2726 87.717C92.3755 87.197 92.5989 86.6324 93.0883 86.4267C93.2825 86.3452 93.4962 86.3317 93.7021 86.2929C94.1449 86.2114 94.5741 86.0018 94.8635 85.6564C95.1529 85.3111 95.283 84.8202 95.1412 84.3933C94.9839 83.9199 95.2597 83.2912 95.3374 82.8003C95.3646 82.6276 95.3937 82.453 95.4423 82.2861C95.4947 82.1134 95.5685 81.9485 95.6074 81.772C95.6851 81.4227 95.6113 81.054 95.6715 80.7009C95.7336 80.3303 95.9375 80.0005 96.1143 79.6687C96.594 78.7664 96.8951 77.7711 96.9999 76.7543C96.9844 76.7776 96.9708 76.8029 96.9533 76.8261C96.8213 76.9949 96.5785 77.1055 96.3881 77.0066C96.3609 75.4776 96.3318 73.9487 96.3046 72.4178C96.3007 72.2373 96.2988 72.0569 96.26 71.8803C96.2289 71.7406 96.1745 71.6048 96.1473 71.4632C96.1046 71.2439 96.1221 71.0188 96.1434 70.7976C96.359 68.6458 96.9553 66.5309 97.8972 64.5829C97.9672 64.4393 98.039 64.2899 98.039 64.1308C98.039 64.1114 98.0351 64.0939 98.0332 64.0745C97.9477 64.0842 97.8584 64.0823 97.7729 64.0764C94.2614 63.8339 90.7499 63.5914 87.2384 63.3469C82.8975 63.0461 78.3858 62.3632 74.0352 62.4621C73.1826 62.4815 72.33 62.4524 71.4812 62.3729C71.2462 62.3515 70.9607 62.2855 70.8966 62.0585C70.8714 61.9693 70.8888 61.8703 70.8597 61.783C70.7354 61.4163 70.0537 61.6336 69.8692 61.294C69.7779 61.1252 69.8633 60.8905 69.7429 60.7411C69.6575 60.6343 69.506 60.6188 69.3758 60.58C68.7718 60.3976 68.4358 59.5943 67.8046 59.5943C67.5152 59.1229 67.3657 58.5679 67.3754 58.0149C67.3793 57.7782 67.4142 57.5376 67.3559 57.3087C67.2666 56.9478 66.9714 56.6781 66.7946 56.3502C66.5189 55.8418 66.5363 55.2248 66.3324 54.6834C66.1304 54.146 65.7187 53.7133 65.2312 53.397C65.235 53.4126 65.2409 53.4281 65.2448 53.4436C65.3613 54.0781 64.9631 54.6796 64.6368 55.2364C64.5009 55.4693 64.3688 55.737 64.4387 55.997C64.5048 56.2396 64.732 56.4123 64.8078 56.6529C64.8971 56.9303 64.765 57.2252 64.6621 57.4969C64.4135 58.1508 64.3086 58.859 64.3611 59.5555H51.4026C51.5716 59.8233 51.5716 60.1823 51.455 60.4811C51.3871 60.6557 51.2841 60.8167 51.2492 61.0011C51.2006 61.2669 51.2997 61.5676 51.1598 61.7985C51.119 61.8645 51.0588 61.9246 51.0491 62.0023C51.0394 62.074 51.0744 62.1439 51.1113 62.204C51.2744 62.4679 51.5191 62.7008 51.5735 63.0073C51.5988 63.1529 51.5794 63.3003 51.558 63.4458C51.4686 64.09 51.3793 64.7342 51.29 65.3803C51.2628 65.5743 51.2356 65.7761 51.2938 65.9624C51.3541 66.1545 51.4958 66.3097 51.5735 66.494C51.6318 66.6318 51.6512 66.7812 51.6668 66.9287C51.7386 67.6272 51.6978 68.3373 51.5444 69.0242C53.0457 69.1154 54.5471 69.2085 56.0484 69.2997C56.0795 69.5267 56.3747 69.5888 56.6039 69.5966C56.9146 69.6043 57.2234 69.614 57.5342 69.6218C57.606 69.6237 57.6857 69.6296 57.7362 69.68C57.775 69.7169 57.7886 69.7731 57.8003 69.8255C57.9071 70.2931 57.9945 70.8403 57.6798 71.2032C57.5186 71.3875 57.2467 71.6009 57.3769 71.8085C57.2293 72.2645 57.3438 72.7651 57.5924 73.1726C57.841 73.582 58.1615 73.9545 58.3305 74.4027C58.4218 74.6452 58.4626 74.9285 58.3441 75.1594C58.1906 75.4524 57.8294 75.5766 57.6371 75.8443C57.3691 76.2169 57.4992 76.7543 57.3011 77.1676C57.2157 77.3461 57.0739 77.4878 56.9593 77.6488C56.6951 78.0155 56.5708 78.4657 56.3553 78.8635C56.0348 79.4494 55.5182 79.9035 54.9316 80.2314C55.0559 80.5399 55.12 80.8891 55.1647 81.2617C55.2676 82.1426 56.0659 82.7537 56.0659 82.7537L56.2814 84.7193C56.2814 84.7193 54.918 84.923 55.2055 85.1267C55.4929 85.3305 56.0678 86.9234 56.0678 86.9234V90.2103C56.0678 90.2103 59.7289 90.6178 63.4618 90.6857C63.1025 94.8884 64.6582 95.2939 64.6582 95.2939C64.6582 95.2939 65.8294 95.1581 66.6917 96.6502C66.9287 97.0596 67.0374 97.4418 67.0763 97.7833C67.7444 98.086 68.4747 98.4158 69.17 98.1946Z" fill="#F3AA47" stroke="#F3AA47"/>
<path d="M108.758 45.3622C108.937 45.4728 109.119 45.5873 109.248 45.7522C109.372 45.9113 109.44 46.1073 109.5 46.3013C110.197 48.5637 110.05 51.22 108.55 53.0517C108.787 53.2767 109.086 53.4397 109.405 53.5154C109.537 54.3128 110.077 54.9745 110.595 55.5934C110.955 56.0222 111.52 56.4937 112.002 56.2085C112.147 56.1231 112.252 55.9776 112.392 55.8825C112.815 55.5934 113.466 55.8903 113.616 56.3793C113.767 56.8682 113.489 57.4193 113.056 57.6948C112.854 57.8228 112.615 57.9082 112.468 58.0964C112.343 58.2555 112.307 58.4631 112.262 58.6611C112.091 59.4411 111.774 60.1881 111.333 60.8555C111.998 60.9914 111.971 62.0372 112.534 62.4155C112.858 62.6328 113.425 62.7124 113.39 63.1024C113.375 63.279 113.215 63.4128 113.175 63.5855C113.138 63.7408 113.198 63.8999 113.256 64.0473C113.47 64.577 113.695 65.1261 114.115 65.5161C114.532 65.9061 115.202 66.0924 115.688 65.7897C116.226 65.456 116.311 64.7225 116.342 64.09C116.372 63.4808 116.401 62.8618 116.245 62.2739C116.119 61.7927 115.876 61.3425 115.803 60.8517C115.575 59.3149 117.026 58.0479 117.347 56.5267C117.442 56.0805 117.44 55.6051 117.642 55.1976C118.1 54.2702 119.318 54.113 120.303 53.7967C121.406 53.4436 122.396 52.7451 123.099 51.8273C123.317 51.544 123.523 51.2258 123.843 51.0706C124.036 50.9775 124.255 50.9503 124.469 50.9445C125.106 50.9251 125.735 51.0648 126.368 51.1191C127.003 51.1734 127.679 51.1327 128.213 50.7893C128.749 50.4458 129.079 49.724 128.811 49.1458C128.58 48.6491 128.002 48.4008 127.718 47.9331C127.252 47.1648 127.735 46.1927 128.205 45.4282C128.676 44.6637 129.142 43.6742 128.65 42.9233C128.547 42.7642 128.402 42.6225 128.365 42.4363C128.293 42.0754 128.66 41.7319 128.58 41.373C128.543 41.2081 128.419 41.08 128.338 40.9325C127.961 40.2515 128.547 39.454 129.091 38.8991C129.103 38.1928 129.462 37.5603 130.041 37.1567C130.674 36.7163 131.517 36.6115 132.082 36.0876C132.449 35.7481 132.655 35.2727 132.83 34.8051C132.836 34.7896 132.842 34.7721 132.847 34.7566C132.735 34.7236 132.603 34.6848 132.436 34.6343C131.288 34.2948 131.645 33.8213 131.645 33.8213C131.645 33.8213 129.06 33.8213 128.631 33.7534C128.2 33.6855 128.128 33.0084 126.836 32.533C125.545 32.0576 123.391 32.3972 122.888 32.3972C122.385 32.3972 121.884 32.6009 121.466 32.9385C121.05 33.2781 120.734 34.2269 120.159 34.091C119.584 33.9552 121.235 32.1934 121.45 32.1255C121.666 32.0576 119.368 28.3982 118.865 27.9228C118.362 27.4475 117.646 28.6679 117.286 28.5321C117.16 28.4836 116.23 28.0878 115.059 27.5872C115.006 28.2779 114.913 28.9667 114.816 29.6536C114.734 30.2454 114.641 30.8604 114.293 31.3455C114.154 31.5415 113.971 31.7161 113.903 31.947C113.835 32.1799 113.895 32.4379 113.816 32.6649C113.695 33.0025 113.311 33.1713 113.122 33.476C112.868 33.8912 113.037 34.4325 112.936 34.9099C112.817 35.4628 112.355 35.8625 112.015 36.3166C111.172 37.4478 110.71 38.9418 109.931 40.1196C108.682 42.0113 106.202 42.7215 104.744 44.4581C104.65 44.5687 104.559 44.689 104.54 44.8325C104.534 44.8791 104.536 44.9237 104.544 44.9664C104.977 44.5958 105.522 44.3611 106.093 44.3494C107.068 44.3339 107.944 44.8558 108.758 45.3622Z" fill="#F3AA47" stroke="#F3AA47"/>
<path d="M117.376 65.3609C117.652 65.4715 117.566 65.8984 117.733 66.1428C117.84 66.2961 118.046 66.3718 118.118 66.5445C118.254 66.8704 117.799 67.2061 117.892 67.5476C117.918 67.6407 117.984 67.7203 118.05 67.7921C118.543 68.3315 119.196 68.7234 119.904 68.9078C120.019 68.9369 120.141 68.9621 120.256 68.931C120.456 68.8767 120.571 68.6769 120.689 68.5081C121.161 67.8328 121.99 67.4215 122.816 67.4584C122.979 67.4661 123.148 67.4894 123.303 67.439C123.453 67.3924 123.575 67.2818 123.688 67.1731C124.325 66.5542 124.851 65.8227 125.232 65.0213C125.306 64.8661 125.376 64.7031 125.37 64.5324C125.356 64.0454 124.776 63.7505 124.673 63.2731C124.607 62.9724 124.752 62.6581 124.974 62.4427C125.193 62.2273 125.479 62.0954 125.758 61.9693C125.916 61.8994 126.094 61.8315 126.252 61.8994C126.512 62.0119 126.588 62.4446 126.869 62.4369C126.968 62.433 127.054 62.3709 127.145 62.334C127.448 62.2157 127.784 62.4039 128.029 62.6193C128.273 62.8346 128.51 63.0946 128.831 63.1548C129.208 63.2266 129.569 62.9976 129.886 62.7803C130.476 62.3767 131.103 61.9654 131.814 61.9033C132.1 61.8781 132.399 61.9091 132.659 61.7927C132.845 61.7093 132.993 61.5599 133.137 61.4143C133.646 60.8943 134.154 60.3743 134.663 59.8543C135.18 59.3266 135.827 58.6882 136.417 58.2458C137.025 57.7899 137.594 57.2796 138.113 56.7246C138.194 56.6373 138.28 56.5384 138.293 56.4181C138.305 56.3133 138.258 56.2104 138.21 56.1154C138.02 55.7448 137.781 55.3936 137.666 54.9939C137.551 54.5942 137.588 54.1149 137.889 53.8278C138.045 53.6803 138.262 53.5872 138.354 53.3951C138.445 53.203 138.379 52.9721 138.423 52.7625C138.497 52.4075 138.87 52.1649 138.913 51.804C138.958 51.4199 138.604 51.1094 138.258 50.9367C137.913 50.764 137.515 50.6302 137.305 50.3042C137.21 50.1587 137.165 49.986 137.122 49.8172C136.864 48.8296 136.606 47.8264 136.629 46.8058C136.642 46.2257 136.602 45.6436 136.604 45.0634C136.604 44.883 136.604 44.7006 136.549 44.5299C136.495 44.3611 136.392 44.2116 136.279 44.0739C135.873 43.5733 135.316 43.1251 135.223 42.4867C135.151 41.99 135.386 41.5069 135.586 41.0451C135.786 40.5833 135.955 40.0536 135.759 39.5918C135.658 39.3551 135.473 39.1669 135.33 38.9534C134.83 38.2122 134.873 37.2402 135.001 36.3554C135.089 35.75 135.205 35.1311 135.192 34.5257C134.929 34.5587 134.702 34.5936 134.531 34.6305C133.426 34.8614 133.525 34.9448 132.861 34.7527C132.855 34.7682 132.849 34.7857 132.844 34.8012C132.667 35.2688 132.463 35.7442 132.096 36.0837C131.529 36.6076 130.688 36.7124 130.054 37.1528C129.476 37.5564 129.114 38.189 129.105 38.8952C128.559 39.4502 127.972 40.2476 128.351 40.9287C128.433 41.0761 128.557 41.2042 128.594 41.3691C128.674 41.7281 128.308 42.0715 128.378 42.4324C128.415 42.6187 128.559 42.7603 128.664 42.9194C129.155 43.6703 128.689 44.6599 128.219 45.4243C127.749 46.1888 127.265 47.1609 127.732 47.9293C128.015 48.3969 128.594 48.6452 128.825 49.1419C129.093 49.7182 128.761 50.44 128.227 50.7854C127.691 51.1288 127.015 51.1696 126.382 51.1152C125.747 51.0609 125.117 50.9193 124.482 50.9406C124.269 50.9464 124.049 50.9736 123.857 51.0667C123.534 51.2219 123.331 51.5402 123.113 51.8234C122.408 52.7431 121.419 53.4397 120.316 53.7928C119.332 54.1091 118.114 54.2663 117.655 55.1937C117.453 55.6031 117.455 56.0785 117.36 56.5228C117.038 58.0421 115.589 59.311 115.816 60.8478C115.888 61.3406 116.133 61.7888 116.259 62.27C116.412 62.8599 116.385 63.4788 116.356 64.0861C116.331 64.61 116.263 65.1999 115.937 65.5782C116.199 65.7451 116.484 65.8654 116.787 65.9197C116.824 65.8149 116.857 65.7082 116.91 65.6093C116.991 65.4366 117.193 65.2872 117.376 65.3609Z" fill="#F3AA47" stroke="#F3AA47"/>
<path d="M97.8992 64.5848C96.9572 66.5328 96.361 68.6478 96.1454 70.7996C96.124 71.0207 96.1046 71.2458 96.1493 71.4651C96.1784 71.6067 96.2308 71.7406 96.2619 71.8822C96.3008 72.0588 96.3046 72.2392 96.3066 72.4197C96.3338 73.9487 96.3629 75.4776 96.3901 77.0085C96.5804 77.1094 96.8232 76.9969 96.9553 76.8281C97.0874 76.6592 97.1456 76.4458 97.235 76.2498C97.4777 75.7124 97.9808 75.301 98.5557 75.1672C98.2974 75.8191 98.0371 76.471 97.7788 77.1249C98.4236 77.0104 99.0742 77.286 99.6278 77.6352C100.181 77.9845 100.69 78.4152 101.292 78.6694C101.479 78.747 101.735 78.7897 101.848 78.6228C101.916 78.5239 101.898 78.3939 101.896 78.2736C101.889 77.7516 102.267 77.2472 102.77 77.1055C102.9 77.2122 102.99 77.3655 103.023 77.5304C103.266 77.577 103.565 77.5149 103.67 77.2918C103.714 77.2006 103.739 77.0706 103.838 77.0551C103.895 77.0454 103.949 77.0803 103.996 77.1133C104.534 77.4878 105.124 77.9476 105.175 78.5995C105.491 78.6461 105.822 78.6907 106.123 78.586C106.21 78.5569 106.293 78.5142 106.383 78.4967C106.598 78.454 106.814 78.5549 107.012 78.6519C107.577 78.9313 108.142 79.2107 108.708 79.4901C108.733 79.1525 108.76 78.8149 108.785 78.4773C109.195 78.2464 109.669 78.6733 110.139 78.7063C110.345 78.7198 110.549 78.6578 110.739 78.5782C111.132 78.4172 111.499 78.1921 111.817 77.9127C111.92 77.8234 112.023 77.7245 112.155 77.6876C112.301 77.6469 112.456 77.6895 112.606 77.7128C113.647 77.8816 114.732 76.9852 114.76 75.9316C114.763 75.7861 114.75 75.6387 114.692 75.5048C114.571 75.2293 114.284 75.0682 114.099 74.8315C113.837 74.4978 113.804 74.003 114.016 73.6363C114.152 73.4015 114.391 73.1687 114.317 72.9048C114.292 72.8155 114.233 72.7418 114.202 72.6545C114.082 72.3188 114.408 72.0006 114.695 71.791C114.501 71.3409 113.833 71.3525 113.497 70.9975C113.177 70.6579 113.266 70.0952 113.509 69.6955C113.752 69.2978 114.115 68.9815 114.346 68.576C114.796 67.7785 115.465 67.1421 116.267 66.6958C116.581 66.5212 116.96 66.3136 116.989 65.9546C116.605 65.9275 116.243 65.7897 115.919 65.5821C115.851 65.6597 115.777 65.7334 115.684 65.7897C115.199 66.0924 114.528 65.9061 114.111 65.5161C113.693 65.1261 113.466 64.577 113.252 64.0473C113.192 63.8998 113.132 63.7388 113.171 63.5855C113.214 63.4128 113.371 63.279 113.386 63.1024C113.421 62.7124 112.856 62.6328 112.53 62.4155C111.967 62.0391 111.994 60.9933 111.33 60.8555C111.771 60.1881 112.085 59.441 112.258 58.661C112.301 58.4631 112.34 58.2555 112.464 58.0964C112.611 57.9082 112.85 57.8228 113.052 57.6948C113.485 57.4212 113.763 56.8702 113.612 56.3793C113.46 55.8903 112.81 55.5934 112.388 55.8825C112.248 55.9796 112.145 56.1231 111.998 56.2085C111.516 56.4918 110.951 56.0203 110.592 55.5934C110.071 54.9745 109.533 54.3128 109.401 53.5154C109.082 53.4397 108.785 53.2787 108.546 53.0516C110.046 51.2181 110.193 48.5637 109.496 46.3013C109.436 46.1073 109.37 45.9113 109.244 45.7522C109.114 45.5873 108.933 45.4728 108.754 45.3622C107.939 44.8578 107.063 44.3339 106.103 44.3552C105.532 44.3669 104.986 44.6016 104.553 44.9722C104.608 45.2613 104.965 45.4534 105.28 45.5058C105.641 45.564 106.057 45.566 106.301 45.8396C106.583 46.1558 106.466 46.6467 106.334 47.0503C106.047 47.9312 105.754 48.8237 105.241 49.5979C104.73 50.3721 103.965 51.024 103.052 51.1909C102.902 51.2181 102.741 51.2375 102.625 51.3364C102.514 51.4315 102.469 51.5828 102.432 51.7245C102.219 52.5161 102.003 53.3078 101.789 54.0994C101.749 54.2507 101.708 54.4079 101.745 54.5612C101.83 54.9202 102.277 55.054 102.479 55.3625C102.648 55.6206 102.619 55.9602 102.562 56.2648C102.285 57.786 101.512 59.2121 100.391 60.2773C100.102 60.5528 99.789 60.8031 99.5171 61.0961C98.9014 61.7578 98.511 62.6231 98.4236 63.5234C98.4081 63.6825 98.3945 63.8591 98.2818 63.9716C98.2138 64.0396 98.1245 64.0687 98.0293 64.0803C98.0313 64.0997 98.0352 64.1172 98.0352 64.1366C98.0429 64.2918 97.9691 64.4412 97.8992 64.5848Z" fill="#F3AA47" stroke="#F3AA47"/>
<path d="M139.055 53.7734C139.808 54.049 140.622 53.6337 141.42 53.5542C141.58 53.5387 141.743 53.5367 141.896 53.5833C142.118 53.6531 142.292 53.8181 142.459 53.9772C142.83 54.3322 143.199 54.6873 143.57 55.0424C143.798 55.2616 144.046 55.4887 144.357 55.543C144.712 55.6031 145.068 55.4149 145.326 55.1627C145.584 54.9104 145.771 54.5961 146.002 54.3206C146.198 54.0858 146.441 53.8433 146.447 53.5367C146.454 53.0206 145.808 52.7315 145.666 52.2367C145.53 51.7594 145.897 51.3015 146.082 50.8416C146.392 50.0675 146.214 49.1148 146.707 48.4415C147.06 47.9603 147.678 47.7488 148.103 47.3297C148.437 46.9999 148.638 46.5613 148.828 46.1325C149.109 45.5039 149.391 44.8752 149.671 44.2466C149.764 44.037 149.859 43.8255 149.997 43.6431C150.42 43.0785 151.139 42.8942 151.836 42.6963L143.378 36.5281C141.183 34.9273 138.466 34.1842 135.757 34.4636C135.555 34.4849 135.364 34.5063 135.19 34.5276C135.203 35.133 135.089 35.7519 134.999 36.3573C134.871 37.2421 134.828 38.2142 135.328 38.9554C135.471 39.1688 135.656 39.357 135.757 39.5937C135.953 40.0555 135.784 40.5872 135.584 41.047C135.384 41.5088 135.151 41.99 135.221 42.4887C135.312 43.127 135.869 43.5752 136.277 44.0758C136.39 44.2136 136.493 44.361 136.547 44.5318C136.602 44.7025 136.602 44.8869 136.602 45.0654C136.6 45.6455 136.641 46.2276 136.627 46.8078C136.602 47.8284 136.862 48.8315 137.12 49.8191C137.165 49.9879 137.21 50.1587 137.303 50.3061C137.513 50.6321 137.911 50.764 138.256 50.9387C138.602 51.1113 138.956 51.4237 138.911 51.806C138.87 52.1649 138.495 52.4094 138.422 52.7645C138.379 52.974 138.443 53.203 138.352 53.397C138.346 53.4087 138.338 53.4203 138.332 53.4319C138.373 53.4475 138.416 53.461 138.455 53.4785C138.658 53.5716 138.845 53.6978 139.055 53.7734Z" fill="#F3AA47" stroke="#F3AA47"/>
<path d="M148.469 49.7454C148.838 49.5552 149.158 49.2836 149.498 49.0449C150.185 48.5637 150.968 48.2164 151.788 48.034C151.885 48.0127 151.99 47.9933 152.081 48.034C152.229 48.102 152.269 48.3037 152.211 48.457C152.153 48.6084 152.027 48.7209 151.908 48.8334C151.504 49.2157 151.153 49.6561 150.871 50.1373C150.756 50.3333 150.663 50.6088 150.83 50.7621C151.056 50.9678 151.514 50.7136 151.683 50.9658C151.788 51.1211 151.687 51.3733 151.829 51.4955C151.941 51.5945 152.122 51.5285 152.227 51.4218C152.332 51.3151 152.398 51.1734 152.516 51.0822C152.668 50.9658 152.872 50.9542 153.062 50.9484C153.344 50.9387 153.683 50.96 153.819 51.2045C153.932 51.4063 153.858 51.6973 154.029 51.8545C154.163 51.9787 154.388 51.9418 154.528 51.8254C154.668 51.709 154.744 51.5343 154.814 51.3675C154.917 51.123 155.02 50.8649 154.985 50.603C154.942 50.3061 154.721 50.0306 154.777 49.7357C154.845 49.3845 155.282 49.2234 155.633 49.2894C155.985 49.3554 156.288 49.5727 156.616 49.7163C157.214 49.9763 157.888 49.986 158.539 49.9899C159.467 49.9957 160.394 50.0015 161.322 50.0073C160.582 47.2909 159.219 44.4173 157.719 43.7149C156.375 43.0863 152.12 42.902 152.12 42.902L151.838 42.6963C151.141 42.8942 150.422 43.0785 149.999 43.6431C149.861 43.8275 149.766 44.039 149.673 44.2466C149.391 44.8752 149.109 45.5039 148.83 46.1325C148.638 46.5614 148.439 46.9999 148.105 47.3297C147.68 47.7488 147.062 47.9603 146.709 48.4415C146.517 48.7034 146.425 49.01 146.369 49.3302C146.666 49.5223 146.934 49.7881 147.272 49.9006C147.661 50.0345 148.1 49.9336 148.469 49.7454Z" fill="#F3AA47" stroke="#F3AA47"/>
<path d="M146.406 55.2772C146.55 55.2364 146.598 55.0482 146.728 54.9745C146.899 54.8775 147.109 55.0211 147.231 55.1763C147.354 55.3315 147.47 55.5236 147.664 55.5566C147.785 55.5779 147.905 55.5294 148.016 55.4809C148.933 55.087 149.797 54.569 150.578 53.9442C150.83 53.7424 151.077 53.529 151.368 53.3931C151.66 53.2573 152.013 53.2108 152.302 53.3524C152.592 53.494 152.776 53.8627 152.642 54.1557C152.501 54.4681 152.048 54.699 152.176 55.0172C152.203 55.0812 152.252 55.1355 152.279 55.1996C152.407 55.5003 152.033 55.7467 151.763 55.9311C151.693 55.9796 151.621 56.0378 151.601 56.1212C151.547 56.3521 151.887 56.4472 152.124 56.4316C152.085 56.7673 152.073 57.169 152.339 57.3766C152.619 57.5958 153.031 57.4619 153.34 57.2834C153.771 57.0351 154.159 56.7149 154.487 56.3405C154.647 56.1581 154.796 55.9602 154.992 55.8166C155.53 55.4266 156.267 55.5469 156.929 55.4887C157.673 55.4227 158.391 55.1006 158.935 54.5884C159.364 54.1848 159.821 53.6182 160.398 53.7405C160.664 53.7967 160.872 53.9966 161.075 54.1751C161.307 54.3788 161.551 54.5631 161.806 54.7358C161.833 54.5534 161.854 54.3788 161.872 54.2119C161.979 53.1972 161.759 51.6294 161.316 50.0034C160.388 49.9976 159.462 49.9918 158.533 49.986C157.881 49.9821 157.207 49.9724 156.61 49.7124C156.282 49.5688 155.981 49.3515 155.628 49.2855C155.276 49.2196 154.837 49.3806 154.771 49.7318C154.715 50.0267 154.936 50.3023 154.979 50.5991C155.016 50.8611 154.911 51.1191 154.808 51.3636C154.738 51.5324 154.662 51.7051 154.522 51.8215C154.383 51.9379 154.157 51.9729 154.023 51.8506C153.852 51.6934 153.926 51.4024 153.814 51.2006C153.678 50.9542 153.338 50.9328 153.056 50.9445C152.866 50.9503 152.662 50.962 152.51 51.0784C152.392 51.1696 152.326 51.3112 152.221 51.4179C152.116 51.5246 151.935 51.5906 151.823 51.4917C151.681 51.3675 151.782 51.1172 151.677 50.962C151.508 50.7097 151.048 50.9639 150.824 50.7582C150.657 50.6049 150.751 50.3294 150.865 50.1334C151.147 49.6523 151.498 49.2137 151.902 48.8296C152.021 48.717 152.147 48.6045 152.205 48.4532C152.264 48.3018 152.223 48.0981 152.075 48.0302C151.984 47.9894 151.879 48.0069 151.782 48.0302C150.962 48.2145 150.18 48.5599 149.492 49.0411C149.152 49.2797 148.834 49.5514 148.463 49.7415C148.094 49.9317 147.655 50.0306 147.261 49.8987C146.925 49.7861 146.655 49.5184 146.357 49.3282C146.268 49.8288 146.26 50.3663 146.072 50.8397C145.887 51.3015 145.52 51.7575 145.656 52.2348C145.798 52.7315 146.445 53.0187 146.437 53.5348C146.431 53.8414 146.19 54.082 145.992 54.3187C145.88 54.4545 145.777 54.5981 145.672 54.7397C145.8 54.8658 145.928 54.992 146.058 55.1181C146.157 55.2131 146.278 55.3121 146.406 55.2772Z" fill="#F3AA47" stroke="#F3AA47"/>
<path d="M159.939 60.1861C159.85 60.1435 159.761 60.1027 159.671 60.0581C159.533 59.9863 159.39 59.9087 159.234 59.9106C159.127 59.9126 159.026 59.9514 158.923 59.9824C158.562 60.095 158.141 60.2463 157.789 60.1046C157.348 59.9261 156.939 60.3899 156.616 60.7372C155.874 61.5366 154.763 61.9538 153.674 61.9246C152.584 61.8955 151.524 61.4396 150.696 60.7314C150.399 60.4772 150.048 60.1667 149.669 60.2696C149.529 60.3084 149.411 60.3996 149.3 60.4927C148.902 60.8303 148.554 61.2281 148.27 61.6666C148.171 61.6938 148.07 61.6957 147.973 61.6802C148.037 62.0935 148.193 62.4854 148.469 62.7958C148.838 63.2111 149.372 63.4323 149.89 63.6282C150.856 63.993 151.852 64.319 152.695 64.9146C153.472 65.4657 154.089 66.2243 154.777 66.884C157.249 64.4354 158.875 62.1749 159.939 60.1861Z" fill="#F3AA47" stroke="#F3AA47"/>
<path d="M154.441 67.2158C154.555 67.1052 154.666 66.9966 154.777 66.886C154.089 66.2263 153.474 65.4676 152.695 64.9166C151.852 64.3209 150.856 63.993 149.89 63.6302C149.461 63.4691 149.024 63.2867 148.676 62.9957C148.624 63.2266 148.585 63.4594 148.558 63.6942C148.54 63.8514 148.529 64.0143 148.583 64.1638C148.649 64.3442 148.799 64.4781 148.935 64.6158C149.224 64.9108 149.463 65.2561 149.636 65.6326C149.696 65.7645 149.749 65.9139 149.702 66.0497C149.665 66.1545 149.578 66.2302 149.506 66.3155C149.144 66.7385 149.203 67.3652 149.282 67.9143C148.803 68.1025 148.274 68.1685 147.764 68.1064C147.497 68.3645 147.633 68.8224 147.865 69.1096C148.096 69.3987 148.414 69.6412 148.511 69.9982C148.55 70.136 148.55 70.2815 148.577 70.4231C148.612 70.6075 148.69 70.7821 148.805 70.9315C149.082 71.2963 149.543 71.4787 149.997 71.5485C150.252 71.5873 150.508 71.597 150.766 71.6048C150.823 71.4069 150.873 71.2516 150.922 71.1605C151.351 70.3475 152.79 68.1646 154.441 67.2158Z" fill="#F3AA47" stroke="#F3AA47"/>
<path d="M150.764 71.6048C150.508 71.597 150.25 71.5893 149.995 71.5485C149.541 71.4787 149.08 71.2963 148.803 70.9315C148.69 70.7821 148.61 70.6075 148.575 70.4231C148.548 70.2815 148.548 70.136 148.509 69.9982C148.412 69.6412 148.094 69.3987 147.863 69.1096C147.632 68.8205 147.496 68.3625 147.762 68.1064C148.272 68.1685 148.801 68.1025 149.28 67.9143C149.203 67.3633 149.145 66.7385 149.504 66.3155C149.576 66.2302 149.665 66.1545 149.7 66.0497C149.747 65.9139 149.694 65.7625 149.634 65.6325C149.461 65.2561 149.222 64.9107 148.933 64.6158C148.799 64.4781 148.647 64.3461 148.581 64.1637C148.527 64.0143 148.539 63.8513 148.556 63.6942C148.581 63.4594 148.622 63.2266 148.674 62.9957C148.601 62.9336 148.531 62.8696 148.467 62.7978C148.191 62.4873 148.035 62.0934 147.971 61.6821C147.659 61.6316 147.367 61.3852 147.163 61.1233C146.895 60.7799 146.666 60.3705 146.272 60.1861C146.093 60.1027 145.895 60.0736 145.701 60.0328C145.091 59.9067 144.503 59.6661 143.978 59.3305C143.634 59.1112 143.293 58.8415 142.885 58.8202C142.273 58.7872 141.791 59.3188 141.453 59.8272C141.115 60.3355 140.764 60.9176 140.175 61.0845C140.006 61.133 139.826 61.1427 139.661 61.2048C139.323 61.3328 139.109 61.6588 138.921 61.9654C138.732 62.2719 138.523 62.5999 138.188 62.7357C137.854 62.8715 137.375 62.691 137.359 62.3302C137.351 62.1536 137.452 61.9925 137.501 61.8237C137.676 61.2164 137.182 60.6363 136.714 60.2094C136.295 59.8272 135.862 59.4605 135.421 59.1015C135.151 59.3576 134.891 59.6196 134.658 59.8563C134.149 60.3763 133.64 60.8963 133.131 61.4163C132.987 61.5618 132.84 61.7112 132.653 61.7946C132.391 61.9111 132.094 61.88 131.808 61.9052C131.096 61.9673 130.468 62.3787 129.88 62.7822C129.563 62.9996 129.202 63.2285 128.825 63.1567C128.505 63.0966 128.268 62.8366 128.023 62.6212C127.778 62.4058 127.444 62.2176 127.139 62.336C127.048 62.3709 126.962 62.4349 126.863 62.4388C126.58 62.4485 126.504 62.0139 126.246 61.9013C126.088 61.8334 125.91 61.9014 125.752 61.9712C125.471 62.0954 125.187 62.2293 124.968 62.4446C124.748 62.66 124.603 62.9743 124.667 63.2751C124.77 63.7505 125.35 64.0473 125.364 64.5343C125.368 64.7051 125.3 64.8681 125.226 65.0233C124.845 65.8246 124.319 66.5561 123.682 67.1751C123.569 67.2837 123.447 67.3943 123.298 67.4409C123.142 67.4894 122.973 67.4681 122.81 67.4603C121.987 67.4234 121.155 67.8328 120.683 68.51C120.565 68.6788 120.448 68.8787 120.25 68.933C120.136 68.964 120.013 68.9388 119.899 68.9097C119.19 68.7254 118.537 68.3334 118.044 67.794C117.978 67.7222 117.914 67.6446 117.887 67.5496C117.793 67.2081 118.246 66.8724 118.112 66.5464C118.04 66.3737 117.834 66.3 117.727 66.1448C117.558 65.9003 117.646 65.4734 117.37 65.3628C117.187 65.2891 116.985 65.4385 116.894 65.6131C116.842 65.7121 116.809 65.8188 116.772 65.9236C116.844 65.9372 116.917 65.9488 116.991 65.9546C116.962 66.3136 116.583 66.5212 116.269 66.6958C115.467 67.1421 114.798 67.7785 114.348 68.576C114.119 68.9815 113.754 69.2978 113.511 69.6955C113.268 70.0952 113.179 70.6579 113.499 70.9975C113.835 71.3545 114.505 71.3428 114.697 71.791C114.408 72.0025 114.084 72.3188 114.204 72.6545C114.235 72.7418 114.293 72.8155 114.319 72.9048C114.392 73.1667 114.156 73.3996 114.018 73.6363C113.804 74.003 113.839 74.4978 114.101 74.8315C114.286 75.0682 114.573 75.2293 114.694 75.5048C114.752 75.6367 114.765 75.7861 114.762 75.9316C114.75 76.3702 114.554 76.7796 114.257 77.0978C114.532 77.2064 114.81 77.3073 115.096 77.3927C114.624 77.7012 114.346 78.2813 114.402 78.8421C114.728 78.8634 115.059 78.8149 115.364 78.6985C115.533 79.0982 115.241 79.6182 114.812 79.6822C114.653 79.9267 115.014 80.2061 115.014 80.4972C115.014 80.6097 114.96 80.7125 114.909 80.8134C114.692 81.2539 114.556 81.7972 114.808 82.2182C115.105 82.713 115.871 82.909 115.929 83.4833C115.944 83.6424 115.898 83.7996 115.863 83.9567C115.624 85.0103 115.902 86.1958 115.36 87.131C115.529 87.261 115.781 87.1951 115.952 87.067C116.123 86.939 116.249 86.7605 116.424 86.6363C116.583 86.5237 116.772 86.4655 116.954 86.3976C118.504 85.8369 119.761 84.6999 121.08 83.7122C121.621 83.3067 122.216 82.909 122.892 82.8585C123.265 82.8313 123.635 82.9109 124.001 82.9924C124.191 83.0351 124.387 83.0797 124.546 83.1942C124.704 83.3087 124.814 83.5124 124.758 83.7006C124.694 83.9121 124.451 84.0285 124.379 84.2381C124.282 84.5291 124.558 84.8027 124.816 84.9676C125.164 85.1888 125.605 85.3712 125.974 85.1888C126.075 85.1384 126.162 85.0646 126.257 85.0006C126.914 84.566 127.811 84.7755 128.497 85.1636C129.182 85.5516 129.785 86.1007 130.525 86.3685C130.973 86.5315 131.453 86.5819 131.927 86.6324C132.609 86.2851 133.467 86.8555 134.015 87.391C134.289 87.6569 134.555 87.946 134.694 88.301C134.797 88.561 134.83 88.8482 134.974 89.0888C135.118 89.3294 135.434 89.506 135.677 89.3663C135.778 89.3081 135.844 89.2072 135.932 89.1295C136.217 88.8773 136.66 88.9239 137.013 89.0655C137.367 89.2072 137.693 89.4303 138.068 89.4943C138.54 89.5758 139.062 89.4031 139.482 89.634C139.748 89.7815 139.911 90.0609 140.154 90.2452C140.436 90.4587 140.867 90.6061 140.877 90.9612C140.884 91.2619 140.564 91.4482 140.311 91.6131C139.802 91.9488 139.414 92.463 139.233 93.0451C139.195 93.1673 139.165 93.2973 139.187 93.4234C139.226 93.6563 139.428 93.8794 139.336 94.0967C139.204 94.413 138.682 94.2597 138.429 94.4906C138.295 94.6128 138.272 94.8107 138.258 94.9912C138.225 95.3948 138.192 95.8003 138.161 96.2039C138.15 96.3416 138.142 96.4891 138.208 96.6094C138.33 96.8306 138.631 96.8539 138.872 96.9315C139.371 97.0925 139.723 97.6222 139.676 98.1442C139.663 98.2955 139.62 98.4469 139.633 98.5982C139.67 99.0115 140.09 99.2676 140.461 99.4539C140.859 99.6518 141.259 99.8458 141.657 100.04C142.18 99.2657 143.174 98.6312 143.545 97.8784C144.048 96.8616 144.116 92.1487 144.332 91.3357C144.547 90.5227 145.194 89.9115 144.691 89.4381C144.188 88.9627 144.769 81.5663 144.654 78.2173C149.401 77.5227 150.318 73.1551 150.764 71.6048Z" fill="#F3AA47" stroke="#F3AA47"/>
<path d="M86.3586 100.178C86.5198 100.575 87.0791 100.566 87.5025 100.486C87.2986 100.87 87.0947 101.256 86.8907 101.641C87.7919 101.602 88.6465 102.007 89.4583 102.403C90.2585 102.793 91.0587 103.185 91.857 103.575C93.0961 104.18 94.3702 104.796 95.7453 104.91C95.7472 104.677 95.7511 104.446 95.7531 104.213C96.2483 104.345 96.6814 103.862 96.9262 103.412C97.1709 102.96 97.3826 102.461 97.7963 102.157C98.2177 101.844 98.7674 101.792 99.284 101.701C99.9754 101.58 100.653 101.377 101.298 101.093C101.088 101.309 101.49 101.644 101.768 101.532C102.046 101.417 102.188 101.117 102.401 100.907C103.032 100.288 104.072 100.587 104.953 100.515C105.398 100.478 105.851 100.337 106.278 100.463C106.612 100.56 106.876 100.808 107.179 100.977C107.482 101.148 107.892 101.229 108.158 101.004C108.333 100.855 108.397 100.614 108.539 100.432C108.995 99.8478 110.162 99.9661 110.316 99.2424C109.958 99.1667 109.772 98.7379 109.834 98.377C109.894 98.0181 110.133 97.7173 110.36 97.4321C110.085 97.3836 109.799 97.3312 109.568 97.176C109.335 97.0188 109.17 96.7297 109.246 96.46C109.292 96.297 109.417 96.169 109.537 96.0487C109.908 95.6781 110.279 95.3055 110.65 94.9349C110.735 94.8496 110.825 94.7545 110.836 94.6361C110.846 94.543 110.805 94.4537 110.761 94.3722C110.485 93.8678 110.003 93.4972 109.729 92.9927C109.455 92.4863 109.506 91.7063 110.046 91.5064C109.955 91.1649 110.116 90.7497 110.388 90.5227C110.66 90.2957 111.023 90.2006 111.376 90.1851C111.802 90.1657 112.373 90.154 112.464 89.7407C112.592 89.1664 111.518 88.7978 111.722 88.2448C111.8 88.0333 112.046 87.9207 112.126 87.7112C112.289 87.2804 111.658 86.8458 111.817 86.4151C111.945 86.0678 112.497 86.0988 112.73 86.384C112.81 86.483 112.872 86.6033 112.984 86.6596C113.254 86.7954 113.536 86.45 113.542 86.1473C113.548 85.8466 113.419 85.5419 113.493 85.249C113.658 85.1306 113.88 85.3091 113.961 85.4954C114.043 85.6816 114.091 85.9106 114.274 86.0018C114.381 86.0542 114.507 86.0425 114.626 86.0251C115.008 85.9669 115.371 85.8582 115.723 85.7127C115.762 85.1287 115.74 84.5213 115.869 83.9528C115.904 83.7976 115.95 83.6385 115.935 83.4794C115.876 82.9051 115.111 82.7091 114.814 82.2143C114.561 81.7952 114.699 81.25 114.915 80.8096C114.965 80.7087 115.02 80.6039 115.02 80.4933C115.02 80.2022 114.659 79.9228 114.818 79.6784C115.247 79.6143 115.538 79.0943 115.369 78.6946C115.065 78.811 114.734 78.8595 114.408 78.8382C114.354 78.2775 114.631 77.6973 115.101 77.3888C114.818 77.3034 114.538 77.2025 114.262 77.0939C113.843 77.5421 113.221 77.8098 112.613 77.7109C112.464 77.6876 112.308 77.6449 112.163 77.6857C112.031 77.7225 111.928 77.8215 111.825 77.9107C111.504 78.1901 111.139 78.4172 110.747 78.5763C110.557 78.6539 110.353 78.7179 110.147 78.7043C109.677 78.6713 109.203 78.2445 108.793 78.4754C108.768 78.813 108.741 79.1506 108.715 79.4882C108.15 79.2088 107.585 78.9294 107.02 78.65C106.822 78.553 106.606 78.4521 106.391 78.4948C106.301 78.5122 106.218 78.5549 106.13 78.584C105.827 78.6869 105.497 78.6422 105.183 78.5976C105.13 77.9457 104.542 77.4839 104.004 77.1113C103.957 77.0784 103.903 77.0434 103.846 77.0531C103.745 77.0706 103.72 77.1987 103.677 77.2898C103.57 77.513 103.273 77.5751 103.031 77.5285C102.999 77.3636 102.908 77.2103 102.778 77.1036C102.275 77.2452 101.896 77.7478 101.904 78.2716C101.906 78.3919 101.923 78.5219 101.855 78.6209C101.743 78.7878 101.486 78.747 101.3 78.6675C100.696 78.4133 100.189 77.9825 99.6355 77.6333C99.082 77.284 98.4314 77.0085 97.7866 77.123C98.0449 76.471 98.3051 75.8191 98.5634 75.1652C97.9886 75.2991 97.4855 75.7124 97.2427 76.2479C97.1651 76.4187 97.1087 76.5991 97.0097 76.7563C96.9048 77.773 96.6018 78.7684 96.124 79.6706C95.9473 80.0024 95.7453 80.3322 95.6812 80.7028C95.621 81.056 95.6929 81.4246 95.6171 81.7739C95.5783 81.9504 95.5025 82.1154 95.452 82.2881C95.4015 82.4569 95.3743 82.6295 95.3471 82.8022C95.2695 83.2951 94.9937 83.9218 95.151 84.3952C95.2928 84.8221 95.1626 85.313 94.8732 85.6584C94.5839 86.0037 94.1546 86.2133 93.7118 86.2948C93.5059 86.3336 93.2923 86.3472 93.0981 86.4287C92.6086 86.6324 92.3853 87.197 92.2823 87.719C92.1794 88.239 92.1347 88.7997 91.8181 89.2246C91.5268 89.6146 91.051 89.8203 90.579 89.9445C90.3556 90.0027 90.1245 90.0473 89.9264 90.1637C89.5788 90.3655 89.3709 90.7575 89.0136 90.9379C88.8504 91.0213 88.664 91.0543 88.4989 91.1339C88.3338 91.2134 88.1804 91.3628 88.1804 91.5472C88.1804 91.6927 88.2755 91.8169 88.326 91.9527C88.4367 92.2496 88.326 92.591 88.1396 92.8472C87.9531 93.1033 87.6968 93.3012 87.4715 93.5243C87.0966 93.8949 86.8014 94.3393 86.5295 94.7894C86.2071 95.3191 85.908 95.874 85.7817 96.4794C85.6555 97.0848 85.7254 97.7561 86.0905 98.2567C86.2537 98.4779 86.4829 98.7418 86.3605 98.9863C86.3294 98.9824 86.3003 98.9785 86.2712 98.9746C86.3391 99.1357 86.3799 99.3045 86.3741 99.4869C86.3527 99.7197 86.2712 99.9622 86.3586 100.178Z" fill="#F3AA47" stroke="#F3AA47"/>
<path d="M96.7611 106.8C97.1961 106.67 97.6623 106.749 98.107 106.833C99.016 107 99.923 107.167 100.832 107.333C101.081 107.38 101.337 107.428 101.553 107.56C101.986 107.828 102.157 108.362 102.294 108.853C102.57 108.639 102.846 108.428 103.12 108.214C103.343 108.488 103.479 108.831 103.499 109.184C103.53 109.371 103.84 109.297 103.916 109.124C103.992 108.952 103.973 108.736 104.095 108.595C104.174 108.501 104.301 108.459 104.419 108.424C104.821 108.3 105.223 108.176 105.623 108.049C105.891 107.966 106.169 107.883 106.449 107.912C106.715 107.939 106.964 108.067 107.232 108.079C107.725 108.1 108.14 107.729 108.612 107.582C109.337 107.357 110.199 107.751 110.504 108.445C110.469 108.793 110.436 109.142 110.401 109.489C110.741 109.363 111.073 109.763 111.073 110.126C111.073 110.488 110.883 110.822 110.805 111.175C110.545 112.37 111.73 113.513 112.951 113.597C113.196 113.614 113.505 113.639 113.586 113.872C113.689 114.169 113.307 114.379 113.099 114.615C112.514 115.275 113.285 116.453 112.753 117.153C113.184 117.825 113.618 118.496 114.049 119.167C114.156 119.332 114.264 119.501 114.412 119.629C114.967 120.114 115.822 119.901 116.519 119.658C116.57 119.383 116.622 119.109 116.673 118.834C118.916 118.933 120.893 117.458 123.055 116.854C125.193 116.257 127.537 116.515 129.594 115.681C129.911 115.553 130.223 115.395 130.462 115.151C131.398 114.196 130.876 112.349 131.909 111.497C132.195 111.263 132.579 111.127 132.764 110.807C132.919 110.533 133.034 110.17 132.904 109.885C132.259 108.478 133.834 107.956 134.696 108.309C134.768 108.069 134.838 107.826 134.91 107.586C134.79 107.413 134.9 107.254 135.077 107.137C135.252 107.021 135.471 106.928 135.539 106.728C135.605 106.534 135.502 106.299 135.611 106.127C135.66 106.049 135.741 106.002 135.819 105.954C136.242 105.69 136.633 105.269 136.615 104.77C136.586 103.959 135.512 103.395 135.66 102.595C135.951 102.595 136.24 102.595 136.532 102.595C136.621 101.924 136.099 101.336 135.578 100.905C135.436 100.787 135.279 100.647 135.277 100.465C135.275 100.098 135.805 100.048 136.097 99.8264C136.345 99.6382 136.534 99.2443 136.835 99.3258C136.928 99.351 137.004 99.4228 137.095 99.4558C137.462 99.5858 137.707 99.0794 138.033 98.864C138.258 98.7166 138.546 98.7107 138.816 98.6952C139.092 98.6797 139.367 98.6467 139.639 98.5982V98.5963C139.626 98.4449 139.668 98.2936 139.682 98.1422C139.729 97.6203 139.377 97.0906 138.878 96.9295C138.637 96.8519 138.336 96.8287 138.214 96.6075C138.146 96.4872 138.155 96.3397 138.167 96.2019C138.2 95.7984 138.233 95.3928 138.264 94.9893C138.278 94.8088 138.301 94.6109 138.435 94.4887C138.688 94.2578 139.21 94.411 139.342 94.0948C139.433 93.8775 139.231 93.6543 139.193 93.4215C139.171 93.2954 139.2 93.1654 139.239 93.0431C139.42 92.461 139.808 91.9449 140.317 91.6112C140.57 91.4463 140.888 91.26 140.882 90.9593C140.875 90.6061 140.443 90.4567 140.16 90.2433C139.917 90.0609 139.754 89.7796 139.488 89.6321C139.068 89.4012 138.546 89.5739 138.074 89.4924C137.699 89.4284 137.373 89.2052 137.019 89.0636C136.666 88.9219 136.223 88.8754 135.937 89.1276C135.85 89.2052 135.784 89.3061 135.683 89.3643C135.442 89.504 135.124 89.3275 134.98 89.0869C134.836 88.8463 134.803 88.5591 134.7 88.2991C134.558 87.944 134.292 87.6569 134.02 87.3891C133.473 86.8555 132.614 86.2831 131.933 86.6304C131.459 86.58 130.979 86.5296 130.53 86.3666C129.788 86.0988 129.188 85.5497 128.503 85.1616C127.817 84.7736 126.92 84.564 126.263 84.9987C126.168 85.0607 126.081 85.1364 125.98 85.1869C125.611 85.3693 125.17 85.1849 124.822 84.9657C124.564 84.8007 124.286 84.5272 124.385 84.2361C124.455 84.0266 124.7 83.9101 124.764 83.6987C124.82 83.5124 124.71 83.3067 124.552 83.1922C124.395 83.0778 124.199 83.0331 124.006 82.9904C123.641 82.9109 123.27 82.8294 122.897 82.8566C122.222 82.907 121.627 83.3048 121.085 83.7103C119.767 84.6979 118.51 85.8349 116.96 86.3957C116.778 86.4616 116.587 86.5218 116.43 86.6343C116.255 86.7566 116.129 86.937 115.958 87.0651C115.787 87.1931 115.535 87.2591 115.366 87.1291C115.614 86.6984 115.69 86.2133 115.723 85.7127C115.371 85.8563 115.008 85.9669 114.626 86.0251C114.507 86.0425 114.381 86.0542 114.274 86.0018C114.091 85.9125 114.043 85.6816 113.961 85.4954C113.88 85.3091 113.658 85.1287 113.493 85.249C113.419 85.5419 113.548 85.8446 113.542 86.1473C113.536 86.4481 113.254 86.7954 112.984 86.6596C112.872 86.6033 112.81 86.481 112.73 86.384C112.497 86.0969 111.945 86.0678 111.817 86.4151C111.658 86.8458 112.289 87.2804 112.126 87.7112C112.046 87.9227 111.8 88.0333 111.722 88.2448C111.518 88.7978 112.592 89.1664 112.464 89.7407C112.373 90.156 111.8 90.1676 111.376 90.1851C111.023 90.2006 110.66 90.2957 110.388 90.5227C110.116 90.7497 109.955 91.163 110.046 91.5064C109.506 91.7063 109.455 92.4882 109.729 92.9927C110.003 93.4991 110.483 93.8678 110.761 94.3722C110.805 94.4537 110.846 94.543 110.836 94.6361C110.825 94.7564 110.735 94.8515 110.65 94.9349C110.279 95.3055 109.908 95.6781 109.537 96.0487C109.417 96.169 109.292 96.297 109.246 96.46C109.17 96.7297 109.335 97.0188 109.568 97.176C109.801 97.3331 110.085 97.3836 110.36 97.4321C110.131 97.7154 109.894 98.0161 109.834 98.377C109.774 98.736 109.958 99.1667 110.316 99.2424C110.162 99.9661 108.995 99.8478 108.539 100.432C108.397 100.612 108.335 100.855 108.158 101.004C107.892 101.229 107.482 101.148 107.179 100.977C106.876 100.806 106.61 100.56 106.278 100.463C105.851 100.337 105.396 100.478 104.953 100.515C104.072 100.589 103.032 100.29 102.401 100.907C102.188 101.117 102.046 101.417 101.768 101.532C101.49 101.646 101.088 101.309 101.298 101.093C100.655 101.375 99.9774 101.58 99.284 101.701C98.7674 101.79 98.2177 101.844 97.7963 102.157C97.3826 102.463 97.1709 102.96 96.9262 103.412C96.6814 103.862 96.2483 104.345 95.7531 104.213C95.7511 104.446 95.7472 104.677 95.7453 104.91C95.7006 104.906 95.6559 104.9 95.6113 104.896C95.6132 104.91 95.6152 104.924 95.6171 104.937C95.6365 105.098 95.6482 105.271 95.5647 105.411C95.4811 105.55 95.3219 105.624 95.1995 105.733C94.6479 106.231 95.0655 107.172 95.0189 107.906C95.1995 107.813 95.3743 107.71 95.5394 107.59C95.9356 107.306 96.2949 106.941 96.7611 106.8Z" fill="#F3AA47" stroke="#F3AA47"/>
<path d="M141.335 100.911C141.354 100.593 141.481 100.306 141.663 100.034C141.263 99.84 140.863 99.6479 140.467 99.4481C140.096 99.2618 139.676 99.0076 139.639 98.5943C139.367 98.6428 139.092 98.6758 138.816 98.6913C138.546 98.7069 138.26 98.7107 138.033 98.8601C137.707 99.0736 137.464 99.5819 137.095 99.4519C137.004 99.419 136.928 99.3472 136.835 99.3219C136.534 99.2404 136.345 99.6343 136.097 99.8225C135.805 100.044 135.275 100.096 135.277 100.461C135.277 100.645 135.436 100.785 135.578 100.901C136.099 101.334 136.621 101.922 136.532 102.591C136.24 102.591 135.951 102.591 135.66 102.591C135.512 103.391 136.586 103.955 136.615 104.766C136.633 105.265 136.242 105.686 135.819 105.95C135.741 105.999 135.66 106.047 135.611 106.123C135.502 106.295 135.605 106.53 135.539 106.724C135.471 106.922 135.252 107.017 135.077 107.134C134.902 107.25 134.79 107.409 134.91 107.582C134.838 107.822 134.768 108.065 134.696 108.306C133.834 107.952 132.259 108.474 132.904 109.881C133.026 110.145 132.935 110.477 132.797 110.741C132.906 110.828 133.003 110.929 133.065 111.055C133.213 111.354 133.135 111.728 133.286 112.025C133.471 112.39 133.921 112.516 134.32 112.609C134.893 112.743 135.462 112.889 136.029 113.04C136.862 110.861 139.097 110.232 139.977 109.016C140.193 107.322 141.597 104.918 141.597 104.918C141.597 104.918 141.263 102.131 141.335 100.911Z" fill="#F3AA47" stroke="#F3AA47"/>
<path d="M136.029 113.044C135.462 112.892 134.891 112.747 134.32 112.613C133.921 112.52 133.471 112.394 133.286 112.029C133.135 111.732 133.211 111.358 133.065 111.059C133.003 110.935 132.908 110.834 132.797 110.744C132.785 110.766 132.776 110.787 132.764 110.807C132.581 111.127 132.195 111.263 131.909 111.497C130.876 112.349 131.4 114.196 130.462 115.151C130.223 115.395 129.911 115.553 129.594 115.681C127.537 116.517 125.193 116.259 123.055 116.854C122.268 117.074 121.507 117.409 120.747 117.741C121.015 118.17 121.324 118.591 121.802 118.709C122.19 118.804 122.62 118.674 122.987 118.834C123.031 118.853 123.076 118.878 123.101 118.919C123.158 119.014 123.086 119.132 123.006 119.21C122.598 119.612 121.994 119.726 121.429 119.806C121.268 119.829 121.105 119.85 120.959 119.922C120.732 120.033 120.578 120.252 120.458 120.473C120.266 120.83 120.143 121.222 120.085 121.624C121.639 120.63 123.41 119.557 124.263 119.557C125.482 119.557 128.674 119.656 131.259 119.249C132.049 115.859 135.782 116.47 135.782 116.47C135.782 116.47 135.854 115.995 135.71 114.776C135.724 114.105 135.84 113.535 136.029 113.044Z" fill="#F3AA47" stroke="#F3AA47"/>
<path d="M81.4778 124.911C81.5574 124.814 81.606 124.693 81.6487 124.575C81.8177 124.086 81.8818 123.564 82.0527 123.077C82.2236 122.588 82.5382 122.111 83.0238 121.93C83.2102 121.86 83.4297 121.831 83.5598 121.678C83.7618 121.441 83.6278 121.08 83.6725 120.774C83.7288 120.399 84.0493 120.13 84.3503 119.899C85.8031 118.789 87.3161 117.757 88.8796 116.808C89.2641 116.575 89.6681 116.331 89.8992 115.946C90.074 115.655 90.1342 115.308 90.2644 114.994C90.3945 114.679 90.6392 114.371 90.9791 114.332C90.713 114.057 90.8101 113.593 91.0082 113.263C91.2044 112.933 91.4841 112.636 91.554 112.26C91.5851 112.089 91.5734 111.903 91.653 111.748C91.7754 111.509 92.0803 111.41 92.2085 111.173C92.294 111.016 92.2843 110.826 92.3076 110.647C92.4202 109.743 93.3389 109.183 94.1896 108.855C94.3857 108.779 94.5916 108.703 94.7451 108.558C95.4695 107.871 94.4576 106.398 95.1995 105.729C95.32 105.62 95.4812 105.546 95.5647 105.407C95.6482 105.267 95.6365 105.094 95.6171 104.933C95.6152 104.92 95.6132 104.906 95.6113 104.893C94.2886 104.751 93.0553 104.157 91.857 103.573C91.0568 103.183 90.2566 102.791 89.4584 102.401C88.6465 102.005 87.7939 101.6 86.8907 101.639C87.0947 101.254 87.2986 100.868 87.5025 100.484C87.0811 100.564 86.5198 100.573 86.3586 100.176C86.2712 99.9603 86.3527 99.7177 86.3605 99.4849C86.3663 99.3025 86.3256 99.1337 86.2576 98.9727C85.7293 98.8989 85.2612 98.8233 84.7213 98.8116C84.0551 98.7981 83.3909 98.7282 82.7363 98.6021C82.748 98.1092 83.152 97.7309 83.4763 97.3603C83.8007 96.9897 84.0745 96.4406 83.8085 96.0254C83.2491 96.1127 82.8471 96.5803 82.4139 96.9451C81.9828 97.3098 81.338 97.5912 80.8738 97.2691C80.7456 97.1798 80.6465 97.0518 80.5125 96.9683C80.1571 96.7413 79.6871 96.8927 79.3161 97.0945C78.9471 97.2963 78.5722 97.5543 78.1508 97.533C77.8789 97.5194 77.6283 97.3875 77.3875 97.2575C76.5659 96.8151 75.7444 96.3727 74.9228 95.9322C74.6859 95.8042 74.4412 95.6742 74.1751 95.6412C73.5905 95.5675 73.0486 95.9652 72.462 96.0118C72.1455 96.037 71.8211 95.9594 71.5142 96.0389C71.0986 96.1476 70.8131 96.5182 70.5684 96.8694C70.1935 97.4069 69.7915 97.9948 69.1661 98.1946C68.4708 98.4158 67.7405 98.086 67.0666 97.7852C67.1676 98.6875 66.7539 99.2948 66.7539 99.2948L66.5383 102.005C66.5383 102.005 65.9634 103.158 65.3186 104.243C64.6718 105.327 64.8874 105.191 64.6718 107.157C64.4562 109.122 65.8197 109.732 65.8197 109.732L65.1729 115.155C65.1729 115.155 70.3411 115.764 71.2035 115.832C72.0658 115.9 74.5052 116.441 74.5052 116.441L75.6531 123.354C75.6531 123.354 75.6531 123.626 77.8789 123.151C80.1046 122.675 80.5358 123.964 80.6077 125.048C80.6116 125.122 80.6096 125.211 80.5999 125.314C80.6329 125.304 80.6659 125.293 80.699 125.283C80.9864 125.206 81.2933 125.136 81.4778 124.911Z" fill="#F3AA47" stroke="#F3AA47"/>
<path d="M123.099 118.921C123.074 118.88 123.03 118.855 122.985 118.836C122.618 118.676 122.189 118.808 121.8 118.711C121.322 118.593 121.015 118.172 120.745 117.743C119.417 118.325 118.098 118.898 116.671 118.836C116.62 119.111 116.568 119.385 116.517 119.66C115.82 119.901 114.965 120.116 114.41 119.631C114.262 119.501 114.154 119.334 114.047 119.169C113.616 118.498 113.182 117.827 112.751 117.155C113.283 116.455 112.512 115.277 113.097 114.617C113.305 114.383 113.687 114.171 113.585 113.874C113.505 113.641 113.194 113.616 112.949 113.599C111.728 113.515 110.545 112.372 110.803 111.177C110.881 110.822 111.071 110.49 111.071 110.127C111.071 109.765 110.739 109.363 110.399 109.491C110.434 109.144 110.467 108.794 110.502 108.447C110.197 107.753 109.335 107.359 108.611 107.584C108.139 107.729 107.723 108.102 107.23 108.08C106.964 108.069 106.713 107.941 106.447 107.914C106.167 107.884 105.889 107.97 105.621 108.051C105.219 108.176 104.817 108.3 104.417 108.426C104.299 108.463 104.175 108.503 104.093 108.597C103.971 108.74 103.99 108.956 103.914 109.126C103.839 109.299 103.528 109.373 103.497 109.186C103.477 108.833 103.343 108.49 103.118 108.216C102.842 108.43 102.566 108.641 102.292 108.855C102.155 108.366 101.984 107.83 101.551 107.562C101.335 107.43 101.079 107.382 100.83 107.335C99.9211 107.169 99.014 107.002 98.1051 106.835C97.6584 106.753 97.1922 106.672 96.7591 106.802C96.2911 106.943 95.9317 107.308 95.5355 107.593C95.3705 107.712 95.1956 107.817 95.015 107.91C94.9995 108.162 94.9276 108.389 94.7431 108.566C94.5897 108.711 94.3857 108.785 94.1876 108.862C93.337 109.19 92.4183 109.751 92.3056 110.655C92.2843 110.834 92.292 111.022 92.2066 111.181C92.0784 111.418 91.7735 111.517 91.6511 111.755C91.5715 111.911 91.5851 112.095 91.5521 112.268C91.4821 112.644 91.2025 112.941 91.0063 113.271C90.8101 113.601 90.7111 114.064 90.9772 114.34C90.6392 114.377 90.3926 114.687 90.2624 115.002C90.1323 115.316 90.0721 115.661 89.8973 115.954C89.6662 116.34 89.2622 116.583 88.8776 116.816C88.0386 117.324 87.217 117.858 86.4091 118.414C86.7354 118.51 87.0636 118.585 87.3957 118.638C87.6599 118.554 87.9298 118.492 88.2037 118.451C88.2658 118.442 88.3338 118.436 88.3862 118.469C88.4387 118.504 88.462 118.57 88.5047 118.616C88.5708 118.688 88.6756 118.704 88.7708 118.715C89.0932 118.754 89.4156 118.777 89.74 118.787C89.8215 118.789 89.9148 118.787 89.9711 118.725C90.0507 118.638 90.0022 118.494 90.0449 118.385C90.1032 118.238 90.3013 118.207 90.4586 118.228C90.8665 118.283 91.2238 118.513 91.587 118.704C91.9502 118.896 92.3658 119.057 92.764 118.958C92.8825 118.929 92.9932 118.876 93.1117 118.853C93.7332 118.727 94.2478 119.348 94.8674 119.486C95.1413 119.548 95.4812 119.536 95.6346 119.771C95.7492 119.945 95.7472 120.238 95.9512 120.285C96.0852 120.314 96.2037 120.203 96.3241 120.134C96.5552 119.998 96.8426 120.017 97.1087 120.039C97.67 120.085 98.2333 120.132 98.7946 120.178C98.9286 120.19 99.0781 120.207 99.1655 120.31C99.2354 120.394 99.249 120.512 99.317 120.597C99.4588 120.772 99.7443 120.708 99.9424 120.811C100.245 120.968 100.255 121.457 100.531 121.657C100.745 122.188 100.638 122.786 100.644 123.36C100.653 124.2 100.948 125.072 101.593 125.607C101.735 125.724 101.892 125.826 102.007 125.968C102.122 126.11 102.19 126.312 102.118 126.48C102.005 126.742 101.597 126.861 101.624 127.144C102.529 127.373 103.469 127.472 104.404 127.433C104.602 127.425 104.808 127.414 104.988 127.493C105.169 127.573 105.313 127.78 105.247 127.967C105.194 128.112 105.039 128.197 104.969 128.335C104.864 128.545 105 128.811 105.204 128.925C105.408 129.04 105.656 129.038 105.889 129.018C106.091 129.003 106.34 128.995 106.449 129.168C106.46 129.187 106.47 129.206 106.476 129.228C109.531 126.717 114.29 123.869 114.831 123.459C115.55 122.918 115.836 123.188 116.554 123.595C117.273 124.003 117.488 124.272 117.989 124.476C118.493 124.68 118.205 123.663 118.277 122.782C118.774 122.476 119.405 122.06 120.077 121.632C120.134 121.23 120.256 120.838 120.45 120.481C120.571 120.26 120.724 120.042 120.951 119.93C121.097 119.858 121.26 119.837 121.421 119.813C121.988 119.734 122.593 119.619 122.998 119.218C123.084 119.134 123.158 119.016 123.099 118.921Z" fill="#F3AA47" stroke="#F3AA47"/>
<path d="M84.362 134.373C84.6125 134.311 84.8437 134.16 85.102 134.152C85.57 134.137 85.9527 134.583 86.4207 134.587C86.6674 134.589 86.8966 134.467 87.1393 134.434C87.7375 134.352 88.2814 134.808 88.8835 134.862C89.1476 134.886 89.4253 134.831 89.6759 134.917C89.8992 134.992 90.0721 135.169 90.2741 135.289C90.9519 135.691 91.8492 135.41 92.5814 135.703C92.7795 135.782 92.964 135.902 93.1699 135.955C93.3777 136.007 93.6302 135.97 93.7506 135.794C93.9041 135.567 93.7623 135.254 93.8186 134.987C93.8924 134.633 94.2828 134.441 94.6382 134.381C94.9936 134.321 95.3763 134.333 95.6928 134.156C95.9784 133.997 96.1648 133.71 96.3959 133.479C96.6271 133.248 96.9728 133.064 97.2738 133.19C97.4331 133.256 97.5515 133.397 97.7147 133.456C98.1361 133.607 98.5246 133.134 98.9674 133.079C99.6239 132.998 100.065 133.817 100.719 133.914C101.37 134.011 101.875 133.382 102.473 133.103C102.933 132.889 103.458 132.887 103.965 132.887C104.062 132.887 104.157 132.887 104.254 132.887C104.279 132.328 104.281 131.839 104.237 131.49C104.662 130.836 105.484 130.049 106.488 129.222C106.48 129.201 106.472 129.181 106.46 129.162C106.354 128.989 106.105 128.995 105.901 129.012C105.668 129.032 105.419 129.032 105.216 128.919C105.012 128.805 104.876 128.539 104.981 128.329C105.05 128.192 105.206 128.106 105.258 127.961C105.324 127.774 105.182 127.567 105 127.487C104.819 127.408 104.611 127.419 104.415 127.427C103.481 127.464 102.543 127.367 101.636 127.138C101.609 126.855 102.017 126.736 102.129 126.474C102.201 126.306 102.135 126.106 102.019 125.962C101.902 125.819 101.745 125.718 101.605 125.601C100.958 125.066 100.663 124.195 100.655 123.354C100.649 122.782 100.758 122.183 100.543 121.651C100.267 121.451 100.257 120.962 99.9541 120.805C99.754 120.702 99.4704 120.766 99.3287 120.591C99.2607 120.508 99.2471 120.388 99.1772 120.304C99.0898 120.201 98.9402 120.184 98.8062 120.172C98.2449 120.126 97.6817 120.079 97.1204 120.033C96.8523 120.011 96.5668 119.992 96.3357 120.128C96.2172 120.198 96.0988 120.31 95.9628 120.279C95.7589 120.234 95.7608 119.941 95.6462 119.765C95.4928 119.53 95.1529 119.54 94.8791 119.48C94.2614 119.342 93.7448 118.721 93.1233 118.847C93.0048 118.87 92.8922 118.923 92.7756 118.952C92.3775 119.051 91.9619 118.89 91.5987 118.698C91.2355 118.506 90.8781 118.275 90.4702 118.222C90.3129 118.201 90.1148 118.232 90.0565 118.38C90.0138 118.488 90.0624 118.632 89.9827 118.719C89.9264 118.779 89.8332 118.783 89.7516 118.781C89.4273 118.771 89.1049 118.748 88.7825 118.709C88.6853 118.698 88.5824 118.68 88.5164 118.61C88.4736 118.564 88.4503 118.498 88.3979 118.463C88.3455 118.43 88.2775 118.436 88.2153 118.446C87.9415 118.486 87.6715 118.548 87.4074 118.632C87.0753 118.579 86.747 118.504 86.4207 118.409C85.7215 118.89 85.034 119.387 84.36 119.901C84.059 120.132 83.7385 120.401 83.6822 120.776C83.6356 121.082 83.7716 121.445 83.5696 121.68C83.4394 121.831 83.2219 121.862 83.0335 121.932C82.548 122.113 82.2333 122.59 82.0624 123.079C81.8915 123.568 81.8293 124.088 81.6584 124.577C81.6176 124.695 81.5691 124.816 81.4875 124.913C81.303 125.138 80.9961 125.207 80.7165 125.287C80.6834 125.297 80.6504 125.308 80.6174 125.318C80.4912 126.736 79.118 130.747 79.118 130.747L82.0605 130.815L82.9947 132.984C82.9947 132.984 82.9675 133.219 82.8781 134.331C83.1384 134.352 83.3967 134.373 83.657 134.395C83.8842 134.412 84.1289 134.432 84.362 134.373Z" fill="#F3AA47" stroke="#F3AA47"/>
<path d="M105.311 139.624C105.311 139.624 105.311 139.624 104.235 138.743C103.722 138.258 104.159 135.043 104.252 132.887C104.155 132.887 104.06 132.887 103.963 132.887C103.456 132.885 102.93 132.887 102.471 133.103C101.875 133.38 101.37 134.009 100.717 133.914C100.063 133.817 99.6219 132.998 98.9655 133.079C98.5226 133.134 98.1342 133.605 97.7127 133.456C97.5515 133.397 97.4311 133.256 97.2719 133.19C96.9689 133.064 96.6251 133.248 96.394 133.479C96.1629 133.71 95.9764 133.997 95.6909 134.156C95.3743 134.331 94.9936 134.319 94.6363 134.381C94.2789 134.443 93.8905 134.633 93.8167 134.987C93.7603 135.256 93.9021 135.567 93.7487 135.794C93.6283 135.97 93.3758 136.007 93.168 135.955C92.9601 135.902 92.7776 135.782 92.5795 135.703C91.8473 135.411 90.9519 135.691 90.2721 135.289C90.0682 135.169 89.8973 134.992 89.6739 134.917C89.4214 134.831 89.1456 134.886 88.8815 134.862C88.2794 134.81 87.7375 134.352 87.1374 134.434C86.8946 134.467 86.6654 134.589 86.4188 134.587C85.9507 134.583 85.5681 134.137 85.1 134.152C84.8417 134.16 84.6106 134.311 84.36 134.373C84.127 134.432 83.8842 134.412 83.6453 134.391C83.385 134.37 83.1267 134.348 82.8665 134.327C82.8121 135.01 82.7344 136.025 82.6237 137.521C82.5382 137.528 82.4431 137.548 82.3401 137.579C83.2821 137.86 84.2532 138.048 85.2321 138.138C85.8031 138.188 86.376 138.207 86.9451 138.27C88.4231 138.431 89.8526 138.887 91.251 139.389C92.4357 139.812 93.6399 140.291 94.5508 141.159C95.0966 141.679 95.5258 142.331 96.1648 142.734C97.0738 143.308 98.2216 143.272 99.2898 143.396C99.587 143.431 99.9638 143.576 99.9385 143.873C99.9191 144.104 99.6608 144.224 99.5015 144.393C99.1597 144.758 99.2821 145.363 99.0354 145.798C98.8587 146.108 98.4857 146.442 98.6819 146.741C98.7674 146.871 98.9305 146.919 99.0781 146.964C99.5365 147.106 99.9676 147.311 100.385 147.548C102.129 145.594 103.66 144.977 103.66 144.977L103.804 140.91C103.804 140.91 104.666 140.369 105.023 140.165C105.383 139.961 105.311 139.624 105.311 139.624Z" fill="#F3AA47" stroke="#F3AA47"/>
<path d="M73.4215 156.107L73.3632 156.095C73.3632 156.093 73.4526 156.506 73.4215 156.107Z" fill="#F3AA47" stroke="#F3AA47" stroke-miterlimit="10"/>
<path d="M98.6819 146.741C98.4857 146.442 98.8586 146.108 99.0354 145.798C99.284 145.363 99.1597 144.758 99.5015 144.393C99.6608 144.224 99.9191 144.106 99.9385 143.873C99.9638 143.576 99.587 143.431 99.2898 143.396C98.2216 143.27 97.0737 143.307 96.1648 142.734C95.5277 142.333 95.0966 141.679 94.5508 141.159C93.6419 140.291 92.4357 139.812 91.251 139.389C89.8507 138.889 88.4231 138.433 86.9451 138.27C86.376 138.207 85.8031 138.19 85.2321 138.138C84.2513 138.05 83.2821 137.86 82.3401 137.579C80.7922 138.021 77.3642 140.685 76.0182 141.384C74.5829 142.129 68.8398 149.789 68.0493 150.534C67.2588 151.279 66.8296 152.364 66.8296 152.364C66.8296 152.364 68.0493 152.905 68.4805 152.16C68.9117 151.415 70.1314 151.483 70.4188 151.821C70.7063 152.16 73.2195 154.329 73.3613 155.548C73.3924 155.814 73.4098 155.99 73.4195 156.103L74.2955 156.293C74.2955 156.293 74.6548 155.818 75.0141 155.14C75.3734 154.463 75.3734 155.14 75.7327 155.548C76.092 155.955 77.6711 157.853 77.6711 157.853L79.6094 158.328L80.6135 159.481C82.8393 160.158 83.0549 162.259 83.556 162.599C84.059 162.939 84.9194 163.548 85.135 164.091C85.3506 164.632 83.556 165.583 83.556 165.583V168.905H84.7038L88.0056 165.651C88.0056 165.651 88.9398 162.127 89.369 161.652C89.8002 161.177 97.1223 154.671 97.1223 154.671L97.3379 152.57C98.2449 150.329 99.35 148.704 100.381 147.548C99.9638 147.313 99.5326 147.108 99.0742 146.964C98.9286 146.919 98.7674 146.871 98.6819 146.741Z" fill="#F3AA47" stroke="#F3AA47"/>
<path d="M161.077 54.1809C160.873 54.0005 160.666 53.8025 160.4 53.7463C159.823 53.6221 159.366 54.1887 158.937 54.5942C158.393 55.1064 157.675 55.4285 156.931 55.4945C156.268 55.5527 155.532 55.4324 154.994 55.8224C154.798 55.964 154.651 56.1619 154.489 56.3463C154.161 56.7208 153.773 57.0409 153.342 57.2893C153.033 57.4678 152.623 57.6016 152.341 57.3824C152.075 57.1728 152.087 56.7731 152.126 56.4375C151.889 56.453 151.549 56.3579 151.603 56.127C151.623 56.0436 151.695 55.9854 151.764 55.9369C152.034 55.7525 152.409 55.5042 152.281 55.2054C152.254 55.1413 152.203 55.087 152.178 55.023C152.048 54.7048 152.501 54.4739 152.644 54.1615C152.778 53.8685 152.594 53.4999 152.304 53.3582C152.015 53.2166 151.663 53.2631 151.37 53.399C151.079 53.5348 150.83 53.7482 150.58 53.95C149.799 54.5728 148.935 55.0909 148.018 55.4867C147.905 55.5352 147.785 55.5818 147.666 55.5624C147.472 55.5294 147.354 55.3373 147.233 55.1821C147.111 55.0269 146.903 54.8833 146.73 54.9803C146.6 55.054 146.552 55.2422 146.408 55.283C146.282 55.3179 146.161 55.219 146.066 55.1278C145.938 55.0016 145.81 54.8755 145.68 54.7494C145.569 54.8969 145.456 55.0424 145.326 55.1705C145.068 55.4227 144.712 55.6109 144.357 55.5508C144.046 55.4984 143.798 55.2694 143.57 55.0502C143.199 54.6951 142.83 54.34 142.459 53.9849C142.292 53.8258 142.118 53.659 141.896 53.5911C141.743 53.5425 141.58 53.5445 141.42 53.5619C140.622 53.6415 139.808 54.0567 139.055 53.7812C138.845 53.7055 138.658 53.5794 138.456 53.4863C138.416 53.4669 138.375 53.4552 138.334 53.4397C138.235 53.6085 138.035 53.6997 137.891 53.8375C137.59 54.1246 137.553 54.6039 137.668 55.0036C137.782 55.4033 138.021 55.7545 138.212 56.1251C138.26 56.2202 138.307 56.323 138.295 56.4278C138.282 56.5481 138.196 56.6451 138.115 56.7343C137.596 57.2893 137.027 57.7996 136.419 58.2555C136.097 58.4981 135.757 58.7988 135.43 59.1093C135.871 59.4682 136.304 59.8349 136.724 60.2172C137.19 60.644 137.685 61.2242 137.511 61.8315C137.462 62.0003 137.361 62.1613 137.369 62.3379C137.384 62.6988 137.864 62.8793 138.198 62.7434C138.532 62.6076 138.742 62.2797 138.93 61.9731C139.119 61.6666 139.332 61.3406 139.67 61.2125C139.835 61.1505 140.014 61.1407 140.185 61.0922C140.774 60.9254 141.125 60.3452 141.463 59.8349C141.801 59.3246 142.283 58.7949 142.894 58.8279C143.3 58.8493 143.644 59.119 143.988 59.3382C144.512 59.6739 145.101 59.9125 145.711 60.0406C145.903 60.0813 146.103 60.1105 146.282 60.1939C146.676 60.3802 146.905 60.7876 147.173 61.131C147.441 61.4745 147.857 61.7927 148.278 61.6782C148.562 61.2397 148.909 60.8419 149.308 60.5043C149.418 60.4112 149.537 60.32 149.677 60.2812C150.055 60.1784 150.405 60.4888 150.704 60.743C151.531 61.4512 152.592 61.9072 153.681 61.9363C154.771 61.9654 155.882 61.5482 156.624 60.7488C156.948 60.3996 157.356 59.9358 157.797 60.1163C158.149 60.2579 158.57 60.1066 158.931 59.994C159.032 59.963 159.135 59.9222 159.242 59.9222C159.397 59.9203 159.541 59.9979 159.679 60.0697C159.766 60.1143 159.858 60.1551 159.947 60.1978C161.112 58.0208 161.611 56.1678 161.817 54.7533C161.555 54.569 161.309 54.3827 161.077 54.1809Z" fill="#F3AA47" stroke="#F3AA47"/>
</g>
<circle opacity="0.5" cx="37" cy="65" r="12" fill="#DE5E57"/>
<circle opacity="0.5" cx="106.5" cy="129.5" r="16.5" fill="#DE5E57"/>
<circle opacity="0.5" cx="122.5" cy="32.5" r="16.5" fill="#DE5E57"/>
<circle opacity="0.5" cx="142.5" cy="80.5" r="13.5" fill="#DE5E57"/>
<circle cx="37" cy="65" r="6" fill="#DE5E57"/>
<circle cx="106.5" cy="129.5" r="8.5" fill="#DE5E57"/>
<circle cx="122.5" cy="32.5" r="8.5" fill="#DE5E57"/>
<circle cx="142.5" cy="80.5" r="6.5" fill="#DE5E57"/>
<defs>
<clipPath id="clip0">
<rect width="162" height="169" fill="white"/>
</clipPath>
</defs>
</svg>
