<svg width="70" height="456" viewBox="0 0 70 456" fill="none" xmlns="http://www.w3.org/2000/svg">
<path d="M0 240L70 170V183L0 253V240Z" fill="#06E3FF"/>
<path d="M0 443L70 373V386L0 456V443Z" fill="#06E3FF"/>
<path d="M0 138L70 68V81L0 151V138Z" fill="#06E3FF"/>
<path d="M0 341L70 271V284L0 354V341Z" fill="#06E3FF"/>
<path d="M0 206L70 136V149L0 219V206Z" fill="#06E3FF"/>
<path d="M0 409L70 339V352L0 422V409Z" fill="#06E3FF"/>
<path d="M0 104L70 34V47L0 117V104Z" fill="#06E3FF"/>
<path d="M0 307L70 237V250L0 320V307Z" fill="#06E3FF"/>
<path d="M0 172L70 102V115L0 185V172Z" fill="#06E3FF"/>
<path d="M0 375L70 305V318L0 388V375Z" fill="#06E3FF"/>
<path d="M0 70L70 0V13L0 83V70Z" fill="#06E3FF"/>
<path d="M0 273L70 203V216L0 286V273Z" fill="#06E3FF"/>
</svg>
