<svg width="16" height="16" viewBox="0 0 16 16" fill="none" xmlns="http://www.w3.org/2000/svg">
<path d="M4.5598 7.2C4.8798 5.6 6.3198 4.4 7.9998 4.4C9.1998 4.4 10.1598 4.96 10.7998 5.84L12.1598 4.24C11.1998 3.12 9.6798 2.4 7.9998 2.4C5.1998 2.4 2.8798 4.48 2.4798 7.2H0.799805L3.5998 10.4L6.3998 7.2H4.5598ZM12.3998 5.6L9.5998 8.8H11.4398C11.0398 10.4 9.6798 11.6 7.9998 11.6C6.7998 11.6 5.8398 11.04 5.1998 10.16L3.8398 11.68C4.7998 12.88 6.3198 13.6 7.9998 13.6C10.7998 13.6 13.1198 11.52 13.5198 8.8H15.1998L12.3998 5.6Z" fill="#F3AA47"/>
</svg>
