<svg width="16" height="16" viewBox="0 0 16 16" fill="none" xmlns="http://www.w3.org/2000/svg">
<path d="M4.66683 4V2C4.66683 1.82319 4.73707 1.65362 4.86209 1.5286C4.98712 1.40357 5.15669 1.33334 5.3335 1.33334H10.6668C10.8436 1.33334 11.0132 1.40357 11.1382 1.5286C11.2633 1.65362 11.3335 1.82319 11.3335 2V4H14.6668V5.33334H13.3335V14C13.3335 14.1768 13.2633 14.3464 13.1382 14.4714C13.0132 14.5964 12.8436 14.6667 12.6668 14.6667H3.3335C3.15669 14.6667 2.98712 14.5964 2.86209 14.4714C2.73707 14.3464 2.66683 14.1768 2.66683 14V5.33334H1.3335V4H4.66683ZM8.94283 9.33334L10.1215 8.15467L9.17883 7.212L8.00016 8.39067L6.8215 7.212L5.87883 8.15467L7.0575 9.33334L5.87883 10.512L6.8215 11.4547L8.00016 10.276L9.17883 11.4547L10.1215 10.512L8.94283 9.33334ZM6.00016 2.66667V4H10.0002V2.66667H6.00016Z" fill="#F3AA47"/>
</svg>
