<svg width="24" height="24" viewBox="0 0 24 24" fill="none" xmlns="http://www.w3.org/2000/svg">
<path fill-rule="evenodd" clip-rule="evenodd" d="M12.2189 6.969C12.2885 6.89915 12.3713 6.84374 12.4624 6.80593C12.5535 6.76812 12.6512 6.74866 12.7499 6.74866C12.8485 6.74866 12.9462 6.76812 13.0373 6.80593C13.1284 6.84374 13.2112 6.89915 13.2809 6.969L17.7809 11.469C17.8507 11.5387 17.9061 11.6214 17.9439 11.7125C17.9818 11.8037 18.0012 11.9013 18.0012 12C18.0012 12.0986 17.9818 12.1963 17.9439 12.2874C17.9061 12.3786 17.8507 12.4613 17.7809 12.531L13.2809 17.031C13.14 17.1718 12.949 17.2509 12.7499 17.2509C12.5507 17.2509 12.3597 17.1718 12.2189 17.031C12.078 16.8902 11.9989 16.6992 11.9989 16.5C11.9989 16.3008 12.078 16.1098 12.2189 15.969L16.1894 12L12.2189 8.031C12.149 7.96133 12.0936 7.87857 12.0558 7.78745C12.018 7.69633 11.9985 7.59865 11.9985 7.5C11.9985 7.40135 12.018 7.30366 12.0558 7.21255C12.0936 7.12143 12.149 7.03867 12.2189 6.969Z" fill="#F3AA47"/>
<path fill-rule="evenodd" clip-rule="evenodd" d="M6 12C6 11.8011 6.07902 11.6103 6.21967 11.4697C6.36032 11.329 6.55109 11.25 6.75 11.25H16.5C16.6989 11.25 16.8897 11.329 17.0303 11.4697C17.171 11.6103 17.25 11.8011 17.25 12C17.25 12.1989 17.171 12.3897 17.0303 12.5303C16.8897 12.671 16.6989 12.75 16.5 12.75H6.75C6.55109 12.75 6.36032 12.671 6.21967 12.5303C6.07902 12.3897 6 12.1989 6 12Z" fill="#F3AA47"/>
</svg>
