<svg width="32" height="32" viewBox="0 0 32 32" fill="none" xmlns="http://www.w3.org/2000/svg">
<path fill-rule="evenodd" clip-rule="evenodd" d="M11.708 9.29202C11.8011 9.38491 11.875 9.49526 11.9254 9.61675C11.9759 9.73824 12.0018 9.86848 12.0018 10C12.0018 10.1316 11.9759 10.2618 11.9254 10.3833C11.875 10.5048 11.8011 10.6151 11.708 10.708L6.41402 16L11.708 21.292C11.801 21.385 11.8747 21.4954 11.9251 21.6168C11.9754 21.7383 12.0013 21.8685 12.0013 22C12.0013 22.1315 11.9754 22.2617 11.9251 22.3832C11.8747 22.5047 11.801 22.615 11.708 22.708C11.615 22.801 11.5047 22.8747 11.3832 22.9251C11.2617 22.9754 11.1315 23.0013 11 23.0013C10.8685 23.0013 10.7383 22.9754 10.6169 22.9251C10.4954 22.8747 10.385 22.801 10.292 22.708L4.29202 16.708C4.19889 16.6151 4.12501 16.5048 4.07459 16.3833C4.02418 16.2618 3.99823 16.1316 3.99823 16C3.99823 15.8685 4.02418 15.7382 4.07459 15.6167C4.12501 15.4953 4.19889 15.3849 4.29202 15.292L10.292 9.29202C10.3849 9.19889 10.4953 9.125 10.6168 9.07459C10.7382 9.02418 10.8685 8.99823 11 8.99823C11.1316 8.99823 11.2618 9.02418 11.3833 9.07459C11.5048 9.125 11.6151 9.19889 11.708 9.29202Z" fill="#F3AA47"/>
<path fill-rule="evenodd" clip-rule="evenodd" d="M5 16C5 15.7348 5.10536 15.4804 5.29289 15.2929C5.48043 15.1054 5.73478 15 6 15H27C27.2652 15 27.5196 15.1054 27.7071 15.2929C27.8946 15.4804 28 15.7348 28 16C28 16.2652 27.8946 16.5196 27.7071 16.7071C27.5196 16.8946 27.2652 17 27 17H6C5.73478 17 5.48043 16.8946 5.29289 16.7071C5.10536 16.5196 5 16.2652 5 16Z" fill="#F3AA47"/>
</svg>
