<?xml version="1.0" standalone="no"?><!-- Generator: Gravit.io --><svg xmlns="http://www.w3.org/2000/svg" xmlns:xlink="http://www.w3.org/1999/xlink" style="isolation:isolate" viewBox="210.508 2311.036 1304.264 738.58" width="1304.264" height="738.58"><path d=" M 246.207 2313.036 L 257.006 2319.036 L 330.004 2351.435 L 411.402 2388.534 L 442.501 2404.133 L 448.501 2406.533 L 531.099 2423.333 L 533.499 2424.533 L 559.798 2432.933 L 563.398 2434.133 L 566.998 2434.133 L 640.096 2452.032 L 650.895 2454.432 L 697.594 2465.232 L 751.493 2478.431 L 816.091 2491.531 L 835.29 2496.331 L 852.09 2499.931 L 865.189 2508.331 L 893.889 2523.93 L 959.787 2559.829 L 995.686 2580.229 L 1016.085 2591.028 L 1061.584 2614.928 L 1095.083 2631.727 L 1130.982 2652.127 L 1136.982 2654.527 L 1141.782 2656.926 L 1160.881 2665.326 L 1237.479 2698.825 L 1280.578 2717.925 L 1388.275 2764.623 L 1416.974 2776.623 L 1421.774 2780.223 L 1427.774 2781.423 L 1434.974 2785.023 L 1480.472 2804.222 L 1512.772 2818.522 L 1511.572 2819.722 L 1511.572 2822.122 L 1510.372 2822.122 L 1511.572 2824.522 L 1510.372 2824.522 L 1510.372 2825.722 L 1511.572 2825.722 L 1511.572 2826.922 L 1510.372 2826.922 L 1509.172 2829.322 L 1507.972 2828.122 L 1506.772 2826.922 L 1506.772 2828.122 L 1506.772 2826.922 L 1504.372 2828.122 L 1505.572 2829.322 L 1504.372 2831.722 L 1503.172 2830.522 L 1503.172 2832.922 L 1499.572 2832.922 L 1495.972 2834.122 L 1494.772 2835.322 L 1492.372 2835.322 L 1492.372 2836.521 L 1491.172 2837.721 L 1489.972 2837.721 L 1488.772 2838.921 L 1487.572 2838.921 L 1487.572 2840.121 L 1486.372 2840.121 L 1486.372 2842.521 L 1485.172 2841.321 L 1482.772 2842.521 L 1482.772 2843.721 L 1480.372 2844.921 L 1480.372 2847.321 L 1477.972 2847.321 L 1476.773 2849.721 L 1474.373 2849.721 L 1474.373 2853.321 L 1471.973 2854.521 L 1471.973 2853.321 L 1467.173 2853.321 L 1468.373 2855.721 L 1468.373 2856.921 L 1467.173 2855.721 L 1465.973 2858.121 L 1465.973 2856.921 L 1465.973 2859.321 L 1464.773 2858.121 L 1463.573 2859.321 L 1463.573 2861.721 L 1461.173 2861.721 L 1461.173 2862.921 L 1461.173 2861.721 L 1459.973 2862.921 L 1461.173 2864.121 L 1461.173 2865.321 L 1458.773 2864.121 L 1457.573 2865.321 L 1457.573 2866.521 L 1456.373 2866.521 L 1455.173 2867.721 L 1453.973 2872.52 L 1452.773 2873.72 L 1452.773 2871.321 L 1451.573 2873.72 L 1450.373 2873.72 L 1450.373 2872.52 L 1449.173 2873.72 L 1450.373 2873.72 L 1449.173 2873.72 L 1446.773 2876.12 L 1446.773 2874.92 L 1446.773 2877.32 L 1445.573 2878.52 L 1447.973 2878.52 L 1446.773 2879.72 L 1445.573 2880.92 L 1445.573 2879.72 L 1444.373 2880.92 L 1444.373 2883.32 L 1443.173 2884.52 L 1443.173 2885.72 L 1441.973 2884.52 L 1441.973 2885.72 L 1440.774 2885.72 L 1439.574 2886.92 L 1438.374 2885.72 L 1438.374 2886.92 L 1437.174 2886.92 L 1435.974 2888.12 L 1437.174 2888.12 L 1432.374 2890.52 L 1431.174 2891.72 L 1429.974 2891.72 L 1429.974 2890.52 L 1427.574 2890.52 L 1425.174 2891.72 L 1422.774 2891.72 L 1421.574 2892.92 L 1421.574 2895.32 L 1422.774 2896.52 L 1421.574 2896.52 L 1420.374 2897.72 L 1419.174 2897.72 L 1416.774 2898.92 L 1415.574 2900.12 L 1413.174 2900.12 L 1410.774 2897.72 L 1407.174 2897.72 L 1405.974 2896.52 L 1403.575 2896.52 L 1402.375 2897.72 L 1398.775 2898.92 L 1397.575 2897.72 L 1395.175 2896.52 L 1393.975 2897.72 L 1392.775 2896.52 L 1392.775 2897.72 L 1390.375 2896.52 L 1389.175 2897.72 L 1387.975 2898.92 L 1390.375 2901.32 L 1389.175 2903.72 L 1390.375 2906.12 L 1390.375 2907.32 L 1389.175 2907.32 L 1387.975 2908.519 L 1385.575 2907.32 L 1383.175 2907.32 L 1383.175 2909.719 L 1380.775 2907.32 L 1378.375 2908.519 L 1375.975 2907.32 L 1374.775 2906.12 L 1373.575 2906.12 L 1371.175 2909.719 L 1372.375 2912.119 L 1372.375 2916.919 L 1369.975 2916.919 L 1368.776 2918.119 L 1368.776 2920.519 L 1367.576 2921.719 L 1362.776 2922.919 L 1361.576 2924.119 L 1359.176 2925.319 L 1356.776 2924.119 L 1354.376 2925.319 L 1354.376 2927.719 L 1349.576 2927.719 L 1347.176 2928.919 L 1343.576 2930.119 L 1342.376 2931.319 L 1338.776 2937.319 L 1337.576 2940.919 L 1333.976 2944.518 L 1332.776 2946.918 L 1329.177 2950.518 L 1325.577 2948.118 L 1320.777 2968.418 L 1319.577 2967.218 L 1318.377 2968.418 L 1317.177 2967.218 L 1317.177 2968.418 L 1315.977 2968.418 L 1315.977 2967.218 L 1314.777 2968.418 L 1314.777 2967.218 L 1313.577 2964.818 L 1312.377 2964.818 L 1311.177 2963.618 L 1308.777 2963.618 L 1308.777 2962.418 L 1306.377 2962.418 L 1306.377 2961.218 L 1305.177 2962.418 L 1305.177 2960.018 L 1302.777 2960.018 L 1302.777 2958.818 L 1301.577 2960.018 L 1301.577 2958.818 L 1300.377 2957.618 L 1297.977 2956.418 L 1296.777 2957.618 L 1295.578 2956.418 L 1294.378 2956.418 L 1293.178 2955.218 L 1288.378 2955.218 L 1287.178 2956.418 L 1287.178 2955.218 L 1284.778 2955.218 L 1283.578 2957.618 L 1282.378 2956.418 L 1281.178 2957.618 L 1278.778 2957.618 L 1278.778 2956.418 L 1278.778 2957.618 L 1276.378 2956.418 L 1272.778 2958.818 L 1270.378 2957.618 L 1267.978 2956.418 L 1267.978 2957.618 L 1266.778 2956.418 L 1266.778 2957.618 L 1265.578 2956.418 L 1264.378 2957.618 L 1263.178 2957.618 L 1263.178 2960.018 L 1259.579 2960.018 L 1257.179 2961.218 L 1257.179 2963.618 L 1255.979 2962.418 L 1254.779 2964.818 L 1253.579 2966.018 L 1252.379 2967.218 L 1251.179 2967.218 L 1249.979 2969.618 L 1249.979 2973.218 L 1251.179 2973.218 L 1252.379 2974.418 L 1251.179 2975.618 L 1251.179 2976.818 L 1249.979 2978.018 L 1251.179 2979.218 L 1249.979 2980.417 L 1247.579 2981.617 L 1246.379 2984.017 L 1243.979 2985.217 L 1243.979 2986.417 L 1241.579 2987.617 L 1239.179 2991.217 L 1237.979 2991.217 L 1236.779 2994.817 L 1234.379 2994.817 L 1233.179 2998.417 L 1231.979 2998.417 L 1233.179 2999.617 L 1231.979 3003.217 L 1229.579 3004.417 L 1228.379 3006.817 L 1228.379 3010.417 L 1227.179 3012.817 L 1224.779 3014.017 L 1223.58 3015.217 L 1221.18 3016.416 L 1219.98 3018.816 L 1213.98 3018.816 L 1212.78 3020.016 L 1211.58 3022.416 L 1210.38 3023.616 L 1207.98 3021.216 L 1206.78 3021.216 L 1200.78 3023.616 L 1199.58 3026.016 L 1200.78 3027.216 L 1199.58 3028.416 L 1198.38 3029.616 L 1198.38 3030.816 L 1197.18 3029.616 L 1195.98 3028.416 L 1194.78 3028.416 L 1192.38 3026.016 L 1189.98 3028.416 L 1182.781 3029.616 L 1179.181 3032.016 L 1179.181 3034.416 L 1176.781 3036.816 L 1173.181 3039.216 L 1173.181 3040.416 L 1161.181 3042.816 L 1142.082 3047.616 L 1143.282 3044.016 L 1140.882 3041.616 L 1142.082 3039.216 L 1139.682 3038.016 L 1137.282 3038.016 L 1136.082 3036.816 L 1134.882 3035.616 L 1134.882 3034.416 L 1133.682 3033.216 L 1134.882 3030.816 L 1133.682 3029.616 L 1134.882 3027.216 L 1136.082 3027.216 L 1136.082 3024.816 L 1137.282 3022.416 L 1136.082 3022.416 L 1134.882 3023.616 L 1133.682 3022.416 L 1134.882 3022.416 L 1134.882 3021.216 L 1132.482 3022.416 L 1131.282 3021.216 L 1131.282 3020.016 L 1130.082 3021.216 L 1130.082 3023.616 L 1130.082 3021.216 L 1127.682 3020.016 L 1128.882 3018.816 L 1127.682 3018.816 L 1127.682 3020.016 L 1125.282 3020.016 L 1126.482 3021.216 L 1124.082 3021.216 L 1122.882 3022.416 L 1121.682 3021.216 L 1122.882 3020.016 L 1121.682 3020.016 L 1120.482 3021.216 L 1119.282 3020.016 L 1120.482 3020.016 L 1119.282 3020.016 L 1116.882 3021.216 L 1116.882 3023.616 L 1115.683 3023.616 L 1114.483 3022.416 L 1113.283 3022.416 L 1112.083 3023.616 L 1113.283 3023.616 L 1113.283 3022.416 L 1114.483 3024.816 L 1113.283 3024.816 L 1112.083 3023.616 L 1112.083 3022.416 L 1110.883 3022.416 L 1108.483 3024.816 L 1106.083 3023.616 L 1103.683 3021.216 L 1101.283 3022.416 L 1101.283 3021.216 L 1100.083 3021.216 L 1101.283 3018.816 L 1097.683 3018.816 L 1095.283 3020.016 L 1094.083 3020.016 L 1095.283 3022.416 L 1092.883 3022.416 L 1092.883 3021.216 L 1091.683 3022.416 L 1090.483 3021.216 L 1089.283 3021.216 L 1090.483 3020.016 L 1090.483 3018.816 L 1088.083 3018.816 L 1088.083 3017.616 L 1086.883 3017.616 L 1085.683 3016.416 L 1084.483 3017.616 L 1083.283 3016.416 L 1080.883 3017.616 L 1079.684 3014.017 L 1078.484 3016.416 L 1077.284 3015.217 L 1074.884 3016.416 L 1072.484 3015.217 L 1071.284 3017.616 L 1070.084 3015.217 L 1067.684 3015.217 L 1067.684 3014.017 L 1066.484 3015.217 L 1065.284 3015.217 L 1066.484 3014.017 L 1065.284 3014.017 L 1065.284 3012.817 L 1062.884 3014.017 L 1060.484 3012.817 L 1059.284 3011.617 L 1056.884 3011.617 L 1054.484 3012.817 L 1053.284 3011.617 L 1050.884 3009.217 L 1049.684 3011.617 L 1047.284 3010.417 L 1048.484 3010.417 L 1048.484 3009.217 L 1044.884 3010.417 L 1043.685 3011.617 L 1044.884 3011.617 L 1043.685 3012.817 L 1042.485 3010.417 L 1041.285 3010.417 L 1041.285 3011.617 L 1040.085 3010.417 L 1038.885 3011.617 L 1035.285 3010.417 L 1035.285 3009.217 L 1034.085 3011.617 L 1032.885 3011.617 L 1032.885 3010.417 L 1031.685 3011.617 L 1030.485 3011.617 L 1031.685 3009.217 L 1029.285 3009.217 L 1029.285 3010.417 L 1026.885 3009.217 L 1025.685 3011.617 L 1025.685 3010.417 L 1024.485 3010.417 L 1023.285 3008.017 L 1022.085 3009.217 L 1023.285 3010.417 L 1022.085 3010.417 L 1020.885 3008.017 L 1019.685 3009.217 L 1018.485 3006.817 L 1017.285 3006.817 L 1016.085 3009.217 L 1012.485 3009.217 L 1012.485 3011.617 L 1011.285 3010.417 L 1011.285 3011.617 L 1010.085 3011.617 L 1008.885 3010.417 L 1007.685 3011.617 L 1007.685 3012.817 L 1006.486 3011.617 L 1004.086 3011.617 L 1004.086 3009.217 L 1002.886 3010.417 L 1000.486 3009.217 L 998.086 3009.217 L 998.086 3011.617 L 995.686 3011.617 L 995.686 3010.417 L 989.686 3009.217 L 989.686 3011.617 L 987.286 3010.417 L 984.886 3010.417 L 984.886 3012.817 L 983.686 3011.617 L 981.286 3012.817 L 976.486 3011.617 L 975.286 3014.017 L 974.086 3012.817 L 971.686 3014.017 L 970.487 3015.217 L 969.287 3014.017 L 966.887 3016.416 L 965.687 3014.017 L 963.287 3016.416 L 962.087 3015.217 L 963.287 3014.017 L 962.087 3014.017 L 960.887 3011.617 L 959.687 3009.217 L 958.487 3009.217 L 958.487 3010.417 L 957.287 3009.217 L 957.287 3008.017 L 954.887 3009.217 L 953.687 3008.017 L 952.487 3008.017 L 952.487 3006.817 L 950.087 3006.817 L 950.087 3008.017 L 945.287 3008.017 L 942.887 3006.817 L 941.687 3008.017 L 940.487 3006.817 L 939.287 3008.017 L 938.087 3006.817 L 934.488 3005.617 L 932.088 3006.817 L 930.888 3008.017 L 929.688 3006.817 L 925.088 3006.817 L 925.088 3009.217 L 922.688 3009.217 L 921.488 3011.617 L 920.288 3010.417 L 919.088 3012.817 L 917.888 3011.617 L 916.688 3014.017 L 916.688 3012.817 L 915.488 3014.017 L 914.288 3015.217 L 911.888 3015.217 L 911.888 3016.416 L 910.688 3015.217 L 910.688 3016.416 L 908.288 3016.416 L 909.488 3017.616 L 908.288 3016.416 L 907.088 3017.616 L 905.888 3017.616 L 905.888 3018.816 L 902.288 3018.816 L 902.288 3017.616 L 901.088 3018.816 L 901.088 3017.616 L 899.888 3020.016 L 898.689 3020.016 L 899.888 3018.816 L 897.489 3020.016 L 897.489 3022.416 L 897.489 3021.216 L 896.289 3021.216 L 896.289 3022.416 L 895.089 3022.416 L 893.889 3024.816 L 892.689 3024.816 L 891.489 3026.016 L 889.089 3027.216 L 889.089 3028.416 L 887.889 3027.216 L 887.889 3028.416 L 886.689 3028.416 L 885.489 3027.216 L 885.489 3028.416 L 883.089 3028.416 L 883.089 3029.616 L 881.889 3030.816 L 879.489 3029.616 L 875.889 3029.616 L 874.689 3028.416 L 871.089 3029.616 L 869.889 3029.616 L 868.689 3032.016 L 867.489 3030.816 L 866.289 3030.816 L 865.089 3032.016 L 861.49 3033.216 L 859.09 3032.016 L 856.69 3033.216 L 855.49 3032.016 L 854.29 3030.816 L 850.69 3032.016 L 849.49 3030.816 L 849.49 3029.616 L 848.29 3029.616 L 845.89 3028.416 L 844.69 3029.616 L 844.69 3028.416 L 842.29 3027.216 L 841.09 3028.416 L 839.89 3027.216 L 838.69 3027.216 L 839.89 3026.016 L 837.49 3021.216 L 833.89 3018.816 L 832.69 3015.217 L 830.29 3014.017 L 829.09 3014.017 L 827.89 3011.617 L 825.491 3011.617 L 825.491 3010.417 L 823.091 3009.217 L 807.491 3020.016 L 806.291 2968.518 L 806.291 2852.421 L 807.491 2832.022 L 807.491 2805.722 L 808.691 2802.122 L 811.091 2802.122 L 812.291 2803.322 L 813.491 2799.722 L 814.691 2798.523 L 818.291 2799.722 L 820.691 2798.523 L 821.891 2796.123 L 821.891 2792.523 L 823.091 2792.523 L 823.091 2790.123 L 824.291 2788.923 L 823.091 2787.723 L 824.291 2786.523 L 823.091 2786.523 L 820.691 2780.523 L 819.491 2780.523 L 819.491 2778.123 L 817.091 2778.123 L 814.691 2775.723 L 815.891 2774.523 L 813.491 2773.323 L 811.091 2767.323 L 812.291 2766.123 L 813.491 2763.723 L 812.291 2763.723 L 813.491 2762.524 L 813.491 2760.124 L 811.091 2758.924 L 811.091 2757.724 L 813.491 2756.524 L 812.291 2760.124 L 813.491 2760.124 L 814.691 2758.924 L 817.091 2761.324 L 818.291 2761.324 L 819.491 2760.124 L 818.291 2757.724 L 816.091 2757.724 L 816.091 2756.524 L 817.291 2755.324 L 816.091 2752.924 L 817.291 2752.924 L 818.491 2754.124 L 822.091 2754.124 L 822.091 2752.924 L 820.891 2752.924 L 820.891 2749.324 L 823.291 2750.524 L 823.291 2748.124 L 824.491 2748.124 L 826.891 2745.724 L 828.09 2748.124 L 828.09 2746.924 L 825.691 2743.324 L 824.491 2740.924 L 825.691 2739.724 L 826.891 2740.924 L 828.09 2740.924 L 826.891 2737.324 L 829.29 2737.324 L 830.49 2733.724 L 829.29 2734.924 L 828.09 2733.724 L 825.691 2734.924 L 825.691 2736.124 L 824.491 2736.124 L 824.491 2734.924 L 822.091 2736.124 L 822.091 2734.924 L 820.891 2733.724 L 819.691 2736.124 L 818.491 2736.124 L 818.491 2734.924 L 816.091 2734.924 L 816.091 2736.124 L 813.691 2737.324 L 812.491 2737.324 L 811.291 2739.724 L 808.891 2739.724 L 808.891 2743.324 L 807.691 2742.124 L 806.491 2743.324 L 805.291 2744.524 L 805.291 2748.124 L 802.891 2746.924 L 804.091 2748.124 L 801.691 2748.124 L 801.691 2750.524 L 801.691 2749.324 L 800.491 2750.524 L 801.691 2750.524 L 800.491 2750.524 L 800.491 2751.724 L 799.291 2750.524 L 798.091 2752.924 L 796.891 2752.924 L 796.891 2754.124 L 795.691 2752.924 L 793.291 2755.324 L 792.091 2755.324 L 790.892 2756.524 L 789.692 2757.724 L 788.492 2757.724 L 789.692 2757.724 L 789.692 2758.924 L 788.492 2760.124 L 786.092 2757.724 L 784.892 2758.924 L 783.692 2760.124 L 784.892 2760.124 L 783.692 2761.324 L 783.692 2762.524 L 782.492 2761.324 L 783.692 2762.524 L 782.492 2762.524 L 783.692 2763.723 L 783.692 2766.123 L 781.292 2766.123 L 781.292 2767.323 L 777.692 2768.523 L 777.692 2769.723 L 778.892 2769.723 L 777.692 2770.923 L 776.492 2772.123 L 775.292 2773.323 L 773.092 2773.323 L 771.892 2774.523 L 770.692 2773.323 L 770.692 2774.523 L 769.492 2773.323 L 769.492 2775.723 L 767.092 2776.923 L 767.092 2775.723 L 763.492 2778.123 L 761.092 2780.523 L 761.092 2781.723 L 759.892 2781.723 L 758.692 2786.523 L 757.492 2786.523 L 756.292 2788.923 L 755.092 2788.923 L 753.893 2791.323 L 749.093 2791.323 L 749.093 2792.523 L 749.093 2791.323 L 747.893 2793.723 L 746.693 2792.523 L 746.693 2793.723 L 745.493 2794.923 L 743.093 2800.922 L 741.893 2799.722 L 741.893 2805.722 L 737.093 2805.722 L 734.693 2804.522 L 733.493 2805.722 L 731.093 2805.722 L 729.893 2806.922 L 727.493 2806.922 L 725.093 2809.322 L 721.493 2811.722 L 715.494 2814.122 L 711.894 2816.522 L 710.694 2817.722 L 709.494 2818.922 L 708.294 2823.722 L 707.094 2824.922 L 705.894 2827.322 L 703.494 2829.722 L 703.494 2833.322 L 699.894 2833.322 L 696.294 2832.122 L 695.094 2832.122 L 695.094 2834.522 L 692.694 2834.522 L 685.594 2836.921 L 684.394 2836.921 L 680.795 2833.322 L 678.395 2834.522 L 678.395 2836.921 L 677.195 2836.921 L 675.995 2835.721 L 673.595 2839.321 L 528.799 2839.321 L 528.799 2836.921 L 532.399 2835.721 L 533.599 2833.322 L 533.599 2828.522 L 531.199 2827.322 L 529.999 2826.122 L 531.199 2823.722 L 533.599 2822.522 L 534.799 2818.922 L 537.199 2817.722 L 535.999 2816.522 L 533.599 2814.122 L 533.599 2809.322 L 532.399 2808.122 L 532.399 2806.922 L 535.999 2803.322 L 538.398 2802.122 L 533.599 2799.722 L 528.799 2797.323 L 526.399 2797.323 L 523.999 2796.123 L 522.799 2794.923 L 521.599 2796.123 L 519.199 2793.723 L 516.799 2793.723 L 516.799 2792.523 L 517.999 2788.923 L 517.999 2786.523 L 519.199 2782.923 L 519.199 2779.323 L 520.399 2776.923 L 517.999 2773.323 L 519.199 2768.523 L 516.799 2768.523 L 513.199 2766.123 L 514.399 2755.324 L 511.999 2754.124 L 508.399 2755.324 L 505.999 2754.124 L 503.599 2755.324 L 502.399 2755.324 L 500 2752.924 L 500 2751.724 L 498.8 2751.724 L 498.8 2748.124 L 497.6 2748.124 L 496.4 2746.924 L 495.2 2746.924 L 494 2745.724 L 492.8 2746.924 L 491.6 2746.924 L 490.4 2745.724 L 489.2 2745.724 L 486.8 2743.324 L 485.6 2744.524 L 480.8 2744.524 L 480.8 2743.324 L 480.8 2744.524 L 479.6 2744.524 L 478.4 2745.724 L 474.8 2744.524 L 474.8 2745.724 L 473.6 2744.524 L 472.4 2744.524 L 467.6 2745.724 L 466.4 2745.724 L 465.201 2744.524 L 466.4 2744.524 L 465.201 2744.524 L 465.201 2743.324 L 464.101 2743.324 L 464.101 2742.124 L 464.101 2743.324 L 462.901 2742.124 L 460.501 2742.124 L 460.501 2743.324 L 460.501 2740.924 L 459.301 2742.124 L 459.301 2740.924 L 458.101 2740.924 L 456.901 2739.724 L 456.901 2740.924 L 454.501 2739.724 L 452.101 2739.724 L 450.901 2738.524 L 449.701 2739.724 L 449.701 2738.524 L 448.501 2738.524 L 448.501 2737.324 L 447.301 2738.524 L 446.101 2737.324 L 444.901 2738.524 L 442.501 2738.524 L 441.301 2737.324 L 441.301 2736.124 L 438.901 2737.324 L 438.901 2736.124 L 437.701 2736.124 L 436.501 2737.324 L 436.501 2736.124 L 435.301 2736.124 L 435.301 2734.924 L 435.301 2736.124 L 432.901 2734.924 L 431.701 2733.724 L 432.901 2732.524 L 432.901 2731.324 L 350.304 2731.324 L 352.704 2728.924 L 353.904 2724.125 L 353.904 2722.925 L 356.304 2721.725 L 359.903 2720.525 L 361.103 2718.125 L 363.503 2716.925 L 364.703 2713.325 L 369.503 2712.125 L 369.503 2710.925 L 368.303 2708.525 L 367.103 2707.325 L 370.703 2706.125 L 374.303 2700.125 L 377.903 2697.725 L 379.103 2700.125 L 380.303 2700.125 L 383.903 2697.725 L 383.903 2696.525 L 386.303 2695.325 L 387.503 2694.125 L 388.703 2692.925 L 388.703 2691.725 L 385.103 2690.526 L 383.903 2689.326 L 387.503 2686.926 L 392.303 2684.526 L 394.702 2682.126 L 397.102 2676.126 L 397.102 2671.326 L 398.302 2668.926 L 397.102 2666.526 L 397.102 2661.726 L 395.902 2659.326 L 395.902 2658.126 L 397.102 2656.926 L 398.302 2654.527 L 393.503 2653.327 L 389.903 2642.527 L 386.303 2641.327 L 383.903 2641.327 L 383.903 2636.527 L 382.703 2640.127 L 381.503 2641.327 L 379.103 2638.927 L 377.903 2634.127 L 377.903 2631.727 L 376.703 2630.527 L 376.703 2626.927 L 374.303 2626.927 L 371.903 2623.327 L 371.903 2618.528 L 368.303 2614.928 L 367.103 2607.728 L 365.903 2604.128 L 363.503 2602.928 L 361.103 2599.328 L 358.703 2599.328 L 355.104 2598.128 L 352.704 2599.328 L 350.304 2599.328 L 349.104 2598.128 L 347.904 2598.128 L 346.704 2595.728 L 345.504 2595.728 L 343.104 2593.328 L 343.104 2589.728 L 341.904 2588.528 L 340.704 2589.728 L 340.704 2587.328 L 339.504 2586.128 L 337.104 2587.328 L 335.904 2582.529 L 337.104 2581.329 L 338.304 2576.529 L 335.904 2566.929 L 333.504 2560.929 L 330.104 2560.929 L 328.904 2559.729 L 326.504 2559.729 L 322.904 2558.529 L 321.704 2559.729 L 321.704 2558.529 L 319.305 2559.729 L 316.905 2556.129 L 315.705 2551.329 L 314.505 2548.929 L 309.705 2548.929 L 307.305 2546.529 L 302.505 2545.33 L 301.305 2545.33 L 301.305 2542.93 L 298.905 2542.93 L 296.505 2541.73 L 292.905 2536.93 L 294.105 2530.93 L 291.705 2528.53 L 292.905 2523.73 L 290.505 2520.13 L 289.305 2518.93 L 289.305 2517.73 L 286.905 2516.53 L 285.705 2512.93 L 283.306 2511.73 L 284.506 2508.131 L 284.506 2505.731 L 283.306 2500.931 L 284.506 2497.331 L 283.306 2492.531 L 280.906 2490.131 L 278.506 2486.531 L 276.106 2485.331 L 277.306 2481.731 L 277.306 2478.131 L 273.706 2474.531 L 270.106 2475.731 L 267.706 2475.731 L 266.506 2469.732 L 264.106 2467.332 L 260.506 2467.332 L 259.306 2468.532 L 258.106 2468.532 L 256.906 2467.332 L 255.706 2466.132 L 255.706 2462.532 L 254.506 2460.132 L 250.906 2456.532 L 252.106 2455.332 L 254.506 2455.332 L 252.106 2450.532 L 253.306 2448.132 L 254.506 2448.132 L 256.906 2451.732 L 262.906 2451.732 L 265.306 2448.132 L 266.506 2445.732 L 266.506 2442.132 L 267.706 2436.133 L 266.506 2432.533 L 264.106 2431.333 L 258.106 2427.733 L 256.906 2426.533 L 248.507 2424.133 L 243.707 2424.133 L 242.507 2422.933 L 240.107 2419.333 L 238.907 2415.733 L 235.307 2415.733 L 231.707 2412.133 L 230.507 2407.333 L 226.907 2406.133 L 223.307 2402.533 L 216.107 2395.334 L 213.707 2395.334 L 212.508 2389.334 L 216.107 2389.334 L 219.707 2388.134 L 223.307 2382.134 L 223.307 2379.734 L 225.707 2377.334 L 223.307 2374.934 L 223.307 2368.934 L 220.907 2366.534 L 217.307 2358.135 L 217.307 2355.735 L 218.507 2354.535 L 219.707 2355.735 L 220.907 2358.135 L 222.107 2356.935 L 223.307 2356.935 L 226.907 2360.535 L 234.107 2361.735 L 235.307 2359.335 L 236.507 2355.735 L 241.307 2353.335 L 243.707 2353.335 L 247.307 2354.535 L 252.106 2352.135 L 253.306 2352.135 L 253.306 2355.735 L 254.506 2355.735 L 260.506 2352.135 L 264.106 2347.335 L 264.106 2346.135 L 261.706 2341.335 L 261.706 2335.335 L 259.306 2332.935 L 255.706 2330.535 L 254.506 2329.336 L 253.306 2323.336 L 250.906 2320.936 L 249.706 2318.536 L 247.307 2316.136 L 247.307 2314.936 L 246.207 2313.036 Z " fill="#F3AA47" vector-effect="non-scaling-stroke" stroke-width="1" stroke-linejoin="miter" stroke-linecap="butt" stroke-miterlimit="4"/></svg>