<?xml version="1.0" standalone="no"?><!-- Generator: Gravit.io --><svg xmlns="http://www.w3.org/2000/svg" xmlns:xlink="http://www.w3.org/1999/xlink" style="isolation:isolate" viewBox="6516.533 2620.927 548.785 311.191" width="548.785" height="311.191"><path d=" M 6518.533 2716.525 L 6524.533 2710.525 L 6528.133 2709.325 L 6532.933 2704.525 L 6532.933 2700.925 L 6535.332 2696.125 L 6538.932 2692.525 L 6542.532 2688.926 L 6543.732 2687.726 L 6548.532 2687.726 L 6550.932 2686.526 L 6554.532 2686.526 L 6555.732 2684.126 L 6561.732 2684.126 L 6564.132 2682.926 L 6565.332 2679.326 L 6567.732 2676.926 L 6567.732 2675.726 L 6568.932 2674.526 L 6570.131 2673.326 L 6571.331 2670.926 L 6576.131 2666.126 L 6577.331 2663.726 L 6579.731 2662.526 L 6580.931 2663.726 L 6582.131 2660.126 L 6582.131 2658.926 L 6584.531 2657.726 L 6586.931 2655.326 L 6588.131 2652.927 L 6589.331 2651.727 L 6590.531 2644.527 L 6589.331 2643.327 L 6591.731 2640.927 L 6591.731 2638.527 L 6590.531 2637.327 L 6594.131 2634.927 L 6595.331 2634.927 L 6598.931 2631.327 L 6601.331 2631.327 L 6602.531 2630.127 L 6604.931 2632.527 L 6604.931 2634.927 L 6606.131 2636.127 L 6607.33 2636.127 L 6607.33 2637.327 L 6608.53 2638.527 L 6609.73 2640.927 L 6612.13 2643.327 L 6612.13 2644.527 L 6613.33 2646.927 L 6615.73 2648.127 L 6615.73 2651.727 L 6614.53 2652.927 L 6613.33 2654.127 L 6613.33 2655.326 L 6615.73 2654.127 L 6615.73 2656.526 L 6620.53 2654.127 L 6620.53 2655.326 L 6619.33 2656.526 L 6620.53 2657.726 L 6622.93 2658.926 L 6627.73 2658.926 L 6628.93 2657.726 L 6627.73 2656.526 L 6628.93 2654.127 L 6631.33 2651.727 L 6633.73 2650.527 L 6637.33 2651.727 L 6640.93 2648.127 L 6643.329 2649.327 L 6644.529 2649.327 L 6646.929 2650.527 L 6650.529 2650.527 L 6650.529 2655.326 L 6649.329 2656.526 L 6654.129 2661.326 L 6660.129 2661.326 L 6663.729 2663.726 L 6666.129 2666.126 L 6678.129 2670.926 L 6679.328 2673.326 L 6681.728 2673.326 L 6681.728 2675.726 L 6684.128 2678.126 L 6687.728 2682.926 L 6690.128 2685.326 L 6691.328 2686.526 L 6693.728 2688.926 L 6693.728 2691.325 L 6694.928 2693.725 L 6696.128 2693.725 L 6696.128 2699.725 L 6699.728 2696.125 L 6702.128 2694.925 L 6709.328 2699.725 L 6706.928 2702.125 L 6706.928 2705.725 L 6708.128 2706.925 L 6711.728 2704.525 L 6714.128 2703.325 L 6716.527 2699.725 L 6717.727 2699.725 L 6722.527 2702.125 L 6723.727 2703.325 L 6727.327 2708.125 L 6726.127 2711.725 L 6727.327 2714.125 L 6727.327 2711.725 L 6728.527 2714.125 L 6733.327 2714.125 L 6736.927 2720.125 L 6741.727 2722.525 L 6745.327 2726.125 L 6746.527 2726.125 L 6747.727 2724.925 L 6748.927 2724.925 L 6748.927 2723.725 L 6747.727 2722.525 L 6747.727 2720.125 L 6751.326 2717.725 L 6751.326 2716.525 L 6750.127 2715.325 L 6752.526 2710.525 L 6754.926 2708.125 L 6756.126 2708.125 L 6759.726 2706.925 L 6758.526 2706.925 L 6759.726 2705.725 L 6763.326 2705.725 L 6764.526 2706.925 L 6765.726 2709.325 L 6772.926 2709.325 L 6780.126 2705.725 L 6790.925 2706.925 L 6793.325 2708.125 L 6796.925 2712.925 L 6799.325 2714.125 L 6799.325 2712.925 L 6800.525 2714.125 L 6801.725 2714.125 L 6801.725 2715.325 L 6802.925 2716.525 L 6804.125 2715.325 L 6804.125 2716.525 L 6805.325 2715.325 L 6805.325 2716.525 L 6806.525 2716.525 L 6806.525 2718.925 L 6808.925 2717.725 L 6810.125 2717.725 L 6812.525 2716.525 L 6813.725 2716.525 L 6813.725 2714.125 L 6812.525 2714.125 L 6812.525 2709.325 L 6824.524 2705.725 L 6825.724 2704.525 L 6826.924 2703.325 L 6826.924 2702.125 L 6828.124 2699.725 L 6829.324 2699.725 L 6830.524 2700.925 L 6831.724 2699.725 L 6832.924 2698.525 L 6834.124 2698.525 L 6834.124 2697.325 L 6836.524 2696.125 L 6836.524 2694.925 L 6838.924 2694.925 L 6838.924 2697.325 L 6840.124 2698.525 L 6841.324 2696.125 L 6842.524 2697.325 L 6844.924 2697.325 L 6847.324 2696.125 L 6849.724 2697.325 L 6850.924 2696.125 L 6852.124 2694.925 L 6850.924 2693.725 L 6850.924 2692.525 L 6853.324 2693.725 L 6854.524 2693.725 L 6855.724 2692.525 L 6856.924 2690.126 L 6858.124 2688.926 L 6859.323 2687.726 L 6859.323 2688.926 L 6860.523 2687.726 L 6861.723 2688.926 L 6861.723 2687.726 L 6862.923 2687.726 L 6865.323 2686.526 L 6866.523 2687.726 L 6867.723 2687.726 L 6867.723 2688.926 L 6868.923 2688.926 L 6868.923 2687.726 L 6870.123 2688.926 L 6873.723 2687.726 L 6873.723 2686.526 L 6871.323 2685.326 L 6871.323 2682.926 L 6870.123 2681.726 L 6867.723 2681.726 L 6867.723 2678.126 L 6866.523 2676.926 L 6866.523 2674.526 L 6872.523 2674.526 L 6874.923 2672.126 L 6874.923 2669.726 L 6876.123 2669.726 L 6877.323 2668.526 L 6878.523 2664.926 L 6880.923 2664.926 L 6882.123 2663.726 L 6889.323 2663.726 L 6889.323 2662.526 L 6891.723 2661.326 L 6894.123 2658.926 L 6894.123 2657.726 L 6895.322 2656.526 L 6894.123 2654.127 L 6891.723 2652.927 L 6890.523 2650.527 L 6891.723 2648.127 L 6898.922 2645.727 L 6902.522 2640.927 L 6908.522 2639.727 L 6913.322 2640.927 L 6915.722 2638.527 L 6920.522 2638.527 L 6920.522 2637.327 L 6922.922 2636.127 L 6924.122 2634.927 L 6927.722 2634.927 L 6928.922 2632.527 L 6928.922 2631.327 L 6931.321 2631.327 L 6932.521 2630.127 L 6933.721 2631.327 L 6938.521 2630.127 L 6940.921 2632.527 L 6944.521 2632.527 L 6945.721 2630.127 L 6948.121 2631.327 L 6950.521 2628.927 L 6951.721 2628.927 L 6952.921 2631.327 L 6952.921 2630.127 L 6952.921 2632.527 L 6951.721 2634.927 L 6952.921 2636.127 L 6951.721 2637.327 L 6952.921 2637.327 L 6954.121 2638.527 L 6956.521 2639.727 L 6958.921 2640.927 L 6961.321 2639.727 L 6963.721 2639.727 L 6964.921 2638.527 L 6967.321 2639.727 L 6968.52 2637.327 L 6972.12 2637.327 L 6974.52 2634.927 L 6978.12 2634.927 L 6979.32 2633.727 L 6981.72 2631.327 L 6985.32 2631.327 L 6986.52 2628.927 L 6987.72 2627.727 L 6990.12 2627.727 L 6991.32 2625.327 L 6993.72 2625.327 L 6994.92 2624.127 L 6996.12 2622.927 L 6996.12 2625.327 L 6998.52 2622.927 L 7000.92 2622.927 L 7000.92 2624.127 L 7002.12 2622.927 L 7002.12 2624.127 L 7003.32 2625.327 L 7003.32 2624.127 L 7005.719 2624.127 L 7005.719 2622.927 L 7009.319 2622.927 L 7008.119 2625.327 L 7009.319 2625.327 L 7009.319 2626.527 L 7010.519 2627.727 L 7014.119 2627.727 L 7014.119 2626.527 L 7018.919 2626.527 L 7020.119 2628.927 L 7028.519 2631.327 L 7038.119 2633.727 L 7041.718 2633.727 L 7046.518 2636.127 L 7048.918 2634.927 L 7051.318 2636.127 L 7059.718 2636.127 L 7063.318 2638.527 L 7063.318 2642.127 L 7060.918 2644.527 L 7059.718 2648.127 L 7058.518 2651.727 L 7057.318 2652.927 L 7053.718 2656.526 L 7051.318 2660.126 L 7050.118 2661.326 L 7048.918 2664.926 L 7048.918 2667.326 L 7047.718 2668.526 L 7048.918 2668.526 L 7047.718 2669.726 L 7045.318 2672.126 L 7045.318 2674.526 L 7042.918 2676.926 L 7042.918 2678.126 L 7040.518 2679.326 L 7040.518 2682.926 L 7039.319 2684.126 L 7038.119 2684.126 L 7038.119 2688.926 L 7036.919 2691.325 L 7034.519 2692.525 L 7033.319 2693.725 L 7033.319 2694.925 L 7032.119 2697.325 L 7029.719 2698.525 L 7029.719 2699.725 L 7028.519 2703.325 L 7024.919 2706.925 L 7022.519 2708.125 L 7020.119 2711.725 L 7017.719 2712.925 L 7016.519 2714.125 L 7017.719 2714.125 L 7014.119 2715.325 L 7012.919 2716.525 L 7012.919 2717.725 L 7009.319 2718.925 L 7008.119 2720.125 L 7004.519 2723.725 L 7003.32 2726.125 L 7002.12 2732.124 L 6999.72 2736.924 L 6997.32 2736.924 L 6997.32 2739.324 L 6996.12 2739.324 L 6992.52 2742.924 L 6991.32 2745.324 L 6986.52 2748.924 L 6986.52 2752.524 L 6984.12 2752.524 L 6981.72 2754.924 L 6981.72 2756.124 L 6979.32 2757.324 L 6976.92 2759.724 L 6975.72 2759.724 L 6973.32 2763.323 L 6970.92 2765.723 L 6969.72 2768.123 L 6967.321 2771.723 L 6967.321 2777.723 L 6964.921 2777.723 L 6962.521 2781.323 L 6961.321 2780.123 L 6962.521 2780.123 L 6962.521 2778.923 L 6961.321 2778.923 L 6956.521 2780.123 L 6951.721 2786.123 L 6950.521 2786.123 L 6946.921 2789.723 L 6945.721 2792.123 L 6946.921 2790.923 L 6939.721 2799.322 L 6936.121 2805.322 L 6933.721 2808.922 L 6931.321 2814.922 L 6924.122 2820.922 L 6920.522 2828.122 L 6918.122 2831.722 L 6913.322 2838.921 L 6908.522 2847.321 L 6906.122 2849.721 L 6906.122 2852.121 L 6903.722 2854.521 L 6901.322 2853.321 L 6898.922 2855.721 L 6894.123 2861.721 L 6892.923 2864.121 L 6890.523 2866.521 L 6890.523 2867.721 L 6888.123 2866.521 L 6885.723 2867.721 L 6883.323 2870.121 L 6880.923 2874.92 L 6876.123 2877.32 L 6871.323 2883.32 L 6865.323 2888.12 L 6861.723 2892.92 L 6860.523 2895.32 L 6860.523 2901.32 L 6861.723 2902.52 L 6861.723 2903.72 L 6860.523 2904.92 L 6859.323 2904.92 L 6854.524 2912.119 L 6847.324 2927.719 L 6846.124 2928.919 L 6844.924 2930.119 L 6843.724 2928.919 L 6842.524 2926.519 L 6838.924 2919.319 L 6837.724 2915.719 L 6836.524 2915.719 L 6832.924 2913.319 L 6831.724 2912.119 L 6828.124 2914.519 L 6828.124 2915.719 L 6826.924 2915.719 L 6823.324 2916.919 L 6822.125 2916.919 L 6822.125 2915.719 L 6823.324 2915.719 L 6818.525 2915.719 L 6817.325 2916.919 L 6813.725 2914.519 L 6814.925 2909.719 L 6813.725 2904.92 L 6813.725 2898.92 L 6812.525 2896.52 L 6810.125 2892.92 L 6808.925 2890.52 L 6805.325 2888.12 L 6805.325 2886.92 L 6804.125 2885.72 L 6802.925 2884.52 L 6800.525 2884.52 L 6798.125 2886.92 L 6794.525 2886.92 L 6793.325 2888.12 L 6789.725 2888.12 L 6787.325 2886.92 L 6786.126 2886.92 L 6783.726 2884.52 L 6781.326 2883.32 L 6780.126 2883.32 L 6781.326 2882.12 L 6781.326 2880.92 L 6777.726 2879.72 L 6776.526 2879.72 L 6770.526 2878.52 L 6769.326 2877.32 L 6765.726 2874.92 L 6764.526 2873.72 L 6764.526 2870.121 L 6763.326 2867.721 L 6760.926 2867.721 L 6758.526 2865.321 L 6752.526 2864.121 L 6751.326 2861.721 L 6748.927 2858.121 L 6746.527 2855.721 L 6745.327 2852.121 L 6745.327 2849.721 L 6744.127 2848.521 L 6744.127 2840.121 L 6742.927 2837.721 L 6742.927 2836.521 L 6738.127 2834.122 L 6735.727 2834.122 L 6732.127 2836.521 L 6728.527 2836.521 L 6723.727 2831.722 L 6714.128 2823.322 L 6710.528 2820.922 L 6702.128 2819.722 L 6694.928 2819.722 L 6693.728 2818.522 L 6693.728 2817.322 L 6692.528 2814.922 L 6690.128 2811.322 L 6686.528 2807.722 L 6684.128 2806.522 L 6680.528 2805.322 L 6675.729 2801.722 L 6674.529 2800.522 L 6673.329 2799.322 L 6670.929 2799.322 L 6667.329 2798.123 L 6662.529 2795.723 L 6661.329 2794.523 L 6654.129 2793.323 L 6639.73 2790.923 L 6636.13 2790.923 L 6633.73 2789.723 L 6620.53 2781.323 L 6620.53 2780.123 L 6619.33 2777.723 L 6618.13 2775.323 L 6615.73 2774.123 L 6610.93 2771.723 L 6604.931 2770.523 L 6603.731 2770.523 L 6598.931 2772.923 L 6597.731 2772.923 L 6596.531 2769.323 L 6594.131 2766.923 L 6592.931 2764.523 L 6589.331 2764.523 L 6589.331 2762.124 L 6588.131 2762.124 L 6580.931 2756.124 L 6579.731 2754.924 L 6578.531 2754.924 L 6574.931 2756.124 L 6567.732 2753.724 L 6561.732 2752.524 L 6559.332 2750.124 L 6560.532 2746.524 L 6558.132 2744.124 L 6555.732 2741.724 L 6552.132 2741.724 L 6549.732 2739.324 L 6548.532 2739.324 L 6547.332 2738.124 L 6547.332 2736.924 L 6546.132 2736.924 L 6541.332 2735.724 L 6540.132 2735.724 L 6538.932 2736.924 L 6535.332 2735.724 L 6532.933 2736.924 L 6529.333 2733.324 L 6525.733 2733.324 L 6524.533 2732.124 L 6524.533 2729.724 L 6525.733 2728.524 L 6525.733 2726.125 L 6524.533 2724.925 L 6523.333 2721.325 L 6518.533 2716.525 Z " fill="#F3AA47" vector-effect="non-scaling-stroke" stroke-width="1" stroke-linejoin="miter" stroke-linecap="butt" stroke-miterlimit="4"/></svg>