<?xml version="1.0" standalone="no"?><!-- Generator: Gravit.io --><svg xmlns="http://www.w3.org/2000/svg" xmlns:xlink="http://www.w3.org/1999/xlink" style="isolation:isolate" viewBox="3580.414 210.294 888.376 1037.571" width="888.376" height="1037.571"><path d=" M 3585.314 577.084 L 3598.414 575.884 L 3606.814 571.084 L 3617.613 574.684 L 3616.413 590.284 L 3622.413 597.483 L 3632.013 595.084 L 3661.912 617.883 L 3705.011 623.883 L 3738.51 614.283 L 3740.91 613.083 L 3743.31 614.283 L 3744.51 611.883 L 3746.91 611.883 L 3748.11 613.083 L 3749.31 611.883 L 3749.31 610.683 L 3750.51 609.483 L 3749.31 605.883 L 3749.31 603.483 L 3750.51 602.283 L 3750.51 603.483 L 3752.909 603.483 L 3752.909 605.883 L 3755.309 607.083 L 3756.509 603.483 L 3757.709 604.683 L 3757.709 603.483 L 3758.909 602.283 L 3757.709 601.083 L 3758.909 598.683 L 3761.309 598.683 L 3762.509 599.883 L 3763.709 598.683 L 3764.909 599.883 L 3766.109 599.883 L 3769.709 598.683 L 3770.909 598.683 L 3769.709 596.283 L 3768.509 596.283 L 3767.309 595.084 L 3770.909 593.884 L 3772.109 591.484 L 3773.309 591.484 L 3774.509 590.284 L 3775.709 590.284 L 3776.909 589.084 L 3778.109 587.884 L 3784.109 587.884 L 3785.309 589.084 L 3784.109 589.084 L 3781.709 590.284 L 3784.109 591.484 L 3785.309 590.284 L 3786.509 592.684 L 3787.709 591.484 L 3786.509 593.884 L 3784.109 595.084 L 3785.309 597.483 L 3784.109 597.483 L 3782.909 598.683 L 3782.909 599.883 L 3785.309 599.883 L 3786.509 598.683 L 3790.108 599.883 L 3792.508 599.883 L 3793.708 602.283 L 3794.908 602.283 L 3794.908 600.983 L 3798.508 600.983 L 3798.508 602.183 L 3799.708 600.983 L 3799.708 604.583 L 3804.508 604.583 L 3805.708 605.783 L 3806.908 605.783 L 3806.908 604.583 L 3809.308 604.583 L 3811.708 606.983 L 3815.308 606.983 L 3817.708 609.383 L 3821.308 609.383 L 3823.708 608.183 L 3824.908 608.183 L 3827.307 609.383 L 3829.707 608.183 L 3832.107 609.383 L 3834.507 608.183 L 3834.507 606.983 L 3833.307 605.783 L 3832.107 603.383 L 3833.307 603.383 L 3838.107 605.783 L 3839.307 603.383 L 3840.507 603.383 L 3841.707 602.183 L 3844.107 602.183 L 3845.307 599.783 L 3847.707 599.783 L 3848.907 598.583 L 3850.107 597.383 L 3851.307 594.984 L 3851.307 592.584 L 3853.707 591.384 L 3856.107 591.384 L 3857.307 593.784 L 3858.507 592.584 L 3859.707 594.984 L 3859.707 597.383 L 3860.907 598.583 L 3863.306 599.783 L 3865.706 599.783 L 3865.706 602.183 L 3869.306 603.383 L 3869.306 605.783 L 3871.706 606.983 L 3874.106 605.783 L 3875.306 608.183 L 3870.506 611.783 L 3869.306 610.583 L 3869.306 614.183 L 3868.106 615.383 L 3865.706 615.383 L 3866.906 616.583 L 3865.706 618.983 L 3864.506 620.183 L 3864.506 621.383 L 3865.706 622.583 L 3866.906 622.583 L 3865.706 621.383 L 3866.906 621.383 L 3868.106 622.583 L 3869.306 621.383 L 3870.506 620.183 L 3871.706 620.183 L 3872.906 618.983 L 3874.106 618.983 L 3875.306 620.183 L 3876.506 621.383 L 3876.506 620.183 L 3877.706 621.383 L 3878.906 620.183 L 3882.506 620.183 L 3884.906 618.983 L 3890.906 617.783 L 3901.705 617.783 L 3904.105 620.183 L 3904.105 621.383 L 3906.505 623.783 L 3907.705 624.983 L 3913.705 624.983 L 3918.505 627.383 L 3925.705 626.183 L 3926.905 622.583 L 3925.705 621.383 L 3926.905 621.383 L 3928.105 622.583 L 3928.105 621.383 L 3930.505 621.383 L 3931.705 622.583 L 3932.905 621.383 L 3934.104 617.783 L 3935.304 616.583 L 3935.304 614.183 L 3937.704 612.983 L 3937.704 609.383 L 3941.304 609.383 L 3941.304 608.183 L 3940.104 605.783 L 3943.704 605.783 L 3943.704 604.583 L 3944.904 604.583 L 3950.904 602.183 L 3953.304 599.783 L 3954.504 600.983 L 3954.504 598.583 L 3955.704 599.783 L 3956.904 598.583 L 3960.504 597.383 L 3961.704 596.183 L 3962.904 596.183 L 3965.304 594.984 L 3965.304 593.784 L 3974.903 586.684 L 3976.103 584.284 L 3974.903 583.084 L 3978.503 579.484 L 3978.503 577.084 L 3979.703 575.884 L 3980.903 574.684 L 3983.303 574.684 L 3984.503 573.484 L 3983.303 572.284 L 3984.503 569.884 L 3988.103 569.884 L 3988.103 566.284 L 3991.703 562.684 L 3994.103 562.684 L 3994.103 560.284 L 3992.903 556.685 L 3995.303 555.485 L 3996.503 555.485 L 3996.503 554.285 L 3997.703 551.885 L 3998.903 551.885 L 3997.703 548.285 L 3994.103 545.885 L 3995.303 543.485 L 3992.903 541.085 L 3995.303 538.685 L 3996.503 537.485 L 3997.703 538.685 L 4000.103 532.685 L 4001.303 530.285 L 4003.703 525.485 L 4006.102 520.686 L 4006.102 519.486 L 4007.302 517.086 L 4006.102 514.686 L 4007.302 512.286 L 4010.902 506.286 L 4012.102 502.686 L 4016.902 495.486 L 4019.302 493.086 L 4020.502 494.286 L 4021.702 494.286 L 4024.102 490.686 L 4024.102 489.486 L 4022.902 489.486 L 4021.702 488.286 L 4021.702 484.687 L 4022.902 484.687 L 4024.102 482.287 L 4026.502 477.487 L 4026.502 473.887 L 4027.702 470.287 L 4028.902 469.087 L 4031.302 464.287 L 4033.702 459.487 L 4030.102 455.887 L 4031.302 453.487 L 4032.502 452.287 L 4031.302 451.088 L 4030.102 452.287 L 4028.902 451.088 L 4030.102 448.688 L 4031.302 449.888 L 4032.502 448.688 L 4031.302 447.488 L 4032.502 445.088 L 4033.702 442.688 L 4036.102 441.488 L 4038.502 442.688 L 4037.302 436.688 L 4039.702 434.288 L 4039.702 431.888 L 4042.101 430.688 L 4044.501 429.488 L 4044.501 428.288 L 4045.701 427.088 L 4046.901 428.288 L 4048.101 430.688 L 4050.501 429.488 L 4051.701 428.288 L 4056.501 421.088 L 4057.701 419.888 L 4057.701 417.488 L 4063.701 410.289 L 4064.901 406.689 L 4072.101 392.289 L 4074.501 389.889 L 4075.701 385.089 L 4076.901 383.889 L 4079.3 381.489 L 4078.1 380.289 L 4081.7 379.09 L 4087.7 365.89 L 4091.3 362.29 L 4092.5 359.89 L 4093.7 351.49 L 4094.9 350.29 L 4096.1 349.09 L 4097.3 343.091 L 4099.7 340.691 L 4104.5 341.891 L 4105.7 338.291 L 4104.5 333.491 L 4105.7 331.091 L 4108.1 329.891 L 4109.3 328.691 L 4111.7 328.691 L 4114.099 327.491 L 4116.499 323.891 L 4116.499 322.691 L 4117.699 321.491 L 4118.899 320.291 L 4122.499 319.091 L 4123.699 316.691 L 4123.699 315.491 L 4127.299 313.091 L 4129.699 309.491 L 4130.899 305.892 L 4130.899 299.892 L 4132.099 297.492 L 4135.699 293.892 L 4136.899 292.692 L 4142.899 291.492 L 4145.299 290.292 L 4147.699 287.892 L 4151.298 286.692 L 4154.898 284.292 L 4154.898 278.292 L 4156.098 275.892 L 4159.698 266.293 L 4162.098 261.493 L 4163.298 256.693 L 4163.298 250.693 L 4164.498 249.493 L 4165.698 244.693 L 4166.898 229.094 L 4170.498 215.894 L 4171.698 214.694 L 4172.898 213.494 L 4177.698 212.294 L 4180.098 214.694 L 4182.498 214.694 L 4188.497 220.694 L 4193.297 224.294 L 4207.697 238.693 L 4224.496 256.693 L 4224.496 257.893 L 4228.096 262.693 L 4229.296 266.293 L 4231.696 269.893 L 4235.296 280.692 L 4235.296 281.892 L 4236.496 283.092 L 4236.496 290.292 L 4237.696 293.892 L 4237.696 302.292 L 4238.896 303.492 L 4247.296 308.291 L 4252.096 308.291 L 4254.496 310.691 L 4254.496 311.891 L 4255.696 311.891 L 4255.696 319.091 L 4254.496 322.691 L 4254.496 335.891 L 4253.296 337.091 L 4254.496 340.691 L 4253.296 343.091 L 4253.296 350.29 L 4254.496 358.69 L 4256.896 384.989 L 4254.496 390.989 L 4254.496 389.789 L 4253.296 390.989 L 4253.296 402.989 L 4254.496 406.589 L 4265.295 436.488 L 4264.095 440.088 L 4262.895 442.488 L 4262.895 448.488 L 4264.095 453.287 L 4267.695 456.887 L 4267.695 459.287 L 4266.495 461.687 L 4266.495 465.287 L 4267.695 467.687 L 4268.895 471.287 L 4271.295 473.687 L 4271.295 480.887 L 4272.495 485.687 L 4273.695 488.086 L 4274.895 491.686 L 4278.495 495.286 L 4278.495 503.686 L 4279.695 507.286 L 4278.495 509.686 L 4282.095 508.486 L 4284.495 510.886 L 4285.695 510.886 L 4286.895 513.286 L 4285.695 515.686 L 4285.695 518.086 L 4288.095 519.286 L 4289.295 521.686 L 4289.295 531.285 L 4291.695 532.485 L 4295.294 536.085 L 4295.294 538.485 L 4296.494 539.685 L 4296.494 549.285 L 4297.694 551.685 L 4298.894 558.885 L 4297.694 563.684 L 4295.294 564.884 L 4294.095 567.284 L 4295.294 567.284 L 4295.294 566.084 L 4297.694 566.084 L 4301.294 563.684 L 4303.694 563.684 L 4306.094 564.884 L 4307.294 567.284 L 4307.294 569.684 L 4309.694 573.284 L 4310.894 574.484 L 4310.894 578.084 L 4309.694 581.684 L 4310.894 584.084 L 4312.094 586.484 L 4310.894 590.084 L 4313.294 591.284 L 4314.494 593.684 L 4314.494 599.683 L 4315.694 602.083 L 4318.094 605.683 L 4318.094 612.883 L 4319.294 612.883 L 4320.494 614.083 L 4322.894 618.883 L 4324.094 621.283 L 4325.294 624.883 L 4325.294 628.483 L 4324.094 629.683 L 4321.694 629.683 L 4321.694 630.883 L 4327.694 628.483 L 4339.693 623.683 L 4343.293 622.483 L 4352.893 618.883 L 4364.893 618.883 L 4367.292 620.083 L 4367.292 621.283 L 4368.492 621.283 L 4370.892 623.683 L 4372.092 627.283 L 4376.892 633.282 L 4376.892 634.482 L 4378.092 635.682 L 4379.292 638.082 L 4380.492 638.082 L 4382.892 640.482 L 4384.092 641.682 L 4382.892 644.082 L 4384.092 645.282 L 4384.092 646.482 L 4386.492 650.082 L 4386.492 652.482 L 4390.092 654.882 L 4390.092 660.882 L 4391.292 662.082 L 4392.492 664.482 L 4397.292 676.481 L 4403.291 692.081 L 4415.291 689.681 L 4427.291 694.481 L 4429.691 694.481 L 4435.691 696.881 L 4439.29 698.081 L 4445.29 701.681 L 4459.59 710.08 L 4460.79 711.28 L 4460.79 713.68 L 4459.59 714.88 L 4459.59 716.08 L 4461.99 716.08 L 4463.19 723.28 L 4465.59 740.08 L 4466.79 750.879 L 4466.79 756.879 L 4465.59 765.279 L 4466.79 767.679 L 4464.39 778.478 L 4460.79 784.478 L 4461.99 788.078 L 4463.19 796.478 L 4464.39 798.878 L 4464.39 803.678 L 4460.79 809.678 L 4459.59 813.277 L 4457.19 818.077 L 4455.99 818.077 L 4454.79 819.277 L 4455.99 819.277 L 4454.79 831.277 L 4455.99 832.477 L 4455.99 839.677 L 4454.79 842.077 L 4451.19 845.677 L 4449.99 845.677 L 4446.39 851.676 L 4445.19 855.276 L 4441.59 862.476 L 4437.991 864.876 L 4437.991 866.076 L 4436.791 866.076 L 4435.591 864.876 L 4435.591 868.476 L 4434.391 870.876 L 4435.591 870.876 L 4435.591 874.476 L 4434.391 873.276 L 4433.191 874.476 L 4433.191 876.876 L 4430.791 876.876 L 4430.791 878.076 L 4429.591 878.076 L 4426.991 891.975 L 4408.991 891.975 L 4402.991 893.175 L 4400.592 894.375 L 4388.592 896.775 L 4382.592 899.175 L 4374.192 905.175 L 4372.992 906.375 L 4371.792 906.375 L 4366.992 911.175 L 4364.593 915.975 L 4360.993 923.174 L 4359.793 932.774 L 4358.593 936.374 L 4354.993 941.174 L 4351.393 951.974 L 4348.993 956.774 L 4345.393 963.973 L 4341.793 971.173 L 4338.193 974.773 L 4333.393 978.373 L 4329.794 981.973 L 4326.194 986.773 L 4312.994 996.372 L 4305.794 999.972 L 4299.794 1001.172 L 4284.195 1005.972 L 4281.795 1005.972 L 4279.395 1007.172 L 4272.195 1013.172 L 4270.995 1014.372 L 4267.395 1019.172 L 4267.395 1020.372 L 4266.195 1020.372 L 4262.595 1025.172 L 4261.395 1026.372 L 4258.995 1029.971 L 4255.396 1033.571 L 4251.796 1035.971 L 4250.596 1035.971 L 4246.996 1038.371 L 4236.196 1039.571 L 4228.996 1041.971 L 4222.996 1051.571 L 4220.597 1056.371 L 4215.797 1062.371 L 4213.397 1065.97 L 4209.797 1069.57 L 4208.597 1070.77 L 4206.197 1074.37 L 4204.997 1076.77 L 4204.997 1077.97 L 4203.797 1087.57 L 4195.397 1095.97 L 4192.997 1098.37 L 4190.597 1106.769 L 4186.997 1113.969 L 4180.998 1119.969 L 4176.198 1123.569 L 4173.798 1125.969 L 4166.598 1134.369 L 4161.798 1139.168 L 4149.799 1159.568 L 4148.599 1160.768 L 4147.399 1163.168 L 4146.199 1164.368 L 4146.199 1170.368 L 4144.999 1182.367 L 4144.999 1188.367 L 4143.799 1188.367 L 4144.999 1201.467 L 4146.199 1205.067 L 4146.199 1208.667 L 4144.999 1211.066 L 4142.599 1214.666 L 4129.499 1227.866 L 4124.699 1231.466 L 4110.3 1232.666 L 4109.1 1231.466 L 4104.3 1226.666 L 4101.9 1227.866 L 4099.5 1232.666 L 4099.5 1233.866 L 4098.3 1232.666 L 4097.1 1232.666 L 4097.1 1225.466 L 4094.7 1224.266 L 4093.5 1224.266 L 4092.3 1225.466 L 4093.5 1231.466 L 4092.3 1232.666 L 4092.3 1233.866 L 4088.7 1232.666 L 4083.9 1233.866 L 4081.5 1235.066 L 4079.1 1236.266 L 4079.1 1237.466 L 4080.3 1238.666 L 4082.7 1241.066 L 4082.7 1242.266 L 4081.5 1244.666 L 4077.9 1245.866 L 4073.101 1243.466 L 4071.901 1243.466 L 4070.701 1242.266 L 4070.701 1239.866 L 4071.901 1236.266 L 4069.501 1230.266 L 4069.501 1229.066 L 4064.701 1229.066 L 4062.301 1226.666 L 4051.501 1226.666 L 4049.101 1225.466 L 4041.901 1225.466 L 4037.102 1223.066 L 4032.302 1223.066 L 4028.702 1214.666 L 4027.502 1213.466 L 4022.702 1212.266 L 4020.302 1209.867 L 4016.702 1212.266 L 4015.502 1211.066 L 4014.302 1209.867 L 4016.702 1207.467 L 4017.902 1203.867 L 4016.702 1202.667 L 4016.702 1196.667 L 4013.102 1193.067 L 4013.102 1189.467 L 4014.302 1188.267 L 4015.502 1187.067 L 4019.102 1187.067 L 4020.302 1182.267 L 4019.102 1179.867 L 4016.702 1176.267 L 4014.302 1175.067 L 4011.902 1172.668 L 4010.702 1171.468 L 4008.302 1173.868 L 4007.102 1173.868 L 4003.503 1175.067 L 3999.903 1176.267 L 3995.103 1176.267 L 3996.303 1173.868 L 4001.103 1167.868 L 3998.703 1166.668 L 3998.703 1161.868 L 4002.303 1155.868 L 4002.303 1146.268 L 4001.103 1143.868 L 3999.903 1141.468 L 3999.903 1133.069 L 3998.703 1127.069 L 3996.303 1124.669 L 3990.303 1124.669 L 3985.503 1125.869 L 3981.903 1128.269 L 3979.503 1128.269 L 3977.103 1127.069 L 3972.303 1119.869 L 3972.303 1116.269 L 3969.903 1113.869 L 3967.504 1110.269 L 3968.704 1106.669 L 3966.304 1104.269 L 3971.103 1097.07 L 3969.903 1095.87 L 3967.504 1091.07 L 3967.504 1087.47 L 3969.903 1082.67 L 3969.903 1077.87 L 3968.704 1075.47 L 3966.304 1073.07 L 3963.904 1073.07 L 3960.304 1070.67 L 3957.904 1068.27 L 3956.704 1063.471 L 3943.604 1053.871 L 3942.404 1051.471 L 3941.204 1049.071 L 3940.004 1047.871 L 3936.404 1046.671 L 3931.605 1047.871 L 3926.805 1046.671 L 3925.605 1045.471 L 3920.805 1032.371 L 3919.605 1027.572 L 3918.405 1021.572 L 3918.405 1015.572 L 3917.205 1014.372 L 3913.605 1011.972 L 3911.205 1009.572 L 3912.405 1002.372 L 3908.805 1001.172 L 3907.605 998.772 L 3907.605 995.172 L 3906.405 993.972 L 3905.205 991.573 L 3901.605 989.173 L 3899.205 985.573 L 3896.806 984.373 L 3895.606 978.373 L 3896.806 974.773 L 3898.005 973.573 L 3894.406 967.573 L 3890.806 965.173 L 3889.606 960.373 L 3888.406 956.774 L 3884.806 954.374 L 3883.606 950.774 L 3886.006 947.174 L 3886.006 943.574 L 3884.806 938.774 L 3887.206 932.774 L 3886.006 931.574 L 3883.606 930.374 L 3886.006 926.774 L 3884.806 925.574 L 3887.206 923.174 L 3888.406 921.974 L 3888.406 919.575 L 3887.206 917.175 L 3887.206 914.775 L 3888.406 911.175 L 3893.206 905.175 L 3894.406 897.975 L 3895.606 896.775 L 3895.606 895.575 L 3892.006 893.175 L 3889.606 894.375 L 3888.406 893.175 L 3887.206 889.575 L 3886.006 887.175 L 3881.206 883.576 L 3880.006 879.976 L 3878.806 878.776 L 3877.606 878.776 L 3876.406 877.576 L 3869.206 872.776 L 3865.606 870.376 L 3863.206 865.576 L 3860.807 863.176 L 3851.207 858.376 L 3850.007 857.176 L 3841.607 851.176 L 3840.407 847.577 L 3841.607 846.377 L 3841.607 841.577 L 3840.407 840.377 L 3839.207 839.177 L 3838.007 835.577 L 3838.007 834.377 L 3839.207 833.177 L 3839.207 831.977 L 3838.007 829.577 L 3836.807 829.577 L 3836.807 827.177 L 3834.407 824.777 L 3833.207 823.577 L 3833.207 812.777 L 3835.607 810.378 L 3836.807 810.378 L 3839.207 811.578 L 3841.607 811.578 L 3842.807 810.378 L 3842.807 809.178 L 3844.007 805.578 L 3842.807 803.178 L 3840.407 800.778 L 3839.207 797.178 L 3839.207 793.578 L 3838.007 793.578 L 3836.807 794.778 L 3836.807 795.978 L 3830.807 794.778 L 3821.208 799.578 L 3818.808 799.578 L 3817.608 797.178 L 3817.608 795.978 L 3820.008 793.578 L 3821.208 789.978 L 3820.008 787.578 L 3816.408 786.378 L 3815.208 786.378 L 3815.208 781.578 L 3817.608 780.378 L 3820.008 779.178 L 3818.808 775.579 L 3817.608 774.379 L 3814.008 774.379 L 3814.008 775.579 L 3812.808 776.778 L 3809.208 773.179 L 3802.008 774.379 L 3800.808 776.778 L 3798.408 776.778 L 3797.208 774.379 L 3799.608 773.179 L 3800.808 771.979 L 3799.608 768.379 L 3800.808 765.979 L 3799.608 763.579 L 3797.208 764.779 L 3796.008 769.579 L 3793.608 769.579 L 3793.608 768.379 L 3792.408 767.179 L 3790.008 769.579 L 3788.809 768.379 L 3787.609 765.979 L 3791.208 762.379 L 3791.208 761.179 L 3787.609 758.779 L 3786.409 759.979 L 3787.609 762.379 L 3787.609 763.579 L 3785.209 765.979 L 3785.209 767.179 L 3780.409 765.979 L 3779.209 763.579 L 3778.009 765.979 L 3776.809 765.979 L 3775.609 764.779 L 3774.409 762.379 L 3772.009 761.179 L 3769.609 761.179 L 3768.409 762.379 L 3770.809 764.779 L 3772.009 765.979 L 3770.809 767.179 L 3768.409 767.179 L 3767.209 765.979 L 3763.609 767.179 L 3763.609 765.979 L 3764.809 764.779 L 3764.809 763.579 L 3762.409 764.779 L 3758.809 763.579 L 3757.609 764.779 L 3757.609 763.579 L 3758.809 758.779 L 3758.809 757.579 L 3756.409 757.579 L 3755.209 755.179 L 3751.61 755.179 L 3751.61 757.579 L 3749.21 758.779 L 3748.01 758.779 L 3748.01 757.579 L 3749.21 756.379 L 3749.21 755.179 L 3750.41 752.779 L 3749.21 752.779 L 3746.81 751.579 L 3745.61 752.779 L 3745.61 750.379 L 3743.21 749.179 L 3742.01 751.579 L 3739.61 750.379 L 3737.21 751.579 L 3737.21 745.579 L 3736.01 743.179 L 3733.61 744.379 L 3732.41 744.379 L 3733.61 745.579 L 3732.41 746.779 L 3730.01 745.579 L 3727.61 747.979 L 3726.41 747.979 L 3725.21 746.779 L 3722.81 747.979 L 3724.01 749.179 L 3721.61 749.179 L 3721.61 747.979 L 3722.81 745.579 L 3721.61 744.379 L 3722.81 741.979 L 3720.41 737.18 L 3716.81 737.18 L 3716.81 735.98 L 3718.01 733.58 L 3719.21 731.18 L 3719.21 729.98 L 3718.01 731.18 L 3716.81 732.38 L 3715.611 729.98 L 3714.411 729.98 L 3714.411 728.78 L 3715.611 728.78 L 3715.611 727.58 L 3713.211 725.18 L 3714.411 723.98 L 3712.011 723.98 L 3712.011 721.58 L 3710.811 720.38 L 3710.811 721.58 L 3709.611 720.38 L 3706.011 720.38 L 3706.011 717.98 L 3704.811 717.98 L 3703.611 720.38 L 3703.611 723.98 L 3702.411 722.78 L 3701.211 719.18 L 3698.811 717.98 L 3696.411 716.78 L 3696.411 714.38 L 3694.011 714.38 L 3692.811 713.18 L 3690.411 714.38 L 3690.411 713.18 L 3689.211 711.98 L 3690.411 710.78 L 3689.211 709.58 L 3690.411 709.58 L 3689.211 708.38 L 3688.011 709.58 L 3685.611 708.38 L 3686.811 707.18 L 3688.011 705.98 L 3685.611 707.18 L 3685.611 705.98 L 3684.411 705.98 L 3683.211 704.78 L 3682.011 704.78 L 3683.211 703.581 L 3679.612 703.581 L 3679.612 702.381 L 3678.412 703.581 L 3676.012 703.581 L 3676.012 702.381 L 3674.812 702.381 L 3674.812 701.181 L 3670.012 698.781 L 3668.812 702.381 L 3666.412 699.981 L 3662.812 699.981 L 3660.412 701.181 L 3655.612 699.981 L 3654.412 699.981 L 3654.412 701.181 L 3652.012 699.981 L 3652.012 701.181 L 3649.612 702.381 L 3648.412 701.181 L 3647.212 701.181 L 3644.812 699.981 L 3643.613 698.781 L 3642.413 697.581 L 3636.413 696.381 L 3636.413 695.181 L 3634.013 696.381 L 3630.413 695.181 L 3629.213 696.381 L 3626.813 695.181 L 3623.213 697.581 L 3622.013 697.581 L 3618.413 698.781 L 3617.213 697.581 L 3614.813 697.581 L 3613.613 696.381 L 3613.613 697.581 L 3610.013 697.581 L 3605.214 696.381 L 3605.214 695.181 L 3604.014 693.981 L 3604.014 692.781 L 3605.214 691.581 L 3604.014 689.181 L 3607.614 686.781 L 3606.414 686.781 L 3606.414 685.981 L 3605.214 684.781 L 3604.014 683.581 L 3604.014 678.781 L 3602.814 676.381 L 3602.814 673.981 L 3601.614 672.781 L 3600.414 666.782 L 3601.614 666.782 L 3602.814 664.382 L 3602.814 663.182 L 3604.014 663.182 L 3604.014 660.782 L 3602.814 659.582 L 3600.414 659.582 L 3601.614 657.182 L 3599.214 655.982 L 3598.014 654.782 L 3596.814 653.582 L 3595.614 651.182 L 3594.414 648.782 L 3594.414 646.382 L 3593.214 645.182 L 3593.214 642.782 L 3594.414 642.782 L 3593.214 637.982 L 3595.614 636.782 L 3594.414 634.382 L 3595.614 631.983 L 3594.414 630.783 L 3595.614 630.783 L 3595.614 628.383 L 3598.014 627.183 L 3599.214 625.983 L 3599.214 624.783 L 3601.614 623.583 L 3601.614 622.383 L 3602.814 621.183 L 3602.814 618.983 L 3601.614 618.983 L 3600.414 616.583 L 3599.214 615.383 L 3595.614 611.783 L 3594.414 608.183 L 3594.414 604.583 L 3595.614 603.383 L 3594.414 602.183 L 3595.614 599.783 L 3596.814 599.783 L 3595.614 596.183 L 3594.414 593.784 L 3584.814 582.984 L 3583.614 581.784 L 3582.414 580.584 L 3582.414 578.184 L 3585.314 577.084 Z " fill="#F3AA47" vector-effect="non-scaling-stroke" stroke-width="1" stroke-linejoin="miter" stroke-linecap="butt" stroke-miterlimit="4"/></svg>