<?xml version="1.0" standalone="no"?><!-- Generator: Gravit.io --><svg xmlns="http://www.w3.org/2000/svg" xmlns:xlink="http://www.w3.org/1999/xlink" style="isolation:isolate" viewBox="244.207 609.583 3132.213 2199.039" width="3132.213" height="2199.039"><path d=" M 246.207 2313.036 L 247.407 2311.836 L 251.006 2308.236 L 257.006 2301.036 L 259.406 2296.236 L 259.406 2293.836 L 257.006 2292.637 L 257.006 2286.637 L 254.606 2281.837 L 254.606 2280.637 L 257.006 2275.837 L 260.606 2272.237 L 261.806 2268.637 L 261.806 2267.437 L 263.006 2263.837 L 264.206 2263.837 L 265.406 2262.637 L 267.806 2259.037 L 270.206 2257.837 L 273.806 2251.838 L 275.006 2249.438 L 279.806 2245.838 L 281.006 2244.638 L 284.606 2242.238 L 289.405 2242.238 L 290.605 2238.638 L 296.605 2233.838 L 300.205 2232.638 L 302.605 2232.638 L 303.805 2231.438 L 307.405 2231.438 L 311.005 2229.038 L 312.205 2229.038 L 314.605 2227.838 L 317.005 2227.838 L 320.605 2226.638 L 320.605 2223.038 L 321.804 2221.838 L 324.204 2220.639 L 325.404 2218.239 L 327.804 2218.239 L 329.004 2219.439 L 330.204 2218.239 L 335.004 2218.239 L 338.604 2217.039 L 344.604 2217.039 L 347.004 2215.839 L 347.004 2214.639 L 349.404 2213.439 L 349.404 2214.639 L 350.604 2215.839 L 353.004 2213.439 L 351.804 2212.239 L 353.004 2211.039 L 353.004 2209.839 L 354.204 2209.839 L 355.404 2208.639 L 355.404 2206.239 L 357.803 2205.039 L 359.003 2206.239 L 360.203 2206.239 L 362.603 2202.639 L 363.803 2201.439 L 362.603 2200.239 L 363.803 2199.039 L 365.003 2195.439 L 366.203 2194.239 L 366.203 2193.039 L 367.403 2191.839 L 366.203 2188.239 L 367.403 2187.039 L 368.603 2187.039 L 368.603 2184.64 L 367.403 2182.24 L 365.003 2181.04 L 363.803 2176.24 L 362.603 2175.04 L 361.403 2169.04 L 360.203 2170.24 L 360.203 2167.84 L 359.003 2165.44 L 359.003 2160.64 L 355.404 2157.04 L 354.204 2157.04 L 353.004 2153.44 L 350.604 2152.24 L 349.404 2151.04 L 349.404 2142.641 L 343.404 2136.641 L 343.404 2129.441 L 347.004 2125.841 L 345.804 2124.641 L 347.004 2123.441 L 345.804 2116.341 L 347.004 2116.341 L 349.404 2113.941 L 349.404 2112.742 L 350.604 2111.542 L 351.804 2111.542 L 354.204 2110.342 L 354.204 2107.942 L 355.404 2103.142 L 355.404 2098.342 L 356.604 2095.942 L 357.803 2097.142 L 357.803 2091.142 L 360.203 2088.742 L 360.203 2086.342 L 361.403 2085.142 L 363.803 2085.142 L 367.403 2083.942 L 367.403 2079.142 L 368.603 2077.942 L 371.003 2077.942 L 371.003 2076.743 L 374.603 2075.543 L 377.003 2071.943 L 378.203 2071.943 L 378.203 2068.343 L 379.403 2068.343 L 380.603 2064.743 L 381.803 2064.743 L 384.203 2063.543 L 384.203 2061.143 L 387.803 2059.943 L 387.803 2057.543 L 389.003 2056.343 L 389.003 2055.143 L 390.203 2055.143 L 390.203 2049.143 L 392.603 2047.943 L 393.802 2049.143 L 395.002 2047.943 L 393.802 2045.543 L 393.802 2043.143 L 392.603 2041.943 L 392.603 2039.544 L 393.802 2035.944 L 396.202 2034.744 L 395.002 2032.344 L 396.202 2031.144 L 396.202 2026.344 L 395.002 2023.944 L 395.002 2017.944 L 396.202 2013.144 L 397.402 2010.744 L 396.202 2009.544 L 398.602 2008.344 L 399.802 2004.744 L 401.002 2003.545 L 401.002 2002.345 L 402.202 1999.945 L 402.202 1997.545 L 404.602 1996.345 L 404.602 1995.145 L 405.802 1991.545 L 405.802 1989.145 L 408.202 1986.745 L 408.202 1985.545 L 409.402 1984.345 L 410.602 1983.145 L 410.602 1981.945 L 411.802 1980.745 L 411.802 1977.145 L 410.602 1974.745 L 411.802 1972.345 L 411.802 1966.346 L 410.602 1966.346 L 411.802 1965.146 L 409.402 1961.546 L 409.402 1960.346 L 408.202 1960.346 L 408.202 1959.146 L 409.402 1957.946 L 410.602 1956.746 L 411.802 1956.746 L 413.002 1954.346 L 415.402 1954.346 L 415.402 1955.546 L 419.002 1954.346 L 420.202 1953.146 L 421.402 1948.346 L 423.802 1949.546 L 426.202 1948.346 L 427.402 1947.146 L 428.602 1945.946 L 429.801 1947.146 L 431.001 1945.946 L 432.201 1943.546 L 434.601 1944.746 L 434.601 1943.546 L 435.801 1942.346 L 434.601 1941.146 L 434.601 1939.946 L 437.001 1939.946 L 437.001 1938.746 L 439.401 1938.746 L 439.401 1937.546 L 443.001 1939.946 L 445.401 1938.746 L 446.601 1938.746 L 449.001 1939.946 L 450.201 1937.546 L 451.401 1937.546 L 451.401 1938.746 L 453.801 1937.546 L 457.401 1935.146 L 457.401 1931.547 L 458.601 1930.347 L 458.601 1929.147 L 457.401 1927.947 L 459.801 1926.747 L 461.001 1925.547 L 463.401 1925.547 L 464.601 1924.347 L 468.2 1920.747 L 471.8 1920.747 L 473 1917.147 L 475.4 1917.147 L 475.4 1919.547 L 476.6 1919.547 L 477.8 1917.147 L 479 1918.347 L 479 1919.547 L 480.2 1919.547 L 480.2 1915.947 L 483.8 1914.747 L 483.8 1912.347 L 482.6 1911.147 L 482.6 1909.947 L 485 1908.747 L 485 1911.147 L 486.2 1909.947 L 487.4 1912.347 L 488.6 1912.347 L 488.6 1909.947 L 491 1909.947 L 491 1907.547 L 489.8 1906.347 L 491 1906.347 L 492.2 1907.547 L 494.6 1905.147 L 497 1905.147 L 497 1897.947 L 498.2 1896.747 L 499.4 1893.148 L 502.999 1893.148 L 505.399 1890.748 L 507.799 1890.748 L 507.799 1889.548 L 506.599 1888.348 L 510.199 1888.348 L 511.399 1887.148 L 516.199 1888.348 L 514.999 1889.548 L 514.999 1891.948 L 517.399 1890.748 L 519.799 1885.948 L 520.999 1888.348 L 523.399 1887.148 L 526.999 1885.948 L 526.999 1883.548 L 528.199 1882.348 L 530.599 1884.748 L 531.799 1883.548 L 530.599 1882.348 L 535.399 1879.948 L 536.599 1879.948 L 536.599 1878.748 L 538.998 1877.548 L 540.198 1876.348 L 542.598 1877.548 L 547.398 1873.948 L 548.598 1871.548 L 550.998 1870.348 L 549.798 1869.148 L 553.398 1865.548 L 556.998 1864.348 L 558.198 1861.948 L 558.198 1859.549 L 561.798 1860.748 L 562.998 1861.948 L 564.198 1863.148 L 564.198 1859.549 L 567.798 1859.549 L 568.998 1857.149 L 570.198 1855.949 L 571.398 1857.149 L 574.997 1855.949 L 573.798 1854.749 L 574.997 1853.549 L 573.798 1852.349 L 574.997 1851.149 L 576.197 1851.149 L 577.397 1849.949 L 577.397 1848.749 L 578.597 1848.749 L 578.597 1847.549 L 577.397 1845.149 L 580.997 1843.949 L 580.997 1846.349 L 582.197 1845.149 L 582.197 1842.749 L 583.397 1843.949 L 584.597 1842.749 L 584.597 1841.549 L 585.797 1840.349 L 588.197 1841.549 L 590.597 1839.149 L 592.997 1837.949 L 597.797 1836.749 L 600.197 1835.549 L 602.597 1835.549 L 603.797 1834.349 L 604.997 1836.749 L 604.997 1837.949 L 607.397 1837.949 L 608.597 1836.749 L 608.597 1833.149 L 609.797 1831.949 L 610.996 1834.349 L 610.996 1836.749 L 613.396 1836.749 L 615.796 1839.149 L 616.996 1839.149 L 619.396 1837.949 L 622.996 1839.149 L 625.396 1836.749 L 626.596 1839.149 L 631.396 1835.549 L 630.196 1834.349 L 631.396 1833.149 L 632.596 1831.949 L 632.596 1834.349 L 631.396 1837.949 L 628.996 1839.149 L 628.996 1840.349 L 631.396 1841.549 L 632.596 1842.749 L 634.996 1842.749 L 638.596 1840.349 L 640.996 1837.949 L 643.396 1833.149 L 645.796 1834.349 L 645.796 1831.949 L 646.995 1830.749 L 649.395 1831.949 L 652.995 1834.349 L 654.195 1834.349 L 654.195 1833.149 L 651.795 1830.749 L 651.795 1827.149 L 654.195 1828.349 L 655.395 1829.549 L 656.595 1828.349 L 656.595 1827.149 L 657.795 1825.949 L 660.195 1825.949 L 662.595 1828.349 L 663.795 1828.349 L 664.995 1829.549 L 664.995 1830.749 L 667.395 1830.749 L 670.995 1825.949 L 673.395 1823.55 L 675.795 1825.949 L 678.195 1824.749 L 679.395 1823.55 L 680.595 1824.749 L 680.595 1827.149 L 685.394 1827.149 L 686.594 1828.349 L 686.594 1829.549 L 687.794 1828.349 L 687.794 1825.949 L 685.394 1824.749 L 684.194 1822.35 L 686.594 1822.35 L 688.994 1825.949 L 691.394 1827.149 L 693.794 1824.749 L 694.994 1823.55 L 693.794 1818.75 L 692.594 1816.35 L 693.794 1816.35 L 697.394 1817.55 L 699.794 1816.35 L 700.994 1816.35 L 700.994 1819.95 L 702.194 1819.95 L 703.394 1815.15 L 704.594 1815.15 L 705.794 1816.35 L 704.594 1818.75 L 705.794 1823.55 L 708.194 1821.15 L 708.194 1818.75 L 709.394 1817.55 L 712.994 1817.55 L 712.994 1819.95 L 715.394 1818.75 L 714.194 1816.35 L 717.794 1816.35 L 721.393 1821.15 L 722.593 1818.75 L 722.593 1816.35 L 723.793 1815.15 L 726.193 1813.95 L 727.393 1815.15 L 726.193 1817.55 L 727.393 1818.75 L 730.993 1816.35 L 730.993 1813.95 L 733.393 1813.95 L 732.193 1817.55 L 734.593 1818.75 L 735.793 1818.75 L 736.993 1816.35 L 742.993 1816.35 L 744.193 1813.95 L 742.993 1811.55 L 741.793 1810.35 L 741.793 1809.15 L 744.193 1810.35 L 745.393 1811.55 L 746.593 1813.95 L 750.193 1815.15 L 751.393 1816.35 L 752.593 1813.95 L 752.593 1812.75 L 753.793 1811.55 L 754.992 1811.55 L 756.192 1810.35 L 757.392 1806.75 L 759.792 1805.55 L 763.392 1804.35 L 762.192 1800.75 L 763.392 1799.55 L 768.192 1797.15 L 765.792 1793.55 L 764.592 1791.15 L 766.992 1791.15 L 769.392 1792.35 L 771.792 1791.15 L 771.792 1789.95 L 772.992 1788.75 L 771.792 1786.351 L 772.992 1782.751 L 774.192 1781.551 L 775.392 1779.151 L 778.992 1780.351 L 781.392 1776.751 L 782.592 1775.551 L 786.192 1775.551 L 789.792 1779.151 L 793.391 1780.351 L 794.591 1780.351 L 795.791 1782.751 L 798.191 1782.751 L 799.391 1780.351 L 799.391 1771.951 L 800.591 1773.151 L 801.791 1774.351 L 802.991 1776.751 L 802.991 1769.551 L 807.791 1769.551 L 807.791 1771.951 L 805.391 1776.751 L 805.391 1779.151 L 806.591 1780.351 L 807.791 1781.551 L 810.191 1780.351 L 813.791 1779.151 L 816.191 1777.951 L 818.591 1776.751 L 819.791 1775.551 L 822.191 1773.151 L 820.991 1770.751 L 826.991 1771.951 L 828.19 1775.551 L 825.791 1780.351 L 826.991 1781.551 L 829.39 1781.551 L 830.59 1776.751 L 831.79 1775.551 L 835.39 1777.951 L 836.59 1777.951 L 836.59 1775.551 L 840.19 1775.551 L 841.39 1774.351 L 838.99 1771.951 L 841.39 1770.751 L 843.79 1771.951 L 848.59 1771.951 L 849.79 1770.751 L 852.19 1771.951 L 854.59 1776.751 L 855.79 1779.151 L 858.19 1780.351 L 859.39 1777.951 L 860.59 1776.751 L 859.39 1774.351 L 860.59 1773.151 L 862.99 1775.551 L 865.389 1776.751 L 866.589 1777.951 L 866.589 1782.751 L 867.789 1788.75 L 866.589 1789.95 L 862.99 1791.15 L 862.99 1793.55 L 867.789 1797.15 L 865.389 1799.55 L 867.789 1799.55 L 873.789 1797.15 L 873.789 1798.35 L 872.589 1799.55 L 870.189 1800.75 L 871.389 1803.15 L 873.789 1804.35 L 877.389 1804.35 L 878.589 1805.55 L 879.789 1804.35 L 880.989 1805.55 L 882.189 1811.55 L 883.389 1812.75 L 884.589 1812.75 L 886.989 1811.55 L 886.989 1809.15 L 888.189 1807.95 L 891.789 1806.75 L 891.789 1805.55 L 888.189 1803.15 L 890.589 1798.35 L 891.789 1797.15 L 894.189 1798.35 L 895.389 1799.55 L 897.789 1798.35 L 898.989 1797.15 L 898.989 1794.75 L 900.188 1798.35 L 901.388 1799.55 L 906.188 1799.55 L 903.788 1801.95 L 904.988 1805.55 L 906.188 1805.55 L 909.788 1806.75 L 910.988 1807.95 L 910.988 1810.35 L 912.188 1810.35 L 916.988 1807.95 L 921.788 1805.55 L 925.388 1800.75 L 926.588 1794.75 L 926.588 1787.651 L 928.988 1785.251 L 930.188 1785.251 L 938.587 1736.152 L 946.987 1689.453 L 973.286 1540.957 L 986.486 1463.159 L 1003.286 1363.762 L 1015.285 1296.764 L 1014.085 1290.764 L 1015.285 1288.364 L 1017.685 1285.964 L 1017.685 1276.365 L 1018.885 1272.765 L 1018.885 1270.365 L 1021.285 1269.165 L 1024.885 1267.965 L 1024.885 1265.565 L 1022.485 1260.765 L 1022.485 1252.365 L 1020.085 1247.565 L 1018.885 1242.766 L 1020.085 1239.166 L 1022.485 1234.366 L 1022.485 1229.566 L 1024.885 1227.166 L 1024.885 1221.166 L 1020.085 1215.166 L 1018.885 1213.966 L 1020.085 1209.167 L 1018.885 1207.967 L 1016.485 1206.767 L 1016.485 1205.567 L 1017.685 1205.567 L 1018.885 1203.167 L 1021.285 1203.167 L 1020.085 1200.767 L 1017.685 1199.567 L 1015.285 1200.767 L 1012.885 1197.167 L 1012.885 1194.767 L 1009.285 1191.167 L 1006.886 1189.967 L 1005.686 1188.767 L 1003.286 1188.767 L 1002.086 1187.567 L 1002.086 1177.967 L 999.686 1175.567 L 998.486 1175.567 L 993.686 1171.968 L 996.086 1168.368 L 996.086 1165.968 L 993.686 1164.768 L 992.486 1164.768 L 991.286 1162.368 L 986.486 1158.768 L 987.686 1157.568 L 985.286 1156.368 L 986.486 1155.168 L 984.086 1155.168 L 985.286 1152.768 L 985.286 1151.568 L 986.486 1150.368 L 988.886 1150.368 L 987.686 1147.968 L 988.886 1146.768 L 991.286 1143.168 L 992.486 1139.568 L 993.686 1137.169 L 994.886 1134.769 L 993.686 1134.769 L 993.686 1132.369 L 992.486 1131.169 L 991.286 1131.169 L 990.086 1128.769 L 987.686 1127.569 L 988.886 1125.169 L 990.086 1121.569 L 987.686 1117.969 L 986.486 1116.769 L 987.686 1111.969 L 985.286 1109.569 L 981.686 1109.569 L 981.686 1105.969 L 976.886 1104.769 L 973.286 1103.569 L 973.286 1102.369 L 968.487 1101.17 L 966.087 1099.97 L 964.887 1098.77 L 963.687 1096.37 L 962.487 1096.37 L 960.087 1092.77 L 957.687 1091.57 L 955.287 1091.57 L 955.287 1089.17 L 951.687 1087.97 L 949.287 1087.97 L 945.687 1080.77 L 943.287 1081.97 L 938.487 1080.77 L 937.287 1081.97 L 932.488 1078.37 L 930.088 1075.97 L 928.888 1073.57 L 927.688 1073.57 L 926.488 1071.17 L 925.288 1069.97 L 921.688 1065.171 L 920.488 1063.971 L 919.288 1061.571 L 909.688 1053.171 L 908.488 1051.971 L 908.488 1047.171 L 909.688 1044.771 L 910.888 1041.171 L 909.688 1020.772 L 909.688 1006.472 L 910.888 972.973 L 910.888 916.675 L 913.288 916.675 L 914.488 919.075 L 915.688 920.275 L 918.088 920.275 L 919.288 919.075 L 920.488 916.675 L 918.088 914.275 L 922.888 914.275 L 924.088 916.675 L 928.888 917.875 L 931.288 915.475 L 933.688 911.875 L 934.888 913.075 L 937.287 911.875 L 938.487 914.275 L 943.287 913.075 L 945.687 911.875 L 946.887 911.875 L 948.087 910.675 L 950.487 911.875 L 951.687 911.875 L 951.687 914.275 L 955.287 911.875 L 956.487 909.475 L 960.087 908.275 L 962.487 904.675 L 964.887 907.075 L 967.287 905.875 L 968.487 901.075 L 970.887 899.875 L 973.286 899.875 L 973.286 897.475 L 974.486 896.275 L 979.286 897.475 L 980.486 898.675 L 982.886 902.275 L 984.086 902.275 L 985.286 903.475 L 987.686 903.475 L 987.686 902.275 L 990.086 902.275 L 990.086 898.675 L 994.886 896.275 L 994.886 893.875 L 1000.886 893.875 L 1000.886 891.475 L 1002.086 889.075 L 1004.486 889.075 L 1005.686 886.675 L 1006.886 885.475 L 1010.485 884.276 L 1011.685 884.276 L 1012.885 885.475 L 1014.085 887.875 L 1016.485 887.875 L 1017.685 889.075 L 1017.685 891.475 L 1018.885 892.675 L 1022.485 895.075 L 1022.485 897.475 L 1029.685 904.575 L 1032.085 906.975 L 1033.285 905.775 L 1034.485 904.575 L 1034.485 902.175 L 1038.085 903.375 L 1040.485 902.175 L 1041.685 899.775 L 1044.084 900.975 L 1042.885 902.175 L 1044.084 905.775 L 1042.885 908.175 L 1050.084 908.175 L 1052.484 906.975 L 1052.484 908.175 L 1057.284 906.975 L 1059.684 908.175 L 1059.684 903.375 L 1060.884 902.175 L 1060.884 899.775 L 1063.284 898.575 L 1064.484 899.775 L 1066.884 899.775 L 1069.284 900.975 L 1071.684 900.975 L 1072.884 902.175 L 1074.084 902.175 L 1075.284 899.775 L 1069.284 890.175 L 1065.684 887.775 L 1063.284 886.575 L 1062.084 885.375 L 1062.084 881.776 L 1064.484 879.376 L 1068.084 879.376 L 1069.284 875.776 L 1068.084 870.976 L 1066.884 869.776 L 1065.684 867.376 L 1065.684 863.776 L 1068.084 862.576 L 1070.484 862.576 L 1070.484 861.376 L 1071.684 858.976 L 1069.284 856.576 L 1068.084 856.576 L 1064.484 854.176 L 1062.084 854.176 L 1062.084 850.576 L 1060.884 848.177 L 1062.084 846.977 L 1065.684 845.777 L 1064.484 843.377 L 1058.484 840.977 L 1056.084 838.577 L 1059.684 836.177 L 1058.484 833.777 L 1057.284 832.577 L 1047.684 824.177 L 1046.484 824.177 L 1044.084 825.377 L 1042.885 822.977 L 1040.485 822.977 L 1040.485 821.777 L 1038.085 819.377 L 1033.285 819.377 L 1030.885 820.577 L 1028.485 819.377 L 1027.285 820.577 L 1021.285 826.577 L 1017.685 825.377 L 1017.685 821.777 L 1016.485 820.577 L 1014.085 821.777 L 1008.085 820.577 L 1003.286 821.777 L 994.886 821.777 L 991.286 820.577 L 987.686 816.977 L 985.286 816.977 L 984.086 819.377 L 980.486 819.377 L 976.886 820.577 L 974.486 821.777 L 972.086 820.577 L 970.887 821.777 L 969.687 819.377 L 969.687 813.377 L 966.087 814.577 L 961.287 814.577 L 956.487 818.177 L 954.087 819.377 L 952.887 822.977 L 951.687 824.177 L 948.087 822.977 L 945.687 820.577 L 945.687 707.58 L 949.287 707.58 L 948.087 708.78 L 949.287 709.98 L 954.087 708.78 L 956.487 709.98 L 956.487 708.78 L 957.687 706.38 L 958.887 706.38 L 963.687 702.781 L 968.487 702.781 L 969.687 701.581 L 970.887 702.781 L 974.486 702.781 L 974.486 703.981 L 979.286 703.981 L 980.486 702.781 L 982.886 703.981 L 984.086 701.581 L 985.286 701.581 L 988.886 699.181 L 994.886 696.781 L 997.286 694.381 L 1008.085 699.181 L 1009.285 697.981 L 1009.285 699.181 L 1010.485 700.381 L 1011.685 697.981 L 1012.885 699.181 L 1014.085 700.381 L 1015.285 699.181 L 1020.085 700.381 L 1026.085 703.981 L 1026.085 706.38 L 1027.285 705.18 L 1243.979 705.18 L 1243.979 702.781 L 1242.779 701.581 L 1239.179 701.581 L 1241.579 697.981 L 1237.979 695.581 L 1235.579 695.581 L 1234.379 696.781 L 1231.979 697.981 L 1229.579 697.981 L 1228.379 693.181 L 1229.579 687.181 L 1224.779 687.181 L 1224.779 681.181 L 1227.179 678.781 L 1228.379 669.181 L 1229.579 667.982 L 1231.979 665.582 L 1234.379 663.182 L 1236.779 663.182 L 1239.179 659.582 L 1241.579 658.382 L 1243.979 660.782 L 1246.379 659.582 L 1247.579 659.582 L 1249.979 661.982 L 1251.179 666.782 L 1253.579 667.982 L 1254.779 672.781 L 1255.979 673.981 L 1257.179 673.981 L 1259.579 675.181 L 1263.178 673.981 L 1266.778 677.581 L 1270.378 681.181 L 1276.378 687.181 L 1282.378 687.181 L 1283.578 685.981 L 1284.778 683.581 L 1287.178 682.381 L 1288.378 679.981 L 1287.178 675.181 L 1291.978 673.981 L 1296.777 670.381 L 1300.377 665.582 L 1301.577 664.382 L 1303.977 661.982 L 1309.977 649.982 L 1312.377 648.782 L 1315.977 648.782 L 1324.377 652.382 L 1338.776 652.382 L 1341.176 649.982 L 1344.776 640.382 L 1349.576 636.782 L 1350.776 630.783 L 1353.176 627.183 L 1355.576 624.783 L 1368.776 618.783 L 1371.175 613.983 L 1372.375 611.583 L 1379.575 611.583 L 1383.175 613.983 L 1387.975 618.783 L 1389.175 637.882 L 1390.375 641.482 L 1390.375 651.082 L 1395.175 668.981 L 1397.575 676.181 L 1398.775 678.581 L 1404.775 682.181 L 1407.174 680.981 L 1416.774 682.181 L 1420.374 683.381 L 1423.974 688.181 L 1426.374 692.981 L 1427.574 697.781 L 1431.174 704.98 L 1429.974 709.78 L 1431.174 714.58 L 1432.374 718.18 L 1433.574 721.78 L 1434.774 746.879 L 1434.774 751.679 L 1435.974 757.679 L 1433.574 764.779 L 1432.374 779.178 L 1432.374 795.978 L 1433.574 800.778 L 1432.374 807.978 L 1473.073 795.978 L 1518.571 837.877 L 1568.87 882.176 L 1586.869 877.376 L 1591.669 878.576 L 1592.869 879.776 L 1595.269 882.176 L 1596.469 884.576 L 1597.669 884.576 L 1603.669 883.376 L 1604.869 880.976 L 1606.069 880.976 L 1608.469 882.176 L 1610.869 879.776 L 1610.869 878.576 L 1612.069 874.976 L 1612.069 873.976 L 1614.469 873.976 L 1618.069 872.776 L 1621.668 873.976 L 1624.068 873.976 L 1626.468 872.776 L 1631.268 872.776 L 1631.268 870.376 L 1633.668 867.976 L 1633.668 864.376 L 1636.068 863.176 L 1636.068 859.576 L 1637.268 858.376 L 1640.868 858.376 L 1642.068 859.576 L 1643.268 857.176 L 1645.668 855.976 L 1646.868 852.376 L 1645.668 849.976 L 1649.268 851.176 L 1654.068 848.777 L 1657.668 846.377 L 1658.867 847.577 L 1661.267 846.377 L 1662.467 845.177 L 1663.667 843.977 L 1664.867 845.177 L 1666.067 843.977 L 1667.267 841.577 L 1668.467 841.577 L 1670.867 837.977 L 1676.867 837.977 L 1678.067 836.777 L 1679.267 837.977 L 1680.467 839.177 L 1681.667 840.377 L 1682.867 837.977 L 1686.467 835.577 L 1691.267 840.377 L 1690.067 836.777 L 1692.467 836.777 L 1693.667 835.577 L 1693.667 836.777 L 1697.266 837.977 L 1698.466 836.777 L 1699.666 840.377 L 1700.866 839.177 L 1703.266 839.177 L 1702.066 840.377 L 1703.266 842.777 L 1705.666 842.777 L 1706.866 845.177 L 1708.066 846.377 L 1706.866 847.577 L 1709.266 849.976 L 1709.266 851.176 L 1711.666 853.576 L 1710.466 857.176 L 1710.466 858.376 L 1714.066 858.376 L 1714.066 859.576 L 1711.666 861.976 L 1712.866 866.776 L 1711.666 866.776 L 1710.466 867.976 L 1709.266 866.776 L 1708.066 867.976 L 1709.266 870.376 L 1708.066 873.976 L 1705.666 873.976 L 1705.666 875.176 L 1704.466 878.776 L 1703.266 878.776 L 1699.666 881.176 L 1699.666 884.776 L 1697.266 888.375 L 1698.466 889.575 L 1699.666 890.775 L 1702.066 896.775 L 1703.266 897.975 L 1703.266 900.375 L 1704.466 900.375 L 1705.666 901.575 L 1708.066 897.975 L 1712.866 897.975 L 1714.066 896.775 L 1715.266 896.775 L 1716.466 895.575 L 1721.266 895.575 L 1723.666 894.375 L 1723.666 893.175 L 1726.066 890.775 L 1727.266 887.175 L 1728.466 885.975 L 1728.466 882.376 L 1730.865 883.576 L 1732.065 882.376 L 1730.865 879.976 L 1732.065 878.776 L 1730.865 877.576 L 1730.865 876.376 L 1728.466 871.576 L 1730.865 870.376 L 1732.065 866.776 L 1733.265 865.576 L 1734.465 865.576 L 1735.665 863.176 L 1739.265 860.776 L 1738.065 859.576 L 1740.465 857.176 L 1742.865 849.976 L 1744.065 851.176 L 1747.665 848.777 L 1753.665 848.777 L 1754.865 849.976 L 1753.665 851.176 L 1754.865 852.376 L 1756.065 851.176 L 1758.465 852.376 L 1762.065 851.176 L 1764.465 851.176 L 1765.665 853.576 L 1764.465 854.776 L 1766.864 854.776 L 1769.264 852.376 L 1771.664 847.577 L 1772.864 841.577 L 1774.064 840.377 L 1775.264 836.777 L 1771.664 835.577 L 1771.664 833.177 L 1772.864 831.977 L 1774.064 827.177 L 1774.064 822.377 L 1775.264 818.777 L 1774.064 815.177 L 1776.464 815.177 L 1780.064 813.977 L 1780.064 811.578 L 1783.664 809.178 L 1786.064 811.578 L 1787.264 811.578 L 1788.464 810.378 L 1790.864 812.777 L 1789.664 816.377 L 1790.864 817.577 L 1793.264 816.377 L 1798.064 817.577 L 1798.064 815.177 L 1800.464 813.977 L 1802.863 810.378 L 1806.463 806.778 L 1808.863 803.178 L 1807.663 801.978 L 1806.463 798.378 L 1808.863 795.978 L 1810.063 795.978 L 1811.263 797.178 L 1811.263 798.378 L 1812.463 799.578 L 1814.863 798.378 L 1816.063 795.978 L 1818.463 793.578 L 1817.263 792.378 L 1820.863 792.378 L 1820.863 795.978 L 1824.463 795.978 L 1824.463 793.578 L 1826.863 789.978 L 1825.663 788.778 L 1832.863 783.978 L 1835.263 780.378 L 1836.463 781.578 L 1838.862 786.378 L 1837.663 787.578 L 1837.663 788.778 L 1840.062 791.178 L 1843.662 795.978 L 1844.862 797.178 L 1846.062 797.178 L 1850.862 794.778 L 1850.862 792.378 L 1852.062 792.378 L 1853.262 788.778 L 1853.262 786.378 L 1854.462 785.178 L 1856.862 786.378 L 1858.062 786.378 L 1860.462 785.178 L 1861.662 785.178 L 1864.062 782.778 L 1866.462 779.178 L 1867.662 779.178 L 1870.062 776.778 L 1873.662 776.778 L 1876.061 773.179 L 1874.861 773.179 L 1876.061 770.779 L 1874.861 769.579 L 1877.261 768.379 L 1880.861 762.379 L 1884.461 759.979 L 1884.461 757.579 L 1885.661 758.779 L 1889.261 757.579 L 1891.661 755.179 L 1894.061 752.779 L 1897.661 750.379 L 1898.861 751.579 L 1900.061 751.579 L 1903.661 749.179 L 1903.661 747.979 L 1906.061 745.579 L 1906.061 744.379 L 1908.461 741.979 L 1910.86 743.179 L 1915.66 743.179 L 1916.86 746.779 L 1914.46 750.379 L 1910.86 753.979 L 1912.06 755.179 L 1910.86 756.379 L 1908.461 761.179 L 1908.461 762.379 L 1907.261 765.979 L 1908.461 767.179 L 1914.46 767.179 L 1915.66 768.379 L 1916.86 770.779 L 1918.06 771.979 L 1919.26 770.779 L 1918.06 769.579 L 1918.06 767.179 L 1920.46 765.979 L 1920.46 758.779 L 1921.66 757.579 L 1922.86 756.379 L 1922.86 755.179 L 1924.06 753.979 L 1925.26 752.779 L 1928.86 750.379 L 1928.86 749.179 L 1931.26 749.179 L 1932.46 746.779 L 1934.86 745.579 L 1936.06 744.379 L 1938.46 745.579 L 1939.66 745.579 L 1943.26 741.979 L 1944.46 739.58 L 1946.859 735.98 L 1946.859 733.58 L 1950.459 733.58 L 1952.859 732.38 L 1956.459 732.38 L 1958.859 731.18 L 1958.859 727.58 L 1961.259 725.18 L 1962.459 721.58 L 1964.859 719.18 L 1966.059 714.38 L 1966.059 713.18 L 1967.259 709.58 L 1966.059 709.58 L 1964.859 705.98 L 1966.059 704.78 L 1966.059 701.181 L 1964.859 701.181 L 1964.859 699.981 L 1967.259 693.981 L 1967.259 691.981 L 1968.459 690.781 L 1967.259 688.381 L 1968.459 688.381 L 1968.459 684.781 L 1966.059 684.781 L 1966.059 683.581 L 1967.259 677.581 L 1967.259 669.181 L 1969.659 667.982 L 1970.859 666.782 L 1974.459 665.582 L 1974.459 663.182 L 1975.659 663.182 L 1978.059 660.782 L 1979.259 659.582 L 1980.459 659.582 L 1982.859 657.182 L 1984.058 658.382 L 1985.258 657.182 L 1986.458 658.382 L 1988.858 658.382 L 1991.258 659.582 L 1994.858 657.182 L 1996.058 657.182 L 1997.258 658.382 L 1998.458 659.582 L 2004.458 659.582 L 2005.658 663.182 L 2008.058 661.982 L 2009.258 658.382 L 2014.058 658.382 L 2016.458 659.582 L 2017.658 658.382 L 2018.858 655.982 L 2020.057 655.982 L 2022.457 657.182 L 2023.657 655.982 L 2023.657 654.782 L 2024.857 653.582 L 2026.057 652.382 L 2026.057 651.182 L 2030.857 647.582 L 2032.057 648.782 L 2033.257 649.982 L 2032.057 652.382 L 2035.657 652.382 L 2036.857 653.582 L 2038.057 652.382 L 2038.057 649.982 L 2036.857 645.182 L 2038.057 643.982 L 2041.657 643.982 L 2044.057 640.382 L 2045.257 640.382 L 2045.257 636.782 L 2047.657 636.782 L 2050.057 634.382 L 2051.257 634.382 L 2054.857 633.182 L 2056.056 631.983 L 2059.656 631.983 L 2064.456 634.382 L 2064.456 635.582 L 2068.056 635.582 L 2070.456 633.182 L 2071.656 630.783 L 2072.856 630.783 L 2076.456 633.182 L 2077.656 633.182 L 2078.856 631.983 L 2080.056 631.983 L 2083.656 629.583 L 2084.856 629.583 L 2084.856 625.983 L 2086.056 622.383 L 2084.856 622.383 L 2084.856 619.983 L 2089.656 617.583 L 2090.856 619.983 L 2100.455 625.983 L 2105.255 628.383 L 2108.855 627.183 L 2120.855 623.583 L 2125.655 623.583 L 2126.855 624.783 L 2130.454 624.783 L 2130.454 630.783 L 2131.654 634.382 L 2134.054 639.182 L 2136.454 641.582 L 2140.054 645.182 L 2142.454 648.782 L 2150.854 653.582 L 2158.054 652.382 L 2164.053 649.982 L 2168.853 651.182 L 2183.253 653.582 L 2185.653 653.582 L 2188.053 657.182 L 2188.053 658.382 L 2200.052 661.982 L 2203.652 664.382 L 2204.852 664.382 L 2207.252 666.782 L 2208.452 672.781 L 2207.252 678.781 L 2202.452 689.581 L 2203.652 708.68 L 2202.452 711.08 L 2197.653 714.68 L 2196.453 715.88 L 2195.253 718.28 L 2190.453 723.08 L 2189.253 727.88 L 2189.253 731.48 L 2194.053 733.88 L 2197.653 738.68 L 2198.853 741.079 L 2201.252 742.279 L 2202.452 747.079 L 2204.852 749.479 L 2208.452 751.879 L 2212.052 755.479 L 2216.852 757.879 L 2218.052 757.879 L 2219.252 759.079 L 2221.652 765.079 L 2221.652 766.279 L 2220.452 768.679 L 2221.652 772.279 L 2224.052 773.479 L 2227.652 791.378 L 2233.652 805.778 L 2234.852 815.377 L 2238.451 822.577 L 2248.051 822.577 L 2248.051 823.777 L 2246.851 827.377 L 2246.851 829.777 L 2248.051 830.977 L 2246.851 833.377 L 2248.051 835.777 L 2250.451 839.377 L 2252.851 842.977 L 2252.851 845.377 L 2251.651 850.176 L 2248.051 853.776 L 2245.651 862.176 L 2246.851 866.976 L 2249.251 869.376 L 2250.451 870.576 L 2250.451 877.776 L 2249.251 878.976 L 2243.251 883.776 L 2238.451 890.975 L 2237.251 894.575 L 2236.051 896.975 L 2239.651 913.775 L 2238.451 920.875 L 2237.251 928.074 L 2239.651 931.674 L 2239.651 940.074 L 2242.051 940.074 L 2245.651 937.674 L 2249.251 942.474 L 2250.451 943.674 L 2251.651 948.474 L 2252.851 950.874 L 2251.651 952.074 L 2251.651 953.274 L 2250.451 955.674 L 2249.251 959.273 L 2250.451 962.873 L 2249.251 970.073 L 2251.651 976.073 L 2251.651 982.073 L 2254.051 984.473 L 2256.451 989.273 L 2256.451 1003.672 L 2258.851 1007.272 L 2262.451 1009.672 L 2266.051 1010.872 L 2267.251 1013.272 L 2270.851 1014.472 L 2274.45 1025.272 L 2274.45 1031.271 L 2273.25 1031.271 L 2273.25 1032.471 L 2274.45 1033.671 L 2275.65 1036.071 L 2275.65 1038.471 L 2279.25 1043.271 L 2280.45 1045.671 L 2281.65 1048.071 L 2284.05 1050.471 L 2286.45 1050.471 L 2288.85 1051.671 L 2288.85 1052.871 L 2287.65 1055.271 L 2288.85 1058.871 L 2286.45 1060.071 L 2286.45 1063.671 L 2287.65 1066.07 L 2290.05 1066.07 L 2288.85 1068.47 L 2286.45 1069.67 L 2286.45 1070.87 L 2288.85 1074.47 L 2287.65 1075.67 L 2288.85 1076.87 L 2290.05 1078.07 L 2291.25 1078.07 L 2292.45 1076.87 L 2298.45 1080.47 L 2297.25 1081.67 L 2297.25 1086.47 L 2296.05 1087.67 L 2294.85 1088.87 L 2296.05 1092.47 L 2293.65 1093.67 L 2293.65 1094.87 L 2292.45 1094.87 L 2291.25 1098.47 L 2288.85 1099.67 L 2287.65 1100.87 L 2282.85 1103.269 L 2282.85 1105.669 L 2284.05 1105.669 L 2282.85 1108.069 L 2281.65 1106.869 L 2280.45 1108.069 L 2280.45 1110.469 L 2279.25 1112.869 L 2278.05 1112.869 L 2276.85 1114.069 L 2278.05 1117.669 L 2276.85 1118.869 L 2276.85 1120.069 L 2275.65 1121.269 L 2276.85 1123.669 L 2276.85 1126.069 L 2278.05 1127.269 L 2280.45 1129.669 L 2280.45 1132.069 L 2278.05 1132.069 L 2278.05 1133.269 L 2279.25 1134.469 L 2280.45 1136.869 L 2280.45 1138.068 L 2279.25 1139.268 L 2278.05 1139.268 L 2276.85 1140.468 L 2273.25 1140.468 L 2273.25 1142.868 L 2270.851 1144.068 L 2269.651 1142.868 L 2269.651 1144.068 L 2266.051 1144.068 L 2266.051 1147.668 L 2267.251 1147.668 L 2268.451 1148.868 L 2267.251 1150.068 L 2263.651 1148.868 L 2262.451 1150.068 L 2262.451 1151.268 L 2260.051 1152.468 L 2258.851 1150.068 L 2257.651 1148.868 L 2256.451 1147.668 L 2256.451 1146.468 L 2251.651 1146.468 L 2249.251 1145.268 L 2249.251 1146.468 L 2245.651 1144.068 L 2244.451 1145.268 L 2244.451 1148.868 L 2242.051 1150.068 L 2242.051 1153.668 L 2243.251 1153.668 L 2244.451 1157.268 L 2242.051 1158.468 L 2242.051 1159.668 L 2243.251 1163.268 L 2246.851 1165.668 L 2249.251 1164.468 L 2250.451 1166.868 L 2251.651 1166.868 L 2252.851 1168.068 L 2252.851 1166.868 L 2255.251 1166.868 L 2256.451 1168.068 L 2261.251 1169.268 L 2262.451 1171.668 L 2264.851 1172.868 L 2264.851 1174.067 L 2266.051 1175.267 L 2266.051 1176.467 L 2264.851 1177.667 L 2267.251 1178.867 L 2267.251 1180.067 L 2268.451 1180.067 L 2272.05 1184.867 L 2273.25 1187.267 L 2275.65 1187.267 L 2276.85 1189.667 L 2279.25 1192.067 L 2279.25 1193.267 L 2281.65 1192.067 L 2284.05 1194.467 L 2286.45 1198.067 L 2291.25 1198.067 L 2293.65 1199.267 L 2296.05 1199.267 L 2296.05 1202.867 L 2300.85 1204.067 L 2302.05 1205.267 L 2304.45 1207.667 L 2305.65 1207.667 L 2306.85 1208.867 L 2309.249 1208.867 L 2311.649 1213.666 L 2310.449 1216.066 L 2311.649 1217.266 L 2312.849 1218.466 L 2314.049 1219.666 L 2316.449 1220.866 L 2321.249 1220.866 L 2324.849 1224.466 L 2328.449 1228.066 L 2329.649 1230.466 L 2333.249 1238.866 L 2333.249 1242.466 L 2338.049 1247.265 L 2339.249 1250.865 L 2340.449 1256.865 L 2345.248 1262.865 L 2347.648 1266.465 L 2348.848 1271.265 L 2350.048 1274.865 L 2354.848 1276.065 L 2362.048 1276.065 L 2364.448 1274.865 L 2366.848 1272.465 L 2369.248 1271.265 L 2372.848 1272.465 L 2377.648 1273.665 L 2381.247 1277.265 L 2392.047 1280.865 L 2395.647 1282.065 L 2401.647 1284.464 L 2407.647 1289.264 L 2410.047 1292.864 L 2412.447 1298.864 L 2422.046 1307.264 L 2423.246 1308.464 L 2424.446 1308.464 L 2424.446 1303.664 L 2425.646 1302.464 L 2425.646 1300.064 L 2424.446 1298.864 L 2423.246 1296.464 L 2417.246 1294.064 L 2413.647 1286.864 L 2413.647 1282.065 L 2411.247 1280.865 L 2406.447 1280.865 L 2405.247 1277.265 L 2400.447 1276.065 L 2399.247 1276.065 L 2399.247 1274.865 L 2402.847 1270.065 L 2404.047 1268.865 L 2405.247 1266.465 L 2405.247 1264.065 L 2400.447 1259.265 L 2396.847 1258.065 L 2398.047 1255.665 L 2400.447 1253.265 L 2401.647 1247.265 L 2402.847 1243.666 L 2404.047 1238.866 L 2405.247 1237.666 L 2406.447 1236.466 L 2405.247 1232.866 L 2406.447 1230.466 L 2407.647 1228.066 L 2408.847 1226.866 L 2407.647 1224.466 L 2406.447 1223.266 L 2406.447 1222.066 L 2408.847 1220.866 L 2406.447 1218.466 L 2406.447 1217.266 L 2407.647 1216.066 L 2411.247 1216.066 L 2412.447 1213.666 L 2412.447 1208.867 L 2411.247 1206.467 L 2408.847 1204.067 L 2408.847 1200.467 L 2406.447 1200.467 L 2405.247 1199.267 L 2406.447 1194.467 L 2405.247 1190.867 L 2406.447 1189.667 L 2406.447 1186.067 L 2410.047 1183.667 L 2410.047 1177.667 L 2412.447 1175.267 L 2412.447 1174.067 L 2411.247 1172.868 L 2411.247 1164.468 L 2413.647 1158.468 L 2417.246 1156.068 L 2423.246 1151.268 L 2424.446 1148.868 L 2424.446 1145.268 L 2426.846 1141.668 L 2428.046 1140.468 L 2431.646 1140.468 L 2432.846 1139.268 L 2432.846 1135.669 L 2436.446 1135.669 L 2438.846 1133.269 L 2443.646 1130.869 L 2444.846 1129.669 L 2447.246 1128.469 L 2450.846 1129.669 L 2455.645 1124.869 L 2459.245 1124.869 L 2467.645 1123.669 L 2468.845 1122.469 L 2468.845 1118.869 L 2470.045 1117.669 L 2468.845 1115.269 L 2468.845 1112.869 L 2470.045 1111.669 L 2471.245 1111.669 L 2473.645 1112.869 L 2477.245 1112.869 L 2480.845 1114.069 L 2480.845 1112.869 L 2482.045 1111.669 L 2485.645 1110.469 L 2486.845 1111.669 L 2488.045 1112.869 L 2491.644 1111.669 L 2492.844 1111.669 L 2497.644 1114.069 L 2498.844 1118.869 L 2500.044 1120.069 L 2503.644 1120.069 L 2508.444 1122.469 L 2515.644 1122.469 L 2516.844 1121.269 L 2518.044 1122.469 L 2519.244 1122.469 L 2520.444 1121.269 L 2522.844 1121.269 L 2524.044 1126.069 L 2522.844 1127.269 L 2522.844 1132.069 L 2524.044 1132.069 L 2524.044 1134.469 L 2528.843 1139.268 L 2532.443 1136.869 L 2533.643 1138.068 L 2534.843 1139.268 L 2534.843 1142.868 L 2536.043 1146.468 L 2542.043 1146.468 L 2544.443 1147.668 L 2544.443 1156.068 L 2545.643 1156.068 L 2546.843 1157.268 L 2548.043 1158.468 L 2549.243 1157.268 L 2550.443 1159.668 L 2549.243 1162.068 L 2548.043 1163.268 L 2548.043 1164.468 L 2551.643 1165.668 L 2550.443 1168.068 L 2551.643 1169.268 L 2550.443 1171.668 L 2551.643 1174.067 L 2552.843 1175.267 L 2551.643 1177.667 L 2555.243 1176.467 L 2558.843 1178.867 L 2560.043 1177.667 L 2566.042 1180.067 L 2567.242 1180.067 L 2566.042 1182.467 L 2567.242 1183.667 L 2569.642 1181.267 L 2573.242 1180.067 L 2573.242 1178.867 L 2574.442 1178.867 L 2575.642 1177.667 L 2576.842 1177.667 L 2580.442 1178.867 L 2580.442 1175.267 L 2586.442 1177.667 L 2586.442 1178.867 L 2588.842 1178.867 L 2590.042 1180.067 L 2591.242 1180.067 L 2596.042 1175.267 L 2596.042 1174.067 L 2593.642 1172.868 L 2596.042 1170.468 L 2597.241 1170.468 L 2598.441 1168.068 L 2597.241 1166.868 L 2598.441 1165.668 L 2597.241 1164.468 L 2598.441 1163.268 L 2600.841 1160.868 L 2608.041 1160.868 L 2609.241 1162.068 L 2610.441 1160.868 L 2611.641 1159.668 L 2614.041 1158.468 L 2617.641 1158.468 L 2618.841 1156.068 L 2623.641 1156.068 L 2624.841 1154.868 L 2629.641 1152.468 L 2630.841 1152.468 L 2632.041 1150.068 L 2632.041 1146.468 L 2630.841 1146.468 L 2632.041 1142.868 L 2629.641 1140.468 L 2629.641 1136.869 L 2627.241 1136.869 L 2624.841 1134.469 L 2623.641 1133.269 L 2622.441 1130.869 L 2620.041 1129.669 L 2620.041 1127.269 L 2617.641 1128.469 L 2616.441 1126.069 L 2617.641 1124.869 L 2617.641 1122.469 L 2615.241 1121.269 L 2615.241 1120.069 L 2614.041 1112.869 L 2616.441 1111.669 L 2616.441 1110.469 L 2617.641 1108.069 L 2617.641 1105.669 L 2624.841 1100.87 L 2624.841 1098.47 L 2623.641 1097.27 L 2624.841 1096.07 L 2623.641 1094.87 L 2624.841 1093.67 L 2626.041 1090.07 L 2628.441 1088.87 L 2628.441 1087.67 L 2629.641 1085.27 L 2628.441 1081.67 L 2628.441 1080.47 L 2632.041 1080.47 L 2632.041 1075.67 L 2633.24 1074.47 L 2634.44 1073.27 L 2630.841 1068.47 L 2632.041 1067.27 L 2633.24 1062.471 L 2632.041 1058.871 L 2633.24 1057.671 L 2634.44 1058.871 L 2636.84 1057.671 L 2638.04 1055.271 L 2638.04 1052.871 L 2639.24 1051.671 L 2641.64 1052.871 L 2640.44 1050.471 L 2644.04 1046.871 L 2645.24 1046.871 L 2646.44 1044.471 L 2645.24 1043.271 L 2645.24 1042.071 L 2644.04 1040.871 L 2645.24 1038.471 L 2646.44 1036.071 L 2648.84 1031.271 L 2648.84 1026.472 L 2653.64 1021.672 L 2652.44 1020.472 L 2654.84 1020.472 L 2657.24 1016.872 L 2660.84 1015.672 L 2659.64 1013.272 L 2660.84 1012.072 L 2660.84 1008.472 L 2663.24 1006.072 L 2662.04 1004.872 L 2660.84 1003.672 L 2660.84 1001.272 L 2664.44 997.672 L 2664.44 996.472 L 2670.439 994.072 L 2672.839 992.873 L 2675.239 990.473 L 2676.439 978.473 L 2678.839 972.473 L 2880.034 972.473 L 2880.034 1023.972 L 2881.234 1026.372 L 2881.234 1031.171 L 2882.434 1032.371 L 2883.634 1032.371 L 2886.033 1034.771 L 2884.834 1045.571 L 2886.033 1046.771 L 2886.033 1049.171 L 2882.434 1056.371 L 2882.434 1062.371 L 2883.634 1068.37 L 2884.834 1068.37 L 2884.834 1071.97 L 2883.634 1074.37 L 2883.634 1082.77 L 2888.433 1086.37 L 2893.233 1088.77 L 2893.233 1089.97 L 2896.833 1089.97 L 2896.833 1091.17 L 2898.033 1089.97 L 2900.433 1091.17 L 2902.833 1094.77 L 2906.433 1095.97 L 2907.633 1099.57 L 2908.833 1099.57 L 2910.033 1100.77 L 2908.833 1106.769 L 2910.033 1111.569 L 2911.233 1112.769 L 2912.433 1115.169 L 2912.433 1119.969 L 2911.233 1122.369 L 2908.833 1122.369 L 2908.833 1125.969 L 2910.033 1127.169 L 2910.033 1130.769 L 2908.833 1131.969 L 2908.833 1134.369 L 2911.233 1136.769 L 2911.233 1137.968 L 2912.433 1137.968 L 2913.633 1142.768 L 2913.633 1143.968 L 2917.233 1145.168 L 2920.833 1148.768 L 2920.833 1149.968 L 2922.032 1151.168 L 2923.232 1149.968 L 2925.632 1151.168 L 2929.232 1158.368 L 2931.632 1159.568 L 2934.032 1159.568 L 2934.032 1160.768 L 2936.432 1163.168 L 2937.632 1163.168 L 2937.632 1164.368 L 2938.832 1165.568 L 2938.832 1166.768 L 2946.032 1171.568 L 2946.032 1172.768 L 2947.232 1172.768 L 2948.432 1171.568 L 2949.632 1172.768 L 2950.832 1171.568 L 2950.832 1173.967 L 2952.032 1176.367 L 2953.232 1176.367 L 2954.432 1178.767 L 2955.632 1178.767 L 2955.632 1177.567 L 2956.832 1177.567 L 2961.631 1181.167 L 2961.631 1182.367 L 2958.032 1183.567 L 2959.231 1185.967 L 2958.032 1189.567 L 2962.831 1193.167 L 2962.831 1195.567 L 2965.231 1196.767 L 2965.231 1199.167 L 2964.031 1200.367 L 2962.831 1202.767 L 2964.031 1203.967 L 2962.831 1207.567 L 2965.231 1209.967 L 2968.831 1209.967 L 2970.031 1211.166 L 2973.631 1214.766 L 2973.631 1219.566 L 2974.831 1220.766 L 2974.831 1221.966 L 2976.031 1223.166 L 2977.231 1221.966 L 2978.431 1225.566 L 2982.031 1226.766 L 2980.831 1229.166 L 2990.431 1227.966 L 2990.431 1226.766 L 2992.831 1226.766 L 2995.23 1231.566 L 3000.03 1232.766 L 3003.63 1238.766 L 3006.03 1239.966 L 3009.63 1244.766 L 3010.83 1243.566 L 3015.63 1237.566 L 3016.83 1236.366 L 3016.83 1232.766 L 3021.63 1231.566 L 3024.03 1229.166 L 3022.83 1227.966 L 3024.03 1225.566 L 3031.229 1220.766 L 3032.429 1220.766 L 3034.829 1221.966 L 3036.029 1224.366 L 3036.029 1225.566 L 3037.229 1229.166 L 3042.029 1230.366 L 3043.229 1231.566 L 3043.229 1233.966 L 3042.029 1237.566 L 3044.429 1239.966 L 3044.429 1243.566 L 3043.229 1244.766 L 3039.629 1255.565 L 3039.629 1259.165 L 3038.429 1260.365 L 3038.429 1265.165 L 3040.829 1267.565 L 3043.229 1267.565 L 3042.029 1268.765 L 3042.029 1271.165 L 3045.629 1272.365 L 3045.629 1275.965 L 3046.829 1275.965 L 3049.229 1274.765 L 3052.829 1275.965 L 3054.029 1277.165 L 3052.829 1279.565 L 3054.029 1280.765 L 3055.229 1279.565 L 3056.429 1281.965 L 3060.029 1279.565 L 3062.429 1279.565 L 3066.029 1280.765 L 3066.029 1281.965 L 3069.628 1283.164 L 3069.628 1284.364 L 3070.828 1284.364 L 3072.028 1287.964 L 3073.228 1289.164 L 3074.428 1291.564 L 3076.828 1291.564 L 3076.828 1295.164 L 3078.028 1295.164 L 3080.428 1293.964 L 3082.828 1295.164 L 3082.828 1293.964 L 3086.428 1295.164 L 3088.828 1293.964 L 3088.828 1299.964 L 3090.028 1302.364 L 3091.228 1304.764 L 3090.028 1307.164 L 3092.428 1307.164 L 3094.828 1310.764 L 3098.428 1308.364 L 3099.628 1309.564 L 3106.827 1308.364 L 3106.827 1307.164 L 3108.027 1305.964 L 3110.427 1308.364 L 3109.227 1309.564 L 3110.427 1311.964 L 3111.627 1310.764 L 3115.227 1313.164 L 3118.827 1313.164 L 3120.027 1316.764 L 3122.427 1316.764 L 3121.227 1321.563 L 3124.827 1319.163 L 3126.027 1321.563 L 3127.227 1322.763 L 3129.627 1321.563 L 3129.627 1323.963 L 3130.827 1326.363 L 3138.027 1323.963 L 3138.027 1325.163 L 3136.827 1327.563 L 3139.226 1328.763 L 3141.626 1325.163 L 3144.026 1325.163 L 3144.026 1327.563 L 3145.226 1328.763 L 3146.426 1328.763 L 3146.426 1331.163 L 3144.026 1332.363 L 3145.226 1334.763 L 3148.826 1332.363 L 3152.426 1335.963 L 3154.826 1334.763 L 3153.626 1332.363 L 3157.226 1333.563 L 3160.826 1335.963 L 3162.026 1332.363 L 3166.826 1332.363 L 3166.826 1333.563 L 3168.026 1333.563 L 3169.226 1331.163 L 3169.226 1329.963 L 3170.426 1329.963 L 3171.626 1331.163 L 3170.426 1332.363 L 3171.626 1333.563 L 3174.026 1334.763 L 3175.225 1334.763 L 3176.425 1333.563 L 3178.825 1332.363 L 3180.025 1334.763 L 3181.225 1334.763 L 3182.425 1333.563 L 3183.625 1335.963 L 3186.025 1333.563 L 3186.025 1334.763 L 3184.825 1339.563 L 3186.025 1340.763 L 3186.025 1341.963 L 3192.025 1341.963 L 3194.425 1346.763 L 3198.025 1343.163 L 3200.425 1345.563 L 3200.425 1347.963 L 3202.825 1349.163 L 3204.025 1350.363 L 3204.025 1351.563 L 3201.625 1353.963 L 3202.825 1357.562 L 3205.225 1359.962 L 3208.825 1368.362 L 3210.025 1369.562 L 3217.224 1368.362 L 3218.424 1370.762 L 3220.824 1373.162 L 3222.024 1376.762 L 3223.224 1377.962 L 3230.424 1379.162 L 3231.624 1379.162 L 3232.824 1380.362 L 3236.424 1382.762 L 3240.024 1387.562 L 3242.424 1388.762 L 3252.023 1388.762 L 3256.823 1386.362 L 3259.223 1386.362 L 3261.623 1388.762 L 3262.823 1389.962 L 3264.023 1393.561 L 3264.023 1398.361 L 3262.823 1401.961 L 3259.223 1405.561 L 3255.623 1410.361 L 3255.623 1415.161 L 3256.823 1416.361 L 3259.223 1416.361 L 3262.823 1417.561 L 3266.423 1418.761 L 3267.623 1421.161 L 3271.223 1423.561 L 3276.023 1423.561 L 3279.623 1422.361 L 3282.023 1422.361 L 3283.222 1423.561 L 3284.422 1422.361 L 3285.622 1417.561 L 3285.622 1416.361 L 3288.022 1416.361 L 3289.222 1417.561 L 3291.622 1416.361 L 3292.822 1413.961 L 3296.422 1412.761 L 3298.822 1410.361 L 3302.422 1410.361 L 3307.222 1416.361 L 3308.422 1415.161 L 3310.822 1413.961 L 3313.222 1412.761 L 3314.422 1413.961 L 3316.822 1416.361 L 3319.222 1416.361 L 3322.821 1413.961 L 3324.021 1411.561 L 3326.421 1410.361 L 3330.021 1411.561 L 3333.621 1411.561 L 3336.021 1410.361 L 3337.221 1406.761 L 3338.421 1406.761 L 3338.421 1404.361 L 3339.621 1403.161 L 3342.021 1401.961 L 3346.821 1400.761 L 3351.621 1394.761 L 3355.221 1395.961 L 3356.42 1394.761 L 3357.62 1393.561 L 3358.82 1392.361 L 3366.02 1392.361 L 3374.42 1389.962 L 3374.42 1391.161 L 3373.22 1393.561 L 3367.22 1403.161 L 3362.42 1411.561 L 3357.62 1416.361 L 3352.821 1419.961 L 3345.621 1424.761 L 3333.621 1430.76 L 3327.621 1431.96 L 3324.021 1434.36 L 3322.821 1435.56 L 3319.222 1443.96 L 3318.022 1446.36 L 3318.022 1449.96 L 3316.822 1452.36 L 3309.622 1461.96 L 3309.622 1463.159 L 3310.822 1464.359 L 3314.422 1465.559 L 3316.822 1466.759 L 3319.222 1466.759 L 3320.421 1467.959 L 3315.622 1478.759 L 3306.022 1500.258 L 3296.422 1519.458 L 3290.422 1535.058 L 3277.323 1563.757 L 3256.923 1609.255 L 3255.723 1610.455 L 3248.523 1627.255 L 3235.324 1657.154 L 3230.524 1669.154 L 3223.324 1685.953 L 3211.324 1712.353 L 3170.626 1800.95 L 3117.927 1915.847 L 3105.927 1944.546 L 3090.328 1978.045 L 3062.729 2040.344 L 2992.131 2197.139 L 2990.931 2199.539 L 2988.531 2200.739 L 2988.531 2201.939 L 2982.531 2201.939 L 2981.331 2203.139 L 2980.131 2209.139 L 2978.931 2211.539 L 2976.531 2215.139 L 2972.931 2216.339 L 2963.331 2224.738 L 2959.731 2230.738 L 2956.132 2234.338 L 2953.732 2239.138 L 2953.732 2254.738 L 2956.132 2258.337 L 2957.332 2264.337 L 2962.131 2277.537 L 2966.931 2283.537 L 2969.331 2284.737 L 2970.531 2288.337 L 2971.731 2288.337 L 2976.531 2289.537 L 2978.931 2291.937 L 2981.331 2294.336 L 2987.331 2305.136 L 2990.931 2308.736 L 2994.53 2309.936 L 2995.73 2309.936 L 2998.13 2314.736 L 2999.33 2317.136 L 3001.73 2318.336 L 3002.93 2323.136 L 3006.53 2326.736 L 3008.93 2336.335 L 3007.73 2343.535 L 3008.93 2349.535 L 3008.93 2351.935 L 3012.53 2356.735 L 3014.93 2359.135 L 3013.73 2360.335 L 3007.73 2366.334 L 3001.73 2378.334 L 3000.53 2384.334 L 2999.33 2390.334 L 3000.53 2395.134 L 3001.73 2401.134 L 3002.93 2403.533 L 3002.93 2407.133 L 2996.93 2413.133 L 2994.53 2417.933 L 2989.731 2422.733 L 2988.531 2423.933 L 2988.531 2431.133 L 2986.131 2434.733 L 2980.131 2440.732 L 2972.931 2444.332 L 2971.731 2446.732 L 2970.531 2446.732 L 2970.531 2449.132 L 2972.931 2451.532 L 2972.931 2459.932 L 2976.531 2465.932 L 2980.131 2470.732 L 2981.331 2475.531 L 2981.331 2477.931 L 2982.531 2481.531 L 2987.331 2489.931 L 2988.531 2492.331 L 2987.331 2495.931 L 2988.531 2499.531 L 2987.331 2501.931 L 2982.531 2504.331 L 2981.331 2507.931 L 2983.731 2515.13 L 2981.331 2518.73 L 2982.531 2525.93 L 2981.331 2528.33 L 2981.331 2530.73 L 2982.531 2531.93 L 2983.731 2535.53 L 2982.531 2536.73 L 2977.731 2539.13 L 2976.531 2541.53 L 2977.731 2543.93 L 2976.531 2546.33 L 2976.531 2548.729 L 2971.731 2554.729 L 2970.531 2557.129 L 2968.131 2560.729 L 2966.931 2561.929 L 2964.531 2566.729 L 2965.731 2570.329 L 2966.931 2572.729 L 2966.931 2575.129 L 2965.731 2579.929 L 2968.131 2582.329 L 2969.331 2584.728 L 2969.331 2587.128 L 2968.131 2588.328 L 2966.931 2591.928 L 2965.731 2594.328 L 2960.931 2605.128 L 2962.131 2606.328 L 2965.731 2607.528 L 2970.531 2605.128 L 2971.731 2605.128 L 2976.531 2603.928 L 2981.331 2606.328 L 2981.331 2607.528 L 2980.131 2608.728 L 2976.531 2611.128 L 2969.331 2618.228 L 2966.931 2620.627 L 2963.331 2620.627 L 2960.931 2621.827 L 2950.132 2623.027 L 2710.638 2623.027 L 2611.241 2621.827 L 2402.947 2621.827 L 2399.347 2614.628 L 2398.147 2613.428 L 2399.347 2609.828 L 2398.147 2608.628 L 2395.747 2607.428 L 2394.547 2606.228 L 2390.947 2605.028 L 2386.147 2606.228 L 2384.947 2605.028 L 2383.747 2601.428 L 2381.347 2602.628 L 2378.948 2602.628 L 2377.748 2605.028 L 2378.948 2606.228 L 2377.748 2607.428 L 2377.748 2608.628 L 2375.348 2609.828 L 2375.348 2611.028 L 2372.948 2613.428 L 2370.548 2612.228 L 2366.948 2612.228 L 2363.348 2609.828 L 2362.148 2609.828 L 2360.948 2612.228 L 2360.948 2618.228 L 2358.548 2620.627 L 2357.348 2623.027 L 2358.548 2625.427 L 2357.348 2626.627 L 2357.348 2631.427 L 2353.748 2633.827 L 2350.148 2633.827 L 2350.148 2636.227 L 2346.548 2636.227 L 2344.148 2637.427 L 2336.949 2635.027 L 2335.749 2636.227 L 2334.549 2635.027 L 2334.549 2631.427 L 2332.149 2627.827 L 2329.749 2626.627 L 2327.349 2621.827 L 2320.149 2621.827 L 2315.349 2624.227 L 2310.549 2623.027 L 2305.75 2611.028 L 2305.75 2609.828 L 2306.95 2607.428 L 2305.75 2606.228 L 2303.35 2605.028 L 2302.15 2602.628 L 2303.35 2600.228 L 2300.95 2596.628 L 2297.35 2594.228 L 2298.55 2593.028 L 2302.15 2593.028 L 2302.15 2590.628 L 2300.95 2588.228 L 2299.75 2584.628 L 2292.65 2584.628 L 2290.25 2582.229 L 2285.45 2581.029 L 2284.25 2582.229 L 2281.85 2583.428 L 2280.65 2584.628 L 2280.65 2587.028 L 2284.25 2590.628 L 2283.05 2593.028 L 2281.85 2593.028 L 2273.45 2587.028 L 2272.25 2585.828 L 2272.25 2584.628 L 2274.65 2581.029 L 2275.85 2578.629 L 2273.45 2576.229 L 2274.65 2572.629 L 2273.45 2570.229 L 2271.051 2570.229 L 2269.851 2569.029 L 2268.651 2566.629 L 2268.651 2563.029 L 2267.451 2558.229 L 2268.651 2553.429 L 2269.851 2551.029 L 2269.851 2548.629 L 2268.651 2547.429 L 2266.251 2546.23 L 2263.851 2545.03 L 2261.451 2545.03 L 2256.651 2543.83 L 2254.251 2542.63 L 2253.051 2540.23 L 2250.651 2537.83 L 2249.451 2539.03 L 2248.251 2539.03 L 2247.051 2541.43 L 2244.651 2542.63 L 2241.051 2546.23 L 2239.851 2546.23 L 2239.851 2545.03 L 2238.651 2543.83 L 2237.451 2541.43 L 2235.052 2541.43 L 2236.251 2539.03 L 2235.052 2536.63 L 2235.052 2534.23 L 2233.852 2534.23 L 2235.052 2531.83 L 2233.852 2528.23 L 2232.652 2528.23 L 2231.452 2527.03 L 2230.252 2527.03 L 2229.052 2525.83 L 2227.852 2527.03 L 2226.652 2525.83 L 2225.452 2523.43 L 2218.252 2519.83 L 2217.052 2518.63 L 2218.252 2517.43 L 2215.852 2512.63 L 2213.452 2511.43 L 2212.252 2509.031 L 2212.252 2506.631 L 2213.452 2505.431 L 2214.652 2503.031 L 2213.452 2501.831 L 2212.252 2498.231 L 2213.452 2497.031 L 2211.052 2494.631 L 2211.052 2493.431 L 2207.452 2491.031 L 2205.052 2488.631 L 2201.452 2485.031 L 2194.253 2481.431 L 2189.453 2481.431 L 2188.253 2479.031 L 2185.853 2475.431 L 2184.653 2475.431 L 2183.453 2474.231 L 2182.253 2474.231 L 2179.853 2471.832 L 2062.556 2471.832 L 2046.957 2470.632 L 2045.757 2479.031 L 2046.957 2481.431 L 2045.757 2483.831 L 2043.357 2485.031 L 2042.157 2488.631 L 2038.557 2491.031 L 2038.557 2493.431 L 2039.757 2494.631 L 2038.557 2498.231 L 2037.357 2499.431 L 2033.757 2505.431 L 2027.757 2509.031 L 2024.157 2512.63 L 2024.157 2513.83 L 2028.957 2522.23 L 2024.157 2525.83 L 2021.757 2529.43 L 2021.757 2531.83 L 2019.357 2535.43 L 2018.158 2536.63 L 2016.958 2536.63 L 2010.958 2531.83 L 2007.358 2530.63 L 2003.758 2529.43 L 2000.158 2529.43 L 1998.958 2531.83 L 1996.558 2535.43 L 1995.358 2536.63 L 1991.758 2535.43 L 1989.358 2536.63 L 1989.358 2547.429 L 1983.358 2551.029 L 1983.358 2553.429 L 1988.158 2554.629 L 1990.558 2557.029 L 1990.558 2559.429 L 1984.558 2564.229 L 1984.558 2565.429 L 1985.758 2569.029 L 1989.358 2572.629 L 1989.358 2576.229 L 1991.758 2578.629 L 1992.958 2578.629 L 1992.958 2581.029 L 1989.358 2587.028 L 1988.158 2587.028 L 1985.758 2584.628 L 1985.758 2583.428 L 1984.558 2582.229 L 1983.358 2582.229 L 1982.159 2583.428 L 1980.959 2589.428 L 1978.559 2590.628 L 1978.559 2593.028 L 1977.359 2595.428 L 1976.159 2596.628 L 1977.359 2597.828 L 1973.759 2602.628 L 1974.959 2607.428 L 1967.759 2606.228 L 1966.559 2606.228 L 1962.959 2608.628 L 1960.559 2608.628 L 1958.159 2607.428 L 1956.959 2608.628 L 1954.559 2612.228 L 1954.559 2618.228 L 1956.959 2623.027 L 1955.759 2625.427 L 1952.159 2629.027 L 1952.159 2631.427 L 1953.359 2635.027 L 1953.359 2639.827 L 1954.559 2648.227 L 1954.559 2650.627 L 1953.359 2651.827 L 1948.559 2651.827 L 1938.96 2657.826 L 1932.96 2656.626 L 1926.96 2657.826 L 1924.56 2657.826 L 1922.16 2656.626 L 1922.16 2655.426 L 1924.56 2649.427 L 1924.56 2645.827 L 1922.16 2645.827 L 1912.56 2649.427 L 1907.761 2651.827 L 1902.961 2653.027 L 1900.561 2654.227 L 1896.961 2654.227 L 1892.161 2655.426 L 1884.961 2654.227 L 1882.561 2654.227 L 1881.361 2655.426 L 1878.961 2656.626 L 1877.761 2656.626 L 1877.761 2659.026 L 1875.361 2660.226 L 1874.162 2661.426 L 1871.762 2661.426 L 1866.962 2660.226 L 1863.362 2660.226 L 1860.962 2661.426 L 1858.562 2657.826 L 1857.362 2656.626 L 1854.962 2656.626 L 1854.962 2657.826 L 1850.162 2661.426 L 1846.562 2662.626 L 1845.362 2662.626 L 1841.762 2657.826 L 1840.562 2656.626 L 1835.763 2656.626 L 1830.963 2657.826 L 1826.163 2661.426 L 1822.563 2663.826 L 1821.363 2666.226 L 1820.163 2667.426 L 1817.763 2666.226 L 1817.763 2672.226 L 1815.363 2680.626 L 1814.163 2681.826 L 1814.163 2685.426 L 1815.363 2686.626 L 1815.363 2692.625 L 1816.563 2695.025 L 1816.563 2696.225 L 1817.763 2698.625 L 1816.563 2699.825 L 1815.363 2702.225 L 1814.163 2705.825 L 1814.163 2707.025 L 1811.763 2708.225 L 1811.763 2709.425 L 1809.363 2711.825 L 1805.763 2711.825 L 1803.363 2714.225 L 1803.363 2716.625 L 1800.964 2719.025 L 1802.164 2721.425 L 1799.764 2721.425 L 1798.564 2722.625 L 1797.364 2723.825 L 1796.164 2723.825 L 1797.364 2727.424 L 1794.964 2729.824 L 1794.964 2731.024 L 1793.764 2732.224 L 1787.764 2732.224 L 1786.564 2733.424 L 1787.764 2735.824 L 1785.364 2737.024 L 1782.964 2737.024 L 1778.164 2740.624 L 1775.764 2738.224 L 1772.164 2737.024 L 1769.764 2737.024 L 1769.764 2734.624 L 1772.164 2731.024 L 1772.164 2728.624 L 1768.564 2727.424 L 1768.564 2726.225 L 1769.764 2721.425 L 1766.164 2715.425 L 1766.164 2709.425 L 1760.165 2705.825 L 1758.965 2705.825 L 1752.965 2708.225 L 1750.565 2710.625 L 1742.165 2715.425 L 1740.965 2717.825 L 1736.165 2717.825 L 1736.165 2719.025 L 1734.965 2720.225 L 1733.765 2720.225 L 1730.165 2717.825 L 1725.366 2715.425 L 1724.166 2716.625 L 1724.166 2726.225 L 1722.966 2732.224 L 1722.966 2733.424 L 1724.166 2735.824 L 1726.566 2741.824 L 1726.566 2744.224 L 1725.366 2743.024 L 1722.966 2744.224 L 1720.566 2741.824 L 1719.366 2744.224 L 1715.766 2745.424 L 1714.566 2744.224 L 1714.566 2741.824 L 1713.366 2740.624 L 1710.966 2740.624 L 1704.966 2735.824 L 1702.566 2734.624 L 1697.766 2734.624 L 1694.166 2735.824 L 1690.567 2737.024 L 1689.367 2738.224 L 1688.167 2740.624 L 1683.367 2740.624 L 1682.167 2750.224 L 1679.767 2751.424 L 1674.967 2761.024 L 1673.767 2761.024 L 1671.367 2759.824 L 1670.167 2759.824 L 1668.967 2762.224 L 1666.567 2762.224 L 1665.367 2763.423 L 1662.967 2765.823 L 1661.767 2765.823 L 1660.567 2762.224 L 1659.367 2761.024 L 1658.167 2761.024 L 1656.968 2755.024 L 1654.568 2756.224 L 1653.368 2756.224 L 1653.368 2752.624 L 1652.168 2751.424 L 1650.968 2751.424 L 1647.368 2747.824 L 1644.968 2747.824 L 1641.368 2746.624 L 1640.168 2744.224 L 1638.968 2740.624 L 1635.368 2738.224 L 1634.168 2737.024 L 1631.768 2735.824 L 1631.768 2733.424 L 1628.168 2733.424 L 1625.768 2732.224 L 1618.569 2732.224 L 1618.569 2733.424 L 1616.169 2734.624 L 1608.969 2734.624 L 1605.369 2733.424 L 1602.969 2733.424 L 1599.369 2735.824 L 1598.169 2735.824 L 1595.769 2738.224 L 1589.769 2735.824 L 1587.369 2735.824 L 1584.97 2737.024 L 1583.77 2737.024 L 1580.17 2733.424 L 1575.37 2733.424 L 1576.57 2737.024 L 1575.37 2738.224 L 1570.57 2738.224 L 1570.57 2735.824 L 1569.37 2734.624 L 1566.97 2737.024 L 1563.37 2734.624 L 1560.97 2735.824 L 1559.77 2735.824 L 1553.77 2733.424 L 1552.57 2734.624 L 1552.57 2735.824 L 1556.17 2738.224 L 1557.37 2741.824 L 1557.37 2750.224 L 1551.37 2755.024 L 1548.971 2759.824 L 1544.171 2764.623 L 1539.371 2768.223 L 1538.171 2770.623 L 1538.171 2774.223 L 1530.971 2775.423 L 1528.571 2779.023 L 1523.771 2780.223 L 1522.571 2781.423 L 1518.971 2780.223 L 1516.571 2782.623 L 1505.772 2788.623 L 1504.572 2792.223 L 1502.172 2794.623 L 1498.572 2797.023 L 1491.372 2797.023 L 1488.972 2795.823 L 1487.772 2797.023 L 1488.972 2798.223 L 1488.972 2803.022 L 1484.172 2806.622 L 1438.674 2787.423 L 1431.474 2783.823 L 1425.474 2782.623 L 1420.674 2779.023 L 1391.975 2767.023 L 1284.278 2720.325 L 1241.179 2701.225 L 1164.581 2667.726 L 1145.482 2659.326 L 1140.682 2656.926 L 1134.682 2654.527 L 1098.783 2634.127 L 1065.284 2617.328 L 1019.785 2593.428 L 999.386 2582.628 L 963.487 2562.229 L 897.589 2526.33 L 868.889 2510.73 L 855.79 2502.331 L 838.99 2498.731 L 819.791 2493.931 L 755.192 2480.831 L 701.294 2467.632 L 654.595 2456.832 L 643.796 2454.432 L 567.098 2433.933 L 563.498 2433.933 L 559.898 2432.733 L 533.599 2424.333 L 531.199 2423.133 L 448.601 2406.333 L 442.601 2403.933 L 411.502 2388.334 L 330.104 2351.235 L 257.106 2318.836 L 246.207 2313.036 Z " fill="#F3AA47" vector-effect="non-scaling-stroke" stroke-width="1" stroke-linejoin="miter" stroke-linecap="butt" stroke-miterlimit="4"/></svg>