<?xml version="1.0" standalone="no"?><!-- Generator: Gravit.io --><svg xmlns="http://www.w3.org/2000/svg" xmlns:xlink="http://www.w3.org/1999/xlink" style="isolation:isolate" viewBox="5039.274 2569.129 1643.055 1792.65" width="1643.055" height="1792.65"><path d=" M 5042.474 3075.715 L 5041.274 3074.515 L 5041.274 3072.115 L 5042.474 3072.115 L 5043.674 3068.515 L 5042.474 3066.115 L 5047.274 3064.915 L 5061.673 3057.715 L 5064.073 3057.715 L 5066.473 3054.115 L 5070.073 3048.116 L 5071.273 3036.116 L 5074.873 3026.516 L 5078.473 3022.916 L 5078.473 3019.316 L 5079.673 3019.316 L 5083.273 3016.916 L 5084.473 3014.517 L 5085.673 3013.317 L 5091.672 3009.717 L 5094.072 3006.117 L 5100.072 3002.517 L 5100.072 3001.317 L 5097.672 2996.517 L 5097.672 2995.317 L 5098.872 2991.717 L 5100.072 2989.317 L 5101.272 2988.117 L 5106.072 2985.717 L 5108.472 2984.517 L 5109.672 2982.117 L 5109.672 2977.318 L 5106.072 2976.118 L 5104.872 2976.118 L 5112.072 2971.318 L 5115.672 2968.918 L 5116.872 2964.118 L 5116.872 2962.918 L 5115.672 2961.718 L 5113.272 2958.118 L 5112.072 2956.918 L 5112.072 2955.718 L 5114.472 2954.518 L 5116.872 2953.318 L 5116.872 2952.118 L 5120.472 2950.918 L 5121.672 2952.118 L 5125.272 2950.918 L 5128.871 2950.918 L 5132.471 2947.318 L 5136.071 2948.518 L 5138.471 2947.318 L 5139.671 2946.118 L 5139.671 2942.519 L 5144.471 2941.319 L 5145.671 2936.519 L 5146.871 2935.319 L 5150.471 2935.319 L 5152.871 2934.119 L 5155.271 2934.119 L 5156.471 2930.519 L 5158.871 2929.319 L 5166.07 2924.519 L 5167.27 2922.119 L 5169.67 2919.719 L 5173.27 2917.319 L 5180.47 2917.319 L 5181.67 2912.519 L 5179.27 2908.919 L 5180.47 2906.52 L 5180.47 2904.12 L 5181.67 2904.12 L 5184.07 2902.92 L 5186.47 2901.72 L 5193.67 2901.72 L 5196.07 2900.52 L 5198.469 2895.72 L 5200.869 2889.72 L 5202.069 2887.32 L 5203.269 2886.12 L 5203.269 2876.52 L 5202.069 2871.72 L 5203.269 2870.521 L 5203.269 2868.121 L 5199.669 2868.121 L 5198.469 2865.721 L 5205.669 2865.721 L 5208.069 2864.521 L 5211.669 2860.921 L 5214.069 2860.921 L 5220.069 2857.321 L 5221.269 2857.321 L 5223.669 2859.721 L 5226.069 2863.321 L 5226.069 2874.12 L 5228.469 2877.72 L 5233.269 2881.32 L 5234.468 2882.52 L 5234.468 2888.52 L 5235.668 2889.72 L 5239.268 2892.12 L 5240.468 2893.32 L 5242.868 2894.52 L 5245.268 2899.32 L 5250.068 2902.92 L 5251.268 2905.32 L 5250.068 2911.319 L 5251.268 2914.919 L 5256.068 2918.519 L 5256.068 2920.919 L 5254.868 2922.119 L 5250.068 2926.919 L 5247.668 2930.519 L 5248.868 2932.919 L 5248.868 2936.519 L 5247.668 2938.919 L 5248.868 2942.519 L 5250.068 2950.918 L 5250.068 2952.118 L 5251.268 2953.318 L 5252.468 2954.518 L 5253.668 2954.518 L 5256.068 2955.718 L 5258.468 2955.718 L 5259.668 2958.118 L 5260.868 2959.318 L 5260.868 2960.518 L 5263.268 2971.318 L 5269.268 2976.118 L 5275.267 2977.318 L 5278.867 2978.518 L 5278.867 2979.718 L 5281.267 2985.717 L 5282.467 2986.917 L 5287.267 2986.917 L 5288.467 2988.117 L 5288.467 2989.317 L 5289.667 2989.317 L 5299.267 2990.517 L 5306.466 2990.517 L 5307.666 2991.717 L 5311.266 2990.517 L 5313.666 2990.517 L 5314.866 2991.717 L 5317.266 2992.917 L 5318.466 2994.117 L 5320.866 2995.317 L 5323.266 2998.917 L 5326.866 2998.917 L 5330.466 3000.117 L 5331.666 3000.117 L 5331.666 3001.317 L 5338.866 3007.317 L 5342.465 3003.717 L 5343.665 3003.717 L 5344.865 3002.517 L 5347.265 3002.517 L 5350.865 2998.917 L 5352.065 2998.917 L 5353.265 3001.317 L 5358.065 2997.717 L 5359.265 2996.517 L 5360.465 2995.317 L 5360.465 2991.717 L 5364.065 2984.517 L 5368.865 2984.517 L 5368.865 2980.917 L 5370.065 2979.718 L 5373.665 2978.518 L 5374.865 2977.318 L 5377.265 2976.118 L 5382.064 2977.318 L 5385.664 2976.118 L 5385.664 2974.918 L 5386.864 2971.318 L 5384.464 2964.118 L 5385.664 2964.118 L 5385.664 2962.918 L 5386.864 2961.718 L 5389.264 2960.518 L 5392.864 2960.518 L 5395.264 2959.318 L 5396.464 2958.118 L 5398.864 2953.318 L 5401.264 2952.118 L 5406.064 2952.118 L 5410.864 2955.718 L 5414.463 2955.718 L 5418.063 2954.518 L 5420.463 2952.118 L 5421.663 2949.718 L 5422.863 2948.518 L 5424.063 2948.518 L 5428.863 2949.718 L 5432.463 2948.518 L 5433.663 2947.318 L 5440.863 2938.919 L 5442.063 2937.719 L 5444.463 2937.719 L 5446.863 2938.919 L 5448.063 2940.119 L 5449.263 2941.319 L 5452.862 2948.518 L 5456.462 2950.918 L 5460.062 2952.118 L 5461.262 2952.118 L 5464.862 2949.718 L 5466.062 2949.718 L 5469.662 2952.118 L 5472.062 2953.318 L 5474.462 2954.518 L 5476.862 2954.518 L 5479.262 2953.318 L 5480.462 2953.318 L 5481.662 2950.918 L 5484.062 2946.118 L 5485.262 2944.918 L 5488.861 2944.918 L 5490.061 2943.719 L 5491.261 2941.319 L 5494.861 2929.319 L 5496.061 2928.119 L 5498.461 2925.719 L 5498.461 2924.519 L 5497.261 2918.519 L 5498.461 2913.719 L 5499.661 2911.319 L 5502.061 2911.319 L 5504.461 2912.519 L 5509.261 2914.919 L 5517.661 2914.919 L 5517.661 2913.719 L 5518.861 2907.719 L 5521.261 2905.32 L 5522.461 2901.72 L 5523.66 2900.52 L 5526.06 2898.12 L 5529.66 2895.72 L 5532.06 2893.32 L 5532.06 2882.92 L 5539.26 2875.72 L 5542.86 2870.921 L 5544.06 2862.521 L 5544.06 2858.921 L 5542.86 2856.521 L 5545.26 2852.921 L 5546.46 2851.721 L 5557.26 2851.721 L 5557.26 2849.321 L 5558.46 2845.721 L 5562.059 2843.321 L 5563.259 2838.521 L 5562.059 2836.121 L 5559.659 2834.922 L 5556.06 2831.322 L 5558.46 2826.522 L 5558.46 2825.322 L 5557.26 2824.122 L 5554.86 2824.122 L 5554.86 2820.522 L 5557.26 2820.522 L 5557.26 2818.122 L 5560.859 2816.922 L 5562.059 2814.522 L 5562.059 2812.122 L 5564.459 2809.722 L 5564.459 2808.522 L 5562.059 2806.122 L 5559.659 2804.922 L 5557.26 2802.522 L 5553.66 2802.522 L 5552.46 2800.122 L 5545.36 2797.723 L 5544.16 2796.523 L 5541.76 2795.323 L 5539.36 2788.223 L 5539.36 2782.223 L 5534.56 2773.823 L 5530.96 2772.623 L 5532.16 2770.223 L 5532.16 2769.023 L 5533.36 2769.023 L 5530.96 2767.823 L 5530.96 2763.024 L 5529.76 2758.224 L 5529.76 2755.824 L 5535.76 2746.224 L 5539.36 2743.824 L 5541.76 2739.024 L 5544.16 2736.624 L 5547.76 2735.424 L 5558.56 2731.824 L 5562.159 2729.424 L 5569.359 2723.425 L 5571.759 2722.225 L 5575.359 2717.425 L 5578.959 2713.825 L 5580.159 2713.825 L 5583.759 2712.625 L 5584.959 2712.625 L 5587.359 2710.225 L 5592.159 2705.425 L 5594.559 2704.225 L 5598.158 2703.025 L 5600.558 2704.225 L 5601.758 2704.225 L 5604.158 2705.425 L 5608.958 2711.425 L 5610.158 2713.825 L 5613.758 2719.825 L 5617.358 2723.425 L 5622.158 2723.425 L 5624.558 2727.025 L 5626.958 2728.224 L 5628.158 2728.224 L 5629.358 2733.024 L 5631.757 2733.024 L 5632.957 2730.624 L 5637.757 2730.624 L 5640.157 2729.424 L 5643.757 2729.424 L 5644.957 2731.824 L 5646.157 2733.024 L 5649.757 2730.624 L 5652.157 2724.625 L 5654.557 2724.625 L 5656.957 2727.025 L 5656.957 2724.625 L 5658.157 2724.625 L 5659.357 2723.425 L 5660.557 2724.625 L 5661.757 2724.625 L 5661.757 2725.825 L 5662.957 2725.825 L 5665.357 2727.025 L 5665.357 2728.224 L 5670.156 2728.224 L 5670.156 2731.824 L 5677.356 2730.624 L 5678.556 2730.624 L 5682.156 2729.424 L 5684.556 2730.624 L 5686.956 2733.024 L 5686.956 2734.224 L 5688.156 2735.424 L 5686.956 2739.024 L 5686.956 2741.424 L 5688.156 2746.224 L 5689.356 2748.624 L 5689.356 2749.824 L 5692.956 2752.224 L 5696.556 2752.224 L 5698.956 2753.424 L 5702.556 2758.224 L 5704.955 2758.224 L 5707.355 2755.824 L 5708.555 2755.824 L 5709.755 2758.224 L 5709.755 2761.824 L 5712.155 2765.423 L 5712.155 2769.023 L 5714.555 2769.023 L 5721.755 2767.823 L 5722.955 2766.623 L 5722.955 2763.024 L 5725.355 2761.824 L 5727.755 2759.424 L 5730.155 2757.024 L 5730.155 2752.224 L 5731.355 2753.424 L 5734.955 2754.624 L 5734.955 2755.824 L 5737.355 2755.824 L 5740.954 2754.624 L 5743.354 2754.624 L 5745.754 2753.424 L 5746.954 2754.624 L 5750.554 2749.824 L 5751.754 2747.424 L 5752.954 2746.224 L 5756.554 2747.424 L 5760.154 2746.224 L 5764.954 2747.424 L 5769.754 2746.224 L 5770.954 2743.824 L 5769.754 2741.424 L 5770.954 2740.224 L 5773.354 2739.024 L 5776.953 2740.224 L 5778.153 2739.024 L 5780.553 2737.824 L 5781.753 2736.624 L 5781.753 2731.824 L 5782.953 2730.624 L 5786.553 2728.224 L 5791.353 2725.825 L 5792.553 2724.625 L 5793.753 2724.625 L 5793.753 2719.825 L 5799.753 2716.225 L 5800.953 2713.825 L 5802.153 2713.825 L 5805.753 2712.625 L 5809.353 2712.625 L 5810.553 2711.425 L 5814.152 2709.025 L 5816.552 2707.825 L 5817.752 2707.825 L 5820.152 2709.025 L 5822.552 2709.025 L 5824.952 2707.825 L 5835.752 2707.825 L 5839.352 2706.625 L 5845.352 2703.025 L 5850.151 2703.025 L 5852.551 2701.825 L 5857.351 2704.225 L 5862.151 2700.625 L 5864.551 2704.225 L 5868.151 2704.225 L 5870.551 2706.625 L 5871.751 2706.625 L 5872.951 2705.425 L 5874.151 2703.025 L 5877.751 2701.825 L 5880.151 2699.425 L 5881.351 2699.425 L 5883.751 2700.625 L 5886.15 2700.625 L 5888.55 2689.826 L 5892.15 2686.226 L 5892.15 2682.626 L 5895.75 2679.026 L 5896.95 2679.026 L 5899.35 2676.626 L 5904.15 2673.026 L 5904.15 2664.626 L 5905.35 2659.826 L 5905.35 2658.626 L 5913.75 2658.626 L 5914.95 2656.226 L 5914.95 2653.827 L 5922.149 2652.627 L 5923.349 2652.627 L 5923.349 2650.227 L 5925.749 2650.227 L 5926.949 2647.827 L 5932.949 2647.827 L 5934.149 2650.227 L 5937.749 2649.027 L 5937.749 2644.227 L 5940.149 2643.027 L 5941.349 2638.227 L 5942.549 2638.227 L 5943.749 2635.827 L 5943.749 2633.427 L 5944.949 2632.227 L 5944.949 2631.027 L 5946.149 2631.027 L 5947.349 2627.427 L 5949.749 2627.427 L 5952.149 2625.027 L 5956.948 2619.027 L 5958.148 2620.227 L 5960.548 2614.228 L 5962.948 2609.428 L 5964.148 2605.828 L 5966.548 2603.428 L 5966.548 2602.228 L 5970.148 2602.228 L 5974.948 2605.828 L 5978.548 2605.828 L 5982.148 2608.228 L 5983.348 2608.228 L 5985.748 2607.028 L 5988.148 2604.628 L 5991.748 2604.628 L 5991.748 2603.428 L 5992.947 2602.228 L 5994.147 2602.228 L 5997.747 2603.428 L 5998.947 2602.228 L 6000.147 2603.428 L 6001.347 2602.228 L 6002.547 2603.428 L 6003.747 2602.228 L 6004.947 2603.428 L 6013.347 2602.228 L 6012.147 2604.628 L 6012.147 2605.828 L 6010.947 2607.028 L 6010.947 2608.228 L 6012.147 2610.628 L 6013.347 2611.828 L 6013.347 2613.028 L 6014.547 2614.228 L 6015.747 2616.628 L 6019.347 2616.628 L 6019.347 2617.828 L 6020.547 2616.628 L 6027.747 2616.628 L 6028.946 2621.427 L 6027.747 2626.227 L 6030.146 2627.427 L 6033.746 2625.027 L 6034.946 2625.027 L 6037.346 2623.827 L 6040.946 2625.027 L 6040.946 2627.427 L 6043.346 2627.427 L 6048.146 2626.227 L 6048.146 2628.627 L 6050.546 2631.027 L 6051.746 2631.027 L 6051.746 2635.827 L 6054.146 2638.227 L 6054.146 2640.627 L 6057.746 2641.827 L 6057.746 2646.627 L 6060.146 2646.627 L 6060.146 2652.627 L 6061.346 2655.026 L 6062.546 2657.426 L 6063.746 2659.826 L 6063.746 2662.226 L 6064.945 2663.426 L 6064.945 2667.026 L 6066.145 2668.226 L 6064.945 2670.626 L 6067.345 2671.826 L 6068.545 2674.226 L 6070.945 2674.226 L 6070.945 2675.426 L 6073.345 2674.226 L 6075.745 2675.426 L 6076.945 2675.426 L 6076.945 2677.826 L 6078.145 2677.826 L 6080.545 2679.026 L 6084.145 2681.426 L 6088.945 2681.426 L 6090.145 2683.826 L 6092.545 2685.026 L 6091.345 2687.426 L 6091.345 2691.025 L 6090.145 2693.425 L 6090.145 2694.625 L 6087.745 2698.225 L 6088.945 2700.625 L 6088.945 2703.025 L 6090.145 2703.025 L 6090.145 2705.425 L 6088.945 2706.625 L 6085.345 2707.825 L 6085.345 2710.225 L 6082.945 2711.425 L 6079.345 2710.225 L 6079.345 2711.425 L 6078.145 2711.425 L 6076.945 2712.625 L 6080.545 2717.425 L 6079.345 2718.625 L 6080.545 2721.025 L 6078.145 2723.425 L 6079.345 2725.825 L 6079.345 2729.424 L 6078.145 2729.424 L 6075.745 2730.624 L 6075.745 2734.224 L 6074.545 2736.624 L 6073.345 2739.024 L 6078.145 2736.624 L 6082.945 2736.624 L 6084.145 2737.824 L 6090.145 2741.424 L 6094.945 2742.624 L 6099.745 2743.824 L 6105.744 2741.424 L 6109.344 2741.424 L 6110.544 2740.224 L 6112.944 2737.824 L 6114.144 2737.824 L 6115.344 2733.024 L 6116.544 2731.824 L 6120.144 2730.624 L 6122.544 2730.624 L 6126.144 2731.824 L 6127.344 2733.024 L 6129.744 2729.424 L 6133.344 2722.225 L 6135.744 2719.825 L 6138.143 2719.825 L 6141.743 2723.425 L 6145.343 2724.625 L 6146.543 2724.625 L 6151.343 2719.825 L 6151.343 2715.025 L 6153.743 2707.825 L 6156.143 2705.425 L 6158.543 2692.225 L 6159.743 2688.626 L 6158.543 2683.826 L 6159.743 2677.826 L 6162.143 2670.726 L 6165.743 2667.126 L 6166.943 2665.926 L 6170.543 2665.926 L 6171.743 2667.126 L 6172.942 2667.126 L 6176.542 2670.726 L 6180.142 2673.126 L 6181.342 2675.526 L 6187.342 2675.526 L 6194.442 2671.926 L 6196.842 2669.526 L 6199.242 2667.126 L 6211.241 2667.126 L 6213.641 2665.926 L 6217.241 2664.726 L 6224.441 2656.326 L 6225.641 2655.126 L 6226.841 2651.527 L 6229.241 2650.327 L 6232.841 2643.127 L 6231.641 2638.327 L 6228.041 2631.127 L 6228.041 2626.327 L 6229.241 2625.127 L 6232.841 2623.927 L 6242.441 2621.527 L 6244.841 2622.727 L 6247.24 2622.727 L 6254.44 2617.928 L 6262.84 2619.127 L 6265.24 2619.127 L 6266.44 2617.928 L 6267.64 2616.728 L 6268.84 2615.528 L 6267.64 2611.928 L 6267.64 2608.328 L 6266.44 2602.328 L 6264.04 2597.528 L 6265.24 2593.928 L 6272.34 2593.928 L 6275.94 2592.728 L 6279.54 2592.728 L 6286.739 2590.328 L 6286.739 2589.128 L 6287.939 2587.928 L 6289.139 2586.728 L 6293.939 2585.528 L 6295.139 2584.328 L 6302.339 2581.929 L 6305.939 2579.529 L 6305.939 2577.129 L 6307.139 2575.929 L 6311.939 2575.929 L 6313.139 2572.329 L 6314.339 2572.329 L 6319.138 2571.129 L 6321.538 2571.129 L 6322.738 2572.329 L 6323.938 2573.529 L 6326.338 2575.929 L 6335.938 2575.929 L 6337.138 2577.129 L 6338.338 2579.529 L 6338.338 2581.929 L 6339.538 2585.528 L 6341.938 2586.728 L 6343.138 2587.928 L 6344.338 2590.328 L 6343.138 2591.528 L 6343.138 2598.728 L 6344.338 2601.128 L 6345.538 2602.328 L 6346.738 2603.528 L 6347.938 2603.528 L 6347.938 2602.328 L 6351.538 2603.528 L 6355.137 2602.328 L 6356.337 2601.128 L 6357.537 2599.928 L 6359.937 2602.328 L 6359.937 2603.528 L 6364.737 2604.728 L 6370.737 2605.928 L 6375.537 2607.128 L 6380.337 2608.328 L 6381.537 2608.328 L 6383.937 2610.728 L 6388.737 2613.128 L 6391.136 2617.928 L 6393.536 2619.127 L 6394.736 2620.327 L 6397.136 2620.327 L 6400.736 2619.127 L 6407.936 2617.928 L 6410.336 2616.728 L 6412.736 2616.728 L 6421.136 2617.928 L 6422.336 2617.928 L 6423.536 2619.127 L 6428.335 2622.727 L 6433.135 2627.527 L 6436.735 2628.727 L 6439.135 2631.127 L 6440.335 2634.727 L 6441.535 2640.727 L 6441.535 2644.327 L 6442.735 2646.727 L 6445.135 2651.527 L 6449.935 2653.927 L 6452.335 2652.727 L 6453.535 2652.727 L 6455.935 2647.927 L 6455.935 2637.127 L 6457.135 2634.727 L 6463.134 2625.127 L 6466.734 2623.927 L 6473.934 2625.127 L 6478.734 2628.727 L 6481.134 2631.127 L 6479.934 2635.927 L 6478.734 2638.327 L 6473.934 2641.927 L 6472.734 2643.127 L 6472.734 2644.327 L 6471.534 2645.527 L 6471.534 2646.727 L 6472.734 2649.127 L 6475.134 2652.727 L 6478.734 2656.326 L 6483.534 2659.926 L 6485.934 2661.126 L 6488.334 2662.326 L 6491.934 2663.526 L 6495.534 2659.926 L 6500.333 2655.126 L 6501.533 2655.126 L 6503.933 2653.927 L 6507.533 2653.927 L 6507.533 2656.326 L 6511.133 2659.926 L 6512.333 2663.526 L 6512.333 2664.726 L 6511.133 2665.926 L 6507.533 2668.326 L 6506.333 2670.726 L 6507.533 2673.126 L 6509.933 2673.126 L 6506.333 2676.726 L 6507.533 2681.526 L 6508.733 2682.726 L 6509.933 2683.926 L 6512.333 2687.526 L 6514.733 2693.525 L 6513.533 2695.925 L 6519.533 2709.025 L 6521.933 2716.225 L 6526.733 2721.025 L 6527.933 2724.625 L 6529.133 2725.825 L 6529.133 2728.224 L 6527.933 2729.424 L 6527.933 2731.824 L 6529.133 2733.024 L 6532.733 2733.024 L 6536.332 2736.624 L 6538.732 2735.424 L 6542.332 2736.624 L 6543.532 2735.424 L 6544.732 2735.424 L 6549.532 2736.624 L 6550.732 2736.624 L 6550.732 2737.824 L 6551.932 2739.024 L 6553.132 2739.024 L 6555.532 2741.424 L 6559.132 2741.424 L 6561.532 2743.824 L 6563.932 2746.224 L 6562.732 2749.824 L 6561.532 2752.224 L 6561.532 2753.424 L 6560.332 2754.624 L 6559.132 2755.824 L 6560.332 2757.024 L 6560.332 2758.224 L 6559.132 2759.424 L 6559.132 2760.624 L 6557.932 2759.424 L 6556.732 2760.624 L 6556.732 2765.423 L 6557.932 2767.823 L 6560.332 2769.023 L 6561.532 2770.223 L 6562.732 2771.423 L 6565.132 2772.623 L 6566.332 2773.823 L 6565.132 2775.023 L 6562.732 2775.023 L 6560.332 2777.423 L 6559.132 2779.823 L 6556.732 2781.023 L 6556.732 2793.023 L 6559.132 2797.823 L 6560.332 2797.823 L 6560.332 2799.023 L 6563.932 2802.622 L 6567.532 2803.822 L 6568.732 2803.822 L 6569.932 2805.022 L 6568.732 2807.422 L 6567.532 2809.822 L 6568.732 2811.022 L 6568.732 2812.222 L 6566.332 2814.622 L 6566.332 2818.222 L 6563.932 2821.822 L 6563.932 2823.022 L 6566.332 2824.222 L 6569.932 2831.422 L 6571.131 2832.622 L 6572.331 2832.622 L 6574.731 2831.422 L 6577.131 2831.422 L 6577.131 2833.822 L 6580.731 2833.822 L 6584.331 2835.022 L 6585.531 2833.822 L 6593.931 2838.621 L 6595.131 2841.021 L 6595.131 2848.221 L 6599.931 2857.821 L 6603.531 2862.621 L 6603.531 2865.021 L 6602.331 2871.021 L 6602.331 2872.22 L 6604.731 2873.42 L 6609.53 2896.22 L 6609.53 2897.42 L 6610.73 2898.62 L 6605.931 2901.02 L 6602.331 2901.02 L 6601.131 2902.22 L 6597.531 2904.62 L 6596.331 2904.62 L 6595.131 2905.82 L 6595.131 2907.02 L 6592.731 2907.02 L 6592.731 2908.219 L 6591.531 2909.419 L 6591.531 2910.619 L 6592.731 2910.619 L 6589.131 2911.819 L 6590.331 2914.219 L 6589.131 2915.419 L 6595.131 2926.219 L 6596.331 2929.819 L 6596.331 2932.219 L 6595.131 2934.619 L 6595.131 2937.019 L 6595.131 2935.819 L 6593.931 2937.019 L 6593.931 2938.219 L 6591.531 2938.219 L 6591.531 2939.419 L 6592.731 2940.619 L 6592.731 2941.819 L 6593.931 2943.019 L 6593.931 2944.218 L 6596.331 2964.618 L 6574.731 2973.018 L 6568.732 2975.418 L 6563.932 2977.818 L 6559.132 2977.818 L 6559.132 2971.818 L 6556.732 2969.418 L 6555.532 2969.418 L 6554.332 2967.018 L 6553.132 2967.018 L 6549.532 2968.218 L 6548.332 2967.018 L 6547.132 2965.818 L 6544.732 2968.218 L 6542.332 2967.018 L 6541.132 2969.418 L 6538.732 2969.418 L 6536.332 2968.218 L 6532.733 2968.218 L 6531.533 2965.818 L 6527.933 2967.018 L 6526.733 2967.018 L 6525.533 2969.418 L 6525.533 2976.618 L 6524.333 2980.217 L 6523.133 2982.617 L 6521.933 2982.617 L 6520.733 2983.817 L 6521.933 2986.217 L 6520.733 2988.617 L 6521.933 2988.617 L 6523.133 2992.217 L 6521.933 2993.417 L 6520.733 2995.817 L 6520.733 2998.217 L 6523.133 3001.817 L 6523.133 3005.417 L 6525.533 3006.617 L 6525.533 3007.817 L 6526.733 3006.617 L 6527.933 3006.617 L 6527.933 3009.017 L 6531.533 3010.217 L 6531.533 3011.417 L 6530.333 3013.817 L 6531.533 3015.017 L 6532.733 3017.416 L 6537.532 3019.816 L 6538.732 3022.216 L 6539.932 3023.416 L 6541.132 3023.416 L 6541.132 3021.016 L 6543.532 3022.216 L 6544.732 3023.416 L 6544.732 3024.616 L 6545.932 3027.016 L 6544.732 3027.016 L 6544.732 3028.216 L 6545.932 3029.416 L 6547.132 3029.416 L 6547.132 3030.616 L 6548.332 3030.616 L 6548.332 3031.816 L 6549.532 3031.816 L 6549.532 3034.216 L 6548.332 3037.816 L 6547.132 3037.816 L 6547.132 3039.016 L 6548.332 3041.416 L 6550.732 3042.616 L 6551.932 3042.616 L 6551.932 3043.816 L 6550.732 3046.216 L 6551.932 3047.416 L 6550.732 3048.616 L 6553.132 3049.816 L 6555.532 3052.215 L 6557.932 3053.415 L 6559.132 3052.215 L 6562.732 3055.815 L 6563.932 3054.615 L 6566.332 3055.815 L 6568.732 3055.815 L 6567.532 3057.015 L 6567.532 3060.615 L 6566.332 3061.815 L 6565.132 3061.815 L 6566.332 3064.215 L 6565.132 3064.215 L 6565.132 3065.415 L 6566.332 3065.415 L 6566.332 3066.615 L 6565.132 3067.815 L 6566.332 3069.015 L 6565.132 3070.215 L 6565.132 3071.415 L 6562.732 3072.615 L 6562.732 3075.015 L 6565.132 3078.615 L 6563.932 3078.615 L 6563.932 3079.815 L 6566.332 3081.015 L 6563.932 3081.015 L 6563.932 3082.215 L 6565.132 3083.415 L 6566.332 3082.215 L 6566.332 3083.415 L 6567.532 3087.015 L 6568.732 3088.215 L 6568.732 3089.414 L 6567.532 3090.614 L 6567.532 3091.814 L 6569.932 3091.814 L 6569.932 3094.214 L 6571.131 3093.014 L 6572.331 3093.014 L 6572.331 3094.214 L 6571.131 3094.214 L 6572.331 3095.414 L 6573.531 3096.614 L 6573.531 3097.814 L 6574.731 3097.814 L 6574.731 3095.414 L 6575.931 3095.414 L 6575.931 3094.214 L 6578.331 3094.214 L 6579.531 3095.414 L 6580.731 3095.414 L 6580.731 3099.014 L 6581.931 3100.214 L 6583.131 3099.014 L 6583.131 3100.214 L 6584.331 3097.814 L 6585.531 3097.814 L 6587.931 3099.014 L 6584.331 3099.014 L 6586.731 3100.214 L 6586.731 3101.414 L 6590.331 3100.214 L 6590.331 3102.614 L 6587.931 3102.614 L 6587.931 3105.014 L 6589.131 3106.214 L 6590.331 3106.214 L 6591.531 3108.614 L 6592.731 3108.614 L 6595.131 3109.814 L 6596.331 3109.814 L 6597.531 3111.014 L 6596.331 3112.214 L 6596.331 3114.614 L 6598.731 3115.814 L 6599.931 3114.614 L 6601.131 3115.814 L 6603.531 3115.814 L 6604.731 3117.014 L 6605.931 3115.814 L 6608.33 3118.214 L 6611.93 3118.214 L 6611.93 3120.614 L 6614.33 3120.614 L 6616.73 3119.414 L 6617.93 3119.414 L 6616.73 3123.014 L 6619.13 3123.014 L 6621.53 3124.214 L 6621.53 3121.814 L 6623.93 3119.414 L 6622.73 3117.014 L 6625.13 3117.014 L 6625.13 3114.614 L 6626.33 3115.814 L 6627.53 3114.614 L 6628.73 3114.614 L 6629.93 3117.014 L 6631.13 3118.214 L 6633.53 3118.214 L 6635.93 3117.014 L 6638.33 3117.014 L 6637.13 3119.414 L 6638.33 3120.614 L 6639.53 3120.614 L 6638.33 3119.414 L 6640.73 3119.414 L 6641.93 3120.614 L 6649.129 3120.614 L 6649.129 3118.214 L 6651.529 3115.814 L 6659.929 3115.814 L 6662.329 3114.614 L 6667.129 3111.014 L 6670.729 3107.414 L 6674.329 3103.814 L 6675.529 3103.814 L 6676.729 3101.414 L 6680.328 3101.414 L 6679.128 3101.414 L 6680.328 3102.614 L 6679.128 3105.014 L 6671.929 3112.214 L 6667.129 3119.414 L 6653.929 3146.913 L 6649.129 3155.313 L 6640.73 3175.712 L 6631.13 3196.112 L 6629.93 3202.111 L 6625.13 3209.311 L 6621.53 3215.311 L 6619.13 3218.911 L 6617.93 3222.511 L 6616.73 3224.911 L 6605.931 3242.91 L 6602.331 3247.71 L 6592.731 3260.91 L 6585.531 3271.709 L 6584.331 3272.909 L 6584.331 3274.109 L 6583.131 3276.509 L 6581.931 3276.509 L 6578.331 3282.509 L 6573.531 3288.509 L 6571.131 3292.109 L 6568.732 3296.909 L 6566.332 3301.709 L 6562.732 3307.708 L 6560.332 3308.908 L 6557.932 3311.308 L 6555.532 3313.708 L 6555.532 3318.508 L 6553.132 3318.508 L 6551.932 3320.908 L 6549.532 3322.108 L 6547.132 3325.708 L 6541.132 3331.708 L 6532.733 3343.707 L 6529.133 3346.107 L 6525.533 3350.907 L 6521.933 3354.507 L 6519.533 3358.107 L 6517.133 3361.707 L 6514.733 3361.707 L 6511.133 3365.307 L 6507.533 3371.307 L 6502.733 3376.107 L 6496.734 3376.107 L 6494.334 3377.306 L 6488.334 3380.906 L 6483.534 3385.706 L 6479.934 3386.906 L 6477.534 3386.906 L 6475.134 3385.706 L 6475.134 3386.906 L 6469.134 3385.706 L 6460.735 3384.506 L 6464.334 3376.107 L 6465.534 3372.507 L 6464.334 3370.107 L 6454.735 3372.507 L 6457.135 3377.306 L 6454.735 3380.906 L 6454.735 3382.106 L 6453.535 3382.106 L 6451.135 3385.706 L 6449.935 3386.906 L 6447.535 3390.506 L 6446.335 3391.706 L 6445.135 3391.706 L 6440.335 3395.306 L 6437.935 3395.306 L 6435.535 3397.706 L 6434.335 3400.106 L 6433.135 3401.306 L 6431.935 3401.306 L 6430.735 3402.506 L 6428.335 3406.106 L 6428.335 3407.306 L 6424.736 3408.506 L 6422.336 3409.706 L 6423.536 3409.706 L 6421.136 3410.906 L 6418.736 3412.106 L 6413.936 3414.505 L 6411.536 3415.705 L 6410.336 3418.105 L 6406.736 3419.305 L 6403.136 3421.705 L 6403.136 3422.905 L 6400.736 3422.905 L 6398.336 3424.105 L 6395.936 3427.705 L 6393.536 3436.105 L 6393.536 3437.305 L 6392.336 3446.905 L 6393.536 3451.704 L 6395.936 3455.304 L 6397.136 3456.504 L 6401.936 3452.904 L 6403.136 3454.104 L 6404.336 3456.504 L 6403.136 3457.704 L 6404.336 3457.704 L 6404.336 3462.504 L 6405.536 3463.704 L 6406.736 3466.104 L 6405.536 3467.304 L 6406.736 3468.504 L 6404.336 3472.104 L 6401.936 3470.904 L 6401.936 3473.304 L 6404.336 3473.304 L 6403.136 3474.504 L 6403.136 3475.704 L 6399.536 3478.104 L 6399.536 3480.504 L 6398.336 3486.503 L 6398.336 3488.903 L 6399.536 3490.103 L 6401.936 3490.103 L 6401.936 3492.503 L 6404.336 3493.703 L 6403.136 3494.903 L 6403.136 3498.503 L 6405.536 3498.503 L 6406.736 3497.303 L 6406.736 3502.103 L 6405.536 3504.503 L 6401.936 3508.103 L 6401.936 3506.903 L 6400.736 3504.503 L 6398.336 3504.503 L 6395.936 3506.903 L 6392.336 3506.903 L 6393.536 3508.103 L 6393.536 3510.503 L 6392.336 3511.703 L 6388.737 3515.303 L 6387.537 3520.103 L 6387.537 3527.302 L 6389.936 3534.502 L 6392.336 3538.102 L 6395.936 3544.102 L 6395.936 3545.302 L 6398.336 3546.502 L 6399.536 3550.102 L 6399.536 3556.102 L 6397.136 3566.901 L 6397.136 3569.301 L 6395.936 3575.301 L 6394.736 3578.901 L 6394.736 3581.301 L 6391.136 3592.101 L 6389.936 3598.1 L 6388.737 3601.7 L 6388.737 3606.5 L 6387.537 3613.7 L 6388.737 3617.3 L 6388.737 3616.1 L 6389.936 3617.3 L 6389.936 3622.1 L 6388.737 3623.3 L 6388.737 3624.5 L 6386.337 3629.3 L 6386.337 3634.099 L 6383.937 3643.699 L 6382.737 3653.299 L 6380.337 3658.099 L 6380.337 3664.099 L 6379.137 3668.898 L 6377.937 3671.298 L 6375.537 3683.298 L 6375.537 3703.697 L 6377.937 3708.497 L 6380.337 3709.697 L 6381.537 3709.697 L 6382.737 3707.297 L 6382.737 3709.697 L 6381.537 3709.697 L 6381.537 3713.297 L 6380.337 3714.497 L 6381.537 3714.497 L 6381.537 3713.297 L 6382.737 3713.297 L 6382.737 3727.697 L 6383.937 3734.797 L 6385.137 3738.397 L 6385.137 3740.796 L 6387.537 3747.996 L 6387.537 3794.695 L 6388.737 3801.895 L 6387.537 3803.095 L 6388.737 3804.295 L 6391.136 3819.894 L 6394.736 3833.094 L 6394.736 3834.294 L 6395.936 3835.494 L 6397.136 3845.094 L 6397.136 3857.093 L 6398.336 3869.093 L 6400.736 3878.693 L 6401.936 3878.693 L 6404.336 3887.092 L 6404.336 3888.292 L 6405.536 3889.492 L 6410.336 3899.092 L 6411.536 3900.292 L 6411.536 3901.492 L 6410.336 3902.692 L 6410.336 3903.892 L 6412.736 3905.092 L 6412.736 3906.292 L 6411.536 3907.492 L 6410.336 3909.892 L 6406.736 3915.892 L 6401.936 3932.691 L 6398.336 3941.091 L 6395.936 3948.291 L 6394.736 3949.491 L 6394.736 3956.69 L 6395.936 3960.29 L 6394.736 3961.49 L 6393.536 3965.09 L 6392.336 3966.29 L 6391.136 3969.89 L 6388.737 3971.09 L 6385.137 3975.89 L 6385.137 3977.09 L 6383.937 3977.09 L 6382.737 3981.89 L 6382.737 3983.09 L 6385.137 3979.49 L 6382.737 3985.49 L 6383.937 3990.29 L 6385.137 3991.489 L 6386.337 3991.489 L 6386.337 3992.689 L 6385.137 3995.089 L 6385.137 3999.889 L 6382.737 4001.089 L 6380.337 4003.489 L 6376.737 4009.489 L 6376.737 4013.089 L 6375.537 4014.289 L 6375.537 4015.489 L 6376.737 4014.289 L 6376.737 4017.889 L 6375.537 4019.089 L 6375.537 4021.489 L 6371.937 4028.688 L 6371.937 4033.488 L 6370.737 4039.488 L 6370.737 4045.488 L 6369.537 4049.088 L 6370.737 4050.288 L 6368.337 4052.688 L 6368.337 4061.088 L 6367.137 4061.088 L 6365.937 4062.288 L 6364.737 4064.687 L 6364.737 4067.087 L 6363.537 4068.287 L 6362.337 4068.287 L 6362.337 4069.487 L 6361.137 4076.687 L 6362.337 4088.687 L 6364.737 4092.287 L 6367.137 4094.687 L 6364.737 4095.887 L 6359.937 4103.086 L 6359.937 4110.186 L 6356.337 4116.186 L 6356.337 4123.386 L 6357.537 4124.586 L 6356.337 4125.786 L 6355.137 4128.186 L 6355.137 4132.986 L 6353.937 4135.386 L 6351.538 4136.585 L 6350.338 4138.985 L 6349.138 4143.785 L 6349.138 4159.385 L 6347.938 4165.385 L 6349.138 4174.984 L 6349.138 4178.584 L 6350.338 4186.984 L 6352.738 4195.384 L 6352.738 4207.384 L 6353.937 4215.783 L 6352.738 4216.983 L 6352.738 4219.383 L 6353.937 4226.583 L 6362.337 4238.583 L 6363.537 4238.583 L 6362.337 4239.783 L 6353.937 4246.982 L 6355.137 4250.582 L 6351.538 4252.982 L 6350.338 4255.382 L 6340.738 4264.982 L 6339.538 4267.382 L 6339.538 4269.782 L 6340.738 4270.982 L 6339.538 4272.182 L 6329.938 4276.982 L 6327.538 4276.982 L 6326.338 4275.782 L 6323.938 4276.982 L 6321.538 4279.382 L 6320.338 4279.382 L 6316.739 4280.581 L 6308.339 4285.381 L 6303.539 4290.181 L 6299.939 4294.981 L 6295.139 4303.381 L 6290.339 4312.981 L 6289.139 4311.781 L 6285.539 4311.781 L 6285.539 4310.581 L 6284.339 4310.581 L 6285.539 4312.981 L 6287.939 4311.781 L 6286.739 4312.981 L 6287.939 4315.381 L 6289.139 4314.181 L 6283.139 4322.58 L 6274.74 4338.18 L 6274.74 4340.58 L 6271.14 4347.78 L 6271.14 4348.98 L 6269.94 4353.779 L 6271.14 4354.979 L 6268.74 4359.779 L 6268.74 4356.179 L 6267.54 4354.979 L 6265.14 4353.779 L 6225.641 4328.58 L 6224.441 4327.38 L 6219.641 4323.78 L 6199.242 4310.581 L 6170.543 4292.681 L 6170.543 4287.881 L 6168.143 4286.681 L 6164.543 4284.281 L 6163.343 4283.081 L 6163.343 4281.881 L 6172.942 4277.082 L 6178.942 4268.682 L 6178.942 4267.482 L 6177.742 4265.082 L 6175.342 4263.882 L 6174.142 4265.082 L 6175.342 4262.682 L 6174.142 4260.282 L 6171.743 4257.882 L 6172.942 4255.482 L 6171.743 4253.082 L 6172.942 4250.682 L 6170.543 4247.082 L 6166.943 4247.082 L 6165.743 4244.682 L 6162.143 4245.882 L 6160.943 4244.682 L 6159.743 4241.083 L 6158.543 4241.083 L 6157.343 4239.883 L 6157.343 4236.283 L 6156.143 4235.083 L 6153.743 4233.883 L 6152.543 4232.683 L 6153.743 4230.283 L 6151.343 4229.083 L 6150.143 4226.683 L 6148.943 4225.483 L 6148.943 4227.883 L 6147.743 4231.483 L 6146.543 4229.083 L 6144.143 4225.483 L 6142.943 4225.483 L 6140.543 4227.883 L 6139.343 4225.483 L 6136.943 4224.283 L 6136.943 4220.683 L 6138.143 4220.683 L 6136.943 4218.283 L 6138.143 4217.083 L 6134.544 4217.083 L 6132.144 4219.483 L 6128.544 4217.083 L 6126.144 4211.083 L 6124.944 4209.883 L 6123.744 4208.683 L 6124.944 4206.284 L 6124.944 4202.684 L 6122.544 4202.684 L 6122.544 4200.284 L 6121.344 4200.284 L 6118.944 4196.684 L 6118.944 4194.284 L 6112.944 4193.084 L 6110.544 4190.684 L 6108.144 4189.484 L 6104.544 4190.684 L 6103.344 4189.484 L 6099.745 4187.084 L 6104.544 4184.684 L 6104.544 4179.884 L 6103.344 4178.684 L 6105.744 4176.284 L 6103.344 4175.084 L 6103.344 4172.684 L 6105.744 4172.684 L 6105.744 4170.285 L 6106.944 4170.285 L 6109.344 4166.685 L 6114.144 4165.485 L 6110.544 4163.085 L 6110.544 4160.685 L 6109.344 4159.485 L 6109.344 4157.085 L 6110.544 4157.085 L 6111.744 4155.885 L 6110.544 4152.285 L 6112.944 4149.885 L 6112.944 4147.485 L 6109.344 4146.285 L 6108.144 4140.285 L 6110.544 4136.685 L 6111.744 4129.486 L 6111.744 4128.286 L 6109.344 4128.286 L 6109.344 4124.686 L 6112.944 4117.486 L 6112.944 4115.086 L 6114.144 4110.286 L 6115.344 4110.286 L 6118.944 4106.686 L 6121.344 4100.686 L 6123.744 4095.887 L 6123.744 4092.287 L 6126.144 4091.087 L 6129.744 4091.087 L 6129.744 4092.287 L 6130.944 4093.487 L 6134.544 4093.487 L 6136.943 4094.687 L 6138.143 4094.687 L 6139.343 4093.487 L 6140.543 4093.487 L 6144.143 4092.287 L 6145.343 4091.087 L 6148.943 4093.487 L 6148.943 4094.687 L 6150.143 4094.687 L 6152.543 4097.087 L 6153.743 4095.887 L 6154.943 4095.887 L 6157.343 4093.487 L 6158.543 4095.887 L 6160.943 4095.887 L 6162.143 4093.487 L 6162.143 4089.887 L 6163.343 4088.687 L 6163.343 4087.487 L 6165.743 4087.487 L 6165.743 4086.287 L 6166.943 4085.087 L 6165.743 4083.887 L 6165.743 4081.487 L 6164.543 4080.287 L 6164.543 4077.887 L 6162.143 4076.687 L 6159.743 4077.887 L 6158.543 4076.687 L 6153.743 4076.687 L 6151.343 4075.487 L 6148.943 4074.287 L 6151.343 4073.087 L 6153.743 4067.087 L 6156.143 4065.887 L 6156.143 4062.288 L 6157.343 4059.888 L 6156.143 4058.688 L 6154.943 4057.488 L 6154.943 4055.088 L 6157.343 4050.288 L 6158.543 4044.288 L 6159.743 4041.888 L 6159.743 4040.688 L 6162.143 4035.888 L 6164.543 4035.888 L 6165.743 4034.688 L 6166.943 4035.888 L 6166.943 4034.688 L 6168.143 4033.488 L 6169.343 4033.488 L 6172.942 4035.888 L 6175.342 4035.888 L 6175.342 4034.688 L 6176.542 4035.888 L 6180.142 4037.088 L 6182.542 4037.088 L 6182.542 4033.488 L 6181.342 4033.488 L 6181.342 4029.888 L 6180.142 4029.888 L 6178.942 4028.688 L 6180.142 4028.688 L 6180.142 4026.289 L 6181.342 4026.289 L 6182.542 4025.089 L 6186.142 4021.489 L 6188.542 4016.689 L 6189.742 4016.689 L 6190.942 4014.289 L 6192.142 4010.689 L 6193.342 4008.289 L 6194.542 4010.689 L 6193.342 4013.089 L 6194.542 4013.089 L 6195.742 4015.489 L 6198.142 4014.289 L 6199.342 4011.889 L 6199.342 4009.489 L 6201.742 4009.489 L 6202.942 4005.889 L 6202.942 4004.689 L 6204.142 4002.289 L 6206.542 3996.289 L 6207.742 3995.089 L 6208.941 3993.889 L 6208.941 3992.689 L 6211.341 3991.489 L 6211.341 3989.09 L 6212.541 3987.89 L 6213.741 3987.89 L 6213.741 3989.09 L 6214.941 3989.09 L 6216.141 3990.29 L 6217.341 3990.29 L 6218.541 3985.49 L 6220.941 3984.29 L 6222.141 3983.09 L 6225.741 3983.09 L 6224.541 3979.49 L 6223.341 3978.29 L 6222.141 3975.89 L 6225.741 3971.09 L 6225.741 3969.89 L 6228.141 3968.69 L 6228.141 3967.49 L 6230.541 3966.29 L 6231.741 3961.49 L 6230.541 3959.09 L 6229.341 3959.09 L 6228.141 3956.69 L 6229.341 3956.69 L 6230.541 3957.89 L 6231.741 3957.89 L 6231.741 3956.69 L 6235.341 3954.291 L 6235.341 3951.891 L 6234.141 3950.691 L 6234.141 3948.291 L 6231.741 3948.291 L 6231.741 3945.891 L 6230.541 3943.491 L 6228.141 3942.291 L 6228.141 3939.891 L 6224.541 3936.291 L 6222.141 3936.291 L 6222.141 3935.091 L 6224.541 3931.491 L 6225.741 3931.491 L 6224.541 3931.491 L 6223.341 3930.291 L 6217.341 3930.291 L 6217.341 3932.691 L 6213.741 3932.691 L 6213.741 3930.291 L 6211.341 3930.291 L 6211.341 3931.491 L 6210.141 3931.491 L 6210.141 3930.291 L 6208.941 3930.291 L 6207.742 3927.891 L 6206.542 3927.891 L 6206.542 3929.091 L 6205.342 3929.091 L 6205.342 3927.891 L 6204.142 3927.891 L 6205.342 3926.691 L 6202.942 3926.691 L 6201.742 3925.491 L 6202.942 3925.491 L 6201.742 3924.291 L 6199.342 3924.291 L 6199.342 3923.091 L 6200.542 3923.091 L 6199.342 3921.891 L 6199.342 3920.691 L 6198.142 3919.491 L 6196.942 3920.691 L 6196.942 3919.491 L 6198.142 3919.491 L 6198.142 3917.092 L 6198.142 3918.292 L 6199.342 3914.692 L 6198.142 3914.692 L 6196.942 3917.092 L 6195.742 3917.092 L 6194.542 3915.892 L 6195.742 3913.492 L 6195.742 3912.292 L 6193.342 3913.492 L 6193.342 3914.692 L 6190.942 3914.692 L 6189.742 3913.492 L 6187.342 3914.692 L 6186.142 3914.692 L 6186.142 3912.292 L 6184.942 3913.492 L 6182.542 3913.492 L 6182.542 3914.692 L 6181.342 3914.692 L 6181.342 3913.492 L 6180.142 3914.692 L 6178.942 3913.492 L 6181.342 3912.292 L 6181.342 3907.492 L 6180.142 3907.492 L 6176.542 3905.092 L 6175.342 3906.292 L 6175.342 3905.092 L 6174.142 3905.092 L 6174.142 3902.692 L 6172.942 3902.692 L 6172.942 3901.492 L 6171.743 3901.492 L 6171.743 3899.092 L 6170.543 3899.092 L 6170.543 3897.892 L 6169.343 3895.492 L 6168.143 3895.492 L 6165.743 3896.692 L 6163.343 3896.692 L 6162.143 3897.892 L 6160.943 3896.692 L 6158.543 3897.892 L 6152.543 3897.892 L 6151.343 3899.092 L 6150.143 3897.892 L 6148.943 3897.892 L 6147.743 3896.692 L 6145.343 3897.892 L 6144.143 3899.092 L 6142.943 3897.892 L 6140.543 3897.892 L 6139.343 3896.692 L 6139.343 3897.892 L 6136.943 3895.492 L 6136.943 3896.692 L 6135.744 3895.492 L 6134.544 3890.692 L 6130.944 3887.092 L 6129.744 3887.092 L 6128.544 3885.892 L 6126.144 3889.492 L 6124.944 3890.692 L 6123.744 3889.492 L 6122.544 3888.292 L 6120.144 3889.492 L 6118.944 3891.892 L 6118.944 3894.292 L 6115.344 3894.292 L 6112.944 3895.492 L 6110.544 3895.492 L 6109.344 3893.092 L 6110.544 3890.692 L 6105.744 3889.492 L 6105.744 3888.292 L 6103.344 3887.092 L 6104.544 3885.892 L 6104.544 3884.692 L 6103.344 3883.492 L 6102.144 3883.492 L 6099.745 3879.893 L 6098.545 3879.893 L 6097.345 3882.293 L 6096.145 3882.293 L 6093.745 3877.493 L 6090.145 3876.293 L 6090.145 3875.093 L 6087.745 3871.493 L 6086.545 3871.493 L 6086.545 3870.293 L 6085.345 3870.293 L 6082.945 3871.493 L 6080.545 3871.493 L 6079.345 3873.893 L 6080.545 3876.293 L 6079.345 3876.293 L 6078.145 3877.493 L 6074.545 3878.693 L 6072.145 3877.493 L 6070.945 3875.093 L 6072.145 3872.693 L 6070.945 3870.293 L 6066.145 3867.893 L 6066.145 3866.693 L 6063.746 3866.693 L 6063.746 3871.493 L 6062.546 3871.493 L 6061.346 3873.893 L 6060.146 3872.693 L 6058.946 3873.893 L 6054.146 3875.093 L 6050.546 3875.093 L 6049.346 3869.093 L 6042.146 3869.093 L 6039.746 3866.693 L 6039.746 3869.093 L 6038.546 3870.293 L 6037.346 3871.493 L 6037.346 3875.093 L 6036.146 3875.093 L 6032.546 3878.693 L 6027.747 3878.693 L 6024.147 3881.093 L 6020.547 3879.893 L 6016.947 3883.492 L 6012.147 3884.692 L 6010.947 3884.692 L 6009.747 3888.292 L 6008.547 3889.492 L 6006.147 3888.292 L 6003.747 3887.092 L 6000.147 3885.892 L 5998.947 3885.892 L 5995.347 3883.492 L 5991.748 3883.492 L 5989.348 3884.692 L 5985.748 3885.892 L 5983.348 3883.492 L 5982.148 3883.492 L 5979.748 3884.692 L 5974.948 3884.692 L 5973.748 3865.493 L 5970.148 3840.394 L 5970.148 3839.194 L 5965.348 3835.594 L 5952.149 3822.494 L 5935.349 3806.895 L 5892.25 3767.396 L 5891.05 3767.396 L 5889.85 3768.596 L 5885.05 3769.796 L 5882.651 3770.996 L 5880.251 3770.996 L 5879.051 3774.595 L 5876.651 3775.795 L 5875.451 3776.995 L 5873.051 3776.995 L 5871.851 3778.195 L 5869.451 3778.195 L 5869.451 3780.595 L 5865.851 3781.795 L 5861.051 3779.395 L 5858.651 3779.395 L 5857.451 3778.195 L 5851.451 3779.395 L 5844.252 3781.795 L 5841.852 3782.995 L 5839.452 3782.995 L 5839.452 3779.395 L 5838.252 3779.395 L 5837.052 3775.795 L 5834.652 3773.396 L 5832.252 3772.196 L 5831.052 3770.996 L 5829.852 3769.796 L 5829.852 3767.396 L 5827.452 3767.396 L 5826.252 3764.996 L 5825.052 3764.996 L 5825.052 3767.396 L 5822.652 3768.596 L 5821.452 3767.396 L 5819.052 3768.596 L 5816.652 3767.396 L 5813.052 3769.796 L 5810.653 3772.196 L 5808.253 3769.796 L 5807.053 3770.996 L 5805.853 3768.596 L 5801.053 3767.396 L 5799.853 3766.196 L 5798.653 3763.796 L 5797.453 3763.796 L 5793.853 3767.396 L 5791.453 3763.796 L 5790.253 3762.596 L 5786.653 3763.796 L 5783.053 3761.396 L 5778.253 3760.196 L 5779.453 3755.396 L 5779.453 3752.996 L 5773.454 3752.996 L 5769.854 3748.196 L 5766.254 3745.796 L 5762.654 3745.796 L 5762.654 3743.396 L 5759.054 3742.196 L 5757.854 3742.196 L 5755.454 3738.596 L 5754.254 3737.397 L 5753.054 3736.197 L 5750.654 3734.997 L 5748.254 3737.397 L 5747.054 3739.796 L 5744.654 3737.397 L 5741.054 3734.997 L 5742.254 3734.997 L 5741.054 3734.997 L 5739.854 3732.597 L 5739.854 3733.797 L 5737.455 3731.397 L 5736.255 3732.597 L 5735.055 3731.397 L 5732.655 3730.197 L 5733.855 3728.997 L 5732.655 3728.997 L 5732.655 3727.797 L 5730.255 3727.797 L 5731.455 3727.797 L 5729.055 3728.997 L 5729.055 3727.797 L 5726.655 3726.597 L 5724.255 3724.197 L 5723.055 3721.797 L 5717.055 3720.597 L 5714.655 3718.197 L 5709.855 3714.597 L 5708.655 3713.397 L 5708.655 3712.197 L 5706.255 3712.197 L 5705.055 3709.797 L 5702.656 3708.597 L 5702.656 3707.397 L 5703.855 3707.397 L 5702.656 3706.197 L 5701.456 3707.397 L 5700.256 3707.397 L 5699.056 3706.197 L 5697.856 3704.997 L 5697.856 3706.197 L 5696.656 3706.197 L 5695.456 3702.597 L 5695.456 3703.797 L 5694.256 3702.597 L 5693.056 3702.597 L 5693.056 3701.398 L 5691.856 3697.798 L 5690.656 3696.598 L 5688.256 3696.598 L 5684.656 3694.198 L 5683.456 3695.398 L 5679.856 3694.198 L 5678.656 3695.398 L 5675.056 3692.998 L 5675.056 3691.798 L 5673.856 3691.798 L 5671.456 3692.998 L 5670.256 3692.998 L 5669.056 3690.598 L 5667.856 3692.998 L 5666.657 3692.998 L 5665.457 3694.198 L 5664.257 3691.798 L 5661.857 3690.598 L 5660.657 3689.398 L 5660.657 3690.598 L 5659.457 3690.598 L 5657.057 3688.198 L 5653.457 3688.198 L 5648.657 3685.798 L 5648.657 3686.998 L 5646.257 3685.798 L 5645.057 3685.798 L 5643.857 3686.998 L 5639.057 3686.998 L 5630.658 3688.198 L 5630.658 3689.398 L 5629.458 3690.598 L 5627.058 3690.598 L 5625.858 3689.398 L 5623.458 3690.598 L 5622.258 3690.598 L 5621.058 3691.798 L 5618.658 3694.198 L 5615.058 3694.198 L 5610.258 3696.598 L 5606.658 3698.998 L 5605.458 3697.798 L 5604.258 3698.998 L 5603.058 3698.998 L 5601.858 3700.198 L 5601.858 3701.398 L 5599.458 3701.398 L 5598.258 3702.597 L 5599.458 3704.997 L 5598.258 3706.197 L 5595.858 3706.197 L 5594.659 3707.397 L 5597.058 3709.797 L 5597.058 3710.997 L 5593.459 3710.997 L 5592.259 3712.197 L 5589.859 3712.197 L 5589.859 3714.597 L 5588.659 3713.397 L 5587.459 3715.797 L 5586.259 3715.797 L 5585.059 3713.397 L 5585.059 3710.997 L 5586.259 3710.997 L 5585.059 3709.797 L 5579.059 3706.197 L 5577.859 3703.797 L 5575.459 3703.797 L 5573.059 3704.997 L 5571.859 3704.997 L 5569.459 3703.797 L 5563.459 3702.597 L 5562.259 3701.398 L 5561.059 3700.198 L 5558.66 3700.198 L 5558.66 3698.998 L 5556.26 3698.998 L 5555.06 3700.198 L 5552.66 3700.198 L 5552.66 3698.998 L 5553.86 3697.798 L 5553.86 3696.598 L 5552.66 3695.398 L 5551.46 3694.198 L 5546.66 3694.198 L 5545.46 3692.998 L 5543.06 3692.998 L 5541.86 3691.798 L 5538.26 3691.798 L 5531.06 3689.398 L 5528.66 3689.398 L 5527.46 3688.198 L 5526.26 3688.198 L 5526.26 3685.798 L 5525.06 3685.798 L 5525.06 3686.998 L 5523.86 3685.798 L 5525.06 3684.598 L 5523.86 3684.598 L 5525.06 3683.398 L 5523.86 3683.398 L 5526.26 3683.398 L 5523.86 3682.198 L 5526.26 3680.998 L 5526.26 3678.598 L 5525.06 3678.598 L 5525.06 3674.998 L 5523.86 3676.198 L 5523.86 3673.798 L 5525.06 3670.198 L 5525.06 3668.998 L 5526.26 3661.799 L 5531.06 3650.999 L 5532.26 3649.799 L 5533.46 3646.199 L 5535.86 3637.799 L 5538.26 3635.399 L 5538.26 3634.199 L 5541.86 3629.4 L 5540.66 3628.2 L 5538.26 3628.2 L 5537.06 3625.8 L 5535.86 3627 L 5535.86 3625.8 L 5534.66 3625.8 L 5535.86 3624.6 L 5534.66 3624.6 L 5532.26 3623.4 L 5531.06 3625.8 L 5531.06 3624.6 L 5529.86 3625.8 L 5528.66 3624.6 L 5529.86 3624.6 L 5529.86 3623.4 L 5527.46 3624.6 L 5526.26 3623.4 L 5526.26 3624.6 L 5525.06 3623.4 L 5522.66 3623.4 L 5522.66 3621 L 5522.66 3622.2 L 5521.461 3621 L 5520.261 3621 L 5520.261 3622.2 L 5519.061 3621 L 5519.061 3622.2 L 5517.861 3621 L 5516.661 3621 L 5516.661 3622.2 L 5515.461 3621 L 5514.261 3622.2 L 5513.061 3619.8 L 5511.861 3619.8 L 5511.861 3622.2 L 5511.861 3619.8 L 5510.661 3619.8 L 5509.461 3617.4 L 5508.261 3617.4 L 5507.061 3618.6 L 5507.061 3617.4 L 5504.661 3616.2 L 5505.861 3616.2 L 5501.061 3616.2 L 5501.061 3617.4 L 5498.661 3617.4 L 5497.461 3619.8 L 5496.261 3618.6 L 5496.261 3619.8 L 5495.061 3618.6 L 5493.861 3618.6 L 5493.861 3617.4 L 5492.661 3618.6 L 5490.261 3618.6 L 5490.261 3616.2 L 5489.061 3616.2 L 5489.061 3617.4 L 5487.861 3617.4 L 5487.861 3616.2 L 5486.661 3617.4 L 5485.462 3617.4 L 5484.262 3616.2 L 5484.262 3613.8 L 5483.062 3613.8 L 5481.862 3617.4 L 5479.462 3618.6 L 5478.262 3617.4 L 5479.462 3617.4 L 5479.462 3615 L 5474.662 3613.8 L 5474.662 3616.2 L 5473.462 3616.2 L 5471.062 3613.8 L 5467.462 3613.8 L 5467.462 3612.6 L 5466.262 3612.6 L 5466.262 3610.2 L 5465.062 3609 L 5465.062 3611.4 L 5461.462 3611.4 L 5461.462 3613.8 L 5460.262 3612.6 L 5459.062 3613.8 L 5460.262 3613.8 L 5460.262 3615 L 5459.062 3612.6 L 5451.962 3612.6 L 5450.762 3613.8 L 5447.163 3611.4 L 5443.563 3612.6 L 5443.563 3613.8 L 5441.163 3613.8 L 5442.363 3615 L 5441.163 3615 L 5439.963 3616.2 L 5438.763 3616.2 L 5437.563 3617.4 L 5436.363 3616.2 L 5436.363 3617.4 L 5435.163 3618.6 L 5435.163 3617.4 L 5432.763 3617.4 L 5431.563 3618.6 L 5427.963 3619.8 L 5425.563 3622.2 L 5423.163 3623.4 L 5421.963 3624.6 L 5420.763 3623.4 L 5420.763 3624.6 L 5419.563 3624.6 L 5418.363 3625.8 L 5417.163 3627 L 5415.963 3627 L 5414.763 3625.8 L 5413.564 3627 L 5413.564 3625.8 L 5412.364 3627 L 5407.564 3627 L 5407.564 3629.4 L 5405.164 3628.2 L 5405.164 3629.4 L 5403.964 3629.4 L 5403.964 3630.599 L 5401.564 3630.599 L 5401.564 3631.799 L 5401.564 3630.599 L 5400.364 3631.799 L 5397.964 3634.199 L 5395.564 3634.199 L 5394.364 3635.399 L 5393.164 3635.399 L 5391.964 3638.999 L 5390.764 3637.799 L 5389.564 3638.999 L 5390.764 3638.999 L 5389.564 3640.199 L 5388.364 3638.999 L 5387.164 3638.999 L 5385.964 3641.399 L 5387.164 3642.599 L 5385.964 3643.799 L 5384.764 3642.599 L 5384.764 3644.999 L 5382.364 3642.599 L 5382.364 3643.799 L 5381.164 3643.799 L 5381.164 3646.199 L 5379.964 3646.199 L 5379.964 3648.599 L 5377.565 3648.599 L 5377.565 3647.399 L 5376.365 3649.799 L 5375.165 3648.599 L 5375.165 3650.999 L 5372.765 3652.199 L 5371.565 3652.199 L 5371.565 3653.399 L 5370.365 3654.599 L 5369.165 3653.399 L 5369.165 3654.599 L 5365.565 3654.599 L 5364.365 3655.799 L 5363.165 3655.799 L 5363.165 3656.999 L 5359.565 3656.999 L 5360.765 3658.199 L 5359.565 3659.399 L 5355.965 3658.199 L 5355.965 3659.399 L 5358.365 3660.599 L 5357.165 3661.799 L 5355.965 3661.799 L 5357.165 3662.999 L 5355.965 3664.199 L 5357.165 3664.199 L 5358.365 3665.399 L 5354.765 3665.399 L 5353.565 3666.598 L 5353.565 3670.198 L 5352.365 3668.998 L 5352.365 3671.398 L 5353.565 3671.398 L 5354.765 3670.198 L 5354.765 3672.598 L 5351.165 3672.598 L 5348.765 3676.198 L 5348.765 3674.998 L 5348.765 3676.198 L 5346.365 3676.198 L 5345.165 3677.398 L 5342.765 3677.398 L 5342.765 3678.598 L 5341.566 3678.598 L 5341.566 3679.798 L 5337.966 3680.998 L 5336.766 3680.998 L 5336.766 3682.198 L 5335.566 3682.198 L 5334.366 3683.398 L 5333.166 3682.198 L 5330.766 3684.598 L 5331.966 3685.798 L 5329.566 3685.798 L 5329.566 3688.198 L 5327.166 3686.998 L 5327.166 3688.198 L 5319.966 3690.598 L 5319.966 3692.998 L 5318.766 3694.198 L 5318.766 3692.998 L 5317.566 3694.198 L 5315.166 3698.998 L 5312.766 3702.597 L 5311.566 3703.797 L 5310.366 3703.797 L 5299.567 3702.597 L 5297.167 3701.398 L 5298.367 3700.198 L 5295.967 3701.398 L 5295.967 3702.597 L 5293.567 3702.597 L 5293.567 3703.797 L 5289.967 3702.597 L 5288.767 3704.997 L 5286.367 3706.197 L 5286.367 3708.597 L 5283.967 3710.997 L 5282.767 3709.797 L 5281.567 3710.997 L 5280.367 3713.397 L 5279.167 3712.197 L 5277.967 3714.597 L 5275.567 3715.797 L 5275.567 3716.997 L 5276.767 3718.197 L 5273.167 3718.197 L 5273.167 3719.397 L 5271.967 3719.397 L 5270.767 3718.197 L 5271.967 3720.597 L 5270.767 3722.997 L 5269.568 3721.797 L 5268.368 3724.197 L 5264.768 3724.197 L 5264.768 3726.597 L 5263.568 3726.597 L 5262.368 3725.397 L 5262.368 3726.597 L 5261.168 3727.797 L 5261.168 3730.197 L 5259.968 3730.197 L 5256.368 3733.797 L 5252.768 3736.197 L 5251.568 3736.197 L 5251.568 3734.997 L 5250.368 3734.997 L 5249.168 3737.397 L 5246.768 3738.596 L 5247.968 3738.596 L 5246.768 3739.796 L 5246.768 3740.996 L 5245.568 3740.996 L 5245.568 3739.796 L 5244.368 3739.796 L 5240.768 3742.196 L 5238.368 3739.796 L 5235.968 3740.996 L 5234.768 3740.996 L 5232.369 3738.596 L 5229.969 3738.596 L 5228.769 3739.796 L 5226.369 3739.796 L 5226.369 3740.996 L 5222.769 3744.596 L 5222.769 3745.796 L 5221.569 3744.596 L 5221.569 3746.996 L 5220.369 3746.996 L 5220.369 3748.196 L 5219.169 3748.196 L 5217.969 3751.796 L 5216.769 3752.996 L 5214.369 3754.196 L 5214.369 3752.996 L 5213.169 3751.796 L 5211.969 3755.396 L 5211.969 3754.196 L 5210.769 3754.196 L 5209.569 3756.596 L 5210.769 3757.796 L 5209.569 3760.196 L 5207.169 3763.796 L 5207.169 3764.996 L 5204.769 3764.996 L 5204.769 3766.196 L 5201.169 3766.196 L 5201.169 3767.396 L 5199.969 3766.196 L 5199.969 3768.596 L 5198.769 3768.596 L 5198.769 3769.796 L 5197.569 3769.796 L 5197.569 3770.996 L 5197.569 3769.796 L 5196.37 3770.996 L 5190.37 3770.996 L 5187.97 3769.796 L 5185.57 3770.996 L 5183.17 3769.796 L 5181.97 3770.996 L 5180.77 3770.996 L 5180.77 3772.196 L 5179.57 3772.196 L 5179.57 3774.595 L 5178.37 3774.595 L 5177.17 3775.795 L 5174.77 3775.795 L 5174.77 3776.995 L 5173.57 3776.995 L 5172.37 3778.195 L 5163.97 3773.396 L 5157.971 3774.595 L 5155.571 3776.995 L 5155.571 3780.595 L 5153.171 3780.595 L 5154.371 3781.795 L 5153.171 3785.395 L 5144.771 3785.395 L 5144.771 3787.795 L 5143.571 3788.995 L 5143.571 3791.395 L 5142.371 3792.595 L 5141.171 3793.795 L 5139.971 3794.995 L 5141.171 3796.195 L 5136.371 3797.395 L 5135.171 3794.995 L 5135.171 3793.795 L 5133.971 3794.995 L 5132.771 3792.595 L 5132.771 3788.995 L 5129.171 3786.595 L 5129.171 3784.195 L 5132.771 3784.195 L 5133.971 3782.995 L 5136.371 3782.995 L 5136.371 3781.795 L 5138.771 3781.795 L 5141.171 3780.595 L 5141.171 3779.395 L 5142.371 3778.195 L 5142.371 3775.795 L 5141.171 3774.595 L 5141.171 3773.396 L 5142.371 3770.996 L 5144.771 3769.796 L 5144.771 3767.396 L 5147.171 3766.196 L 5147.171 3763.796 L 5148.371 3762.596 L 5154.371 3756.596 L 5154.371 3749.396 L 5155.571 3748.196 L 5155.571 3739.796 L 5151.971 3738.596 L 5150.771 3736.197 L 5148.371 3736.197 L 5149.571 3731.397 L 5145.971 3727.797 L 5143.571 3727.797 L 5143.571 3726.597 L 5144.771 3722.997 L 5142.371 3719.397 L 5141.171 3719.397 L 5141.171 3718.197 L 5143.571 3716.997 L 5145.971 3715.797 L 5145.971 3714.597 L 5147.171 3713.397 L 5148.371 3712.197 L 5148.371 3700.198 L 5149.571 3700.198 L 5149.571 3695.398 L 5148.371 3695.398 L 5145.971 3692.998 L 5144.771 3691.798 L 5145.971 3690.598 L 5145.971 3688.198 L 5148.371 3688.198 L 5148.371 3686.998 L 5148.371 3688.198 L 5149.571 3688.198 L 5151.971 3686.998 L 5151.971 3684.598 L 5150.771 3683.398 L 5153.171 3680.998 L 5153.171 3679.798 L 5149.571 3676.198 L 5151.971 3674.998 L 5153.171 3671.398 L 5151.971 3670.198 L 5150.771 3670.198 L 5151.971 3670.198 L 5151.971 3668.998 L 5150.771 3667.798 L 5151.971 3667.798 L 5150.771 3665.399 L 5153.171 3666.598 L 5154.371 3665.399 L 5153.171 3664.199 L 5150.771 3661.799 L 5149.571 3660.599 L 5150.771 3659.399 L 5149.571 3659.399 L 5150.771 3658.199 L 5150.771 3655.799 L 5148.371 3653.399 L 5147.171 3652.199 L 5148.371 3649.799 L 5149.571 3648.599 L 5149.571 3646.199 L 5148.371 3644.999 L 5148.371 3643.799 L 5147.171 3643.799 L 5147.171 3642.599 L 5148.371 3641.399 L 5150.771 3644.999 L 5154.371 3646.199 L 5155.571 3644.999 L 5156.771 3644.999 L 5159.171 3642.599 L 5161.57 3642.599 L 5162.77 3641.399 L 5162.77 3637.799 L 5163.97 3636.599 L 5165.17 3635.399 L 5165.17 3634.199 L 5166.37 3631.799 L 5165.17 3630.599 L 5162.77 3630.599 L 5160.371 3629.4 L 5159.171 3627 L 5157.971 3625.8 L 5156.771 3618.7 L 5154.371 3617.5 L 5150.771 3617.5 L 5151.971 3615.1 L 5150.771 3613.9 L 5148.371 3613.9 L 5147.171 3615.1 L 5145.971 3615.1 L 5145.971 3613.9 L 5144.771 3611.5 L 5142.371 3611.5 L 5138.771 3609.1 L 5141.171 3604.3 L 5138.771 3601.9 L 5136.371 3603.1 L 5133.971 3604.3 L 5132.771 3604.3 L 5132.771 3601.9 L 5129.171 3601.9 L 5130.371 3598.3 L 5129.171 3595.9 L 5126.771 3594.7 L 5123.172 3595.9 L 5117.172 3594.7 L 5114.772 3593.501 L 5114.772 3588.701 L 5112.372 3588.701 L 5108.772 3586.301 L 5105.172 3586.301 L 5102.772 3585.101 L 5105.172 3582.701 L 5106.372 3583.901 L 5107.572 3583.901 L 5109.972 3580.301 L 5108.772 3577.901 L 5106.372 3577.901 L 5109.972 3575.501 L 5112.372 3570.701 L 5113.572 3569.501 L 5111.172 3567.101 L 5112.372 3563.501 L 5111.172 3562.301 L 5108.772 3561.101 L 5102.772 3557.502 L 5103.972 3553.902 L 5103.972 3549.102 L 5108.772 3540.702 L 5108.772 3538.302 L 5106.372 3535.902 L 5102.772 3535.902 L 5102.772 3534.702 L 5103.972 3532.302 L 5100.372 3529.902 L 5101.572 3528.702 L 5109.972 3526.302 L 5111.172 3525.102 L 5108.772 3520.303 L 5105.172 3521.503 L 5102.772 3520.303 L 5102.772 3519.103 L 5107.572 3515.503 L 5108.772 3515.503 L 5108.772 3514.303 L 5107.572 3513.103 L 5105.172 3511.903 L 5103.972 3510.703 L 5105.172 3509.503 L 5107.572 3504.703 L 5109.972 3502.303 L 5111.172 3502.303 L 5112.372 3499.903 L 5117.172 3497.503 L 5121.972 3492.703 L 5120.772 3491.503 L 5117.172 3487.903 L 5112.372 3489.103 L 5111.172 3487.903 L 5109.972 3489.103 L 5108.772 3487.903 L 5107.572 3485.504 L 5108.772 3483.104 L 5107.572 3480.704 L 5109.972 3478.304 L 5111.172 3475.904 L 5111.172 3473.504 L 5109.972 3473.504 L 5109.972 3472.304 L 5113.572 3471.104 L 5113.572 3469.904 L 5111.172 3466.304 L 5109.972 3463.904 L 5107.572 3465.104 L 5107.572 3462.704 L 5111.172 3460.304 L 5112.372 3457.904 L 5115.972 3456.704 L 5119.572 3455.504 L 5123.172 3454.304 L 5126.771 3453.104 L 5127.971 3451.904 L 5130.371 3450.704 L 5132.771 3445.905 L 5135.171 3444.705 L 5141.171 3441.105 L 5142.371 3436.305 L 5142.371 3435.105 L 5141.171 3433.905 L 5138.771 3432.705 L 5132.771 3435.105 L 5130.371 3436.305 L 5127.971 3436.305 L 5126.771 3437.505 L 5119.572 3442.305 L 5113.572 3443.505 L 5111.172 3442.305 L 5107.572 3445.905 L 5102.772 3448.305 L 5100.372 3448.305 L 5099.172 3444.705 L 5099.172 3442.305 L 5097.972 3442.305 L 5094.372 3439.905 L 5096.772 3436.305 L 5096.772 3431.505 L 5091.972 3431.505 L 5091.972 3430.305 L 5093.172 3429.105 L 5094.372 3425.505 L 5094.372 3423.105 L 5096.772 3421.905 L 5096.772 3418.305 L 5095.572 3418.305 L 5094.372 3417.105 L 5096.772 3415.905 L 5095.572 3413.505 L 5097.972 3412.306 L 5097.972 3408.706 L 5096.772 3407.506 L 5095.572 3407.506 L 5094.372 3405.106 L 5093.172 3402.706 L 5096.772 3399.106 L 5097.972 3396.706 L 5099.172 3394.306 L 5100.372 3393.106 L 5100.372 3390.706 L 5101.572 3389.506 L 5101.572 3387.106 L 5105.172 3385.906 L 5106.372 3384.706 L 5108.772 3384.706 L 5111.172 3385.906 L 5112.372 3385.906 L 5113.572 3384.706 L 5114.772 3384.706 L 5115.972 3383.506 L 5119.572 3382.306 L 5120.772 3381.106 L 5123.172 3381.106 L 5125.571 3378.706 L 5127.971 3377.506 L 5130.371 3372.707 L 5130.371 3370.307 L 5127.971 3369.107 L 5125.571 3367.907 L 5117.172 3371.507 L 5114.772 3371.507 L 5111.172 3373.907 L 5102.772 3372.707 L 5101.572 3372.707 L 5100.372 3375.107 L 5096.772 3376.307 L 5097.972 3370.307 L 5097.972 3367.907 L 5099.172 3365.507 L 5100.372 3363.107 L 5097.972 3359.507 L 5101.572 3357.107 L 5103.972 3354.707 L 5102.772 3352.307 L 5101.572 3351.107 L 5100.372 3349.907 L 5100.372 3345.107 L 5101.572 3343.907 L 5101.572 3341.507 L 5100.372 3339.108 L 5102.772 3337.908 L 5102.772 3333.108 L 5101.572 3331.908 L 5099.172 3330.708 L 5099.172 3329.508 L 5097.972 3329.508 L 5100.372 3325.908 L 5102.772 3324.708 L 5105.172 3322.308 L 5103.972 3319.908 L 5101.572 3319.908 L 5101.572 3318.708 L 5099.172 3317.508 L 5101.572 3311.508 L 5100.372 3309.108 L 5101.572 3307.908 L 5102.772 3306.708 L 5103.972 3303.109 L 5105.172 3301.909 L 5106.372 3301.909 L 5109.972 3300.709 L 5114.772 3299.509 L 5121.972 3299.509 L 5123.172 3295.909 L 5121.972 3293.509 L 5123.172 3291.109 L 5121.972 3288.709 L 5118.372 3289.909 L 5109.972 3293.509 L 5105.172 3292.309 L 5105.172 3286.309 L 5106.372 3283.909 L 5106.372 3282.709 L 5105.172 3280.309 L 5102.772 3277.909 L 5099.172 3277.909 L 5097.972 3279.109 L 5096.772 3277.909 L 5096.772 3276.709 L 5097.972 3275.509 L 5097.972 3273.109 L 5099.172 3271.909 L 5097.972 3269.509 L 5094.372 3267.11 L 5093.172 3267.11 L 5090.772 3265.91 L 5089.572 3263.51 L 5088.373 3264.71 L 5087.173 3263.51 L 5088.373 3262.31 L 5088.373 3259.91 L 5093.172 3258.71 L 5093.172 3257.51 L 5091.972 3257.51 L 5088.373 3256.31 L 5087.173 3256.31 L 5083.573 3255.11 L 5084.773 3252.71 L 5085.973 3251.51 L 5083.573 3247.91 L 5082.373 3247.91 L 5084.773 3246.71 L 5085.973 3243.11 L 5084.773 3241.91 L 5084.773 3239.51 L 5081.173 3238.31 L 5082.373 3237.11 L 5082.373 3234.71 L 5081.173 3233.51 L 5083.573 3232.311 L 5083.573 3231.111 L 5084.773 3227.511 L 5084.773 3225.111 L 5085.973 3222.711 L 5084.773 3220.311 L 5082.373 3219.111 L 5082.373 3217.911 L 5081.173 3215.511 L 5083.573 3214.311 L 5082.373 3213.111 L 5082.373 3211.911 L 5079.973 3209.511 L 5079.973 3207.111 L 5082.373 3205.911 L 5083.573 3205.911 L 5083.573 3203.511 L 5087.173 3199.911 L 5089.572 3198.711 L 5090.772 3197.511 L 5091.972 3195.112 L 5096.772 3193.912 L 5099.172 3193.912 L 5106.272 3192.712 L 5112.272 3190.312 L 5115.872 3190.312 L 5119.472 3186.712 L 5119.472 3184.312 L 5118.272 3181.912 L 5114.672 3181.912 L 5112.272 3184.312 L 5107.472 3185.512 L 5105.072 3184.312 L 5102.672 3183.112 L 5099.072 3181.912 L 5094.272 3184.312 L 5091.872 3184.312 L 5089.472 3181.912 L 5088.273 3180.712 L 5085.873 3181.912 L 5083.473 3178.312 L 5084.673 3175.912 L 5083.473 3173.512 L 5084.673 3172.312 L 5087.073 3173.512 L 5088.273 3172.312 L 5088.273 3169.912 L 5090.672 3168.712 L 5091.872 3166.312 L 5090.672 3165.112 L 5090.672 3163.912 L 5093.072 3162.712 L 5093.072 3161.512 L 5090.672 3160.313 L 5088.273 3157.913 L 5084.673 3159.113 L 5083.473 3157.913 L 5085.873 3156.713 L 5091.872 3154.313 L 5095.472 3148.313 L 5097.872 3147.113 L 5097.872 3144.713 L 5096.672 3141.113 L 5095.472 3139.913 L 5094.272 3137.513 L 5094.272 3135.113 L 5096.672 3133.913 L 5099.072 3135.113 L 5101.472 3133.913 L 5105.072 3133.913 L 5111.072 3137.513 L 5117.072 3139.913 L 5119.472 3138.713 L 5123.072 3139.913 L 5126.671 3138.713 L 5135.071 3137.513 L 5135.071 3133.913 L 5133.871 3132.713 L 5132.671 3132.713 L 5129.071 3131.513 L 5127.871 3130.313 L 5125.471 3131.513 L 5121.872 3131.513 L 5120.672 3129.113 L 5118.272 3130.313 L 5117.072 3131.513 L 5114.672 3130.313 L 5112.272 3129.113 L 5111.072 3126.713 L 5111.072 3125.513 L 5108.672 3123.114 L 5106.272 3123.114 L 5103.872 3121.914 L 5102.672 3121.914 L 5099.072 3120.714 L 5094.272 3118.314 L 5088.273 3119.514 L 5085.873 3118.314 L 5081.073 3118.314 L 5078.673 3119.514 L 5077.473 3119.514 L 5076.273 3118.314 L 5075.073 3115.914 L 5071.473 3114.714 L 5065.473 3114.714 L 5064.273 3112.314 L 5060.673 3111.114 L 5059.473 3109.914 L 5058.273 3108.714 L 5057.073 3105.114 L 5057.073 3097.914 L 5053.473 3095.514 L 5053.473 3089.514 L 5051.074 3088.314 L 5049.874 3088.314 L 5046.274 3087.115 L 5043.874 3083.515 L 5042.674 3078.715 L 5042.674 3075.715 L 5042.474 3075.715 Z " fill="#F3AA47" vector-effect="non-scaling-stroke" stroke-width="1" stroke-linejoin="miter" stroke-linecap="butt" stroke-miterlimit="4"/></svg>