<?xml version="1.0" standalone="no"?><!-- Generator: Gravit.io --><svg xmlns="http://www.w3.org/2000/svg" xmlns:xlink="http://www.w3.org/1999/xlink" style="isolation:isolate" viewBox="5955.048 1524.258 740.68 927.874" width="740.68" height="927.874"><path d=" M 5958.148 1629.455 L 5958.148 1627.055 L 5960.548 1624.655 L 5960.548 1623.455 L 5962.948 1617.455 L 5973.748 1598.256 L 5973.748 1594.656 L 5974.948 1592.256 L 5978.548 1588.656 L 5980.948 1586.256 L 5980.948 1583.856 L 5983.348 1583.856 L 5983.348 1582.656 L 5985.748 1581.456 L 5985.748 1577.856 L 5984.548 1577.856 L 5985.748 1575.456 L 5985.748 1574.256 L 5986.948 1571.856 L 5985.748 1570.657 L 5986.948 1570.657 L 5985.748 1568.257 L 5985.748 1565.857 L 5983.348 1562.257 L 5983.348 1559.857 L 5978.548 1559.857 L 5974.948 1557.457 L 5974.948 1556.257 L 5973.748 1556.257 L 5973.748 1551.457 L 5982.148 1546.657 L 5983.348 1545.457 L 5985.748 1544.257 L 5990.548 1545.457 L 5997.747 1545.457 L 6000.147 1544.257 L 6009.747 1545.457 L 6013.347 1546.657 L 6014.547 1545.457 L 6015.747 1546.657 L 6020.547 1546.657 L 6030.146 1545.457 L 6032.546 1544.257 L 6037.346 1543.057 L 6039.746 1541.857 L 6046.946 1541.857 L 6048.146 1539.457 L 6049.346 1540.657 L 6052.946 1540.657 L 6052.946 1539.457 L 6054.146 1540.657 L 6055.346 1539.457 L 6056.546 1540.657 L 6057.746 1540.657 L 6058.946 1544.257 L 6061.346 1543.057 L 6063.746 1543.057 L 6067.345 1541.857 L 6070.945 1538.257 L 6086.545 1538.257 L 6088.945 1537.057 L 6093.745 1538.257 L 6103.344 1537.057 L 6106.944 1535.857 L 6108.144 1534.658 L 6114.144 1532.258 L 6116.544 1529.858 L 6116.544 1527.458 L 6120.144 1526.258 L 6127.344 1529.858 L 6130.944 1531.058 L 6141.743 1531.058 L 6150.143 1529.858 L 6157.343 1531.058 L 6162.143 1531.058 L 6162.143 1529.858 L 6169.343 1531.058 L 6175.342 1532.258 L 6174.142 1531.058 L 6180.142 1534.658 L 6181.342 1535.857 L 6184.942 1534.658 L 6184.942 1533.458 L 6190.942 1533.458 L 6194.542 1534.658 L 6194.542 1535.857 L 6200.542 1535.857 L 6204.142 1537.057 L 6205.342 1535.857 L 6202.942 1535.857 L 6204.142 1534.658 L 6210.141 1538.257 L 6212.541 1538.257 L 6210.141 1537.057 L 6207.742 1537.057 L 6210.141 1537.057 L 6216.141 1539.457 L 6213.741 1538.257 L 6218.541 1539.457 L 6219.741 1541.857 L 6223.341 1543.057 L 6224.541 1543.057 L 6225.741 1544.257 L 6228.141 1544.257 L 6232.941 1547.857 L 6237.741 1551.457 L 6240.141 1552.657 L 6244.941 1556.257 L 6248.54 1557.457 L 6253.34 1562.257 L 6254.54 1562.257 L 6258.14 1564.657 L 6262.94 1564.657 L 6265.34 1565.857 L 6267.74 1568.257 L 6268.94 1569.457 L 6270.14 1569.457 L 6272.54 1568.257 L 6274.94 1569.457 L 6277.34 1573.056 L 6279.74 1576.656 L 6280.94 1577.856 L 6283.339 1577.856 L 6286.939 1580.256 L 6292.939 1583.856 L 6298.939 1586.256 L 6302.539 1591.056 L 6307.339 1592.256 L 6310.939 1593.456 L 6314.539 1597.056 L 6316.939 1598.256 L 6320.538 1597.056 L 6324.138 1598.256 L 6327.738 1601.856 L 6328.938 1603.056 L 6330.138 1603.056 L 6332.538 1604.256 L 6334.938 1605.456 L 6339.738 1605.456 L 6342.138 1607.855 L 6344.538 1610.255 L 6351.738 1618.655 L 6355.337 1624.655 L 6356.537 1624.655 L 6356.537 1625.855 L 6360.137 1628.255 L 6364.937 1628.255 L 6366.137 1631.855 L 6369.737 1636.655 L 6373.337 1639.055 L 6373.337 1637.855 L 6375.737 1640.255 L 6378.137 1640.255 L 6380.537 1639.055 L 6381.737 1639.055 L 6382.937 1637.855 L 6385.337 1637.855 L 6391.336 1641.455 L 6393.736 1646.254 L 6396.136 1647.454 L 6396.136 1649.854 L 6397.336 1649.854 L 6398.536 1654.654 L 6400.936 1657.054 L 6404.536 1657.054 L 6408.136 1660.654 L 6410.536 1663.054 L 6414.136 1664.254 L 6417.736 1664.254 L 6418.936 1665.454 L 6424.936 1672.654 L 6426.135 1675.054 L 6429.735 1678.654 L 6432.135 1678.654 L 6436.935 1681.053 L 6444.135 1688.253 L 6445.335 1689.453 L 6448.935 1690.653 L 6453.735 1690.653 L 6456.135 1691.853 L 6458.535 1691.853 L 6460.935 1693.053 L 6463.334 1694.253 L 6464.534 1695.453 L 6465.734 1695.453 L 6468.134 1696.653 L 6471.734 1696.653 L 6472.934 1697.853 L 6475.334 1696.653 L 6477.734 1696.653 L 6477.734 1694.253 L 6476.534 1693.053 L 6478.934 1695.453 L 6484.934 1706.253 L 6484.934 1707.453 L 6490.934 1715.852 L 6496.934 1725.452 L 6500.533 1730.252 L 6505.333 1733.852 L 6507.733 1736.252 L 6508.933 1737.452 L 6506.533 1736.252 L 6507.733 1737.452 L 6508.933 1737.452 L 6508.933 1736.252 L 6512.533 1736.252 L 6513.733 1737.452 L 6516.133 1741.052 L 6520.933 1747.052 L 6522.133 1748.252 L 6525.733 1753.051 L 6526.933 1754.251 L 6529.333 1757.851 L 6534.132 1764.951 L 6535.332 1766.151 L 6540.132 1774.551 L 6544.932 1776.951 L 6553.332 1786.551 L 6554.532 1787.751 L 6559.332 1792.55 L 6562.932 1794.95 L 6564.132 1796.15 L 6568.932 1800.95 L 6576.131 1808.15 L 6580.931 1811.75 L 6588.131 1816.55 L 6590.531 1816.55 L 6595.331 1820.15 L 6598.931 1820.15 L 6601.331 1821.35 L 6602.531 1820.15 L 6603.731 1824.949 L 6602.531 1824.949 L 6604.931 1828.549 L 6607.33 1833.349 L 6609.73 1838.149 L 6613.33 1841.749 L 6615.73 1842.949 L 6616.93 1844.149 L 6620.53 1848.949 L 6622.93 1851.349 L 6625.33 1853.749 L 6633.73 1860.948 L 6638.53 1863.348 L 6643.329 1864.548 L 6645.729 1863.348 L 6650.529 1860.948 L 6651.729 1862.148 L 6654.129 1864.548 L 6654.129 1865.748 L 6656.529 1865.748 L 6666.129 1870.548 L 6672.129 1871.748 L 6674.529 1872.948 L 6675.729 1874.148 L 6675.729 1872.948 L 6675.729 1874.148 L 6678.129 1874.148 L 6680.528 1875.348 L 6685.328 1878.948 L 6687.728 1882.548 L 6688.928 1884.948 L 6691.328 1893.348 L 6693.728 1899.347 L 6692.528 1900.547 L 6675.729 1904.147 L 6658.929 1907.747 L 6655.329 1908.947 L 6625.43 1916.147 L 6623.03 1923.347 L 6621.83 1929.347 L 6618.23 1938.946 L 6612.23 1941.346 L 6611.03 1942.546 L 6609.83 1943.746 L 6608.63 1948.546 L 6602.631 1954.546 L 6601.431 1964.146 L 6599.031 1967.746 L 6599.031 1970.145 L 6600.231 1971.345 L 6600.231 1973.745 L 6599.031 1977.345 L 6599.031 1979.745 L 6600.231 1982.145 L 6600.231 1983.345 L 6599.031 1983.345 L 6597.831 1984.545 L 6595.431 1986.945 L 6590.631 1990.545 L 6588.231 1991.745 L 6587.031 1995.345 L 6587.031 1996.545 L 6585.831 1997.745 L 6587.031 2001.345 L 6585.831 2003.745 L 6582.231 2008.544 L 6582.231 2010.944 L 6581.031 2016.944 L 6579.831 2018.144 L 6578.631 2020.544 L 6576.231 2021.744 L 6573.831 2021.744 L 6571.431 2026.544 L 6569.032 2027.744 L 6563.032 2031.344 L 6563.032 2032.544 L 6561.832 2033.744 L 6561.832 2036.144 L 6559.432 2038.544 L 6555.832 2045.743 L 6552.232 2046.943 L 6548.632 2050.543 L 6547.432 2051.743 L 6547.432 2056.543 L 6546.232 2060.143 L 6546.232 2062.543 L 6548.632 2061.343 L 6551.032 2061.343 L 6551.032 2062.543 L 6553.432 2062.543 L 6551.032 2067.343 L 6548.632 2072.143 L 6542.632 2078.142 L 6542.632 2079.342 L 6540.232 2081.742 L 6541.432 2084.142 L 6539.032 2091.342 L 6536.632 2093.742 L 6535.432 2096.142 L 6533.033 2098.542 L 6533.033 2102.142 L 6530.633 2103.342 L 6529.433 2103.342 L 6528.233 2104.542 L 6525.833 2105.742 L 6518.633 2111.742 L 6517.433 2114.141 L 6517.433 2120.141 L 6516.233 2121.341 L 6515.033 2121.341 L 6512.633 2123.741 L 6512.633 2124.941 L 6510.233 2124.941 L 6507.833 2127.341 L 6505.433 2126.141 L 6501.833 2126.141 L 6500.633 2123.741 L 6500.633 2126.141 L 6497.034 2128.541 L 6495.834 2127.341 L 6494.634 2124.941 L 6494.634 2123.741 L 6493.434 2123.741 L 6493.434 2121.341 L 6492.234 2122.541 L 6491.034 2121.341 L 6489.834 2122.541 L 6488.634 2122.541 L 6485.034 2126.141 L 6482.634 2127.341 L 6483.834 2129.741 L 6481.434 2132.141 L 6480.234 2132.141 L 6479.034 2135.741 L 6477.834 2138.141 L 6477.834 2139.341 L 6473.034 2144.141 L 6473.034 2146.541 L 6468.234 2147.741 L 6468.234 2151.34 L 6469.434 2152.54 L 6469.434 2153.74 L 6468.234 2154.94 L 6467.034 2157.34 L 6464.634 2156.14 L 6463.434 2159.74 L 6462.234 2160.94 L 6459.835 2162.14 L 6459.835 2163.34 L 6461.035 2163.34 L 6461.035 2166.94 L 6458.635 2169.34 L 6458.635 2171.74 L 6459.835 2175.34 L 6462.234 2176.54 L 6461.035 2177.74 L 6459.835 2177.74 L 6459.835 2180.14 L 6457.435 2180.14 L 6457.435 2181.34 L 6456.235 2182.54 L 6455.035 2182.54 L 6456.235 2183.74 L 6458.635 2183.74 L 6458.635 2184.94 L 6465.834 2184.94 L 6468.234 2183.74 L 6470.634 2186.139 L 6469.434 2186.139 L 6463.434 2190.939 L 6463.434 2193.339 L 6461.035 2194.539 L 6461.035 2198.139 L 6456.235 2202.939 L 6453.835 2205.339 L 6452.635 2207.739 L 6453.835 2208.939 L 6451.435 2212.539 L 6451.435 2213.739 L 6450.235 2214.939 L 6450.235 2216.139 L 6447.835 2217.339 L 6450.235 2219.739 L 6450.235 2222.138 L 6447.835 2224.538 L 6446.635 2225.738 L 6445.435 2226.938 L 6445.435 2229.338 L 6447.835 2230.538 L 6447.835 2232.938 L 6446.635 2234.138 L 6444.235 2235.338 L 6445.435 2235.338 L 6444.235 2235.338 L 6443.035 2238.938 L 6443.035 2240.138 L 6444.235 2243.738 L 6445.435 2244.938 L 6445.435 2247.338 L 6446.635 2248.538 L 6446.635 2250.938 L 6449.035 2250.938 L 6450.235 2253.338 L 6452.635 2254.538 L 6452.635 2256.938 L 6450.235 2255.738 L 6447.835 2255.738 L 6449.035 2256.938 L 6449.035 2258.137 L 6446.635 2259.337 L 6445.435 2260.537 L 6444.235 2261.737 L 6441.835 2264.137 L 6443.035 2265.337 L 6443.035 2266.537 L 6441.835 2267.737 L 6441.835 2268.937 L 6440.635 2270.137 L 6438.235 2271.337 L 6435.835 2271.337 L 6435.835 2273.737 L 6432.235 2273.737 L 6432.235 2274.937 L 6427.435 2276.137 L 6426.235 2277.337 L 6427.435 2278.537 L 6427.435 2280.937 L 6428.635 2283.337 L 6426.235 2284.537 L 6427.435 2286.937 L 6429.835 2286.937 L 6429.835 2288.137 L 6431.035 2289.337 L 6429.835 2289.337 L 6428.635 2291.737 L 6427.435 2291.737 L 6426.235 2292.937 L 6427.435 2294.136 L 6428.635 2294.136 L 6432.235 2296.536 L 6434.635 2297.736 L 6435.835 2297.736 L 6439.435 2298.936 L 6439.435 2301.336 L 6443.035 2302.536 L 6443.035 2303.736 L 6441.835 2306.136 L 6443.035 2307.336 L 6444.235 2308.536 L 6445.435 2309.736 L 6445.435 2310.936 L 6444.235 2314.536 L 6443.035 2316.936 L 6441.835 2318.136 L 6441.835 2322.936 L 6440.635 2324.136 L 6441.835 2325.336 L 6440.635 2326.536 L 6440.635 2328.936 L 6444.235 2327.736 L 6447.835 2327.736 L 6449.035 2328.936 L 6451.435 2328.936 L 6452.635 2330.135 L 6451.435 2332.535 L 6452.635 2333.735 L 6452.635 2336.135 L 6455.035 2337.335 L 6456.235 2338.535 L 6458.635 2339.735 L 6463.434 2337.335 L 6464.634 2338.535 L 6463.434 2339.735 L 6464.634 2342.135 L 6465.834 2342.135 L 6465.834 2344.535 L 6467.034 2348.135 L 6465.834 2350.535 L 6464.634 2351.735 L 6464.634 2356.535 L 6462.234 2358.935 L 6459.835 2362.535 L 6458.635 2366.134 L 6457.435 2367.334 L 6456.235 2369.734 L 6458.635 2369.734 L 6458.635 2373.334 L 6456.235 2373.334 L 6456.235 2374.534 L 6455.035 2375.734 L 6455.035 2376.934 L 6447.835 2378.134 L 6447.835 2379.334 L 6449.035 2380.534 L 6450.235 2382.934 L 6447.835 2385.334 L 6446.635 2387.734 L 6447.835 2388.934 L 6445.435 2388.934 L 6446.635 2390.134 L 6446.635 2392.534 L 6445.435 2393.734 L 6446.635 2394.934 L 6445.435 2396.134 L 6445.435 2397.334 L 6441.835 2398.534 L 6440.635 2399.734 L 6437.035 2399.734 L 6435.835 2400.934 L 6435.835 2404.533 L 6434.635 2405.733 L 6434.635 2408.133 L 6433.435 2408.133 L 6431.035 2409.333 L 6432.235 2410.533 L 6431.035 2411.733 L 6429.835 2414.133 L 6427.435 2414.133 L 6425.036 2415.333 L 6423.836 2414.133 L 6423.836 2415.333 L 6422.636 2416.533 L 6417.836 2416.533 L 6417.836 2415.333 L 6416.636 2415.333 L 6415.436 2417.733 L 6417.836 2418.933 L 6417.836 2421.333 L 6416.636 2424.933 L 6410.636 2424.933 L 6408.236 2423.733 L 6405.836 2426.133 L 6405.836 2429.733 L 6403.436 2430.933 L 6402.236 2429.733 L 6399.836 2429.733 L 6399.836 2432.133 L 6398.636 2432.133 L 6397.436 2430.933 L 6396.236 2432.133 L 6395.036 2432.133 L 6395.036 2434.533 L 6393.836 2436.933 L 6395.036 2439.332 L 6393.836 2441.732 L 6392.636 2444.132 L 6391.436 2445.332 L 6391.436 2447.732 L 6389.037 2447.732 L 6387.837 2448.932 L 6384.237 2447.732 L 6384.237 2446.532 L 6383.037 2442.932 L 6381.837 2442.932 L 6380.637 2444.132 L 6375.837 2442.932 L 6373.437 2446.532 L 6368.637 2450.132 L 6367.437 2448.932 L 6369.837 2446.532 L 6368.637 2444.132 L 6368.637 2441.732 L 6367.437 2436.933 L 6366.237 2434.533 L 6366.237 2432.133 L 6362.637 2429.733 L 6361.437 2426.133 L 6359.037 2424.933 L 6354.237 2424.933 L 6351.838 2421.333 L 6348.238 2420.133 L 6345.838 2421.333 L 6343.438 2421.333 L 6342.238 2422.533 L 6339.838 2422.533 L 6341.038 2421.333 L 6341.038 2417.733 L 6337.438 2416.533 L 6337.438 2415.333 L 6336.238 2414.133 L 6335.038 2415.333 L 6330.238 2415.333 L 6330.238 2412.933 L 6331.438 2411.733 L 6331.438 2408.133 L 6332.638 2406.933 L 6335.038 2404.533 L 6336.238 2404.533 L 6335.038 2403.333 L 6333.838 2403.333 L 6332.638 2402.133 L 6330.238 2398.534 L 6329.038 2393.734 L 6329.038 2392.534 L 6326.638 2391.334 L 6321.838 2386.534 L 6319.438 2384.134 L 6314.639 2380.534 L 6313.439 2380.534 L 6311.039 2379.334 L 6306.239 2376.934 L 6305.039 2376.934 L 6300.239 2375.734 L 6297.839 2373.334 L 6296.639 2370.934 L 6294.239 2368.534 L 6293.039 2368.534 L 6288.239 2364.935 L 6284.639 2362.535 L 6282.239 2360.135 L 6279.84 2356.535 L 6278.64 2356.535 L 6277.44 2355.335 L 6273.84 2355.335 L 6270.24 2352.935 L 6267.84 2350.535 L 6266.64 2350.535 L 6263.04 2351.735 L 6259.44 2351.735 L 6251.04 2352.935 L 6245.04 2354.135 L 6237.841 2354.135 L 6234.241 2352.935 L 6233.041 2354.135 L 6227.041 2356.535 L 6224.641 2355.335 L 6223.441 2355.335 L 6215.041 2364.935 L 6211.441 2366.134 L 6206.642 2364.935 L 6204.242 2367.334 L 6194.642 2367.334 L 6181.442 2369.734 L 6164.643 2373.334 L 6159.843 2366.134 L 6158.643 2364.935 L 6156.243 2364.935 L 6151.443 2362.535 L 6141.843 2364.935 L 6119.044 2364.935 L 6110.644 2366.134 L 6113.044 2356.535 L 6111.844 2354.135 L 6116.644 2351.735 L 6117.844 2349.335 L 6116.644 2344.535 L 6117.844 2334.935 L 6119.044 2328.936 L 6120.244 2327.736 L 6120.244 2325.336 L 6122.644 2318.136 L 6121.444 2315.736 L 6125.044 2310.936 L 6125.044 2309.736 L 6127.444 2308.536 L 6129.844 2303.736 L 6129.844 2302.536 L 6132.244 2300.136 L 6132.244 2298.936 L 6131.044 2298.936 L 6131.044 2296.536 L 6132.244 2297.736 L 6132.244 2296.536 L 6135.844 2295.336 L 6135.844 2294.136 L 6132.244 2292.937 L 6132.244 2284.537 L 6133.444 2282.137 L 6131.044 2276.137 L 6132.244 2273.737 L 6132.244 2268.937 L 6134.644 2267.737 L 6135.844 2267.737 L 6137.043 2265.337 L 6139.443 2262.937 L 6140.643 2261.737 L 6143.043 2259.337 L 6143.043 2258.137 L 6139.443 2256.938 L 6137.043 2258.137 L 6134.644 2260.537 L 6132.244 2260.537 L 6131.044 2259.337 L 6129.844 2255.738 L 6128.644 2254.538 L 6127.444 2250.938 L 6127.444 2249.738 L 6125.044 2247.338 L 6123.844 2246.138 L 6121.444 2244.938 L 6116.644 2244.938 L 6108.244 2243.738 L 6101.044 2242.538 L 6099.845 2241.338 L 6096.245 2238.938 L 6092.645 2235.338 L 6083.045 2235.338 L 6079.445 2231.738 L 6078.245 2230.538 L 6080.645 2225.738 L 6080.645 2224.538 L 6078.245 2222.138 L 6078.245 2220.939 L 6075.845 2214.939 L 6068.645 2207.739 L 6068.645 2202.939 L 6067.445 2198.139 L 6067.445 2189.739 L 6066.245 2183.74 L 6066.245 2181.34 L 6068.645 2180.14 L 6069.845 2174.14 L 6069.845 2168.14 L 6068.645 2166.94 L 6066.245 2165.74 L 6065.045 2164.54 L 6062.646 2158.54 L 6057.846 2152.54 L 6057.846 2139.341 L 6059.046 2135.741 L 6056.646 2130.941 L 6054.246 2122.541 L 6051.846 2120.141 L 6048.246 2121.341 L 6048.246 2115.341 L 6050.646 2112.942 L 6050.646 2111.742 L 6051.846 2110.542 L 6053.046 2106.942 L 6053.046 2097.342 L 6049.446 2093.742 L 6050.646 2090.142 L 6048.246 2084.142 L 6047.046 2080.542 L 6048.246 2074.543 L 6047.046 2069.743 L 6045.846 2064.943 L 6047.046 2062.543 L 6044.646 2058.943 L 6043.446 2054.143 L 6042.246 2051.743 L 6043.446 2050.543 L 6047.046 2049.343 L 6048.246 2046.943 L 6049.446 2042.143 L 6048.246 2039.744 L 6047.046 2037.344 L 6047.046 2032.544 L 6043.446 2030.144 L 6043.446 2027.744 L 6042.246 2025.344 L 6043.446 2024.144 L 6043.446 2018.144 L 6045.846 2015.744 L 6045.846 2014.544 L 6044.646 2012.144 L 6043.446 2010.944 L 6042.246 2009.744 L 6041.046 2007.344 L 6041.046 2006.144 L 6042.246 2004.944 L 6045.846 2004.944 L 6047.046 2003.745 L 6045.846 2001.345 L 6043.446 1997.745 L 6042.246 1996.545 L 6043.446 1992.945 L 6045.846 1991.745 L 6047.046 1988.145 L 6047.046 1985.745 L 6044.646 1984.545 L 6044.646 1979.745 L 6047.046 1978.545 L 6045.846 1976.145 L 6044.646 1976.145 L 6041.046 1973.745 L 6044.646 1971.345 L 6043.446 1966.546 L 6044.646 1962.946 L 6043.446 1960.546 L 6039.846 1960.546 L 6037.446 1956.946 L 6036.246 1956.946 L 6035.046 1958.146 L 6033.846 1954.546 L 6029.046 1952.146 L 6029.046 1948.546 L 6026.647 1949.746 L 6025.447 1946.146 L 6024.247 1946.146 L 6021.847 1948.546 L 6017.047 1946.146 L 6017.047 1943.746 L 6015.847 1942.546 L 6015.847 1941.346 L 6014.647 1941.346 L 6014.647 1938.946 L 6008.647 1938.946 L 6009.847 1934.146 L 6009.847 1930.547 L 6007.447 1929.347 L 6007.447 1926.947 L 6006.247 1926.947 L 6005.047 1928.147 L 5999.047 1919.747 L 5996.647 1918.547 L 5995.447 1920.947 L 5994.247 1919.747 L 5994.247 1918.547 L 5991.848 1918.547 L 5991.848 1916.147 L 5989.448 1912.547 L 5990.648 1910.147 L 5987.048 1905.347 L 5989.448 1902.947 L 5988.248 1896.947 L 5990.648 1895.748 L 5990.648 1894.548 L 5991.848 1890.948 L 5994.247 1889.748 L 5994.247 1888.548 L 5989.448 1887.348 L 5987.048 1886.148 L 5987.048 1884.948 L 5989.448 1883.748 L 5989.448 1882.548 L 5990.648 1880.148 L 5995.447 1875.348 L 6000.247 1869.348 L 5999.047 1868.148 L 5995.447 1863.348 L 5990.648 1860.948 L 5990.648 1858.549 L 5991.848 1854.949 L 5991.848 1852.549 L 5989.448 1852.549 L 5988.248 1851.349 L 5991.848 1851.349 L 5993.047 1847.749 L 5994.247 1847.749 L 5995.447 1844.149 L 5997.847 1841.749 L 5997.847 1836.949 L 6000.247 1833.349 L 6000.247 1827.349 L 6002.647 1822.55 L 6002.647 1816.55 L 6005.047 1814.15 L 6007.447 1809.35 L 6009.847 1808.15 L 6009.847 1804.55 L 6007.447 1790.15 L 6013.447 1780.551 L 6015.847 1778.151 L 6011.047 1776.951 L 6008.647 1775.751 L 6008.647 1773.351 L 6006.247 1769.751 L 6007.447 1768.551 L 6009.847 1761.351 L 6008.647 1758.951 L 6011.047 1756.551 L 6011.047 1755.351 L 6009.847 1754.151 L 6006.247 1754.151 L 6002.647 1752.951 L 6001.447 1752.951 L 5999.047 1751.752 L 5999.047 1750.552 L 5997.847 1751.752 L 5996.647 1750.552 L 5994.247 1751.752 L 5991.848 1751.752 L 5989.448 1752.951 L 5987.048 1754.151 L 5985.848 1754.151 L 5985.848 1752.951 L 5989.448 1750.552 L 5988.248 1748.152 L 5987.048 1745.752 L 5988.248 1744.552 L 5988.248 1743.352 L 5989.448 1743.352 L 5989.448 1742.152 L 5990.648 1742.152 L 5993.047 1736.152 L 5990.648 1731.352 L 5988.248 1728.952 L 5987.048 1726.552 L 5985.848 1724.152 L 5985.848 1722.952 L 5984.648 1721.752 L 5983.448 1720.552 L 5983.448 1719.352 L 5982.248 1715.752 L 5981.048 1715.752 L 5981.048 1714.553 L 5978.648 1716.952 L 5978.648 1715.752 L 5984.648 1709.753 L 5987.048 1706.153 L 5984.648 1703.753 L 5985.848 1697.753 L 5987.048 1696.553 L 5989.448 1696.553 L 5989.448 1695.353 L 5985.848 1692.953 L 5982.248 1692.953 L 5979.848 1690.553 L 5973.848 1690.553 L 5971.448 1689.353 L 5970.248 1688.153 L 5971.448 1686.953 L 5972.648 1678.554 L 5970.248 1672.554 L 5967.848 1671.354 L 5965.448 1670.154 L 5965.448 1668.954 L 5966.648 1667.754 L 5966.648 1666.554 L 5971.448 1666.554 L 5973.848 1662.954 L 5973.848 1656.954 L 5975.048 1655.754 L 5978.648 1654.554 L 5976.248 1654.554 L 5973.848 1655.754 L 5973.848 1654.554 L 5972.648 1649.754 L 5970.248 1647.354 L 5970.248 1640.255 L 5963.048 1640.255 L 5961.848 1637.855 L 5960.648 1637.855 L 5960.648 1631.855 L 5957.048 1633.055 L 5957.048 1631.855 L 5958.148 1629.455 Z " fill="#F3AA47" vector-effect="non-scaling-stroke" stroke-width="1" stroke-linejoin="miter" stroke-linecap="butt" stroke-miterlimit="4"/></svg>