<?xml version="1.0" standalone="no"?><!-- Generator: Gravit.io --><svg xmlns="http://www.w3.org/2000/svg" xmlns:xlink="http://www.w3.org/1999/xlink" style="isolation:isolate" viewBox="4744.482 3836.194 176.495 104.697" width="176.495" height="104.697"><path d=" M 4746.482 3898.192 L 4746.482 3896.992 L 4748.882 3893.392 L 4753.682 3892.192 L 4754.882 3889.792 L 4758.482 3884.992 L 4759.682 3884.992 L 4760.882 3882.593 L 4759.682 3877.793 L 4758.482 3875.393 L 4756.082 3876.593 L 4753.682 3875.393 L 4753.682 3871.793 L 4754.882 3866.993 L 4756.082 3863.393 L 4758.482 3859.793 L 4760.882 3859.793 L 4760.882 3838.194 L 4899.778 3838.194 L 4899.778 3846.594 L 4902.178 3846.594 L 4904.578 3850.193 L 4905.778 3850.193 L 4905.778 3851.393 L 4906.978 3852.593 L 4911.777 3852.593 L 4915.377 3853.793 L 4916.577 3853.793 L 4917.777 3854.993 L 4916.577 3856.193 L 4914.177 3862.193 L 4915.377 3864.593 L 4915.377 3869.393 L 4914.177 3870.593 L 4915.377 3871.793 L 4916.577 3871.793 L 4917.777 3872.993 L 4917.777 3875.393 L 4916.577 3877.793 L 4916.577 3880.193 L 4917.777 3881.393 L 4917.777 3882.593 L 4916.577 3882.593 L 4916.577 3884.992 L 4916.577 3883.792 L 4916.577 3884.992 L 4915.377 3886.192 L 4915.377 3888.592 L 4914.177 3888.592 L 4912.977 3892.192 L 4911.777 3893.392 L 4911.777 3894.592 L 4910.577 3894.592 L 4910.577 3896.992 L 4909.377 3896.992 L 4908.178 3898.192 L 4908.178 3902.992 L 4906.978 3904.192 L 4908.178 3904.192 L 4908.178 3905.392 L 4906.978 3907.792 L 4905.778 3907.792 L 4906.978 3907.792 L 4906.978 3910.192 L 4908.178 3911.392 L 4906.978 3912.592 L 4909.377 3912.592 L 4908.178 3913.792 L 4908.178 3914.992 L 4909.377 3914.992 L 4909.377 3917.392 L 4906.978 3917.392 L 4908.178 3918.592 L 4908.178 3920.991 L 4906.978 3920.991 L 4906.978 3928.091 L 4908.178 3928.091 L 4908.178 3929.291 L 4909.377 3929.291 L 4909.377 3930.491 L 4911.777 3930.491 L 4911.777 3931.691 L 4912.977 3931.691 L 4912.977 3932.891 L 4914.177 3931.691 L 4915.377 3934.091 L 4916.577 3934.091 L 4916.577 3935.291 L 4918.977 3935.291 L 4917.777 3936.491 L 4918.977 3936.491 L 4918.977 3937.691 L 4853.079 3937.691 L 4829.18 3938.891 L 4747.782 3938.891 L 4747.782 3937.691 L 4748.982 3934.091 L 4748.982 3930.491 L 4750.182 3928.091 L 4751.382 3924.491 L 4750.182 3923.291 L 4752.582 3920.891 L 4752.582 3917.292 L 4750.182 3916.092 L 4748.982 3917.292 L 4747.782 3916.092 L 4747.782 3914.892 L 4748.982 3914.892 L 4748.982 3912.492 L 4747.782 3912.492 L 4747.782 3908.892 L 4748.982 3907.692 L 4747.782 3906.492 L 4746.582 3900.492 L 4746.582 3898.192 L 4746.482 3898.192 Z " fill="#F3AA47" vector-effect="non-scaling-stroke" stroke-width="1" stroke-linejoin="miter" stroke-linecap="butt" stroke-miterlimit="4"/></svg>