<?xml version="1.0" standalone="no"?><!-- Generator: Gravit.io --><svg xmlns="http://www.w3.org/2000/svg" xmlns:xlink="http://www.w3.org/1999/xlink" style="isolation:isolate" viewBox="5876.451 4271.382 390.689 622.083" width="390.689" height="622.083"><path d=" M 5876.951 4796.267 L 5876.951 4791.467 L 5879.351 4791.467 L 5879.351 4792.667 L 5880.551 4792.667 L 5879.351 4789.067 L 5878.151 4787.867 L 5879.351 4787.867 L 5880.551 4786.667 L 5879.351 4785.468 L 5880.551 4784.268 L 5881.751 4783.068 L 5881.751 4781.868 L 5882.951 4780.668 L 5884.15 4778.268 L 5886.55 4777.068 L 5885.35 4775.868 L 5886.55 4775.868 L 5887.75 4774.668 L 5888.95 4773.468 L 5887.75 4772.268 L 5887.75 4773.468 L 5886.55 4772.268 L 5887.75 4769.868 L 5881.751 4769.868 L 5880.551 4768.668 L 5880.551 4767.468 L 5881.751 4766.268 L 5882.951 4765.068 L 5882.951 4762.668 L 5885.35 4759.068 L 5885.35 4757.868 L 5886.55 4756.668 L 5888.95 4756.668 L 5888.95 4754.268 L 5887.75 4750.668 L 5888.95 4749.469 L 5888.95 4745.869 L 5890.15 4743.469 L 5890.15 4732.669 L 5884.15 4731.469 L 5881.751 4725.469 L 5881.751 4724.269 L 5879.351 4724.269 L 5880.551 4720.669 L 5880.551 4719.469 L 5882.951 4718.269 L 5881.751 4715.869 L 5884.15 4715.869 L 5885.35 4714.669 L 5886.55 4713.47 L 5888.95 4712.27 L 5890.15 4711.07 L 5890.15 4709.87 L 5893.75 4709.87 L 5894.95 4708.67 L 5893.75 4707.47 L 5894.95 4703.87 L 5896.15 4702.67 L 5896.15 4696.67 L 5897.35 4695.47 L 5897.35 4694.27 L 5958.448 4694.27 L 5958.448 4693.07 L 5959.648 4691.87 L 5960.848 4693.07 L 5964.448 4690.67 L 5965.648 4687.07 L 5965.648 4685.87 L 5966.848 4684.67 L 5968.048 4682.27 L 5969.248 4681.07 L 5968.048 4681.07 L 5970.448 4678.67 L 5969.248 4677.471 L 5970.448 4675.071 L 5970.448 4672.671 L 5971.648 4671.471 L 5972.848 4667.871 L 5972.848 4666.671 L 5974.048 4665.471 L 5975.248 4664.271 L 5975.248 4660.671 L 5977.648 4658.271 L 5976.448 4655.871 L 5976.448 4654.671 L 5975.248 4652.271 L 5976.448 4651.071 L 5977.648 4646.271 L 5978.848 4645.071 L 5983.648 4645.071 L 5986.048 4643.871 L 5987.248 4645.071 L 5988.448 4645.071 L 5990.848 4641.471 L 5990.848 4639.072 L 5994.447 4637.872 L 5995.647 4639.072 L 5998.047 4636.672 L 5999.247 4635.472 L 5999.247 4628.272 L 6000.447 4628.272 L 6000.447 4627.072 L 5999.247 4624.672 L 6000.447 4624.672 L 6001.647 4621.072 L 6002.847 4618.672 L 6000.447 4617.472 L 6000.447 4616.272 L 6001.647 4616.272 L 6000.447 4613.872 L 5998.047 4612.672 L 5998.047 4610.272 L 6000.447 4609.072 L 5999.247 4607.872 L 6000.447 4605.472 L 6000.447 4601.873 L 6001.647 4600.673 L 6000.447 4599.473 L 6001.647 4595.873 L 6002.847 4594.673 L 6005.247 4594.673 L 6007.647 4593.473 L 6008.847 4591.073 L 6011.247 4591.073 L 6012.447 4589.873 L 6013.647 4583.873 L 6014.847 4583.873 L 6016.047 4582.673 L 6018.447 4582.673 L 6018.447 4580.273 L 6022.047 4580.273 L 6022.047 4579.073 L 6025.647 4577.873 L 6025.647 4576.673 L 6024.447 4574.273 L 6023.247 4571.873 L 6024.447 4568.274 L 6023.247 4565.874 L 6023.247 4563.474 L 6026.847 4564.674 L 6030.446 4565.874 L 6036.446 4565.874 L 6036.446 4564.674 L 6040.046 4559.874 L 6040.046 4558.674 L 6041.246 4557.474 L 6038.846 4556.274 L 6038.846 4553.874 L 6037.646 4552.674 L 6037.646 4551.474 L 6038.846 4550.274 L 6038.846 4546.674 L 6043.646 4543.074 L 6043.646 4541.874 L 6044.846 4540.674 L 6042.446 4539.474 L 6042.446 4537.074 L 6043.646 4533.474 L 6044.846 4533.474 L 6046.046 4532.275 L 6047.246 4532.275 L 6048.446 4529.875 L 6047.246 4528.675 L 6043.646 4528.675 L 6043.646 4527.475 L 6044.846 4526.275 L 6042.446 4526.275 L 6041.246 4525.075 L 6043.646 4523.875 L 6046.046 4523.875 L 6046.046 4520.275 L 6043.646 4519.075 L 6042.446 4519.075 L 6043.646 4517.875 L 6042.446 4516.675 L 6042.446 4514.275 L 6043.646 4514.275 L 6044.846 4513.075 L 6044.846 4510.675 L 6043.646 4509.475 L 6044.846 4508.275 L 6043.646 4508.275 L 6043.646 4507.075 L 6042.446 4507.075 L 6042.446 4504.675 L 6041.246 4503.475 L 6040.046 4502.275 L 6041.246 4499.875 L 6038.846 4499.875 L 6038.846 4497.475 L 6037.646 4496.276 L 6036.446 4496.276 L 6036.446 4495.076 L 6035.246 4493.876 L 6034.046 4492.676 L 6030.446 4492.676 L 6030.446 4489.076 L 6029.246 4490.276 L 6029.246 4487.876 L 6028.047 4487.876 L 6026.847 4489.076 L 6025.647 4486.676 L 6022.047 4486.676 L 6022.047 4484.276 L 6020.847 4484.276 L 6019.647 4483.076 L 6020.847 4480.676 L 6018.447 4478.276 L 6019.647 4477.076 L 6019.647 4474.676 L 6022.047 4474.676 L 6026.847 4471.076 L 6028.047 4471.076 L 6028.047 4468.676 L 6026.847 4469.876 L 6023.247 4469.876 L 6022.047 4468.676 L 6022.047 4467.476 L 6020.847 4467.476 L 6019.647 4465.076 L 6019.647 4463.876 L 6017.247 4463.876 L 6017.247 4462.676 L 6013.647 4461.476 L 6012.447 4460.277 L 6011.247 4460.277 L 6011.247 4457.877 L 6010.047 4456.677 L 6008.847 4454.277 L 6006.447 4453.077 L 6004.047 4453.077 L 6004.047 4451.877 L 6002.847 4449.477 L 6001.647 4448.277 L 5998.047 4449.477 L 5996.847 4449.477 L 5994.447 4447.077 L 5994.447 4450.677 L 5993.247 4451.877 L 5990.848 4448.277 L 5989.648 4448.277 L 5988.448 4447.077 L 5989.648 4445.877 L 5988.448 4445.877 L 5989.648 4443.477 L 5988.448 4441.077 L 5990.848 4437.477 L 6005.247 4437.477 L 6007.647 4436.277 L 6008.847 4438.677 L 6010.047 4439.877 L 6010.047 4441.077 L 6012.447 4444.677 L 6037.646 4444.677 L 6040.046 4443.477 L 6041.246 4442.277 L 6042.446 4443.477 L 6043.646 4442.277 L 6044.846 4441.077 L 6046.046 4439.877 L 6046.046 4437.477 L 6043.646 4436.277 L 6044.846 4435.077 L 6042.446 4432.677 L 6042.446 4424.278 L 6041.246 4417.078 L 6040.046 4415.878 L 6034.046 4414.678 L 6032.846 4413.478 L 6030.446 4413.478 L 6028.047 4411.078 L 6025.647 4411.078 L 6026.847 4409.878 L 6025.647 4409.878 L 6025.647 4408.678 L 6023.247 4409.878 L 6024.447 4408.678 L 6022.047 4407.478 L 6022.047 4406.278 L 6023.247 4406.278 L 6024.447 4405.078 L 6025.647 4403.878 L 6025.647 4402.678 L 6024.447 4401.478 L 6025.647 4391.878 L 6026.847 4391.878 L 6026.847 4388.279 L 6028.047 4377.479 L 6028.047 4375.079 L 6026.847 4375.079 L 6020.847 4373.879 L 6016.047 4373.879 L 6000.447 4372.679 L 5999.247 4371.479 L 6001.647 4367.879 L 6004.047 4366.679 L 6006.447 4365.479 L 6002.847 4365.479 L 6002.847 4360.679 L 6005.247 4360.679 L 6005.247 4353.479 L 6004.047 4352.28 L 6004.047 4347.48 L 6005.247 4346.28 L 6008.847 4342.68 L 6014.847 4337.88 L 6013.647 4336.68 L 6013.647 4334.28 L 6014.847 4334.28 L 6014.847 4333.08 L 6013.647 4331.88 L 6013.647 4330.68 L 6014.847 4329.48 L 6014.847 4327.08 L 6019.647 4324.68 L 6022.047 4324.68 L 6022.047 4322.28 L 6025.647 4321.08 L 6024.447 4323.48 L 6025.647 4323.48 L 6026.847 4319.88 L 6029.246 4319.88 L 6029.246 4322.28 L 6032.846 4322.28 L 6034.046 4318.68 L 6035.246 4317.48 L 6037.646 4318.68 L 6038.846 4319.88 L 6040.046 4319.88 L 6040.046 4315.081 L 6041.246 4315.081 L 6042.446 4316.281 L 6043.646 4316.281 L 6046.046 4313.881 L 6047.246 4312.681 L 6048.446 4312.681 L 6048.446 4311.481 L 6049.646 4312.681 L 6050.846 4311.481 L 6050.846 4313.881 L 6053.246 4313.881 L 6055.646 4315.081 L 6055.646 4317.48 L 6056.846 4317.48 L 6058.046 4318.68 L 6062.846 4318.68 L 6066.445 4319.88 L 6067.645 4321.08 L 6072.445 4319.88 L 6071.245 4311.481 L 6048.446 4289.881 L 6049.646 4288.681 L 6050.846 4288.681 L 6052.046 4286.281 L 6053.246 4288.681 L 6054.446 4288.681 L 6055.646 4289.881 L 6056.846 4288.681 L 6060.446 4283.881 L 6061.646 4283.881 L 6062.846 4285.081 L 6064.046 4283.881 L 6065.245 4282.681 L 6066.445 4283.881 L 6067.645 4283.881 L 6068.845 4286.281 L 6067.645 4288.681 L 6070.045 4287.481 L 6071.245 4287.481 L 6071.245 4288.681 L 6072.445 4288.681 L 6071.245 4292.281 L 6073.645 4292.281 L 6076.045 4293.481 L 6077.245 4292.281 L 6082.045 4292.281 L 6082.045 4294.681 L 6083.245 4295.881 L 6086.845 4293.481 L 6088.045 4294.681 L 6089.245 4293.481 L 6091.645 4294.681 L 6092.845 4293.481 L 6094.045 4291.081 L 6097.645 4289.881 L 6097.645 4287.481 L 6100.045 4286.281 L 6098.845 4285.081 L 6100.045 4282.681 L 6100.045 4280.281 L 6104.844 4280.281 L 6104.844 4276.682 L 6108.444 4276.682 L 6112.044 4274.282 L 6115.644 4271.882 L 6116.844 4271.882 L 6119.244 4275.482 L 6122.844 4275.482 L 6126.444 4279.082 L 6127.644 4276.682 L 6132.444 4277.882 L 6139.643 4277.882 L 6139.643 4279.082 L 6142.043 4279.082 L 6143.243 4277.882 L 6145.643 4279.082 L 6146.843 4277.882 L 6149.243 4277.882 L 6151.643 4280.281 L 6152.843 4280.281 L 6154.043 4282.681 L 6156.443 4281.481 L 6156.443 4282.681 L 6160.043 4285.081 L 6161.243 4285.081 L 6163.643 4286.281 L 6168.443 4288.681 L 6197.142 4306.581 L 6217.541 4319.78 L 6222.341 4323.38 L 6223.541 4324.58 L 6263.04 4349.78 L 6265.44 4350.98 L 6266.64 4352.18 L 6266.64 4355.779 L 6260.64 4367.779 L 6260.64 4368.979 L 6258.24 4377.379 L 6255.84 4383.379 L 6255.84 4398.978 L 6257.04 4401.378 L 6254.64 4408.578 L 6253.44 4420.578 L 6252.24 4434.877 L 6252.24 4444.477 L 6254.64 4464.776 L 6258.24 4491.176 L 6259.44 4504.275 L 6261.84 4517.475 L 6263.04 4529.475 L 6261.84 4540.274 L 6255.84 4558.174 L 6248.64 4574.973 L 6242.641 4588.173 L 6242.641 4591.773 L 6240.241 4592.973 L 6236.641 4592.973 L 6230.641 4595.373 L 6223.441 4598.973 L 6219.841 4601.373 L 6211.441 4608.572 L 6204.242 4615.772 L 6199.442 4620.572 L 6198.242 4622.972 L 6198.242 4625.372 L 6197.042 4628.972 L 6194.642 4632.572 L 6193.442 4634.972 L 6192.242 4636.172 L 6192.242 4637.372 L 6191.042 4638.572 L 6191.042 4640.972 L 6187.442 4643.371 L 6185.042 4644.571 L 6183.842 4646.971 L 6183.842 4648.171 L 6185.042 4649.371 L 6183.842 4650.571 L 6182.642 4652.971 L 6182.642 4654.171 L 6181.442 4656.571 L 6181.442 4657.771 L 6180.242 4662.571 L 6175.442 4663.771 L 6174.242 4666.171 L 6177.842 4669.771 L 6177.842 4675.771 L 6175.442 4684.17 L 6175.442 4687.77 L 6174.242 4688.97 L 6174.242 4692.57 L 6173.042 4694.97 L 6170.643 4699.77 L 6167.043 4703.37 L 6165.843 4706.97 L 6165.843 4708.17 L 6163.443 4709.37 L 6163.443 4706.97 L 6162.243 4704.57 L 6159.843 4704.57 L 6157.443 4705.77 L 6156.243 4708.17 L 6157.443 4709.37 L 6156.243 4710.57 L 6158.643 4710.57 L 6158.643 4711.77 L 6156.243 4711.77 L 6158.643 4711.77 L 6158.643 4712.97 L 6157.443 4712.97 L 6157.443 4715.369 L 6159.843 4714.169 L 6161.043 4714.169 L 6159.843 4714.169 L 6159.843 4715.369 L 6161.043 4715.369 L 6159.843 4715.369 L 6159.843 4716.569 L 6161.043 4716.569 L 6158.643 4716.569 L 6157.443 4720.169 L 6156.243 4721.369 L 6152.643 4727.369 L 6151.443 4732.169 L 6151.443 4733.369 L 6146.643 4742.969 L 6144.243 4748.969 L 6144.243 4750.168 L 6143.043 4750.168 L 6141.843 4753.768 L 6137.043 4760.968 L 6137.043 4764.568 L 6133.444 4769.368 L 6132.244 4771.768 L 6133.444 4771.768 L 6132.244 4771.768 L 6131.044 4772.968 L 6131.044 4771.768 L 6128.644 4771.768 L 6129.844 4770.568 L 6128.644 4770.568 L 6126.244 4769.368 L 6126.244 4770.568 L 6125.044 4771.768 L 6126.244 4772.968 L 6125.044 4772.968 L 6125.044 4775.368 L 6126.244 4774.168 L 6125.044 4776.568 L 6123.844 4776.568 L 6123.844 4775.368 L 6122.644 4774.168 L 6121.444 4775.368 L 6120.244 4776.568 L 6119.044 4776.568 L 6119.044 4777.768 L 6121.444 4776.568 L 6120.244 4777.768 L 6121.444 4777.768 L 6120.244 4777.768 L 6120.244 4778.968 L 6119.044 4778.968 L 6117.844 4782.568 L 6115.444 4787.367 L 6116.644 4788.567 L 6115.444 4788.567 L 6115.444 4789.767 L 6114.244 4789.767 L 6114.244 4790.967 L 6110.644 4790.967 L 6107.044 4795.767 L 6105.844 4798.167 L 6105.844 4799.367 L 6104.644 4801.767 L 6105.844 4801.767 L 6104.644 4802.967 L 6103.444 4801.767 L 6101.044 4802.967 L 6098.645 4807.767 L 6097.445 4807.767 L 6097.445 4808.967 L 6096.245 4808.967 L 6096.245 4806.567 L 6097.445 4805.367 L 6096.245 4804.167 L 6092.645 4801.767 L 6093.845 4799.367 L 6095.045 4798.167 L 6093.845 4799.367 L 6092.645 4799.367 L 6092.645 4800.567 L 6091.445 4801.767 L 6092.645 4802.967 L 6090.245 4804.167 L 6089.045 4804.167 L 6089.045 4805.367 L 6087.845 4805.367 L 6087.845 4806.567 L 6086.645 4806.567 L 6085.445 4807.767 L 6084.245 4807.767 L 6081.845 4808.967 L 6080.645 4808.967 L 6080.645 4807.767 L 6079.445 4807.767 L 6079.445 4808.967 L 6079.445 4807.767 L 6080.645 4808.967 L 6080.645 4810.167 L 6079.445 4810.167 L 6080.645 4808.967 L 6079.445 4808.967 L 6077.045 4810.167 L 6075.845 4811.367 L 6073.445 4813.767 L 6073.445 4817.367 L 6071.045 4818.567 L 6071.045 4820.967 L 6067.445 4824.566 L 6066.245 4826.966 L 6066.245 4828.166 L 6065.045 4831.766 L 6065.045 4836.566 L 6066.245 4838.966 L 6065.045 4838.966 L 6065.045 4840.166 L 6063.846 4844.966 L 6061.446 4846.166 L 6056.646 4861.765 L 6051.846 4864.165 L 6050.646 4866.565 L 6047.046 4868.965 L 6044.646 4872.565 L 6039.846 4880.965 L 6038.646 4884.565 L 6038.646 4892.965 L 6037.446 4892.965 L 6037.446 4891.765 L 6036.246 4891.765 L 6036.246 4890.565 L 6035.046 4890.565 L 6035.046 4889.365 L 6033.846 4890.565 L 6032.646 4890.565 L 6031.446 4889.365 L 6031.446 4886.965 L 6030.246 4883.365 L 6026.647 4883.365 L 6024.247 4884.565 L 6021.847 4880.965 L 6019.447 4879.765 L 6018.247 4879.765 L 6017.047 4878.565 L 6015.847 4878.565 L 6014.647 4877.365 L 6013.447 4878.565 L 6009.847 4879.765 L 6007.447 4879.765 L 6006.247 4880.965 L 6003.847 4882.165 L 5999.047 4882.165 L 6000.247 4880.965 L 5999.047 4882.165 L 5999.047 4880.965 L 5999.047 4882.165 L 5997.847 4882.165 L 5997.847 4883.365 L 5997.847 4882.165 L 5995.447 4882.165 L 5994.247 4880.965 L 5991.848 4880.965 L 5991.848 4879.765 L 5990.648 4879.765 L 5990.648 4878.565 L 5985.848 4878.565 L 5984.648 4880.965 L 5982.248 4880.965 L 5982.248 4882.165 L 5981.048 4880.965 L 5978.648 4880.965 L 5976.248 4877.365 L 5975.048 4878.565 L 5975.048 4877.365 L 5973.848 4877.365 L 5972.648 4876.165 L 5971.448 4876.165 L 5966.648 4874.965 L 5965.448 4874.965 L 5964.248 4873.765 L 5964.248 4874.965 L 5961.848 4874.965 L 5960.648 4873.765 L 5959.448 4874.965 L 5958.248 4873.765 L 5958.248 4874.965 L 5957.048 4874.965 L 5954.649 4877.365 L 5952.249 4877.365 L 5951.049 4876.165 L 5948.649 4874.965 L 5946.249 4873.765 L 5946.249 4871.365 L 5942.649 4871.365 L 5941.449 4870.165 L 5940.249 4870.165 L 5940.249 4872.565 L 5937.849 4870.165 L 5934.249 4871.365 L 5933.049 4868.965 L 5931.849 4871.365 L 5930.649 4870.165 L 5930.649 4868.965 L 5928.249 4867.765 L 5927.049 4865.365 L 5923.449 4866.565 L 5919.85 4864.165 L 5916.25 4864.165 L 5916.25 4862.965 L 5913.85 4861.765 L 5913.85 4860.565 L 5912.65 4860.565 L 5911.45 4861.765 L 5911.45 4860.565 L 5910.25 4860.565 L 5909.05 4859.365 L 5906.65 4859.365 L 5906.65 4860.565 L 5904.25 4860.565 L 5904.25 4859.365 L 5906.65 4858.165 L 5906.65 4856.966 L 5901.85 4856.966 L 5901.85 4855.766 L 5904.25 4850.966 L 5903.05 4850.966 L 5903.05 4849.766 L 5901.85 4849.766 L 5901.85 4847.366 L 5903.05 4847.366 L 5903.05 4848.566 L 5904.25 4848.566 L 5904.25 4846.166 L 5903.05 4843.766 L 5903.05 4842.566 L 5904.25 4842.566 L 5905.45 4841.366 L 5903.05 4840.166 L 5904.25 4838.966 L 5904.25 4836.566 L 5905.45 4836.566 L 5905.45 4834.166 L 5904.25 4834.166 L 5904.25 4829.366 L 5901.85 4828.166 L 5900.65 4824.566 L 5901.85 4824.566 L 5903.05 4823.366 L 5904.25 4819.767 L 5903.05 4819.767 L 5903.05 4818.567 L 5904.25 4814.967 L 5905.45 4814.967 L 5903.05 4813.767 L 5900.65 4814.967 L 5900.65 4813.767 L 5899.45 4811.367 L 5900.65 4807.767 L 5900.65 4805.367 L 5899.45 4804.167 L 5898.25 4805.367 L 5898.25 4802.967 L 5895.85 4802.967 L 5895.85 4801.767 L 5891.05 4801.767 L 5889.85 4802.967 L 5887.45 4802.967 L 5888.65 4800.567 L 5887.45 4801.767 L 5885.05 4800.567 L 5885.05 4799.367 L 5883.85 4798.167 L 5881.451 4796.967 L 5880.251 4794.567 L 5877.851 4795.767 L 5876.951 4795.767 L 5876.951 4796.267 Z  M 6143.943 4751.968 L 6145.143 4751.968 L 6143.943 4751.968 Z  M 6141.543 4768.768 L 6141.543 4767.568 L 6141.543 4768.768 Z  M 6139.143 4765.168 L 6137.943 4765.168 L 6139.143 4765.168 Z  M 6118.844 4777.068 L 6115.244 4777.068 L 6115.244 4775.868 L 6114.044 4779.468 L 6112.844 4779.468 L 6111.644 4778.268 L 6111.644 4779.468 L 6114.044 4779.468 L 6112.844 4780.668 L 6115.244 4781.868 L 6116.444 4780.668 L 6114.044 4780.668 L 6115.244 4778.268 L 6116.444 4777.068 L 6118.844 4778.268 L 6118.844 4777.068 L 6118.844 4777.068 Z  M 6140.343 4768.768 L 6140.343 4767.568 L 6140.343 4768.768 Z  M 6154.743 4725.669 L 6155.943 4725.669 L 6154.743 4725.669 Z " fill="#F3AA47" vector-effect="non-scaling-stroke" stroke-width="1" stroke-linejoin="miter" stroke-linecap="butt" stroke-miterlimit="4"/></svg>