<?xml version="1.0" standalone="no"?><!-- Generator: Gravit.io --><svg xmlns="http://www.w3.org/2000/svg" xmlns:xlink="http://www.w3.org/1999/xlink" style="isolation:isolate" viewBox="3867.706 3269.209 1302.464 1298.564" width="1302.464" height="1298.564"><path d=" M 3872.606 4202.384 L 3872.606 4201.184 L 3873.806 4198.784 L 3873.806 4197.584 L 3875.006 4195.184 L 3875.006 4196.384 L 3875.006 4191.584 L 3873.806 4191.584 L 3875.006 4190.384 L 3873.806 4189.184 L 3875.006 4187.984 L 3876.206 4186.784 L 3876.206 4185.584 L 3877.406 4185.584 L 3877.406 4184.384 L 3878.606 4184.384 L 3878.606 4183.184 L 3877.406 4183.184 L 3878.606 4181.984 L 3878.606 4180.784 L 3878.606 4181.984 L 3879.806 4180.784 L 3879.806 4178.384 L 3878.606 4178.384 L 3879.806 4178.384 L 3881.006 4177.184 L 3878.606 4177.184 L 3878.606 4174.784 L 3879.806 4174.784 L 3879.806 4173.584 L 3878.606 4173.584 L 3879.806 4172.384 L 3878.606 4171.185 L 3876.206 4169.985 L 3877.406 4169.985 L 3877.406 4168.785 L 3878.606 4167.585 L 3877.406 4167.585 L 3877.406 4166.385 L 3876.206 4167.585 L 3876.206 4165.185 L 3878.606 4163.985 L 3878.606 4162.785 L 3881.006 4161.585 L 3879.806 4157.985 L 3882.206 4157.985 L 3883.406 4155.585 L 3884.606 4154.385 L 3884.606 4150.785 L 3885.806 4150.785 L 3885.806 4148.385 L 3887.006 4144.785 L 3887.006 4142.385 L 3888.206 4141.185 L 3889.406 4142.385 L 3890.606 4139.985 L 3891.806 4138.785 L 3891.806 4137.585 L 3893.006 4137.585 L 3894.206 4133.986 L 3894.206 4131.586 L 3895.406 4130.386 L 3897.805 4130.386 L 3896.606 4129.186 L 3899.005 4129.186 L 3899.005 4127.986 L 3900.205 4127.986 L 3899.005 4126.786 L 3901.405 4126.786 L 3900.205 4125.586 L 3901.405 4125.586 L 3902.605 4126.786 L 3902.605 4124.386 L 3902.605 4125.586 L 3902.605 4124.386 L 3903.805 4124.386 L 3905.005 4123.186 L 3905.005 4121.986 L 3903.805 4120.786 L 3903.805 4121.986 L 3903.805 4119.586 L 3902.605 4119.586 L 3902.605 4118.386 L 3903.805 4118.386 L 3902.605 4115.986 L 3903.805 4115.986 L 3903.805 4114.786 L 3905.005 4114.786 L 3903.805 4113.586 L 3905.005 4113.586 L 3905.005 4111.186 L 3906.205 4109.986 L 3905.005 4108.786 L 3905.005 4103.986 L 3906.205 4103.986 L 3906.205 4105.186 L 3907.405 4102.786 L 3907.405 4101.586 L 3908.605 4100.386 L 3908.605 4094.387 L 3909.805 4094.387 L 3909.805 4093.187 L 3911.005 4093.187 L 3912.205 4091.987 L 3912.205 4089.587 L 3913.405 4089.587 L 3912.205 4088.387 L 3912.205 4085.987 L 3913.405 4084.787 L 3913.405 4085.987 L 3914.605 4084.787 L 3915.805 4085.987 L 3919.405 4085.987 L 3920.605 4087.187 L 3921.805 4085.987 L 3921.805 4084.787 L 3923.005 4085.987 L 3923.005 4083.587 L 3924.205 4083.587 L 3924.205 4084.787 L 3925.405 4084.787 L 3924.205 4082.387 L 3923.005 4082.387 L 3927.805 4082.387 L 3927.805 4081.187 L 3926.605 4081.187 L 3927.805 4078.787 L 3925.405 4076.387 L 3926.605 4076.387 L 3926.605 4075.187 L 3927.805 4075.187 L 3927.805 4077.587 L 3929.005 4077.587 L 3930.205 4076.387 L 3931.405 4076.387 L 3931.405 4073.987 L 3933.804 4072.787 L 3935.004 4071.587 L 3933.804 4071.587 L 3936.204 4070.387 L 3938.604 4070.387 L 3939.804 4067.987 L 3941.004 4069.187 L 3942.204 4067.987 L 3943.404 4067.987 L 3943.404 4069.187 L 3944.604 4069.187 L 3944.604 4066.787 L 3945.804 4066.787 L 3949.404 4063.188 L 3950.604 4064.387 L 3951.804 4063.188 L 3953.004 4063.188 L 3953.004 4059.588 L 3954.204 4057.188 L 3956.604 4057.188 L 3956.604 4052.388 L 3957.804 4051.188 L 3955.404 4051.188 L 3955.404 4049.988 L 3957.804 4048.788 L 3960.204 4047.588 L 3961.404 4048.788 L 3959.004 4045.188 L 3960.204 4043.988 L 3961.404 4042.788 L 3962.604 4043.988 L 3963.804 4046.388 L 3965.004 4045.188 L 3963.804 4040.388 L 3961.404 4040.388 L 3961.404 4039.188 L 3962.604 4037.988 L 3961.404 4035.588 L 3963.804 4035.588 L 3967.404 4037.988 L 3966.204 4033.188 L 3967.404 4033.188 L 3969.803 4035.588 L 3972.203 4035.588 L 3973.403 4034.388 L 3972.203 4031.988 L 3974.603 4031.988 L 3973.403 4030.788 L 3973.403 4028.388 L 3974.603 4028.388 L 3977.003 4030.788 L 3977.003 4028.388 L 3979.403 4029.588 L 3979.403 4027.189 L 3980.603 4025.989 L 3980.603 4022.389 L 3979.403 4022.389 L 3979.403 4019.989 L 3983.003 4019.989 L 3984.203 4017.589 L 3984.203 4015.189 L 3983.003 4013.989 L 3985.403 4012.789 L 3983.003 4011.589 L 3981.803 4012.789 L 3981.803 4011.589 L 3983.003 4010.389 L 3979.403 4007.989 L 3978.203 4006.789 L 3978.203 4003.189 L 3972.203 4003.189 L 3969.803 4000.789 L 3969.803 3999.589 L 3972.203 3998.389 L 3969.803 3995.989 L 3969.803 3992.389 L 3971.003 3991.19 L 3971.003 3987.59 L 3969.803 3986.39 L 3971.003 3983.99 L 3972.203 3983.99 L 3972.203 3981.59 L 3975.803 3979.19 L 3977.003 3979.19 L 3977.003 3980.39 L 3981.803 3980.39 L 3984.203 3977.99 L 3987.803 3977.99 L 3987.803 3976.79 L 3989.003 3974.39 L 3990.203 3974.39 L 3992.603 3976.79 L 3995.003 3976.79 L 3995.003 3975.59 L 3991.403 3970.79 L 3991.403 3969.59 L 3995.003 3969.59 L 3995.003 3963.59 L 3996.203 3961.19 L 3995.003 3958.79 L 3998.603 3957.59 L 3998.603 3953.991 L 4001.003 3952.791 L 4003.403 3953.991 L 4004.603 3953.991 L 4005.802 3952.791 L 4008.202 3951.591 L 4010.602 3951.591 L 4014.202 3949.191 L 4021.302 3945.591 L 4024.902 3946.791 L 4026.102 3945.591 L 4027.302 3944.391 L 4028.502 3943.191 L 4029.702 3944.391 L 4033.302 3941.991 L 4033.302 3940.791 L 4034.502 3937.191 L 4034.502 3935.991 L 4035.702 3933.591 L 4036.902 3929.991 L 4039.302 3927.591 L 4040.502 3926.391 L 4040.502 3922.791 L 4045.301 3919.191 L 4045.301 3916.792 L 4046.501 3916.792 L 4047.701 3911.992 L 4046.501 3908.392 L 4054.901 3908.392 L 4057.301 3907.192 L 4069.301 3909.592 L 4072.901 3907.192 L 4074.101 3908.392 L 4075.301 3907.192 L 4077.701 3907.192 L 4081.3 3908.392 L 4089.7 3907.192 L 4092.1 3905.992 L 4094.5 3899.992 L 4096.9 3898.792 L 4099.3 3899.992 L 4099.3 3896.392 L 4100.5 3893.992 L 4107.7 3893.992 L 4111.3 3897.592 L 4112.5 3896.392 L 4113.7 3892.792 L 4117.299 3889.192 L 4118.499 3886.792 L 4122.099 3880.793 L 4126.899 3878.393 L 4126.899 3875.993 L 4132.899 3865.193 L 4134.099 3863.993 L 4135.299 3860.393 L 4135.299 3857.993 L 4131.699 3848.393 L 4130.499 3844.794 L 4131.699 3844.794 L 4131.699 3843.594 L 4134.099 3843.594 L 4135.299 3847.193 L 4140.099 3847.193 L 4140.099 3844.794 L 4138.899 3841.194 L 4138.899 3839.994 L 4140.099 3837.594 L 4143.699 3836.394 L 4144.899 3835.194 L 4144.899 3832.794 L 4143.699 3829.194 L 4146.099 3825.594 L 4146.099 3824.394 L 4144.899 3821.994 L 4144.899 3820.794 L 4149.699 3813.594 L 4149.699 3811.194 L 4147.299 3808.795 L 4147.299 3802.795 L 4148.499 3799.195 L 4150.898 3797.995 L 4154.498 3795.595 L 4154.498 3794.395 L 4152.098 3793.195 L 4150.898 3790.795 L 4150.898 3787.195 L 4153.298 3783.595 L 4153.298 3778.795 L 4156.898 3776.395 L 4161.698 3776.395 L 4162.898 3775.195 L 4166.498 3766.796 L 4171.298 3765.596 L 4173.698 3759.596 L 4176.098 3757.196 L 4177.298 3755.996 L 4184.498 3757.196 L 4186.897 3754.796 L 4188.097 3752.396 L 4190.497 3752.396 L 4192.897 3747.596 L 4197.697 3746.396 L 4201.297 3748.796 L 4204.897 3746.396 L 4207.297 3743.996 L 4208.497 3741.596 L 4210.897 3741.596 L 4214.497 3743.996 L 4215.697 3749.996 L 4216.897 3752.396 L 4220.497 3753.596 L 4225.296 3752.396 L 4233.696 3747.596 L 4242.096 3742.796 L 4242.096 3739.196 L 4244.496 3735.597 L 4245.696 3735.597 L 4252.896 3730.797 L 4254.096 3730.797 L 4254.096 3729.597 L 4251.696 3727.197 L 4252.896 3723.597 L 4252.896 3717.597 L 4256.496 3711.597 L 4260.095 3709.197 L 4261.295 3706.797 L 4258.895 3703.197 L 4258.895 3699.598 L 4260.095 3698.398 L 4261.295 3695.998 L 4262.495 3694.798 L 4263.695 3692.398 L 4263.695 3691.198 L 4262.495 3687.598 L 4263.695 3685.198 L 4264.895 3685.198 L 4269.695 3675.598 L 4268.495 3669.598 L 4274.495 3659.999 L 4273.295 3655.199 L 4274.495 3651.599 L 4273.295 3649.199 L 4270.895 3646.799 L 4270.895 3644.399 L 4268.495 3640.799 L 4269.695 3638.399 L 4270.895 3635.999 L 4270.895 3634.799 L 4269.695 3630 L 4272.095 3628.8 L 4273.295 3625.2 L 4272.095 3619.2 L 4273.295 3616.8 L 4275.695 3609.6 L 4279.295 3602.4 L 4281.695 3597.6 L 4284.095 3595.2 L 4284.095 3591.601 L 4282.895 3586.801 L 4282.895 3584.401 L 4285.295 3584.401 L 4287.695 3586.801 L 4291.295 3586.801 L 4296.094 3583.201 L 4297.294 3580.801 L 4298.494 3577.201 L 4294.894 3568.801 L 4294.894 3564.001 L 4292.495 3560.401 L 4292.495 3556.802 L 4296.094 3553.202 L 4296.094 3537.602 L 4293.695 3532.802 L 4294.894 3529.202 L 4293.695 3526.802 L 4294.894 3520.803 L 4291.295 3516.003 L 4292.495 3513.603 L 4293.695 3512.403 L 4294.894 3512.403 L 4297.294 3511.203 L 4299.694 3512.403 L 4303.294 3507.603 L 4305.694 3500.403 L 4306.894 3494.403 L 4309.294 3490.803 L 4310.494 3478.804 L 4314.094 3474.004 L 4318.894 3471.604 L 4322.494 3468.004 L 4324.894 3463.204 L 4327.294 3462.004 L 4328.494 3459.604 L 4327.294 3454.804 L 4327.294 3450.004 L 4330.893 3447.605 L 4332.093 3445.205 L 4334.493 3442.805 L 4336.893 3439.205 L 4338.093 3438.005 L 4338.093 3432.005 L 4339.293 3430.805 L 4341.693 3427.205 L 4341.693 3420.005 L 4339.293 3417.605 L 4338.093 3417.605 L 4339.293 3415.205 L 4340.493 3412.806 L 4339.293 3408.006 L 4340.493 3402.006 L 4340.493 3399.606 L 4339.293 3398.406 L 4336.893 3393.606 L 4338.093 3392.406 L 4342.893 3391.206 L 4344.093 3388.806 L 4344.093 3387.606 L 4341.693 3386.406 L 4340.493 3382.806 L 4342.893 3381.606 L 4345.293 3382.806 L 4346.493 3382.806 L 4348.893 3379.206 L 4352.493 3378.006 L 4352.493 3370.807 L 4353.693 3367.207 L 4354.893 3363.607 L 4356.093 3361.207 L 4356.093 3358.807 L 4354.893 3356.407 L 4357.293 3352.807 L 4358.493 3350.407 L 4357.293 3349.207 L 4358.493 3348.007 L 4359.693 3348.007 L 4358.493 3343.207 L 4359.693 3340.808 L 4360.893 3340.808 L 4360.893 3338.408 L 4362.093 3337.208 L 4359.693 3337.208 L 4359.693 3334.808 L 4362.093 3333.608 L 4363.293 3332.408 L 4362.093 3331.208 L 4360.893 3330.008 L 4360.893 3328.808 L 4363.293 3327.608 L 4363.293 3326.408 L 4368.092 3326.408 L 4369.292 3325.208 L 4368.092 3322.808 L 4369.292 3321.608 L 4368.092 3320.408 L 4369.292 3319.208 L 4369.292 3318.008 L 4368.092 3318.008 L 4368.092 3319.208 L 4366.892 3319.208 L 4369.292 3316.808 L 4371.692 3318.008 L 4372.892 3316.808 L 4371.692 3313.208 L 4372.892 3312.008 L 4375.292 3310.808 L 4376.492 3309.608 L 4375.292 3309.608 L 4376.492 3307.208 L 4377.692 3304.809 L 4380.092 3304.809 L 4380.092 3301.209 L 4381.292 3300.009 L 4380.092 3298.809 L 4383.692 3298.809 L 4383.692 3296.409 L 4386.092 3297.609 L 4387.292 3296.409 L 4386.092 3294.009 L 4387.292 3294.009 L 4389.692 3295.209 L 4389.692 3294.009 L 4388.492 3292.809 L 4388.492 3291.609 L 4389.692 3290.409 L 4394.492 3288.009 L 4394.492 3286.809 L 4399.292 3286.809 L 4400.492 3283.209 L 4404.091 3283.209 L 4405.291 3280.809 L 4408.891 3280.809 L 4406.491 3279.609 L 4407.691 3279.609 L 4410.091 3278.409 L 4412.491 3278.409 L 4412.491 3277.209 L 4410.091 3276.009 L 4410.091 3274.809 L 4411.291 3274.809 L 4411.291 3276.009 L 4412.491 3277.209 L 4413.691 3277.209 L 4414.891 3276.009 L 4414.891 3273.609 L 4419.691 3271.209 L 4417.291 3274.809 L 4417.291 3278.409 L 4416.091 3278.409 L 4416.091 3279.609 L 4413.691 3279.609 L 4413.691 3280.809 L 4412.491 3282.009 L 4410.091 3283.209 L 4408.891 3284.409 L 4408.891 3286.809 L 4407.691 3288.009 L 4406.491 3288.009 L 4406.491 3294.009 L 4404.091 3296.409 L 4405.291 3298.809 L 4407.691 3300.009 L 4407.691 3302.409 L 4408.891 3301.209 L 4408.891 3300.009 L 4410.091 3301.209 L 4411.291 3302.409 L 4408.891 3302.409 L 4408.891 3303.609 L 4405.291 3306.008 L 4404.091 3306.008 L 4404.091 3304.809 L 4402.892 3304.809 L 4401.692 3308.408 L 4402.892 3313.208 L 4401.692 3314.408 L 4400.492 3313.208 L 4399.292 3315.608 L 4399.292 3316.808 L 4398.092 3319.208 L 4398.092 3320.408 L 4396.892 3322.808 L 4398.092 3324.008 L 4396.892 3324.008 L 4395.692 3322.808 L 4395.692 3325.208 L 4394.492 3324.008 L 4393.292 3324.008 L 4393.292 3325.208 L 4393.292 3322.808 L 4392.092 3324.008 L 4393.292 3326.408 L 4393.292 3327.608 L 4392.092 3328.808 L 4394.492 3330.008 L 4394.492 3333.608 L 4392.092 3334.808 L 4393.292 3334.808 L 4392.092 3336.008 L 4393.292 3337.208 L 4390.892 3339.608 L 4392.092 3342.007 L 4390.892 3343.207 L 4389.692 3345.607 L 4390.892 3346.807 L 4390.892 3349.207 L 4392.092 3349.207 L 4392.092 3350.407 L 4393.292 3350.407 L 4393.292 3352.807 L 4394.492 3351.607 L 4394.492 3352.807 L 4395.692 3352.807 L 4396.892 3354.007 L 4396.892 3352.807 L 4399.292 3354.007 L 4398.092 3354.007 L 4400.492 3354.007 L 4400.492 3355.207 L 4402.892 3355.207 L 4402.892 3356.407 L 4404.091 3355.207 L 4404.091 3356.407 L 4405.291 3356.407 L 4405.291 3358.807 L 4407.691 3360.007 L 4407.691 3358.807 L 4408.891 3361.207 L 4410.091 3361.207 L 4410.091 3362.407 L 4412.491 3363.607 L 4412.491 3362.407 L 4413.691 3362.407 L 4414.891 3363.607 L 4417.291 3362.407 L 4418.491 3363.607 L 4423.291 3364.807 L 4425.691 3366.007 L 4426.891 3364.807 L 4431.691 3364.807 L 4432.891 3367.207 L 4436.491 3367.207 L 4437.691 3369.607 L 4438.891 3369.607 L 4442.49 3368.407 L 4444.89 3369.607 L 4447.29 3372.007 L 4448.49 3370.807 L 4453.29 3374.407 L 4455.69 3374.407 L 4459.29 3375.607 L 4460.49 3375.607 L 4461.69 3376.807 L 4514.388 3407.906 L 4539.488 3422.305 L 4556.287 3431.905 L 4561.087 3428.305 L 4561.087 3424.705 L 4559.887 3421.105 L 4561.087 3418.705 L 4559.887 3416.305 L 4561.087 3413.905 L 4558.687 3410.306 L 4559.887 3407.906 L 4561.087 3405.506 L 4561.087 3403.106 L 4558.687 3401.906 L 4558.687 3400.706 L 4562.287 3393.506 L 4564.687 3391.106 L 4568.287 3386.306 L 4571.887 3380.306 L 4573.087 3380.306 L 4573.087 3377.906 L 4571.887 3377.906 L 4571.887 3376.707 L 4574.287 3371.907 L 4575.487 3370.707 L 4576.687 3370.707 L 4576.687 3369.507 L 4577.887 3367.107 L 4577.887 3363.507 L 4580.287 3362.307 L 4580.287 3361.107 L 4581.487 3359.907 L 4582.687 3358.707 L 4583.886 3359.907 L 4585.086 3358.707 L 4587.486 3357.507 L 4587.486 3355.107 L 4588.686 3353.907 L 4592.286 3351.507 L 4594.686 3349.107 L 4595.886 3349.107 L 4597.086 3345.507 L 4600.686 3343.107 L 4603.086 3351.507 L 4604.286 3351.507 L 4606.686 3353.907 L 4610.286 3353.907 L 4609.086 3355.107 L 4609.086 3357.507 L 4606.686 3359.907 L 4607.886 3361.107 L 4606.686 3361.107 L 4606.686 3362.307 L 4607.886 3364.707 L 4612.686 3364.707 L 4612.686 3365.907 L 4613.886 3365.907 L 4616.286 3364.707 L 4617.486 3364.707 L 4618.686 3365.907 L 4619.885 3367.107 L 4621.085 3369.507 L 4624.685 3371.907 L 4625.885 3374.307 L 4642.685 3349.207 L 4643.885 3348.007 L 4645.085 3348.007 L 4643.885 3346.807 L 4645.085 3345.607 L 4646.285 3346.807 L 4648.685 3346.807 L 4648.685 3349.207 L 4649.885 3350.407 L 4648.685 3352.807 L 4649.885 3354.007 L 4651.085 3354.007 L 4651.085 3352.807 L 4652.285 3354.007 L 4653.485 3354.007 L 4653.485 3355.207 L 4654.685 3356.407 L 4654.685 3357.607 L 4655.884 3357.607 L 4657.084 3358.807 L 4658.284 3358.807 L 4658.284 3361.207 L 4659.484 3361.207 L 4659.484 3360.007 L 4663.084 3363.607 L 4664.284 3364.807 L 4665.484 3364.807 L 4666.684 3367.207 L 4667.884 3367.207 L 4669.084 3369.607 L 4667.884 3372.007 L 4669.084 3374.407 L 4669.084 3380.406 L 4670.284 3380.406 L 4671.484 3382.806 L 4672.684 3381.606 L 4673.884 3382.806 L 4673.884 3381.606 L 4676.284 3381.606 L 4676.284 3382.806 L 4677.484 3382.806 L 4677.484 3380.406 L 4678.684 3380.406 L 4679.884 3382.806 L 4681.084 3381.606 L 4682.284 3382.806 L 4682.284 3384.006 L 4685.884 3384.006 L 4685.884 3387.606 L 4687.084 3391.206 L 4689.484 3391.206 L 4690.684 3392.406 L 4691.883 3392.406 L 4691.883 3396.006 L 4693.083 3396.006 L 4693.083 3397.206 L 4694.283 3399.606 L 4693.083 3400.806 L 4695.483 3400.806 L 4696.683 3404.406 L 4695.483 3405.606 L 4695.483 3408.006 L 4694.283 3408.006 L 4694.283 3409.206 L 4693.083 3409.206 L 4694.283 3410.406 L 4694.283 3412.806 L 4696.683 3414.005 L 4695.483 3415.205 L 4696.683 3416.405 L 4695.483 3416.405 L 4695.483 3422.405 L 4693.083 3424.805 L 4691.883 3424.805 L 4693.083 3427.205 L 4694.283 3428.405 L 4694.283 3429.605 L 4693.083 3433.205 L 4691.883 3435.605 L 4695.483 3439.205 L 4697.883 3439.205 L 4700.283 3436.805 L 4700.283 3433.205 L 4699.083 3432.005 L 4700.283 3428.405 L 4700.283 3424.805 L 4701.483 3423.605 L 4700.283 3422.405 L 4700.283 3418.805 L 4702.683 3417.605 L 4705.083 3416.405 L 4705.083 3415.205 L 4706.283 3412.806 L 4706.283 3408.006 L 4708.683 3405.606 L 4711.083 3406.806 L 4712.283 3408.006 L 4713.483 3408.006 L 4713.483 3405.606 L 4714.683 3406.806 L 4714.683 3408.006 L 4715.883 3411.606 L 4714.683 3411.606 L 4714.683 3416.405 L 4713.483 3417.605 L 4714.683 3418.805 L 4714.683 3424.805 L 4715.883 3424.805 L 4715.883 3426.005 L 4718.283 3427.205 L 4717.083 3427.205 L 4717.083 3428.405 L 4718.283 3429.605 L 4717.083 3429.605 L 4717.083 3433.205 L 4719.483 3433.205 L 4720.683 3435.605 L 4721.883 3434.405 L 4721.883 3432.005 L 4723.083 3430.805 L 4724.283 3432.005 L 4726.683 3430.805 L 4729.082 3430.805 L 4730.282 3429.605 L 4730.282 3430.805 L 4731.482 3428.405 L 4732.682 3428.405 L 4732.682 3427.205 L 4733.882 3427.205 L 4735.082 3426.005 L 4736.282 3426.005 L 4737.482 3427.205 L 4738.682 3427.205 L 4737.482 3426.005 L 4738.682 3424.805 L 4737.482 3423.605 L 4742.282 3423.605 L 4742.282 3424.805 L 4744.682 3424.805 L 4744.682 3423.605 L 4743.482 3423.605 L 4744.682 3423.605 L 4743.482 3423.605 L 4747.082 3422.405 L 4747.082 3418.805 L 4749.482 3418.805 L 4749.482 3417.605 L 4749.482 3420.005 L 4750.682 3418.805 L 4751.882 3418.805 L 4751.882 3417.605 L 4754.282 3417.605 L 4755.482 3416.405 L 4755.482 3415.205 L 4756.682 3415.205 L 4757.882 3412.806 L 4759.082 3414.005 L 4760.282 3412.806 L 4761.482 3414.005 L 4763.882 3412.806 L 4763.882 3411.606 L 4765.081 3410.406 L 4766.281 3410.406 L 4767.481 3409.206 L 4769.881 3410.406 L 4771.081 3410.406 L 4772.281 3409.206 L 4772.281 3410.406 L 4771.081 3411.606 L 4771.081 3414.005 L 4769.881 3415.205 L 4769.881 3420.005 L 4771.081 3422.405 L 4769.881 3423.605 L 4768.681 3424.805 L 4768.681 3426.005 L 4769.881 3427.205 L 4771.081 3427.205 L 4771.081 3433.205 L 4768.681 3436.805 L 4768.681 3438.005 L 4769.881 3436.805 L 4771.081 3438.005 L 4771.081 3436.805 L 4772.281 3438.005 L 4773.481 3436.805 L 4777.081 3435.605 L 4777.081 3434.405 L 4778.281 3435.605 L 4779.481 3434.405 L 4780.681 3435.605 L 4781.881 3434.405 L 4784.281 3434.405 L 4784.281 3430.805 L 4785.481 3430.805 L 4784.281 3426.005 L 4785.481 3424.805 L 4785.481 3426.005 L 4787.881 3424.805 L 4787.881 3426.005 L 4789.081 3424.805 L 4789.081 3428.405 L 4792.681 3428.405 L 4793.881 3429.605 L 4792.681 3430.805 L 4792.681 3432.005 L 4793.881 3430.805 L 4795.081 3433.205 L 4798.681 3432.005 L 4801.08 3432.005 L 4802.28 3435.605 L 4803.48 3436.805 L 4803.48 3438.005 L 4804.68 3439.205 L 4805.88 3438.005 L 4808.28 3438.005 L 4809.48 3434.405 L 4810.68 3435.605 L 4813.08 3435.605 L 4813.08 3436.805 L 4813.08 3435.605 L 4814.28 3435.605 L 4815.48 3436.805 L 4815.48 3439.205 L 4816.68 3439.205 L 4817.88 3438.005 L 4817.88 3439.205 L 4819.08 3440.405 L 4821.48 3440.405 L 4822.68 3439.205 L 4826.28 3440.405 L 4829.88 3439.205 L 4833.48 3441.605 L 4833.48 3442.805 L 4855.079 3466.704 L 4856.279 3463.104 L 4857.479 3460.704 L 4858.679 3459.504 L 4859.879 3457.104 L 4861.079 3455.904 L 4862.279 3453.504 L 4863.479 3453.504 L 4864.679 3452.304 L 4864.679 3448.705 L 4862.279 3448.705 L 4859.879 3446.305 L 4859.879 3443.905 L 4858.679 3440.305 L 4859.879 3439.105 L 4858.679 3436.705 L 4858.679 3431.905 L 4859.879 3431.905 L 4862.279 3429.505 L 4861.079 3427.105 L 4861.079 3425.905 L 4858.679 3424.705 L 4859.879 3423.505 L 4859.879 3422.305 L 4857.479 3421.105 L 4857.479 3419.905 L 4858.679 3419.905 L 4857.479 3418.705 L 4858.679 3417.505 L 4857.479 3417.505 L 4858.679 3416.305 L 4859.879 3413.905 L 4856.279 3412.706 L 4858.679 3411.506 L 4859.879 3410.306 L 4859.879 3409.106 L 4861.079 3409.106 L 4861.079 3406.706 L 4859.879 3405.506 L 4861.079 3405.506 L 4861.079 3404.306 L 4862.279 3403.106 L 4863.479 3400.706 L 4864.679 3401.906 L 4865.879 3400.706 L 4870.679 3403.106 L 4874.278 3403.106 L 4875.478 3404.306 L 4874.278 3409.106 L 4875.478 3415.105 L 4879.078 3416.305 L 4881.478 3415.105 L 4882.678 3415.105 L 4885.078 3416.305 L 4886.278 3416.305 L 4888.678 3415.105 L 4891.078 3415.105 L 4888.678 3419.905 L 4888.678 3422.305 L 4893.478 3423.505 L 4895.878 3422.305 L 4898.278 3423.505 L 4899.478 3424.705 L 4895.878 3425.905 L 4894.678 3427.105 L 4898.278 3430.705 L 4898.278 3433.105 L 4899.478 3434.305 L 4900.678 3434.305 L 4901.878 3430.705 L 4905.478 3429.505 L 4905.478 3427.105 L 4906.678 3425.905 L 4907.878 3425.905 L 4909.077 3423.505 L 4910.277 3424.705 L 4912.677 3427.105 L 4915.077 3427.105 L 4918.677 3428.305 L 4919.877 3427.105 L 4923.477 3427.105 L 4923.477 3428.305 L 4924.677 3428.305 L 4923.477 3429.505 L 4925.877 3429.505 L 4927.077 3427.105 L 4928.277 3427.105 L 4928.277 3424.705 L 4930.677 3424.705 L 4931.877 3423.505 L 4930.677 3419.905 L 4934.277 3418.705 L 4934.277 3417.505 L 4936.677 3417.505 L 4937.877 3416.305 L 4940.277 3417.505 L 4942.677 3416.305 L 4943.877 3417.505 L 4942.677 3418.705 L 4945.076 3419.905 L 4946.276 3418.705 L 4948.676 3419.905 L 4951.076 3418.705 L 4951.076 3416.305 L 4949.876 3416.305 L 4952.276 3413.905 L 4954.676 3413.905 L 4955.876 3412.706 L 4955.876 3415.105 L 4957.076 3415.105 L 4957.076 3413.905 L 4958.276 3412.706 L 4959.476 3413.905 L 4959.476 3415.105 L 4960.676 3413.905 L 4960.676 3411.506 L 4963.076 3411.506 L 4963.076 3410.306 L 4964.276 3411.506 L 4966.676 3410.306 L 4967.876 3409.106 L 4969.076 3409.106 L 4971.476 3407.906 L 4973.876 3407.906 L 4973.876 3404.306 L 4977.476 3404.306 L 4977.476 3405.506 L 4978.676 3405.506 L 4978.676 3404.306 L 4981.075 3401.906 L 4983.475 3401.906 L 4984.675 3399.506 L 4988.275 3398.306 L 4988.275 3397.106 L 4990.675 3394.706 L 4993.075 3393.506 L 4994.275 3391.106 L 4996.675 3391.106 L 4996.675 3393.506 L 4997.875 3392.306 L 4997.875 3394.706 L 5001.475 3393.506 L 5001.475 3391.106 L 5002.675 3391.106 L 5002.675 3389.906 L 5003.875 3387.506 L 5005.075 3387.506 L 5005.075 3385.106 L 5007.475 3383.906 L 5006.275 3382.706 L 5007.475 3382.706 L 5019.474 3375.507 L 5039.874 3376.707 L 5072.173 3376.707 L 5072.173 3371.907 L 5073.373 3370.707 L 5074.573 3369.507 L 5075.773 3369.507 L 5078.173 3349.207 L 5079.373 3350.407 L 5079.373 3354.007 L 5080.573 3354.007 L 5081.773 3355.207 L 5084.173 3354.007 L 5085.373 3355.207 L 5085.373 3354.007 L 5085.373 3356.407 L 5087.773 3357.607 L 5086.573 3360.007 L 5087.773 3360.007 L 5086.573 3361.207 L 5087.773 3362.407 L 5086.573 3363.607 L 5087.773 3364.807 L 5087.773 3369.607 L 5086.573 3370.807 L 5086.573 3374.407 L 5085.373 3375.607 L 5086.573 3376.807 L 5085.373 3379.206 L 5087.773 3380.406 L 5092.572 3379.206 L 5092.572 3378.006 L 5097.372 3378.006 L 5100.972 3376.807 L 5102.172 3375.607 L 5103.372 3376.807 L 5109.372 3374.407 L 5109.372 3375.607 L 5112.972 3374.407 L 5117.772 3374.407 L 5118.972 3373.207 L 5120.172 3372.007 L 5120.172 3370.807 L 5123.772 3369.607 L 5126.171 3370.807 L 5130.971 3368.407 L 5132.171 3367.207 L 5132.171 3369.607 L 5129.771 3374.407 L 5127.371 3375.607 L 5124.972 3378.006 L 5122.572 3378.006 L 5121.372 3379.206 L 5117.772 3380.406 L 5116.572 3381.606 L 5115.372 3381.606 L 5114.172 3382.806 L 5112.972 3382.806 L 5110.572 3381.606 L 5108.172 3381.606 L 5106.972 3382.806 L 5103.372 3384.006 L 5103.372 3386.406 L 5102.172 3387.606 L 5102.172 3390.006 L 5100.972 3391.206 L 5099.772 3393.606 L 5098.572 3396.006 L 5094.972 3399.606 L 5096.172 3402.006 L 5097.372 3404.406 L 5098.572 3404.406 L 5099.772 3405.606 L 5099.772 3409.206 L 5097.372 3410.406 L 5098.572 3412.806 L 5096.172 3414.005 L 5097.372 3415.205 L 5098.572 3415.205 L 5098.572 3418.805 L 5096.172 3420.005 L 5096.172 3422.405 L 5094.972 3426.005 L 5093.772 3427.205 L 5093.772 3428.405 L 5098.572 3428.405 L 5098.572 3433.205 L 5096.172 3436.805 L 5099.772 3439.205 L 5100.972 3439.205 L 5100.972 3441.605 L 5102.172 3445.205 L 5104.572 3445.205 L 5109.372 3442.805 L 5112.972 3439.205 L 5115.372 3440.405 L 5121.372 3439.205 L 5128.571 3434.405 L 5129.771 3433.205 L 5132.171 3433.205 L 5134.571 3432.005 L 5140.571 3429.605 L 5142.971 3430.805 L 5144.171 3432.005 L 5144.171 3433.205 L 5142.971 3438.005 L 5136.971 3441.605 L 5134.571 3442.805 L 5132.171 3447.605 L 5129.771 3448.805 L 5128.571 3450.004 L 5124.972 3451.204 L 5121.372 3452.404 L 5117.772 3453.604 L 5114.172 3454.804 L 5112.972 3457.204 L 5109.372 3459.604 L 5109.372 3462.004 L 5111.772 3460.804 L 5112.972 3463.204 L 5115.372 3466.804 L 5115.372 3468.004 L 5111.772 3469.204 L 5111.772 3470.404 L 5112.972 3470.404 L 5112.972 3472.804 L 5111.772 3475.204 L 5109.372 3477.604 L 5110.572 3480.004 L 5109.372 3482.404 L 5110.572 3484.804 L 5111.772 3486.003 L 5112.972 3484.804 L 5114.172 3486.003 L 5118.972 3484.804 L 5122.572 3488.403 L 5123.772 3489.603 L 5118.972 3494.403 L 5114.172 3496.803 L 5112.972 3499.203 L 5111.772 3499.203 L 5109.372 3501.603 L 5106.972 3506.403 L 5105.772 3507.603 L 5106.972 3508.803 L 5109.372 3510.003 L 5110.572 3511.203 L 5110.572 3512.403 L 5109.372 3512.403 L 5104.572 3516.003 L 5104.572 3517.203 L 5106.972 3518.403 L 5110.572 3517.203 L 5112.972 3522.002 L 5111.772 3523.202 L 5103.372 3525.602 L 5102.172 3526.802 L 5105.772 3529.202 L 5104.572 3531.602 L 5104.572 3532.802 L 5108.172 3532.802 L 5110.572 3535.202 L 5110.572 3537.602 L 5105.772 3546.002 L 5105.772 3550.802 L 5104.572 3554.402 L 5110.572 3558.001 L 5112.972 3559.201 L 5114.172 3560.401 L 5112.972 3564.001 L 5115.372 3566.401 L 5114.172 3567.601 L 5111.772 3572.401 L 5108.172 3574.801 L 5110.572 3574.801 L 5111.772 3577.201 L 5109.372 3580.801 L 5108.172 3580.801 L 5106.972 3579.601 L 5104.572 3582.001 L 5106.972 3583.201 L 5110.572 3583.201 L 5114.172 3585.601 L 5116.572 3585.601 L 5116.572 3590.401 L 5118.972 3591.601 L 5124.972 3592.801 L 5128.571 3591.601 L 5130.971 3592.801 L 5132.171 3595.2 L 5130.971 3598.8 L 5134.571 3598.8 L 5134.571 3601.2 L 5135.771 3601.2 L 5138.171 3600 L 5140.571 3598.8 L 5142.971 3601.2 L 5140.571 3606 L 5144.171 3608.4 L 5146.571 3608.4 L 5147.771 3610.8 L 5147.771 3612 L 5148.971 3612 L 5150.171 3610.8 L 5152.571 3610.8 L 5153.771 3612 L 5152.571 3614.4 L 5156.171 3614.4 L 5158.571 3615.6 L 5159.771 3622.7 L 5160.971 3623.9 L 5162.17 3626.3 L 5164.57 3627.5 L 5166.97 3627.5 L 5168.17 3628.7 L 5166.97 3631.099 L 5166.97 3632.299 L 5165.77 3633.499 L 5164.57 3634.699 L 5164.57 3638.299 L 5163.37 3639.499 L 5160.971 3639.499 L 5158.571 3641.899 L 5157.371 3641.899 L 5156.171 3643.099 L 5152.571 3641.899 L 5150.171 3638.299 L 5148.971 3639.499 L 5148.971 3640.699 L 5150.171 3640.699 L 5150.171 3641.899 L 5151.371 3643.099 L 5151.371 3645.499 L 5150.171 3646.699 L 5148.971 3649.099 L 5150.171 3650.299 L 5152.571 3652.699 L 5152.571 3655.099 L 5151.371 3656.299 L 5152.571 3656.299 L 5151.371 3657.499 L 5152.571 3658.699 L 5154.971 3661.099 L 5156.171 3662.299 L 5154.971 3663.499 L 5152.571 3662.299 L 5153.771 3664.699 L 5152.571 3664.699 L 5153.771 3665.899 L 5153.771 3667.098 L 5152.571 3667.098 L 5153.771 3667.098 L 5154.971 3668.298 L 5153.771 3671.898 L 5151.371 3673.098 L 5154.971 3676.698 L 5154.971 3677.898 L 5152.571 3680.298 L 5153.771 3681.498 L 5153.771 3683.898 L 5151.371 3685.098 L 5150.171 3685.098 L 5150.171 3683.898 L 5150.171 3685.098 L 5147.771 3685.098 L 5147.771 3687.498 L 5146.571 3688.698 L 5147.771 3689.898 L 5150.171 3692.298 L 5151.371 3692.298 L 5151.371 3697.098 L 5150.171 3697.098 L 5150.171 3709.097 L 5148.971 3710.297 L 5147.771 3711.497 L 5147.771 3712.697 L 5145.371 3713.897 L 5142.971 3715.097 L 5142.971 3716.297 L 5144.171 3716.297 L 5146.571 3719.897 L 5145.371 3723.497 L 5144.171 3723.497 L 5142.971 3725.897 L 5140.571 3729.497 L 5138.171 3728.297 L 5136.971 3733.097 L 5135.771 3734.297 L 5132.171 3734.297 L 5130.971 3731.897 L 5128.571 3731.897 L 5127.371 3733.097 L 5126.171 3733.097 L 5123.772 3730.697 L 5123.772 3729.497 L 5122.572 3729.497 L 5123.772 3733.097 L 5120.172 3736.697 L 5115.372 3734.297 L 5114.172 3734.297 L 5114.172 3735.497 L 5111.772 3735.497 L 5110.572 3731.897 L 5108.172 3731.897 L 5105.772 3733.097 L 5100.972 3733.097 L 5099.772 3731.897 L 5099.772 3729.497 L 5097.372 3729.497 L 5096.172 3728.297 L 5094.972 3728.297 L 5096.172 3725.897 L 5096.172 3724.697 L 5097.372 3723.497 L 5098.572 3719.897 L 5096.172 3719.897 L 5094.972 3718.697 L 5094.972 3712.697 L 5092.572 3712.697 L 5092.572 3710.297 L 5088.973 3709.097 L 5087.773 3709.097 L 5086.573 3707.897 L 5085.373 3707.897 L 5080.573 3703.097 L 5075.773 3700.698 L 5073.373 3697.098 L 5069.773 3697.098 L 5068.573 3693.498 L 5068.573 3692.298 L 5064.973 3693.498 L 5062.573 3692.298 L 5061.373 3694.698 L 5062.573 3697.098 L 5061.373 3698.298 L 5060.173 3699.498 L 5056.573 3700.698 L 5055.373 3700.698 L 5055.373 3704.297 L 5051.774 3706.697 L 5051.774 3709.097 L 5052.974 3711.497 L 5052.974 3713.897 L 5056.573 3715.097 L 5057.773 3715.097 L 5060.173 3718.697 L 5057.773 3724.697 L 5056.573 3727.097 L 5055.373 3733.097 L 5056.573 3735.497 L 5056.573 3737.897 L 5057.773 3739.096 L 5060.173 3740.296 L 5060.173 3742.696 L 5058.973 3743.896 L 5057.773 3747.496 L 5060.173 3748.696 L 5060.173 3749.896 L 5061.373 3751.096 L 5062.573 3755.896 L 5061.373 3757.096 L 5058.973 3755.896 L 5057.773 3755.896 L 5055.373 3758.296 L 5054.173 3758.296 L 5052.974 3759.496 L 5050.574 3761.896 L 5048.174 3760.696 L 5045.774 3761.896 L 5044.574 3761.896 L 5040.974 3763.096 L 5038.574 3761.896 L 5036.174 3760.696 L 5031.374 3757.096 L 5027.774 3755.896 L 5022.974 3753.496 L 5018.174 3752.296 L 5013.375 3749.896 L 5006.175 3748.696 L 5000.175 3747.496 L 4998.975 3749.896 L 4989.375 3755.896 L 4988.175 3757.096 L 4988.175 3759.496 L 4990.575 3761.896 L 4992.975 3763.096 L 4992.975 3765.496 L 4995.375 3766.696 L 4994.175 3767.896 L 4992.975 3770.296 L 4990.575 3775.095 L 4989.375 3778.695 L 4985.775 3783.495 L 4986.975 3787.095 L 4985.775 3788.295 L 4988.175 3793.095 L 4990.575 3790.695 L 4991.775 3789.495 L 4994.175 3789.495 L 4994.175 3797.895 L 4997.775 3797.895 L 5003.775 3805.095 L 5002.575 3809.895 L 5000.175 3809.895 L 4997.775 3812.294 L 5001.375 3813.494 L 5001.375 3814.694 L 4998.975 3817.094 L 4995.375 3818.294 L 4992.975 3819.494 L 4990.575 3821.894 L 4986.975 3826.694 L 4986.975 3833.794 L 4984.575 3840.994 L 4984.575 3849.393 L 4989.375 3852.993 L 4992.975 3854.193 L 4995.375 3856.593 L 4996.575 3856.593 L 4996.575 3857.793 L 5001.375 3858.993 L 5001.375 3860.193 L 5000.175 3862.593 L 5001.375 3864.993 L 5000.175 3870.993 L 5002.575 3875.793 L 5006.175 3879.393 L 5006.175 3882.992 L 5008.575 3888.992 L 5006.175 3893.792 L 5007.375 3894.992 L 5006.175 3896.192 L 5009.775 3902.192 L 5009.775 3904.592 L 5008.575 3905.792 L 5008.575 3906.992 L 5006.175 3906.992 L 4982.275 3912.992 L 4965.476 3916.592 L 4960.676 3920.191 L 4959.476 3921.391 L 4958.276 3920.191 L 4957.076 3921.391 L 4955.876 3920.191 L 4953.476 3917.792 L 4951.076 3918.992 L 4952.276 3916.592 L 4951.076 3915.392 L 4949.876 3915.392 L 4951.076 3915.392 L 4949.876 3916.592 L 4948.676 3916.592 L 4948.676 3917.792 L 4947.476 3917.792 L 4947.476 3918.992 L 4946.276 3917.792 L 4945.076 3920.191 L 4946.276 3920.191 L 4945.076 3920.191 L 4945.076 3921.391 L 4946.276 3921.391 L 4945.076 3921.391 L 4946.276 3922.591 L 4945.076 3922.591 L 4946.276 3922.591 L 4945.076 3923.791 L 4943.877 3923.791 L 4942.677 3922.591 L 4942.677 3924.991 L 4940.277 3924.991 L 4940.277 3926.191 L 4939.077 3926.191 L 4939.077 3927.391 L 4937.877 3928.591 L 4936.677 3929.791 L 4936.677 3930.991 L 4933.077 3930.991 L 4930.677 3932.191 L 4929.477 3930.991 L 4925.877 3930.991 L 4925.877 3929.791 L 4925.877 3930.991 L 4924.677 3929.791 L 4924.677 3930.991 L 4922.277 3930.991 L 4922.277 3932.191 L 4922.277 3930.991 L 4922.277 3933.391 L 4919.877 3934.591 L 4921.077 3934.591 L 4918.677 3934.591 L 4918.677 3933.391 L 4917.477 3933.391 L 4916.277 3930.991 L 4915.077 3932.191 L 4915.077 3930.991 L 4913.877 3930.991 L 4913.877 3929.791 L 4911.477 3929.791 L 4911.477 3928.591 L 4910.277 3928.591 L 4910.277 3927.391 L 4909.077 3927.391 L 4909.077 3920.291 L 4910.277 3920.291 L 4910.277 3917.892 L 4909.077 3916.692 L 4911.477 3916.692 L 4911.477 3914.292 L 4910.277 3914.292 L 4910.277 3913.092 L 4911.477 3911.892 L 4909.077 3911.892 L 4910.277 3910.692 L 4909.077 3909.492 L 4909.077 3907.092 L 4907.878 3907.092 L 4909.077 3907.092 L 4910.277 3904.692 L 4910.277 3903.492 L 4909.077 3903.492 L 4910.277 3902.292 L 4910.277 3897.492 L 4911.477 3896.292 L 4912.677 3896.292 L 4912.677 3893.892 L 4913.877 3893.892 L 4913.877 3892.692 L 4915.077 3891.492 L 4916.277 3887.892 L 4917.477 3887.892 L 4917.477 3885.492 L 4918.677 3884.292 L 4918.677 3883.092 L 4918.677 3884.292 L 4918.677 3881.893 L 4919.877 3881.893 L 4919.877 3880.693 L 4918.677 3879.493 L 4918.677 3877.093 L 4919.877 3874.693 L 4919.877 3872.293 L 4918.677 3871.093 L 4917.477 3871.093 L 4916.277 3869.893 L 4917.477 3868.693 L 4917.477 3863.893 L 4916.277 3861.493 L 4918.677 3855.493 L 4919.877 3854.293 L 4918.677 3853.093 L 4917.477 3853.093 L 4913.877 3851.893 L 4909.077 3851.893 L 4907.878 3850.693 L 4907.878 3849.493 L 4906.678 3849.493 L 4904.278 3845.894 L 4901.878 3845.894 L 4901.878 3837.494 L 4762.982 3837.494 L 4762.982 3859.093 L 4760.582 3859.093 L 4758.182 3862.693 L 4756.982 3866.293 L 4755.782 3871.093 L 4755.782 3874.693 L 4758.182 3875.893 L 4760.582 3874.693 L 4761.782 3877.093 L 4762.982 3881.893 L 4761.782 3884.292 L 4760.582 3884.292 L 4756.982 3889.092 L 4755.782 3891.492 L 4750.982 3892.692 L 4748.582 3896.292 L 4748.582 3899.892 L 4749.782 3905.892 L 4750.982 3907.092 L 4749.782 3908.292 L 4749.782 3911.892 L 4750.982 3911.892 L 4750.982 3914.292 L 4749.782 3914.292 L 4749.782 3915.492 L 4750.982 3916.692 L 4752.182 3915.492 L 4754.582 3916.692 L 4754.582 3920.291 L 4752.182 3922.691 L 4753.382 3923.891 L 4752.182 3927.491 L 4750.982 3929.891 L 4750.982 3933.491 L 4749.782 3937.091 L 4749.782 3938.291 L 4831.18 3938.291 L 4855.079 3937.091 L 4920.977 3937.091 L 4920.977 3939.491 L 4919.777 3940.691 L 4920.977 3941.891 L 4920.977 3943.091 L 4919.777 3943.091 L 4919.777 3944.291 L 4918.577 3945.491 L 4918.577 3944.291 L 4917.377 3944.291 L 4917.377 3945.491 L 4916.177 3944.291 L 4916.177 3947.891 L 4914.977 3949.091 L 4916.177 3950.291 L 4914.977 3950.291 L 4914.977 3951.491 L 4912.577 3952.691 L 4913.777 3953.891 L 4913.777 3955.091 L 4914.977 3955.091 L 4913.777 3956.29 L 4914.977 3957.49 L 4913.777 3958.69 L 4914.977 3958.69 L 4916.177 3959.89 L 4916.177 3961.09 L 4914.977 3962.29 L 4916.177 3962.29 L 4917.377 3964.69 L 4916.177 3964.69 L 4917.377 3965.89 L 4918.577 3967.09 L 4917.377 3967.09 L 4918.577 3970.69 L 4917.377 3974.29 L 4916.177 3974.29 L 4916.177 3975.49 L 4913.777 3976.69 L 4912.577 3979.09 L 4913.777 3980.29 L 4912.577 3981.49 L 4912.577 3983.89 L 4911.377 3985.09 L 4910.177 3988.69 L 4908.977 3988.69 L 4907.778 3991.09 L 4904.178 3997.089 L 4901.778 3998.289 L 4900.578 3999.489 L 4899.378 4000.689 L 4900.578 4005.489 L 4899.378 4009.089 L 4896.978 4010.289 L 4895.778 4012.689 L 4894.578 4013.889 L 4894.578 4020.989 L 4895.778 4022.189 L 4896.978 4024.589 L 4896.978 4026.989 L 4899.378 4026.989 L 4898.178 4028.188 L 4899.378 4029.388 L 4899.378 4028.188 L 4900.578 4029.388 L 4901.778 4028.188 L 4902.978 4029.388 L 4901.778 4030.588 L 4902.978 4030.588 L 4901.778 4031.788 L 4902.978 4031.788 L 4901.778 4032.988 L 4905.378 4032.988 L 4905.378 4034.188 L 4906.578 4035.388 L 4906.578 4034.188 L 4908.977 4034.188 L 4908.977 4037.788 L 4910.177 4037.788 L 4910.177 4036.588 L 4912.577 4035.388 L 4912.577 4036.588 L 4914.977 4036.588 L 4914.977 4037.788 L 4916.177 4037.788 L 4914.977 4037.788 L 4916.177 4038.988 L 4914.977 4040.188 L 4916.177 4041.388 L 4918.577 4038.988 L 4918.577 4037.788 L 4919.777 4038.988 L 4918.577 4041.388 L 4919.777 4040.188 L 4920.977 4042.588 L 4920.977 4043.788 L 4922.177 4042.588 L 4923.377 4042.588 L 4923.377 4044.988 L 4924.577 4043.788 L 4924.577 4046.188 L 4925.777 4046.188 L 4925.777 4048.588 L 4926.977 4049.788 L 4928.177 4048.588 L 4929.377 4047.388 L 4930.577 4049.788 L 4929.377 4049.788 L 4930.577 4049.788 L 4931.777 4050.988 L 4929.377 4052.188 L 4930.577 4053.388 L 4931.777 4052.188 L 4931.777 4055.788 L 4930.577 4056.988 L 4932.977 4056.988 L 4935.377 4058.188 L 4935.377 4061.788 L 4934.177 4061.788 L 4935.377 4062.988 L 4934.177 4064.187 L 4932.977 4066.587 L 4934.177 4067.787 L 4935.377 4067.787 L 4934.177 4067.787 L 4934.177 4070.187 L 4936.577 4070.187 L 4936.577 4076.187 L 4938.977 4077.387 L 4937.777 4078.587 L 4937.777 4079.787 L 4941.377 4078.587 L 4938.977 4080.987 L 4940.177 4084.587 L 4940.177 4085.787 L 4937.777 4085.787 L 4938.977 4088.187 L 4940.177 4088.187 L 4940.177 4089.387 L 4941.377 4089.387 L 4940.177 4090.587 L 4938.977 4090.587 L 4940.177 4091.787 L 4941.377 4091.787 L 4940.177 4094.187 L 4942.577 4092.987 L 4943.777 4092.987 L 4944.976 4095.387 L 4946.176 4095.387 L 4947.376 4096.587 L 4943.777 4097.787 L 4944.976 4098.987 L 4944.976 4100.186 L 4946.176 4098.987 L 4947.376 4100.186 L 4946.176 4101.386 L 4948.576 4102.586 L 4947.376 4103.786 L 4948.576 4104.986 L 4949.776 4103.786 L 4949.776 4104.986 L 4952.176 4106.186 L 4953.376 4107.386 L 4952.176 4108.586 L 4948.576 4109.786 L 4950.976 4109.786 L 4950.976 4110.986 L 4949.776 4110.986 L 4949.776 4112.186 L 4952.176 4110.986 L 4952.176 4112.186 L 4949.776 4113.386 L 4950.976 4114.586 L 4948.576 4114.586 L 4949.776 4115.786 L 4948.576 4115.786 L 4948.576 4116.986 L 4947.376 4115.786 L 4947.376 4116.986 L 4947.376 4115.786 L 4946.176 4116.986 L 4946.176 4118.186 L 4944.976 4118.186 L 4946.176 4119.386 L 4943.777 4118.186 L 4943.777 4116.986 L 4942.577 4116.986 L 4942.577 4120.586 L 4943.777 4120.586 L 4942.577 4121.786 L 4942.577 4120.586 L 4941.377 4121.786 L 4940.177 4121.786 L 4940.177 4122.986 L 4941.377 4122.986 L 4940.177 4124.186 L 4938.977 4122.986 L 4937.777 4124.186 L 4938.977 4125.386 L 4935.377 4124.186 L 4935.377 4125.386 L 4934.177 4125.386 L 4934.177 4126.586 L 4935.377 4126.586 L 4934.177 4126.586 L 4932.977 4125.386 L 4931.777 4126.586 L 4931.777 4125.386 L 4931.777 4128.986 L 4930.577 4128.986 L 4929.377 4127.786 L 4929.377 4128.986 L 4928.177 4127.786 L 4928.177 4131.386 L 4926.977 4128.986 L 4925.777 4131.386 L 4926.977 4132.586 L 4925.777 4132.586 L 4925.777 4133.786 L 4924.577 4134.986 L 4925.777 4137.385 L 4923.377 4136.185 L 4920.977 4137.385 L 4922.177 4138.585 L 4920.977 4139.785 L 4919.777 4137.385 L 4917.377 4138.585 L 4917.377 4137.385 L 4916.177 4138.585 L 4917.377 4139.785 L 4916.177 4140.985 L 4912.577 4140.985 L 4913.777 4142.185 L 4912.577 4143.385 L 4914.977 4144.585 L 4911.377 4144.585 L 4912.577 4145.785 L 4913.777 4146.985 L 4913.777 4148.185 L 4912.577 4148.185 L 4912.577 4146.985 L 4911.377 4148.185 L 4911.377 4150.585 L 4907.778 4150.585 L 4906.578 4151.785 L 4907.778 4154.185 L 4906.578 4154.185 L 4907.778 4155.385 L 4906.578 4156.585 L 4905.378 4155.385 L 4902.978 4155.385 L 4902.978 4157.785 L 4900.578 4157.785 L 4901.778 4158.985 L 4901.778 4160.185 L 4898.178 4161.385 L 4898.178 4162.585 L 4899.378 4162.585 L 4900.578 4163.785 L 4900.578 4164.985 L 4899.378 4166.185 L 4900.578 4168.585 L 4900.578 4169.785 L 4898.178 4168.585 L 4896.978 4169.785 L 4895.778 4169.785 L 4895.778 4170.985 L 4894.578 4170.985 L 4896.978 4173.384 L 4895.778 4174.584 L 4895.778 4173.384 L 4893.378 4173.384 L 4894.578 4174.584 L 4893.378 4175.784 L 4892.178 4173.384 L 4888.578 4174.584 L 4888.578 4173.384 L 4887.378 4173.384 L 4887.378 4172.184 L 4884.978 4170.985 L 4884.978 4169.785 L 4884.978 4172.184 L 4886.178 4172.184 L 4882.578 4174.584 L 4883.778 4175.784 L 4883.778 4179.384 L 4882.578 4180.584 L 4881.378 4179.384 L 4881.378 4181.784 L 4880.178 4181.784 L 4881.378 4182.984 L 4881.378 4184.184 L 4882.578 4184.184 L 4882.578 4185.384 L 4880.178 4185.384 L 4881.378 4186.584 L 4881.378 4187.784 L 4882.578 4187.784 L 4882.578 4191.384 L 4880.178 4191.384 L 4878.978 4193.784 L 4880.178 4193.784 L 4883.778 4194.984 L 4884.978 4197.384 L 4886.178 4198.584 L 4886.178 4205.784 L 4887.378 4205.784 L 4888.578 4206.984 L 4890.978 4203.384 L 4892.178 4208.183 L 4894.578 4208.183 L 4895.778 4206.984 L 4901.778 4205.784 L 4904.178 4204.584 L 4906.578 4204.584 L 4908.977 4205.784 L 4912.577 4206.984 L 4916.177 4205.784 L 4918.577 4206.984 L 4919.777 4209.383 L 4920.977 4211.783 L 4924.577 4215.383 L 4926.977 4218.983 L 4928.177 4221.383 L 4928.177 4227.383 L 4925.777 4227.383 L 4925.777 4230.983 L 4926.977 4230.983 L 4926.977 4233.383 L 4924.577 4235.783 L 4922.177 4235.783 L 4922.177 4236.983 L 4920.977 4236.983 L 4919.777 4238.183 L 4919.777 4240.583 L 4918.577 4242.983 L 4916.177 4245.382 L 4914.977 4246.582 L 4914.977 4247.782 L 4916.177 4248.982 L 4916.177 4250.182 L 4914.977 4251.382 L 4914.977 4252.582 L 4912.577 4253.782 L 4912.577 4254.982 L 4913.777 4256.182 L 4912.577 4257.382 L 4911.377 4257.382 L 4913.777 4258.582 L 4912.577 4258.582 L 4911.377 4259.782 L 4910.177 4260.982 L 4908.977 4262.182 L 4910.177 4263.382 L 4911.377 4265.782 L 4911.377 4268.182 L 4912.577 4269.382 L 4911.377 4271.782 L 4912.577 4272.982 L 4911.377 4272.982 L 4912.577 4274.182 L 4913.777 4274.182 L 4914.977 4275.382 L 4913.777 4276.582 L 4914.977 4276.582 L 4913.777 4277.782 L 4914.977 4278.982 L 4913.777 4278.982 L 4914.977 4280.182 L 4914.977 4281.381 L 4916.177 4281.381 L 4916.177 4283.781 L 4919.777 4286.181 L 4919.777 4288.581 L 4918.577 4288.581 L 4918.577 4292.181 L 4919.777 4292.181 L 4919.777 4293.381 L 4922.177 4294.581 L 4923.377 4295.781 L 4922.177 4296.981 L 4923.377 4298.181 L 4922.177 4298.181 L 4923.377 4298.181 L 4924.577 4300.581 L 4924.577 4302.981 L 4923.377 4304.181 L 4920.977 4304.181 L 4922.177 4306.581 L 4919.777 4305.381 L 4918.577 4305.381 L 4914.977 4307.781 L 4913.777 4308.981 L 4911.377 4307.781 L 4911.377 4310.181 L 4912.577 4310.181 L 4912.577 4311.381 L 4910.177 4312.581 L 4910.177 4313.781 L 4907.778 4313.781 L 4906.578 4314.981 L 4905.378 4313.781 L 4905.378 4316.181 L 4902.978 4317.38 L 4905.378 4317.38 L 4905.378 4318.58 L 4902.978 4318.58 L 4901.778 4319.78 L 4901.778 4318.58 L 4899.378 4318.58 L 4898.178 4320.98 L 4899.378 4322.18 L 4899.378 4323.38 L 4898.178 4323.38 L 4896.978 4322.18 L 4895.778 4322.18 L 4893.378 4324.58 L 4892.178 4324.58 L 4892.178 4325.78 L 4889.778 4324.58 L 4889.778 4325.78 L 4888.578 4326.98 L 4889.778 4328.18 L 4888.578 4328.18 L 4887.378 4329.38 L 4886.178 4328.18 L 4883.778 4329.38 L 4883.778 4331.78 L 4881.378 4332.98 L 4881.378 4335.38 L 4880.178 4334.18 L 4880.178 4328.18 L 4878.978 4328.18 L 4876.578 4330.58 L 4875.378 4330.58 L 4874.178 4332.98 L 4872.978 4334.18 L 4870.579 4334.18 L 4872.978 4335.38 L 4870.579 4335.38 L 4868.179 4337.78 L 4868.179 4341.38 L 4866.979 4340.18 L 4866.979 4338.98 L 4864.579 4340.18 L 4865.779 4342.58 L 4863.379 4343.78 L 4862.179 4344.98 L 4863.379 4346.18 L 4864.579 4348.58 L 4866.979 4349.78 L 4864.579 4352.18 L 4864.579 4353.379 L 4863.379 4353.379 L 4860.979 4354.579 L 4860.979 4353.379 L 4859.779 4352.18 L 4858.579 4352.18 L 4856.179 4358.179 L 4853.779 4358.179 L 4853.779 4359.379 L 4851.379 4361.779 L 4848.979 4361.779 L 4848.979 4359.379 L 4844.179 4359.379 L 4845.379 4361.779 L 4844.179 4361.779 L 4842.979 4362.979 L 4841.779 4365.379 L 4842.979 4366.579 L 4842.979 4367.779 L 4840.579 4367.779 L 4839.379 4368.979 L 4836.979 4370.179 L 4835.78 4368.979 L 4834.58 4368.979 L 4833.38 4367.779 L 4834.58 4366.579 L 4833.38 4366.579 L 4832.18 4365.379 L 4830.98 4366.579 L 4828.58 4367.779 L 4828.58 4370.179 L 4827.38 4372.579 L 4828.58 4373.779 L 4828.58 4374.979 L 4827.38 4374.979 L 4824.98 4373.779 L 4823.78 4372.579 L 4822.58 4373.779 L 4822.58 4374.979 L 4821.38 4376.179 L 4822.58 4377.379 L 4822.58 4378.579 L 4821.38 4379.779 L 4820.18 4379.779 L 4818.98 4378.579 L 4817.78 4379.779 L 4812.98 4377.379 L 4811.78 4378.579 L 4810.58 4382.179 L 4809.38 4382.179 L 4806.98 4383.379 L 4805.78 4384.579 L 4804.58 4383.379 L 4804.58 4379.779 L 4802.18 4379.779 L 4802.18 4373.779 L 4798.581 4376.179 L 4797.381 4376.179 L 4796.181 4374.979 L 4796.181 4373.779 L 4793.781 4372.579 L 4791.381 4371.379 L 4790.181 4368.979 L 4788.981 4367.779 L 4787.781 4367.779 L 4786.581 4370.179 L 4785.381 4371.379 L 4781.781 4371.379 L 4778.181 4370.179 L 4775.781 4368.979 L 4772.181 4367.779 L 4772.181 4365.379 L 4769.781 4362.979 L 4769.781 4360.579 L 4767.381 4360.579 L 4763.782 4359.379 L 4758.982 4359.379 L 4757.782 4358.179 L 4757.782 4355.779 L 4752.982 4355.779 L 4751.782 4353.379 L 4749.382 4353.379 L 4746.982 4355.779 L 4742.182 4359.379 L 4742.182 4360.579 L 4744.582 4361.779 L 4744.582 4362.979 L 4740.982 4362.979 L 4739.782 4360.579 L 4737.382 4360.579 L 4736.182 4359.379 L 4733.782 4360.579 L 4726.583 4360.579 L 4726.583 4358.179 L 4724.183 4358.179 L 4721.783 4359.379 L 4719.383 4358.179 L 4713.383 4361.779 L 4712.183 4360.579 L 4713.383 4358.179 L 4712.183 4356.979 L 4710.983 4356.979 L 4707.383 4359.379 L 4704.983 4356.979 L 4701.383 4356.979 L 4700.183 4355.779 L 4700.183 4353.379 L 4698.983 4352.18 L 4695.383 4352.18 L 4694.183 4353.379 L 4692.983 4353.379 L 4685.784 4352.18 L 4684.584 4353.379 L 4684.584 4355.779 L 4677.384 4355.779 L 4674.984 4356.979 L 4672.584 4355.779 L 4668.984 4356.979 L 4665.384 4355.779 L 4661.784 4358.179 L 4659.384 4356.979 L 4656.984 4358.179 L 4654.585 4361.779 L 4652.185 4361.779 L 4650.985 4355.779 L 4649.785 4354.579 L 4643.785 4353.379 L 4642.585 4350.98 L 4637.785 4350.98 L 4636.585 4348.58 L 4632.985 4348.58 L 4629.385 4352.18 L 4626.985 4353.379 L 4625.785 4354.579 L 4624.585 4354.579 L 4624.585 4358.179 L 4623.385 4358.179 L 4622.185 4360.579 L 4620.985 4360.579 L 4617.386 4359.379 L 4613.786 4361.779 L 4613.786 4364.179 L 4612.586 4366.579 L 4607.786 4368.979 L 4607.786 4367.779 L 4605.386 4367.779 L 4604.186 4366.579 L 4601.786 4366.579 L 4601.786 4365.379 L 4602.986 4364.179 L 4602.986 4362.979 L 4599.386 4362.979 L 4594.586 4366.579 L 4593.386 4367.779 L 4588.586 4368.979 L 4584.986 4367.779 L 4583.786 4368.979 L 4583.786 4370.179 L 4587.386 4372.579 L 4587.386 4374.979 L 4586.186 4376.179 L 4583.786 4377.379 L 4581.387 4379.779 L 4578.987 4384.579 L 4577.787 4388.179 L 4574.187 4389.378 L 4572.987 4389.378 L 4571.787 4390.578 L 4570.587 4391.778 L 4569.387 4395.378 L 4568.187 4396.578 L 4564.587 4395.378 L 4563.387 4395.378 L 4560.987 4401.378 L 4557.387 4404.978 L 4556.187 4408.578 L 4554.987 4409.778 L 4551.387 4410.978 L 4548.987 4409.778 L 4547.787 4409.778 L 4545.388 4403.778 L 4536.988 4395.378 L 4535.788 4391.778 L 4535.788 4384.579 L 4534.588 4383.379 L 4533.388 4383.379 L 4529.788 4382.179 L 4527.388 4383.379 L 4526.188 4383.379 L 4524.988 4384.579 L 4526.188 4389.378 L 4524.988 4390.578 L 4524.988 4391.778 L 4523.788 4391.778 L 4522.588 4392.978 L 4520.188 4391.778 L 4510.589 4392.978 L 4506.989 4394.178 L 4506.989 4395.378 L 4505.789 4396.578 L 4509.389 4400.178 L 4508.189 4402.578 L 4506.989 4402.578 L 4503.389 4400.178 L 4499.789 4400.178 L 4497.389 4401.378 L 4493.789 4403.778 L 4491.389 4404.978 L 4490.189 4404.978 L 4487.789 4403.778 L 4485.389 4404.978 L 4484.189 4407.378 L 4482.989 4409.778 L 4480.589 4409.778 L 4476.989 4408.578 L 4473.39 4408.578 L 4470.99 4406.178 L 4468.59 4406.178 L 4467.39 4404.978 L 4466.19 4403.778 L 4464.99 4403.778 L 4461.39 4406.178 L 4456.59 4406.178 L 4449.39 4404.978 L 4448.19 4402.578 L 4439.79 4402.578 L 4438.591 4403.778 L 4436.191 4409.778 L 4433.791 4412.178 L 4430.191 4415.778 L 4415.791 4413.378 L 4409.791 4416.978 L 4406.191 4416.978 L 4400.192 4415.778 L 4396.592 4416.978 L 4394.192 4418.178 L 4392.992 4419.378 L 4390.592 4420.578 L 4388.192 4422.978 L 4382.192 4431.377 L 4378.592 4440.977 L 4377.392 4442.177 L 4374.992 4442.177 L 4371.392 4443.377 L 4370.192 4444.577 L 4370.192 4445.777 L 4366.593 4455.377 L 4362.993 4460.177 L 4361.793 4460.177 L 4356.993 4462.576 L 4354.593 4463.776 L 4354.593 4466.176 L 4356.993 4472.176 L 4355.793 4475.776 L 4356.993 4476.976 L 4356.993 4481.776 L 4352.193 4488.976 L 4349.793 4493.776 L 4348.593 4493.776 L 4348.593 4494.976 L 4343.793 4497.375 L 4341.393 4499.775 L 4325.794 4499.775 L 4324.594 4500.975 L 4325.794 4504.575 L 4324.594 4506.975 L 4314.994 4509.375 L 4313.794 4511.775 L 4313.794 4515.375 L 4312.594 4517.775 L 4308.994 4522.575 L 4305.394 4522.575 L 4300.594 4527.375 L 4298.194 4530.975 L 4298.194 4532.175 L 4296.994 4534.574 L 4296.994 4538.174 L 4294.594 4541.774 L 4293.395 4546.574 L 4290.995 4548.974 L 4290.995 4550.174 L 4289.795 4552.574 L 4290.995 4553.774 L 4296.994 4558.574 L 4299.394 4562.174 L 4299.394 4563.374 L 4296.994 4565.774 L 4295.794 4565.774 L 4284.995 4562.174 L 4278.995 4559.774 L 4278.995 4558.574 L 4277.795 4557.374 L 4276.595 4556.174 L 4274.195 4553.774 L 4270.595 4553.774 L 4270.595 4550.174 L 4266.995 4550.174 L 4268.195 4548.974 L 4266.995 4547.774 L 4265.795 4548.974 L 4262.195 4547.774 L 4264.595 4546.574 L 4264.595 4545.374 L 4263.395 4544.174 L 4262.195 4540.574 L 4260.995 4540.574 L 4260.995 4538.174 L 4258.595 4535.774 L 4257.396 4534.574 L 4256.196 4535.774 L 4256.196 4534.574 L 4252.596 4532.175 L 4252.596 4530.975 L 4248.996 4530.975 L 4247.796 4529.775 L 4245.396 4529.775 L 4242.996 4527.375 L 4238.196 4527.375 L 4235.796 4526.175 L 4234.596 4523.775 L 4232.196 4523.775 L 4232.196 4522.575 L 4230.996 4523.775 L 4229.796 4522.575 L 4227.396 4522.575 L 4227.396 4523.775 L 4224.996 4523.775 L 4223.796 4524.975 L 4222.596 4523.775 L 4218.997 4522.575 L 4218.997 4520.175 L 4217.797 4521.375 L 4216.597 4520.175 L 4215.397 4518.975 L 4214.197 4518.975 L 4214.197 4515.375 L 4209.397 4515.375 L 4206.997 4514.175 L 4203.397 4515.375 L 4203.397 4514.175 L 4202.197 4512.975 L 4202.197 4510.575 L 4198.597 4510.575 L 4197.397 4509.375 L 4196.197 4509.375 L 4196.197 4508.175 L 4194.997 4508.175 L 4196.197 4506.975 L 4194.997 4506.975 L 4193.797 4505.775 L 4190.197 4505.775 L 4188.997 4504.575 L 4187.797 4504.575 L 4186.597 4505.775 L 4184.198 4503.375 L 4182.998 4504.575 L 4180.598 4504.575 L 4179.398 4503.375 L 4179.398 4502.175 L 4178.198 4502.175 L 4174.598 4500.975 L 4170.998 4500.975 L 4169.798 4499.775 L 4166.198 4499.775 L 4166.198 4498.575 L 4163.798 4498.575 L 4162.598 4499.775 L 4160.198 4500.975 L 4160.198 4499.775 L 4157.798 4499.775 L 4155.398 4498.575 L 4154.198 4498.575 L 4151.798 4499.775 L 4145.799 4496.176 L 4144.599 4497.375 L 4142.199 4494.976 L 4143.399 4494.976 L 4142.199 4493.776 L 4140.999 4494.976 L 4139.799 4494.976 L 4138.599 4492.576 L 4137.399 4493.776 L 4137.399 4492.576 L 4136.199 4492.576 L 4136.199 4491.376 L 4137.399 4491.376 L 4133.799 4491.376 L 4131.399 4488.976 L 4130.199 4490.176 L 4127.799 4488.976 L 4128.999 4488.976 L 4126.599 4487.776 L 4127.799 4487.776 L 4122.999 4485.376 L 4119.399 4485.376 L 4119.399 4484.176 L 4120.599 4482.976 L 4118.199 4482.976 L 4118.199 4484.176 L 4116.999 4484.176 L 4114.599 4481.776 L 4114.599 4480.576 L 4113.4 4480.576 L 4112.2 4478.176 L 4111 4478.176 L 4111 4476.976 L 4109.8 4474.576 L 4107.4 4474.576 L 4106.2 4472.176 L 4105 4472.176 L 4105 4470.976 L 4102.6 4470.976 L 4101.4 4469.776 L 4101.4 4470.976 L 4099 4470.976 L 4097.8 4469.776 L 4096.6 4468.576 L 4097.8 4470.976 L 4095.4 4470.976 L 4094.2 4469.776 L 4091.8 4469.776 L 4091.8 4468.576 L 4090.6 4469.776 L 4089.4 4470.976 L 4088.2 4472.176 L 4088.2 4470.976 L 4089.4 4469.776 L 4088.2 4468.576 L 4087 4468.576 L 4084.6 4467.376 L 4084.6 4468.576 L 4084.6 4467.376 L 4083.4 4466.176 L 4082.2 4466.176 L 4081 4464.976 L 4079.8 4466.176 L 4077.401 4466.176 L 4076.201 4464.976 L 4075.001 4464.976 L 4075.001 4463.776 L 4076.201 4463.776 L 4075.001 4463.776 L 4072.601 4461.376 L 4073.801 4461.376 L 4072.601 4460.177 L 4072.601 4457.777 L 4071.401 4456.577 L 4071.401 4457.777 L 4069.001 4456.577 L 4067.801 4456.577 L 4066.601 4455.377 L 4065.401 4455.377 L 4064.201 4454.177 L 4063.001 4452.977 L 4061.801 4452.977 L 4061.801 4450.577 L 4060.601 4449.377 L 4060.601 4448.177 L 4059.401 4448.177 L 4059.401 4446.977 L 4058.201 4446.977 L 4055.801 4448.177 L 4055.801 4446.977 L 4054.601 4448.177 L 4054.601 4446.977 L 4052.201 4445.777 L 4047.401 4445.777 L 4045.001 4443.377 L 4045.001 4444.577 L 4042.601 4443.377 L 4039.002 4443.377 L 4039.002 4445.777 L 4036.602 4445.777 L 4034.202 4444.577 L 4031.802 4443.377 L 4031.802 4442.177 L 4030.602 4442.177 L 4030.602 4440.977 L 4028.202 4440.977 L 4029.402 4440.977 L 4029.402 4438.577 L 4025.802 4438.577 L 4027.002 4437.377 L 4024.602 4437.377 L 4024.602 4436.177 L 4021.002 4432.577 L 4021.002 4431.377 L 4018.602 4430.177 L 4018.602 4427.777 L 4016.202 4426.577 L 4016.202 4425.377 L 4012.602 4418.178 L 4007.802 4418.178 L 4003.003 4415.778 L 3999.403 4414.578 L 3999.403 4413.378 L 3997.003 4412.178 L 3993.403 4412.178 L 3993.403 4413.378 L 3991.003 4414.578 L 3987.403 4416.978 L 3986.203 4418.178 L 3981.403 4418.178 L 3979.003 4419.378 L 3977.803 4418.178 L 3971.803 4416.978 L 3970.603 4416.978 L 3964.604 4419.378 L 3962.204 4418.178 L 3958.604 4418.178 L 3956.204 4416.978 L 3952.604 4416.978 L 3947.804 4414.578 L 3945.404 4415.778 L 3943.004 4414.578 L 3941.804 4414.578 L 3941.804 4413.378 L 3937.004 4410.978 L 3929.805 4409.778 L 3929.805 4406.178 L 3928.605 4404.978 L 3925.005 4404.978 L 3926.205 4402.578 L 3925.005 4400.178 L 3922.605 4397.778 L 3922.605 4395.378 L 3921.405 4392.978 L 3921.405 4391.778 L 3925.005 4386.979 L 3929.805 4385.779 L 3931.005 4382.179 L 3932.205 4379.779 L 3935.804 4377.379 L 3937.004 4372.579 L 3937.004 4371.379 L 3938.204 4370.179 L 3943.004 4370.179 L 3950.104 4368.979 L 3952.504 4364.179 L 3956.104 4360.579 L 3957.304 4356.979 L 3956.104 4355.779 L 3956.104 4354.579 L 3952.504 4352.18 L 3950.104 4350.98 L 3946.504 4349.78 L 3936.904 4349.78 L 3928.505 4347.38 L 3923.705 4347.38 L 3917.705 4348.58 L 3911.705 4352.18 L 3910.505 4356.979 L 3909.305 4356.979 L 3906.905 4355.779 L 3902.105 4355.779 L 3896.106 4349.78 L 3896.106 4342.58 L 3894.906 4337.78 L 3894.906 4332.98 L 3891.306 4322.18 L 3891.306 4318.58 L 3890.106 4311.381 L 3888.906 4307.781 L 3890.106 4305.381 L 3892.506 4304.181 L 3893.706 4302.981 L 3899.705 4302.981 L 3900.905 4301.781 L 3902.105 4300.581 L 3902.105 4289.781 L 3900.905 4287.381 L 3899.705 4286.181 L 3897.305 4281.381 L 3891.306 4277.782 L 3892.506 4274.182 L 3891.306 4272.982 L 3891.306 4271.782 L 3890.106 4270.582 L 3888.906 4269.382 L 3890.106 4263.382 L 3888.906 4260.982 L 3888.906 4259.782 L 3886.506 4257.382 L 3885.306 4254.982 L 3886.506 4253.782 L 3884.106 4251.382 L 3885.306 4250.182 L 3884.106 4250.182 L 3882.906 4247.782 L 3881.706 4247.782 L 3880.506 4246.582 L 3879.306 4245.382 L 3879.306 4244.182 L 3876.906 4242.983 L 3875.706 4241.783 L 3875.706 4242.983 L 3872.106 4240.583 L 3873.306 4239.383 L 3872.106 4238.183 L 3872.106 4236.983 L 3870.906 4236.983 L 3872.106 4235.783 L 3872.106 4234.583 L 3870.906 4233.383 L 3872.106 4232.183 L 3870.906 4232.183 L 3870.906 4229.783 L 3869.706 4227.383 L 3869.706 4224.983 L 3870.906 4223.783 L 3869.706 4223.783 L 3870.906 4222.583 L 3870.906 4221.383 L 3872.106 4220.183 L 3872.106 4214.183 L 3870.906 4212.983 L 3872.106 4211.783 L 3870.906 4210.583 L 3870.906 4208.183 L 3872.106 4208.183 L 3870.906 4208.183 L 3870.906 4206.984 L 3872.106 4204.584 L 3872.106 4203.384 L 3872.106 4204.584 L 3872.106 4202.384 L 3872.606 4202.384 Z " fill="#F3AA47" vector-effect="non-scaling-stroke" stroke-width="1" stroke-linejoin="miter" stroke-linecap="butt" stroke-miterlimit="4"/></svg>