<?xml version="1.0" standalone="no"?><!-- Generator: Gravit.io --><svg xmlns="http://www.w3.org/2000/svg" xmlns:xlink="http://www.w3.org/1999/xlink" style="isolation:isolate" viewBox="4663.684 1208.467 1230.566 1679.654" width="1230.566" height="1679.654"><path d=" M 4664.184 1992.245 L 4698.883 1963.546 L 4715.683 1951.546 L 4716.883 1949.146 L 4720.483 1946.746 L 4719.283 1944.346 L 4720.483 1943.146 L 4721.683 1943.146 L 4722.883 1944.346 L 4726.483 1941.946 L 4759.982 1915.647 L 4762.382 1913.247 L 4782.781 1896.447 L 4786.381 1894.048 L 4792.381 1889.248 L 4806.78 1877.248 L 4829.58 1859.349 L 4831.98 1855.749 L 4834.38 1853.349 L 4837.979 1854.549 L 4840.379 1854.549 L 4841.579 1856.949 L 4842.779 1855.749 L 4845.179 1856.949 L 4849.979 1856.949 L 4853.579 1858.149 L 4858.379 1854.549 L 4860.779 1850.949 L 4863.179 1849.749 L 4865.579 1848.549 L 4866.779 1847.349 L 4871.579 1841.349 L 4873.978 1834.149 L 4879.978 1828.149 L 4882.378 1824.549 L 4884.778 1820.95 L 4884.778 1818.55 L 4887.178 1816.15 L 4887.178 1813.75 L 4889.578 1811.35 L 4888.378 1811.35 L 4889.578 1808.95 L 4889.578 1806.55 L 4890.778 1805.35 L 4889.578 1804.15 L 4894.378 1801.75 L 4895.578 1799.35 L 4897.978 1799.35 L 4897.978 1796.95 L 4900.378 1798.15 L 4901.578 1795.75 L 4902.778 1795.75 L 4905.178 1792.15 L 4907.578 1792.15 L 4906.378 1787.351 L 4907.578 1787.351 L 4907.578 1786.151 L 4908.777 1784.951 L 4908.777 1782.551 L 4909.977 1781.351 L 4908.777 1780.151 L 4911.177 1778.951 L 4912.377 1780.151 L 4913.577 1778.951 L 4913.577 1777.751 L 4912.377 1775.351 L 4913.577 1774.151 L 4912.377 1772.951 L 4912.377 1770.551 L 4911.177 1768.151 L 4912.377 1766.951 L 4912.377 1765.751 L 4914.777 1763.351 L 4914.777 1759.751 L 4915.977 1759.751 L 4915.977 1757.351 L 4917.177 1756.151 L 4919.577 1756.151 L 4918.377 1757.351 L 4919.577 1757.351 L 4919.577 1756.151 L 4921.977 1756.151 L 4921.977 1754.951 L 4923.177 1754.951 L 4923.177 1753.751 L 4924.377 1752.551 L 4926.777 1752.551 L 4926.777 1751.352 L 4930.377 1748.952 L 4931.577 1746.552 L 4935.177 1746.552 L 4936.377 1744.152 L 4937.577 1744.152 L 4938.777 1741.752 L 4939.977 1742.952 L 4939.977 1740.552 L 4941.177 1740.552 L 4941.177 1736.952 L 4942.377 1736.952 L 4943.577 1735.752 L 4943.577 1732.152 L 4945.976 1730.952 L 4948.376 1728.552 L 4949.576 1729.752 L 4949.576 1724.952 L 4954.376 1724.952 L 4955.576 1721.352 L 4957.976 1720.152 L 4959.176 1717.752 L 4957.976 1715.353 L 4960.376 1714.153 L 4960.376 1710.553 L 4962.776 1709.353 L 4962.776 1703.353 L 4963.976 1700.953 L 4963.976 1698.553 L 4962.776 1697.353 L 4965.176 1696.153 L 4965.176 1693.753 L 4963.976 1688.953 L 4967.576 1686.553 L 4966.376 1685.353 L 4965.176 1686.553 L 4965.176 1684.153 L 4963.976 1682.953 L 4965.176 1682.953 L 4966.376 1681.753 L 4965.176 1680.553 L 4966.376 1680.553 L 4965.176 1680.553 L 4966.376 1679.354 L 4965.176 1678.154 L 4966.376 1676.954 L 4967.576 1674.554 L 4968.776 1674.554 L 4967.576 1672.154 L 4968.776 1670.954 L 4967.576 1669.754 L 4967.576 1667.354 L 4969.976 1667.354 L 4969.976 1664.954 L 4972.376 1663.754 L 4972.376 1662.554 L 4974.776 1662.554 L 4975.976 1661.354 L 4978.376 1660.154 L 4977.176 1658.954 L 4979.576 1658.954 L 4977.176 1655.354 L 4977.176 1654.154 L 4979.576 1654.154 L 4979.576 1655.354 L 4980.776 1655.354 L 4979.576 1650.554 L 4983.175 1651.754 L 4983.175 1649.354 L 4981.975 1649.354 L 4981.975 1648.154 L 4983.175 1648.154 L 4981.975 1646.954 L 4984.375 1646.954 L 4983.175 1644.554 L 4981.975 1644.554 L 4981.975 1642.155 L 4983.175 1642.155 L 4983.175 1640.955 L 4983.175 1642.155 L 4984.375 1640.955 L 4983.175 1638.555 L 4983.175 1636.155 L 4984.375 1636.155 L 4984.375 1632.555 L 4985.575 1633.755 L 4986.775 1632.555 L 4987.975 1631.355 L 4986.775 1631.355 L 4987.975 1631.355 L 4989.175 1630.155 L 4990.375 1631.355 L 4990.375 1630.155 L 4991.575 1630.155 L 4991.575 1628.955 L 4990.375 1628.955 L 4992.775 1626.555 L 4993.975 1625.355 L 4995.175 1626.555 L 4995.175 1627.755 L 4997.575 1626.555 L 4997.575 1625.355 L 4996.375 1624.155 L 4997.575 1624.155 L 4998.775 1626.555 L 4999.975 1626.555 L 4999.975 1622.955 L 5002.375 1624.155 L 5003.575 1621.755 L 5007.175 1621.755 L 5007.175 1619.355 L 5004.775 1618.155 L 5007.175 1615.755 L 5004.775 1613.355 L 5008.375 1613.355 L 5008.375 1608.555 L 5009.575 1607.355 L 5010.775 1608.555 L 5011.975 1608.555 L 5013.175 1606.156 L 5011.975 1604.956 L 5013.175 1603.756 L 5015.575 1603.756 L 5016.775 1604.956 L 5016.775 1602.556 L 5014.375 1601.356 L 5016.775 1600.156 L 5016.775 1598.956 L 5013.175 1596.556 L 5015.575 1596.556 L 5017.974 1598.956 L 5019.174 1597.756 L 5017.974 1594.156 L 5021.574 1594.156 L 5022.774 1591.756 L 5021.574 1590.556 L 5021.574 1588.156 L 5019.174 1589.356 L 5017.974 1586.956 L 5021.574 1586.956 L 5022.774 1584.556 L 5023.974 1584.556 L 5023.974 1588.156 L 5025.174 1588.156 L 5026.374 1586.956 L 5025.174 1582.156 L 5028.774 1580.956 L 5029.974 1582.156 L 5029.974 1578.556 L 5031.174 1577.356 L 5029.974 1574.956 L 5029.974 1571.356 L 5032.374 1570.157 L 5031.174 1568.957 L 5033.574 1566.557 L 5031.174 1565.357 L 5031.174 1564.157 L 5032.374 1562.957 L 5034.774 1564.157 L 5035.974 1561.757 L 5034.774 1560.557 L 5033.574 1560.557 L 5033.574 1559.357 L 5035.974 1559.357 L 5035.974 1558.157 L 5034.774 1556.957 L 5032.374 1556.957 L 5032.374 1553.357 L 5034.774 1552.157 L 5034.774 1550.957 L 5033.574 1549.757 L 5032.374 1547.357 L 5033.574 1547.357 L 5031.174 1544.957 L 5029.974 1544.957 L 5029.974 1543.757 L 5032.374 1542.557 L 5034.774 1542.557 L 5035.974 1543.757 L 5037.174 1542.557 L 5038.374 1541.357 L 5037.174 1541.357 L 5037.174 1540.157 L 5038.374 1538.957 L 5037.174 1537.757 L 5038.374 1537.757 L 5040.774 1538.957 L 5043.174 1537.757 L 5041.974 1536.557 L 5041.974 1535.357 L 5040.774 1535.357 L 5041.974 1534.158 L 5044.374 1534.158 L 5046.774 1536.557 L 5047.974 1535.357 L 5049.174 1535.357 L 5046.774 1534.158 L 5047.974 1534.158 L 5047.974 1532.958 L 5045.574 1534.158 L 5045.574 1532.958 L 5046.774 1532.958 L 5045.574 1531.758 L 5044.374 1531.758 L 5044.374 1525.758 L 5043.174 1525.758 L 5043.174 1526.958 L 5041.974 1528.158 L 5039.574 1529.358 L 5038.374 1526.958 L 5038.374 1519.758 L 5037.174 1519.758 L 5035.974 1520.958 L 5034.774 1517.358 L 5034.774 1514.958 L 5032.374 1516.158 L 5032.374 1514.958 L 5031.174 1512.558 L 5033.574 1508.958 L 5035.974 1507.758 L 5035.974 1506.558 L 5038.374 1507.758 L 5038.374 1505.358 L 5040.774 1504.158 L 5040.774 1500.558 L 5041.974 1499.358 L 5043.174 1499.358 L 5045.574 1504.158 L 5046.774 1502.958 L 5046.774 1498.159 L 5049.174 1496.959 L 5052.774 1496.959 L 5055.173 1495.759 L 5061.173 1494.559 L 5059.973 1489.759 L 5062.373 1488.559 L 5063.573 1488.559 L 5064.773 1486.159 L 5063.573 1484.959 L 5062.373 1483.759 L 5062.373 1481.359 L 5063.573 1480.159 L 5064.773 1480.159 L 5065.973 1481.359 L 5068.373 1481.359 L 5076.773 1478.959 L 5076.773 1477.759 L 5074.373 1476.559 L 5073.173 1475.359 L 5074.373 1472.959 L 5073.173 1470.559 L 5073.173 1468.159 L 5074.373 1465.759 L 5073.173 1465.759 L 5073.173 1457.36 L 5075.573 1454.96 L 5076.773 1452.56 L 5077.973 1450.16 L 5077.973 1448.96 L 5075.573 1447.76 L 5071.973 1452.56 L 5070.773 1452.56 L 5068.373 1451.36 L 5068.373 1447.76 L 5073.173 1444.16 L 5074.373 1442.96 L 5074.373 1436.96 L 5075.573 1435.76 L 5076.773 1429.76 L 5074.373 1427.36 L 5074.373 1426.161 L 5077.973 1424.961 L 5079.173 1427.36 L 5081.573 1428.56 L 5083.973 1427.36 L 5085.173 1423.761 L 5087.573 1423.761 L 5089.972 1422.561 L 5089.972 1421.361 L 5092.372 1416.561 L 5094.772 1414.161 L 5098.372 1412.961 L 5100.772 1410.561 L 5098.372 1409.361 L 5098.372 1408.161 L 5101.972 1404.561 L 5103.172 1403.361 L 5103.172 1399.761 L 5101.972 1397.361 L 5101.972 1393.761 L 5103.172 1391.361 L 5104.372 1390.162 L 5106.772 1386.562 L 5106.772 1382.962 L 5109.172 1376.962 L 5111.572 1366.162 L 5110.372 1361.362 L 5107.972 1361.362 L 5107.972 1360.162 L 5113.972 1351.763 L 5112.772 1349.363 L 5111.572 1348.163 L 5110.372 1345.763 L 5104.372 1344.563 L 5100.772 1345.763 L 5099.572 1345.763 L 5098.372 1344.563 L 5095.972 1346.963 L 5094.772 1345.763 L 5093.572 1339.763 L 5094.772 1334.963 L 5095.972 1333.763 L 5097.172 1332.563 L 5104.372 1332.563 L 5107.972 1331.363 L 5110.372 1332.563 L 5112.772 1332.563 L 5113.972 1331.363 L 5113.972 1330.163 L 5115.172 1328.963 L 5116.372 1328.963 L 5119.972 1327.763 L 5122.372 1325.363 L 5123.572 1322.963 L 5123.572 1320.563 L 5122.372 1319.363 L 5122.372 1314.564 L 5124.772 1310.964 L 5124.772 1309.764 L 5123.572 1308.564 L 5123.572 1307.364 L 5127.171 1306.164 L 5124.772 1295.364 L 5124.772 1292.964 L 5122.372 1290.564 L 5121.172 1289.364 L 5118.772 1286.964 L 5125.971 1280.965 L 5125.971 1279.765 L 5122.372 1277.365 L 5127.171 1273.765 L 5128.371 1268.965 L 5129.571 1267.765 L 5130.771 1264.165 L 5131.971 1261.765 L 5131.971 1260.565 L 5127.171 1261.765 L 5127.171 1256.965 L 5123.572 1256.965 L 5121.172 1250.965 L 5125.971 1246.165 L 5123.572 1241.366 L 5127.171 1237.766 L 5130.771 1236.566 L 5131.971 1236.566 L 5131.971 1237.766 L 5136.771 1236.566 L 5136.771 1229.366 L 5137.971 1228.166 L 5137.971 1230.566 L 5139.171 1229.366 L 5139.171 1226.966 L 5140.371 1224.566 L 5141.571 1224.566 L 5141.571 1228.166 L 5143.971 1231.766 L 5143.971 1230.566 L 5142.771 1228.166 L 5142.771 1222.166 L 5143.971 1219.766 L 5145.171 1219.766 L 5147.571 1214.966 L 5147.571 1216.166 L 5147.571 1212.566 L 5148.771 1212.566 L 5149.971 1213.766 L 5149.971 1216.166 L 5151.171 1216.166 L 5151.171 1210.166 L 5152.371 1211.366 L 5152.371 1208.967 L 5157.171 1208.967 L 5157.171 1211.366 L 5154.771 1211.366 L 5154.771 1212.566 L 5155.971 1211.366 L 5157.171 1212.566 L 5157.171 1214.966 L 5158.371 1214.966 L 5158.371 1216.166 L 5155.971 1217.366 L 5155.971 1216.166 L 5152.371 1216.166 L 5155.971 1216.166 L 5155.971 1219.766 L 5154.771 1219.766 L 5153.571 1222.166 L 5154.771 1220.966 L 5157.171 1219.766 L 5158.371 1219.766 L 5158.371 1218.566 L 5158.371 1224.566 L 5154.771 1224.566 L 5152.371 1225.766 L 5153.571 1226.966 L 5152.371 1228.166 L 5151.171 1229.366 L 5153.571 1228.166 L 5153.571 1230.566 L 5154.771 1229.366 L 5153.571 1228.166 L 5154.771 1225.766 L 5157.171 1225.766 L 5157.171 1226.966 L 5158.371 1225.766 L 5160.771 1225.766 L 5159.571 1228.166 L 5159.571 1229.366 L 5160.771 1229.366 L 5159.571 1231.766 L 5159.571 1235.366 L 5158.371 1236.566 L 5159.571 1237.766 L 5158.371 1242.566 L 5159.571 1243.766 L 5160.771 1242.566 L 5161.97 1236.566 L 5161.97 1235.366 L 5166.77 1225.766 L 5167.97 1226.966 L 5166.77 1225.766 L 5169.17 1220.966 L 5170.37 1220.966 L 5170.37 1219.766 L 5172.77 1218.566 L 5170.37 1218.566 L 5170.37 1217.366 L 5173.97 1213.766 L 5175.17 1213.766 L 5173.97 1212.566 L 5172.77 1211.366 L 5173.97 1210.166 L 5177.57 1208.967 L 5176.37 1208.967 L 5178.77 1208.967 L 5177.57 1208.967 L 5178.77 1210.166 L 5179.97 1216.166 L 5178.77 1218.566 L 5178.77 1217.366 L 5178.77 1218.566 L 5176.37 1220.966 L 5176.37 1223.366 L 5171.57 1224.566 L 5171.57 1225.766 L 5166.77 1230.566 L 5166.77 1231.766 L 5165.57 1232.966 L 5167.97 1232.966 L 5166.77 1235.366 L 5165.57 1235.366 L 5165.57 1236.566 L 5167.97 1235.366 L 5167.97 1231.766 L 5170.37 1228.166 L 5172.77 1226.966 L 5173.97 1226.966 L 5175.17 1228.166 L 5175.17 1229.366 L 5173.97 1230.566 L 5172.77 1230.566 L 5171.57 1231.766 L 5172.77 1231.766 L 5172.77 1232.966 L 5170.37 1232.966 L 5170.37 1234.166 L 5172.77 1232.966 L 5173.97 1231.766 L 5175.17 1230.566 L 5175.17 1231.766 L 5172.77 1235.366 L 5175.17 1234.166 L 5173.97 1236.566 L 5172.77 1237.766 L 5171.57 1238.966 L 5169.17 1241.366 L 5166.77 1241.366 L 5169.17 1242.566 L 5169.17 1243.766 L 5165.57 1243.766 L 5167.97 1243.766 L 5166.77 1246.165 L 5167.97 1247.365 L 5167.97 1244.966 L 5169.17 1243.766 L 5169.17 1242.566 L 5170.37 1241.366 L 5173.97 1241.366 L 5177.57 1238.966 L 5177.57 1240.166 L 5173.97 1242.566 L 5173.97 1244.966 L 5175.17 1243.766 L 5177.57 1240.166 L 5177.57 1242.566 L 5171.57 1247.365 L 5171.57 1248.565 L 5176.37 1248.565 L 5175.17 1249.765 L 5173.97 1250.965 L 5175.17 1252.165 L 5175.17 1249.765 L 5176.37 1248.565 L 5178.77 1242.566 L 5179.97 1236.566 L 5179.97 1235.366 L 5182.37 1237.766 L 5183.57 1240.166 L 5182.37 1243.766 L 5181.17 1246.165 L 5183.57 1240.166 L 5181.17 1233.066 L 5183.57 1230.666 L 5185.97 1229.466 L 5187.17 1230.666 L 5187.17 1231.866 L 5188.37 1230.666 L 5187.17 1233.066 L 5185.97 1234.266 L 5184.77 1237.866 L 5184.77 1239.066 L 5187.17 1241.466 L 5183.17 1247.465 L 5183.57 1247.465 L 5183.57 1248.365 L 5184.77 1247.465 L 5184.77 1246.265 L 5187.17 1246.265 L 5185.97 1245.066 L 5187.17 1242.666 L 5188.37 1243.866 L 5187.17 1246.265 L 5188.37 1246.265 L 5189.57 1248.665 L 5185.97 1251.065 L 5183.57 1249.865 L 5183.57 1251.065 L 5184.77 1249.865 L 5187.17 1251.065 L 5189.57 1249.865 L 5189.57 1251.065 L 5190.77 1249.865 L 5189.57 1249.865 L 5188.37 1245.066 L 5190.77 1240.266 L 5191.97 1235.466 L 5191.97 1234.266 L 5193.17 1234.266 L 5193.17 1236.666 L 5195.57 1231.866 L 5195.57 1229.466 L 5196.77 1229.466 L 5196.77 1228.266 L 5197.969 1227.066 L 5199.169 1225.866 L 5196.77 1224.666 L 5201.569 1223.466 L 5205.169 1223.466 L 5206.369 1224.666 L 5207.569 1225.866 L 5207.569 1227.066 L 5206.369 1227.066 L 5205.169 1229.466 L 5205.169 1228.266 L 5205.169 1229.466 L 5203.969 1229.466 L 5203.969 1230.666 L 5201.569 1233.066 L 5200.369 1235.466 L 5199.169 1236.666 L 5199.169 1239.066 L 5197.969 1239.066 L 5199.169 1241.466 L 5196.77 1243.866 L 5195.57 1243.866 L 5196.77 1243.866 L 5197.969 1242.666 L 5200.369 1242.666 L 5201.569 1246.265 L 5203.969 1249.865 L 5203.969 1252.265 L 5202.769 1254.665 L 5203.969 1257.065 L 5200.369 1257.065 L 5199.169 1259.465 L 5197.969 1263.065 L 5199.169 1264.265 L 5199.169 1263.065 L 5200.369 1260.665 L 5200.369 1258.265 L 5202.769 1258.265 L 5203.969 1257.065 L 5205.169 1258.265 L 5205.169 1261.865 L 5207.569 1263.065 L 5202.769 1265.465 L 5201.569 1266.665 L 5200.369 1266.665 L 5200.369 1269.065 L 5197.969 1269.065 L 5196.77 1270.265 L 5194.37 1267.865 L 5195.57 1267.865 L 5194.37 1269.065 L 5195.57 1269.065 L 5196.77 1270.265 L 5197.969 1269.065 L 5200.369 1269.065 L 5201.569 1267.865 L 5203.969 1265.465 L 5207.569 1264.265 L 5208.769 1263.065 L 5207.569 1261.865 L 5206.369 1260.665 L 5206.369 1259.465 L 5207.569 1258.265 L 5208.769 1257.065 L 5207.569 1254.665 L 5207.569 1257.065 L 5206.369 1258.265 L 5206.369 1257.065 L 5205.169 1255.865 L 5205.169 1253.465 L 5206.369 1254.665 L 5207.569 1254.665 L 5206.369 1253.465 L 5206.369 1249.865 L 5211.169 1246.265 L 5212.369 1249.865 L 5212.369 1248.665 L 5214.769 1245.066 L 5213.569 1245.066 L 5213.569 1246.265 L 5212.369 1246.265 L 5212.369 1245.066 L 5214.769 1245.066 L 5214.769 1233.066 L 5215.969 1229.466 L 5215.969 1227.066 L 5217.169 1224.666 L 5218.369 1225.866 L 5218.369 1223.466 L 5215.969 1223.466 L 5217.169 1222.266 L 5218.369 1221.066 L 5219.569 1223.466 L 5220.769 1223.466 L 5220.769 1231.866 L 5219.569 1233.066 L 5219.569 1231.866 L 5217.169 1235.466 L 5215.969 1240.266 L 5215.969 1242.666 L 5217.169 1242.666 L 5217.169 1247.465 L 5214.769 1249.865 L 5214.769 1258.265 L 5213.569 1257.065 L 5214.769 1260.665 L 5215.969 1260.665 L 5215.969 1257.065 L 5215.969 1258.265 L 5217.169 1259.465 L 5215.969 1261.865 L 5215.969 1264.265 L 5213.569 1265.465 L 5214.769 1266.665 L 5211.169 1266.665 L 5212.369 1266.665 L 5212.369 1265.665 L 5203.969 1266.665 L 5203.969 1265.465 L 5202.769 1271.465 L 5200.369 1273.865 L 5199.169 1276.265 L 5200.369 1273.865 L 5202.769 1272.665 L 5203.969 1271.465 L 5205.169 1272.665 L 5206.369 1272.665 L 5203.969 1270.265 L 5203.969 1269.065 L 5205.169 1267.865 L 5208.769 1267.865 L 5207.569 1269.065 L 5209.969 1267.865 L 5214.769 1267.865 L 5215.969 1266.665 L 5218.369 1263.065 L 5218.369 1259.465 L 5217.169 1257.065 L 5218.369 1251.065 L 5219.569 1249.865 L 5223.169 1248.665 L 5223.169 1249.865 L 5223.169 1248.665 L 5224.369 1247.465 L 5225.569 1248.665 L 5224.369 1249.865 L 5225.569 1251.065 L 5223.169 1254.665 L 5221.969 1254.665 L 5220.769 1255.865 L 5219.569 1255.865 L 5220.769 1255.865 L 5221.969 1254.665 L 5223.169 1254.665 L 5223.169 1260.665 L 5221.969 1261.865 L 5220.769 1261.865 L 5219.569 1263.065 L 5220.769 1263.065 L 5220.769 1261.865 L 5221.969 1263.065 L 5223.169 1260.665 L 5224.369 1261.865 L 5224.369 1263.065 L 5225.569 1264.265 L 5224.369 1263.065 L 5224.369 1261.865 L 5223.169 1260.665 L 5224.369 1259.465 L 5223.169 1257.065 L 5224.369 1254.665 L 5226.769 1251.065 L 5229.169 1249.865 L 5229.169 1251.065 L 5227.969 1252.265 L 5232.769 1248.665 L 5233.968 1248.665 L 5232.769 1253.465 L 5230.369 1252.265 L 5229.169 1253.465 L 5230.369 1253.465 L 5231.569 1254.665 L 5231.569 1255.865 L 5229.169 1257.065 L 5229.169 1258.265 L 5227.969 1260.665 L 5225.569 1260.665 L 5225.569 1261.865 L 5226.769 1260.665 L 5229.169 1260.665 L 5230.369 1257.065 L 5232.769 1255.865 L 5232.769 1258.265 L 5233.968 1258.265 L 5232.769 1259.465 L 5231.569 1260.665 L 5230.369 1259.465 L 5227.969 1260.665 L 5227.969 1263.065 L 5229.169 1264.265 L 5227.969 1265.465 L 5226.769 1269.065 L 5227.969 1266.665 L 5230.369 1264.265 L 5229.169 1261.865 L 5229.169 1260.665 L 5230.369 1260.665 L 5231.569 1261.865 L 5232.769 1261.865 L 5235.168 1259.465 L 5235.168 1257.065 L 5236.368 1254.665 L 5238.768 1253.465 L 5237.568 1255.865 L 5237.568 1258.265 L 5236.368 1260.665 L 5235.168 1263.065 L 5233.968 1264.265 L 5235.168 1263.065 L 5236.368 1261.865 L 5236.368 1264.265 L 5235.168 1265.465 L 5235.168 1266.665 L 5231.569 1267.865 L 5235.168 1267.865 L 5236.368 1265.465 L 5236.368 1266.665 L 5237.568 1269.065 L 5233.968 1273.865 L 5235.168 1275.065 L 5235.168 1273.865 L 5236.368 1272.665 L 5237.568 1272.665 L 5239.968 1271.465 L 5238.768 1271.465 L 5241.168 1266.665 L 5242.368 1265.465 L 5242.368 1266.665 L 5244.768 1264.265 L 5244.768 1263.065 L 5243.568 1264.265 L 5241.168 1265.465 L 5241.168 1264.265 L 5243.568 1261.865 L 5244.768 1263.065 L 5244.768 1258.265 L 5248.368 1258.265 L 5248.368 1257.065 L 5249.568 1257.065 L 5249.568 1255.865 L 5248.368 1255.865 L 5249.568 1254.665 L 5254.368 1253.465 L 5256.768 1257.065 L 5255.568 1260.665 L 5254.368 1263.065 L 5253.168 1264.265 L 5250.768 1260.665 L 5251.968 1263.065 L 5251.968 1264.265 L 5250.768 1264.265 L 5250.768 1265.465 L 5248.368 1266.665 L 5248.368 1264.265 L 5248.368 1266.665 L 5247.168 1266.665 L 5244.768 1267.865 L 5244.768 1271.465 L 5242.368 1276.265 L 5243.568 1277.465 L 5243.568 1279.865 L 5242.368 1279.865 L 5241.168 1278.665 L 5243.568 1282.264 L 5243.568 1283.464 L 5241.168 1287.064 L 5243.568 1287.064 L 5244.768 1289.464 L 5243.568 1291.864 L 5244.768 1290.664 L 5247.168 1290.664 L 5247.168 1294.264 L 5245.968 1296.664 L 5243.568 1295.464 L 5242.368 1297.864 L 5241.168 1296.664 L 5242.368 1297.864 L 5242.368 1299.064 L 5242.368 1297.864 L 5243.568 1296.664 L 5248.368 1299.064 L 5248.368 1297.864 L 5247.168 1297.864 L 5248.368 1295.464 L 5248.368 1291.864 L 5245.968 1288.264 L 5245.968 1287.064 L 5248.368 1284.664 L 5248.368 1282.264 L 5251.968 1277.465 L 5253.168 1277.465 L 5253.168 1276.265 L 5254.368 1277.465 L 5253.168 1279.865 L 5253.168 1283.464 L 5251.968 1284.664 L 5253.168 1285.864 L 5254.368 1288.264 L 5255.568 1289.464 L 5251.968 1284.664 L 5254.368 1283.464 L 5254.368 1281.065 L 5255.568 1279.865 L 5256.768 1281.065 L 5256.768 1282.264 L 5255.568 1282.264 L 5255.568 1283.464 L 5256.768 1284.664 L 5255.568 1283.464 L 5255.568 1282.264 L 5256.768 1283.464 L 5257.968 1282.264 L 5255.568 1279.865 L 5256.768 1277.465 L 5257.968 1276.265 L 5259.168 1277.465 L 5260.368 1277.465 L 5261.568 1278.665 L 5261.568 1279.865 L 5262.768 1278.665 L 5263.968 1278.665 L 5262.768 1277.465 L 5259.168 1277.465 L 5257.968 1275.065 L 5260.368 1272.665 L 5262.768 1271.465 L 5262.768 1270.265 L 5265.168 1271.465 L 5263.968 1271.465 L 5263.968 1273.865 L 5263.968 1271.465 L 5266.368 1271.465 L 5265.168 1270.265 L 5262.768 1269.065 L 5261.568 1269.065 L 5262.768 1271.465 L 5261.568 1271.465 L 5261.568 1266.665 L 5263.968 1265.465 L 5265.168 1263.065 L 5267.568 1264.265 L 5265.168 1264.265 L 5265.168 1265.465 L 5267.568 1264.265 L 5268.768 1266.665 L 5267.568 1265.465 L 5268.768 1264.265 L 5267.568 1265.465 L 5268.768 1264.265 L 5267.568 1263.065 L 5267.568 1261.865 L 5263.968 1259.465 L 5263.968 1258.265 L 5266.368 1257.065 L 5271.167 1258.265 L 5272.367 1260.665 L 5272.367 1263.065 L 5273.567 1261.865 L 5273.567 1272.665 L 5273.567 1267.865 L 5274.767 1267.865 L 5275.967 1277.465 L 5273.567 1277.465 L 5273.567 1278.665 L 5272.367 1279.865 L 5272.367 1281.065 L 5269.967 1281.065 L 5265.168 1283.464 L 5260.368 1285.864 L 5260.368 1287.064 L 5259.168 1288.264 L 5259.168 1290.664 L 5260.368 1294.264 L 5261.568 1294.264 L 5260.368 1294.264 L 5259.168 1288.264 L 5260.368 1288.264 L 5262.768 1285.864 L 5266.368 1285.864 L 5266.368 1289.464 L 5263.968 1290.664 L 5263.968 1293.064 L 5262.768 1295.464 L 5262.768 1296.664 L 5261.568 1299.064 L 5261.568 1300.264 L 5260.368 1299.064 L 5259.168 1297.864 L 5257.968 1299.064 L 5257.968 1303.864 L 5256.768 1303.864 L 5256.768 1305.064 L 5257.968 1303.864 L 5259.168 1299.064 L 5260.368 1299.064 L 5261.568 1300.264 L 5262.768 1299.064 L 5262.768 1295.464 L 5265.168 1293.064 L 5265.168 1291.864 L 5266.368 1289.464 L 5267.568 1287.064 L 5268.768 1288.264 L 5269.967 1289.464 L 5268.768 1291.864 L 5267.568 1291.864 L 5269.967 1293.064 L 5269.967 1294.264 L 5269.967 1287.064 L 5272.367 1288.264 L 5274.767 1290.664 L 5272.367 1294.264 L 5272.367 1296.664 L 5271.167 1299.064 L 5271.167 1301.464 L 5269.967 1302.664 L 5267.568 1307.464 L 5267.568 1308.664 L 5266.368 1309.864 L 5267.568 1313.464 L 5267.568 1314.664 L 5265.168 1312.264 L 5263.968 1313.464 L 5262.768 1313.464 L 5263.968 1314.664 L 5265.168 1312.264 L 5267.568 1314.664 L 5263.968 1321.863 L 5263.968 1323.063 L 5261.568 1323.063 L 5260.368 1324.263 L 5257.968 1324.263 L 5257.968 1326.663 L 5256.768 1326.663 L 5255.568 1329.063 L 5256.768 1326.663 L 5257.968 1326.663 L 5259.168 1324.263 L 5260.368 1325.463 L 5261.568 1324.263 L 5262.768 1323.063 L 5260.368 1326.663 L 5261.568 1327.863 L 5259.168 1330.263 L 5261.568 1327.863 L 5261.568 1325.463 L 5262.768 1324.263 L 5263.968 1324.263 L 5262.768 1330.263 L 5263.968 1332.663 L 5265.168 1335.063 L 5265.168 1333.863 L 5267.568 1333.863 L 5267.568 1325.463 L 5268.768 1324.263 L 5271.167 1317.064 L 5271.167 1311.064 L 5272.367 1309.864 L 5275.967 1308.664 L 5278.367 1312.264 L 5278.367 1313.464 L 5279.567 1312.264 L 5280.767 1314.664 L 5283.167 1313.464 L 5283.167 1312.264 L 5281.967 1308.664 L 5283.167 1307.464 L 5283.167 1305.064 L 5285.567 1301.464 L 5285.567 1300.264 L 5290.367 1296.664 L 5292.767 1294.264 L 5293.967 1294.264 L 5295.167 1295.464 L 5296.367 1293.064 L 5297.567 1293.064 L 5296.367 1290.664 L 5297.567 1289.464 L 5298.767 1289.464 L 5298.767 1288.264 L 5299.967 1285.864 L 5299.967 1284.664 L 5301.167 1284.664 L 5301.167 1285.864 L 5302.367 1284.664 L 5303.567 1284.664 L 5303.567 1287.064 L 5302.367 1287.064 L 5303.567 1288.264 L 5303.567 1290.664 L 5303.567 1288.264 L 5302.367 1289.464 L 5303.567 1291.864 L 5304.767 1293.064 L 5301.167 1295.464 L 5302.367 1295.464 L 5304.767 1293.064 L 5304.767 1299.064 L 5305.966 1300.264 L 5308.366 1300.264 L 5307.166 1299.064 L 5305.966 1300.264 L 5304.767 1299.064 L 5304.767 1296.664 L 5305.966 1294.264 L 5304.767 1290.664 L 5304.767 1284.664 L 5305.966 1283.464 L 5305.966 1281.065 L 5307.166 1279.865 L 5308.366 1276.265 L 5309.566 1275.065 L 5308.366 1272.665 L 5308.366 1273.865 L 5308.366 1272.665 L 5307.166 1271.465 L 5307.766 1271.465 L 5307.166 1270.265 L 5308.366 1267.865 L 5308.366 1266.665 L 5309.566 1266.665 L 5310.766 1267.865 L 5309.566 1270.265 L 5310.766 1271.465 L 5309.566 1272.665 L 5308.366 1278.665 L 5310.766 1283.464 L 5309.566 1285.864 L 5308.366 1288.264 L 5308.366 1290.664 L 5310.766 1290.664 L 5310.766 1291.864 L 5309.566 1294.264 L 5310.766 1294.264 L 5310.766 1291.864 L 5311.966 1291.864 L 5310.766 1291.864 L 5310.766 1290.664 L 5309.566 1289.464 L 5309.566 1288.264 L 5310.766 1287.064 L 5313.166 1288.264 L 5314.366 1287.064 L 5310.766 1285.864 L 5311.966 1282.264 L 5314.366 1284.664 L 5314.366 1287.064 L 5313.166 1288.264 L 5310.766 1289.464 L 5313.166 1288.264 L 5313.166 1289.464 L 5315.566 1287.064 L 5315.566 1283.464 L 5313.166 1281.065 L 5311.966 1279.865 L 5311.966 1277.465 L 5313.166 1276.265 L 5313.166 1281.065 L 5314.366 1277.465 L 5315.566 1278.665 L 5316.766 1281.065 L 5315.566 1279.865 L 5314.366 1281.065 L 5315.566 1281.065 L 5314.366 1282.264 L 5314.366 1283.464 L 5315.566 1282.264 L 5315.566 1291.864 L 5313.166 1295.464 L 5315.566 1293.064 L 5316.766 1289.464 L 5315.566 1288.264 L 5317.966 1287.064 L 5320.366 1289.464 L 5320.366 1291.864 L 5320.366 1289.464 L 5323.966 1289.464 L 5325.166 1288.264 L 5326.366 1288.264 L 5327.566 1289.464 L 5329.966 1291.864 L 5332.366 1291.864 L 5333.566 1294.264 L 5334.766 1294.264 L 5333.566 1291.864 L 5333.566 1290.664 L 5334.766 1288.264 L 5337.166 1287.064 L 5338.366 1289.464 L 5335.966 1289.464 L 5335.966 1293.064 L 5337.166 1294.264 L 5335.966 1291.864 L 5337.166 1290.664 L 5338.366 1293.064 L 5340.766 1293.064 L 5338.366 1293.064 L 5337.166 1290.664 L 5344.365 1289.464 L 5340.766 1289.464 L 5340.766 1288.264 L 5341.966 1287.064 L 5345.565 1282.264 L 5347.965 1281.065 L 5350.365 1283.464 L 5349.165 1279.865 L 5351.565 1282.264 L 5350.365 1279.865 L 5350.365 1278.665 L 5352.765 1278.665 L 5351.565 1278.665 L 5350.365 1277.465 L 5352.765 1276.265 L 5355.165 1277.465 L 5355.165 1276.265 L 5353.965 1276.265 L 5357.565 1276.265 L 5356.365 1276.265 L 5359.965 1276.265 L 5361.165 1278.665 L 5358.765 1279.865 L 5358.765 1278.665 L 5356.365 1282.264 L 5357.565 1289.464 L 5355.165 1288.264 L 5355.165 1283.464 L 5353.965 1285.864 L 5353.965 1289.464 L 5350.365 1288.264 L 5346.765 1288.264 L 5349.165 1288.264 L 5352.765 1290.664 L 5353.965 1290.664 L 5349.165 1290.664 L 5351.565 1291.864 L 5350.365 1293.064 L 5349.165 1294.264 L 5346.765 1295.464 L 5349.165 1295.464 L 5347.965 1297.864 L 5347.965 1299.064 L 5345.565 1300.264 L 5343.165 1300.264 L 5344.365 1302.664 L 5343.165 1305.064 L 5344.365 1307.464 L 5344.365 1311.064 L 5345.565 1312.264 L 5345.565 1311.064 L 5347.965 1311.064 L 5350.365 1309.864 L 5352.765 1312.264 L 5353.965 1314.664 L 5353.965 1313.464 L 5357.565 1308.664 L 5357.565 1305.064 L 5358.765 1305.064 L 5362.365 1308.664 L 5362.365 1311.064 L 5363.565 1313.464 L 5362.365 1314.664 L 5363.565 1314.664 L 5364.765 1313.464 L 5362.365 1309.864 L 5363.565 1309.864 L 5367.165 1314.664 L 5365.965 1317.064 L 5362.365 1320.663 L 5365.965 1319.463 L 5367.165 1315.864 L 5367.165 1313.464 L 5365.965 1312.264 L 5364.765 1307.464 L 5364.765 1306.264 L 5367.165 1306.264 L 5365.965 1305.064 L 5367.165 1305.064 L 5367.165 1306.264 L 5368.365 1305.064 L 5369.565 1302.664 L 5369.565 1307.464 L 5368.365 1312.264 L 5369.565 1312.264 L 5369.565 1314.664 L 5370.765 1313.464 L 5371.965 1312.264 L 5368.365 1311.064 L 5370.765 1309.864 L 5373.165 1312.264 L 5371.965 1308.664 L 5371.965 1307.464 L 5376.765 1303.864 L 5377.965 1302.664 L 5379.164 1302.664 L 5380.364 1303.864 L 5380.364 1301.464 L 5380.364 1306.264 L 5376.765 1309.864 L 5376.765 1313.464 L 5374.365 1313.464 L 5376.765 1313.464 L 5377.965 1311.064 L 5380.364 1308.664 L 5380.364 1307.464 L 5381.564 1307.464 L 5381.564 1306.264 L 5381.564 1308.664 L 5380.364 1308.664 L 5381.564 1309.864 L 5382.764 1305.064 L 5383.964 1302.664 L 5385.164 1303.864 L 5386.364 1306.264 L 5386.364 1307.464 L 5387.564 1308.664 L 5388.764 1312.264 L 5389.964 1314.664 L 5389.964 1318.264 L 5387.564 1321.863 L 5386.364 1320.663 L 5385.164 1318.264 L 5383.964 1319.463 L 5382.764 1318.264 L 5382.764 1319.463 L 5380.364 1319.463 L 5380.364 1317.064 L 5379.164 1319.463 L 5373.165 1319.463 L 5371.965 1318.264 L 5370.765 1318.264 L 5371.965 1318.264 L 5373.165 1320.663 L 5370.765 1324.263 L 5369.565 1324.263 L 5368.365 1325.463 L 5365.965 1323.063 L 5363.565 1325.463 L 5365.965 1323.063 L 5365.965 1325.463 L 5367.165 1325.463 L 5367.165 1326.663 L 5365.965 1326.663 L 5363.565 1329.063 L 5362.365 1329.063 L 5362.365 1330.263 L 5364.765 1330.263 L 5365.965 1331.463 L 5364.765 1331.463 L 5365.965 1331.463 L 5367.165 1332.663 L 5370.765 1333.863 L 5368.365 1336.263 L 5364.765 1336.263 L 5364.765 1337.463 L 5365.965 1336.263 L 5368.365 1337.463 L 5370.765 1336.263 L 5370.765 1332.663 L 5368.365 1332.663 L 5367.165 1331.463 L 5367.165 1330.263 L 5370.765 1330.263 L 5371.965 1331.463 L 5374.365 1332.663 L 5377.965 1332.663 L 5379.164 1331.463 L 5380.364 1331.463 L 5380.364 1335.063 L 5379.164 1335.063 L 5377.965 1337.463 L 5374.365 1337.463 L 5375.565 1337.463 L 5376.765 1338.663 L 5371.965 1342.263 L 5370.765 1343.463 L 5365.965 1344.663 L 5364.765 1344.663 L 5363.565 1347.063 L 5359.965 1347.063 L 5361.165 1348.263 L 5362.365 1347.063 L 5362.365 1348.263 L 5359.965 1348.263 L 5358.765 1350.663 L 5356.365 1350.663 L 5353.965 1351.863 L 5358.765 1350.663 L 5359.965 1349.463 L 5362.365 1349.463 L 5364.765 1345.863 L 5368.365 1345.863 L 5376.765 1343.463 L 5376.765 1344.663 L 5375.565 1347.063 L 5373.165 1348.263 L 5370.765 1348.263 L 5369.565 1349.463 L 5371.965 1348.263 L 5373.165 1348.263 L 5377.965 1344.663 L 5377.965 1347.063 L 5380.364 1347.063 L 5377.965 1347.063 L 5379.164 1344.663 L 5380.364 1341.063 L 5382.764 1341.063 L 5386.364 1339.863 L 5387.564 1336.263 L 5388.764 1337.463 L 5388.764 1339.863 L 5387.564 1341.063 L 5386.364 1345.863 L 5382.764 1345.863 L 5382.764 1347.063 L 5381.564 1347.063 L 5381.564 1350.663 L 5383.964 1345.863 L 5385.164 1347.063 L 5386.364 1345.863 L 5387.564 1342.263 L 5389.964 1339.863 L 5389.964 1341.063 L 5388.764 1343.463 L 5389.964 1344.663 L 5388.764 1343.463 L 5389.964 1339.863 L 5388.764 1337.463 L 5388.764 1336.263 L 5389.964 1336.263 L 5389.964 1335.063 L 5391.164 1335.063 L 5388.764 1333.863 L 5388.764 1331.463 L 5391.164 1332.663 L 5394.764 1332.663 L 5399.564 1336.263 L 5398.364 1337.463 L 5397.164 1336.263 L 5392.364 1343.463 L 5391.164 1345.863 L 5393.564 1350.663 L 5392.364 1351.863 L 5394.764 1350.663 L 5395.964 1349.463 L 5394.764 1349.463 L 5394.764 1344.663 L 5399.564 1341.063 L 5401.964 1342.263 L 5401.964 1343.463 L 5397.164 1345.863 L 5398.364 1348.263 L 5397.164 1349.463 L 5395.964 1349.463 L 5398.364 1353.063 L 5398.364 1355.462 L 5400.764 1357.862 L 5403.164 1356.662 L 5405.564 1354.263 L 5406.764 1351.863 L 5407.964 1350.663 L 5410.364 1353.063 L 5410.364 1355.462 L 5406.764 1359.062 L 5403.164 1361.462 L 5401.964 1361.462 L 5399.564 1363.862 L 5398.364 1363.862 L 5397.164 1365.062 L 5398.364 1363.862 L 5399.564 1365.062 L 5400.764 1363.862 L 5403.164 1363.862 L 5403.164 1367.462 L 5404.364 1368.662 L 5404.364 1367.462 L 5403.164 1365.062 L 5407.964 1362.662 L 5407.964 1365.062 L 5409.164 1363.862 L 5409.164 1365.062 L 5410.364 1366.262 L 5410.364 1361.462 L 5411.564 1361.462 L 5412.764 1362.662 L 5415.163 1369.862 L 5416.363 1371.062 L 5417.563 1372.262 L 5417.563 1377.062 L 5415.163 1375.862 L 5415.163 1373.462 L 5413.964 1374.662 L 5412.764 1373.462 L 5411.564 1374.662 L 5411.564 1375.862 L 5412.764 1374.662 L 5413.964 1375.862 L 5417.563 1378.262 L 5416.363 1380.662 L 5417.563 1379.462 L 5418.763 1379.462 L 5418.763 1383.062 L 5416.363 1384.262 L 5418.763 1386.662 L 5419.963 1386.662 L 5421.163 1385.462 L 5421.163 1386.662 L 5419.963 1390.262 L 5416.363 1391.461 L 5415.163 1392.661 L 5415.163 1408.261 L 5417.563 1407.061 L 5421.163 1408.261 L 5422.363 1409.461 L 5427.163 1413.061 L 5428.363 1415.461 L 5427.163 1415.461 L 5425.963 1417.861 L 5427.163 1416.661 L 5429.563 1416.661 L 5431.963 1420.261 L 5434.363 1421.461 L 5431.963 1422.661 L 5431.963 1423.861 L 5430.763 1423.861 L 5430.763 1422.661 L 5430.763 1425.061 L 5433.163 1423.861 L 5433.163 1422.661 L 5434.363 1423.861 L 5434.363 1427.46 L 5436.763 1433.46 L 5435.563 1432.26 L 5434.363 1434.66 L 5435.563 1433.46 L 5437.963 1433.46 L 5441.563 1441.86 L 5440.363 1443.06 L 5441.563 1444.26 L 5440.363 1445.46 L 5439.163 1446.66 L 5437.963 1447.86 L 5436.763 1446.66 L 5433.163 1447.86 L 5436.763 1447.86 L 5439.163 1450.26 L 5439.163 1451.46 L 5437.963 1453.86 L 5435.563 1457.46 L 5433.163 1458.66 L 5433.163 1457.46 L 5430.763 1457.46 L 5437.963 1465.859 L 5439.163 1465.859 L 5446.363 1474.259 L 5448.763 1473.059 L 5449.963 1471.859 L 5452.362 1470.659 L 5458.362 1470.659 L 5464.362 1469.459 L 5465.562 1468.259 L 5470.362 1467.059 L 5472.762 1465.859 L 5475.162 1464.659 L 5477.562 1463.459 L 5479.962 1462.26 L 5478.762 1461.06 L 5481.162 1461.06 L 5481.162 1459.86 L 5484.762 1458.66 L 5484.762 1459.86 L 5484.762 1458.66 L 5485.962 1457.46 L 5487.161 1458.66 L 5487.161 1457.46 L 5488.361 1458.66 L 5487.161 1458.66 L 5488.361 1459.86 L 5489.561 1458.66 L 5489.561 1459.86 L 5490.761 1458.66 L 5489.561 1457.46 L 5487.161 1457.46 L 5487.161 1456.26 L 5491.961 1456.26 L 5499.161 1457.46 L 5499.161 1456.26 L 5500.361 1455.06 L 5500.361 1456.26 L 5499.161 1457.46 L 5500.361 1463.459 L 5500.361 1464.659 L 5499.161 1464.659 L 5497.961 1463.459 L 5497.961 1464.659 L 5496.761 1464.659 L 5495.561 1462.26 L 5494.361 1461.06 L 5495.561 1462.26 L 5495.561 1463.459 L 5493.161 1463.459 L 5493.161 1462.26 L 5491.961 1463.459 L 5490.761 1462.26 L 5490.761 1463.459 L 5493.161 1463.459 L 5491.961 1464.659 L 5487.161 1465.859 L 5485.962 1467.059 L 5483.562 1468.259 L 5484.762 1468.259 L 5487.161 1467.059 L 5487.161 1465.859 L 5489.561 1467.059 L 5493.161 1467.059 L 5490.761 1467.059 L 5491.961 1468.259 L 5493.161 1470.659 L 5494.361 1467.059 L 5497.961 1467.059 L 5507.561 1468.259 L 5511.161 1470.659 L 5507.561 1482.659 L 5503.961 1488.659 L 5507.561 1487.459 L 5511.161 1481.459 L 5517.161 1475.459 L 5521.961 1467.059 L 5523.16 1462.26 L 5527.96 1456.26 L 5529.16 1453.86 L 5535.16 1449.06 L 5541.16 1445.46 L 5542.36 1445.46 L 5542.36 1446.66 L 5543.56 1446.66 L 5544.76 1447.86 L 5547.16 1449.06 L 5548.36 1450.26 L 5545.96 1447.86 L 5551.96 1434.66 L 5554.36 1433.46 L 5562.759 1429.86 L 5568.759 1423.861 L 5572.359 1422.661 L 5577.159 1425.061 L 5580.759 1427.46 L 5589.159 1445.46 L 5591.559 1449.06 L 5593.959 1450.26 L 5595.158 1447.86 L 5601.158 1444.26 L 5603.558 1443.06 L 5609.558 1443.06 L 5613.158 1441.86 L 5614.358 1441.86 L 5614.358 1443.06 L 5615.558 1443.06 L 5620.358 1444.26 L 5627.558 1444.26 L 5647.957 1450.26 L 5651.557 1452.66 L 5662.357 1457.46 L 5677.956 1465.859 L 5682.756 1468.259 L 5689.956 1470.659 L 5707.855 1480.259 L 5717.455 1485.059 L 5723.455 1485.059 L 5721.055 1486.259 L 5724.655 1486.259 L 5725.855 1485.059 L 5724.655 1482.659 L 5723.455 1483.859 L 5723.455 1482.659 L 5724.655 1481.459 L 5727.055 1486.259 L 5727.055 1488.659 L 5729.455 1489.859 L 5734.255 1489.859 L 5735.455 1494.659 L 5734.255 1495.859 L 5733.055 1499.458 L 5735.455 1500.658 L 5734.255 1499.458 L 5736.655 1495.859 L 5735.455 1489.859 L 5733.055 1487.459 L 5730.655 1488.659 L 5729.455 1487.459 L 5729.455 1486.259 L 5731.855 1486.259 L 5731.855 1485.059 L 5730.655 1485.059 L 5729.455 1483.859 L 5727.055 1485.059 L 5725.855 1483.859 L 5727.055 1482.659 L 5728.255 1482.659 L 5731.855 1483.859 L 5743.854 1496.959 L 5752.254 1502.958 L 5757.054 1506.558 L 5760.654 1506.558 L 5760.654 1507.758 L 5767.854 1506.558 L 5771.454 1511.358 L 5772.654 1512.558 L 5771.454 1508.958 L 5773.854 1508.958 L 5781.053 1511.358 L 5791.853 1512.558 L 5799.053 1508.958 L 5800.253 1507.758 L 5801.453 1507.758 L 5803.853 1508.958 L 5811.053 1508.958 L 5815.852 1504.158 L 5818.252 1504.158 L 5818.252 1507.758 L 5819.452 1510.158 L 5819.452 1508.958 L 5818.252 1508.958 L 5819.452 1507.758 L 5829.052 1508.958 L 5837.452 1508.958 L 5842.252 1507.758 L 5848.251 1507.758 L 5848.251 1508.958 L 5847.052 1508.958 L 5847.052 1510.158 L 5851.851 1518.558 L 5853.051 1520.958 L 5854.251 1518.558 L 5855.451 1516.158 L 5854.251 1513.758 L 5856.651 1512.558 L 5861.451 1513.758 L 5888.95 1513.758 L 5888.95 1514.958 L 5887.75 1513.758 L 5890.15 1517.358 L 5887.75 1519.758 L 5884.15 1523.358 L 5884.15 1529.358 L 5885.35 1531.758 L 5885.35 1532.958 L 5881.751 1534.158 L 5881.751 1537.757 L 5880.551 1542.557 L 5882.951 1544.957 L 5885.35 1548.557 L 5886.55 1549.757 L 5891.35 1553.357 L 5892.55 1554.557 L 5893.75 1558.157 L 5890.15 1561.757 L 5890.15 1562.957 L 5888.95 1568.957 L 5886.55 1570.157 L 5881.751 1573.756 L 5880.551 1576.156 L 5876.951 1580.956 L 5874.551 1582.156 L 5872.151 1583.356 L 5870.951 1584.556 L 5870.951 1589.356 L 5868.551 1591.756 L 5868.551 1598.956 L 5867.351 1598.956 L 5864.951 1597.756 L 5863.751 1597.756 L 5862.551 1600.156 L 5861.351 1603.756 L 5861.351 1604.956 L 5860.151 1604.956 L 5857.751 1608.555 L 5855.351 1609.755 L 5851.751 1609.755 L 5845.752 1610.955 L 5843.352 1612.155 L 5837.352 1612.155 L 5834.952 1614.555 L 5833.752 1615.755 L 5833.752 1618.155 L 5839.752 1618.155 L 5839.752 1621.755 L 5837.352 1621.755 L 5836.152 1622.955 L 5834.952 1625.355 L 5834.952 1628.955 L 5832.552 1630.155 L 5830.152 1634.955 L 5824.152 1636.155 L 5824.152 1637.355 L 5821.752 1638.555 L 5822.952 1642.155 L 5821.752 1644.554 L 5821.752 1643.355 L 5820.552 1644.554 L 5814.552 1643.355 L 5808.553 1645.754 L 5806.153 1646.954 L 5804.953 1646.954 L 5800.153 1644.554 L 5798.953 1643.355 L 5794.153 1646.954 L 5791.753 1646.954 L 5788.153 1645.754 L 5788.153 1648.154 L 5786.953 1650.554 L 5784.553 1651.754 L 5783.353 1650.554 L 5783.353 1648.154 L 5780.953 1648.154 L 5778.553 1651.754 L 5776.153 1652.954 L 5773.754 1652.954 L 5771.354 1650.554 L 5771.354 1646.954 L 5770.154 1646.954 L 5768.954 1645.754 L 5767.754 1648.154 L 5767.754 1651.754 L 5764.154 1654.154 L 5762.954 1656.554 L 5762.954 1660.154 L 5758.154 1666.154 L 5755.754 1668.554 L 5753.354 1669.754 L 5749.754 1672.154 L 5748.554 1675.754 L 5748.554 1676.954 L 5747.354 1679.354 L 5744.954 1679.354 L 5741.354 1684.153 L 5737.755 1687.753 L 5736.555 1690.153 L 5736.555 1692.553 L 5738.955 1697.353 L 5738.955 1699.753 L 5737.755 1702.153 L 5736.555 1703.353 L 5737.755 1706.953 L 5738.955 1709.353 L 5737.755 1710.553 L 5736.555 1711.753 L 5729.355 1723.752 L 5729.355 1730.952 L 5726.955 1733.352 L 5718.555 1739.352 L 5717.355 1742.952 L 5716.155 1746.552 L 5714.955 1746.552 L 5713.755 1745.352 L 5711.355 1745.352 L 5708.955 1752.551 L 5707.755 1753.751 L 5705.355 1760.951 L 5705.355 1764.551 L 5702.956 1766.951 L 5699.356 1768.151 L 5698.156 1769.351 L 5696.956 1771.751 L 5700.556 1774.151 L 5700.556 1775.351 L 5693.356 1775.351 L 5692.156 1776.551 L 5690.956 1777.751 L 5683.756 1786.151 L 5682.556 1789.75 L 5682.556 1793.35 L 5683.756 1799.35 L 5683.756 1801.75 L 5687.356 1807.75 L 5687.356 1817.35 L 5689.756 1817.35 L 5692.156 1816.15 L 5693.356 1816.15 L 5693.356 1817.35 L 5700.556 1822.15 L 5702.956 1824.549 L 5701.756 1829.349 L 5702.956 1831.749 L 5706.555 1834.149 L 5706.555 1837.749 L 5705.355 1837.749 L 5705.355 1841.349 L 5702.956 1844.949 L 5704.155 1849.749 L 5704.155 1850.949 L 5702.956 1853.349 L 5701.756 1855.749 L 5695.756 1864.148 L 5694.556 1865.348 L 5694.556 1866.548 L 5692.156 1867.748 L 5689.756 1870.148 L 5688.556 1872.548 L 5689.756 1874.948 L 5690.956 1876.148 L 5694.556 1878.548 L 5694.556 1880.948 L 5693.356 1883.348 L 5689.756 1886.948 L 5689.756 1890.548 L 5690.956 1894.148 L 5692.156 1894.148 L 5698.156 1900.147 L 5699.356 1903.747 L 5699.356 1909.747 L 5704.155 1914.547 L 5704.155 1915.747 L 5706.555 1918.147 L 5705.355 1924.147 L 5705.355 1926.547 L 5708.955 1934.946 L 5708.955 1942.146 L 5710.155 1942.146 L 5712.555 1945.746 L 5713.755 1952.946 L 5714.955 1956.546 L 5716.155 1962.546 L 5716.155 1966.146 L 5711.355 1972.145 L 5711.355 1974.545 L 5713.755 1980.545 L 5713.755 1984.145 L 5712.555 1990.145 L 5711.355 1992.545 L 5708.955 1993.745 L 5704.155 1996.145 L 5704.155 1998.545 L 5701.756 1999.745 L 5696.956 2000.945 L 5695.756 2002.145 L 5694.556 2006.944 L 5692.156 2009.344 L 5687.356 2010.544 L 5686.156 2011.744 L 5684.956 2016.544 L 5684.956 2017.744 L 5681.356 2021.344 L 5680.156 2028.544 L 5676.556 2030.944 L 5675.356 2034.544 L 5674.156 2036.944 L 5671.756 2036.944 L 5665.757 2038.144 L 5664.557 2040.544 L 5663.357 2041.743 L 5663.357 2044.143 L 5664.557 2045.343 L 5665.757 2046.543 L 5665.757 2047.743 L 5664.557 2053.743 L 5666.957 2062.143 L 5666.957 2064.543 L 5663.357 2064.543 L 5663.357 2065.743 L 5662.157 2068.143 L 5663.357 2074.143 L 5664.557 2076.543 L 5663.357 2080.142 L 5666.957 2087.342 L 5663.357 2093.342 L 5663.357 2095.742 L 5664.557 2096.942 L 5665.757 2101.742 L 5665.757 2104.142 L 5668.156 2106.542 L 5670.556 2108.942 L 5671.756 2110.142 L 5671.756 2114.941 L 5670.556 2116.141 L 5670.556 2117.341 L 5668.156 2118.541 L 5666.957 2119.741 L 5666.957 2120.941 L 5670.556 2124.541 L 5671.756 2129.341 L 5674.156 2131.741 L 5678.956 2131.741 L 5681.356 2132.941 L 5683.756 2134.141 L 5683.756 2135.341 L 5684.956 2142.541 L 5686.156 2143.741 L 5688.556 2146.141 L 5692.156 2146.141 L 5695.756 2150.94 L 5699.356 2152.14 L 5702.956 2153.34 L 5704.155 2153.34 L 5704.155 2154.54 L 5705.355 2156.94 L 5706.555 2158.14 L 5706.555 2160.54 L 5707.755 2162.94 L 5706.555 2167.74 L 5705.355 2171.34 L 5706.555 2172.54 L 5708.955 2171.34 L 5710.155 2172.54 L 5710.155 2173.74 L 5706.555 2177.34 L 5705.355 2178.54 L 5705.355 2182.14 L 5701.756 2188.139 L 5701.756 2189.339 L 5704.155 2192.939 L 5702.956 2196.539 L 5704.155 2200.139 L 5701.756 2201.339 L 5700.556 2202.539 L 5700.556 2203.739 L 5702.956 2204.939 L 5700.556 2209.739 L 5700.556 2215.739 L 5696.956 2220.539 L 5695.756 2227.738 L 5695.756 2230.138 L 5694.556 2233.738 L 5689.756 2239.738 L 5683.756 2242.138 L 5682.556 2246.938 L 5680.156 2249.338 L 5678.956 2249.338 L 5674.156 2250.538 L 5671.756 2250.538 L 5669.356 2248.138 L 5665.757 2248.138 L 5662.157 2251.738 L 5657.357 2254.138 L 5653.757 2254.138 L 5650.157 2251.738 L 5644.157 2250.538 L 5636.957 2251.738 L 5635.757 2251.738 L 5634.557 2254.138 L 5630.958 2256.538 L 5626.158 2257.737 L 5618.958 2256.538 L 5616.558 2261.337 L 5611.758 2260.137 L 5611.758 2263.737 L 5610.558 2263.737 L 5608.158 2264.937 L 5605.758 2264.937 L 5602.158 2263.737 L 5599.758 2264.937 L 5599.758 2266.137 L 5594.958 2263.737 L 5593.759 2261.337 L 5592.559 2258.937 L 5591.359 2257.737 L 5585.359 2255.338 L 5584.159 2254.138 L 5582.959 2250.538 L 5582.959 2249.338 L 5581.759 2248.138 L 5579.359 2248.138 L 5579.359 2249.338 L 5576.959 2249.338 L 5574.559 2246.938 L 5570.959 2245.738 L 5567.359 2242.138 L 5563.759 2240.938 L 5561.359 2239.738 L 5556.56 2240.938 L 5555.36 2239.738 L 5555.36 2238.538 L 5554.16 2238.538 L 5551.76 2239.738 L 5545.76 2239.738 L 5543.36 2242.138 L 5539.76 2239.738 L 5538.56 2240.938 L 5537.36 2242.138 L 5536.16 2244.538 L 5530.16 2245.738 L 5525.36 2249.338 L 5519.361 2248.138 L 5518.161 2249.338 L 5516.961 2251.738 L 5515.761 2251.738 L 5513.361 2250.538 L 5513.361 2248.138 L 5510.961 2246.938 L 5508.561 2246.938 L 5506.161 2249.338 L 5497.761 2250.538 L 5496.561 2251.738 L 5494.161 2251.738 L 5492.961 2254.138 L 5492.961 2258.937 L 5491.761 2261.337 L 5490.561 2261.337 L 5488.161 2257.737 L 5483.362 2257.737 L 5483.362 2260.137 L 5486.961 2264.937 L 5485.762 2267.337 L 5483.362 2267.337 L 5483.362 2263.737 L 5482.162 2263.737 L 5480.962 2264.937 L 5479.762 2268.537 L 5474.962 2270.937 L 5472.562 2274.537 L 5472.562 2280.537 L 5470.162 2280.537 L 5467.762 2281.737 L 5467.762 2286.537 L 5461.762 2293.736 L 5456.962 2293.736 L 5456.962 2297.336 L 5455.762 2299.736 L 5454.562 2302.136 L 5455.762 2305.736 L 5455.762 2306.936 L 5453.362 2309.336 L 5449.763 2315.336 L 5448.563 2315.336 L 5444.963 2312.936 L 5438.963 2315.336 L 5436.563 2315.336 L 5432.963 2316.536 L 5430.563 2318.936 L 5426.963 2322.536 L 5422.163 2323.736 L 5417.363 2326.136 L 5417.363 2327.336 L 5414.963 2327.336 L 5412.564 2329.736 L 5411.364 2334.535 L 5410.164 2334.535 L 5404.164 2335.735 L 5402.964 2339.335 L 5401.764 2340.535 L 5398.164 2342.935 L 5398.164 2344.135 L 5394.564 2350.135 L 5390.964 2351.335 L 5389.764 2352.535 L 5387.364 2353.735 L 5386.164 2353.735 L 5384.964 2358.535 L 5383.764 2359.735 L 5382.564 2365.735 L 5377.765 2365.735 L 5375.365 2364.535 L 5372.965 2359.735 L 5365.765 2362.135 L 5364.565 2360.935 L 5359.765 2359.735 L 5358.565 2362.135 L 5353.765 2364.535 L 5352.565 2365.735 L 5352.565 2366.934 L 5351.365 2368.134 L 5350.165 2370.534 L 5347.765 2371.734 L 5345.365 2370.534 L 5344.165 2371.734 L 5342.965 2374.134 L 5341.766 2376.534 L 5340.566 2378.934 L 5339.366 2380.134 L 5338.166 2378.934 L 5334.566 2380.134 L 5332.166 2381.334 L 5328.566 2381.334 L 5326.166 2383.734 L 5323.766 2383.734 L 5318.966 2387.334 L 5316.566 2386.134 L 5315.366 2386.134 L 5311.766 2384.934 L 5304.567 2387.334 L 5303.367 2388.534 L 5300.967 2388.534 L 5299.767 2387.334 L 5296.167 2389.734 L 5294.967 2393.334 L 5291.367 2394.534 L 5288.967 2396.934 L 5287.767 2396.934 L 5287.767 2395.734 L 5285.367 2394.534 L 5284.167 2394.534 L 5282.967 2395.734 L 5280.567 2398.134 L 5276.967 2396.934 L 5274.567 2398.134 L 5269.768 2398.134 L 5267.368 2399.334 L 5266.168 2401.734 L 5261.368 2406.533 L 5258.968 2405.333 L 5257.768 2405.333 L 5256.568 2407.733 L 5256.568 2410.133 L 5255.368 2411.333 L 5254.168 2411.333 L 5254.168 2412.533 L 5252.968 2413.733 L 5250.568 2413.733 L 5249.368 2414.933 L 5250.568 2417.333 L 5249.368 2417.333 L 5246.968 2416.133 L 5245.768 2416.133 L 5245.768 2417.333 L 5248.168 2418.533 L 5245.768 2419.733 L 5244.568 2419.733 L 5244.568 2423.333 L 5242.168 2424.533 L 5240.968 2426.933 L 5242.168 2429.333 L 5242.168 2430.533 L 5240.968 2430.533 L 5240.968 2429.333 L 5239.768 2430.533 L 5240.968 2432.933 L 5239.768 2435.333 L 5240.968 2436.533 L 5239.768 2437.733 L 5238.568 2436.533 L 5238.568 2438.932 L 5236.168 2440.132 L 5237.368 2443.732 L 5236.168 2446.132 L 5233.768 2447.332 L 5233.768 2449.732 L 5232.569 2450.932 L 5231.369 2450.932 L 5232.569 2453.332 L 5234.968 2454.532 L 5234.968 2455.732 L 5231.369 2456.932 L 5234.968 2459.332 L 5234.968 2460.532 L 5232.569 2461.732 L 5231.369 2461.732 L 5231.369 2465.332 L 5230.169 2466.532 L 5228.969 2467.732 L 5230.169 2468.932 L 5230.169 2470.132 L 5228.969 2471.332 L 5226.569 2474.931 L 5230.169 2477.331 L 5230.169 2478.531 L 5227.769 2478.531 L 5225.369 2480.931 L 5227.769 2484.531 L 5226.569 2485.731 L 5226.569 2489.331 L 5224.169 2494.131 L 5225.369 2496.531 L 5224.169 2498.931 L 5222.969 2501.331 L 5224.169 2504.931 L 5222.969 2507.331 L 5220.569 2507.331 L 5219.369 2509.731 L 5218.169 2510.93 L 5219.369 2513.33 L 5209.769 2521.73 L 5209.769 2528.93 L 5207.369 2531.33 L 5207.369 2534.93 L 5204.969 2537.33 L 5204.969 2542.13 L 5202.569 2543.33 L 5203.769 2545.73 L 5202.569 2546.929 L 5201.369 2546.929 L 5198.969 2548.129 L 5200.169 2549.329 L 5197.769 2550.529 L 5197.769 2554.129 L 5196.57 2556.529 L 5195.37 2557.729 L 5196.57 2562.529 L 5195.37 2566.129 L 5196.57 2567.329 L 5194.17 2570.929 L 5192.97 2572.129 L 5194.17 2574.529 L 5192.97 2575.729 L 5192.97 2578.129 L 5191.77 2579.329 L 5186.97 2582.928 L 5186.97 2584.128 L 5191.77 2586.528 L 5189.37 2588.928 L 5185.77 2587.728 L 5185.77 2588.928 L 5184.57 2588.928 L 5183.37 2591.328 L 5182.17 2594.928 L 5183.37 2596.128 L 5182.17 2597.328 L 5178.57 2605.728 L 5176.17 2605.728 L 5173.77 2606.928 L 5174.97 2609.328 L 5172.57 2609.328 L 5170.17 2610.528 L 5168.97 2615.328 L 5166.57 2614.128 L 5162.97 2617.728 L 5161.77 2617.728 L 5161.77 2618.927 L 5160.571 2621.327 L 5158.171 2622.527 L 5156.971 2624.927 L 5158.171 2626.127 L 5160.571 2627.327 L 5160.571 2628.527 L 5159.371 2629.727 L 5158.171 2629.727 L 5156.971 2630.927 L 5155.771 2633.327 L 5154.571 2634.527 L 5155.771 2635.727 L 5153.371 2636.927 L 5153.371 2642.927 L 5150.971 2645.327 L 5152.171 2647.727 L 5153.371 2651.327 L 5153.371 2652.527 L 5155.771 2654.926 L 5156.971 2658.526 L 5160.571 2660.926 L 5160.571 2663.326 L 5161.77 2665.726 L 5160.571 2668.126 L 5161.77 2669.326 L 5162.97 2670.526 L 5162.97 2674.126 L 5164.17 2674.126 L 5164.17 2676.526 L 5162.97 2676.526 L 5162.97 2683.726 L 5164.17 2684.926 L 5165.37 2688.526 L 5166.57 2689.726 L 5168.97 2692.125 L 5167.77 2693.325 L 5166.57 2693.325 L 5167.77 2696.925 L 5167.77 2700.525 L 5168.97 2700.525 L 5167.77 2704.125 L 5167.77 2706.525 L 5168.97 2708.925 L 5168.97 2711.325 L 5166.57 2711.325 L 5166.57 2712.525 L 5167.77 2714.925 L 5167.77 2716.125 L 5168.97 2716.125 L 5168.97 2718.525 L 5170.17 2718.525 L 5168.97 2720.925 L 5170.17 2722.125 L 5171.37 2720.925 L 5172.57 2722.125 L 5174.97 2723.325 L 5177.37 2723.325 L 5178.57 2724.525 L 5180.97 2726.925 L 5182.17 2729.324 L 5185.77 2734.124 L 5185.77 2737.724 L 5186.97 2737.724 L 5185.77 2738.924 L 5186.97 2738.924 L 5186.97 2740.124 L 5188.17 2741.324 L 5186.97 2742.524 L 5188.17 2742.524 L 5186.97 2743.724 L 5188.17 2746.124 L 5185.77 2747.324 L 5185.77 2748.524 L 5183.37 2749.724 L 5182.17 2753.324 L 5182.17 2754.524 L 5179.77 2755.724 L 5180.97 2758.124 L 5178.57 2760.524 L 5178.57 2762.924 L 5179.77 2765.323 L 5178.57 2766.523 L 5179.77 2767.723 L 5180.97 2768.923 L 5182.17 2771.323 L 5182.17 2772.523 L 5180.97 2772.523 L 5180.97 2773.723 L 5179.77 2777.323 L 5180.97 2782.123 L 5178.57 2785.723 L 5180.97 2786.923 L 5179.77 2788.123 L 5180.97 2789.323 L 5180.97 2790.523 L 5182.17 2792.923 L 5180.97 2794.123 L 5182.17 2796.523 L 5182.17 2798.923 L 5180.97 2802.522 L 5178.57 2803.722 L 5177.37 2804.922 L 5177.37 2806.122 L 5176.17 2810.922 L 5176.17 2812.122 L 5173.77 2815.722 L 5173.77 2816.922 L 5174.97 2818.122 L 5174.97 2824.122 L 5176.17 2825.322 L 5177.37 2826.522 L 5178.57 2830.122 L 5177.37 2832.522 L 5177.37 2833.722 L 5176.17 2837.321 L 5176.17 2839.721 L 5173.77 2842.121 L 5173.77 2843.321 L 5172.57 2848.121 L 5172.57 2850.521 L 5171.37 2850.521 L 5173.77 2852.921 L 5171.37 2860.021 L 5170.17 2861.221 L 5168.97 2864.821 L 5167.77 2868.421 L 5165.37 2869.621 L 5165.37 2870.821 L 5164.17 2872.02 L 5162.97 2875.62 L 5159.371 2875.62 L 5159.371 2878.02 L 5158.171 2880.42 L 5159.371 2887.62 L 5154.571 2885.22 L 5150.971 2886.42 L 5149.771 2887.62 L 5147.371 2884.02 L 5146.171 2873.22 L 5144.971 2872.02 L 5143.771 2872.02 L 5141.371 2873.22 L 5132.971 2879.22 L 5125.771 2878.02 L 5120.972 2879.22 L 5117.372 2874.42 L 5116.172 2873.22 L 5114.972 2872.02 L 5112.572 2870.821 L 5107.772 2872.02 L 5101.772 2873.22 L 5096.972 2873.22 L 5094.572 2872.02 L 5092.172 2874.42 L 5088.573 2872.02 L 5084.973 2870.821 L 5082.573 2862.421 L 5076.573 2855.221 L 5075.373 2855.221 L 5071.773 2854.021 L 5070.573 2850.421 L 5069.373 2849.221 L 5069.373 2843.221 L 5065.773 2838.421 L 5066.973 2836.021 L 5065.773 2831.222 L 5068.173 2828.822 L 5065.773 2826.422 L 5065.773 2822.822 L 5066.973 2821.622 L 5066.973 2818.022 L 5063.373 2816.822 L 5063.373 2815.622 L 5065.773 2814.422 L 5063.373 2812.022 L 5062.173 2812.022 L 5063.373 2808.422 L 5060.973 2806.022 L 5059.773 2803.622 L 5054.973 2806.022 L 5051.374 2806.022 L 5047.774 2804.822 L 5047.774 2803.622 L 5048.974 2800.022 L 5050.174 2798.823 L 5048.974 2796.423 L 5045.374 2794.023 L 5036.974 2794.023 L 5036.974 2792.823 L 5035.774 2791.623 L 5035.774 2789.223 L 5034.574 2784.423 L 5041.774 2779.623 L 5042.974 2777.223 L 5042.974 2772.423 L 5045.374 2768.823 L 5045.374 2765.223 L 5047.774 2764.023 L 5054.973 2759.224 L 5054.973 2758.024 L 5051.374 2756.824 L 5051.374 2755.624 L 5048.974 2752.024 L 5048.974 2750.824 L 5051.374 2748.424 L 5051.374 2746.024 L 5048.974 2744.824 L 5045.374 2746.024 L 5044.174 2743.624 L 5041.774 2742.424 L 5039.374 2742.424 L 5036.974 2740.024 L 5035.774 2738.824 L 5035.774 2736.424 L 5036.974 2734.024 L 5038.174 2732.824 L 5034.574 2731.624 L 5032.174 2729.224 L 5030.974 2729.224 L 5027.374 2730.424 L 5022.574 2730.424 L 5020.174 2731.624 L 5018.974 2732.824 L 5018.974 2734.024 L 5015.375 2732.824 L 5015.375 2731.624 L 5016.575 2728.024 L 5014.175 2724.425 L 5012.975 2723.225 L 5011.775 2722.025 L 5009.375 2719.625 L 5006.975 2716.025 L 5006.975 2713.625 L 5005.775 2713.625 L 5002.175 2714.825 L 5000.975 2712.425 L 5000.975 2710.025 L 5003.375 2708.825 L 5003.375 2707.625 L 5004.575 2706.425 L 5005.775 2705.225 L 5003.375 2701.625 L 5004.575 2699.225 L 5005.775 2696.825 L 5004.575 2694.425 L 5004.575 2693.225 L 5002.175 2694.425 L 4999.775 2693.225 L 4999.775 2692.025 L 5000.975 2688.426 L 4999.775 2686.026 L 4998.575 2684.826 L 4993.775 2683.626 L 4992.575 2683.626 L 4992.575 2680.026 L 4991.375 2681.226 L 4990.175 2682.426 L 4986.575 2682.426 L 4985.375 2680.026 L 4986.575 2680.026 L 4985.375 2677.626 L 4986.575 2676.426 L 4985.375 2675.226 L 4986.575 2675.226 L 4985.375 2674.026 L 4987.775 2674.026 L 4988.975 2672.826 L 4987.775 2670.426 L 4984.175 2670.426 L 4978.176 2672.826 L 4975.776 2671.626 L 4973.376 2671.626 L 4973.376 2672.826 L 4970.976 2672.826 L 4972.176 2670.426 L 4969.776 2671.626 L 4967.376 2670.426 L 4964.976 2670.426 L 4964.976 2671.626 L 4961.376 2669.226 L 4961.376 2668.026 L 4963.776 2668.026 L 4962.576 2666.826 L 4963.776 2666.826 L 4963.776 2664.426 L 4966.176 2663.226 L 4966.176 2662.026 L 4964.976 2662.026 L 4964.976 2660.826 L 4963.776 2662.026 L 4961.376 2660.826 L 4962.576 2659.626 L 4966.176 2659.626 L 4966.176 2658.426 L 4967.376 2656.026 L 4967.376 2654.826 L 4967.376 2656.026 L 4969.776 2656.026 L 4969.776 2654.826 L 4970.976 2653.627 L 4970.976 2652.427 L 4969.776 2650.027 L 4970.976 2648.827 L 4972.176 2648.827 L 4974.576 2647.627 L 4974.576 2646.427 L 4976.976 2645.227 L 4976.976 2644.027 L 4979.376 2642.827 L 4978.176 2640.427 L 4976.976 2640.427 L 4975.776 2639.227 L 4975.776 2638.027 L 4974.576 2635.627 L 4976.976 2634.427 L 4979.376 2634.427 L 4980.576 2635.627 L 4981.775 2634.427 L 4984.175 2632.027 L 4987.775 2632.027 L 4988.975 2630.827 L 4987.775 2629.627 L 4987.775 2628.427 L 4988.975 2628.427 L 4990.175 2627.227 L 4988.975 2626.027 L 4990.175 2624.827 L 4990.175 2621.227 L 4991.375 2620.027 L 4990.175 2616.428 L 4988.975 2616.428 L 4988.975 2615.228 L 4987.775 2615.228 L 4987.775 2612.828 L 4986.575 2611.628 L 4985.375 2608.028 L 4988.975 2608.028 L 4988.975 2604.428 L 4991.375 2602.028 L 4992.575 2602.028 L 4993.775 2600.828 L 4992.575 2598.428 L 4991.375 2597.228 L 4992.575 2596.028 L 4990.175 2596.028 L 4991.375 2594.828 L 4990.175 2594.828 L 4987.775 2593.628 L 4988.975 2592.428 L 4987.775 2591.228 L 4988.975 2590.028 L 4988.975 2588.828 L 4990.175 2588.828 L 4990.175 2587.628 L 4991.375 2587.628 L 4990.175 2586.428 L 4991.375 2586.428 L 4991.375 2585.228 L 4990.175 2584.028 L 4988.975 2585.228 L 4988.975 2584.028 L 4987.775 2584.028 L 4988.975 2584.028 L 4988.975 2582.828 L 4990.175 2584.028 L 4991.375 2584.028 L 4991.375 2580.429 L 4992.575 2581.629 L 4992.575 2579.229 L 4992.575 2580.429 L 4993.775 2580.429 L 4993.775 2579.229 L 4994.975 2580.429 L 4994.975 2579.229 L 4996.175 2579.229 L 4994.975 2578.029 L 4996.175 2578.029 L 4996.175 2576.829 L 4997.375 2578.029 L 4998.575 2576.829 L 4998.575 2575.629 L 4999.775 2574.429 L 4999.775 2573.229 L 5000.975 2573.229 L 4999.775 2572.029 L 5000.975 2570.829 L 4999.775 2569.629 L 5000.975 2568.429 L 4999.775 2567.229 L 5000.975 2567.229 L 4999.775 2564.829 L 4999.775 2562.429 L 5002.175 2562.429 L 5002.175 2561.229 L 5003.375 2560.029 L 5004.575 2562.429 L 5005.775 2561.229 L 5009.375 2557.629 L 5008.175 2556.429 L 5009.375 2554.029 L 5009.375 2551.629 L 5008.175 2548.029 L 5009.375 2549.229 L 5011.775 2548.029 L 5010.575 2545.63 L 5011.775 2545.63 L 5011.775 2543.23 L 5015.375 2544.43 L 5020.174 2544.43 L 5021.374 2545.63 L 5022.574 2543.23 L 5023.774 2542.03 L 5024.974 2539.63 L 5028.574 2538.43 L 5030.974 2537.23 L 5033.374 2536.03 L 5038.174 2533.63 L 5042.974 2536.03 L 5045.374 2536.03 L 5047.774 2534.83 L 5051.374 2534.83 L 5053.773 2533.63 L 5056.173 2531.23 L 5058.573 2528.83 L 5060.973 2525.23 L 5059.773 2519.23 L 5060.973 2515.63 L 5063.373 2513.23 L 5064.573 2512.03 L 5062.173 2509.631 L 5059.773 2508.431 L 5059.773 2506.031 L 5063.373 2496.431 L 5063.373 2494.031 L 5064.573 2491.631 L 5066.973 2491.631 L 5068.173 2490.431 L 5068.173 2488.031 L 5065.773 2485.631 L 5065.773 2477.231 L 5064.573 2476.031 L 5064.573 2474.831 L 5063.373 2472.432 L 5058.573 2468.832 L 5053.773 2466.432 L 5051.374 2465.232 L 5051.374 2461.632 L 5048.974 2460.432 L 5047.774 2459.232 L 5045.374 2459.232 L 5045.374 2458.032 L 5042.974 2456.832 L 5039.374 2456.832 L 5036.974 2459.232 L 5035.774 2459.232 L 5033.374 2458.032 L 5032.174 2458.032 L 5030.974 2460.432 L 5027.374 2460.432 L 5024.974 2459.232 L 5023.774 2460.432 L 5022.574 2460.432 L 5021.374 2461.632 L 5018.974 2461.632 L 5017.774 2462.832 L 5016.575 2461.632 L 5015.375 2465.232 L 5014.175 2465.232 L 5014.175 2464.032 L 5012.975 2465.232 L 5011.775 2466.432 L 5011.775 2467.632 L 5010.575 2466.432 L 5010.575 2467.632 L 5009.375 2467.632 L 5008.175 2466.432 L 5006.975 2467.632 L 5003.375 2468.832 L 5002.175 2468.832 L 5002.175 2470.032 L 5000.975 2470.032 L 4999.775 2467.632 L 4998.575 2468.832 L 4997.375 2470.032 L 4996.175 2468.832 L 4996.175 2467.632 L 4993.775 2468.832 L 4993.775 2471.232 L 4992.575 2471.232 L 4991.375 2473.632 L 4990.175 2473.632 L 4988.975 2472.432 L 4987.775 2472.432 L 4987.775 2474.831 L 4984.175 2474.831 L 4982.975 2477.231 L 4981.775 2477.231 L 4981.775 2480.831 L 4979.376 2482.031 L 4980.576 2483.231 L 4976.976 2484.431 L 4976.976 2485.631 L 4975.776 2484.431 L 4974.576 2488.031 L 4973.376 2488.031 L 4973.376 2486.831 L 4969.776 2486.831 L 4969.776 2485.631 L 4966.176 2485.631 L 4966.176 2484.431 L 4963.776 2483.231 L 4964.976 2482.031 L 4962.576 2480.831 L 4962.576 2477.231 L 4958.976 2473.632 L 4954.176 2473.632 L 4956.576 2472.432 L 4954.176 2470.032 L 4955.376 2470.032 L 4955.376 2467.632 L 4954.176 2468.832 L 4952.976 2467.632 L 4954.176 2464.032 L 4952.976 2465.232 L 4951.776 2461.632 L 4950.576 2461.632 L 4948.176 2462.832 L 4948.176 2456.832 L 4945.776 2456.832 L 4945.776 2455.632 L 4944.577 2454.432 L 4942.177 2452.032 L 4942.177 2449.632 L 4940.977 2449.632 L 4940.977 2447.232 L 4938.577 2448.432 L 4938.577 2447.232 L 4937.377 2447.232 L 4937.377 2446.032 L 4934.977 2446.032 L 4933.777 2444.832 L 4932.577 2443.632 L 4932.577 2442.432 L 4930.177 2442.432 L 4930.177 2441.232 L 4932.577 2440.032 L 4930.177 2440.032 L 4931.377 2438.832 L 4930.177 2436.433 L 4928.977 2432.833 L 4930.177 2431.633 L 4927.777 2431.633 L 4926.577 2432.833 L 4927.777 2430.433 L 4927.777 2429.233 L 4925.377 2429.233 L 4925.377 2426.833 L 4924.177 2428.033 L 4921.777 2426.833 L 4920.577 2428.033 L 4919.377 2426.833 L 4918.177 2426.833 L 4918.177 2424.433 L 4919.377 2423.233 L 4918.177 2422.033 L 4918.177 2420.833 L 4919.377 2422.033 L 4920.577 2422.033 L 4920.577 2419.633 L 4914.577 2418.433 L 4914.577 2416.033 L 4913.377 2414.833 L 4916.977 2414.833 L 4918.177 2413.633 L 4916.977 2412.433 L 4914.577 2410.033 L 4912.177 2408.833 L 4910.977 2406.433 L 4907.378 2406.433 L 4907.378 2407.633 L 4908.578 2410.033 L 4910.977 2410.033 L 4910.977 2411.233 L 4908.578 2413.633 L 4906.178 2412.433 L 4904.978 2410.033 L 4904.978 2408.833 L 4906.178 2406.433 L 4906.178 2402.833 L 4902.578 2400.434 L 4903.778 2398.034 L 4902.578 2396.834 L 4901.378 2396.834 L 4898.978 2395.634 L 4896.578 2395.634 L 4896.578 2394.434 L 4897.778 2393.234 L 4898.978 2392.034 L 4898.978 2390.834 L 4897.778 2389.634 L 4896.578 2388.434 L 4891.778 2388.434 L 4890.578 2390.834 L 4889.378 2390.834 L 4888.178 2389.634 L 4888.178 2383.634 L 4885.778 2381.234 L 4884.578 2375.234 L 4884.578 2372.834 L 4879.778 2372.834 L 4876.178 2374.034 L 4873.778 2375.234 L 4868.979 2374.034 L 4871.379 2369.234 L 4873.778 2368.034 L 4883.378 2364.435 L 4883.378 2363.235 L 4888.178 2360.835 L 4889.378 2354.835 L 4888.178 2352.435 L 4885.778 2347.635 L 4878.578 2342.835 L 4877.378 2341.635 L 4868.979 2341.635 L 4866.579 2342.835 L 4862.979 2348.835 L 4858.179 2348.835 L 4854.579 2340.435 L 4850.979 2336.835 L 4843.779 2333.235 L 4841.379 2330.835 L 4841.379 2323.636 L 4847.379 2320.036 L 4848.579 2318.836 L 4850.979 2318.836 L 4854.579 2320.036 L 4856.979 2321.236 L 4859.379 2320.036 L 4862.979 2315.236 L 4864.179 2310.436 L 4868.979 2304.436 L 4871.379 2303.236 L 4876.178 2298.436 L 4877.378 2296.036 L 4877.378 2294.836 L 4878.578 2291.237 L 4879.778 2288.837 L 4879.778 2284.037 L 4883.378 2276.837 L 4884.578 2274.437 L 4883.378 2270.837 L 4880.978 2264.837 L 4880.978 2263.637 L 4879.778 2263.637 L 4879.778 2262.437 L 4882.178 2255.238 L 4885.778 2249.238 L 4885.778 2238.438 L 4886.978 2237.238 L 4885.778 2233.638 L 4889.378 2226.438 L 4891.778 2222.838 L 4891.778 2213.239 L 4892.978 2212.039 L 4892.978 2209.639 L 4897.778 2202.439 L 4898.978 2202.439 L 4900.178 2200.039 L 4896.578 2190.439 L 4897.778 2189.239 L 4898.978 2184.44 L 4900.178 2179.64 L 4901.378 2173.64 L 4901.378 2172.44 L 4906.178 2162.84 L 4906.178 2156.84 L 4904.978 2153.24 L 4902.578 2149.64 L 4900.178 2143.641 L 4897.778 2132.841 L 4896.578 2128.041 L 4897.778 2123.241 L 4897.778 2118.441 L 4896.578 2113.641 L 4894.178 2110.042 L 4897.778 2099.242 L 4897.778 2087.242 L 4896.578 2086.042 L 4895.378 2080.042 L 4890.578 2069.243 L 4888.178 2066.843 L 4885.778 2062.043 L 4886.978 2058.443 L 4889.378 2050.043 L 4889.378 2042.843 L 4888.178 2038.044 L 4888.178 2032.044 L 4885.778 2024.844 L 4874.978 2014.044 L 4873.778 2014.044 L 4871.379 2015.244 L 4864.179 2012.844 L 4855.779 2005.644 L 4852.179 2004.445 L 4842.579 1998.445 L 4837.779 1998.445 L 4832.98 1999.645 L 4826.98 1999.645 L 4824.58 1997.245 L 4819.78 1991.245 L 4819.78 1982.845 L 4818.58 1979.245 L 4817.38 1976.845 L 4808.98 1973.245 L 4804.18 1973.245 L 4798.181 1972.045 L 4794.581 1972.045 L 4788.581 1978.045 L 4782.581 1979.245 L 4777.781 1978.045 L 4765.781 1976.845 L 4763.382 1975.645 L 4759.782 1974.445 L 4757.382 1972.045 L 4756.182 1972.045 L 4753.782 1970.845 L 4748.982 1968.446 L 4745.382 1966.046 L 4740.582 1966.046 L 4734.582 1961.246 L 4732.182 1960.046 L 4714.183 1962.446 L 4710.583 1964.846 L 4704.583 1963.646 L 4700.983 1966.046 L 4697.383 1970.845 L 4697.383 1973.245 L 4696.183 1976.845 L 4696.183 1980.445 L 4693.783 1986.445 L 4690.184 1990.045 L 4688.984 1991.245 L 4685.384 1990.045 L 4684.184 1987.645 L 4681.784 1986.445 L 4676.984 1985.245 L 4674.584 1986.445 L 4673.384 1987.645 L 4672.184 1992.445 L 4670.984 1993.645 L 4667.384 1992.445 L 4666.184 1993.645 L 4664.184 1992.245 Z  M 5181.37 1230.766 L 5181.37 1229.566 L 5181.37 1230.766 Z  M 5273.567 1278.665 L 5273.567 1277.465 L 5272.367 1275.065 L 5271.167 1277.465 L 5269.967 1276.265 L 5271.167 1277.465 L 5272.367 1276.265 L 5272.367 1278.665 L 5273.567 1278.665 Z  M 5316.666 1265.465 L 5316.666 1261.865 L 5317.866 1260.665 L 5317.866 1263.065 L 5316.666 1264.265 L 5317.866 1264.265 L 5320.266 1272.665 L 5319.066 1273.865 L 5319.066 1272.665 L 5317.866 1267.865 L 5317.866 1265.465 L 5316.666 1265.465 L 5316.666 1265.465 Z  M 5317.866 1264.265 L 5316.666 1264.265 L 5316.666 1265.465 L 5317.866 1264.265 Z  M 5211.369 1251.065 L 5212.569 1251.065 L 5211.369 1249.865 L 5211.369 1251.065 Z  M 5212.569 1251.065 L 5211.369 1253.465 L 5210.169 1254.665 L 5210.169 1258.265 L 5211.369 1258.265 L 5210.169 1254.665 L 5212.569 1253.465 L 5213.769 1252.265 L 5212.569 1251.065 Z  M 5370.565 1325.363 L 5371.765 1325.363 L 5371.765 1326.163 L 5372.965 1325.363 L 5374.165 1327.763 L 5371.765 1328.963 L 5369.365 1327.763 L 5371.165 1326.563 L 5370.565 1326.563 L 5370.565 1325.363 Z  M 5369.365 1309.764 L 5368.165 1309.764 L 5369.365 1308.564 L 5369.365 1309.764 Z  M 5181.37 1249.865 L 5178.97 1251.065 L 5177.77 1253.465 L 5178.97 1255.865 L 5181.37 1255.865 L 5181.37 1258.265 L 5182.57 1259.465 L 5183.77 1258.265 L 5184.97 1260.665 L 5184.97 1264.265 L 5184.97 1263.065 L 5186.17 1260.665 L 5183.77 1258.265 L 5182.57 1259.465 L 5181.37 1258.265 L 5181.37 1255.865 L 5180.17 1254.665 L 5177.77 1253.465 L 5178.97 1252.265 L 5182.17 1249.865 L 5181.37 1249.865 L 5181.37 1249.865 Z  M 5422.063 1407.961 L 5422.063 1406.761 L 5422.063 1407.961 L 5423.263 1407.961 L 5423.263 1406.761 L 5423.263 1407.961 L 5422.063 1407.961 Z  M 5346.665 1264.265 L 5346.665 1263.065 L 5345.465 1261.865 L 5343.065 1261.865 L 5341.866 1260.665 L 5341.866 1261.865 L 5345.465 1263.065 L 5340.666 1265.465 L 5339.466 1265.465 L 5339.466 1263.065 L 5339.466 1265.465 L 5340.666 1265.465 L 5344.265 1264.265 L 5345.465 1264.265 L 5344.265 1265.465 L 5339.466 1269.065 L 5339.466 1270.265 L 5335.866 1270.265 L 5335.866 1269.065 L 5335.866 1272.665 L 5333.466 1275.065 L 5332.266 1275.065 L 5332.266 1273.865 L 5331.066 1276.265 L 5328.666 1276.265 L 5323.866 1272.665 L 5322.666 1266.665 L 5322.666 1267.865 L 5322.666 1266.665 L 5325.066 1264.265 L 5322.666 1264.265 L 5321.466 1263.065 L 5322.666 1260.665 L 5325.066 1259.465 L 5326.266 1260.665 L 5327.466 1261.865 L 5331.066 1263.065 L 5331.066 1261.865 L 5332.266 1260.665 L 5335.866 1264.265 L 5335.866 1263.065 L 5332.266 1260.665 L 5333.466 1259.465 L 5333.466 1258.265 L 5333.466 1259.465 L 5331.066 1259.465 L 5332.266 1257.065 L 5329.866 1258.265 L 5328.666 1257.065 L 5331.066 1253.465 L 5332.266 1252.265 L 5334.666 1252.265 L 5335.866 1253.465 L 5338.266 1253.465 L 5339.466 1255.865 L 5339.466 1257.065 L 5340.666 1257.065 L 5339.466 1254.665 L 5339.466 1252.265 L 5343.065 1252.265 L 5346.665 1253.465 L 5351.465 1255.865 L 5352.665 1259.465 L 5352.665 1261.865 L 5353.865 1263.065 L 5350.265 1264.265 L 5347.865 1266.665 L 5349.065 1260.665 L 5347.865 1263.065 L 5347.865 1264.265 L 5346.665 1264.265 Z  M 5364.565 1304.964 L 5365.765 1303.764 L 5365.765 1304.964 L 5364.565 1304.964 Z  M 5174.27 1248.665 L 5174.27 1247.465 L 5175.47 1247.465 L 5175.47 1248.665 L 5174.27 1248.665 Z  M 5393.364 1344.463 L 5393.364 1343.263 L 5394.564 1343.263 L 5395.764 1342.063 L 5395.764 1343.263 L 5394.564 1343.263 L 5394.564 1344.463 L 5393.364 1344.463 Z  M 5213.769 1255.865 L 5212.569 1258.265 L 5213.769 1258.265 L 5213.769 1255.865 Z  M 5225.769 1251.065 L 5226.969 1249.865 L 5228.169 1248.665 L 5226.969 1249.865 L 5228.169 1249.865 L 5226.969 1251.065 L 5225.769 1251.065 Z  M 5356.165 1303.764 L 5357.365 1303.764 L 5356.165 1300.164 L 5357.365 1298.964 L 5360.965 1296.564 L 5362.165 1292.964 L 5362.165 1291.764 L 5365.765 1289.364 L 5368.165 1289.364 L 5365.765 1286.964 L 5365.765 1285.764 L 5369.365 1284.564 L 5371.765 1286.964 L 5371.765 1295.364 L 5370.565 1296.564 L 5366.965 1296.564 L 5364.565 1297.764 L 5363.365 1297.764 L 5363.365 1298.964 L 5364.565 1298.964 L 5363.365 1300.164 L 5363.365 1301.364 L 5362.165 1303.764 L 5360.965 1304.964 L 5357.365 1303.764 L 5358.565 1304.964 L 5358.565 1306.164 L 5357.365 1304.964 L 5356.165 1303.764 Z  M 5499.861 1458.26 L 5499.861 1455.86 L 5501.061 1455.86 L 5502.261 1454.66 L 5502.261 1457.06 L 5501.061 1455.86 L 5499.861 1458.26 Z  M 5322.666 1273.865 L 5323.866 1273.865 L 5326.266 1275.065 L 5326.266 1276.265 L 5325.066 1276.265 L 5322.666 1273.865 Z  M 5238.868 1272.665 L 5240.068 1271.465 L 5241.268 1269.065 L 5238.868 1270.265 L 5238.868 1272.665 Z  M 5390.964 1346.863 L 5390.964 1345.663 L 5392.164 1346.863 L 5392.164 1350.463 L 5390.964 1346.863 Z  M 5422.063 1388.762 L 5423.263 1385.162 L 5424.463 1387.562 L 5423.263 1388.762 L 5422.063 1388.762 L 5422.063 1388.762 Z  M 5371.765 1324.163 L 5372.965 1322.963 L 5375.365 1321.763 L 5375.365 1325.363 L 5371.765 1324.163 Z  M 5253.268 1276.265 L 5254.468 1273.865 L 5255.668 1273.865 L 5255.668 1276.265 L 5254.468 1277.465 L 5253.268 1276.265 Z  M 5417.263 1397.161 L 5424.463 1393.561 L 5423.263 1395.961 L 5419.663 1397.161 L 5417.263 1397.161 L 5417.263 1397.161 Z  M 5416.063 1404.361 L 5418.463 1404.361 L 5417.263 1403.161 L 5418.463 1401.961 L 5418.463 1400.761 L 5419.663 1401.961 L 5420.863 1401.961 L 5419.663 1403.161 L 5419.663 1406.761 L 5418.463 1406.761 L 5419.663 1405.561 L 5416.063 1404.361 Z  M 5308.266 1277.465 L 5310.666 1275.065 L 5311.866 1270.265 L 5311.866 1269.065 L 5314.266 1269.065 L 5314.266 1271.465 L 5311.866 1272.665 L 5311.866 1273.865 L 5309.466 1277.465 L 5309.466 1279.865 L 5308.266 1277.465 Z  M 5185.07 1237.966 L 5186.27 1235.566 L 5187.47 1235.566 L 5188.67 1236.766 L 5188.67 1240.366 L 5187.47 1242.766 L 5185.07 1240.366 L 5185.07 1237.966 Z  M 5181.37 1224.766 L 5181.37 1223.566 L 5183.77 1222.366 L 5186.17 1223.566 L 5186.17 1224.766 L 5184.97 1224.766 L 5186.17 1227.166 L 5183.77 1229.566 L 5183.77 1228.366 L 5182.57 1229.566 L 5181.37 1228.366 L 5181.37 1224.766 Z  M 5394.464 1352.863 L 5395.664 1354.063 L 5396.864 1354.063 L 5395.664 1352.863 L 5394.464 1352.863 Z  M 5390.964 1356.962 L 5389.764 1357.662 L 5393.364 1360.062 L 5395.764 1358.862 L 5396.964 1356.462 L 5395.764 1357.662 L 5393.364 1358.862 L 5390.964 1357.662 L 5390.964 1356.962 L 5390.964 1356.962 Z  M 5369.365 1306.164 L 5369.365 1302.564 L 5370.565 1301.364 L 5371.765 1298.964 L 5372.965 1298.964 L 5375.365 1301.364 L 5375.365 1302.564 L 5374.165 1303.764 L 5369.365 1307.364 L 5369.365 1306.164 L 5369.365 1306.164 Z  M 5331.066 1263.065 L 5329.866 1266.665 L 5331.066 1264.265 L 5331.066 1263.065 Z  M 5329.866 1266.665 L 5326.266 1264.265 L 5325.066 1264.265 L 5328.666 1266.665 L 5331.066 1272.665 L 5332.266 1272.665 L 5331.066 1271.465 L 5329.866 1266.665 Z  M 5398.164 1356.462 L 5396.964 1352.863 L 5398.164 1349.263 L 5400.564 1349.263 L 5400.564 1346.863 L 5401.764 1346.863 L 5402.964 1348.063 L 5401.764 1349.263 L 5402.964 1352.863 L 5401.764 1355.262 L 5402.964 1354.063 L 5401.764 1356.462 L 5400.564 1357.662 L 5399.364 1357.662 L 5398.164 1356.462 Z  M 5232.869 1243.966 L 5231.669 1243.966 L 5230.469 1242.766 L 5228.069 1242.766 L 5224.469 1243.966 L 5222.069 1246.365 L 5220.869 1246.365 L 5224.469 1242.766 L 5225.669 1240.366 L 5226.869 1240.366 L 5225.669 1239.166 L 5225.669 1236.766 L 5228.069 1235.566 L 5230.469 1236.766 L 5230.469 1237.966 L 5232.869 1239.166 L 5234.068 1242.766 L 5232.869 1242.766 L 5232.869 1241.566 L 5232.869 1243.966 Z  M 5208.969 1247.465 L 5205.369 1249.865 L 5202.969 1246.265 L 5204.169 1246.265 L 5202.969 1243.866 L 5202.969 1241.466 L 5204.169 1241.466 L 5202.969 1240.266 L 5204.169 1237.866 L 5205.369 1241.466 L 5206.569 1241.466 L 5207.769 1243.866 L 5206.569 1241.466 L 5205.369 1240.266 L 5205.369 1237.866 L 5206.569 1235.466 L 5208.969 1240.266 L 5210.169 1241.466 L 5208.969 1245.066 L 5210.169 1246.265 L 5208.969 1247.465 Z  M 5363.365 1297.764 L 5364.565 1295.364 L 5368.165 1290.564 L 5368.165 1289.364 L 5362.165 1297.764 L 5359.765 1298.964 L 5363.365 1297.764 Z  M 5341.866 1260.665 L 5344.265 1259.465 L 5344.265 1258.265 L 5343.065 1258.265 L 5341.866 1260.665 Z  M 5343.065 1258.265 L 5341.866 1258.265 L 5341.866 1259.465 L 5343.065 1258.265 Z  M 5341.866 1258.265 L 5343.065 1257.065 L 5341.866 1257.065 L 5341.866 1258.265 Z " fill="#F3AA47" vector-effect="non-scaling-stroke" stroke-width="1" stroke-linejoin="miter" stroke-linecap="butt" stroke-miterlimit="4"/></svg>