<?xml version="1.0" standalone="no"?><!-- Generator: Gravit.io --><svg xmlns="http://www.w3.org/2000/svg" xmlns:xlink="http://www.w3.org/1999/xlink" style="isolation:isolate" viewBox="3001.63 4138.985 1283.965 1261.165" width="1283.965" height="1261.165"><path d=" M 3027.43 4574.773 L 3053.829 4519.675 L 3071.728 4480.176 L 3084.928 4480.176 L 3087.328 4476.576 L 3086.128 4476.576 L 3087.328 4474.176 L 3084.928 4471.776 L 3083.728 4470.576 L 3082.528 4470.576 L 3082.528 4456.177 L 3074.128 4456.177 L 3111.227 4336.48 L 3129.127 4335.28 L 3129.127 4334.08 L 3126.727 4332.88 L 3125.527 4331.68 L 3125.527 4329.28 L 3124.327 4328.08 L 3123.127 4329.28 L 3120.727 4328.08 L 3120.727 4329.28 L 3107.627 4317.28 L 3106.427 4312.481 L 3104.027 4301.681 L 3082.428 4260.982 L 3089.628 4260.982 L 3089.628 4257.382 L 3082.428 4251.382 L 3084.828 4244.182 L 3082.428 4241.783 L 3081.228 4241.783 L 3078.828 4236.983 L 3077.628 4236.983 L 3075.228 4230.983 L 3072.828 4229.783 L 3071.628 4227.383 L 3072.828 4224.983 L 3072.828 4221.383 L 3071.628 4222.583 L 3071.628 4221.383 L 3072.828 4218.983 L 3070.428 4218.983 L 3071.628 4218.983 L 3072.828 4216.583 L 3070.428 4217.783 L 3070.428 4216.583 L 3071.628 4215.383 L 3071.628 4214.183 L 3069.228 4212.983 L 3069.228 4211.783 L 3070.428 4211.783 L 3076.428 4212.983 L 3078.828 4208.183 L 3081.228 4206.984 L 3083.628 4209.383 L 3083.628 4214.183 L 3086.028 4215.383 L 3086.028 4220.183 L 3087.228 4224.983 L 3088.428 4224.983 L 3088.428 4227.383 L 3089.628 4227.383 L 3089.628 4230.983 L 3090.828 4232.183 L 3090.828 4233.383 L 3092.028 4233.383 L 3090.828 4234.583 L 3089.628 4235.783 L 3089.628 4239.383 L 3088.428 4240.583 L 3090.828 4241.783 L 3090.828 4242.983 L 3092.028 4242.983 L 3092.028 4244.182 L 3095.628 4242.983 L 3095.628 4241.783 L 3096.828 4241.783 L 3099.228 4244.182 L 3100.428 4246.582 L 3101.628 4247.782 L 3100.428 4247.782 L 3101.628 4250.182 L 3104.027 4251.382 L 3102.827 4252.582 L 3101.628 4252.582 L 3102.827 4256.182 L 3102.827 4257.382 L 3107.627 4256.182 L 3108.827 4259.782 L 3111.227 4259.782 L 3112.427 4260.982 L 3116.027 4263.382 L 3114.827 4265.782 L 3119.627 4268.182 L 3125.627 4266.982 L 3125.627 4270.582 L 3128.027 4274.182 L 3130.427 4275.382 L 3131.627 4272.982 L 3130.427 4269.382 L 3132.827 4269.382 L 3135.227 4265.782 L 3137.627 4266.982 L 3137.627 4265.782 L 3138.826 4264.582 L 3138.826 4263.382 L 3141.226 4264.582 L 3143.626 4260.982 L 3144.826 4260.982 L 3146.026 4262.182 L 3147.226 4263.382 L 3148.426 4262.182 L 3149.626 4263.382 L 3149.626 4262.182 L 3152.026 4262.182 L 3152.026 4260.982 L 3154.426 4259.782 L 3155.626 4258.582 L 3156.826 4259.782 L 3158.026 4258.582 L 3159.226 4258.582 L 3158.026 4259.782 L 3159.226 4260.982 L 3159.226 4258.582 L 3162.826 4259.782 L 3165.226 4258.582 L 3168.826 4258.582 L 3168.826 4257.382 L 3166.426 4257.382 L 3165.226 4254.982 L 3166.426 4256.182 L 3168.826 4253.782 L 3170.026 4254.982 L 3170.026 4253.782 L 3174.826 4253.782 L 3178.425 4252.582 L 3182.025 4252.582 L 3184.425 4250.182 L 3189.225 4252.582 L 3189.225 4251.382 L 3192.825 4251.382 L 3192.825 4247.782 L 3195.225 4246.582 L 3196.425 4244.182 L 3198.825 4244.182 L 3200.025 4242.983 L 3201.225 4244.182 L 3202.425 4244.182 L 3203.625 4236.983 L 3206.025 4236.983 L 3206.025 4235.783 L 3207.225 4233.383 L 3209.625 4233.383 L 3212.024 4230.983 L 3213.224 4227.383 L 3216.824 4222.583 L 3216.824 4221.383 L 3214.424 4222.583 L 3213.224 4221.383 L 3213.224 4220.183 L 3214.424 4218.983 L 3213.224 4216.583 L 3214.424 4216.583 L 3215.624 4214.183 L 3218.024 4214.183 L 3220.424 4210.583 L 3224.024 4209.383 L 3226.424 4208.183 L 3228.824 4209.383 L 3231.224 4208.183 L 3232.424 4204.584 L 3233.624 4204.584 L 3234.824 4202.184 L 3233.624 4200.984 L 3234.824 4198.584 L 3236.024 4199.784 L 3237.224 4198.584 L 3236.024 4196.184 L 3237.224 4194.984 L 3239.624 4194.984 L 3240.824 4193.784 L 3240.824 4192.584 L 3238.424 4191.384 L 3239.624 4190.184 L 3240.824 4190.184 L 3242.024 4188.984 L 3240.824 4187.784 L 3239.624 4187.784 L 3237.224 4186.584 L 3239.624 4185.384 L 3239.624 4181.784 L 3244.424 4180.584 L 3246.824 4181.784 L 3248.023 4181.784 L 3246.824 4179.384 L 3248.023 4178.184 L 3251.623 4175.784 L 3251.623 4174.584 L 3250.423 4173.384 L 3252.823 4172.184 L 3252.823 4169.785 L 3256.423 4169.785 L 3256.423 4167.385 L 3258.823 4167.385 L 3260.023 4168.585 L 3264.823 4168.585 L 3263.623 4169.785 L 3266.023 4168.585 L 3267.223 4169.785 L 3267.223 4170.985 L 3269.623 4172.184 L 3270.823 4170.985 L 3269.623 4169.785 L 3270.823 4169.785 L 3272.023 4172.184 L 3273.223 4170.985 L 3272.023 4169.785 L 3272.023 4168.585 L 3273.223 4169.785 L 3275.623 4170.985 L 3275.623 4169.785 L 3278.023 4169.785 L 3278.023 4170.985 L 3285.222 4170.985 L 3284.022 4168.585 L 3285.222 4168.585 L 3288.822 4169.785 L 3292.422 4167.385 L 3293.622 4168.585 L 3294.822 4167.385 L 3296.022 4167.385 L 3296.022 4166.185 L 3297.222 4166.185 L 3296.022 4163.785 L 3297.222 4164.985 L 3298.422 4162.585 L 3298.422 4164.985 L 3299.622 4164.985 L 3303.222 4167.385 L 3303.222 4166.185 L 3304.422 4166.185 L 3304.422 4168.585 L 3306.822 4167.385 L 3306.822 4169.785 L 3308.022 4170.985 L 3310.422 4168.585 L 3312.822 4167.385 L 3314.022 4168.585 L 3315.222 4166.185 L 3317.622 4166.185 L 3318.822 4163.785 L 3318.822 4162.585 L 3322.421 4161.385 L 3322.421 4160.185 L 3323.621 4160.185 L 3323.621 4158.985 L 3326.021 4160.185 L 3326.021 4161.385 L 3324.821 4160.185 L 3324.821 4161.385 L 3327.221 4163.785 L 3327.221 4162.585 L 3329.621 4162.585 L 3329.621 4161.385 L 3330.821 4160.185 L 3332.021 4160.185 L 3333.221 4161.385 L 3334.421 4160.185 L 3335.621 4160.185 L 3336.821 4157.785 L 3335.621 4156.585 L 3335.621 4155.385 L 3339.221 4155.385 L 3338.021 4155.385 L 3339.221 4154.185 L 3341.621 4155.385 L 3340.421 4152.985 L 3340.421 4151.785 L 3341.621 4152.985 L 3341.621 4150.585 L 3344.021 4150.585 L 3345.221 4151.785 L 3347.621 4151.785 L 3347.621 4150.585 L 3350.021 4151.785 L 3348.821 4149.385 L 3350.021 4149.385 L 3351.221 4148.185 L 3353.621 4149.385 L 3353.621 4144.585 L 3354.821 4145.785 L 3356.02 4144.585 L 3357.22 4145.785 L 3359.62 4144.585 L 3360.82 4144.585 L 3362.02 4145.785 L 3362.02 4143.385 L 3363.22 4143.385 L 3364.42 4142.185 L 3365.62 4142.185 L 3366.82 4140.985 L 3368.02 4142.185 L 3371.62 4143.385 L 3374.02 4142.185 L 3376.42 4142.185 L 3377.62 4144.585 L 3378.82 4144.585 L 3377.62 4142.185 L 3378.82 4142.185 L 3381.22 4144.585 L 3383.62 4145.785 L 3386.02 4148.185 L 3383.62 4148.185 L 3383.62 4150.585 L 3384.82 4149.385 L 3384.82 4154.185 L 3386.02 4152.985 L 3386.02 4155.385 L 3387.22 4154.185 L 3388.42 4154.185 L 3388.42 4157.785 L 3389.62 4155.385 L 3390.82 4156.585 L 3395.619 4156.585 L 3394.419 4157.785 L 3396.819 4161.385 L 3399.219 4160.185 L 3399.219 4157.785 L 3401.619 4158.985 L 3406.419 4158.985 L 3405.219 4160.185 L 3404.019 4160.185 L 3404.019 4161.385 L 3406.419 4160.185 L 3405.219 4161.385 L 3406.419 4162.585 L 3408.819 4161.385 L 3407.619 4160.185 L 3408.819 4158.985 L 3411.219 4162.585 L 3412.419 4161.385 L 3413.619 4163.785 L 3414.819 4164.985 L 3416.019 4163.785 L 3417.219 4163.785 L 3416.019 4164.985 L 3417.219 4166.185 L 3418.419 4164.985 L 3422.019 4164.985 L 3420.819 4167.385 L 3424.419 4170.985 L 3424.419 4169.785 L 3425.619 4168.585 L 3426.819 4170.985 L 3428.018 4169.785 L 3429.218 4169.785 L 3430.418 4170.985 L 3431.618 4170.985 L 3432.818 4172.184 L 3434.018 4172.184 L 3435.218 4174.584 L 3437.618 4172.184 L 3438.818 4174.584 L 3441.218 4172.184 L 3442.418 4174.584 L 3443.618 4172.184 L 3444.818 4174.584 L 3447.218 4172.184 L 3447.218 4174.584 L 3449.618 4175.784 L 3449.618 4172.184 L 3450.818 4174.584 L 3453.218 4176.984 L 3454.418 4178.184 L 3454.418 4175.784 L 3456.818 4178.184 L 3458.018 4179.384 L 3460.418 4178.184 L 3459.218 4179.384 L 3460.418 4179.384 L 3459.218 4181.784 L 3460.418 4182.984 L 3459.218 4182.984 L 3460.418 4184.184 L 3459.218 4184.184 L 3459.218 4186.584 L 3460.418 4187.784 L 3460.418 4186.584 L 3461.618 4186.584 L 3461.618 4190.184 L 3462.818 4190.184 L 3464.017 4191.384 L 3464.017 4190.184 L 3466.417 4192.584 L 3465.217 4192.584 L 3467.617 4193.784 L 3467.617 4194.984 L 3468.817 4196.184 L 3471.217 4196.184 L 3471.217 4198.584 L 3473.617 4198.584 L 3473.617 4199.784 L 3474.817 4198.584 L 3474.817 4199.784 L 3476.017 4198.584 L 3477.217 4198.584 L 3478.417 4197.384 L 3479.617 4198.584 L 3482.017 4200.984 L 3482.017 4202.184 L 3483.217 4202.184 L 3483.217 4203.384 L 3488.017 4203.384 L 3489.217 4204.584 L 3491.617 4203.384 L 3494.017 4204.584 L 3494.017 4205.784 L 3495.217 4205.784 L 3496.417 4204.584 L 3497.617 4205.784 L 3500.016 4206.984 L 3501.216 4206.984 L 3501.216 4210.583 L 3503.616 4210.583 L 3503.616 4209.383 L 3503.616 4210.583 L 3506.016 4211.783 L 3506.016 4210.583 L 3504.816 4210.583 L 3506.016 4209.383 L 3507.216 4210.583 L 3510.816 4209.383 L 3512.016 4209.383 L 3510.816 4210.583 L 3513.216 4211.783 L 3512.016 4212.983 L 3513.216 4211.783 L 3513.216 4212.983 L 3515.616 4212.983 L 3515.616 4211.783 L 3516.816 4212.983 L 3515.616 4214.183 L 3516.816 4215.383 L 3518.016 4215.383 L 3518.016 4216.583 L 3519.216 4216.583 L 3519.216 4218.983 L 3520.416 4217.783 L 3519.216 4218.983 L 3520.416 4220.183 L 3520.416 4218.983 L 3521.616 4220.183 L 3521.616 4218.983 L 3522.816 4218.983 L 3522.816 4220.183 L 3525.216 4221.383 L 3525.216 4222.583 L 3524.016 4221.383 L 3524.016 4222.583 L 3527.616 4222.583 L 3527.616 4223.783 L 3528.816 4223.783 L 3528.816 4224.983 L 3531.216 4223.783 L 3532.416 4224.983 L 3532.416 4226.183 L 3533.616 4226.183 L 3532.416 4227.383 L 3533.616 4227.383 L 3533.616 4226.183 L 3534.816 4227.383 L 3538.415 4227.383 L 3538.415 4228.583 L 3540.815 4229.783 L 3543.215 4227.383 L 3544.415 4224.983 L 3545.615 4226.183 L 3545.615 4224.983 L 3546.815 4226.183 L 3548.015 4224.983 L 3549.215 4226.183 L 3549.215 4224.983 L 3550.415 4226.183 L 3551.615 4227.383 L 3555.215 4227.383 L 3555.215 4226.183 L 3555.215 4227.383 L 3557.615 4227.383 L 3558.815 4226.183 L 3558.815 4227.383 L 3558.815 4226.183 L 3560.015 4226.183 L 3560.015 4224.983 L 3561.215 4226.183 L 3561.215 4224.983 L 3563.615 4226.183 L 3564.815 4227.383 L 3564.815 4226.183 L 3566.015 4223.783 L 3567.215 4224.983 L 3568.415 4222.583 L 3569.615 4223.783 L 3569.615 4222.583 L 3572.015 4222.583 L 3573.214 4221.383 L 3580.414 4221.383 L 3581.614 4223.783 L 3584.014 4222.583 L 3587.614 4223.783 L 3590.014 4222.583 L 3591.214 4222.583 L 3594.814 4221.383 L 3594.814 4218.983 L 3596.014 4218.983 L 3598.414 4216.583 L 3599.614 4216.583 L 3602.014 4214.183 L 3605.614 4214.183 L 3605.614 4212.983 L 3606.814 4211.783 L 3605.614 4211.783 L 3606.814 4209.383 L 3606.814 4208.183 L 3608.014 4205.784 L 3611.613 4204.584 L 3614.013 4204.584 L 3616.413 4203.384 L 3616.413 4200.984 L 3617.613 4202.184 L 3620.013 4203.384 L 3620.013 4202.184 L 3621.213 4202.184 L 3623.613 4200.984 L 3624.813 4199.784 L 3627.213 4200.984 L 3630.813 4199.784 L 3635.613 4197.384 L 3636.813 4196.184 L 3639.213 4197.384 L 3639.213 4198.584 L 3640.413 4197.384 L 3641.613 4199.784 L 3645.212 4197.384 L 3646.412 4197.384 L 3647.612 4198.584 L 3651.212 4198.584 L 3653.612 4199.784 L 3654.812 4199.784 L 3654.812 4200.984 L 3656.012 4200.984 L 3654.812 4203.384 L 3656.012 4203.384 L 3656.012 4204.584 L 3657.212 4206.984 L 3663.212 4208.183 L 3664.412 4209.383 L 3665.612 4208.183 L 3666.812 4209.383 L 3666.812 4210.583 L 3668.012 4211.783 L 3669.212 4212.983 L 3672.812 4214.183 L 3672.812 4216.583 L 3671.612 4215.383 L 3671.612 4217.783 L 3672.812 4218.983 L 3671.612 4220.183 L 3672.812 4220.183 L 3672.812 4221.383 L 3674.012 4221.383 L 3672.812 4224.983 L 3671.612 4226.183 L 3674.012 4227.383 L 3677.612 4229.783 L 3677.612 4228.583 L 3677.612 4229.783 L 3678.812 4229.783 L 3681.211 4230.983 L 3687.211 4230.983 L 3688.411 4229.783 L 3692.011 4229.783 L 3693.211 4228.583 L 3695.611 4227.383 L 3696.811 4224.983 L 3699.211 4224.983 L 3700.411 4223.783 L 3702.811 4223.783 L 3704.011 4222.583 L 3705.211 4222.583 L 3706.411 4221.383 L 3708.811 4220.183 L 3710.011 4221.383 L 3712.411 4221.383 L 3713.611 4222.583 L 3714.811 4221.383 L 3716.011 4223.783 L 3718.41 4222.583 L 3719.61 4223.783 L 3719.61 4222.583 L 3719.61 4223.783 L 3720.81 4222.583 L 3723.21 4222.583 L 3725.61 4223.783 L 3726.81 4222.583 L 3725.61 4221.383 L 3726.81 4218.983 L 3726.81 4217.783 L 3730.41 4214.183 L 3730.41 4210.583 L 3731.61 4208.183 L 3731.61 4206.984 L 3730.41 4206.984 L 3730.41 4202.184 L 3731.61 4203.384 L 3731.61 4202.184 L 3732.81 4202.184 L 3734.01 4199.784 L 3735.21 4197.384 L 3740.01 4196.184 L 3741.21 4196.184 L 3742.41 4197.384 L 3743.61 4196.184 L 3744.81 4196.184 L 3744.81 4194.984 L 3748.41 4193.784 L 3749.61 4192.584 L 3752.01 4190.184 L 3753.209 4188.984 L 3754.409 4187.784 L 3755.609 4186.584 L 3760.409 4181.784 L 3761.609 4179.384 L 3762.809 4178.184 L 3770.009 4175.784 L 3768.809 4172.184 L 3770.009 4168.585 L 3771.209 4167.385 L 3772.409 4163.785 L 3774.809 4162.585 L 3778.409 4162.585 L 3780.809 4158.985 L 3782.009 4157.785 L 3782.009 4155.385 L 3784.409 4155.385 L 3786.809 4152.985 L 3791.608 4151.785 L 3794.008 4152.985 L 3794.008 4155.385 L 3796.408 4156.585 L 3792.808 4230.783 L 3791.608 4230.783 L 3789.208 4231.983 L 3786.809 4230.783 L 3784.409 4233.183 L 3774.809 4233.183 L 3773.609 4234.383 L 3767.609 4236.783 L 3765.209 4237.983 L 3765.209 4241.583 L 3764.009 4242.783 L 3761.609 4243.983 L 3761.609 4245.182 L 3760.409 4246.382 L 3758.009 4251.182 L 3758.009 4252.382 L 3756.809 4254.782 L 3755.609 4257.182 L 3750.81 4263.182 L 3750.81 4265.582 L 3749.61 4266.782 L 3748.41 4269.182 L 3748.41 4271.582 L 3749.61 4273.982 L 3748.41 4275.182 L 3749.61 4275.182 L 3748.41 4277.582 L 3749.61 4278.782 L 3749.61 4277.582 L 3750.81 4277.582 L 3752.01 4276.382 L 3753.209 4277.582 L 3756.809 4277.582 L 3756.809 4276.382 L 3760.409 4276.382 L 3761.609 4278.782 L 3762.809 4278.782 L 3761.609 4277.582 L 3762.809 4277.582 L 3762.809 4279.982 L 3765.209 4278.782 L 3766.409 4279.982 L 3766.409 4281.181 L 3767.609 4279.982 L 3767.609 4281.181 L 3768.809 4281.181 L 3768.809 4282.381 L 3770.009 4282.381 L 3771.209 4283.581 L 3771.209 4285.981 L 3772.409 4284.781 L 3773.609 4284.781 L 3773.609 4287.181 L 3774.809 4287.181 L 3774.809 4288.381 L 3777.209 4288.381 L 3776.009 4289.581 L 3777.209 4289.581 L 3777.209 4290.781 L 3778.409 4291.981 L 3779.609 4293.181 L 3785.609 4291.981 L 3786.809 4291.981 L 3788.009 4293.181 L 3789.208 4291.981 L 3790.408 4291.981 L 3790.408 4293.181 L 3792.808 4293.181 L 3794.008 4295.581 L 3795.208 4293.181 L 3796.408 4291.981 L 3797.608 4290.781 L 3800.008 4289.581 L 3800.008 4288.381 L 3804.808 4288.381 L 3806.008 4289.581 L 3806.008 4288.381 L 3808.408 4288.381 L 3808.408 4289.581 L 3809.608 4291.981 L 3813.208 4293.181 L 3813.208 4294.381 L 3815.608 4294.381 L 3816.808 4293.181 L 3818.008 4293.181 L 3818.008 4295.581 L 3820.408 4295.581 L 3822.808 4296.781 L 3825.207 4296.781 L 3826.407 4297.981 L 3827.607 4297.981 L 3828.807 4299.181 L 3831.207 4300.381 L 3832.407 4299.181 L 3833.607 4299.181 L 3834.807 4296.781 L 3836.007 4295.581 L 3836.007 4291.981 L 3837.207 4291.981 L 3837.207 4290.781 L 3838.407 4291.981 L 3838.407 4290.781 L 3839.607 4289.581 L 3839.607 4290.781 L 3840.807 4289.581 L 3840.807 4290.781 L 3842.007 4290.781 L 3842.007 4289.581 L 3843.207 4291.981 L 3844.407 4290.781 L 3844.407 4291.981 L 3845.607 4291.981 L 3849.207 4294.381 L 3852.807 4293.181 L 3856.407 4294.381 L 3857.607 4294.381 L 3858.807 4293.181 L 3863.606 4291.981 L 3870.806 4293.181 L 3874.406 4294.381 L 3875.606 4294.381 L 3878.006 4295.581 L 3880.406 4296.781 L 3881.606 4296.781 L 3882.806 4299.181 L 3886.406 4300.381 L 3904.305 4300.381 L 3903.105 4301.581 L 3901.905 4302.781 L 3895.906 4302.781 L 3894.706 4303.981 L 3892.306 4305.181 L 3891.106 4307.581 L 3892.306 4311.181 L 3893.506 4318.38 L 3893.506 4321.98 L 3897.106 4332.78 L 3897.106 4337.58 L 3898.305 4342.38 L 3898.305 4349.58 L 3904.305 4355.579 L 3909.105 4355.579 L 3911.505 4356.779 L 3912.705 4356.779 L 3913.905 4351.98 L 3919.905 4348.38 L 3925.905 4347.18 L 3930.705 4347.18 L 3939.104 4349.58 L 3948.704 4349.58 L 3952.304 4350.78 L 3954.704 4351.98 L 3958.304 4354.379 L 3958.304 4355.579 L 3959.504 4356.779 L 3958.304 4360.379 L 3954.704 4363.979 L 3952.304 4368.779 L 3945.204 4369.979 L 3940.404 4369.979 L 3939.204 4371.179 L 3939.204 4372.379 L 3938.004 4377.179 L 3934.404 4379.579 L 3933.205 4381.979 L 3932.005 4385.579 L 3927.205 4386.779 L 3923.605 4391.578 L 3923.605 4392.778 L 3924.805 4395.178 L 3924.805 4397.578 L 3927.205 4399.978 L 3928.405 4402.378 L 3927.205 4404.778 L 3930.805 4404.778 L 3932.005 4405.978 L 3932.005 4409.578 L 3939.204 4410.778 L 3944.004 4413.178 L 3944.004 4414.378 L 3945.204 4414.378 L 3947.604 4415.578 L 3950.004 4414.378 L 3954.804 4416.778 L 3958.404 4416.778 L 3960.804 4417.978 L 3964.404 4417.978 L 3966.804 4419.178 L 3972.803 4416.778 L 3974.003 4416.778 L 3980.003 4417.978 L 3981.203 4419.178 L 3983.603 4417.978 L 3988.403 4417.978 L 3989.603 4416.778 L 3993.203 4414.378 L 3995.603 4413.178 L 3995.603 4411.978 L 3999.203 4411.978 L 4001.603 4413.178 L 4001.603 4414.378 L 4005.203 4415.578 L 4010.002 4417.978 L 4014.802 4417.978 L 4018.402 4425.177 L 4018.402 4426.377 L 4020.802 4427.577 L 4020.802 4429.977 L 4023.202 4431.177 L 4023.202 4432.377 L 4026.802 4435.977 L 4026.802 4437.177 L 4029.202 4437.177 L 4028.002 4438.377 L 4031.602 4438.377 L 4031.602 4440.777 L 4030.402 4440.777 L 4032.802 4440.777 L 4032.802 4441.977 L 4034.002 4441.977 L 4034.002 4443.177 L 4036.402 4444.377 L 4038.802 4445.577 L 4041.202 4445.577 L 4041.202 4443.177 L 4044.801 4443.177 L 4047.201 4444.377 L 4047.201 4443.177 L 4049.601 4445.577 L 4054.401 4445.577 L 4056.801 4446.777 L 4056.801 4447.977 L 4058.001 4446.777 L 4058.001 4447.977 L 4060.401 4446.777 L 4061.601 4446.777 L 4061.601 4447.977 L 4062.801 4447.977 L 4062.801 4449.177 L 4064.001 4450.377 L 4064.001 4452.777 L 4065.201 4452.777 L 4066.401 4453.977 L 4067.601 4455.177 L 4068.801 4455.177 L 4070.001 4456.377 L 4071.201 4456.377 L 4073.601 4457.577 L 4073.601 4456.377 L 4074.801 4457.577 L 4074.801 4459.977 L 4076.001 4461.176 L 4074.801 4461.176 L 4077.201 4463.576 L 4078.4 4463.576 L 4077.201 4463.576 L 4077.201 4464.776 L 4078.4 4464.776 L 4079.6 4465.976 L 4082 4465.976 L 4083.2 4464.776 L 4084.4 4465.976 L 4085.6 4465.976 L 4086.8 4467.176 L 4086.8 4468.376 L 4086.8 4467.176 L 4089.2 4468.376 L 4090.4 4468.376 L 4091.6 4469.576 L 4090.4 4470.776 L 4090.4 4471.976 L 4091.6 4470.776 L 4092.8 4469.576 L 4094 4468.376 L 4094 4469.576 L 4096.4 4469.576 L 4097.6 4470.776 L 4100 4470.776 L 4098.8 4468.376 L 4100 4469.576 L 4101.2 4470.776 L 4103.6 4470.776 L 4103.6 4469.576 L 4104.8 4470.776 L 4107.2 4470.776 L 4107.2 4471.976 L 4108.4 4471.976 L 4109.6 4474.376 L 4112 4474.376 L 4113.2 4476.776 L 4113.2 4477.976 L 4114.399 4477.976 L 4115.599 4480.376 L 4116.799 4480.376 L 4116.799 4481.576 L 4119.199 4483.976 L 4120.399 4483.976 L 4120.399 4482.776 L 4122.799 4482.776 L 4121.599 4483.976 L 4121.599 4485.176 L 4125.199 4485.176 L 4129.999 4487.576 L 4128.799 4487.576 L 4131.199 4488.776 L 4129.999 4488.776 L 4132.399 4489.976 L 4133.599 4488.776 L 4135.999 4491.176 L 4139.599 4491.176 L 4138.399 4491.176 L 4138.399 4492.376 L 4139.599 4492.376 L 4139.599 4493.576 L 4140.799 4492.376 L 4141.999 4494.776 L 4143.199 4494.776 L 4144.399 4493.576 L 4145.599 4494.776 L 4144.399 4494.776 L 4146.799 4497.175 L 4147.999 4495.976 L 4153.998 4499.575 L 4156.398 4498.375 L 4157.598 4498.375 L 4159.998 4499.575 L 4162.398 4499.575 L 4162.398 4500.775 L 4164.798 4499.575 L 4165.998 4498.375 L 4168.398 4498.375 L 4168.398 4499.575 L 4171.998 4499.575 L 4173.198 4500.775 L 4176.798 4500.775 L 4180.398 4501.975 L 4181.598 4501.975 L 4181.598 4503.175 L 4182.798 4504.375 L 4185.198 4504.375 L 4186.397 4503.175 L 4188.797 4505.575 L 4189.997 4504.375 L 4191.197 4504.375 L 4192.397 4505.575 L 4195.997 4505.575 L 4197.197 4506.775 L 4198.397 4506.775 L 4197.197 4507.975 L 4198.397 4507.975 L 4198.397 4509.175 L 4199.597 4509.175 L 4200.797 4510.375 L 4204.397 4510.375 L 4204.397 4512.775 L 4205.597 4513.975 L 4205.597 4515.175 L 4209.197 4513.975 L 4211.597 4515.175 L 4216.397 4515.175 L 4216.397 4518.775 L 4217.597 4518.775 L 4218.797 4519.975 L 4219.997 4521.175 L 4221.197 4519.975 L 4221.197 4522.375 L 4224.796 4523.575 L 4225.996 4524.775 L 4227.196 4523.575 L 4229.596 4523.575 L 4229.596 4522.375 L 4231.996 4522.375 L 4233.196 4523.575 L 4234.396 4522.375 L 4234.396 4523.575 L 4236.796 4523.575 L 4237.996 4525.975 L 4240.396 4527.175 L 4245.196 4527.175 L 4247.596 4529.575 L 4249.996 4529.575 L 4251.196 4530.775 L 4254.796 4530.775 L 4254.796 4531.975 L 4258.396 4534.374 L 4258.396 4535.574 L 4259.595 4534.374 L 4260.795 4535.574 L 4263.195 4537.974 L 4263.195 4540.374 L 4264.395 4540.374 L 4265.595 4543.974 L 4266.795 4545.174 L 4266.795 4546.374 L 4264.395 4547.574 L 4267.995 4548.774 L 4269.195 4547.574 L 4270.395 4548.774 L 4269.195 4549.974 L 4272.795 4549.974 L 4272.795 4553.574 L 4276.395 4553.574 L 4278.795 4555.974 L 4279.995 4557.174 L 4281.195 4558.374 L 4281.195 4559.574 L 4278.795 4560.774 L 4276.395 4563.174 L 4276.395 4565.574 L 4282.395 4573.973 L 4283.595 4576.373 L 4283.595 4582.373 L 4279.995 4582.373 L 4276.395 4581.173 L 4275.195 4581.173 L 4272.795 4582.373 L 4271.595 4584.773 L 4267.995 4594.373 L 4266.795 4595.573 L 4264.395 4600.373 L 4263.195 4606.372 L 4261.995 4607.572 L 4261.995 4608.772 L 4265.595 4612.372 L 4263.195 4615.972 L 4264.395 4618.372 L 4264.395 4619.572 L 4266.795 4621.972 L 4266.795 4632.772 L 4267.995 4635.172 L 4270.395 4638.772 L 4270.395 4642.371 L 4266.795 4650.771 L 4269.195 4656.771 L 4269.195 4661.571 L 4267.995 4665.171 L 4266.795 4666.371 L 4269.195 4669.971 L 4270.395 4672.371 L 4270.395 4674.771 L 4265.595 4684.37 L 4261.995 4692.77 L 4259.595 4699.97 L 4258.396 4702.37 L 4252.396 4707.17 L 4249.996 4708.37 L 4247.596 4710.77 L 4245.196 4711.97 L 4243.996 4711.97 L 4240.396 4713.17 L 4235.596 4714.369 L 4228.396 4714.369 L 4217.597 4716.769 L 4213.997 4719.169 L 4210.397 4721.569 L 4209.197 4721.569 L 4207.997 4722.769 L 4206.797 4727.569 L 4204.397 4728.769 L 4198.397 4739.569 L 4198.397 4740.769 L 4195.997 4741.969 L 4191.197 4745.569 L 4188.797 4747.969 L 4182.798 4757.568 L 4181.598 4761.168 L 4177.998 4764.768 L 4169.598 4769.568 L 4168.398 4770.768 L 4167.198 4771.968 L 4167.198 4773.168 L 4165.998 4774.368 L 4164.798 4775.568 L 4158.798 4788.767 L 4157.598 4794.767 L 4159.998 4798.367 L 4159.998 4800.767 L 4158.798 4806.767 L 4158.798 4812.767 L 4159.998 4816.367 L 4162.398 4818.767 L 4161.198 4827.166 L 4159.998 4829.566 L 4152.798 4834.366 L 4144.399 4834.366 L 4141.999 4835.566 L 4137.199 4841.566 L 4135.999 4845.166 L 4133.599 4848.766 L 4133.599 4852.366 L 4131.199 4858.365 L 4127.599 4859.565 L 4126.399 4861.965 L 4125.199 4861.965 L 4121.599 4863.165 L 4116.799 4863.165 L 4115.599 4864.365 L 4114.399 4866.765 L 4115.599 4872.765 L 4114.399 4875.165 L 4115.599 4876.365 L 4117.999 4879.965 L 4119.199 4887.165 L 4120.399 4888.365 L 4119.199 4894.364 L 4117.999 4899.164 L 4117.999 4902.764 L 4116.799 4903.964 L 4109.7 4909.964 L 4108.5 4914.764 L 4107.3 4918.364 L 4106.1 4921.964 L 4102.5 4925.564 L 4100.1 4929.164 L 4098.9 4930.364 L 4094.1 4932.763 L 4090.5 4932.763 L 4083.3 4931.563 L 4082.1 4931.563 L 4079.7 4932.763 L 4077.301 4937.563 L 4074.901 4941.163 L 4076.101 4943.563 L 4082.1 4948.363 L 4082.1 4951.963 L 4084.5 4956.763 L 4084.5 4961.563 L 4079.7 4969.962 L 4077.301 4972.362 L 4076.101 4974.762 L 4068.901 4977.162 L 4065.301 4979.562 L 4061.701 4987.962 L 4061.701 4990.362 L 4060.501 4993.962 L 4052.101 4999.962 L 4049.701 5003.561 L 4047.301 5004.761 L 4047.301 5005.961 L 4044.901 5005.961 L 4038.902 5013.161 L 4037.702 5016.761 L 4032.902 5032.361 L 4026.902 5040.76 L 4024.502 5043.16 L 4023.302 5044.36 L 4022.102 5047.96 L 4013.702 5053.96 L 4012.502 5055.16 L 4008.902 5058.76 L 4007.702 5061.16 L 4006.502 5061.16 L 4005.303 5062.36 L 4001.703 5063.56 L 3996.903 5065.96 L 3990.903 5067.16 L 3987.303 5070.76 L 3983.703 5073.16 L 3981.303 5074.36 L 3977.703 5076.759 L 3970.503 5079.159 L 3965.704 5082.759 L 3962.104 5083.959 L 3952.504 5089.959 L 3951.304 5092.359 L 3945.304 5097.159 L 3942.904 5101.959 L 3941.704 5101.959 L 3936.904 5104.359 L 3927.305 5106.759 L 3926.105 5107.959 L 3924.905 5107.959 L 3917.705 5111.558 L 3915.305 5115.158 L 3914.105 5116.358 L 3906.905 5118.758 L 3905.705 5119.958 L 3902.105 5123.558 L 3898.505 5128.358 L 3897.305 5130.758 L 3897.305 5133.158 L 3898.505 5134.358 L 3894.906 5140.358 L 3893.706 5140.358 L 3885.306 5151.157 L 3882.906 5153.557 L 3881.706 5154.757 L 3874.606 5154.757 L 3874.606 5155.957 L 3873.406 5155.957 L 3862.606 5159.557 L 3859.007 5160.757 L 3856.607 5161.957 L 3854.207 5163.157 L 3853.007 5164.357 L 3850.607 5167.957 L 3845.807 5169.157 L 3844.607 5169.157 L 3844.607 5170.357 L 3841.007 5173.957 L 3837.407 5175.157 L 3831.407 5178.757 L 3825.407 5181.157 L 3823.008 5182.357 L 3820.608 5183.556 L 3818.208 5187.156 L 3818.208 5188.356 L 3815.808 5190.756 L 3813.408 5191.956 L 3809.808 5194.356 L 3808.608 5199.156 L 3805.008 5203.956 L 3805.008 5226.655 L 3800.208 5231.455 L 3800.208 5233.855 L 3795.408 5241.055 L 3793.008 5249.455 L 3790.608 5255.455 L 3790.608 5256.654 L 3788.209 5261.454 L 3782.209 5269.854 L 3781.009 5271.054 L 3772.609 5273.454 L 3761.809 5280.654 L 3752.21 5285.454 L 3747.41 5284.254 L 3746.21 5285.454 L 3743.81 5286.654 L 3743.81 5287.854 L 3739.01 5296.253 L 3739.01 5303.453 L 3736.61 5310.653 L 3735.41 5317.853 L 3734.21 5322.653 L 3733.01 5325.053 L 3731.81 5328.652 L 3730.61 5335.752 L 3730.61 5336.952 L 3727.01 5342.952 L 3725.81 5350.152 L 3724.61 5353.752 L 3725.81 5354.952 L 3724.61 5357.352 L 3725.81 5360.952 L 3725.81 5365.751 L 3722.21 5376.551 L 3721.01 5378.951 L 3717.41 5382.551 L 3710.211 5386.151 L 3697.111 5395.751 L 3692.311 5396.951 L 3691.111 5396.951 L 3689.911 5398.151 L 3685.111 5394.551 L 3685.111 5392.151 L 3683.911 5389.751 L 3683.911 5387.351 L 3680.312 5386.151 L 3677.912 5387.351 L 3675.512 5384.951 L 3673.112 5383.751 L 3669.512 5380.151 L 3667.112 5378.951 L 3664.712 5372.951 L 3664.712 5370.551 L 3663.512 5369.351 L 3661.112 5368.151 L 3655.112 5366.951 L 3651.512 5363.352 L 3651.512 5364.551 L 3649.112 5364.551 L 3646.712 5363.352 L 3645.512 5363.352 L 3643.113 5362.152 L 3639.513 5363.352 L 3639.513 5362.152 L 3640.713 5359.752 L 3637.113 5358.552 L 3637.113 5356.152 L 3634.713 5357.352 L 3633.513 5358.552 L 3632.313 5358.552 L 3631.113 5356.152 L 3629.913 5356.152 L 3628.713 5354.952 L 3626.313 5354.952 L 3625.113 5352.552 L 3622.713 5352.552 L 3621.513 5351.352 L 3619.113 5354.952 L 3616.713 5357.352 L 3616.713 5359.752 L 3615.513 5360.952 L 3608.313 5362.152 L 3608.313 5359.752 L 3605.914 5359.752 L 3604.714 5360.952 L 3603.514 5360.952 L 3602.314 5362.152 L 3599.914 5362.152 L 3599.914 5363.352 L 3597.514 5364.551 L 3596.314 5365.751 L 3592.714 5364.551 L 3590.314 5366.951 L 3590.314 5369.351 L 3589.114 5368.151 L 3585.514 5369.351 L 3584.314 5366.951 L 3583.114 5366.951 L 3581.914 5369.351 L 3579.514 5369.351 L 3579.514 5371.751 L 3577.114 5371.751 L 3577.114 5374.151 L 3575.914 5375.351 L 3577.114 5378.951 L 3574.714 5378.951 L 3574.714 5380.151 L 3573.514 5378.951 L 3569.915 5378.951 L 3567.515 5377.751 L 3566.315 5378.951 L 3563.915 5377.751 L 3562.715 5378.951 L 3560.315 5380.151 L 3557.915 5381.351 L 3555.515 5382.551 L 3554.315 5382.551 L 3553.115 5384.951 L 3550.715 5383.751 L 3550.715 5382.551 L 3549.515 5383.751 L 3547.115 5382.551 L 3545.915 5380.151 L 3544.715 5378.951 L 3542.315 5381.351 L 3541.115 5381.351 L 3541.115 5382.551 L 3538.715 5383.751 L 3537.515 5383.751 L 3536.315 5382.551 L 3535.116 5383.751 L 3531.516 5384.951 L 3531.516 5383.751 L 3529.116 5383.751 L 3527.916 5384.951 L 3527.916 5386.151 L 3520.716 5386.151 L 3517.116 5384.951 L 3517.116 5383.751 L 3515.916 5383.751 L 3515.916 5382.551 L 3514.716 5382.551 L 3513.516 5381.351 L 3509.916 5378.951 L 3507.516 5378.951 L 3503.916 5384.951 L 3502.716 5384.951 L 3500.316 5383.751 L 3499.117 5382.551 L 3496.717 5382.551 L 3496.717 5380.151 L 3495.517 5380.151 L 3494.317 5381.351 L 3493.117 5381.351 L 3491.917 5380.151 L 3490.717 5380.151 L 3489.517 5378.951 L 3489.517 5375.351 L 3487.117 5375.351 L 3488.317 5372.951 L 3484.717 5370.551 L 3485.917 5368.151 L 3487.117 5363.352 L 3485.917 5360.952 L 3485.917 5353.752 L 3484.717 5352.552 L 3487.117 5347.752 L 3487.117 5344.152 L 3484.717 5341.752 L 3485.917 5341.752 L 3484.717 5339.352 L 3485.917 5335.752 L 3487.117 5334.552 L 3485.917 5333.352 L 3484.717 5333.352 L 3483.517 5334.552 L 3482.317 5333.352 L 3481.117 5332.152 L 3482.317 5328.552 L 3481.117 5327.353 L 3479.917 5327.353 L 3479.917 5322.553 L 3478.717 5320.153 L 3477.517 5321.353 L 3476.317 5320.153 L 3473.917 5318.953 L 3473.917 5317.753 L 3470.317 5318.953 L 3469.117 5317.753 L 3469.117 5311.753 L 3470.317 5309.353 L 3470.317 5308.153 L 3471.517 5306.953 L 3469.117 5304.553 L 3469.117 5302.153 L 3467.917 5299.753 L 3467.917 5298.553 L 3466.717 5294.953 L 3465.517 5292.553 L 3464.317 5292.553 L 3464.317 5290.154 L 3466.717 5290.154 L 3467.917 5286.554 L 3466.717 5285.354 L 3472.717 5278.154 L 3473.917 5272.154 L 3472.717 5269.754 L 3471.517 5269.754 L 3471.517 5267.354 L 3469.117 5263.754 L 3465.517 5261.354 L 3466.717 5258.954 L 3465.517 5255.355 L 3465.517 5254.155 L 3469.117 5252.955 L 3471.517 5250.555 L 3470.317 5249.355 L 3469.117 5249.355 L 3467.917 5248.155 L 3469.117 5246.955 L 3466.717 5243.355 L 3469.117 5243.355 L 3470.317 5240.955 L 3471.517 5239.755 L 3467.917 5236.155 L 3467.917 5232.555 L 3465.517 5231.355 L 3463.118 5230.155 L 3461.918 5230.155 L 3458.318 5231.355 L 3458.318 5225.355 L 3457.118 5222.955 L 3454.718 5218.156 L 3455.918 5218.156 L 3455.918 5214.556 L 3454.718 5213.356 L 3455.918 5212.156 L 3454.718 5210.956 L 3453.518 5209.756 L 3451.118 5208.556 L 3452.318 5203.756 L 3451.118 5202.556 L 3453.518 5201.356 L 3451.118 5196.556 L 3451.118 5194.156 L 3448.718 5194.156 L 3449.918 5192.956 L 3448.718 5191.756 L 3449.918 5189.356 L 3448.718 5185.756 L 3448.718 5183.356 L 3446.318 5182.157 L 3447.518 5179.757 L 3446.318 5176.157 L 3447.518 5174.957 L 3447.518 5168.957 L 3448.718 5167.757 L 3448.718 5165.357 L 3451.118 5164.157 L 3451.118 5161.757 L 3452.318 5160.557 L 3454.718 5161.757 L 3454.718 5160.557 L 3453.518 5159.357 L 3453.518 5158.157 L 3454.718 5156.957 L 3454.718 5155.757 L 3455.918 5152.157 L 3454.718 5148.557 L 3455.918 5147.357 L 3454.718 5144.958 L 3454.718 5141.358 L 3453.518 5140.158 L 3453.518 5136.558 L 3449.918 5132.958 L 3446.318 5130.558 L 3445.118 5129.358 L 3442.718 5129.358 L 3441.518 5126.958 L 3440.318 5124.558 L 3435.518 5122.158 L 3431.918 5112.558 L 3431.918 5110.159 L 3430.718 5107.759 L 3431.918 5105.359 L 3433.118 5105.359 L 3433.118 5104.159 L 3434.318 5100.559 L 3433.118 5095.759 L 3431.918 5094.559 L 3433.118 5093.359 L 3431.918 5092.159 L 3428.318 5090.959 L 3427.119 5092.159 L 3425.919 5090.959 L 3424.719 5092.159 L 3423.519 5090.959 L 3421.119 5089.759 L 3422.319 5087.359 L 3422.319 5086.159 L 3417.519 5083.759 L 3416.319 5080.159 L 3415.119 5075.359 L 3412.719 5072.96 L 3405.519 5072.96 L 3401.919 5071.76 L 3400.719 5072.96 L 3399.519 5071.76 L 3397.119 5072.96 L 3395.919 5074.16 L 3392.319 5074.16 L 3389.92 5071.76 L 3386.32 5072.96 L 3386.32 5075.359 L 3385.12 5075.359 L 3383.92 5074.16 L 3379.12 5072.96 L 3376.72 5071.76 L 3375.52 5071.76 L 3374.32 5072.96 L 3371.92 5072.96 L 3370.72 5074.16 L 3371.92 5072.96 L 3369.52 5072.96 L 3365.92 5070.56 L 3364.72 5070.56 L 3364.72 5071.76 L 3363.52 5072.96 L 3358.72 5072.96 L 3357.52 5074.16 L 3356.32 5072.96 L 3356.32 5071.76 L 3353.921 5071.76 L 3353.921 5072.96 L 3352.721 5070.56 L 3351.521 5071.76 L 3349.121 5071.76 L 3349.121 5070.56 L 3345.521 5068.16 L 3345.521 5065.76 L 3344.321 5064.56 L 3340.721 5064.56 L 3339.521 5063.36 L 3338.321 5064.56 L 3335.921 5062.16 L 3333.521 5060.96 L 3332.321 5059.76 L 3331.121 5060.96 L 3328.721 5058.56 L 3328.721 5057.36 L 3327.521 5057.36 L 3326.321 5054.96 L 3326.321 5053.76 L 3325.121 5053.76 L 3325.121 5052.56 L 3323.921 5053.76 L 3322.721 5052.56 L 3321.521 5048.96 L 3321.521 5044.16 L 3319.122 5042.96 L 3320.321 5042.96 L 3319.122 5041.76 L 3319.122 5040.56 L 3316.722 5039.36 L 3317.922 5038.161 L 3317.922 5034.561 L 3316.722 5035.761 L 3313.122 5035.761 L 3313.122 5036.961 L 3311.922 5035.761 L 3310.722 5036.961 L 3309.522 5035.761 L 3308.322 5036.961 L 3307.122 5035.761 L 3307.122 5036.961 L 3305.922 5036.961 L 3305.922 5035.761 L 3304.722 5035.761 L 3304.722 5036.961 L 3303.522 5035.761 L 3302.322 5038.161 L 3298.722 5038.161 L 3297.522 5039.36 L 3297.522 5040.56 L 3295.122 5040.56 L 3295.122 5042.96 L 3293.922 5044.16 L 3293.922 5045.36 L 3295.122 5046.56 L 3293.922 5046.56 L 3293.922 5048.96 L 3291.522 5047.76 L 3291.522 5050.16 L 3292.722 5050.16 L 3289.122 5052.56 L 3289.122 5054.96 L 3287.922 5056.16 L 3289.122 5057.36 L 3287.922 5057.36 L 3286.722 5059.76 L 3285.522 5058.56 L 3284.322 5058.56 L 3284.322 5059.76 L 3283.123 5059.76 L 3281.923 5060.96 L 3280.723 5059.76 L 3280.723 5060.96 L 3279.523 5062.16 L 3279.523 5063.36 L 3275.923 5065.76 L 3273.523 5065.76 L 3274.723 5069.36 L 3273.523 5069.36 L 3272.323 5068.16 L 3269.923 5066.96 L 3267.523 5065.76 L 3266.323 5063.36 L 3266.323 5060.96 L 3265.123 5062.16 L 3265.123 5060.96 L 3262.723 5060.96 L 3262.723 5062.16 L 3263.923 5063.36 L 3263.923 5064.56 L 3262.723 5064.56 L 3262.723 5065.76 L 3261.523 5066.96 L 3259.123 5069.36 L 3256.723 5068.16 L 3257.923 5066.96 L 3256.723 5065.76 L 3255.523 5064.56 L 3254.323 5065.76 L 3251.923 5065.76 L 3251.923 5066.96 L 3249.523 5068.16 L 3248.323 5068.16 L 3248.323 5066.96 L 3247.123 5066.96 L 3248.323 5065.76 L 3247.123 5065.76 L 3244.724 5066.96 L 3244.724 5072.96 L 3242.324 5074.16 L 3241.124 5075.359 L 3238.724 5076.559 L 3237.524 5076.559 L 3236.324 5074.16 L 3235.124 5074.16 L 3232.724 5072.96 L 3231.524 5071.76 L 3232.724 5069.36 L 3231.524 5066.96 L 3230.324 5066.96 L 3227.924 5068.16 L 3227.924 5069.36 L 3226.724 5070.56 L 3225.524 5069.36 L 3224.324 5068.16 L 3225.524 5068.16 L 3224.324 5068.16 L 3223.124 5066.96 L 3221.924 5068.16 L 3219.524 5068.16 L 3218.324 5066.96 L 3217.124 5064.56 L 3214.724 5065.76 L 3212.324 5065.76 L 3211.124 5064.56 L 3212.324 5063.36 L 3211.124 5062.16 L 3208.725 5064.56 L 3207.525 5063.36 L 3206.325 5064.56 L 3203.925 5064.56 L 3202.725 5065.76 L 3201.525 5064.56 L 3201.525 5063.36 L 3199.125 5063.36 L 3200.325 5065.76 L 3196.725 5065.76 L 3195.525 5066.96 L 3194.325 5065.76 L 3193.125 5066.96 L 3191.925 5066.96 L 3190.725 5065.76 L 3191.925 5062.16 L 3189.525 5063.36 L 3185.925 5062.16 L 3183.525 5063.36 L 3182.325 5062.16 L 3181.125 5063.36 L 3178.725 5063.36 L 3177.525 5064.56 L 3177.525 5063.36 L 3176.325 5062.16 L 3176.325 5060.96 L 3175.125 5059.76 L 3173.926 5060.96 L 3172.726 5060.96 L 3172.726 5059.76 L 3172.726 5062.16 L 3173.926 5063.36 L 3171.526 5063.36 L 3171.526 5064.56 L 3167.926 5066.96 L 3165.526 5064.56 L 3161.926 5064.56 L 3161.926 5063.36 L 3160.726 5064.56 L 3160.726 5063.36 L 3159.526 5062.16 L 3158.326 5062.16 L 3158.326 5060.96 L 3155.926 5062.16 L 3155.926 5063.36 L 3153.526 5064.56 L 3154.726 5065.76 L 3153.526 5065.76 L 3151.126 5064.56 L 3151.126 5063.36 L 3149.926 5064.56 L 3149.926 5063.36 L 3148.726 5063.36 L 3147.526 5062.16 L 3146.326 5063.36 L 3143.926 5063.36 L 3143.926 5062.16 L 3142.726 5062.16 L 3143.926 5059.76 L 3141.526 5059.76 L 3141.526 5058.56 L 3140.326 5059.76 L 3140.326 5058.56 L 3136.727 5057.36 L 3134.327 5058.56 L 3135.527 5057.36 L 3133.127 5057.36 L 3130.727 5054.96 L 3129.527 5056.16 L 3129.527 5057.36 L 3129.527 5054.96 L 3128.327 5056.16 L 3127.127 5054.96 L 3124.727 5056.16 L 3123.527 5056.16 L 3123.527 5054.96 L 3121.127 5054.96 L 3118.727 5052.56 L 3117.527 5052.56 L 3116.327 5053.76 L 3113.927 5054.96 L 3109.127 5053.76 L 3107.927 5053.76 L 3106.727 5051.36 L 3106.727 5046.56 L 3105.527 5047.76 L 3105.527 5046.56 L 3104.327 5046.56 L 3104.327 5045.36 L 3103.127 5045.36 L 3103.127 5044.16 L 3101.928 5044.16 L 3103.127 5042.96 L 3101.928 5040.56 L 3101.928 5038.161 L 3097.128 5040.56 L 3092.328 5040.56 L 3091.128 5039.36 L 3088.728 5036.961 L 3087.528 5038.161 L 3085.128 5038.161 L 3085.128 5039.36 L 3083.928 5040.56 L 3083.928 5041.76 L 3081.528 5039.36 L 3080.328 5040.56 L 3079.128 5040.56 L 3079.128 5042.96 L 3080.328 5042.96 L 3080.328 5045.36 L 3077.928 5046.56 L 3075.528 5046.56 L 3071.928 5044.16 L 3070.728 5045.36 L 3069.528 5048.96 L 3068.328 5048.96 L 3067.128 5046.56 L 3065.929 5046.56 L 3064.729 5044.16 L 3063.529 5042.96 L 3057.529 5045.36 L 3058.729 5046.56 L 3056.329 5045.36 L 3053.929 5045.36 L 3052.729 5044.16 L 3045.629 5044.16 L 3046.829 5041.76 L 3045.629 5040.56 L 3044.429 5036.961 L 3042.029 5036.961 L 3040.829 5035.761 L 3039.629 5038.161 L 3037.229 5038.161 L 3036.029 5036.961 L 3034.829 5038.161 L 3036.029 5032.161 L 3034.829 5030.961 L 3032.429 5030.961 L 3032.429 5028.561 L 3033.629 5026.161 L 3039.629 5022.561 L 3039.629 5017.761 L 3042.029 5015.361 L 3044.429 5006.961 L 3044.429 5004.561 L 3043.229 5004.561 L 3042.029 5003.361 L 3045.629 5000.962 L 3048.029 5000.962 L 3049.229 4999.762 L 3048.029 4998.562 L 3038.429 4993.762 L 3038.429 4992.562 L 3042.029 4991.362 L 3045.629 4990.162 L 3049.229 4982.962 L 3049.229 4979.362 L 3046.829 4979.362 L 3044.429 4976.962 L 3043.229 4975.762 L 3043.229 4974.562 L 3044.429 4972.162 L 3051.629 4967.362 L 3054.029 4964.963 L 3054.029 4963.763 L 3046.829 4960.163 L 3045.629 4957.763 L 3043.229 4952.963 L 3045.629 4949.363 L 3049.229 4948.163 L 3049.229 4946.963 L 3046.829 4944.563 L 3040.829 4942.163 L 3039.629 4938.563 L 3039.629 4934.963 L 3040.829 4931.363 L 3043.229 4930.164 L 3045.629 4926.564 L 3046.829 4924.164 L 3046.829 4921.764 L 3049.229 4915.764 L 3050.429 4912.164 L 3057.629 4903.764 L 3058.829 4901.364 L 3060.029 4897.764 L 3058.829 4896.564 L 3051.629 4895.364 L 3049.229 4892.965 L 3046.829 4890.565 L 3048.029 4889.365 L 3058.829 4882.165 L 3060.029 4879.765 L 3060.029 4873.765 L 3057.629 4864.165 L 3057.629 4862.965 L 3061.229 4856.966 L 3057.629 4850.966 L 3056.429 4846.166 L 3060.029 4843.766 L 3063.629 4837.766 L 3066.029 4835.366 L 3064.829 4832.966 L 3064.829 4826.966 L 3062.429 4826.966 L 3060.029 4829.366 L 3057.629 4829.366 L 3056.429 4828.166 L 3054.029 4823.366 L 3052.829 4822.166 L 3050.429 4820.967 L 3048.029 4822.166 L 3045.629 4820.967 L 3046.829 4818.567 L 3050.429 4816.167 L 3057.629 4811.367 L 3058.829 4807.767 L 3057.629 4805.367 L 3051.629 4800.567 L 3049.229 4800.567 L 3045.629 4802.967 L 3043.229 4802.967 L 3040.829 4801.767 L 3040.829 4800.567 L 3043.229 4794.567 L 3045.629 4793.367 L 3048.029 4792.167 L 3055.229 4793.367 L 3057.629 4793.367 L 3057.629 4792.167 L 3056.429 4789.767 L 3055.229 4787.367 L 3050.429 4781.368 L 3049.229 4778.968 L 3048.029 4777.768 L 3045.629 4777.768 L 3042.029 4784.968 L 3036.029 4784.968 L 3036.029 4781.368 L 3037.229 4777.768 L 3038.429 4774.168 L 3038.429 4772.968 L 3034.829 4772.968 L 3031.229 4768.168 L 3031.229 4764.568 L 3033.629 4760.968 L 3030.03 4750.168 L 3031.229 4745.369 L 3034.829 4739.369 L 3034.829 4736.969 L 3030.03 4729.769 L 3022.83 4728.569 L 3018.03 4724.969 L 3015.63 4716.569 L 3016.83 4712.97 L 3018.03 4706.97 L 3018.03 4704.57 L 3016.83 4703.37 L 3015.63 4702.17 L 3012.03 4702.17 L 3010.83 4703.37 L 3008.43 4705.77 L 3008.43 4706.97 L 3004.83 4704.57 L 3003.63 4699.77 L 3004.83 4698.57 L 3006.03 4696.17 L 3010.83 4694.97 L 3012.03 4692.57 L 3010.83 4691.37 L 3009.63 4690.17 L 3004.83 4690.17 L 3003.63 4688.97 L 3003.63 4687.77 L 3004.83 4686.57 L 3006.03 4684.17 L 3009.63 4684.17 L 3013.23 4682.97 L 3014.43 4679.37 L 3018.03 4676.971 L 3025.23 4675.771 L 3025.23 4674.571 L 3027.63 4668.571 L 3030.03 4667.371 L 3036.029 4667.371 L 3038.429 4666.171 L 3040.829 4661.371 L 3043.229 4660.171 L 3044.429 4660.171 L 3046.829 4661.371 L 3050.429 4664.971 L 3052.829 4660.171 L 3057.629 4654.171 L 3058.829 4651.771 L 3009.73 4613.472 L 3027.43 4574.773 Z " fill="#F3AA47" vector-effect="non-scaling-stroke" stroke-width="1" stroke-linejoin="miter" stroke-linecap="butt" stroke-miterlimit="4"/></svg>