<?xml version="1.0" standalone="no"?><!-- Generator: Gravit.io --><svg xmlns="http://www.w3.org/2000/svg" xmlns:xlink="http://www.w3.org/1999/xlink" style="isolation:isolate" viewBox="2389.547 2353.435 2017.444 1952.546" width="2017.444" height="1952.546"><path d=" M 2392.847 2706.925 L 2392.847 2703.325 L 2398.847 2703.325 L 2400.047 2700.925 L 2402.447 2699.725 L 2406.047 2699.725 L 2409.647 2700.925 L 2410.847 2702.125 L 2412.047 2700.925 L 2410.847 2698.525 L 2412.047 2692.525 L 2412.047 2688.926 L 2410.847 2687.726 L 2409.647 2684.126 L 2408.447 2682.926 L 2406.047 2679.326 L 2406.047 2672.126 L 2407.247 2668.526 L 2408.447 2668.526 L 2408.447 2666.126 L 2410.847 2663.726 L 2410.847 2660.126 L 2412.047 2656.526 L 2416.846 2646.927 L 2418.046 2645.727 L 2421.646 2640.927 L 2419.246 2638.527 L 2418.046 2634.927 L 2414.447 2631.327 L 2413.247 2626.527 L 2412.047 2625.327 L 2412.047 2622.927 L 2408.447 2622.927 L 2403.647 2620.527 L 2402.447 2620.527 L 2401.247 2619.327 L 2605.941 2619.327 L 2705.338 2620.527 L 2944.832 2620.527 L 2955.632 2619.327 L 2958.032 2618.128 L 2961.631 2618.128 L 2964.031 2615.728 L 2971.231 2608.628 L 2974.831 2606.228 L 2976.031 2605.028 L 2976.031 2603.828 L 2971.231 2601.428 L 2966.431 2602.628 L 2965.231 2602.628 L 2960.431 2605.028 L 2956.832 2603.828 L 2955.632 2602.628 L 2960.431 2591.828 L 2961.631 2589.428 L 2962.831 2585.828 L 2964.031 2584.628 L 2964.031 2582.229 L 2962.831 2579.829 L 2960.431 2577.429 L 2961.631 2572.629 L 2961.631 2570.229 L 2960.431 2567.829 L 2959.231 2564.229 L 2961.631 2559.429 L 2962.831 2558.229 L 2965.231 2554.629 L 2966.431 2552.229 L 2971.231 2546.23 L 2971.231 2543.83 L 2972.431 2541.43 L 2971.231 2539.03 L 2972.431 2536.63 L 2977.231 2534.23 L 2978.431 2533.03 L 2977.231 2529.43 L 2976.031 2528.23 L 2976.031 2525.83 L 2977.231 2523.43 L 2976.031 2516.23 L 2978.431 2512.63 L 2976.031 2505.431 L 2977.231 2501.831 L 2982.031 2499.431 L 2983.231 2497.031 L 2982.031 2493.431 L 2983.231 2489.831 L 2982.031 2487.431 L 2977.231 2479.031 L 2976.031 2475.431 L 2976.031 2473.032 L 2974.831 2468.232 L 2971.231 2463.432 L 2967.631 2457.432 L 2967.631 2449.032 L 2965.231 2446.632 L 2965.231 2444.232 L 2966.431 2444.232 L 2967.631 2441.832 L 2974.831 2438.232 L 2980.831 2432.233 L 2983.231 2428.633 L 2983.231 2421.433 L 2984.431 2420.233 L 2989.231 2415.433 L 2991.631 2410.633 L 2997.63 2404.633 L 2997.63 2401.034 L 2996.43 2398.634 L 2995.23 2392.634 L 2994.031 2387.834 L 2995.23 2381.834 L 2996.43 2375.834 L 3002.43 2363.835 L 3008.43 2357.835 L 3009.63 2356.635 L 3009.63 2355.435 L 3012.03 2356.635 L 3021.63 2362.635 L 3022.83 2365.035 L 3027.63 2374.634 L 3033.629 2380.634 L 3038.429 2389.034 L 3043.229 2401.034 L 3043.229 2402.233 L 3044.429 2410.633 L 3045.629 2411.833 L 3048.029 2411.833 L 3050.429 2413.033 L 3051.629 2415.433 L 3054.029 2431.033 L 3055.229 2438.232 L 3061.229 2449.032 L 3062.429 2452.632 L 3063.629 2465.732 L 3063.629 2469.332 L 3068.428 2474.132 L 3073.228 2483.731 L 3081.628 2490.831 L 3082.828 2500.431 L 3084.028 2502.831 L 3085.228 2504.031 L 3090.028 2505.231 L 3092.428 2506.431 L 3096.028 2512.43 L 3096.028 2516.03 L 3093.628 2522.03 L 3092.428 2528.03 L 3090.028 2531.63 L 3090.028 2535.23 L 3092.428 2540.03 L 3092.428 2542.43 L 3088.828 2548.429 L 3088.828 2549.629 L 3090.028 2553.229 L 3094.828 2559.229 L 3094.828 2561.629 L 3093.628 2564.029 L 3093.628 2565.229 L 3097.228 2567.629 L 3098.428 2568.829 L 3097.228 2572.429 L 3094.828 2574.829 L 3096.028 2578.429 L 3096.028 2579.629 L 3098.428 2580.829 L 3100.828 2582.029 L 3099.628 2590.428 L 3100.828 2591.628 L 3103.227 2595.228 L 3105.627 2602.428 L 3104.427 2608.428 L 3105.627 2612.028 L 3110.427 2612.028 L 3116.427 2609.628 L 3124.827 2614.428 L 3128.427 2616.828 L 3134.427 2616.828 L 3136.827 2619.227 L 3136.827 2624.027 L 3135.627 2628.827 L 3136.827 2630.027 L 3139.226 2631.227 L 3142.826 2634.827 L 3148.826 2634.827 L 3154.826 2636.027 L 3156.026 2639.627 L 3157.226 2640.827 L 3159.626 2640.827 L 3165.626 2639.627 L 3166.826 2638.427 L 3169.226 2639.627 L 3172.826 2640.827 L 3175.225 2642.027 L 3176.425 2643.227 L 3186.025 2655.226 L 3193.125 2658.826 L 3194.325 2662.426 L 3196.725 2666.026 L 3199.125 2667.226 L 3199.125 2670.826 L 3201.525 2672.026 L 3202.725 2674.426 L 3202.725 2676.826 L 3199.125 2681.626 L 3200.325 2685.226 L 3199.125 2687.626 L 3199.125 2688.826 L 3200.325 2690.026 L 3202.725 2692.425 L 3203.925 2694.825 L 3206.325 2696.025 L 3208.725 2697.225 L 3211.124 2698.425 L 3218.324 2697.225 L 3220.724 2698.425 L 3231.524 2699.625 L 3232.724 2699.625 L 3235.124 2698.425 L 3237.524 2699.625 L 3242.324 2700.825 L 3244.724 2704.425 L 3248.323 2714.025 L 3249.523 2714.025 L 3249.523 2722.425 L 3250.723 2724.825 L 3250.723 2727.224 L 3251.923 2729.624 L 3253.123 2729.624 L 3256.723 2728.424 L 3260.323 2726.025 L 3260.323 2724.825 L 3263.923 2724.825 L 3268.723 2723.625 L 3338.121 2729.624 L 3358.52 2730.824 L 3423.119 2736.824 L 3563.215 2747.624 L 3609.913 2752.424 L 3631.513 2753.624 L 3720.11 2760.824 L 3812.308 2768.023 L 3892.506 2774.023 L 3972.703 2780.023 L 3982.303 2780.023 L 4047.001 2784.823 L 4187.097 2794.423 L 4214.597 2796.823 L 4257.696 2799.223 L 4295.994 2801.622 L 4404.991 2808.822 L 4404.991 2811.222 L 4401.392 2814.822 L 4397.792 2822.022 L 4397.792 2826.822 L 4395.392 2830.422 L 4395.392 2832.822 L 4392.992 2836.421 L 4392.992 2841.221 L 4391.792 2844.821 L 4389.392 2847.221 L 4384.592 2849.621 L 4382.192 2852.021 L 4380.992 2855.621 L 4378.592 2858.021 L 4376.192 2862.821 L 4374.992 2868.821 L 4374.992 2870.021 L 4376.192 2870.021 L 4377.392 2878.42 L 4374.992 2884.42 L 4373.792 2890.42 L 4370.192 2898.82 L 4370.192 2900.02 L 4371.392 2903.62 L 4370.192 2904.82 L 4366.593 2907.22 L 4365.393 2909.619 L 4360.593 2912.019 L 4358.193 2924.019 L 4359.393 2927.619 L 4358.193 2928.819 L 4356.993 2928.819 L 4353.393 2930.019 L 4353.393 2933.619 L 4352.193 2937.219 L 4353.393 2940.819 L 4350.993 2944.418 L 4349.793 2948.018 L 4348.593 2949.218 L 4344.993 2949.218 L 4343.793 2951.618 L 4341.393 2955.218 L 4337.793 2958.818 L 4337.793 2961.218 L 4341.393 2963.618 L 4341.393 2967.218 L 4342.593 2969.618 L 4342.593 2972.018 L 4343.793 2975.618 L 4340.193 2981.617 L 4340.193 2985.217 L 4337.793 2985.217 L 4336.593 2986.417 L 4336.593 2987.617 L 4335.393 2990.017 L 4335.393 2996.017 L 4337.793 2997.217 L 4338.993 2999.617 L 4338.993 3002.017 L 4335.393 3005.617 L 4332.993 3009.217 L 4335.393 3015.217 L 4334.193 3017.616 L 4335.393 3021.216 L 4335.393 3026.016 L 4336.593 3028.416 L 4336.593 3033.216 L 4335.393 3035.616 L 4335.393 3036.816 L 4331.793 3039.216 L 4330.594 3042.816 L 4328.194 3044.016 L 4328.194 3046.416 L 4326.994 3050.016 L 4328.194 3054.815 L 4328.194 3057.215 L 4329.394 3060.815 L 4328.194 3065.615 L 4326.994 3072.815 L 4324.594 3074.015 L 4322.194 3076.415 L 4320.994 3077.615 L 4319.794 3080.015 L 4319.794 3082.415 L 4318.594 3086.015 L 4316.194 3090.814 L 4316.194 3095.614 L 4313.794 3100.414 L 4313.794 3111.214 L 4314.994 3113.614 L 4313.794 3118.414 L 4317.394 3125.613 L 4318.594 3125.613 L 4323.394 3126.813 L 4326.994 3126.813 L 4328.194 3128.013 L 4328.194 3132.813 L 4326.994 3135.213 L 4328.194 3138.813 L 4328.194 3143.613 L 4326.994 3144.813 L 4325.794 3147.213 L 4323.394 3148.413 L 4322.194 3149.613 L 4317.394 3154.413 L 4317.394 3155.613 L 4318.594 3158.013 L 4319.794 3160.413 L 4320.994 3166.412 L 4322.194 3168.812 L 4323.394 3171.212 L 4323.394 3177.212 L 4324.594 3178.412 L 4328.194 3178.412 L 4331.793 3182.012 L 4331.793 3185.612 L 4328.194 3186.812 L 4326.994 3189.212 L 4329.394 3192.812 L 4329.394 3196.412 L 4324.594 3201.211 L 4323.394 3203.611 L 4324.594 3204.811 L 4324.594 3206.011 L 4323.394 3209.611 L 4323.394 3210.811 L 4326.994 3214.411 L 4326.994 3218.011 L 4325.794 3225.211 L 4325.794 3228.811 L 4324.594 3231.211 L 4324.594 3237.21 L 4323.394 3239.61 L 4324.594 3243.21 L 4329.394 3242.01 L 4330.594 3243.21 L 4330.594 3248.01 L 4332.993 3251.61 L 4332.993 3254.01 L 4330.594 3256.41 L 4330.594 3261.21 L 4331.793 3262.41 L 4330.594 3266.01 L 4332.993 3269.609 L 4334.193 3273.209 L 4332.993 3279.209 L 4335.393 3280.409 L 4334.193 3285.209 L 4334.193 3286.409 L 4331.793 3285.209 L 4329.394 3286.409 L 4330.594 3291.209 L 4328.194 3294.809 L 4326.994 3300.809 L 4324.594 3303.209 L 4323.394 3306.808 L 4326.994 3309.208 L 4326.994 3311.608 L 4325.794 3311.608 L 4322.194 3310.408 L 4320.994 3311.608 L 4319.794 3314.008 L 4320.994 3316.408 L 4320.994 3321.208 L 4329.394 3320.008 L 4330.594 3321.208 L 4330.594 3323.608 L 4329.394 3326.008 L 4330.594 3330.808 L 4332.993 3330.808 L 4331.793 3334.408 L 4334.193 3336.808 L 4334.193 3341.607 L 4332.993 3344.007 L 4336.593 3344.007 L 4334.193 3348.807 L 4334.193 3351.207 L 4335.393 3352.407 L 4336.593 3352.407 L 4337.793 3348.807 L 4342.593 3348.807 L 4342.593 3350.007 L 4338.993 3352.407 L 4338.993 3353.607 L 4344.993 3356.007 L 4350.993 3356.007 L 4353.393 3354.807 L 4354.593 3357.207 L 4354.593 3359.607 L 4355.793 3362.007 L 4355.793 3364.407 L 4354.593 3366.807 L 4353.393 3370.407 L 4352.193 3374.007 L 4352.193 3381.206 L 4348.593 3382.406 L 4346.193 3386.006 L 4344.993 3386.006 L 4342.593 3384.806 L 4340.193 3386.006 L 4341.393 3389.606 L 4343.793 3390.806 L 4343.793 3392.006 L 4342.593 3394.406 L 4337.793 3395.606 L 4336.593 3396.806 L 4338.993 3401.606 L 4340.193 3402.806 L 4340.193 3405.206 L 4338.993 3411.206 L 4340.193 3416.005 L 4338.993 3418.405 L 4337.793 3420.805 L 4338.993 3420.805 L 4341.393 3423.205 L 4341.393 3430.405 L 4338.993 3434.005 L 4337.793 3435.205 L 4337.793 3441.205 L 4336.593 3442.405 L 4334.193 3446.005 L 4331.793 3448.405 L 4330.594 3450.804 L 4326.994 3453.204 L 4326.994 3458.004 L 4328.194 3462.804 L 4326.994 3465.204 L 4324.594 3466.404 L 4322.194 3471.204 L 4318.594 3474.804 L 4313.794 3477.204 L 4310.194 3482.004 L 4308.994 3494.003 L 4306.594 3497.603 L 4305.394 3503.603 L 4302.994 3510.803 L 4299.394 3515.603 L 4296.994 3514.403 L 4294.594 3515.603 L 4293.395 3515.603 L 4292.195 3516.803 L 4290.995 3519.203 L 4294.594 3524.002 L 4293.395 3530.002 L 4294.594 3532.402 L 4293.395 3536.002 L 4295.794 3540.802 L 4295.794 3556.402 L 4292.195 3560.001 L 4292.195 3563.601 L 4294.594 3567.201 L 4294.594 3572.001 L 4298.194 3580.401 L 4296.994 3584.001 L 4295.794 3586.401 L 4290.995 3590.001 L 4287.395 3590.001 L 4284.995 3587.601 L 4282.595 3587.601 L 4282.595 3590.001 L 4283.795 3594.8 L 4283.795 3598.4 L 4281.395 3600.8 L 4278.995 3605.6 L 4275.395 3612.8 L 4272.995 3620 L 4271.795 3622.4 L 4272.995 3628.4 L 4271.795 3631.999 L 4269.395 3633.199 L 4270.595 3637.999 L 4270.595 3639.199 L 4269.395 3641.599 L 4268.195 3643.999 L 4270.595 3647.599 L 4270.595 3649.999 L 4272.995 3652.399 L 4274.195 3654.799 L 4272.995 3658.399 L 4274.195 3663.199 L 4268.195 3672.798 L 4269.395 3678.798 L 4264.595 3688.398 L 4263.395 3688.398 L 4262.195 3690.798 L 4263.395 3694.398 L 4263.395 3695.598 L 4262.195 3697.998 L 4260.995 3699.198 L 4259.795 3701.598 L 4258.595 3702.797 L 4258.595 3706.397 L 4260.995 3709.997 L 4259.795 3712.397 L 4256.196 3714.797 L 4252.596 3720.797 L 4252.596 3726.797 L 4251.396 3730.397 L 4253.796 3732.797 L 4253.796 3733.997 L 4252.596 3733.997 L 4245.396 3738.796 L 4244.196 3738.796 L 4241.796 3742.396 L 4241.796 3745.996 L 4233.396 3750.796 L 4224.996 3755.596 L 4220.197 3756.796 L 4216.597 3755.596 L 4215.397 3753.196 L 4214.197 3747.196 L 4210.597 3744.796 L 4208.197 3744.796 L 4206.997 3747.196 L 4204.597 3749.596 L 4200.997 3751.996 L 4197.397 3749.596 L 4192.597 3750.796 L 4190.197 3755.596 L 4187.797 3755.596 L 4186.597 3757.996 L 4184.198 3760.396 L 4176.998 3759.196 L 4175.798 3760.396 L 4173.398 3762.796 L 4170.998 3768.796 L 4166.198 3769.996 L 4162.598 3778.395 L 4161.398 3779.595 L 4156.598 3779.595 L 4152.998 3781.995 L 4152.998 3786.795 L 4150.598 3790.395 L 4150.598 3793.995 L 4151.798 3796.395 L 4154.198 3797.595 L 4154.198 3798.795 L 4150.598 3801.195 L 4148.199 3802.395 L 4146.999 3805.995 L 4146.999 3811.994 L 4149.399 3814.394 L 4149.399 3816.794 L 4144.599 3823.994 L 4144.599 3825.194 L 4145.799 3827.594 L 4145.799 3828.794 L 4143.399 3832.394 L 4144.599 3835.994 L 4144.599 3838.394 L 4143.399 3839.594 L 4139.799 3840.794 L 4138.599 3843.194 L 4138.599 3844.394 L 4139.799 3847.993 L 4139.799 3850.393 L 4134.999 3850.393 L 4133.799 3846.793 L 4131.399 3846.793 L 4131.399 3847.993 L 4130.199 3847.993 L 4131.399 3851.593 L 4134.999 3861.193 L 4134.999 3863.593 L 4133.799 3867.193 L 4132.599 3868.393 L 4126.599 3879.193 L 4126.599 3881.593 L 4121.799 3883.992 L 4118.199 3889.992 L 4116.999 3892.392 L 4113.4 3895.992 L 4112.2 3899.592 L 4111 3900.792 L 4107.4 3897.192 L 4100.2 3897.192 L 4099 3899.592 L 4099 3903.192 L 4096.6 3901.992 L 4094.2 3903.192 L 4091.8 3909.192 L 4089.4 3910.392 L 4081 3911.592 L 4077.401 3910.392 L 4075.001 3910.392 L 4073.801 3911.592 L 4072.601 3910.392 L 4069.001 3912.792 L 4057.001 3910.392 L 4054.601 3911.592 L 4046.201 3911.592 L 4047.401 3915.192 L 4046.201 3919.991 L 4045.001 3919.991 L 4045.001 3922.391 L 4040.202 3925.991 L 4040.202 3929.591 L 4039.002 3930.791 L 4036.602 3933.191 L 4035.402 3936.791 L 4034.202 3939.191 L 4034.202 3940.391 L 4033.002 3943.991 L 4033.002 3945.191 L 4029.402 3947.591 L 4028.202 3946.391 L 4027.002 3947.591 L 4025.802 3948.791 L 4024.602 3949.991 L 4021.002 3948.791 L 4013.902 3952.391 L 4010.302 3954.791 L 4007.902 3954.791 L 4005.503 3955.99 L 4004.303 3957.19 L 4003.103 3957.19 L 4000.703 3955.99 L 3998.303 3957.19 L 3998.303 3960.79 L 3994.703 3961.99 L 3995.903 3964.39 L 3994.703 3966.79 L 3994.703 3972.79 L 3991.103 3972.79 L 3991.103 3973.99 L 3994.703 3978.79 L 3994.703 3979.99 L 3992.303 3979.99 L 3989.903 3977.59 L 3988.703 3977.59 L 3987.503 3979.99 L 3987.503 3981.19 L 3983.903 3981.19 L 3981.503 3983.59 L 3976.703 3983.59 L 3976.703 3982.39 L 3975.503 3982.39 L 3971.903 3984.79 L 3971.903 3987.19 L 3970.703 3987.19 L 3969.503 3989.59 L 3970.703 3990.79 L 3970.703 3994.389 L 3969.503 3995.589 L 3969.503 3999.189 L 3971.903 4001.589 L 3969.503 4002.789 L 3969.503 4003.989 L 3971.903 4006.389 L 3977.903 4006.389 L 3977.903 4009.989 L 3979.103 4011.189 L 3982.703 4013.589 L 3981.503 4014.789 L 3981.503 4015.989 L 3982.703 4014.789 L 3985.103 4015.989 L 3982.703 4017.189 L 3983.903 4018.389 L 3983.903 4020.789 L 3982.703 4023.189 L 3979.103 4023.189 L 3979.103 4025.589 L 3980.303 4025.589 L 3980.303 4029.188 L 3979.103 4030.388 L 3979.103 4032.788 L 3976.703 4031.588 L 3976.703 4033.988 L 3974.303 4031.588 L 3973.103 4031.588 L 3973.103 4033.988 L 3974.303 4035.188 L 3971.903 4035.188 L 3973.103 4037.588 L 3971.903 4038.788 L 3969.503 4038.788 L 3967.104 4036.388 L 3965.904 4036.388 L 3967.104 4041.188 L 3963.504 4038.788 L 3961.104 4038.788 L 3962.304 4041.188 L 3961.104 4042.388 L 3961.104 4043.588 L 3963.504 4043.588 L 3964.704 4048.388 L 3963.504 4049.588 L 3962.304 4047.188 L 3961.104 4045.988 L 3959.904 4047.188 L 3958.704 4048.388 L 3961.104 4051.988 L 3959.904 4050.788 L 3957.504 4051.988 L 3955.104 4053.188 L 3955.104 4054.388 L 3957.504 4054.388 L 3956.304 4055.588 L 3956.304 4060.388 L 3953.904 4060.388 L 3952.704 4062.788 L 3952.704 4066.387 L 3951.504 4066.387 L 3950.304 4067.587 L 3949.104 4066.387 L 3945.504 4069.987 L 3944.304 4069.987 L 3944.304 4072.387 L 3943.104 4072.387 L 3943.104 4071.187 L 3941.904 4071.187 L 3940.704 4072.387 L 3939.504 4071.187 L 3938.304 4073.587 L 3935.904 4073.587 L 3933.504 4074.787 L 3934.704 4074.787 L 3933.504 4075.987 L 3931.105 4077.187 L 3931.105 4079.587 L 3929.905 4079.587 L 3928.705 4080.787 L 3927.505 4080.787 L 3927.505 4078.387 L 3926.305 4078.387 L 3926.305 4079.587 L 3925.105 4079.587 L 3927.505 4081.987 L 3926.305 4084.387 L 3927.505 4084.387 L 3927.505 4085.587 L 3922.705 4085.587 L 3923.905 4085.587 L 3925.105 4087.987 L 3923.905 4087.987 L 3923.905 4086.787 L 3922.705 4086.787 L 3922.705 4089.187 L 3921.505 4087.987 L 3921.505 4089.187 L 3920.305 4090.387 L 3919.105 4089.187 L 3915.505 4089.187 L 3914.305 4087.987 L 3913.105 4089.187 L 3913.105 4087.987 L 3911.905 4089.187 L 3911.905 4091.587 L 3913.105 4092.787 L 3911.905 4092.787 L 3911.905 4095.187 L 3910.705 4096.387 L 3909.505 4096.387 L 3909.505 4097.587 L 3908.305 4097.587 L 3908.305 4103.586 L 3907.105 4104.786 L 3907.105 4105.986 L 3905.905 4108.386 L 3905.905 4107.186 L 3904.705 4107.186 L 3904.705 4111.986 L 3905.905 4113.186 L 3904.705 4114.386 L 3904.705 4116.786 L 3903.505 4116.786 L 3904.705 4117.986 L 3903.505 4117.986 L 3903.505 4119.186 L 3902.305 4119.186 L 3903.505 4121.586 L 3902.305 4121.586 L 3902.305 4122.786 L 3903.505 4122.786 L 3903.505 4125.186 L 3903.505 4123.986 L 3904.705 4125.186 L 3904.705 4126.386 L 3903.505 4127.586 L 3902.305 4127.586 L 3902.305 4128.786 L 3902.305 4127.586 L 3902.305 4129.986 L 3901.105 4128.786 L 3899.905 4128.786 L 3901.105 4129.986 L 3898.705 4129.986 L 3899.905 4131.186 L 3898.705 4131.186 L 3898.705 4132.386 L 3896.306 4132.386 L 3897.505 4133.586 L 3895.106 4133.586 L 3893.906 4134.786 L 3893.906 4137.185 L 3892.706 4140.785 L 3891.506 4140.785 L 3891.506 4141.985 L 3890.306 4143.185 L 3889.106 4145.585 L 3887.906 4144.385 L 3886.706 4145.585 L 3886.706 4147.985 L 3885.506 4151.585 L 3885.506 4153.985 L 3884.306 4153.985 L 3884.306 4157.585 L 3883.106 4158.785 L 3881.906 4161.185 L 3879.506 4161.185 L 3880.706 4164.785 L 3878.306 4165.985 L 3878.306 4167.185 L 3875.906 4168.385 L 3875.906 4170.785 L 3877.106 4169.585 L 3877.106 4170.785 L 3878.306 4170.785 L 3877.106 4171.984 L 3877.106 4173.184 L 3875.906 4173.184 L 3878.306 4174.384 L 3879.506 4175.584 L 3878.306 4176.784 L 3879.506 4176.784 L 3879.506 4177.984 L 3878.306 4177.984 L 3878.306 4180.384 L 3880.706 4180.384 L 3879.506 4181.584 L 3878.306 4181.584 L 3879.506 4181.584 L 3879.506 4183.984 L 3878.306 4185.184 L 3878.306 4183.984 L 3878.306 4185.184 L 3877.106 4186.384 L 3878.306 4186.384 L 3878.306 4187.584 L 3877.106 4187.584 L 3877.106 4188.784 L 3875.906 4188.784 L 3875.906 4189.984 L 3874.706 4191.184 L 3873.506 4192.384 L 3874.706 4193.584 L 3873.506 4194.784 L 3874.706 4194.784 L 3874.706 4199.584 L 3874.706 4198.384 L 3873.506 4200.784 L 3873.506 4201.984 L 3872.306 4204.384 L 3872.306 4207.983 L 3872.306 4206.784 L 3872.306 4207.983 L 3871.106 4210.383 L 3871.106 4211.583 L 3872.306 4211.583 L 3871.106 4211.583 L 3871.106 4213.983 L 3872.306 4215.183 L 3871.106 4216.383 L 3872.306 4217.583 L 3872.306 4223.583 L 3871.106 4224.783 L 3871.106 4225.983 L 3869.906 4227.183 L 3871.106 4227.183 L 3869.906 4228.383 L 3869.906 4230.783 L 3871.106 4233.183 L 3871.106 4235.583 L 3872.306 4235.583 L 3871.106 4236.783 L 3872.306 4237.983 L 3872.306 4239.183 L 3871.106 4240.383 L 3872.306 4240.383 L 3872.306 4241.583 L 3873.506 4242.783 L 3872.306 4243.983 L 3875.906 4246.382 L 3875.906 4245.182 L 3877.106 4246.382 L 3879.506 4247.582 L 3879.506 4248.782 L 3880.706 4249.982 L 3881.906 4251.182 L 3883.106 4251.182 L 3884.306 4253.582 L 3885.506 4253.582 L 3884.306 4254.782 L 3886.706 4257.182 L 3885.506 4258.382 L 3886.706 4260.782 L 3889.106 4263.182 L 3889.106 4264.382 L 3890.306 4266.782 L 3889.106 4272.782 L 3890.306 4273.982 L 3891.506 4275.182 L 3891.506 4276.382 L 3892.706 4277.582 L 3891.506 4281.181 L 3897.505 4284.781 L 3899.905 4289.581 L 3901.105 4290.781 L 3902.305 4293.181 L 3902.305 4303.981 L 3884.406 4303.981 L 3880.806 4302.781 L 3879.606 4300.381 L 3878.406 4300.381 L 3876.006 4299.181 L 3873.606 4297.981 L 3872.406 4297.981 L 3868.806 4296.781 L 3861.606 4295.581 L 3856.807 4296.781 L 3855.607 4297.981 L 3854.407 4297.981 L 3850.807 4296.781 L 3847.207 4297.981 L 3843.607 4295.581 L 3842.407 4295.581 L 3842.407 4294.381 L 3841.207 4295.581 L 3840.007 4293.181 L 3840.007 4294.381 L 3838.807 4294.381 L 3838.807 4293.181 L 3837.607 4294.381 L 3837.607 4293.181 L 3836.407 4294.381 L 3836.407 4295.581 L 3835.207 4294.381 L 3835.207 4295.581 L 3834.007 4295.581 L 3834.007 4299.181 L 3832.807 4300.381 L 3831.607 4302.781 L 3830.407 4302.781 L 3829.207 4303.981 L 3826.807 4302.781 L 3825.607 4301.581 L 3824.408 4301.581 L 3823.208 4300.381 L 3820.808 4300.381 L 3818.408 4299.181 L 3816.008 4299.181 L 3816.008 4296.781 L 3814.808 4296.781 L 3813.608 4297.981 L 3811.208 4297.981 L 3811.208 4296.781 L 3807.608 4295.581 L 3806.408 4293.181 L 3806.408 4291.981 L 3804.008 4291.981 L 3804.008 4293.181 L 3802.808 4291.981 L 3798.008 4291.981 L 3798.008 4293.181 L 3795.608 4294.381 L 3794.408 4295.581 L 3793.208 4296.781 L 3792.008 4299.181 L 3790.808 4296.781 L 3788.409 4296.781 L 3788.409 4295.581 L 3787.209 4295.581 L 3786.009 4296.781 L 3784.809 4295.581 L 3783.609 4295.581 L 3777.609 4296.781 L 3776.409 4295.581 L 3775.209 4294.381 L 3775.209 4293.181 L 3774.009 4293.181 L 3775.209 4291.981 L 3772.809 4291.981 L 3772.809 4290.781 L 3771.609 4290.781 L 3771.609 4288.381 L 3770.409 4288.381 L 3769.209 4289.581 L 3769.209 4287.181 L 3768.009 4285.981 L 3766.809 4285.981 L 3766.809 4284.781 L 3765.609 4284.781 L 3765.609 4283.581 L 3764.409 4284.781 L 3764.409 4283.581 L 3763.209 4282.381 L 3760.809 4283.581 L 3760.809 4281.181 L 3759.609 4281.181 L 3760.809 4282.381 L 3759.609 4282.381 L 3758.409 4279.982 L 3754.809 4279.982 L 3754.809 4281.181 L 3751.21 4281.181 L 3750.01 4279.982 L 3748.81 4281.181 L 3747.61 4281.181 L 3747.61 4282.381 L 3746.41 4281.181 L 3747.61 4278.782 L 3746.41 4278.782 L 3747.61 4277.582 L 3746.41 4275.182 L 3746.41 4272.782 L 3747.61 4270.382 L 3748.81 4269.182 L 3748.81 4266.782 L 3753.609 4260.782 L 3754.809 4258.382 L 3756.009 4255.982 L 3756.009 4254.782 L 3758.409 4249.982 L 3759.609 4248.782 L 3759.609 4247.582 L 3762.009 4246.382 L 3763.209 4245.182 L 3763.209 4241.583 L 3765.609 4240.383 L 3771.609 4237.983 L 3772.809 4236.783 L 3782.409 4236.783 L 3784.809 4234.383 L 3787.209 4235.583 L 3789.608 4234.383 L 3790.808 4234.383 L 3794.408 4160.185 L 3792.008 4158.985 L 3792.008 4156.585 L 3789.608 4155.385 L 3784.809 4156.585 L 3782.409 4158.985 L 3780.009 4158.985 L 3780.009 4161.385 L 3778.809 4162.585 L 3776.409 4166.185 L 3772.809 4166.185 L 3770.409 4167.385 L 3769.209 4170.985 L 3768.009 4172.184 L 3766.809 4175.784 L 3768.009 4179.384 L 3760.809 4181.784 L 3759.609 4182.984 L 3758.409 4185.384 L 3753.609 4190.184 L 3752.41 4191.384 L 3751.21 4192.584 L 3750.01 4193.784 L 3747.61 4196.184 L 3746.41 4197.384 L 3742.81 4198.584 L 3742.81 4199.784 L 3741.61 4199.784 L 3740.41 4200.984 L 3739.21 4199.784 L 3738.01 4199.784 L 3733.21 4200.984 L 3732.01 4203.384 L 3730.81 4205.784 L 3729.61 4205.784 L 3729.61 4206.984 L 3728.41 4205.784 L 3728.41 4210.583 L 3729.61 4210.583 L 3729.61 4211.783 L 3728.41 4214.183 L 3728.41 4217.783 L 3724.81 4221.383 L 3724.81 4222.583 L 3723.61 4224.983 L 3724.81 4226.183 L 3723.61 4227.383 L 3721.21 4226.183 L 3718.81 4226.183 L 3717.61 4227.383 L 3717.61 4226.183 L 3717.61 4227.383 L 3716.411 4226.183 L 3714.011 4227.383 L 3712.811 4224.983 L 3711.611 4226.183 L 3710.411 4224.983 L 3708.011 4224.983 L 3706.811 4223.783 L 3704.411 4224.983 L 3703.211 4226.183 L 3702.011 4226.183 L 3700.811 4227.383 L 3698.411 4227.383 L 3697.211 4228.583 L 3694.811 4228.583 L 3693.611 4230.983 L 3691.211 4232.183 L 3690.011 4233.383 L 3686.411 4233.383 L 3685.211 4234.583 L 3679.212 4234.583 L 3676.812 4233.383 L 3675.612 4233.383 L 3675.612 4232.183 L 3675.612 4233.383 L 3672.012 4230.983 L 3669.612 4229.783 L 3670.812 4228.583 L 3672.012 4224.983 L 3670.812 4224.983 L 3670.812 4223.783 L 3669.612 4223.783 L 3670.812 4222.583 L 3669.612 4221.383 L 3669.612 4218.983 L 3670.812 4220.183 L 3670.812 4217.783 L 3667.212 4216.583 L 3666.012 4215.383 L 3664.812 4214.183 L 3664.812 4212.983 L 3663.612 4211.783 L 3662.412 4212.983 L 3661.212 4211.783 L 3655.212 4210.583 L 3654.012 4208.183 L 3654.012 4206.984 L 3652.812 4206.984 L 3654.012 4204.584 L 3652.812 4204.584 L 3652.812 4203.384 L 3651.612 4203.384 L 3649.212 4202.184 L 3645.612 4202.184 L 3644.412 4200.984 L 3643.213 4200.984 L 3639.613 4203.384 L 3638.413 4200.984 L 3637.213 4202.184 L 3637.213 4200.984 L 3634.813 4199.784 L 3633.613 4200.984 L 3628.813 4203.384 L 3625.213 4204.584 L 3622.813 4203.384 L 3621.613 4204.584 L 3619.213 4205.784 L 3618.013 4205.784 L 3618.013 4206.984 L 3615.613 4205.784 L 3614.413 4204.584 L 3614.413 4206.984 L 3612.013 4208.183 L 3609.613 4208.183 L 3606.014 4209.383 L 3604.814 4211.783 L 3604.814 4212.983 L 3603.614 4215.383 L 3604.814 4215.383 L 3603.614 4216.583 L 3603.614 4217.783 L 3600.014 4217.783 L 3597.614 4220.183 L 3596.414 4220.183 L 3594.014 4222.583 L 3592.814 4222.583 L 3592.814 4224.983 L 3589.214 4226.183 L 3588.014 4226.183 L 3585.614 4227.383 L 3582.014 4226.183 L 3579.614 4227.383 L 3578.414 4224.983 L 3571.215 4224.983 L 3570.015 4226.183 L 3567.615 4226.183 L 3567.615 4227.383 L 3566.415 4226.183 L 3565.215 4228.583 L 3564.015 4227.383 L 3562.815 4229.783 L 3562.815 4230.983 L 3561.615 4229.783 L 3559.215 4228.583 L 3559.215 4229.783 L 3558.015 4228.583 L 3558.015 4229.783 L 3556.815 4229.783 L 3556.815 4230.983 L 3556.815 4229.783 L 3555.615 4230.983 L 3553.215 4230.983 L 3553.215 4229.783 L 3553.215 4230.983 L 3549.615 4230.983 L 3548.415 4229.783 L 3547.215 4228.583 L 3547.215 4229.783 L 3546.015 4228.583 L 3544.815 4229.783 L 3543.615 4228.583 L 3543.615 4229.783 L 3542.415 4228.583 L 3541.215 4230.983 L 3538.815 4233.383 L 3536.415 4232.183 L 3536.415 4230.983 L 3532.816 4230.983 L 3531.616 4229.783 L 3531.616 4230.983 L 3530.416 4230.983 L 3531.616 4229.783 L 3530.416 4229.783 L 3530.416 4228.583 L 3529.216 4227.383 L 3526.816 4228.583 L 3526.816 4227.383 L 3525.616 4227.383 L 3525.616 4226.183 L 3522.016 4226.183 L 3522.016 4224.983 L 3523.216 4226.183 L 3523.216 4224.983 L 3520.816 4223.783 L 3520.816 4222.583 L 3519.616 4222.583 L 3519.616 4223.783 L 3518.416 4222.583 L 3518.416 4223.783 L 3517.216 4222.583 L 3518.416 4221.383 L 3517.216 4222.583 L 3517.216 4220.183 L 3516.016 4220.183 L 3516.016 4218.983 L 3514.816 4218.983 L 3513.616 4217.783 L 3514.816 4216.583 L 3513.616 4215.383 L 3513.616 4216.583 L 3511.216 4216.583 L 3511.216 4215.383 L 3510.016 4216.583 L 3511.216 4215.383 L 3508.816 4214.183 L 3510.016 4212.983 L 3508.816 4212.983 L 3505.216 4214.183 L 3504.016 4212.983 L 3502.816 4214.183 L 3504.016 4214.183 L 3504.016 4215.383 L 3501.616 4214.183 L 3501.616 4212.983 L 3501.616 4214.183 L 3499.217 4214.183 L 3499.217 4210.583 L 3498.017 4210.583 L 3495.617 4209.383 L 3494.417 4208.183 L 3493.217 4209.383 L 3492.017 4209.383 L 3492.017 4208.183 L 3489.617 4206.984 L 3487.217 4208.183 L 3486.017 4206.984 L 3481.217 4206.984 L 3481.217 4205.784 L 3480.017 4205.784 L 3480.017 4204.584 L 3477.617 4202.184 L 3476.417 4200.984 L 3475.217 4202.184 L 3474.017 4202.184 L 3472.817 4203.384 L 3472.817 4202.184 L 3471.617 4203.384 L 3471.617 4202.184 L 3469.217 4202.184 L 3469.217 4199.784 L 3466.817 4199.784 L 3465.617 4198.584 L 3465.617 4197.384 L 3463.218 4196.184 L 3464.417 4196.184 L 3462.018 4193.784 L 3462.018 4194.984 L 3460.818 4193.784 L 3459.618 4193.784 L 3459.618 4190.184 L 3458.418 4190.184 L 3458.418 4191.384 L 3457.218 4190.184 L 3457.218 4187.784 L 3458.418 4187.784 L 3457.218 4186.584 L 3458.418 4186.584 L 3457.218 4185.384 L 3458.418 4182.984 L 3457.218 4182.984 L 3458.418 4181.784 L 3456.018 4182.984 L 3454.818 4181.784 L 3452.418 4179.384 L 3452.418 4181.784 L 3451.218 4180.584 L 3448.818 4178.184 L 3447.618 4175.784 L 3447.618 4179.384 L 3445.218 4178.184 L 3445.218 4175.784 L 3442.818 4178.184 L 3441.618 4175.784 L 3440.418 4178.184 L 3439.218 4175.784 L 3436.818 4178.184 L 3435.618 4175.784 L 3433.218 4178.184 L 3432.018 4175.784 L 3430.818 4175.784 L 3429.618 4174.584 L 3428.418 4174.584 L 3427.219 4173.384 L 3426.019 4173.384 L 3424.819 4174.584 L 3423.619 4172.184 L 3422.419 4173.384 L 3422.419 4174.584 L 3418.819 4170.985 L 3420.019 4168.585 L 3416.419 4168.585 L 3415.219 4169.785 L 3414.019 4168.585 L 3415.219 4167.385 L 3414.019 4167.385 L 3412.819 4168.585 L 3411.619 4167.385 L 3410.419 4164.985 L 3409.219 4166.185 L 3406.819 4162.585 L 3405.619 4163.785 L 3406.819 4164.985 L 3404.419 4166.185 L 3403.219 4164.985 L 3404.419 4163.785 L 3402.019 4164.985 L 3402.019 4163.785 L 3403.219 4163.785 L 3404.419 4162.585 L 3399.619 4162.585 L 3397.219 4161.385 L 3397.219 4163.785 L 3394.819 4164.985 L 3392.419 4161.385 L 3393.619 4160.185 L 3388.82 4160.185 L 3387.62 4158.985 L 3386.42 4161.385 L 3386.42 4157.785 L 3385.22 4157.785 L 3384.02 4158.985 L 3384.02 4156.585 L 3382.82 4157.785 L 3382.82 4152.985 L 3381.62 4154.185 L 3381.62 4151.785 L 3384.02 4151.785 L 3381.62 4149.385 L 3379.22 4148.185 L 3376.82 4145.785 L 3375.62 4145.785 L 3376.82 4148.185 L 3375.62 4148.185 L 3374.42 4145.785 L 3372.02 4145.785 L 3369.62 4146.985 L 3366.02 4145.785 L 3364.82 4144.585 L 3363.62 4145.785 L 3362.42 4145.785 L 3361.22 4146.985 L 3360.02 4146.985 L 3360.02 4149.385 L 3358.82 4148.185 L 3357.62 4148.185 L 3355.221 4149.385 L 3354.021 4148.185 L 3352.821 4149.385 L 3351.621 4148.185 L 3351.621 4152.985 L 3349.221 4151.785 L 3348.021 4152.985 L 3346.821 4152.985 L 3348.021 4155.385 L 3345.621 4154.185 L 3345.621 4155.385 L 3343.221 4155.385 L 3342.021 4154.185 L 3339.621 4154.185 L 3339.621 4156.585 L 3338.421 4155.385 L 3338.421 4156.585 L 3339.621 4158.985 L 3337.221 4157.785 L 3336.021 4158.985 L 3337.221 4158.985 L 3333.621 4158.985 L 3333.621 4160.185 L 3334.821 4161.385 L 3333.621 4163.785 L 3332.421 4163.785 L 3331.221 4164.985 L 3330.021 4163.785 L 3328.821 4163.785 L 3327.621 4164.985 L 3327.621 4166.185 L 3325.221 4166.185 L 3325.221 4167.385 L 3322.821 4164.985 L 3322.821 4163.785 L 3324.021 4164.985 L 3324.021 4163.785 L 3321.621 4162.585 L 3321.621 4163.785 L 3320.421 4163.785 L 3320.421 4164.985 L 3316.822 4166.185 L 3316.822 4167.385 L 3315.622 4169.785 L 3313.222 4169.785 L 3312.022 4172.184 L 3310.822 4170.985 L 3308.422 4172.184 L 3306.022 4174.584 L 3304.822 4173.384 L 3304.822 4170.985 L 3302.422 4172.184 L 3302.422 4169.785 L 3301.222 4169.785 L 3301.222 4170.985 L 3297.622 4168.585 L 3296.422 4168.585 L 3296.422 4166.185 L 3295.222 4168.585 L 3294.022 4167.385 L 3295.222 4169.785 L 3294.022 4169.785 L 3294.022 4170.985 L 3292.822 4170.985 L 3291.622 4172.184 L 3290.422 4170.985 L 3286.822 4173.384 L 3283.222 4172.184 L 3282.023 4172.184 L 3283.222 4174.584 L 3276.023 4174.584 L 3276.023 4173.384 L 3273.623 4173.384 L 3273.623 4174.584 L 3271.223 4173.384 L 3270.023 4172.184 L 3270.023 4173.384 L 3271.223 4174.584 L 3270.023 4175.784 L 3268.823 4173.384 L 3267.623 4173.384 L 3268.823 4174.584 L 3267.623 4175.784 L 3265.223 4174.584 L 3265.223 4173.384 L 3264.023 4172.184 L 3261.623 4173.384 L 3262.823 4172.184 L 3258.023 4172.184 L 3256.823 4170.985 L 3254.423 4170.985 L 3254.423 4173.384 L 3250.823 4173.384 L 3250.823 4175.784 L 3248.423 4176.984 L 3249.623 4178.184 L 3249.623 4179.384 L 3246.024 4181.784 L 3244.824 4182.984 L 3246.024 4185.384 L 3244.824 4185.384 L 3242.424 4184.184 L 3237.624 4185.384 L 3237.624 4188.984 L 3235.224 4190.184 L 3237.624 4191.384 L 3238.824 4191.384 L 3240.024 4192.584 L 3238.824 4193.784 L 3237.624 4193.784 L 3236.424 4194.984 L 3238.824 4196.184 L 3238.824 4197.384 L 3237.624 4198.584 L 3235.224 4198.584 L 3234.024 4199.784 L 3235.224 4202.184 L 3234.024 4203.384 L 3232.824 4202.184 L 3231.624 4204.584 L 3232.824 4205.784 L 3231.624 4208.183 L 3230.424 4208.183 L 3229.224 4211.783 L 3226.824 4212.983 L 3224.424 4211.783 L 3222.024 4212.983 L 3218.424 4214.183 L 3216.024 4217.783 L 3213.624 4217.783 L 3212.424 4220.183 L 3211.224 4220.183 L 3212.424 4222.583 L 3211.224 4223.783 L 3211.224 4224.983 L 3212.424 4226.183 L 3214.824 4224.983 L 3214.824 4226.183 L 3211.224 4230.983 L 3210.025 4234.583 L 3207.625 4236.983 L 3205.225 4236.983 L 3204.025 4239.383 L 3204.025 4240.583 L 3201.625 4240.583 L 3200.425 4247.782 L 3199.225 4247.782 L 3198.025 4246.582 L 3196.825 4247.782 L 3194.425 4247.782 L 3193.225 4250.182 L 3190.825 4251.382 L 3190.825 4254.982 L 3187.225 4254.982 L 3187.225 4256.182 L 3182.425 4253.782 L 3180.025 4256.182 L 3176.425 4256.182 L 3172.826 4257.382 L 3168.026 4257.382 L 3168.026 4258.582 L 3166.826 4257.382 L 3164.426 4259.782 L 3163.226 4258.582 L 3164.426 4260.982 L 3166.826 4260.982 L 3166.826 4262.182 L 3163.226 4262.182 L 3160.826 4263.382 L 3157.226 4262.182 L 3157.226 4264.582 L 3156.026 4263.382 L 3157.226 4262.182 L 3156.026 4262.182 L 3154.826 4263.382 L 3153.626 4262.182 L 3152.426 4263.382 L 3150.026 4264.582 L 3150.026 4265.782 L 3147.626 4265.782 L 3147.626 4266.982 L 3146.426 4265.782 L 3145.226 4266.982 L 3144.026 4265.782 L 3142.826 4264.582 L 3141.626 4264.582 L 3139.226 4268.182 L 3136.827 4266.982 L 3136.827 4268.182 L 3135.627 4269.382 L 3135.627 4270.582 L 3133.227 4269.382 L 3130.827 4272.982 L 3128.427 4272.982 L 3129.627 4276.582 L 3128.427 4278.982 L 3126.027 4277.782 L 3123.627 4274.182 L 3123.627 4270.582 L 3117.627 4271.782 L 3112.827 4269.382 L 3114.027 4266.982 L 3110.427 4264.582 L 3109.227 4263.382 L 3106.827 4263.382 L 3105.627 4259.782 L 3100.828 4260.982 L 3100.828 4259.782 L 3099.628 4256.182 L 3100.828 4256.182 L 3102.028 4254.982 L 3099.628 4253.782 L 3098.428 4251.382 L 3099.628 4251.382 L 3098.428 4250.182 L 3097.228 4247.782 L 3094.828 4245.382 L 3093.628 4245.382 L 3093.628 4246.582 L 3090.028 4247.782 L 3090.028 4246.582 L 3088.828 4246.582 L 3088.828 4245.382 L 3086.428 4244.182 L 3087.628 4242.983 L 3087.628 4239.383 L 3088.828 4238.183 L 3090.028 4236.983 L 3088.828 4236.983 L 3088.828 4235.783 L 3087.628 4234.583 L 3087.628 4230.983 L 3086.428 4230.983 L 3086.428 4228.583 L 3085.228 4228.583 L 3084.028 4223.783 L 3084.028 4218.983 L 3081.628 4217.783 L 3081.628 4212.983 L 3079.228 4210.583 L 3076.828 4211.783 L 3074.428 4216.583 L 3051.629 4196.184 L 3034.829 4206.984 L 3031.229 4208.183 L 3031.229 4205.784 L 3030.03 4206.984 L 3028.83 4205.784 L 3027.63 4205.784 L 3026.43 4204.584 L 3025.23 4204.584 L 3022.83 4203.384 L 3022.83 4198.584 L 3020.43 4196.184 L 3018.03 4196.184 L 3015.63 4198.584 L 3009.63 4196.184 L 3009.63 4190.184 L 3008.43 4188.984 L 3006.03 4190.184 L 3004.83 4188.984 L 3003.63 4187.784 L 3004.83 4184.184 L 2998.83 4185.384 L 2995.23 4184.184 L 2996.43 4181.784 L 2995.23 4179.384 L 2990.431 4179.384 L 2990.431 4178.184 L 2988.031 4178.184 L 2988.031 4179.384 L 2985.631 4178.184 L 2985.631 4176.984 L 2984.431 4176.984 L 2984.431 4174.584 L 2982.031 4173.384 L 2982.031 4168.585 L 2979.631 4169.785 L 2978.431 4168.585 L 2978.431 4167.385 L 2979.631 4166.185 L 2977.231 4164.985 L 2977.231 4163.785 L 2974.831 4162.585 L 2973.631 4161.385 L 2974.831 4160.185 L 2971.231 4157.785 L 2971.231 4156.585 L 2970.031 4156.585 L 2967.631 4152.985 L 2966.431 4152.985 L 2966.431 4150.585 L 2965.231 4150.585 L 2961.631 4148.185 L 2960.431 4138.585 L 2962.831 4134.986 L 2961.631 4133.786 L 2960.431 4133.786 L 2956.832 4134.986 L 2955.632 4134.986 L 2955.632 4130.186 L 2954.432 4130.186 L 2954.432 4125.386 L 2956.832 4122.986 L 2954.432 4122.986 L 2954.432 4120.586 L 2956.832 4120.586 L 2956.832 4119.386 L 2954.432 4119.386 L 2954.432 4115.786 L 2955.632 4114.586 L 2956.832 4112.186 L 2954.432 4112.186 L 2952.032 4109.786 L 2952.032 4108.586 L 2949.632 4108.586 L 2949.632 4106.186 L 2950.832 4103.786 L 2949.632 4102.586 L 2948.432 4103.786 L 2947.232 4102.586 L 2948.432 4100.186 L 2947.232 4098.987 L 2948.432 4097.787 L 2949.632 4095.387 L 2948.432 4095.387 L 2949.632 4090.587 L 2948.432 4090.587 L 2949.632 4089.387 L 2948.432 4088.187 L 2949.632 4086.987 L 2948.432 4086.987 L 2949.632 4085.787 L 2947.232 4082.187 L 2947.232 4076.187 L 2949.632 4076.187 L 2949.632 4073.787 L 2948.432 4070.187 L 2947.232 4067.787 L 2948.432 4062.988 L 2948.432 4060.588 L 2949.632 4053.388 L 2949.632 4050.988 L 2954.432 4040.188 L 2955.632 4038.988 L 2956.832 4036.588 L 2961.631 4034.188 L 2962.831 4030.588 L 2967.631 4028.188 L 2970.031 4025.789 L 2972.431 4020.989 L 2972.431 4018.589 L 2970.031 4014.989 L 2967.631 4010.189 L 2970.031 4004.189 L 2970.031 4002.989 L 2971.231 4001.789 L 2972.431 4002.989 L 2973.631 4001.789 L 2977.231 3999.389 L 2976.031 3998.189 L 2977.231 3992.189 L 2977.231 3988.59 L 2974.831 3984.99 L 2974.831 3980.19 L 2971.231 3981.39 L 2966.431 3981.39 L 2962.831 3978.99 L 2961.631 3986.19 L 2959.231 3988.59 L 2954.432 3990.99 L 2892.133 3987.39 L 2771.237 3982.59 L 2647.94 3980.19 L 2641.94 3910.792 L 2635.94 3836.594 L 2578.442 3769.596 L 2589.242 3768.396 L 2634.74 3768.396 L 2629.941 3680.998 L 2626.341 3682.198 L 2621.541 3679.798 L 2620.341 3673.798 L 2619.141 3671.398 L 2620.341 3671.398 L 2619.141 3668.998 L 2619.141 3666.598 L 2617.941 3665.399 L 2619.141 3665.399 L 2617.941 3664.199 L 2617.941 3661.799 L 2616.741 3660.599 L 2616.741 3658.199 L 2613.141 3656.999 L 2613.141 3655.799 L 2614.341 3656.999 L 2614.341 3654.599 L 2610.741 3652.199 L 2611.941 3650.999 L 2610.741 3650.999 L 2610.741 3648.599 L 2609.541 3647.399 L 2607.141 3647.399 L 2608.341 3646.199 L 2608.341 3644.999 L 2607.141 3644.999 L 2607.141 3643.799 L 2605.941 3643.799 L 2607.141 3642.599 L 2607.141 3637.799 L 2608.341 3638.999 L 2608.341 3634.199 L 2607.141 3635.399 L 2607.141 3634.199 L 2605.941 3635.399 L 2605.941 3632.999 L 2604.741 3634.199 L 2604.741 3631.799 L 2603.541 3632.999 L 2602.341 3631.799 L 2603.541 3630.599 L 2601.141 3629.4 L 2599.941 3627 L 2598.741 3625.8 L 2598.741 3624.6 L 2597.541 3623.4 L 2597.541 3621 L 2596.342 3619.8 L 2597.541 3618.6 L 2596.342 3616.2 L 2596.342 3615 L 2598.741 3613.8 L 2598.741 3612.6 L 2596.342 3611.4 L 2596.342 3609 L 2595.142 3607.8 L 2595.142 3603 L 2591.542 3603 L 2591.542 3599.4 L 2592.742 3598.2 L 2593.942 3597 L 2593.942 3595.8 L 2592.742 3593.401 L 2595.142 3592.201 L 2592.742 3589.801 L 2595.142 3588.601 L 2593.942 3587.401 L 2593.942 3586.201 L 2595.142 3585.001 L 2596.342 3585.001 L 2598.741 3583.801 L 2602.341 3580.201 L 2602.341 3579.001 L 2603.541 3576.601 L 2605.941 3574.201 L 2605.941 3573.001 L 2607.141 3570.601 L 2607.141 3568.201 L 2608.341 3567.001 L 2608.341 3568.201 L 2608.341 3567.001 L 2610.741 3567.001 L 2610.741 3565.801 L 2609.541 3564.601 L 2604.741 3564.601 L 2602.341 3561.001 L 2603.541 3562.201 L 2604.741 3559.801 L 2605.941 3559.801 L 2604.741 3558.601 L 2604.741 3557.402 L 2602.341 3557.402 L 2599.941 3556.202 L 2598.741 3556.202 L 2599.941 3557.402 L 2598.741 3557.402 L 2598.741 3551.402 L 2597.541 3549.002 L 2598.741 3547.802 L 2598.741 3546.602 L 2596.342 3546.602 L 2595.142 3547.802 L 2595.142 3549.002 L 2593.942 3547.802 L 2595.142 3546.602 L 2596.342 3545.402 L 2596.342 3543.002 L 2597.541 3541.802 L 2591.542 3541.802 L 2595.142 3538.202 L 2595.142 3537.002 L 2592.742 3538.202 L 2591.542 3537.002 L 2591.542 3535.802 L 2595.142 3535.802 L 2596.342 3534.602 L 2593.942 3533.402 L 2593.942 3532.202 L 2596.342 3532.202 L 2595.142 3531.002 L 2591.542 3531.002 L 2590.342 3529.802 L 2589.142 3531.002 L 2587.942 3529.802 L 2584.342 3529.802 L 2586.742 3527.402 L 2585.542 3526.202 L 2581.942 3526.202 L 2581.942 3528.602 L 2580.742 3528.602 L 2579.542 3526.202 L 2577.142 3526.202 L 2578.342 3523.802 L 2575.942 3523.802 L 2577.142 3522.602 L 2574.742 3522.602 L 2573.542 3521.403 L 2572.342 3522.602 L 2571.142 3522.602 L 2571.142 3520.203 L 2569.942 3521.403 L 2569.942 3519.003 L 2567.542 3516.603 L 2566.342 3519.003 L 2565.142 3519.003 L 2563.942 3520.203 L 2562.742 3520.203 L 2562.742 3519.003 L 2562.742 3520.203 L 2560.343 3519.003 L 2557.943 3516.603 L 2556.743 3513.003 L 2555.543 3514.203 L 2555.543 3516.603 L 2553.143 3514.203 L 2553.143 3511.803 L 2551.943 3510.603 L 2551.943 3509.403 L 2553.143 3509.403 L 2553.143 3508.203 L 2554.343 3508.203 L 2555.543 3507.003 L 2554.343 3505.803 L 2555.543 3505.803 L 2554.343 3505.803 L 2555.543 3504.603 L 2556.743 3504.603 L 2555.543 3503.403 L 2556.743 3502.203 L 2556.743 3499.803 L 2559.143 3498.603 L 2559.143 3497.403 L 2560.343 3497.403 L 2560.343 3496.203 L 2562.742 3496.203 L 2563.942 3493.803 L 2565.142 3495.003 L 2565.142 3492.603 L 2566.342 3491.403 L 2566.342 3490.203 L 2569.942 3489.003 L 2572.342 3490.203 L 2573.542 3490.203 L 2574.742 3489.003 L 2575.942 3489.003 L 2579.542 3486.603 L 2580.742 3485.404 L 2581.942 3485.404 L 2581.942 3484.204 L 2584.342 3484.204 L 2584.342 3480.604 L 2589.142 3477.004 L 2592.742 3475.804 L 2592.742 3477.004 L 2593.942 3475.804 L 2596.342 3474.604 L 2597.541 3475.804 L 2602.341 3474.604 L 2602.341 3473.404 L 2605.941 3469.804 L 2607.141 3469.804 L 2607.141 3468.604 L 2609.541 3468.604 L 2610.741 3466.204 L 2610.741 3461.404 L 2613.141 3460.204 L 2610.741 3457.804 L 2610.741 3454.204 L 2611.941 3454.204 L 2611.941 3453.004 L 2613.141 3453.004 L 2613.141 3447.005 L 2611.941 3444.605 L 2613.141 3444.605 L 2614.341 3442.205 L 2614.341 3439.805 L 2614.341 3441.005 L 2615.541 3439.805 L 2615.541 3436.205 L 2617.941 3436.205 L 2619.141 3432.605 L 2620.341 3432.605 L 2620.341 3427.805 L 2621.541 3427.805 L 2621.541 3425.405 L 2623.941 3421.805 L 2623.941 3418.205 L 2626.341 3418.205 L 2631.141 3412.206 L 2628.741 3411.006 L 2629.941 3408.606 L 2628.741 3407.406 L 2628.741 3405.006 L 2627.541 3403.806 L 2628.741 3402.606 L 2628.741 3400.206 L 2631.141 3400.206 L 2633.54 3396.606 L 2634.74 3396.606 L 2635.94 3394.206 L 2635.94 3391.806 L 2638.34 3391.806 L 2639.54 3390.606 L 2640.74 3390.606 L 2640.74 3387.006 L 2641.94 3385.806 L 2643.14 3383.406 L 2644.34 3382.206 L 2644.34 3381.006 L 2645.54 3379.806 L 2649.14 3381.006 L 2650.34 3379.806 L 2652.74 3379.806 L 2653.94 3381.006 L 2655.14 3378.606 L 2657.54 3378.606 L 2659.94 3371.407 L 2663.54 3367.807 L 2664.74 3364.207 L 2663.54 3355.807 L 2664.74 3349.807 L 2664.74 3345.007 L 2662.34 3339.008 L 2662.34 3335.408 L 2664.74 3329.408 L 2664.74 3324.608 L 2667.14 3321.008 L 2667.14 3318.608 L 2665.94 3316.208 L 2668.34 3313.808 L 2670.739 3312.608 L 2671.939 3312.608 L 2673.139 3309.008 L 2673.139 3306.608 L 2674.339 3305.408 L 2676.739 3303.009 L 2677.939 3301.809 L 2682.739 3300.609 L 2686.339 3295.809 L 2689.939 3294.609 L 2689.939 3292.209 L 2691.139 3292.209 L 2691.139 3291.009 L 2694.739 3291.009 L 2695.939 3289.809 L 2695.939 3291.009 L 2698.339 3289.809 L 2699.539 3291.009 L 2701.939 3292.209 L 2704.339 3291.009 L 2705.538 3289.809 L 2706.738 3287.409 L 2705.538 3281.409 L 2707.938 3279.009 L 2707.938 3276.609 L 2709.138 3275.409 L 2710.338 3275.409 L 2710.338 3273.009 L 2712.738 3270.609 L 2712.738 3269.409 L 2715.138 3267.01 L 2718.738 3265.81 L 2698.339 3249.01 L 2697.139 3249.01 L 2697.139 3246.61 L 2695.939 3244.21 L 2695.939 3243.01 L 2694.739 3239.41 L 2694.739 3237.01 L 2695.939 3235.81 L 2695.939 3222.911 L 2693.539 3219.311 L 2692.339 3219.311 L 2691.139 3215.711 L 2687.539 3213.311 L 2686.339 3213.311 L 2686.339 3212.111 L 2685.139 3212.111 L 2685.139 3210.911 L 2683.939 3209.711 L 2683.939 3207.311 L 2681.539 3207.311 L 2682.739 3204.911 L 2683.939 3202.511 L 2683.939 3201.311 L 2681.539 3200.111 L 2683.939 3200.111 L 2683.939 3198.911 L 2682.739 3197.711 L 2683.939 3196.512 L 2680.339 3194.112 L 2681.539 3194.112 L 2681.539 3191.712 L 2680.339 3189.312 L 2681.539 3186.912 L 2680.339 3185.712 L 2679.139 3185.712 L 2676.739 3182.112 L 2674.339 3183.312 L 2673.139 3182.112 L 2671.939 3183.312 L 2670.739 3182.112 L 2669.539 3183.312 L 2667.14 3182.112 L 2664.74 3180.912 L 2664.74 3178.512 L 2663.54 3177.312 L 2663.54 3176.112 L 2662.34 3176.112 L 2662.34 3174.912 L 2661.14 3174.912 L 2661.14 3176.112 L 2661.14 3172.512 L 2659.94 3171.312 L 2658.74 3172.512 L 2661.14 3171.312 L 2659.94 3168.912 L 2661.14 3168.912 L 2659.94 3167.712 L 2661.14 3166.512 L 2659.94 3165.312 L 2661.14 3165.312 L 2661.14 3164.112 L 2658.74 3164.112 L 2659.94 3162.912 L 2659.94 3161.712 L 2658.74 3161.712 L 2658.74 3160.512 L 2659.94 3160.512 L 2659.94 3158.113 L 2658.74 3158.113 L 2658.74 3155.713 L 2657.54 3152.113 L 2658.74 3150.913 L 2656.34 3149.713 L 2657.54 3148.513 L 2657.54 3144.913 L 2656.34 3143.713 L 2657.54 3143.713 L 2657.54 3136.513 L 2658.74 3136.513 L 2657.54 3135.313 L 2658.74 3132.913 L 2657.54 3132.913 L 2658.74 3131.713 L 2657.54 3129.313 L 2658.74 3128.113 L 2657.54 3126.913 L 2658.74 3125.713 L 2661.14 3125.713 L 2659.94 3124.513 L 2662.34 3124.513 L 2661.14 3123.314 L 2662.34 3123.314 L 2661.14 3122.114 L 2662.34 3120.914 L 2662.34 3122.114 L 2663.54 3120.914 L 2664.74 3120.914 L 2664.74 3119.714 L 2668.34 3118.514 L 2668.34 3117.314 L 2670.739 3113.714 L 2673.139 3111.314 L 2673.139 3108.914 L 2674.339 3110.114 L 2675.539 3108.914 L 2676.739 3107.714 L 2677.939 3106.514 L 2680.339 3105.314 L 2682.739 3099.314 L 2686.339 3099.314 L 2687.539 3098.114 L 2688.739 3096.914 L 2689.939 3096.914 L 2691.139 3095.714 L 2691.139 3094.514 L 2692.339 3092.114 L 2692.339 3088.514 L 2691.139 3084.915 L 2692.339 3083.715 L 2691.139 3083.715 L 2692.339 3082.515 L 2692.339 3080.115 L 2691.139 3076.515 L 2687.539 3075.315 L 2685.139 3072.915 L 2685.139 3070.515 L 2683.939 3068.115 L 2683.939 3065.715 L 2681.539 3062.115 L 2681.539 3056.115 L 2682.739 3056.115 L 2683.939 3054.915 L 2685.139 3053.715 L 2683.939 3053.715 L 2683.939 3052.515 L 2681.539 3052.515 L 2680.339 3050.116 L 2680.339 3048.916 L 2679.139 3047.716 L 2679.139 3046.516 L 2681.539 3046.516 L 2680.339 3044.116 L 2681.539 3045.316 L 2682.739 3041.716 L 2680.339 3040.516 L 2680.339 3041.716 L 2675.539 3041.716 L 2675.539 3040.516 L 2674.339 3042.916 L 2673.139 3042.916 L 2671.939 3040.516 L 2670.739 3041.716 L 2665.94 3042.916 L 2664.74 3038.116 L 2663.54 3036.916 L 2662.34 3038.116 L 2662.34 3039.316 L 2659.94 3039.316 L 2658.74 3038.116 L 2657.54 3039.316 L 2655.14 3038.116 L 2652.74 3039.316 L 2651.54 3038.116 L 2650.34 3036.916 L 2646.74 3038.116 L 2645.54 3038.116 L 2644.34 3040.516 L 2641.94 3039.316 L 2640.74 3039.316 L 2638.34 3038.116 L 2635.94 3036.916 L 2629.941 3036.916 L 2628.741 3035.716 L 2628.741 3030.916 L 2626.341 3030.916 L 2625.141 3029.716 L 2623.941 3030.916 L 2622.741 3030.916 L 2619.141 3034.516 L 2616.741 3033.316 L 2617.941 3034.516 L 2616.741 3038.116 L 2617.941 3038.116 L 2616.741 3039.316 L 2613.141 3036.916 L 2609.541 3036.916 L 2608.341 3035.716 L 2608.341 3034.516 L 2607.141 3033.316 L 2607.141 3032.116 L 2604.741 3032.116 L 2605.941 3028.516 L 2604.741 3027.316 L 2602.341 3026.116 L 2601.141 3027.316 L 2599.941 3027.316 L 2601.141 3022.516 L 2599.941 3022.516 L 2598.741 3021.316 L 2598.741 3017.716 L 2426.346 3017.716 L 2404.747 3016.516 L 2404.747 3015.317 L 2408.347 3015.317 L 2408.347 3011.717 L 2409.547 3010.517 L 2409.547 3008.117 L 2410.747 3004.517 L 2410.747 3002.117 L 2409.547 3002.117 L 2409.547 2999.717 L 2408.347 2998.517 L 2409.547 2998.517 L 2409.547 2991.417 L 2411.947 2990.217 L 2411.947 2986.617 L 2413.147 2984.217 L 2411.947 2981.817 L 2413.147 2980.617 L 2414.347 2979.418 L 2414.347 2980.617 L 2415.547 2981.817 L 2415.547 2983.017 L 2417.946 2983.017 L 2416.746 2980.617 L 2417.946 2977.018 L 2416.746 2975.818 L 2416.746 2973.418 L 2415.547 2971.018 L 2415.547 2969.818 L 2417.946 2968.618 L 2417.946 2967.418 L 2416.746 2967.418 L 2414.347 2965.018 L 2414.347 2961.418 L 2415.547 2960.218 L 2416.746 2960.218 L 2416.746 2953.018 L 2415.547 2951.818 L 2417.946 2948.218 L 2416.746 2945.818 L 2417.946 2944.618 L 2416.746 2941.019 L 2419.146 2938.619 L 2419.146 2936.219 L 2416.746 2933.819 L 2416.746 2926.619 L 2419.146 2921.819 L 2417.946 2920.619 L 2419.146 2919.419 L 2420.346 2913.419 L 2417.946 2913.419 L 2417.946 2912.219 L 2419.146 2911.019 L 2416.746 2909.819 L 2415.547 2908.619 L 2414.347 2908.619 L 2413.147 2906.22 L 2413.147 2901.42 L 2411.947 2901.42 L 2410.747 2897.82 L 2407.147 2897.82 L 2405.947 2895.42 L 2404.747 2895.42 L 2403.547 2893.02 L 2405.947 2891.82 L 2403.547 2888.22 L 2401.147 2884.62 L 2399.947 2882.22 L 2399.947 2875.02 L 2404.747 2873.82 L 2403.547 2872.62 L 2403.547 2869.021 L 2399.947 2867.821 L 2399.947 2866.621 L 2396.347 2866.621 L 2396.347 2865.421 L 2397.547 2859.421 L 2397.547 2857.021 L 2398.747 2854.621 L 2398.747 2852.221 L 2399.947 2852.221 L 2398.747 2848.621 L 2399.947 2847.421 L 2399.947 2846.221 L 2403.547 2843.821 L 2405.947 2837.821 L 2405.947 2836.621 L 2408.347 2835.421 L 2408.347 2831.822 L 2407.147 2830.622 L 2408.347 2828.222 L 2409.547 2828.222 L 2409.547 2827.022 L 2408.347 2825.822 L 2409.547 2824.622 L 2409.547 2819.822 L 2411.947 2817.422 L 2411.947 2812.622 L 2410.747 2809.022 L 2410.747 2805.422 L 2408.347 2804.222 L 2409.547 2801.822 L 2409.547 2800.622 L 2407.147 2799.422 L 2404.747 2798.223 L 2408.347 2793.423 L 2408.347 2789.823 L 2403.547 2787.423 L 2401.147 2787.423 L 2399.947 2786.223 L 2404.747 2783.823 L 2405.947 2785.023 L 2408.347 2785.023 L 2409.547 2782.623 L 2413.147 2781.423 L 2413.147 2779.023 L 2411.947 2775.423 L 2414.347 2775.423 L 2416.746 2770.623 L 2417.946 2769.423 L 2416.746 2769.423 L 2416.746 2768.223 L 2415.547 2769.423 L 2414.347 2769.423 L 2413.147 2767.023 L 2414.347 2761.024 L 2414.347 2759.824 L 2413.147 2759.824 L 2413.147 2758.624 L 2411.947 2758.624 L 2411.947 2753.824 L 2410.747 2753.824 L 2410.747 2751.424 L 2408.347 2752.624 L 2404.747 2749.024 L 2404.747 2747.824 L 2409.547 2746.624 L 2402.347 2743.024 L 2401.147 2741.824 L 2399.947 2740.624 L 2399.947 2739.424 L 2398.747 2738.224 L 2402.347 2734.624 L 2403.547 2734.624 L 2403.547 2732.224 L 2404.747 2731.024 L 2402.347 2727.424 L 2404.747 2726.225 L 2402.347 2725.025 L 2399.947 2722.625 L 2396.347 2722.625 L 2393.947 2721.425 L 2393.947 2720.225 L 2391.547 2721.425 L 2391.547 2716.625 L 2392.747 2714.225 L 2393.947 2713.025 L 2392.747 2710.625 L 2393.947 2707.025 L 2393.947 2705.825 L 2391.547 2707.025 L 2392.847 2706.925 Z " fill="#F3AA47" vector-effect="non-scaling-stroke" stroke-width="1" stroke-linejoin="miter" stroke-linecap="butt" stroke-miterlimit="4"/></svg>