<?xml version="1.0" standalone="no"?><!-- Generator: Gravit.io --><svg xmlns="http://www.w3.org/2000/svg" xmlns:xlink="http://www.w3.org/1999/xlink" style="isolation:isolate" viewBox="3625.513 5111.058 1171.068 769.579" width="1171.068" height="769.579"><path d=" M 3632.013 5645.944 L 3633.213 5644.744 L 3633.213 5642.344 L 3635.613 5637.544 L 3636.813 5635.144 L 3639.213 5631.544 L 3642.813 5629.144 L 3647.612 5623.144 L 3650.012 5619.544 L 3652.412 5614.745 L 3653.612 5607.645 L 3656.012 5604.045 L 3657.212 5600.445 L 3659.612 5596.845 L 3662.012 5596.845 L 3663.212 5594.445 L 3662.012 5589.645 L 3660.812 5587.245 L 3658.412 5584.845 L 3657.212 5582.445 L 3658.412 5580.046 L 3657.212 5576.446 L 3657.212 5572.846 L 3660.812 5563.246 L 3660.812 5556.046 L 3663.212 5551.246 L 3664.412 5546.446 L 3666.812 5536.847 L 3670.412 5526.047 L 3671.612 5522.447 L 3674.012 5521.247 L 3675.212 5518.847 L 3677.612 5512.847 L 3678.812 5509.247 L 3681.211 5503.248 L 3682.411 5490.148 L 3682.411 5487.748 L 3680.012 5479.348 L 3678.812 5474.548 L 3681.211 5466.149 L 3686.011 5461.349 L 3689.611 5456.549 L 3692.011 5450.549 L 3693.211 5448.149 L 3690.811 5438.549 L 3688.411 5434.95 L 3682.411 5428.95 L 3681.211 5425.35 L 3681.211 5418.15 L 3678.812 5412.15 L 3678.812 5409.75 L 3677.612 5408.55 L 3680.012 5403.75 L 3684.811 5400.15 L 3688.411 5395.351 L 3689.611 5394.151 L 3690.811 5394.151 L 3695.611 5392.951 L 3708.711 5383.351 L 3715.911 5379.751 L 3719.51 5376.151 L 3720.71 5373.751 L 3724.31 5362.952 L 3724.31 5358.152 L 3723.11 5354.552 L 3724.31 5352.152 L 3723.11 5350.952 L 3724.31 5347.352 L 3725.51 5340.152 L 3729.11 5334.152 L 3729.11 5332.952 L 3730.31 5325.853 L 3731.51 5322.253 L 3732.71 5319.853 L 3733.91 5315.053 L 3735.11 5307.853 L 3737.51 5300.653 L 3737.51 5293.453 L 3742.31 5285.054 L 3742.31 5283.854 L 3744.71 5282.654 L 3745.91 5281.454 L 3750.71 5282.654 L 3760.309 5277.854 L 3771.109 5270.654 L 3779.509 5268.254 L 3780.709 5267.054 L 3786.709 5258.654 L 3789.108 5253.855 L 3789.108 5252.655 L 3791.508 5246.655 L 3793.908 5238.255 L 3798.708 5231.055 L 3798.708 5228.655 L 3803.508 5223.855 L 3803.508 5201.856 L 3807.108 5197.056 L 3808.308 5192.256 L 3811.908 5189.856 L 3814.308 5188.656 L 3816.708 5186.256 L 3816.708 5185.056 L 3819.108 5181.457 L 3821.508 5180.257 L 3823.908 5179.057 L 3829.907 5176.657 L 3835.907 5173.057 L 3839.507 5171.857 L 3843.107 5168.257 L 3843.107 5167.057 L 3844.307 5167.057 L 3849.107 5165.857 L 3851.507 5162.257 L 3852.707 5161.057 L 3855.107 5159.857 L 3857.507 5158.657 L 3861.107 5157.457 L 3871.906 5153.857 L 3873.106 5153.857 L 3873.106 5152.657 L 3880.206 5152.657 L 3881.406 5151.457 L 3883.806 5149.057 L 3892.206 5138.258 L 3893.406 5138.258 L 3897.006 5132.258 L 3898.205 5135.858 L 3899.405 5139.458 L 3901.805 5135.858 L 3906.605 5134.658 L 3909.005 5132.258 L 3911.405 5129.858 L 3913.805 5128.658 L 3913.805 5127.458 L 3916.205 5126.258 L 3918.605 5125.058 L 3919.805 5123.858 L 3928.205 5122.658 L 3931.805 5123.858 L 3940.204 5129.858 L 3942.604 5131.058 L 3948.604 5128.658 L 3953.404 5128.658 L 3954.604 5129.858 L 3959.404 5131.058 L 3964.204 5133.458 L 3967.804 5133.458 L 3975.003 5131.058 L 3985.803 5123.858 L 3988.203 5122.658 L 3989.403 5122.658 L 3991.803 5126.258 L 3996.603 5131.058 L 3997.803 5131.058 L 4000.203 5132.258 L 4003.803 5134.658 L 4005.003 5134.658 L 4011.002 5131.058 L 4013.402 5131.058 L 4013.402 5129.858 L 4015.802 5129.858 L 4017.002 5131.058 L 4018.202 5131.058 L 4020.602 5132.258 L 4026.602 5134.658 L 4035.002 5134.658 L 4038.602 5135.858 L 4041.002 5133.458 L 4043.401 5132.258 L 4048.201 5131.058 L 4049.401 5132.258 L 4051.801 5135.858 L 4051.801 5141.858 L 4053.001 5141.858 L 4057.801 5139.458 L 4060.201 5138.258 L 4065.001 5137.058 L 4063.801 5129.858 L 4063.801 5128.658 L 4065.001 5123.858 L 4065.001 5122.658 L 4066.201 5119.058 L 4068.601 5115.458 L 4069.801 5114.258 L 4072.201 5113.058 L 4073.401 5113.058 L 4075.801 5114.258 L 4081.8 5117.858 L 4087.8 5117.858 L 4092.6 5119.058 L 4098.6 5122.658 L 4102.2 5122.658 L 4109.4 5128.658 L 4110.6 5129.858 L 4111.8 5131.058 L 4114.199 5133.458 L 4117.799 5134.658 L 4118.999 5134.658 L 4132.199 5131.058 L 4134.599 5132.258 L 4135.799 5132.258 L 4136.999 5133.458 L 4139.399 5133.458 L 4139.399 5134.658 L 4140.599 5139.458 L 4141.799 5141.858 L 4145.399 5141.858 L 4148.999 5139.458 L 4157.398 5139.458 L 4159.798 5140.658 L 4164.598 5144.258 L 4168.198 5145.458 L 4170.598 5146.658 L 4171.798 5145.458 L 4176.598 5144.258 L 4177.798 5145.458 L 4180.198 5145.458 L 4184.998 5143.058 L 4186.197 5143.058 L 4189.797 5138.258 L 4193.397 5138.258 L 4198.197 5140.658 L 4200.597 5140.658 L 4202.997 5139.458 L 4207.797 5140.658 L 4210.197 5140.658 L 4214.997 5141.858 L 4216.197 5141.858 L 4219.797 5140.658 L 4222.197 5141.858 L 4224.596 5144.258 L 4225.796 5144.258 L 4226.996 5149.057 L 4230.596 5151.457 L 4231.796 5151.457 L 4235.396 5152.657 L 4237.796 5153.857 L 4241.396 5156.257 L 4248.596 5158.657 L 4258.196 5158.657 L 4267.795 5163.457 L 4270.195 5163.457 L 4272.595 5162.257 L 4276.195 5162.257 L 4278.595 5165.857 L 4279.795 5165.857 L 4282.195 5164.657 L 4288.195 5164.657 L 4289.395 5165.857 L 4296.594 5170.657 L 4298.994 5175.457 L 4300.194 5176.657 L 4301.394 5180.257 L 4304.994 5181.457 L 4304.994 5183.856 L 4303.794 5191.056 L 4304.994 5192.256 L 4312.194 5192.256 L 4313.394 5193.456 L 4314.594 5194.656 L 4316.994 5194.656 L 4320.594 5193.456 L 4325.394 5185.056 L 4326.594 5183.856 L 4327.794 5182.657 L 4331.393 5182.657 L 4332.593 5185.056 L 4336.193 5186.256 L 4338.593 5187.456 L 4340.993 5186.256 L 4343.393 5183.856 L 4348.193 5185.056 L 4350.593 5186.256 L 4351.793 5187.456 L 4352.993 5189.856 L 4354.193 5191.056 L 4356.593 5192.256 L 4358.993 5189.856 L 4360.193 5189.856 L 4363.793 5192.256 L 4366.193 5191.056 L 4369.792 5192.256 L 4370.992 5189.856 L 4372.192 5189.856 L 4372.192 5186.256 L 4373.392 5185.056 L 4375.792 5185.056 L 4378.192 5183.856 L 4381.792 5186.256 L 4381.792 5187.456 L 4384.192 5189.856 L 4385.392 5192.256 L 4391.392 5192.256 L 4392.592 5189.856 L 4394.992 5189.856 L 4397.392 5188.656 L 4402.192 5191.056 L 4403.391 5192.256 L 4403.391 5193.456 L 4404.591 5193.456 L 4406.991 5192.256 L 4409.391 5193.456 L 4412.991 5193.456 L 4416.591 5192.256 L 4418.991 5189.856 L 4422.591 5191.056 L 4426.191 5191.056 L 4428.591 5187.456 L 4430.991 5187.456 L 4433.391 5188.656 L 4436.991 5185.056 L 4436.991 5183.856 L 4440.59 5185.056 L 4442.99 5185.056 L 4444.19 5188.656 L 4446.59 5188.656 L 4447.79 5187.456 L 4446.59 5185.056 L 4446.59 5183.856 L 4447.79 5182.657 L 4451.39 5185.056 L 4451.39 5186.256 L 4452.59 5188.656 L 4451.39 5192.256 L 4450.19 5193.456 L 4450.19 5194.656 L 4453.79 5198.256 L 4457.39 5198.256 L 4459.79 5199.456 L 4463.39 5201.856 L 4463.39 5203.056 L 4462.19 5203.056 L 4462.19 5204.256 L 4460.99 5206.656 L 4460.99 5211.456 L 4463.39 5211.456 L 4465.79 5213.856 L 4466.99 5212.656 L 4468.19 5213.856 L 4469.39 5215.056 L 4471.79 5215.056 L 4475.389 5213.856 L 4476.589 5215.056 L 4477.789 5216.256 L 4478.989 5216.256 L 4478.989 5217.456 L 4480.189 5218.656 L 4481.389 5218.656 L 4482.589 5219.855 L 4484.989 5219.855 L 4487.389 5221.055 L 4489.789 5219.855 L 4492.189 5219.855 L 4493.389 5221.055 L 4494.589 5222.255 L 4492.189 5225.855 L 4493.389 5227.055 L 4495.789 5228.255 L 4496.989 5230.655 L 4498.189 5229.455 L 4498.189 5230.655 L 4499.389 5231.855 L 4502.989 5231.855 L 4501.789 5233.055 L 4502.989 5234.255 L 4506.589 5240.255 L 4506.589 5243.855 L 4507.789 5245.055 L 4508.989 5245.055 L 4507.789 5247.455 L 4508.989 5248.655 L 4511.388 5253.455 L 4511.388 5257.054 L 4512.588 5259.454 L 4512.588 5261.854 L 4511.388 5264.254 L 4510.189 5263.054 L 4510.189 5266.654 L 4513.788 5266.654 L 4517.388 5269.054 L 4517.388 5270.254 L 4518.588 5271.454 L 4517.388 5272.654 L 4516.188 5271.454 L 4512.588 5272.654 L 4512.588 5273.854 L 4516.188 5273.854 L 4516.188 5276.254 L 4517.388 5276.254 L 4518.588 5277.454 L 4519.788 5277.454 L 4519.788 5279.854 L 4522.188 5279.854 L 4520.988 5281.054 L 4522.188 5282.254 L 4520.988 5282.254 L 4519.788 5281.054 L 4518.588 5281.054 L 4517.388 5282.254 L 4516.188 5283.454 L 4516.188 5289.454 L 4513.788 5288.254 L 4513.788 5290.654 L 4512.588 5291.853 L 4513.788 5294.253 L 4512.588 5294.253 L 4511.388 5295.453 L 4512.588 5296.653 L 4516.188 5299.053 L 4514.988 5300.253 L 4516.188 5302.653 L 4514.988 5305.053 L 4516.188 5306.253 L 4516.188 5307.453 L 4513.788 5309.853 L 4512.588 5312.253 L 4513.788 5313.453 L 4513.788 5315.853 L 4514.988 5315.853 L 4514.988 5317.053 L 4513.788 5318.253 L 4516.188 5319.453 L 4516.188 5320.653 L 4518.588 5321.853 L 4518.588 5323.053 L 4519.788 5323.053 L 4519.788 5325.453 L 4520.988 5325.453 L 4522.188 5326.653 L 4523.388 5326.653 L 4523.388 5327.852 L 4524.588 5327.852 L 4524.588 5329.052 L 4525.788 5330.252 L 4524.588 5332.652 L 4524.588 5333.852 L 4525.788 5336.252 L 4524.588 5336.252 L 4522.188 5335.052 L 4522.188 5338.652 L 4520.988 5339.852 L 4523.388 5341.052 L 4522.188 5342.252 L 4522.188 5343.452 L 4523.388 5345.852 L 4523.388 5350.652 L 4520.988 5351.852 L 4518.588 5353.052 L 4517.388 5353.052 L 4517.388 5354.252 L 4518.588 5355.452 L 4516.188 5354.252 L 4514.988 5354.252 L 4517.388 5355.452 L 4516.188 5356.652 L 4514.988 5356.652 L 4516.188 5357.852 L 4516.188 5360.252 L 4517.388 5361.452 L 4518.588 5363.851 L 4520.988 5361.452 L 4520.988 5365.051 L 4522.188 5366.251 L 4523.388 5367.451 L 4524.588 5368.651 L 4524.588 5369.851 L 4525.788 5369.851 L 4528.188 5371.051 L 4528.188 5369.851 L 4530.588 5368.651 L 4530.588 5369.851 L 4531.788 5369.851 L 4531.788 5371.051 L 4532.988 5372.251 L 4529.388 5372.251 L 4530.588 5374.651 L 4531.788 5373.451 L 4532.988 5374.651 L 4532.988 5375.851 L 4534.188 5375.851 L 4534.188 5377.051 L 4531.788 5377.051 L 4531.788 5378.251 L 4532.988 5378.251 L 4535.388 5379.451 L 4535.388 5380.651 L 4534.188 5381.851 L 4534.188 5383.051 L 4535.388 5383.051 L 4536.588 5384.251 L 4536.588 5385.451 L 4537.788 5385.451 L 4536.588 5386.651 L 4535.388 5386.651 L 4536.588 5386.651 L 4535.388 5387.851 L 4538.988 5387.851 L 4538.988 5389.051 L 4540.188 5389.051 L 4540.188 5391.451 L 4541.388 5392.651 L 4542.588 5393.851 L 4544.988 5395.051 L 4544.988 5396.251 L 4546.188 5396.251 L 4544.988 5397.451 L 4546.188 5398.651 L 4546.188 5399.851 L 4547.387 5399.851 L 4550.987 5401.05 L 4549.787 5402.25 L 4550.987 5402.25 L 4549.787 5403.45 L 4553.387 5404.65 L 4553.387 5405.85 L 4554.587 5404.65 L 4555.787 5405.85 L 4556.987 5404.65 L 4558.187 5405.85 L 4558.187 5407.05 L 4561.787 5409.45 L 4562.987 5409.45 L 4562.987 5410.65 L 4564.187 5411.85 L 4561.787 5413.05 L 4561.787 5421.45 L 4559.387 5422.65 L 4560.587 5423.85 L 4565.387 5427.45 L 4565.387 5428.65 L 4567.787 5428.65 L 4568.987 5429.85 L 4567.787 5431.05 L 4568.987 5431.05 L 4570.187 5432.25 L 4568.987 5434.65 L 4570.187 5435.85 L 4571.387 5437.049 L 4571.387 5439.449 L 4572.587 5440.649 L 4573.787 5439.449 L 4574.987 5439.449 L 4577.387 5441.849 L 4578.587 5441.849 L 4578.587 5444.249 L 4582.187 5444.249 L 4583.387 5445.449 L 4585.786 5445.449 L 4586.986 5446.649 L 4583.387 5450.249 L 4582.187 5450.249 L 4579.787 5453.849 L 4577.387 5457.449 L 4577.387 5458.649 L 4578.587 5459.849 L 4579.787 5457.449 L 4580.987 5457.449 L 4580.987 5458.649 L 4579.787 5461.049 L 4577.387 5463.449 L 4578.587 5464.649 L 4577.387 5467.049 L 4578.587 5467.049 L 4578.587 5469.449 L 4577.387 5469.449 L 4576.187 5470.649 L 4574.987 5471.849 L 4574.987 5474.248 L 4571.387 5475.448 L 4570.187 5475.448 L 4571.387 5477.848 L 4571.387 5480.248 L 4572.587 5481.448 L 4571.387 5482.648 L 4570.187 5485.048 L 4568.987 5483.848 L 4567.787 5485.048 L 4566.587 5485.048 L 4566.587 5487.448 L 4567.787 5489.848 L 4567.787 5491.048 L 4566.587 5491.048 L 4568.987 5492.248 L 4567.787 5493.448 L 4566.587 5494.648 L 4566.587 5495.848 L 4567.787 5497.048 L 4566.587 5500.648 L 4567.787 5500.648 L 4567.787 5501.848 L 4568.987 5501.848 L 4568.987 5503.048 L 4567.787 5505.448 L 4568.987 5505.448 L 4568.987 5506.648 L 4570.187 5506.648 L 4573.787 5510.247 L 4577.387 5510.247 L 4579.787 5511.447 L 4585.786 5511.447 L 4585.786 5509.047 L 4588.186 5509.047 L 4588.186 5507.848 L 4589.386 5506.648 L 4598.986 5506.648 L 4600.186 5507.848 L 4602.586 5509.047 L 4603.786 5506.648 L 4604.986 5506.648 L 4604.986 5507.848 L 4607.386 5507.848 L 4607.386 5506.648 L 4608.586 5506.648 L 4609.786 5509.047 L 4610.986 5509.047 L 4612.186 5507.848 L 4613.386 5507.848 L 4614.586 5505.448 L 4615.786 5504.248 L 4615.786 5501.848 L 4616.986 5500.648 L 4615.786 5501.848 L 4614.586 5500.648 L 4615.786 5499.448 L 4616.986 5499.448 L 4619.386 5500.648 L 4621.785 5499.448 L 4622.985 5499.448 L 4622.985 5500.648 L 4621.785 5500.648 L 4620.585 5504.248 L 4622.985 5503.048 L 4624.185 5503.048 L 4624.185 5505.448 L 4626.585 5505.448 L 4626.585 5506.648 L 4628.985 5506.648 L 4630.185 5509.047 L 4632.585 5506.648 L 4636.185 5506.648 L 4637.385 5507.848 L 4638.585 5507.848 L 4638.585 5506.648 L 4639.785 5506.648 L 4645.785 5505.448 L 4648.185 5506.648 L 4649.385 5506.648 L 4646.985 5504.248 L 4648.185 5503.048 L 4650.585 5505.448 L 4652.985 5503.048 L 4654.185 5504.248 L 4655.385 5506.648 L 4657.784 5506.648 L 4660.184 5507.848 L 4661.384 5511.447 L 4663.784 5510.247 L 4664.984 5507.848 L 4666.184 5507.848 L 4666.184 5510.247 L 4667.384 5510.247 L 4669.784 5509.047 L 4674.584 5507.848 L 4675.784 5509.047 L 4676.984 5510.247 L 4676.984 5505.448 L 4679.384 5506.648 L 4680.584 5507.848 L 4679.384 5509.047 L 4680.584 5509.047 L 4679.384 5510.247 L 4680.584 5511.447 L 4679.384 5511.447 L 4681.784 5512.647 L 4682.984 5510.247 L 4685.384 5509.047 L 4685.384 5507.848 L 4687.784 5507.848 L 4690.184 5505.448 L 4691.384 5506.648 L 4692.583 5505.448 L 4693.783 5506.648 L 4694.983 5507.848 L 4696.183 5506.648 L 4697.383 5509.047 L 4698.583 5510.247 L 4698.583 5511.447 L 4699.783 5513.847 L 4702.183 5513.847 L 4702.183 5515.047 L 4703.383 5515.047 L 4703.383 5516.247 L 4704.583 5516.247 L 4705.783 5517.447 L 4705.783 5518.647 L 4709.383 5518.647 L 4709.383 5517.447 L 4710.583 5518.647 L 4710.583 5519.847 L 4709.383 5521.047 L 4709.383 5523.447 L 4708.183 5523.447 L 4708.183 5525.847 L 4705.783 5527.047 L 4704.583 5528.247 L 4700.983 5530.647 L 4700.983 5534.247 L 4699.783 5535.447 L 4698.583 5537.847 L 4699.783 5540.247 L 4698.583 5541.447 L 4702.183 5541.447 L 4702.183 5543.847 L 4700.983 5545.046 L 4699.783 5546.246 L 4700.983 5546.246 L 4699.783 5548.646 L 4699.783 5547.446 L 4698.583 5547.446 L 4698.583 5553.446 L 4699.783 5554.646 L 4698.583 5555.846 L 4699.783 5557.046 L 4698.583 5558.246 L 4698.583 5560.646 L 4697.383 5563.046 L 4694.983 5564.246 L 4694.983 5565.446 L 4693.783 5565.446 L 4693.783 5570.246 L 4694.983 5570.246 L 4694.983 5571.446 L 4696.183 5572.646 L 4696.183 5575.046 L 4698.583 5575.046 L 4698.583 5576.246 L 4699.783 5577.446 L 4699.783 5579.846 L 4700.983 5581.045 L 4702.183 5582.245 L 4704.583 5584.645 L 4705.783 5584.645 L 4706.983 5582.245 L 4708.183 5581.045 L 4710.583 5577.446 L 4711.783 5576.246 L 4714.183 5576.246 L 4714.183 5573.846 L 4715.383 5569.046 L 4722.583 5564.246 L 4724.983 5564.246 L 4726.183 5563.046 L 4729.782 5564.246 L 4732.182 5565.446 L 4732.182 5566.646 L 4733.382 5566.646 L 4736.982 5570.246 L 4736.982 5572.646 L 4739.382 5572.646 L 4739.382 5573.846 L 4740.582 5572.646 L 4741.782 5572.646 L 4741.782 5576.246 L 4740.582 5576.246 L 4740.582 5578.646 L 4742.982 5576.246 L 4744.182 5573.846 L 4746.582 5571.446 L 4746.582 5570.246 L 4747.782 5570.246 L 4748.982 5572.646 L 4750.182 5572.646 L 4750.182 5569.046 L 4751.382 5567.846 L 4751.382 5565.446 L 4753.782 5565.446 L 4753.782 5563.046 L 4754.982 5561.846 L 4756.182 5564.246 L 4757.382 5565.446 L 4758.582 5566.646 L 4758.582 5567.846 L 4759.782 5567.846 L 4758.582 5569.046 L 4758.582 5570.246 L 4760.982 5571.446 L 4762.182 5571.446 L 4762.182 5572.646 L 4760.982 5573.846 L 4762.182 5577.446 L 4760.982 5579.846 L 4762.182 5581.045 L 4762.182 5582.245 L 4764.581 5585.845 L 4764.581 5587.045 L 4766.981 5589.445 L 4766.981 5590.645 L 4769.381 5591.845 L 4771.781 5593.045 L 4770.581 5594.245 L 4769.381 5594.245 L 4769.381 5596.645 L 4768.181 5599.045 L 4764.581 5600.245 L 4765.781 5602.645 L 4768.181 5603.845 L 4770.581 5603.845 L 4771.781 5606.245 L 4772.981 5607.445 L 4778.981 5612.245 L 4781.381 5611.045 L 4783.781 5609.845 L 4784.981 5611.045 L 4786.181 5609.845 L 4788.581 5609.845 L 4788.581 5606.245 L 4790.981 5607.445 L 4792.181 5606.245 L 4794.581 5606.245 L 4793.381 5607.445 L 4794.581 5608.645 L 4783.781 5618.244 L 4781.381 5620.644 L 4781.381 5623.044 L 4782.581 5623.044 L 4781.381 5624.244 L 4775.381 5629.044 L 4771.781 5632.644 L 4766.981 5639.844 L 4763.382 5644.644 L 4762.182 5650.644 L 4760.982 5651.844 L 4758.582 5651.844 L 4753.782 5653.043 L 4748.982 5655.443 L 4744.182 5656.643 L 4750.182 5660.243 L 4747.782 5666.243 L 4746.582 5666.243 L 4746.582 5669.843 L 4745.382 5669.843 L 4744.182 5671.043 L 4742.982 5673.443 L 4735.782 5673.443 L 4732.182 5674.643 L 4726.183 5679.443 L 4721.383 5685.443 L 4715.383 5696.242 L 4705.783 5711.842 L 4704.583 5719.042 L 4704.583 5721.442 L 4703.383 5720.242 L 4702.183 5721.442 L 4699.783 5722.642 L 4699.783 5725.041 L 4698.583 5727.441 L 4699.783 5728.641 L 4697.383 5733.441 L 4694.983 5741.841 L 4693.783 5743.041 L 4694.983 5744.241 L 4693.783 5744.241 L 4692.583 5745.441 L 4691.384 5744.241 L 4691.384 5745.441 L 4688.984 5745.441 L 4688.984 5744.241 L 4687.784 5744.241 L 4687.784 5743.041 L 4686.584 5741.841 L 4685.384 5740.641 L 4681.784 5743.041 L 4681.784 5744.241 L 4679.384 5744.241 L 4679.384 5745.441 L 4626.985 5745.441 L 4629.385 5746.641 L 4626.985 5746.641 L 4626.985 5745.441 L 4625.785 5745.441 L 4624.585 5746.641 L 4623.385 5747.841 L 4623.385 5749.041 L 4622.185 5749.041 L 4620.985 5750.241 L 4619.785 5750.241 L 4619.785 5751.441 L 4616.186 5751.441 L 4614.986 5749.041 L 4613.786 5749.041 L 4612.586 5751.441 L 4611.386 5751.441 L 4610.186 5752.641 L 4607.786 5750.241 L 4607.786 5747.841 L 4606.586 5749.041 L 4604.186 5749.041 L 4604.186 5750.241 L 4602.986 5750.241 L 4601.786 5747.841 L 4600.586 5749.041 L 4598.186 5747.841 L 4596.986 5749.041 L 4598.186 5749.041 L 4596.986 5749.041 L 4595.786 5751.441 L 4595.786 5750.241 L 4594.586 5750.241 L 4594.586 5751.441 L 4593.386 5750.241 L 4592.186 5750.241 L 4590.986 5749.041 L 4589.786 5749.041 L 4588.586 5750.241 L 4586.186 5750.241 L 4586.186 5751.441 L 4583.786 5751.441 L 4582.587 5752.641 L 4580.187 5753.841 L 4577.787 5753.841 L 4578.987 5755.041 L 4577.787 5756.241 L 4575.387 5757.441 L 4575.387 5761.041 L 4572.987 5761.041 L 4574.187 5761.041 L 4572.987 5762.24 L 4572.987 5763.44 L 4571.787 5762.24 L 4571.787 5763.44 L 4570.587 5762.24 L 4569.387 5762.24 L 4568.187 5763.44 L 4568.187 5764.64 L 4569.387 5765.84 L 4568.187 5765.84 L 4569.387 5765.84 L 4569.387 5767.04 L 4566.987 5767.04 L 4568.187 5768.24 L 4566.987 5769.44 L 4566.987 5768.24 L 4564.587 5768.24 L 4560.987 5770.64 L 4559.787 5771.84 L 4558.587 5771.84 L 4558.587 5773.04 L 4557.387 5773.04 L 4557.387 5774.24 L 4556.187 5773.04 L 4557.387 5774.24 L 4556.187 5774.24 L 4556.187 5775.44 L 4554.987 5775.44 L 4554.987 5776.64 L 4551.387 5776.64 L 4551.387 5777.84 L 4550.187 5776.64 L 4550.187 5775.44 L 4548.987 5777.84 L 4546.588 5776.64 L 4546.588 5779.04 L 4546.588 5777.84 L 4545.388 5779.04 L 4544.188 5779.04 L 4542.988 5780.24 L 4542.988 5777.84 L 4539.388 5777.84 L 4538.188 5780.24 L 4535.788 5782.64 L 4534.588 5781.44 L 4534.588 5782.64 L 4533.388 5783.84 L 4534.588 5783.84 L 4533.388 5785.04 L 4532.188 5785.04 L 4533.388 5787.44 L 4533.388 5786.24 L 4533.388 5787.44 L 4532.188 5788.64 L 4530.988 5788.64 L 4530.988 5789.84 L 4529.788 5788.64 L 4528.588 5789.84 L 4527.388 5788.64 L 4527.388 5789.84 L 4526.188 5787.44 L 4524.988 5787.44 L 4524.988 5788.64 L 4526.188 5789.84 L 4522.588 5789.84 L 4523.788 5789.84 L 4522.588 5792.24 L 4520.188 5791.04 L 4517.788 5787.44 L 4517.788 5789.84 L 4516.588 5789.84 L 4516.588 5788.64 L 4514.188 5788.64 L 4514.188 5789.84 L 4512.988 5787.44 L 4511.788 5787.44 L 4511.788 5786.24 L 4511.788 5787.44 L 4510.589 5787.44 L 4508.189 5786.24 L 4509.389 5785.04 L 4509.389 5782.64 L 4508.189 5782.64 L 4508.189 5785.04 L 4505.789 5786.24 L 4505.789 5783.84 L 4504.589 5783.84 L 4504.589 5782.64 L 4503.389 5782.64 L 4503.389 5783.84 L 4502.189 5782.64 L 4500.989 5783.84 L 4499.789 5782.64 L 4498.589 5782.64 L 4500.989 5780.24 L 4498.589 5780.24 L 4497.389 5777.84 L 4494.989 5776.64 L 4492.589 5779.04 L 4491.389 5779.04 L 4490.189 5776.64 L 4492.589 5774.24 L 4487.789 5774.24 L 4487.789 5770.64 L 4485.389 5769.44 L 4484.189 5767.04 L 4482.989 5767.04 L 4482.989 5768.24 L 4484.189 5768.24 L 4484.189 5770.64 L 4482.989 5770.64 L 4481.789 5767.04 L 4480.589 5768.24 L 4480.589 5769.44 L 4478.189 5768.24 L 4476.989 5764.64 L 4475.789 5765.84 L 4474.59 5765.84 L 4473.39 5763.44 L 4473.39 5761.041 L 4472.19 5762.24 L 4470.99 5762.24 L 4473.39 5761.041 L 4473.39 5758.641 L 4472.19 5757.441 L 4472.19 5759.841 L 4470.99 5759.841 L 4469.79 5758.641 L 4468.59 5758.641 L 4467.39 5757.441 L 4466.19 5756.241 L 4467.39 5755.041 L 4462.59 5753.841 L 4461.39 5755.041 L 4460.19 5753.841 L 4458.99 5752.641 L 4455.39 5753.841 L 4454.19 5752.641 L 4455.39 5751.441 L 4454.19 5750.241 L 4451.79 5751.441 L 4450.59 5752.641 L 4452.99 5753.841 L 4448.19 5758.641 L 4449.39 5756.241 L 4449.39 5752.641 L 4448.19 5751.441 L 4444.59 5750.241 L 4444.59 5751.441 L 4442.19 5751.441 L 4442.19 5752.641 L 4443.39 5755.041 L 4442.19 5756.241 L 4438.591 5753.841 L 4436.191 5753.841 L 4433.791 5755.041 L 4431.391 5755.041 L 4430.191 5756.241 L 4430.191 5757.441 L 4430.191 5756.241 L 4428.991 5752.641 L 4427.791 5756.241 L 4424.191 5758.641 L 4422.991 5757.441 L 4421.791 5759.841 L 4419.391 5756.241 L 4416.991 5758.641 L 4416.991 5757.441 L 4418.191 5753.841 L 4416.991 5752.641 L 4414.591 5753.841 L 4413.391 5752.641 L 4412.191 5753.841 L 4410.991 5755.041 L 4412.191 5755.041 L 4413.391 5756.241 L 4414.591 5756.241 L 4414.591 5755.041 L 4415.791 5756.241 L 4414.591 5758.641 L 4413.391 5759.841 L 4412.191 5761.041 L 4410.991 5762.24 L 4409.791 5761.041 L 4409.791 5759.841 L 4407.391 5759.841 L 4406.191 5758.641 L 4404.991 5758.641 L 4403.791 5759.841 L 4402.592 5757.441 L 4402.592 5755.041 L 4398.992 5753.841 L 4398.992 5757.441 L 4396.592 5756.241 L 4394.192 5757.441 L 4390.592 5758.641 L 4386.992 5761.041 L 4386.992 5763.44 L 4384.592 5763.44 L 4385.792 5765.84 L 4385.792 5767.04 L 4384.592 5768.24 L 4385.792 5769.44 L 4385.792 5770.64 L 4384.592 5770.64 L 4384.592 5771.84 L 4386.992 5771.84 L 4386.992 5773.04 L 4385.792 5771.84 L 4384.592 5773.04 L 4383.392 5771.84 L 4380.992 5770.64 L 4379.792 5769.44 L 4379.792 5768.24 L 4378.592 5769.44 L 4378.592 5768.24 L 4379.792 5765.84 L 4378.592 5763.44 L 4372.592 5759.841 L 4372.592 5758.641 L 4371.392 5759.841 L 4366.593 5759.841 L 4365.393 5757.441 L 4364.193 5756.241 L 4365.393 5755.041 L 4362.993 5753.841 L 4362.993 5755.041 L 4362.993 5753.841 L 4360.593 5753.841 L 4360.593 5752.641 L 4359.393 5752.641 L 4359.393 5755.041 L 4358.193 5753.841 L 4359.393 5753.841 L 4356.993 5753.841 L 4355.793 5752.641 L 4354.593 5753.841 L 4353.393 5752.641 L 4350.993 5753.841 L 4346.193 5756.241 L 4346.193 5752.641 L 4344.993 5752.641 L 4343.793 5749.041 L 4342.593 5749.041 L 4338.993 5752.641 L 4338.993 5756.241 L 4340.193 5757.441 L 4341.393 5757.441 L 4343.793 5756.241 L 4346.193 5756.241 L 4346.193 5758.641 L 4344.993 5759.841 L 4343.793 5759.841 L 4340.193 5761.041 L 4337.793 5761.041 L 4332.993 5759.841 L 4330.594 5762.24 L 4329.394 5764.64 L 4326.994 5767.04 L 4329.394 5771.84 L 4328.194 5771.84 L 4326.994 5773.04 L 4324.594 5774.24 L 4323.394 5775.44 L 4322.194 5777.84 L 4319.794 5781.44 L 4318.594 5782.64 L 4313.794 5785.04 L 4317.394 5792.24 L 4316.194 5793.44 L 4311.394 5793.44 L 4311.394 5789.84 L 4310.194 5788.64 L 4302.994 5789.84 L 4301.794 5791.04 L 4300.594 5792.24 L 4298.194 5793.44 L 4296.994 5797.04 L 4295.794 5798.239 L 4294.594 5797.04 L 4290.995 5792.24 L 4289.795 5792.24 L 4288.595 5795.84 L 4287.395 5799.439 L 4286.195 5800.639 L 4282.595 5800.639 L 4282.595 5794.64 L 4278.995 5791.04 L 4277.795 5791.04 L 4276.595 5792.24 L 4278.995 5797.04 L 4277.795 5799.439 L 4276.595 5799.439 L 4275.395 5797.04 L 4271.795 5797.04 L 4271.795 5793.44 L 4268.195 5791.04 L 4266.995 5789.84 L 4257.396 5793.44 L 4256.196 5792.24 L 4252.596 5789.84 L 4251.396 5793.44 L 4250.196 5793.44 L 4250.196 5795.84 L 4248.996 5797.04 L 4247.796 5798.239 L 4245.396 5799.439 L 4242.996 5799.439 L 4242.996 5800.639 L 4241.796 5800.639 L 4240.596 5799.439 L 4238.196 5800.639 L 4238.196 5801.839 L 4236.996 5801.839 L 4234.596 5803.039 L 4229.796 5803.039 L 4228.596 5805.439 L 4227.396 5806.639 L 4223.796 5807.839 L 4223.796 5809.039 L 4222.596 5809.039 L 4221.397 5811.439 L 4222.596 5811.439 L 4222.596 5812.639 L 4220.197 5815.039 L 4221.397 5816.239 L 4222.596 5817.439 L 4218.997 5818.639 L 4217.797 5819.839 L 4217.797 5822.239 L 4215.397 5821.039 L 4215.397 5822.239 L 4216.597 5823.439 L 4214.197 5824.639 L 4214.197 5825.839 L 4215.397 5828.239 L 4218.997 5829.439 L 4217.797 5830.639 L 4217.797 5831.839 L 4220.197 5831.839 L 4222.596 5833.039 L 4221.397 5834.238 L 4222.596 5835.438 L 4220.197 5836.638 L 4220.197 5837.838 L 4218.997 5837.838 L 4218.997 5840.238 L 4220.197 5841.438 L 4221.397 5843.838 L 4222.596 5843.838 L 4223.796 5846.238 L 4224.996 5846.238 L 4224.996 5847.438 L 4227.396 5848.638 L 4226.196 5849.838 L 4226.196 5851.038 L 4228.596 5852.238 L 4227.396 5853.438 L 4227.396 5857.038 L 4224.996 5858.238 L 4226.196 5860.638 L 4224.996 5861.838 L 4224.996 5863.038 L 4221.397 5863.038 L 4220.197 5864.238 L 4217.797 5864.238 L 4217.797 5865.438 L 4216.597 5865.438 L 4216.597 5867.838 L 4212.997 5867.838 L 4211.797 5866.638 L 4209.397 5867.838 L 4209.397 5866.638 L 4208.197 5866.638 L 4204.597 5867.838 L 4202.197 5867.838 L 4199.797 5869.038 L 4197.397 5869.038 L 4194.997 5871.437 L 4197.397 5873.837 L 4197.397 5876.237 L 4196.197 5877.437 L 4193.797 5878.637 L 4194.997 5876.237 L 4190.197 5873.837 L 4188.997 5870.237 L 4186.597 5867.838 L 4186.597 5865.438 L 4185.398 5863.038 L 4184.198 5861.838 L 4180.598 5861.838 L 4181.798 5859.438 L 4180.598 5858.238 L 4179.398 5855.838 L 4176.998 5854.638 L 4173.398 5855.838 L 4155.498 5855.838 L 4153.098 5853.438 L 4149.499 5851.038 L 4144.699 5854.638 L 4142.299 5854.638 L 4137.499 5853.438 L 4127.899 5855.838 L 4125.499 5855.838 L 4121.899 5854.638 L 4118.299 5857.038 L 4115.899 5855.838 L 4113.5 5858.238 L 4112.3 5858.238 L 4111.1 5857.038 L 4111.1 5855.838 L 4107.5 5854.638 L 4102.7 5854.638 L 4099.1 5852.238 L 4097.9 5853.438 L 4095.5 5852.238 L 4093.1 5852.238 L 4093.1 5851.038 L 4088.3 5852.238 L 4087.1 5849.838 L 4087.1 5848.638 L 4084.7 5848.638 L 4084.7 5847.438 L 4082.3 5846.238 L 4081.1 5845.038 L 4079.9 5845.038 L 4078.7 5843.838 L 4076.301 5843.838 L 4075.101 5841.438 L 4073.901 5841.438 L 4072.701 5840.238 L 4072.701 5836.638 L 4070.301 5835.438 L 4067.901 5835.438 L 4066.701 5834.238 L 4061.901 5834.238 L 4057.101 5829.439 L 4054.701 5831.839 L 4051.101 5833.039 L 4047.501 5833.039 L 4046.301 5831.839 L 4043.901 5831.839 L 4041.502 5833.039 L 4040.302 5833.039 L 4040.302 5831.839 L 4036.702 5828.239 L 4033.102 5828.239 L 4030.702 5829.439 L 4029.502 5827.039 L 4028.302 5829.439 L 4025.902 5827.039 L 4023.502 5828.239 L 4022.302 5828.239 L 4021.102 5827.039 L 4019.902 5825.839 L 4018.702 5827.039 L 4016.302 5828.239 L 4007.902 5828.239 L 4005.503 5824.639 L 4003.103 5824.639 L 3998.303 5821.039 L 3994.703 5822.239 L 3992.303 5823.439 L 3991.103 5822.239 L 3989.903 5823.439 L 3987.503 5822.239 L 3985.103 5824.639 L 3983.903 5823.439 L 3981.503 5823.439 L 3981.503 5822.239 L 3980.303 5821.039 L 3977.903 5819.839 L 3977.903 5818.639 L 3976.703 5817.439 L 3974.303 5816.239 L 3970.703 5812.639 L 3967.104 5813.839 L 3965.904 5813.839 L 3964.704 5812.639 L 3963.504 5813.839 L 3962.304 5811.439 L 3959.904 5810.239 L 3958.704 5811.439 L 3957.504 5811.439 L 3956.304 5812.639 L 3955.104 5812.639 L 3952.704 5811.439 L 3950.304 5812.639 L 3949.104 5812.639 L 3947.904 5811.439 L 3940.704 5811.439 L 3935.904 5813.839 L 3929.905 5813.839 L 3928.705 5812.639 L 3926.305 5813.839 L 3925.105 5813.839 L 3922.705 5815.039 L 3915.505 5811.439 L 3908.305 5816.239 L 3904.705 5817.439 L 3899.905 5819.839 L 3897.505 5819.839 L 3896.306 5818.639 L 3895.106 5817.439 L 3893.906 5817.439 L 3891.506 5816.239 L 3890.306 5815.039 L 3889.106 5813.839 L 3887.906 5811.439 L 3886.706 5811.439 L 3885.506 5812.639 L 3884.306 5812.639 L 3883.106 5811.439 L 3880.706 5811.439 L 3878.306 5809.039 L 3877.106 5809.039 L 3877.106 5807.839 L 3872.306 5805.439 L 3869.906 5803.039 L 3868.706 5803.039 L 3868.706 5801.839 L 3867.506 5800.639 L 3867.506 5799.439 L 3865.106 5795.84 L 3863.906 5795.84 L 3863.906 5793.44 L 3859.107 5795.84 L 3857.907 5795.84 L 3856.707 5794.64 L 3854.307 5794.64 L 3854.307 5793.44 L 3851.907 5793.44 L 3851.907 5794.64 L 3850.707 5793.44 L 3849.507 5794.64 L 3847.107 5792.24 L 3845.907 5793.44 L 3838.707 5798.239 L 3837.507 5799.439 L 3835.107 5799.439 L 3831.507 5801.839 L 3829.107 5801.839 L 3825.507 5803.039 L 3820.708 5801.839 L 3815.908 5801.839 L 3815.908 5800.639 L 3812.308 5798.239 L 3811.108 5798.239 L 3809.908 5794.64 L 3806.308 5795.84 L 3802.708 5795.84 L 3800.308 5794.64 L 3799.108 5793.44 L 3800.308 5793.44 L 3799.108 5792.24 L 3797.908 5791.04 L 3800.308 5787.44 L 3797.908 5786.24 L 3797.908 5783.84 L 3796.708 5783.84 L 3794.308 5780.24 L 3793.108 5779.04 L 3789.508 5776.64 L 3788.309 5774.24 L 3787.109 5771.84 L 3785.909 5771.84 L 3782.309 5769.44 L 3782.309 5768.24 L 3783.509 5767.04 L 3782.309 5764.64 L 3783.509 5761.041 L 3784.709 5761.041 L 3784.709 5758.641 L 3783.509 5756.241 L 3781.109 5756.241 L 3781.109 5755.041 L 3779.909 5756.241 L 3779.909 5753.841 L 3778.709 5755.041 L 3777.509 5753.841 L 3777.509 5752.641 L 3775.109 5752.641 L 3776.309 5751.441 L 3775.109 5751.441 L 3776.309 5750.241 L 3773.909 5749.041 L 3773.909 5747.841 L 3772.709 5749.041 L 3771.509 5747.841 L 3771.509 5745.441 L 3770.309 5746.641 L 3769.109 5746.641 L 3769.109 5744.241 L 3765.509 5743.041 L 3765.509 5741.841 L 3766.709 5741.841 L 3765.509 5740.641 L 3764.309 5735.841 L 3766.709 5735.841 L 3766.709 5733.441 L 3767.909 5735.841 L 3769.109 5735.841 L 3767.909 5733.441 L 3769.109 5732.241 L 3767.909 5732.241 L 3765.509 5733.441 L 3766.709 5731.041 L 3767.909 5731.041 L 3769.109 5729.841 L 3765.509 5729.841 L 3765.509 5727.441 L 3764.309 5728.641 L 3763.109 5727.441 L 3765.509 5727.441 L 3765.509 5726.241 L 3766.709 5726.241 L 3767.909 5725.041 L 3765.509 5725.041 L 3766.709 5722.642 L 3764.309 5722.642 L 3765.509 5722.642 L 3765.509 5721.442 L 3764.309 5719.042 L 3763.109 5720.242 L 3763.109 5719.042 L 3764.309 5716.642 L 3765.509 5716.642 L 3765.509 5715.442 L 3766.709 5714.242 L 3769.109 5715.442 L 3769.109 5714.242 L 3766.709 5714.242 L 3767.909 5711.842 L 3767.909 5710.642 L 3764.309 5710.642 L 3766.709 5709.442 L 3766.709 5708.242 L 3764.309 5707.042 L 3761.909 5705.842 L 3763.109 5704.642 L 3765.509 5704.642 L 3764.309 5703.442 L 3766.709 5703.442 L 3763.109 5701.042 L 3760.709 5702.242 L 3761.909 5698.642 L 3761.909 5697.442 L 3759.509 5697.442 L 3760.709 5696.242 L 3758.309 5695.042 L 3760.709 5695.042 L 3759.509 5692.642 L 3761.909 5693.842 L 3761.909 5695.042 L 3763.109 5693.842 L 3763.109 5692.642 L 3764.309 5691.442 L 3761.909 5690.242 L 3761.909 5689.042 L 3760.709 5686.643 L 3758.309 5685.443 L 3755.909 5686.643 L 3757.109 5684.243 L 3758.309 5684.243 L 3758.309 5683.043 L 3757.109 5684.243 L 3755.909 5683.043 L 3757.109 5680.643 L 3755.909 5679.443 L 3752.31 5681.843 L 3752.31 5680.643 L 3751.11 5681.843 L 3751.11 5680.643 L 3752.31 5679.443 L 3751.11 5678.243 L 3748.71 5679.443 L 3747.51 5679.443 L 3747.51 5678.243 L 3746.31 5678.243 L 3746.31 5679.443 L 3745.11 5679.443 L 3746.31 5681.843 L 3745.11 5684.243 L 3743.91 5683.043 L 3743.91 5680.643 L 3742.71 5678.243 L 3740.31 5678.243 L 3740.31 5677.043 L 3741.51 5675.843 L 3737.91 5673.443 L 3736.71 5672.243 L 3735.51 5669.843 L 3733.11 5668.643 L 3731.91 5669.843 L 3729.51 5672.243 L 3728.31 5673.443 L 3725.91 5671.043 L 3724.71 5668.643 L 3722.31 5668.643 L 3721.11 5672.243 L 3721.11 5678.243 L 3719.91 5678.243 L 3719.91 5679.443 L 3717.51 5675.843 L 3715.111 5669.843 L 3715.111 5667.443 L 3719.91 5661.443 L 3719.91 5657.843 L 3718.71 5656.643 L 3717.51 5656.643 L 3711.511 5661.443 L 3707.911 5665.043 L 3706.711 5665.043 L 3703.111 5663.843 L 3700.711 5665.043 L 3699.511 5667.443 L 3700.711 5667.443 L 3705.511 5669.843 L 3705.511 5671.043 L 3706.711 5672.243 L 3701.911 5672.243 L 3697.111 5668.643 L 3695.911 5668.643 L 3694.711 5669.843 L 3694.711 5674.643 L 3692.311 5674.643 L 3689.911 5672.243 L 3687.511 5667.443 L 3685.111 5667.443 L 3679.112 5671.043 L 3675.512 5677.043 L 3674.312 5677.043 L 3670.712 5674.643 L 3668.312 5675.843 L 3668.312 5679.443 L 3667.112 5681.843 L 3661.112 5686.643 L 3662.312 5691.442 L 3661.112 5692.642 L 3659.912 5692.642 L 3657.512 5686.643 L 3653.912 5681.843 L 3651.512 5680.643 L 3647.912 5678.243 L 3644.313 5680.643 L 3643.113 5680.643 L 3641.913 5678.243 L 3643.113 5675.843 L 3640.713 5674.643 L 3638.313 5673.443 L 3637.113 5673.443 L 3632.313 5674.643 L 3632.313 5665.043 L 3631.113 5661.443 L 3631.113 5654.243 L 3627.513 5651.844 L 3627.513 5648.244 L 3632.013 5645.944 Z " fill="#F3AA47" vector-effect="non-scaling-stroke" stroke-width="1" stroke-linejoin="miter" stroke-linecap="butt" stroke-miterlimit="4"/></svg>