<?xml version="1.0" standalone="no"?><!-- Generator: Gravit.io --><svg xmlns="http://www.w3.org/2000/svg" xmlns:xlink="http://www.w3.org/1999/xlink" style="isolation:isolate" viewBox="2874.934 547.685 2266.937 2265.537" width="2266.937" height="2265.537"><path d=" M 2875.434 796.178 L 2877.834 796.178 L 2879.034 797.378 L 2880.234 800.978 L 2881.434 800.978 L 2882.634 804.578 L 2883.834 804.578 L 2886.233 803.378 L 2887.433 804.578 L 2887.433 806.978 L 2888.633 806.978 L 2891.033 804.578 L 2892.233 805.778 L 2893.433 803.378 L 2895.833 803.378 L 2897.033 804.578 L 2898.233 802.178 L 2900.633 799.778 L 2903.033 802.178 L 2907.833 794.978 L 2906.633 793.778 L 2906.633 791.378 L 2907.833 786.578 L 2907.833 785.378 L 2909.033 784.178 L 2913.833 784.178 L 2913.833 786.578 L 2916.233 787.778 L 2918.633 785.378 L 2921.033 786.578 L 2922.232 785.378 L 2924.632 786.578 L 2925.832 787.778 L 2929.432 788.978 L 2929.432 790.178 L 2930.632 790.178 L 2931.832 787.778 L 2931.832 786.578 L 2933.032 786.578 L 2934.232 784.178 L 2934.232 785.378 L 2937.832 785.378 L 2939.032 788.978 L 2939.032 790.178 L 2940.232 788.978 L 2941.432 791.378 L 2941.432 788.978 L 2942.632 787.778 L 2945.032 788.978 L 2946.232 788.978 L 2946.232 784.178 L 2948.632 782.978 L 2949.832 781.778 L 2949.832 774.579 L 2952.232 770.979 L 2951.032 769.779 L 2951.032 770.979 L 2947.432 768.579 L 2948.632 767.379 L 2943.832 764.979 L 2943.832 763.779 L 2945.032 762.579 L 2945.032 761.379 L 2946.232 760.179 L 2945.032 757.779 L 2943.832 756.579 L 2943.832 754.179 L 2946.232 752.979 L 2947.432 754.179 L 2949.832 754.179 L 2952.232 752.979 L 2954.632 755.379 L 2955.832 752.979 L 2965.431 752.979 L 2967.831 750.579 L 2966.631 749.379 L 2965.431 749.379 L 2964.231 746.979 L 2964.231 745.779 L 2965.431 744.579 L 2964.231 743.379 L 2964.231 740.979 L 2969.031 739.78 L 2970.231 738.58 L 2970.231 736.18 L 2972.631 734.98 L 2972.631 733.78 L 2973.831 732.58 L 2975.031 730.18 L 2976.231 728.98 L 2978.631 730.18 L 2977.431 734.98 L 2982.231 734.98 L 2982.231 733.78 L 2985.831 734.98 L 2987.031 733.78 L 2988.231 734.98 L 2988.231 736.18 L 2990.631 737.38 L 2991.831 738.58 L 2996.63 734.98 L 2999.03 734.98 L 2999.03 733.78 L 3001.43 734.98 L 3005.03 736.18 L 3006.23 738.58 L 3006.23 742.179 L 3007.43 744.579 L 3007.43 745.779 L 3011.03 746.979 L 3013.43 746.979 L 3015.83 744.579 L 3018.23 744.579 L 3018.23 745.779 L 3021.83 745.779 L 3021.83 743.379 L 3023.03 742.179 L 3026.63 743.379 L 3029.03 745.779 L 3029.03 744.579 L 3032.629 746.979 L 3032.629 744.579 L 3033.829 743.379 L 3033.829 742.179 L 3036.229 738.58 L 3035.029 737.38 L 3036.229 736.18 L 3035.029 734.98 L 3036.229 734.98 L 3037.429 733.78 L 3036.229 731.38 L 3037.429 728.98 L 3036.229 725.38 L 3037.429 725.38 L 3037.429 722.98 L 3032.629 720.58 L 3033.829 719.38 L 3035.029 719.38 L 3035.029 718.18 L 3037.429 718.18 L 3038.629 719.38 L 3039.829 718.18 L 3041.029 719.38 L 3042.229 720.58 L 3049.429 720.58 L 3050.629 718.18 L 3050.629 716.98 L 3051.829 715.78 L 3055.429 715.78 L 3055.429 714.58 L 3060.229 716.98 L 3060.229 714.58 L 3061.429 712.18 L 3061.429 713.38 L 3065.029 713.38 L 3067.428 712.18 L 3068.628 713.38 L 3069.828 712.18 L 3068.628 709.78 L 3069.828 709.78 L 3069.828 706.18 L 3072.228 707.38 L 3073.428 704.98 L 3074.628 706.18 L 3075.828 706.18 L 3075.828 707.38 L 3078.228 706.18 L 3080.628 707.38 L 3083.028 706.18 L 3084.228 707.38 L 3083.028 707.38 L 3085.428 707.38 L 3084.228 704.98 L 3085.428 704.98 L 3086.628 707.38 L 3086.628 708.58 L 3089.028 709.78 L 3091.428 709.78 L 3091.428 708.58 L 3092.628 710.98 L 3093.828 712.18 L 3095.028 712.18 L 3095.028 713.38 L 3098.628 712.18 L 3098.628 710.98 L 3101.028 710.98 L 3103.427 712.18 L 3104.627 710.98 L 3107.027 709.78 L 3108.227 709.78 L 3108.227 712.18 L 3109.427 712.18 L 3110.627 710.98 L 3113.027 712.18 L 3113.027 710.98 L 3115.427 710.98 L 3115.427 708.58 L 3114.227 707.38 L 3116.627 706.18 L 3117.827 704.98 L 3119.027 706.18 L 3119.027 702.581 L 3120.227 700.181 L 3121.427 700.181 L 3122.627 698.981 L 3121.427 695.381 L 3122.627 694.181 L 3123.827 694.181 L 3125.027 692.981 L 3126.227 692.981 L 3131.027 691.781 L 3131.027 690.581 L 3132.227 688.181 L 3133.427 686.981 L 3132.227 684.581 L 3134.627 682.181 L 3133.427 679.781 L 3134.627 678.581 L 3133.427 677.381 L 3133.427 672.581 L 3134.627 672.581 L 3139.426 671.381 L 3139.426 670.181 L 3141.826 668.981 L 3144.226 670.181 L 3145.426 670.181 L 3147.826 666.582 L 3147.826 665.382 L 3145.426 664.182 L 3147.826 662.982 L 3147.826 661.782 L 3149.026 659.382 L 3150.226 660.582 L 3152.626 659.382 L 3155.026 660.582 L 3156.226 656.982 L 3161.026 659.382 L 3163.426 659.382 L 3162.226 660.582 L 3164.626 662.982 L 3165.826 665.382 L 3167.026 665.382 L 3168.226 666.582 L 3169.426 667.782 L 3169.426 664.182 L 3173.026 662.982 L 3175.425 659.382 L 3177.825 659.382 L 3179.025 658.182 L 3180.225 656.982 L 3183.825 658.182 L 3185.025 655.782 L 3189.825 654.582 L 3189.825 650.982 L 3191.025 650.982 L 3193.425 652.182 L 3194.625 650.982 L 3195.825 652.182 L 3195.825 654.582 L 3197.025 655.782 L 3198.225 656.982 L 3198.225 661.782 L 3199.425 664.182 L 3201.825 664.182 L 3204.225 665.382 L 3205.425 666.582 L 3206.625 668.981 L 3207.825 671.381 L 3209.025 671.381 L 3210.225 672.581 L 3213.824 672.581 L 3215.024 673.781 L 3216.224 671.381 L 3217.424 670.181 L 3219.824 670.181 L 3224.624 668.981 L 3227.024 671.381 L 3227.024 672.581 L 3229.424 673.781 L 3230.624 674.981 L 3235.424 674.981 L 3235.424 676.181 L 3237.824 674.981 L 3239.024 676.181 L 3240.224 676.181 L 3240.224 677.381 L 3241.424 677.381 L 3242.624 678.581 L 3243.824 678.581 L 3246.224 679.781 L 3245.024 679.781 L 3246.224 680.981 L 3246.224 682.181 L 3247.423 683.381 L 3247.423 680.981 L 3249.823 679.781 L 3251.023 678.581 L 3252.223 676.181 L 3253.423 674.981 L 3254.623 673.781 L 3257.023 672.581 L 3257.023 671.381 L 3258.223 671.381 L 3259.423 668.981 L 3263.023 670.181 L 3266.623 671.381 L 3266.623 670.181 L 3267.823 671.381 L 3272.623 671.381 L 3272.623 668.981 L 3273.823 668.981 L 3276.223 666.582 L 3277.423 665.382 L 3279.823 667.782 L 3281.023 667.782 L 3282.223 668.981 L 3284.622 672.581 L 3288.222 672.581 L 3289.422 671.381 L 3291.822 671.381 L 3294.222 670.181 L 3295.422 667.782 L 3299.022 667.782 L 3301.422 664.182 L 3303.822 665.382 L 3307.422 664.182 L 3308.622 665.382 L 3312.222 665.382 L 3312.222 666.582 L 3314.622 668.981 L 3315.822 668.981 L 3317.022 670.181 L 3318.222 670.181 L 3318.222 667.782 L 3321.821 667.782 L 3324.221 666.582 L 3326.621 667.782 L 3327.821 667.782 L 3330.221 670.181 L 3332.621 670.181 L 3333.821 672.581 L 3336.221 672.581 L 3338.621 674.981 L 3341.021 677.381 L 3344.621 678.581 L 3345.821 674.981 L 3349.421 673.781 L 3350.621 674.981 L 3355.421 674.981 L 3356.62 673.781 L 3357.82 676.181 L 3360.22 676.181 L 3362.62 678.581 L 3363.82 679.781 L 3363.82 682.181 L 3366.22 682.181 L 3366.22 683.381 L 3367.42 682.181 L 3369.82 683.381 L 3371.02 682.181 L 3372.22 682.181 L 3372.22 684.581 L 3373.42 684.581 L 3373.42 683.381 L 3380.62 683.381 L 3381.82 684.581 L 3383.02 684.581 L 3387.82 686.981 L 3387.82 685.981 L 3390.22 685.981 L 3391.42 684.781 L 3392.619 683.581 L 3395.019 684.781 L 3398.619 679.981 L 3402.219 677.581 L 3404.619 676.381 L 3404.619 672.781 L 3401.019 670.381 L 3401.019 667.982 L 3399.819 666.782 L 3401.019 665.582 L 3398.619 658.382 L 3398.619 657.182 L 3401.019 657.182 L 3402.219 658.382 L 3403.419 655.982 L 3403.419 652.382 L 3404.619 651.182 L 3404.619 648.782 L 3403.419 647.582 L 3398.619 645.182 L 3399.819 642.782 L 3399.819 641.582 L 3398.619 641.582 L 3396.219 639.182 L 3392.619 640.382 L 3391.42 636.782 L 3392.619 635.582 L 3391.42 635.582 L 3391.42 633.182 L 3390.22 631.983 L 3389.02 631.983 L 3387.82 630.783 L 3389.02 629.583 L 3386.62 625.983 L 3380.62 625.983 L 3379.42 623.583 L 3378.22 622.383 L 3377.02 622.383 L 3377.02 621.183 L 3379.42 619.983 L 3380.62 617.583 L 3380.62 616.383 L 3379.42 616.383 L 3379.42 615.183 L 3378.22 613.983 L 3377.02 613.983 L 3374.62 611.583 L 3373.42 612.783 L 3372.22 610.383 L 3369.82 611.583 L 3367.42 611.583 L 3366.22 610.383 L 3365.02 609.183 L 3362.62 607.983 L 3362.62 606.983 L 3365.02 605.783 L 3365.02 604.583 L 3367.42 602.183 L 3367.42 599.783 L 3368.62 598.583 L 3371.02 597.383 L 3371.02 596.183 L 3369.82 594.984 L 3371.02 592.584 L 3371.02 588.984 L 3372.22 587.784 L 3373.42 587.784 L 3373.42 588.984 L 3374.62 588.984 L 3375.82 591.384 L 3377.02 593.784 L 3378.22 594.984 L 3381.82 596.183 L 3381.82 594.984 L 3383.02 593.784 L 3383.02 591.384 L 3381.82 590.184 L 3380.62 590.184 L 3380.62 587.784 L 3383.02 586.584 L 3383.02 585.384 L 3384.22 582.984 L 3385.42 582.984 L 3386.62 580.584 L 3389.02 579.384 L 3390.22 578.184 L 3390.22 576.984 L 3387.82 576.984 L 3386.62 574.584 L 3385.42 575.784 L 3385.42 573.384 L 3389.02 570.984 L 3389.02 568.584 L 3390.22 567.384 L 3391.42 566.184 L 3389.02 564.984 L 3389.02 562.584 L 3390.22 561.384 L 3391.42 560.184 L 3392.619 560.184 L 3398.619 558.985 L 3401.019 560.184 L 3401.019 561.384 L 3403.419 561.384 L 3404.619 562.584 L 3405.819 563.784 L 3407.019 564.984 L 3408.219 567.384 L 3409.419 567.384 L 3410.619 568.584 L 3413.019 568.584 L 3413.019 570.984 L 3416.619 572.184 L 3425.019 573.384 L 3426.219 572.184 L 3428.618 573.384 L 3429.818 575.784 L 3428.618 576.984 L 3429.818 578.184 L 3432.218 581.784 L 3437.018 582.984 L 3439.418 582.984 L 3440.618 579.384 L 3444.218 580.584 L 3447.818 579.384 L 3450.218 580.584 L 3452.618 580.584 L 3455.018 579.384 L 3456.218 578.184 L 3457.418 578.184 L 3458.618 576.984 L 3459.818 578.184 L 3462.218 576.984 L 3463.418 579.384 L 3467.017 578.184 L 3470.617 578.184 L 3470.617 576.984 L 3475.417 575.784 L 3479.017 576.984 L 3488.617 576.984 L 3495.817 580.584 L 3503.016 574.584 L 3500.616 569.784 L 3507.816 562.584 L 3515.016 562.584 L 3522.116 564.984 L 3526.916 561.384 L 3532.916 554.185 L 3542.515 552.985 L 3546.115 560.184 L 3553.215 555.385 L 3562.815 548.185 L 3572.414 550.585 L 3574.814 561.384 L 3578.414 564.984 L 3586.814 576.984 L 3585.614 578.184 L 3585.614 580.584 L 3586.814 581.784 L 3588.014 582.984 L 3597.614 593.784 L 3598.814 596.183 L 3600.014 599.783 L 3598.814 599.783 L 3597.614 602.183 L 3598.814 603.383 L 3597.614 604.583 L 3597.614 608.183 L 3598.814 611.783 L 3602.414 615.383 L 3603.614 616.583 L 3604.814 618.983 L 3606.014 618.983 L 3606.014 621.383 L 3604.814 622.583 L 3604.814 623.783 L 3602.414 624.983 L 3602.414 626.183 L 3601.214 627.383 L 3598.814 628.583 L 3598.814 630.983 L 3597.614 630.983 L 3598.814 632.182 L 3597.614 634.582 L 3598.814 636.982 L 3596.414 638.182 L 3597.614 642.982 L 3596.414 642.982 L 3596.414 645.382 L 3597.614 646.582 L 3597.614 648.982 L 3598.814 651.382 L 3600.014 653.782 L 3601.214 654.982 L 3602.414 656.182 L 3604.814 657.382 L 3603.614 659.782 L 3606.014 659.782 L 3607.214 660.982 L 3607.214 663.382 L 3606.014 663.382 L 3606.014 664.582 L 3604.814 666.982 L 3603.614 666.982 L 3604.814 672.981 L 3606.014 674.181 L 3606.014 676.581 L 3607.214 678.981 L 3607.214 683.781 L 3608.413 684.981 L 3609.613 686.181 L 3609.613 687.381 L 3610.813 687.381 L 3607.214 689.781 L 3608.413 692.181 L 3607.214 693.381 L 3607.214 694.581 L 3608.413 695.781 L 3608.413 696.981 L 3613.213 698.181 L 3616.813 698.181 L 3616.813 696.981 L 3618.013 698.181 L 3620.413 698.181 L 3621.613 699.381 L 3625.213 698.181 L 3626.413 698.181 L 3630.013 695.781 L 3632.413 696.981 L 3633.613 695.781 L 3637.213 696.981 L 3639.613 695.781 L 3639.613 696.981 L 3645.612 698.181 L 3646.812 699.381 L 3648.012 700.581 L 3650.412 701.781 L 3651.612 701.781 L 3652.812 702.981 L 3655.212 701.781 L 3655.212 700.581 L 3657.612 701.781 L 3657.612 700.581 L 3658.812 700.581 L 3663.612 701.781 L 3666.012 700.581 L 3669.612 700.581 L 3672.012 702.981 L 3673.212 699.381 L 3678.012 701.781 L 3678.012 702.981 L 3679.212 702.981 L 3679.212 704.181 L 3681.611 704.181 L 3682.811 702.981 L 3682.811 704.181 L 3686.411 704.181 L 3685.211 705.38 L 3686.411 705.38 L 3687.611 706.58 L 3688.811 706.58 L 3688.811 707.78 L 3691.211 706.58 L 3690.011 707.78 L 3688.811 708.98 L 3691.211 710.18 L 3692.411 708.98 L 3693.611 710.18 L 3692.411 710.18 L 3693.611 711.38 L 3692.411 712.58 L 3693.611 713.78 L 3693.611 714.98 L 3696.011 713.78 L 3697.211 714.98 L 3699.611 714.98 L 3699.611 717.38 L 3702.011 718.58 L 3704.411 719.78 L 3705.611 723.38 L 3706.811 724.58 L 3706.811 720.98 L 3708.011 718.58 L 3709.211 718.58 L 3709.211 720.98 L 3712.811 720.98 L 3714.011 722.18 L 3714.011 720.98 L 3715.211 722.18 L 3715.211 724.58 L 3717.61 724.58 L 3716.411 725.78 L 3718.81 728.18 L 3718.81 729.38 L 3717.61 729.38 L 3717.61 730.58 L 3718.81 730.58 L 3720.01 732.98 L 3721.21 731.78 L 3722.41 730.58 L 3722.41 731.78 L 3721.21 734.18 L 3720.01 736.58 L 3720.01 737.78 L 3723.61 737.78 L 3726.01 742.579 L 3724.81 744.979 L 3726.01 746.179 L 3724.81 748.579 L 3724.81 749.779 L 3727.21 749.779 L 3726.01 748.579 L 3728.41 747.379 L 3729.61 748.579 L 3730.81 748.579 L 3733.21 746.179 L 3735.61 747.379 L 3736.81 746.179 L 3735.61 744.979 L 3736.81 744.979 L 3739.21 743.779 L 3740.41 746.179 L 3740.41 752.179 L 3742.81 750.979 L 3745.21 752.179 L 3746.41 749.779 L 3748.81 750.979 L 3748.81 753.379 L 3750.01 752.179 L 3752.41 753.379 L 3753.609 753.379 L 3752.41 755.779 L 3752.41 756.979 L 3751.21 758.179 L 3751.21 759.379 L 3752.41 759.379 L 3754.809 758.179 L 3754.809 755.779 L 3758.409 755.779 L 3759.609 758.179 L 3762.009 758.179 L 3762.009 759.379 L 3760.809 764.179 L 3760.809 765.379 L 3762.009 764.179 L 3765.609 765.379 L 3768.009 764.179 L 3768.009 765.379 L 3766.809 766.579 L 3766.809 767.779 L 3770.409 766.579 L 3771.609 767.779 L 3774.009 767.779 L 3775.209 766.579 L 3774.009 765.379 L 3771.609 762.979 L 3772.809 761.779 L 3775.209 761.779 L 3777.609 762.979 L 3778.809 765.379 L 3780.009 766.579 L 3781.209 766.579 L 3782.409 764.179 L 3783.609 766.579 L 3788.409 767.779 L 3788.409 766.579 L 3790.808 764.179 L 3790.808 762.979 L 3789.608 760.579 L 3790.808 759.379 L 3794.408 761.779 L 3794.408 762.979 L 3790.808 766.579 L 3792.008 768.979 L 3793.208 770.179 L 3795.608 767.779 L 3796.808 768.979 L 3796.808 770.179 L 3799.208 770.179 L 3800.408 765.379 L 3802.808 764.179 L 3804.008 766.579 L 3802.808 768.979 L 3804.008 772.579 L 3802.808 773.779 L 3800.408 774.979 L 3801.608 777.378 L 3804.008 777.378 L 3805.208 774.979 L 3812.408 773.779 L 3816.008 777.378 L 3817.208 776.179 L 3817.208 774.979 L 3820.808 774.979 L 3822.008 776.179 L 3823.208 779.778 L 3820.808 780.978 L 3818.408 782.178 L 3818.408 786.978 L 3819.608 786.978 L 3823.208 788.178 L 3824.408 790.578 L 3823.208 794.178 L 3820.808 796.578 L 3820.808 797.778 L 3822.008 800.178 L 3824.408 800.178 L 3834.007 795.378 L 3840.007 796.578 L 3840.007 794.978 L 3841.207 793.778 L 3842.407 793.778 L 3842.407 797.378 L 3843.607 800.978 L 3846.007 803.378 L 3847.207 805.778 L 3846.007 809.378 L 3846.007 810.578 L 3844.807 811.778 L 3842.407 811.778 L 3840.007 810.578 L 3838.807 810.578 L 3836.407 812.977 L 3836.407 823.777 L 3837.607 824.977 L 3840.007 827.377 L 3840.007 829.777 L 3841.207 829.777 L 3842.407 832.177 L 3842.407 833.377 L 3841.207 834.577 L 3841.207 835.777 L 3842.407 839.377 L 3843.607 840.577 L 3844.807 841.777 L 3844.807 846.577 L 3843.607 847.777 L 3844.807 851.376 L 3853.207 857.376 L 3854.407 858.576 L 3864.006 863.376 L 3866.406 865.776 L 3868.806 870.576 L 3872.406 872.976 L 3879.606 877.776 L 3880.806 878.976 L 3882.006 878.976 L 3883.206 880.176 L 3884.406 883.776 L 3889.206 887.375 L 3890.406 889.775 L 3891.606 893.375 L 3892.806 894.575 L 3895.206 893.375 L 3898.805 895.775 L 3898.805 896.975 L 3897.605 898.175 L 3896.406 905.375 L 3891.606 911.375 L 3890.406 914.975 L 3890.406 917.375 L 3891.606 919.775 L 3891.606 922.174 L 3890.406 923.374 L 3888.006 925.774 L 3889.206 926.974 L 3886.806 930.574 L 3889.206 931.774 L 3890.406 932.974 L 3888.006 938.974 L 3889.206 943.774 L 3889.206 947.374 L 3886.806 950.974 L 3888.006 954.574 L 3891.606 956.974 L 3892.806 960.573 L 3894.006 965.373 L 3897.605 967.773 L 3901.205 973.773 L 3900.005 974.973 L 3898.805 978.573 L 3900.005 984.573 L 3902.405 985.773 L 3904.805 989.373 L 3908.405 991.773 L 3909.605 994.172 L 3910.805 995.372 L 3910.805 998.972 L 3912.005 1001.372 L 3915.605 1002.572 L 3914.405 1009.772 L 3916.805 1012.172 L 3920.405 1014.572 L 3921.605 1015.772 L 3921.605 1021.772 L 3922.805 1027.772 L 3924.005 1032.571 L 3928.805 1045.671 L 3930.005 1046.871 L 3934.804 1048.071 L 3939.604 1046.871 L 3943.204 1048.071 L 3944.404 1049.271 L 3945.604 1051.671 L 3946.804 1054.071 L 3959.904 1063.671 L 3961.104 1068.47 L 3963.504 1070.87 L 3967.104 1073.27 L 3969.503 1073.27 L 3971.903 1075.67 L 3973.103 1078.07 L 3973.103 1082.87 L 3970.703 1087.67 L 3970.703 1091.27 L 3973.103 1096.07 L 3974.303 1097.27 L 3969.503 1104.469 L 3971.903 1106.869 L 3970.703 1110.469 L 3973.103 1114.069 L 3975.503 1116.469 L 3975.503 1120.069 L 3980.303 1127.269 L 3982.703 1128.469 L 3985.103 1128.469 L 3988.703 1126.069 L 3993.503 1124.869 L 3999.503 1124.869 L 4001.903 1127.269 L 4003.103 1133.269 L 4003.103 1141.668 L 4004.303 1144.068 L 4005.503 1146.468 L 4005.503 1156.068 L 4001.903 1162.068 L 4001.903 1166.868 L 4004.303 1168.068 L 3999.503 1174.067 L 3998.303 1176.467 L 4003.103 1176.467 L 4006.702 1175.267 L 4010.302 1174.067 L 4011.502 1174.067 L 4013.902 1171.668 L 4015.102 1172.868 L 4017.502 1175.267 L 4019.902 1176.467 L 4022.302 1180.067 L 4023.502 1182.467 L 4022.302 1187.267 L 4018.702 1187.267 L 4017.502 1188.467 L 4016.302 1189.667 L 4016.302 1193.267 L 4019.902 1196.867 L 4019.902 1202.867 L 4021.102 1204.067 L 4019.902 1207.667 L 4017.502 1210.066 L 4018.702 1211.266 L 4019.902 1212.466 L 4023.502 1210.066 L 4025.902 1212.466 L 4030.702 1213.666 L 4031.902 1214.866 L 4035.502 1223.266 L 4040.302 1223.266 L 4045.101 1225.666 L 4052.301 1225.666 L 4054.701 1226.866 L 4065.501 1226.866 L 4067.901 1229.266 L 4072.701 1229.266 L 4072.701 1230.466 L 4075.101 1236.466 L 4073.901 1240.066 L 4073.901 1242.466 L 4075.101 1243.666 L 4076.301 1243.666 L 4081.1 1246.066 L 4084.7 1244.866 L 4085.9 1242.466 L 4085.9 1241.266 L 4083.5 1238.866 L 4082.3 1237.666 L 4082.3 1236.466 L 4084.7 1235.266 L 4087.1 1234.066 L 4091.9 1232.866 L 4095.5 1234.066 L 4095.5 1232.866 L 4096.7 1231.666 L 4095.5 1225.666 L 4096.7 1224.466 L 4097.9 1224.466 L 4100.3 1225.666 L 4100.3 1232.866 L 4101.5 1232.866 L 4102.7 1234.066 L 4102.7 1232.866 L 4105.1 1228.066 L 4107.5 1226.866 L 4112.3 1231.666 L 4113.5 1232.866 L 4127.899 1231.666 L 4132.699 1228.066 L 4145.799 1214.866 L 4148.199 1211.266 L 4149.399 1208.867 L 4149.399 1205.267 L 4148.199 1201.667 L 4146.999 1188.567 L 4148.199 1188.567 L 4148.199 1182.567 L 4149.399 1170.568 L 4149.399 1164.568 L 4150.598 1163.368 L 4151.798 1160.968 L 4152.998 1159.768 L 4164.998 1139.368 L 4169.798 1134.569 L 4176.998 1126.169 L 4179.398 1123.769 L 4184.198 1120.169 L 4190.197 1114.169 L 4193.797 1106.969 L 4196.197 1098.57 L 4198.597 1096.17 L 4206.997 1087.77 L 4208.197 1078.17 L 4208.197 1076.97 L 4209.397 1074.57 L 4211.797 1070.97 L 4212.997 1069.77 L 4216.597 1066.17 L 4218.997 1062.571 L 4223.796 1056.571 L 4226.196 1051.771 L 4232.196 1042.171 L 4239.396 1039.771 L 4250.196 1038.571 L 4253.796 1036.171 L 4254.996 1036.171 L 4258.595 1033.771 L 4262.195 1030.171 L 4264.595 1026.572 L 4265.795 1025.372 L 4269.395 1020.572 L 4270.595 1020.572 L 4270.595 1019.372 L 4274.195 1014.572 L 4275.395 1013.372 L 4282.595 1007.372 L 4284.995 1006.172 L 4287.395 1006.172 L 4302.994 1001.372 L 4308.994 1000.172 L 4316.194 996.572 L 4329.394 986.973 L 4332.993 982.173 L 4336.593 978.573 L 4341.393 974.973 L 4344.993 971.373 L 4348.593 964.173 L 4352.193 956.974 L 4354.593 952.174 L 4358.193 941.374 L 4361.793 936.574 L 4362.993 932.974 L 4364.193 923.374 L 4367.792 916.175 L 4370.192 911.375 L 4374.992 906.575 L 4376.192 906.575 L 4377.392 905.375 L 4385.792 899.375 L 4391.792 896.975 L 4403.791 894.575 L 4406.191 893.375 L 4412.191 892.175 L 4430.091 892.175 L 4431.291 902.975 L 4437.291 907.775 L 4439.69 916.175 L 4440.89 928.174 L 4439.69 931.774 L 4438.491 947.374 L 4438.491 952.174 L 4436.091 959.373 L 4444.49 959.373 L 4450.49 961.773 L 4452.89 961.773 L 4454.09 960.573 L 4456.49 961.773 L 4458.89 962.973 L 4458.89 961.773 L 4462.49 962.973 L 4463.69 964.173 L 4474.49 959.373 L 4475.689 958.173 L 4478.089 960.573 L 4480.489 959.373 L 4485.289 959.373 L 4488.889 956.974 L 4491.289 959.373 L 4493.689 961.773 L 4493.689 960.573 L 4492.489 958.173 L 4492.489 956.974 L 4493.689 955.774 L 4493.689 956.974 L 4494.889 956.974 L 4496.089 955.774 L 4497.289 955.774 L 4498.489 954.574 L 4504.489 953.374 L 4505.689 955.774 L 4506.889 955.774 L 4505.689 958.173 L 4506.889 958.173 L 4508.089 956.974 L 4509.289 958.173 L 4510.489 958.173 L 4511.688 959.373 L 4511.688 960.573 L 4515.288 962.973 L 4517.688 971.373 L 4520.088 974.973 L 4524.888 983.373 L 4532.088 994.172 L 4540.488 1006.172 L 4541.688 1007.372 L 4542.888 1008.572 L 4544.088 1007.372 L 4546.488 1008.572 L 4547.687 1009.772 L 4550.087 1009.772 L 4550.087 1010.972 L 4554.887 1012.172 L 4554.887 1013.372 L 4556.087 1014.572 L 4556.087 1015.772 L 4554.887 1016.972 L 4553.687 1016.972 L 4553.687 1018.172 L 4557.287 1018.172 L 4558.487 1020.572 L 4621.985 1049.271 L 4624.385 1054.071 L 4631.585 1057.671 L 4636.385 1061.271 L 4638.785 1062.471 L 4642.385 1062.471 L 4642.385 1061.271 L 4645.985 1060.071 L 4650.785 1060.071 L 4653.185 1061.271 L 4654.385 1060.071 L 4656.784 1061.271 L 4657.984 1060.071 L 4660.384 1060.071 L 4661.584 1061.271 L 4663.984 1063.671 L 4665.184 1063.671 L 4668.784 1066.07 L 4673.584 1066.07 L 4675.984 1067.27 L 4678.384 1067.27 L 4680.784 1066.07 L 4681.984 1064.871 L 4687.984 1062.471 L 4693.983 1062.471 L 4695.183 1063.671 L 4696.383 1062.471 L 4699.983 1063.671 L 4701.183 1064.871 L 4702.383 1063.671 L 4708.383 1063.671 L 4710.783 1064.871 L 4716.783 1062.471 L 4722.783 1064.871 L 4725.183 1067.27 L 4727.583 1067.27 L 4728.782 1068.47 L 4729.982 1069.67 L 4731.182 1070.87 L 4732.382 1075.67 L 4731.182 1086.47 L 4731.182 1087.67 L 4723.983 1093.67 L 4721.583 1097.27 L 4720.383 1106.869 L 4716.783 1111.669 L 4758.682 1126.069 L 4800.58 1141.668 L 4800.58 1148.768 L 4802.98 1148.768 L 4802.98 1146.368 L 4804.18 1146.368 L 4804.18 1145.168 L 4805.38 1142.768 L 4806.58 1141.568 L 4806.58 1136.769 L 4808.98 1134.369 L 4811.38 1135.569 L 4813.78 1133.169 L 4814.98 1134.369 L 4816.18 1131.969 L 4816.18 1129.569 L 4817.38 1129.569 L 4817.38 1128.369 L 4816.18 1127.169 L 4817.38 1125.969 L 4818.58 1124.769 L 4818.58 1123.569 L 4817.38 1124.769 L 4817.38 1122.369 L 4818.58 1121.169 L 4824.58 1121.169 L 4825.78 1124.769 L 4825.78 1127.169 L 4828.18 1127.169 L 4826.98 1128.369 L 4828.18 1129.569 L 4826.98 1129.569 L 4828.18 1133.169 L 4826.98 1135.569 L 4825.78 1139.168 L 4824.58 1140.368 L 4824.58 1141.568 L 4823.38 1143.968 L 4824.58 1143.968 L 4825.78 1142.768 L 4826.98 1141.568 L 4828.18 1143.968 L 4829.38 1143.968 L 4831.78 1141.568 L 4831.78 1136.769 L 4832.98 1135.569 L 4831.78 1131.969 L 4831.78 1129.569 L 4834.18 1128.369 L 4832.98 1127.169 L 4834.18 1124.769 L 4832.98 1122.369 L 4835.38 1119.969 L 4837.779 1121.169 L 4837.779 1123.569 L 4835.38 1125.969 L 4835.38 1127.169 L 4836.579 1127.169 L 4840.179 1125.969 L 4841.379 1127.169 L 4840.179 1128.369 L 4842.579 1133.169 L 4841.379 1136.769 L 4842.579 1135.569 L 4843.779 1133.169 L 4843.779 1130.769 L 4844.979 1129.569 L 4844.979 1128.369 L 4843.779 1125.969 L 4842.579 1124.769 L 4842.579 1122.369 L 4846.179 1123.569 L 4847.379 1121.169 L 4847.379 1119.969 L 4849.779 1118.769 L 4849.779 1117.569 L 4852.179 1117.569 L 4854.579 1118.769 L 4853.379 1119.969 L 4855.779 1124.769 L 4854.579 1125.969 L 4853.379 1128.369 L 4855.779 1129.569 L 4855.779 1128.369 L 4856.979 1128.369 L 4860.579 1125.969 L 4862.979 1127.169 L 4864.179 1130.769 L 4865.379 1133.169 L 4866.579 1134.369 L 4866.579 1135.569 L 4865.379 1136.769 L 4865.379 1137.968 L 4864.179 1139.168 L 4865.379 1140.368 L 4865.379 1141.568 L 4864.179 1146.368 L 4865.379 1146.368 L 4866.579 1147.568 L 4867.779 1146.368 L 4868.979 1147.568 L 4874.978 1136.769 L 4873.778 1133.169 L 4874.978 1130.769 L 4873.778 1128.369 L 4874.978 1127.169 L 4874.978 1125.969 L 4878.578 1127.169 L 4878.578 1129.569 L 4880.978 1130.769 L 4883.378 1134.369 L 4882.178 1136.769 L 4882.178 1137.968 L 4883.378 1139.168 L 4884.578 1139.168 L 4883.378 1141.568 L 4884.578 1142.768 L 4885.778 1143.968 L 4885.778 1145.168 L 4886.978 1146.368 L 4888.178 1147.568 L 4891.778 1154.768 L 4891.778 1155.968 L 4890.578 1159.568 L 4892.978 1158.368 L 4894.178 1159.568 L 4894.178 1148.768 L 4892.978 1140.368 L 4894.178 1135.569 L 4891.778 1134.369 L 4891.778 1133.169 L 4894.178 1129.569 L 4892.978 1129.569 L 4898.978 1127.169 L 4902.578 1128.369 L 4903.778 1129.569 L 4902.578 1134.369 L 4902.578 1135.569 L 4901.378 1136.769 L 4901.378 1139.168 L 4902.578 1136.769 L 4903.778 1139.168 L 4903.778 1137.968 L 4904.978 1140.368 L 4906.178 1140.368 L 4908.578 1137.968 L 4908.578 1135.569 L 4912.177 1135.569 L 4912.177 1134.369 L 4909.777 1133.169 L 4909.777 1130.769 L 4915.777 1130.769 L 4919.377 1129.569 L 4920.577 1128.369 L 4924.177 1129.569 L 4927.777 1130.769 L 4926.577 1131.969 L 4926.577 1133.169 L 4925.377 1130.769 L 4925.377 1131.969 L 4926.577 1134.369 L 4925.377 1134.369 L 4925.377 1137.968 L 4927.777 1136.769 L 4928.977 1139.168 L 4930.177 1137.968 L 4931.377 1139.168 L 4932.577 1137.968 L 4930.177 1135.569 L 4931.377 1134.369 L 4932.577 1135.569 L 4932.577 1134.369 L 4934.977 1134.369 L 4939.777 1136.769 L 4942.177 1141.568 L 4939.777 1143.968 L 4939.777 1145.168 L 4938.577 1145.168 L 4936.177 1143.968 L 4934.977 1145.168 L 4933.777 1148.768 L 4937.377 1147.568 L 4936.177 1148.768 L 4937.377 1148.768 L 4938.577 1147.568 L 4938.577 1146.368 L 4940.977 1146.368 L 4942.177 1147.568 L 4943.377 1146.368 L 4942.177 1146.368 L 4942.177 1145.168 L 4944.577 1142.768 L 4944.577 1141.568 L 4945.776 1141.568 L 4944.577 1142.768 L 4946.976 1141.568 L 4948.176 1141.568 L 4949.376 1142.768 L 4948.176 1142.768 L 4949.376 1142.768 L 4948.176 1145.168 L 4946.976 1146.368 L 4948.176 1153.568 L 4946.976 1153.568 L 4945.776 1155.968 L 4946.976 1160.768 L 4946.976 1161.968 L 4948.176 1160.768 L 4946.976 1159.568 L 4948.176 1158.368 L 4949.376 1160.768 L 4949.376 1157.168 L 4948.176 1157.168 L 4948.176 1155.968 L 4950.576 1149.968 L 4951.776 1152.368 L 4951.776 1153.568 L 4951.776 1148.768 L 4952.976 1148.768 L 4951.776 1147.568 L 4951.776 1145.168 L 4955.376 1145.168 L 4957.776 1143.968 L 4957.776 1142.768 L 4961.376 1141.568 L 4961.376 1143.968 L 4963.776 1145.168 L 4964.976 1148.768 L 4961.376 1149.968 L 4962.576 1151.168 L 4963.776 1152.368 L 4964.976 1153.568 L 4963.776 1153.568 L 4964.976 1154.768 L 4961.376 1157.168 L 4963.776 1155.968 L 4964.976 1157.168 L 4963.776 1158.368 L 4964.976 1160.768 L 4964.976 1161.968 L 4966.176 1161.968 L 4964.976 1160.768 L 4964.976 1159.568 L 4966.176 1159.568 L 4966.176 1157.168 L 4967.376 1153.568 L 4966.176 1148.768 L 4968.576 1149.968 L 4967.376 1154.768 L 4967.376 1161.968 L 4966.176 1165.568 L 4966.176 1166.768 L 4967.376 1166.768 L 4968.576 1164.368 L 4970.976 1166.768 L 4972.176 1166.768 L 4969.776 1164.368 L 4968.576 1164.368 L 4968.576 1161.968 L 4969.776 1160.768 L 4969.776 1153.568 L 4970.976 1153.568 L 4970.976 1154.768 L 4972.176 1154.768 L 4973.376 1153.568 L 4973.376 1152.368 L 4976.976 1149.968 L 4978.176 1151.168 L 4980.576 1148.768 L 4984.175 1148.768 L 4984.175 1149.968 L 4986.575 1154.768 L 4985.375 1154.768 L 4985.375 1153.568 L 4984.175 1154.768 L 4984.175 1157.168 L 4982.975 1158.368 L 4984.175 1158.368 L 4982.975 1160.768 L 4980.576 1161.968 L 4980.576 1163.168 L 4981.775 1164.368 L 4982.975 1161.968 L 4984.175 1163.168 L 4984.175 1164.368 L 4985.375 1164.368 L 4985.375 1163.168 L 4986.575 1164.368 L 4986.575 1165.568 L 4985.375 1166.768 L 4986.575 1167.968 L 4987.775 1172.768 L 4988.975 1173.967 L 4988.975 1176.367 L 4985.375 1176.367 L 4985.375 1177.567 L 4988.975 1179.967 L 4991.375 1179.967 L 4991.375 1176.367 L 4992.575 1176.367 L 4992.575 1177.567 L 4993.775 1176.367 L 4992.575 1176.367 L 4992.575 1169.168 L 4994.975 1167.968 L 4998.575 1167.968 L 4998.575 1166.768 L 4997.375 1165.568 L 4997.375 1164.368 L 4998.575 1165.568 L 4997.375 1163.168 L 4997.375 1160.768 L 4999.775 1158.368 L 5000.975 1159.568 L 5000.975 1160.768 L 5002.175 1160.768 L 5002.175 1157.168 L 5004.575 1155.968 L 5000.975 1155.968 L 5000.975 1154.768 L 5004.575 1154.768 L 5006.975 1157.168 L 5006.975 1158.368 L 5005.775 1159.568 L 5005.775 1160.768 L 5006.975 1159.568 L 5006.975 1164.368 L 5002.175 1164.368 L 5005.775 1165.568 L 5006.975 1166.768 L 5005.775 1169.168 L 5004.575 1169.168 L 5004.575 1170.368 L 5002.175 1172.768 L 5003.375 1172.768 L 5005.775 1170.368 L 5006.975 1171.568 L 5005.775 1172.768 L 5003.375 1175.167 L 5003.375 1177.567 L 5004.575 1177.567 L 5004.575 1175.167 L 5005.775 1173.967 L 5005.775 1175.167 L 5008.175 1173.967 L 5008.175 1171.568 L 5009.375 1171.568 L 5010.575 1175.167 L 5009.375 1176.367 L 5010.575 1176.367 L 5010.575 1178.767 L 5008.175 1179.967 L 5008.175 1183.567 L 5009.375 1184.767 L 5009.375 1182.367 L 5010.575 1179.967 L 5011.775 1177.567 L 5015.375 1181.167 L 5012.975 1182.367 L 5012.975 1183.567 L 5014.175 1184.767 L 5014.175 1182.367 L 5015.375 1181.167 L 5015.375 1178.767 L 5014.175 1178.767 L 5014.175 1177.567 L 5015.375 1177.567 L 5014.175 1177.567 L 5012.975 1173.967 L 5015.375 1172.768 L 5017.774 1172.768 L 5018.974 1175.167 L 5017.774 1171.568 L 5018.974 1169.168 L 5020.174 1170.368 L 5021.374 1171.568 L 5022.574 1177.567 L 5023.774 1183.567 L 5023.774 1184.767 L 5022.574 1187.167 L 5022.574 1188.367 L 5022.574 1187.167 L 5024.974 1184.767 L 5026.174 1183.567 L 5026.174 1181.167 L 5024.974 1177.567 L 5026.174 1171.568 L 5029.774 1170.368 L 5030.974 1171.568 L 5032.174 1175.167 L 5034.574 1176.367 L 5033.374 1177.567 L 5034.574 1177.567 L 5034.574 1175.167 L 5035.774 1175.167 L 5035.774 1176.367 L 5036.974 1175.167 L 5035.774 1173.967 L 5033.374 1173.967 L 5032.174 1169.168 L 5032.174 1166.768 L 5034.574 1166.768 L 5035.774 1169.168 L 5036.974 1167.968 L 5034.574 1165.568 L 5036.974 1164.368 L 5036.974 1163.168 L 5038.174 1163.168 L 5040.574 1164.368 L 5040.574 1165.568 L 5039.374 1165.568 L 5039.374 1166.768 L 5040.574 1167.968 L 5044.174 1169.168 L 5045.374 1170.368 L 5044.174 1171.568 L 5045.374 1172.768 L 5046.574 1173.967 L 5046.574 1175.167 L 5047.774 1176.367 L 5046.574 1177.567 L 5046.574 1175.167 L 5044.174 1176.367 L 5042.974 1173.967 L 5042.974 1175.167 L 5044.174 1177.567 L 5042.974 1177.567 L 5042.974 1178.767 L 5041.774 1179.967 L 5040.574 1178.767 L 5039.374 1178.767 L 5041.774 1182.367 L 5038.174 1183.567 L 5039.374 1184.767 L 5040.574 1184.767 L 5041.774 1187.167 L 5041.774 1189.567 L 5039.374 1191.967 L 5035.774 1191.967 L 5036.974 1193.167 L 5034.574 1194.367 L 5033.374 1194.367 L 5032.174 1195.567 L 5034.574 1197.967 L 5035.774 1197.967 L 5034.574 1196.767 L 5038.174 1196.767 L 5039.374 1194.367 L 5038.174 1196.767 L 5041.774 1196.767 L 5045.374 1194.367 L 5046.574 1194.367 L 5047.774 1193.167 L 5047.774 1196.767 L 5048.974 1197.967 L 5051.374 1197.967 L 5053.773 1193.167 L 5053.773 1191.967 L 5054.973 1190.767 L 5054.973 1185.967 L 5056.173 1184.767 L 5058.573 1187.167 L 5057.373 1188.367 L 5057.373 1194.367 L 5058.573 1197.967 L 5058.573 1199.167 L 5058.573 1197.967 L 5059.773 1194.367 L 5059.773 1195.567 L 5059.773 1193.167 L 5060.973 1193.167 L 5060.973 1194.367 L 5062.173 1191.967 L 5059.773 1189.567 L 5060.973 1187.167 L 5062.173 1188.367 L 5062.173 1184.767 L 5063.373 1183.567 L 5064.573 1183.567 L 5064.573 1182.367 L 5063.373 1182.367 L 5063.373 1181.167 L 5065.773 1179.967 L 5068.173 1179.967 L 5070.573 1181.167 L 5070.573 1182.367 L 5071.773 1183.567 L 5072.973 1179.967 L 5074.173 1178.767 L 5075.373 1178.767 L 5075.373 1177.567 L 5074.173 1177.567 L 5078.973 1176.367 L 5080.173 1178.767 L 5080.173 1181.167 L 5078.973 1182.367 L 5076.573 1184.767 L 5075.373 1184.767 L 5074.173 1183.567 L 5072.973 1184.767 L 5070.573 1187.167 L 5070.573 1188.367 L 5069.373 1188.367 L 5068.173 1189.567 L 5069.373 1190.767 L 5070.573 1189.567 L 5070.573 1191.967 L 5071.773 1191.967 L 5070.573 1193.167 L 5069.373 1191.967 L 5070.573 1194.367 L 5071.773 1195.567 L 5069.373 1195.567 L 5070.573 1194.367 L 5068.173 1195.567 L 5066.973 1195.567 L 5065.773 1197.967 L 5070.573 1196.767 L 5071.773 1197.967 L 5071.773 1202.767 L 5070.573 1202.767 L 5069.373 1201.567 L 5068.173 1202.767 L 5069.373 1203.967 L 5069.373 1206.367 L 5070.573 1205.167 L 5070.573 1206.367 L 5069.373 1208.767 L 5068.173 1208.767 L 5069.373 1209.967 L 5070.573 1212.366 L 5070.573 1209.967 L 5071.773 1207.567 L 5074.173 1208.767 L 5074.173 1207.567 L 5072.973 1206.367 L 5072.973 1205.167 L 5075.373 1206.367 L 5078.973 1205.167 L 5081.373 1206.367 L 5081.373 1209.967 L 5080.173 1211.166 L 5078.973 1211.166 L 5077.773 1212.366 L 5077.773 1214.766 L 5078.973 1214.766 L 5078.973 1212.366 L 5081.373 1213.566 L 5081.373 1212.366 L 5082.573 1209.967 L 5081.373 1205.167 L 5078.973 1203.967 L 5080.173 1203.967 L 5080.173 1201.567 L 5081.373 1201.567 L 5082.573 1200.367 L 5084.973 1200.367 L 5084.973 1205.167 L 5086.173 1208.767 L 5086.173 1211.166 L 5087.373 1212.366 L 5088.573 1212.366 L 5087.373 1208.767 L 5087.373 1206.367 L 5088.573 1207.567 L 5088.573 1205.167 L 5090.972 1202.767 L 5092.172 1201.567 L 5093.372 1201.567 L 5092.172 1202.767 L 5094.572 1205.167 L 5094.572 1211.166 L 5092.172 1213.566 L 5092.172 1215.966 L 5096.972 1215.966 L 5099.372 1218.366 L 5100.572 1217.166 L 5098.172 1214.766 L 5094.572 1214.766 L 5094.572 1213.566 L 5096.972 1212.366 L 5096.972 1206.367 L 5098.172 1205.167 L 5100.572 1206.367 L 5100.572 1207.567 L 5101.772 1211.166 L 5100.572 1212.366 L 5101.772 1212.366 L 5101.772 1211.166 L 5104.172 1211.166 L 5101.772 1209.967 L 5102.972 1208.767 L 5101.772 1206.367 L 5099.372 1203.967 L 5101.772 1201.567 L 5102.972 1202.767 L 5105.372 1200.367 L 5106.572 1201.567 L 5106.572 1199.167 L 5105.372 1200.367 L 5102.972 1199.167 L 5105.372 1196.767 L 5105.372 1195.567 L 5106.572 1191.967 L 5107.772 1191.967 L 5107.772 1190.767 L 5108.972 1193.167 L 5107.772 1190.767 L 5111.372 1189.567 L 5106.572 1189.567 L 5106.572 1187.167 L 5108.972 1185.967 L 5110.172 1187.167 L 5110.172 1185.967 L 5113.772 1185.967 L 5116.172 1183.567 L 5116.172 1182.367 L 5117.372 1182.367 L 5119.772 1183.567 L 5120.972 1184.767 L 5120.972 1190.767 L 5118.572 1189.567 L 5117.372 1189.567 L 5116.172 1191.967 L 5114.972 1194.367 L 5118.572 1193.167 L 5117.372 1196.767 L 5114.972 1197.967 L 5113.772 1196.767 L 5114.972 1199.167 L 5113.772 1200.367 L 5112.572 1199.167 L 5112.572 1201.567 L 5108.972 1201.567 L 5112.572 1201.567 L 5114.972 1200.367 L 5114.972 1199.167 L 5116.172 1199.167 L 5116.172 1200.367 L 5114.972 1201.567 L 5116.172 1205.167 L 5114.972 1206.367 L 5116.172 1206.367 L 5117.372 1209.967 L 5117.372 1213.566 L 5114.972 1213.566 L 5113.772 1215.966 L 5110.172 1221.966 L 5107.772 1224.366 L 5107.772 1227.966 L 5105.372 1230.366 L 5105.372 1233.966 L 5106.572 1231.566 L 5108.972 1230.366 L 5110.172 1227.966 L 5111.372 1226.766 L 5111.372 1223.166 L 5113.772 1219.566 L 5119.772 1214.766 L 5120.972 1211.166 L 5120.972 1205.167 L 5122.172 1202.767 L 5123.372 1201.567 L 5125.771 1201.567 L 5126.971 1202.767 L 5125.771 1205.167 L 5125.771 1213.566 L 5123.372 1215.966 L 5120.972 1223.166 L 5117.372 1226.766 L 5118.572 1226.766 L 5120.972 1225.566 L 5123.372 1229.166 L 5123.372 1230.366 L 5124.572 1230.366 L 5122.172 1224.366 L 5123.372 1223.166 L 5124.572 1217.166 L 5125.771 1217.166 L 5126.971 1218.366 L 5128.171 1225.566 L 5126.971 1226.766 L 5128.171 1226.766 L 5128.171 1224.366 L 5129.371 1224.366 L 5128.171 1223.166 L 5128.171 1219.566 L 5126.971 1217.166 L 5128.171 1214.766 L 5129.371 1213.566 L 5135.371 1209.967 L 5136.571 1209.967 L 5137.771 1208.767 L 5137.771 1207.567 L 5138.971 1206.367 L 5138.971 1205.167 L 5141.371 1206.367 L 5141.371 1208.767 L 5136.571 1212.366 L 5136.571 1215.966 L 5137.771 1218.366 L 5137.771 1219.566 L 5138.971 1219.566 L 5141.371 1221.966 L 5138.971 1226.766 L 5138.971 1231.566 L 5137.771 1235.166 L 5136.571 1238.766 L 5134.171 1238.766 L 5130.571 1239.966 L 5126.971 1243.566 L 5129.371 1248.365 L 5124.572 1253.165 L 5126.971 1259.165 L 5130.571 1259.165 L 5130.571 1263.965 L 5135.371 1262.765 L 5135.371 1263.965 L 5134.171 1266.365 L 5132.971 1269.965 L 5131.771 1271.165 L 5130.571 1275.965 L 5125.771 1279.565 L 5129.371 1281.965 L 5129.371 1283.164 L 5122.172 1289.164 L 5124.572 1291.564 L 5125.771 1292.764 L 5128.171 1295.164 L 5128.171 1297.564 L 5130.571 1308.364 L 5126.971 1309.564 L 5126.971 1310.764 L 5128.171 1311.964 L 5128.171 1313.164 L 5125.771 1316.764 L 5125.771 1321.563 L 5126.971 1322.763 L 5126.971 1325.163 L 5125.771 1327.563 L 5123.372 1329.963 L 5119.772 1331.163 L 5118.572 1331.163 L 5117.372 1332.363 L 5117.372 1333.563 L 5116.172 1334.763 L 5113.772 1334.763 L 5111.372 1333.563 L 5107.772 1334.763 L 5100.572 1334.763 L 5099.372 1335.963 L 5098.172 1337.163 L 5096.972 1341.963 L 5098.172 1347.963 L 5099.372 1349.163 L 5101.772 1346.763 L 5102.972 1347.963 L 5104.172 1347.963 L 5107.772 1346.763 L 5113.772 1347.963 L 5114.972 1350.363 L 5116.172 1351.563 L 5117.372 1353.963 L 5111.372 1362.362 L 5111.372 1363.562 L 5113.772 1363.562 L 5114.972 1368.362 L 5112.572 1379.162 L 5110.172 1385.162 L 5110.172 1388.762 L 5107.772 1392.361 L 5106.572 1393.561 L 5105.372 1395.961 L 5105.372 1399.561 L 5106.572 1401.961 L 5106.572 1405.561 L 5105.372 1406.761 L 5101.772 1410.361 L 5101.772 1411.561 L 5104.172 1412.761 L 5101.772 1415.161 L 5098.172 1416.361 L 5095.772 1418.761 L 5093.372 1423.561 L 5093.372 1424.761 L 5090.972 1425.961 L 5088.573 1425.961 L 5087.373 1429.56 L 5084.973 1430.76 L 5082.573 1429.56 L 5081.373 1427.16 L 5077.773 1428.36 L 5077.773 1429.56 L 5080.173 1431.96 L 5078.973 1437.96 L 5077.773 1439.16 L 5077.773 1445.16 L 5076.573 1446.36 L 5071.773 1449.96 L 5071.773 1453.56 L 5074.173 1454.76 L 5075.373 1454.76 L 5078.973 1449.96 L 5081.373 1451.16 L 5081.373 1452.36 L 5080.173 1454.76 L 5078.973 1457.16 L 5076.573 1459.56 L 5076.573 1467.959 L 5077.773 1467.959 L 5076.573 1470.359 L 5076.573 1472.759 L 5077.773 1475.159 L 5076.573 1477.559 L 5077.773 1478.759 L 5080.173 1479.959 L 5080.173 1481.159 L 5071.773 1483.559 L 5069.373 1483.559 L 5068.173 1482.359 L 5066.973 1482.359 L 5065.773 1483.559 L 5065.773 1485.959 L 5066.973 1487.159 L 5068.173 1488.359 L 5066.973 1490.759 L 5065.773 1490.759 L 5063.373 1491.959 L 5064.573 1496.759 L 5058.573 1497.959 L 5056.173 1499.158 L 5052.574 1499.158 L 5050.174 1500.358 L 5050.174 1505.158 L 5048.974 1506.358 L 5046.574 1501.558 L 5045.374 1501.558 L 5044.174 1502.758 L 5044.174 1506.358 L 5041.774 1507.558 L 5041.774 1509.958 L 5039.374 1508.758 L 5039.374 1509.958 L 5036.974 1511.158 L 5034.574 1514.758 L 5035.774 1517.158 L 5035.774 1518.358 L 5038.174 1517.158 L 5038.174 1519.558 L 5039.374 1523.158 L 5040.574 1521.958 L 5041.774 1521.958 L 5041.774 1529.158 L 5042.974 1531.558 L 5045.374 1530.358 L 5046.574 1529.158 L 5046.574 1527.958 L 5047.774 1527.958 L 5047.774 1533.958 L 5048.974 1533.958 L 5050.174 1535.157 L 5048.974 1535.157 L 5048.974 1536.357 L 5051.374 1535.157 L 5051.374 1536.357 L 5050.174 1536.357 L 5052.574 1537.557 L 5051.374 1537.557 L 5050.174 1538.757 L 5047.774 1536.357 L 5045.374 1536.357 L 5044.174 1537.557 L 5045.374 1537.557 L 5045.374 1538.757 L 5046.574 1539.957 L 5044.174 1541.157 L 5041.774 1539.957 L 5040.574 1539.957 L 5041.774 1541.157 L 5040.574 1542.357 L 5040.574 1543.557 L 5041.774 1543.557 L 5040.574 1544.757 L 5039.374 1545.957 L 5038.174 1544.757 L 5035.774 1544.757 L 5033.374 1545.957 L 5033.374 1547.157 L 5034.574 1547.157 L 5036.974 1549.557 L 5035.774 1549.557 L 5036.974 1551.957 L 5038.174 1553.157 L 5038.174 1554.357 L 5035.774 1555.557 L 5035.774 1559.157 L 5038.174 1559.157 L 5039.374 1560.357 L 5039.374 1561.557 L 5036.974 1561.557 L 5036.974 1562.757 L 5038.174 1562.757 L 5039.374 1563.957 L 5038.174 1566.357 L 5035.774 1565.157 L 5034.574 1566.357 L 5034.574 1567.557 L 5036.974 1568.757 L 5034.574 1571.157 L 5035.774 1572.356 L 5033.374 1573.556 L 5033.374 1577.156 L 5034.574 1579.556 L 5033.374 1580.756 L 5033.374 1584.356 L 5032.174 1583.156 L 5028.574 1584.356 L 5029.774 1589.156 L 5028.574 1590.356 L 5027.374 1590.356 L 5027.374 1586.756 L 5026.174 1586.756 L 5024.974 1589.156 L 5021.374 1589.156 L 5022.574 1591.556 L 5024.974 1590.356 L 5024.974 1592.756 L 5026.174 1593.956 L 5024.974 1596.356 L 5021.374 1596.356 L 5022.574 1599.956 L 5021.374 1601.156 L 5018.974 1598.756 L 5016.575 1598.756 L 5020.174 1601.156 L 5020.174 1602.356 L 5017.774 1603.556 L 5020.174 1604.756 L 5020.174 1607.156 L 5018.974 1605.956 L 5016.575 1605.956 L 5015.375 1607.156 L 5016.575 1608.355 L 5015.375 1610.755 L 5014.175 1610.755 L 5012.975 1609.555 L 5011.775 1610.755 L 5011.775 1615.555 L 5008.175 1615.555 L 5010.575 1617.955 L 5008.175 1620.355 L 5010.575 1621.555 L 5010.575 1623.955 L 5006.975 1623.955 L 5005.775 1626.355 L 5003.375 1625.155 L 5003.375 1628.755 L 5002.175 1628.755 L 5000.975 1626.355 L 4999.775 1626.355 L 5000.975 1627.555 L 5000.975 1628.755 L 4998.575 1629.955 L 4998.575 1628.755 L 4997.375 1627.555 L 4996.175 1628.755 L 4993.775 1631.155 L 4994.975 1631.155 L 4994.975 1632.355 L 4993.775 1632.355 L 4993.775 1633.555 L 4992.575 1632.355 L 4991.375 1633.555 L 4990.175 1633.555 L 4991.375 1633.555 L 4990.175 1634.755 L 4988.975 1635.955 L 4987.775 1634.755 L 4987.775 1638.355 L 4986.575 1638.355 L 4986.575 1640.755 L 4987.775 1643.155 L 4986.575 1644.354 L 4986.575 1643.155 L 4986.575 1644.354 L 4985.375 1644.354 L 4985.375 1646.754 L 4986.575 1646.754 L 4987.775 1649.154 L 4985.375 1649.154 L 4986.575 1650.354 L 4985.375 1650.354 L 4985.375 1651.554 L 4986.575 1651.554 L 4986.575 1653.954 L 4982.975 1652.754 L 4984.175 1657.554 L 4982.975 1657.554 L 4982.975 1656.354 L 4980.576 1656.354 L 4980.576 1657.554 L 4982.975 1661.154 L 4980.576 1661.154 L 4981.775 1662.354 L 4979.376 1663.554 L 4978.176 1664.754 L 4975.776 1664.754 L 4975.776 1665.954 L 4973.376 1667.154 L 4973.376 1669.554 L 4970.976 1669.554 L 4970.976 1671.954 L 4972.176 1673.154 L 4970.976 1674.354 L 4972.176 1676.754 L 4970.976 1676.754 L 4969.776 1679.154 L 4968.576 1680.353 L 4969.776 1681.553 L 4968.576 1682.753 L 4969.776 1682.753 L 4968.576 1682.753 L 4969.776 1683.953 L 4968.576 1685.153 L 4967.376 1685.153 L 4968.576 1686.353 L 4968.576 1688.753 L 4969.776 1687.553 L 4970.976 1688.753 L 4967.376 1691.153 L 4968.576 1695.953 L 4968.576 1698.353 L 4966.176 1699.553 L 4967.376 1700.753 L 4967.376 1703.153 L 4966.176 1705.553 L 4966.176 1711.553 L 4963.776 1712.753 L 4963.776 1716.352 L 4961.376 1717.552 L 4962.576 1719.952 L 4961.376 1722.352 L 4958.976 1723.552 L 4957.776 1727.152 L 4952.976 1727.152 L 4952.976 1731.952 L 4951.776 1730.752 L 4949.376 1733.152 L 4946.976 1734.352 L 4946.976 1737.952 L 4945.776 1739.152 L 4944.577 1739.152 L 4944.577 1742.752 L 4943.377 1742.752 L 4943.377 1745.152 L 4942.177 1743.952 L 4940.977 1746.352 L 4939.777 1746.352 L 4938.577 1748.752 L 4934.977 1748.752 L 4933.777 1751.152 L 4930.177 1753.551 L 4930.177 1754.751 L 4927.777 1754.751 L 4926.577 1755.951 L 4926.577 1757.151 L 4925.377 1757.151 L 4925.377 1758.351 L 4922.977 1758.351 L 4922.977 1759.551 L 4921.777 1759.551 L 4922.977 1758.351 L 4920.577 1758.351 L 4919.377 1759.551 L 4919.377 1761.951 L 4918.177 1761.951 L 4918.177 1765.551 L 4915.777 1767.951 L 4915.777 1769.151 L 4914.577 1770.351 L 4915.777 1772.751 L 4915.777 1775.151 L 4916.977 1776.351 L 4915.777 1777.551 L 4916.977 1779.951 L 4916.977 1781.151 L 4915.777 1782.351 L 4914.577 1781.151 L 4912.177 1782.351 L 4913.377 1783.551 L 4912.177 1784.751 L 4912.177 1787.151 L 4910.977 1788.35 L 4910.977 1789.55 L 4909.777 1789.55 L 4910.977 1794.35 L 4908.578 1794.35 L 4906.178 1797.95 L 4904.978 1797.95 L 4903.778 1800.35 L 4901.378 1799.15 L 4901.378 1801.55 L 4898.978 1801.55 L 4897.778 1803.95 L 4892.978 1806.35 L 4894.178 1807.55 L 4892.978 1808.75 L 4892.978 1811.15 L 4891.778 1813.55 L 4892.978 1813.55 L 4890.578 1815.95 L 4890.578 1818.35 L 4888.178 1820.75 L 4888.178 1823.15 L 4885.778 1826.749 L 4883.378 1830.349 L 4877.378 1836.349 L 4874.978 1843.549 L 4870.179 1849.549 L 4868.979 1850.749 L 4866.579 1851.949 L 4864.179 1853.149 L 4861.779 1856.749 L 4856.979 1860.348 L 4853.379 1859.149 L 4848.579 1859.149 L 4846.179 1857.949 L 4844.979 1859.149 L 4843.779 1856.749 L 4841.379 1856.749 L 4837.779 1855.549 L 4835.38 1857.949 L 4832.98 1861.548 L 4810.18 1879.448 L 4795.781 1891.448 L 4789.781 1896.248 L 4786.181 1898.647 L 4765.781 1915.447 L 4763.382 1917.847 L 4729.882 1944.146 L 4726.283 1946.546 L 4725.083 1945.346 L 4723.883 1945.346 L 4722.683 1946.546 L 4723.883 1948.946 L 4720.283 1951.346 L 4719.083 1953.746 L 4702.283 1965.746 L 4667.584 1994.445 L 4667.584 1996.845 L 4668.784 1998.045 L 4671.184 1999.245 L 4673.584 1999.245 L 4673.584 2000.445 L 4680.784 2000.445 L 4685.584 2001.645 L 4686.784 2001.645 L 4689.184 2006.444 L 4693.983 2007.644 L 4702.383 2007.644 L 4710.783 2008.844 L 4713.183 2008.844 L 4716.783 2007.644 L 4717.983 2006.444 L 4720.383 2006.444 L 4721.583 2005.244 L 4722.783 2005.244 L 4726.383 2004.045 L 4729.982 2005.244 L 4731.182 2002.845 L 4732.382 2002.845 L 4734.782 2004.045 L 4735.982 2006.444 L 4737.182 2007.644 L 4739.582 2010.044 L 4739.582 2013.644 L 4740.782 2016.044 L 4743.182 2019.644 L 4743.182 2022.044 L 4743.182 2020.844 L 4744.382 2022.044 L 4747.982 2026.844 L 4749.182 2028.044 L 4751.582 2029.244 L 4753.982 2030.444 L 4759.982 2031.644 L 4763.582 2031.644 L 4765.981 2034.044 L 4767.181 2035.244 L 4769.581 2036.444 L 4776.781 2041.243 L 4776.781 2047.243 L 4775.581 2049.643 L 4771.981 2056.843 L 4769.581 2060.443 L 4767.181 2061.643 L 4765.981 2062.843 L 4764.781 2062.843 L 4761.182 2064.043 L 4752.782 2062.843 L 4750.382 2064.043 L 4749.182 2066.443 L 4747.982 2068.843 L 4747.982 2074.843 L 4749.182 2083.242 L 4749.182 2084.442 L 4750.382 2085.642 L 4752.782 2089.242 L 4757.582 2094.042 L 4757.582 2095.242 L 4759.982 2098.842 L 4759.982 2103.642 L 4756.382 2106.042 L 4749.182 2107.242 L 4746.782 2108.442 L 4744.382 2110.842 L 4741.982 2114.441 L 4740.782 2116.841 L 4740.782 2119.241 L 4741.982 2120.441 L 4746.782 2121.641 L 4750.382 2126.441 L 4750.382 2128.841 L 4749.182 2132.441 L 4746.782 2134.841 L 4741.982 2138.441 L 4735.982 2140.841 L 4731.182 2139.641 L 4728.782 2140.841 L 4726.383 2143.241 L 4723.983 2145.641 L 4723.983 2152.84 L 4725.183 2156.44 L 4726.383 2162.44 L 4727.583 2164.84 L 4726.383 2166.04 L 4726.383 2167.24 L 4727.583 2169.64 L 4729.982 2170.84 L 4732.382 2172.04 L 4733.582 2173.24 L 4734.782 2176.84 L 4733.582 2181.64 L 4732.382 2182.84 L 4729.982 2181.64 L 4725.183 2178.04 L 4721.583 2176.84 L 4711.983 2176.84 L 4710.783 2178.04 L 4708.383 2181.64 L 4707.183 2184.04 L 4703.583 2187.639 L 4701.183 2188.839 L 4692.783 2196.039 L 4690.384 2200.839 L 4689.184 2202.039 L 4686.784 2205.639 L 4686.784 2209.239 L 4684.384 2211.639 L 4683.184 2215.239 L 4683.184 2217.639 L 4685.584 2224.838 L 4685.584 2229.638 L 4684.384 2232.038 L 4683.184 2234.438 L 4679.584 2236.838 L 4669.984 2239.238 L 4666.384 2245.238 L 4663.984 2247.638 L 4662.784 2247.638 L 4656.784 2250.038 L 4645.985 2250.038 L 4638.785 2251.238 L 4636.385 2252.438 L 4633.985 2253.638 L 4629.185 2256.038 L 4620.785 2256.038 L 4618.386 2259.637 L 4615.986 2262.037 L 4608.786 2266.837 L 4603.986 2271.637 L 4596.786 2275.237 L 4593.186 2276.437 L 4591.986 2276.437 L 4590.786 2278.837 L 4587.186 2282.437 L 4585.986 2284.837 L 4585.986 2290.837 L 4587.186 2292.037 L 4589.586 2300.436 L 4589.586 2319.536 L 4590.786 2330.335 L 4591.986 2335.135 L 4590.786 2338.735 L 4587.186 2344.735 L 4585.986 2349.535 L 4582.387 2354.335 L 4578.787 2359.135 L 4576.387 2362.735 L 4576.387 2363.935 L 4573.987 2366.334 L 4566.787 2373.534 L 4561.987 2379.534 L 4559.587 2384.334 L 4557.187 2385.534 L 4555.987 2395.134 L 4555.987 2398.734 L 4559.587 2405.933 L 4559.587 2407.133 L 4563.187 2415.533 L 4564.387 2417.933 L 4566.787 2420.333 L 4571.587 2422.733 L 4577.587 2427.533 L 4581.187 2429.933 L 4584.786 2434.733 L 4588.386 2437.133 L 4593.186 2438.332 L 4595.586 2439.532 L 4596.786 2441.932 L 4596.786 2443.132 L 4595.586 2445.532 L 4594.386 2446.732 L 4594.386 2451.532 L 4595.586 2459.932 L 4594.386 2464.732 L 4594.386 2469.532 L 4591.986 2473.132 L 4593.186 2479.131 L 4593.186 2487.531 L 4591.986 2489.931 L 4589.586 2491.131 L 4589.586 2492.331 L 4588.386 2493.531 L 4588.386 2497.131 L 4587.186 2499.531 L 4588.386 2503.131 L 4587.186 2509.131 L 4585.986 2512.73 L 4584.786 2515.13 L 4582.387 2519.93 L 4578.787 2527.13 L 4577.587 2536.73 L 4576.387 2540.33 L 4573.987 2546.33 L 4571.587 2548.729 L 4567.987 2551.129 L 4563.187 2553.529 L 4561.987 2553.529 L 4557.187 2560.729 L 4555.987 2564.329 L 4554.787 2566.729 L 4553.587 2577.529 L 4553.587 2579.929 L 4551.187 2583.528 L 4543.988 2589.528 L 4542.788 2593.128 L 4540.388 2595.528 L 4539.188 2600.328 L 4536.788 2603.928 L 4528.388 2615.928 L 4523.588 2623.127 L 4519.988 2627.927 L 4518.788 2630.327 L 4515.188 2631.527 L 4510.389 2631.527 L 4503.189 2633.927 L 4494.789 2641.127 L 4492.389 2642.327 L 4489.989 2645.927 L 4487.589 2648.327 L 4485.189 2653.127 L 4483.989 2656.726 L 4474.39 2665.126 L 4473.19 2668.726 L 4473.19 2671.126 L 4471.99 2674.726 L 4469.59 2679.526 L 4464.79 2686.726 L 4463.59 2687.926 L 4463.59 2691.525 L 4457.59 2696.325 L 4452.79 2702.325 L 4447.99 2702.325 L 4446.79 2709.525 L 4443.19 2710.725 L 4440.79 2713.125 L 4438.391 2715.525 L 4438.391 2716.725 L 4437.191 2721.525 L 4437.191 2728.724 L 4435.991 2733.524 L 4431.191 2738.324 L 4428.791 2746.724 L 4428.791 2751.524 L 4427.591 2751.524 L 4427.591 2752.724 L 4429.991 2756.324 L 4431.191 2759.924 L 4428.791 2762.324 L 4427.591 2764.723 L 4427.591 2768.323 L 4426.391 2770.723 L 4425.191 2773.123 L 4422.791 2774.323 L 4422.791 2779.123 L 4420.391 2782.723 L 4420.391 2786.323 L 4419.191 2787.523 L 4419.191 2789.923 L 4411.991 2798.323 L 4410.791 2804.322 L 4409.591 2807.922 L 4408.391 2811.522 L 4407.191 2812.722 L 4298.194 2805.522 L 4259.895 2803.122 L 4216.797 2800.722 L 4189.297 2798.323 L 4049.201 2788.723 L 3984.503 2783.923 L 3974.903 2783.923 L 3894.706 2777.923 L 3814.508 2771.923 L 3722.31 2764.723 L 3633.713 2757.524 L 3612.113 2756.324 L 3565.415 2751.524 L 3425.319 2740.724 L 3360.72 2734.724 L 3340.321 2733.524 L 3270.923 2727.524 L 3266.123 2728.724 L 3262.523 2728.724 L 3262.523 2729.924 L 3258.923 2732.324 L 3255.323 2733.524 L 3254.123 2733.524 L 3252.923 2731.124 L 3252.923 2728.724 L 3251.723 2726.325 L 3251.723 2717.925 L 3250.523 2717.925 L 3246.924 2708.325 L 3244.524 2704.725 L 3239.724 2703.525 L 3237.324 2702.325 L 3234.924 2703.525 L 3233.724 2703.525 L 3222.924 2702.325 L 3220.524 2701.125 L 3213.324 2702.325 L 3210.925 2701.125 L 3208.525 2699.925 L 3206.125 2698.725 L 3204.925 2696.325 L 3202.525 2693.925 L 3201.325 2692.725 L 3201.325 2691.525 L 3202.525 2689.126 L 3201.325 2685.526 L 3204.925 2680.726 L 3204.925 2678.326 L 3203.725 2675.926 L 3201.325 2674.726 L 3201.325 2671.126 L 3198.925 2669.926 L 3196.525 2666.326 L 3195.325 2662.726 L 3188.225 2659.126 L 3178.625 2647.127 L 3177.425 2645.927 L 3175.025 2644.727 L 3171.426 2643.527 L 3169.026 2642.327 L 3167.826 2643.527 L 3161.826 2644.727 L 3159.426 2644.727 L 3158.226 2643.527 L 3157.026 2639.927 L 3151.026 2638.727 L 3145.026 2638.727 L 3141.426 2635.127 L 3139.026 2633.927 L 3137.827 2632.727 L 3139.026 2627.927 L 3139.026 2623.127 L 3136.627 2620.727 L 3130.627 2620.727 L 3127.027 2618.328 L 3118.627 2613.528 L 3112.627 2615.928 L 3107.827 2615.928 L 3106.627 2612.328 L 3107.827 2606.328 L 3105.427 2599.128 L 3103.027 2595.528 L 3101.828 2594.328 L 3103.027 2585.928 L 3100.628 2584.728 L 3098.228 2583.528 L 3098.228 2582.329 L 3097.028 2578.729 L 3099.428 2576.329 L 3100.628 2572.729 L 3099.428 2571.529 L 3095.828 2569.129 L 3095.828 2567.929 L 3097.028 2565.529 L 3097.028 2563.129 L 3092.228 2557.129 L 3091.028 2553.529 L 3091.028 2552.329 L 3094.628 2546.33 L 3094.628 2543.93 L 3092.228 2539.13 L 3092.228 2535.53 L 3094.628 2531.93 L 3095.828 2525.93 L 3098.228 2519.93 L 3098.228 2516.33 L 3094.628 2510.331 L 3092.228 2509.131 L 3087.428 2507.931 L 3086.228 2506.731 L 3085.028 2504.331 L 3083.828 2494.731 L 3075.428 2487.631 L 3070.628 2478.031 L 3065.829 2473.232 L 3065.829 2469.632 L 3064.629 2456.532 L 3063.429 2452.932 L 3057.429 2442.132 L 3056.229 2434.933 L 3053.829 2419.333 L 3052.629 2416.933 L 3050.229 2415.733 L 3047.829 2415.733 L 3046.629 2414.533 L 3045.429 2406.133 L 3045.429 2404.933 L 3040.629 2392.934 L 3035.829 2384.534 L 3029.83 2378.534 L 3025.03 2368.934 L 3023.83 2366.534 L 3014.23 2360.535 L 3011.83 2359.335 L 3011.83 2360.535 L 3009.43 2358.135 L 3005.83 2353.335 L 3005.83 2350.935 L 3004.63 2344.935 L 3005.83 2337.735 L 3003.43 2328.136 L 2999.83 2324.536 L 2998.63 2319.736 L 2996.23 2318.536 L 2995.03 2316.136 L 2992.631 2311.336 L 2991.431 2311.336 L 2987.831 2310.136 L 2984.231 2306.536 L 2978.231 2295.736 L 2975.831 2293.337 L 2973.431 2290.937 L 2968.631 2289.737 L 2967.431 2289.737 L 2966.231 2286.137 L 2963.831 2284.937 L 2959.031 2278.937 L 2954.232 2265.737 L 2953.032 2259.737 L 2950.632 2256.138 L 2950.632 2240.538 L 2953.032 2235.738 L 2956.632 2232.138 L 2960.231 2226.138 L 2969.831 2217.739 L 2973.431 2216.539 L 2975.831 2212.939 L 2977.031 2210.539 L 2978.231 2204.539 L 2979.431 2203.339 L 2985.431 2203.339 L 2985.431 2202.139 L 2987.831 2200.939 L 2989.031 2198.539 L 3059.629 2041.743 L 3087.228 1979.445 L 3102.827 1945.946 L 3114.827 1917.247 L 3167.526 1802.35 L 3208.225 1713.753 L 3220.224 1687.353 L 3227.424 1670.554 L 3232.224 1658.554 L 3245.424 1628.655 L 3252.623 1611.855 L 3253.823 1610.655 L 3274.223 1565.157 L 3287.322 1536.457 L 3293.322 1520.858 L 3302.922 1501.658 L 3312.522 1480.159 L 3317.322 1469.359 L 3316.122 1468.159 L 3313.722 1468.159 L 3311.322 1466.959 L 3307.722 1465.759 L 3306.522 1464.559 L 3306.522 1463.359 L 3313.722 1453.76 L 3314.922 1451.36 L 3314.922 1447.76 L 3316.122 1445.36 L 3319.721 1436.96 L 3320.921 1435.76 L 3324.521 1433.36 L 3330.521 1432.16 L 3342.521 1426.161 L 3349.721 1421.361 L 3354.521 1417.761 L 3359.32 1412.961 L 3364.12 1404.561 L 3370.12 1394.961 L 3371.32 1392.561 L 3371.32 1391.361 L 3362.92 1393.761 L 3355.72 1393.761 L 3354.521 1394.961 L 3353.321 1396.161 L 3352.121 1397.361 L 3348.521 1396.161 L 3343.721 1402.161 L 3338.921 1403.361 L 3336.521 1404.561 L 3335.321 1405.761 L 3335.321 1408.161 L 3334.121 1408.161 L 3332.921 1411.761 L 3330.521 1412.961 L 3326.921 1412.961 L 3323.321 1411.761 L 3320.921 1412.961 L 3319.721 1415.361 L 3316.122 1417.761 L 3313.722 1417.761 L 3311.322 1415.361 L 3310.122 1414.161 L 3307.722 1415.361 L 3305.322 1416.561 L 3304.122 1417.761 L 3299.322 1411.761 L 3295.722 1411.761 L 3293.322 1414.161 L 3289.722 1415.361 L 3288.522 1417.761 L 3286.122 1418.961 L 3284.922 1417.761 L 3282.523 1417.761 L 3282.523 1418.961 L 3281.323 1423.761 L 3280.123 1424.961 L 3278.923 1423.761 L 3276.523 1423.761 L 3272.923 1424.961 L 3268.123 1424.961 L 3264.523 1422.561 L 3263.323 1420.161 L 3259.723 1418.961 L 3256.123 1417.761 L 3253.723 1417.761 L 3252.523 1416.561 L 3252.523 1411.761 L 3256.123 1406.961 L 3259.723 1403.361 L 3260.923 1399.761 L 3260.923 1394.961 L 3259.723 1391.361 L 3258.523 1390.162 L 3256.123 1387.762 L 3253.723 1387.762 L 3248.923 1390.162 L 3239.324 1390.162 L 3236.924 1388.962 L 3233.324 1384.162 L 3229.724 1381.762 L 3228.524 1380.562 L 3227.324 1380.562 L 3220.124 1379.362 L 3218.924 1378.162 L 3217.724 1374.562 L 3215.324 1372.162 L 3214.124 1369.762 L 3206.925 1370.962 L 3205.725 1369.762 L 3202.125 1361.362 L 3199.725 1358.962 L 3198.525 1355.362 L 3200.925 1352.963 L 3200.925 1351.763 L 3199.725 1350.563 L 3197.325 1349.363 L 3197.325 1346.963 L 3194.925 1344.563 L 3191.325 1348.163 L 3188.925 1343.363 L 3182.925 1343.363 L 3182.925 1342.163 L 3181.725 1340.963 L 3182.925 1336.163 L 3182.925 1334.963 L 3180.525 1337.363 L 3179.325 1334.963 L 3178.125 1336.163 L 3176.925 1336.163 L 3175.725 1333.763 L 3173.326 1334.963 L 3172.126 1336.163 L 3170.926 1336.163 L 3168.526 1334.963 L 3167.326 1333.763 L 3168.526 1332.563 L 3167.326 1331.363 L 3166.126 1331.363 L 3166.126 1332.563 L 3164.926 1334.963 L 3163.726 1334.963 L 3163.726 1333.763 L 3158.926 1333.763 L 3157.726 1337.363 L 3154.126 1334.963 L 3150.526 1333.763 L 3151.726 1336.163 L 3149.326 1337.363 L 3145.726 1333.763 L 3142.126 1336.163 L 3140.926 1333.763 L 3143.326 1332.563 L 3143.326 1330.163 L 3142.126 1330.163 L 3140.926 1328.963 L 3140.926 1326.563 L 3138.527 1326.563 L 3136.127 1330.163 L 3133.727 1328.963 L 3134.927 1326.563 L 3134.927 1325.363 L 3127.727 1327.763 L 3126.527 1325.363 L 3126.527 1322.963 L 3124.127 1324.163 L 3122.927 1322.963 L 3121.727 1320.563 L 3118.127 1322.963 L 3119.327 1318.164 L 3116.927 1318.164 L 3115.727 1314.564 L 3112.127 1314.564 L 3108.527 1312.164 L 3107.327 1313.364 L 3106.127 1310.964 L 3107.327 1309.764 L 3104.927 1307.364 L 3103.727 1308.564 L 3103.727 1309.764 L 3096.528 1310.964 L 3095.328 1309.764 L 3091.728 1312.164 L 3089.328 1308.564 L 3086.928 1308.564 L 3088.128 1306.164 L 3086.928 1303.764 L 3085.728 1301.364 L 3085.728 1295.364 L 3083.328 1296.564 L 3079.728 1295.364 L 3079.728 1296.564 L 3077.328 1295.364 L 3074.928 1296.564 L 3073.728 1296.564 L 3073.728 1292.964 L 3071.328 1292.964 L 3070.128 1290.564 L 3068.928 1289.364 L 3067.728 1285.764 L 3066.528 1285.764 L 3066.528 1284.564 L 3062.929 1283.364 L 3062.929 1282.165 L 3059.329 1280.965 L 3056.929 1280.965 L 3053.329 1283.364 L 3052.129 1280.965 L 3050.929 1282.165 L 3049.729 1280.965 L 3050.929 1278.565 L 3049.729 1277.365 L 3046.129 1276.165 L 3043.729 1277.365 L 3042.529 1277.365 L 3042.529 1273.765 L 3038.929 1272.565 L 3038.929 1270.165 L 3040.129 1268.965 L 3037.729 1268.965 L 3035.329 1266.565 L 3035.329 1261.765 L 3036.529 1260.565 L 3036.529 1256.965 L 3040.129 1246.165 L 3041.329 1244.966 L 3041.329 1241.366 L 3038.929 1238.966 L 3040.129 1235.366 L 3040.129 1232.966 L 3038.929 1231.766 L 3034.129 1230.566 L 3032.929 1226.966 L 3032.929 1225.766 L 3031.729 1223.366 L 3029.33 1222.166 L 3028.13 1222.166 L 3020.93 1226.966 L 3019.73 1229.366 L 3020.93 1230.566 L 3018.53 1232.966 L 3013.73 1234.166 L 3013.73 1237.766 L 3012.53 1238.966 L 3007.73 1244.966 L 3006.53 1246.165 L 3002.93 1241.366 L 3000.53 1240.166 L 2996.93 1234.166 L 2992.131 1232.966 L 2989.731 1228.166 L 2987.331 1228.166 L 2987.331 1229.366 L 2977.731 1230.566 L 2978.931 1228.166 L 2975.331 1226.966 L 2974.131 1223.366 L 2972.931 1224.566 L 2971.731 1223.366 L 2971.731 1222.166 L 2970.531 1220.966 L 2970.531 1216.166 L 2966.931 1212.566 L 2965.731 1211.366 L 2962.131 1211.366 L 2959.731 1208.967 L 2960.931 1205.367 L 2959.731 1204.167 L 2960.931 1201.767 L 2962.131 1200.567 L 2962.131 1198.167 L 2959.731 1196.967 L 2959.731 1194.567 L 2954.932 1190.967 L 2956.132 1187.367 L 2954.932 1184.967 L 2958.531 1183.767 L 2958.531 1182.567 L 2953.732 1178.967 L 2952.532 1178.967 L 2952.532 1180.167 L 2951.332 1180.167 L 2950.132 1177.767 L 2948.932 1177.767 L 2947.732 1175.367 L 2947.732 1172.968 L 2946.532 1174.167 L 2945.332 1172.968 L 2944.132 1174.167 L 2942.932 1174.167 L 2942.932 1172.968 L 2935.732 1168.168 L 2935.732 1166.968 L 2934.532 1165.768 L 2934.532 1164.568 L 2933.332 1164.568 L 2930.932 1162.168 L 2930.932 1160.968 L 2928.532 1160.968 L 2926.132 1159.768 L 2922.532 1152.568 L 2920.133 1151.368 L 2918.933 1152.568 L 2917.733 1151.368 L 2917.733 1150.168 L 2914.133 1146.568 L 2910.533 1145.368 L 2910.533 1144.168 L 2909.333 1139.368 L 2908.133 1139.368 L 2908.133 1138.168 L 2905.733 1135.769 L 2905.733 1133.369 L 2906.933 1132.169 L 2906.933 1128.569 L 2905.733 1127.369 L 2905.733 1123.769 L 2908.133 1123.769 L 2909.333 1121.369 L 2909.333 1116.569 L 2908.133 1114.169 L 2906.933 1112.969 L 2905.733 1108.169 L 2906.933 1102.169 L 2905.733 1100.97 L 2904.533 1100.97 L 2903.333 1097.37 L 2899.733 1096.17 L 2897.333 1092.57 L 2894.933 1091.37 L 2893.733 1092.57 L 2893.733 1091.37 L 2890.133 1091.37 L 2890.133 1090.17 L 2885.334 1087.77 L 2880.534 1084.17 L 2880.534 1075.77 L 2881.734 1073.37 L 2881.734 1069.77 L 2880.534 1069.77 L 2879.334 1063.771 L 2879.334 1057.771 L 2882.934 1050.571 L 2882.934 1048.171 L 2881.734 1046.971 L 2882.934 1036.171 L 2880.534 1033.771 L 2879.334 1033.771 L 2878.134 1032.571 L 2878.134 1027.772 L 2876.934 1025.372 L 2876.934 796.178 L 2875.434 796.178 Z  M 5133.371 1215.166 L 5133.371 1212.766 L 5136.971 1212.766 L 5135.771 1213.966 L 5136.971 1213.966 L 5138.171 1218.766 L 5138.171 1221.166 L 5136.971 1219.966 L 5134.571 1216.366 L 5133.371 1215.166 Z  M 4970.576 1149.368 L 4969.376 1150.568 L 4970.576 1149.368 Z  M 5114.172 1190.067 L 5114.172 1191.267 L 5112.972 1191.267 L 5112.972 1190.067 L 5114.172 1190.067 Z  M 4965.776 1150.568 L 4966.976 1150.568 L 4965.776 1150.568 L 4965.776 1151.768 L 4965.776 1150.568 Z  M 5042.374 1169.668 L 5043.574 1169.668 L 5043.574 1170.868 L 5042.374 1170.868 L 5042.374 1169.668 Z  M 5092.672 1193.567 L 5091.472 1192.367 L 5092.672 1191.167 L 5093.872 1192.367 L 5092.672 1192.367 L 5093.872 1193.567 L 5092.672 1193.567 Z  M 5071.073 1203.267 L 5069.873 1203.267 L 5071.073 1203.267 L 5071.073 1202.067 L 5072.273 1202.067 L 5072.273 1203.267 L 5071.073 1203.267 Z  M 4824.48 1139.768 L 4825.68 1138.568 L 4826.88 1139.768 L 4825.68 1139.768 L 4825.68 1140.968 L 4824.48 1142.168 L 4824.48 1139.768 Z  M 5081.873 1203.267 L 5081.873 1200.867 L 5083.073 1199.667 L 5084.273 1199.667 L 5083.073 1200.867 L 5083.073 1204.467 L 5081.873 1204.467 L 5081.873 1203.267 Z  M 4966.976 1145.768 L 4969.376 1145.768 L 4969.376 1146.968 L 4970.576 1145.768 L 4971.776 1146.968 L 4966.976 1148.168 L 4966.976 1145.768 L 4966.976 1145.768 Z  M 5079.473 1192.467 L 5078.273 1193.667 L 5077.073 1193.667 L 5077.073 1196.067 L 5072.273 1199.667 L 5073.473 1196.067 L 5075.873 1191.267 L 5075.873 1190.067 L 5077.073 1188.867 L 5078.273 1190.067 L 5079.473 1191.267 L 5079.473 1192.467 L 5079.473 1192.467 Z " fill="#F3AA47" vector-effect="non-scaling-stroke" stroke-width="1" stroke-linejoin="miter" stroke-linecap="butt" stroke-miterlimit="4"/></svg>