<?xml version="1.0" standalone="no"?><!-- Generator: Gravit.io --><svg xmlns="http://www.w3.org/2000/svg" xmlns:xlink="http://www.w3.org/1999/xlink" style="isolation:isolate" viewBox="6422.936 2113.141 705.981 419.189" width="705.981" height="419.189"><path d=" M 6425.036 2275.937 L 6426.235 2274.737 L 6431.035 2273.537 L 6431.035 2272.337 L 6434.635 2272.337 L 6434.635 2269.937 L 6437.035 2269.937 L 6439.435 2268.737 L 6440.635 2267.537 L 6440.635 2266.337 L 6441.835 2265.137 L 6441.835 2263.937 L 6440.635 2262.737 L 6443.035 2260.337 L 6444.235 2259.137 L 6445.435 2257.937 L 6447.835 2256.738 L 6447.835 2255.538 L 6446.635 2254.338 L 6449.035 2254.338 L 6451.435 2255.538 L 6451.435 2253.138 L 6449.035 2251.938 L 6447.835 2249.538 L 6445.435 2249.538 L 6445.435 2247.138 L 6444.235 2245.938 L 6444.235 2243.538 L 6443.035 2242.338 L 6441.835 2238.738 L 6441.835 2237.538 L 6443.035 2233.938 L 6444.235 2233.938 L 6443.035 2233.938 L 6445.435 2232.738 L 6446.635 2231.538 L 6446.635 2229.138 L 6444.235 2227.938 L 6444.235 2225.538 L 6445.435 2224.338 L 6446.635 2223.138 L 6449.035 2220.739 L 6449.035 2218.339 L 6446.635 2215.939 L 6449.035 2214.739 L 6449.035 2213.539 L 6450.235 2212.339 L 6450.235 2211.139 L 6452.635 2207.539 L 6451.435 2206.339 L 6452.635 2203.939 L 6455.035 2201.539 L 6459.835 2196.739 L 6459.835 2193.139 L 6462.234 2191.939 L 6462.234 2189.539 L 6468.234 2184.74 L 6469.434 2184.74 L 6467.034 2182.34 L 6464.634 2183.54 L 6457.435 2183.54 L 6457.435 2182.34 L 6455.035 2182.34 L 6453.835 2181.14 L 6455.035 2181.14 L 6456.235 2179.94 L 6456.235 2178.74 L 6458.635 2178.74 L 6458.635 2176.34 L 6459.835 2176.34 L 6461.035 2175.14 L 6464.634 2175.14 L 6463.434 2173.94 L 6464.634 2172.74 L 6465.834 2172.74 L 6468.234 2173.94 L 6469.434 2173.94 L 6470.634 2175.14 L 6473.034 2172.74 L 6474.234 2172.74 L 6476.634 2171.54 L 6479.034 2170.34 L 6476.634 2173.94 L 6474.234 2177.54 L 6475.434 2179.94 L 6474.234 2183.54 L 6477.834 2182.34 L 6480.234 2182.34 L 6481.434 2183.54 L 6485.034 2185.939 L 6488.634 2184.74 L 6489.834 2184.74 L 6491.034 2185.939 L 6492.234 2187.139 L 6493.434 2189.539 L 6494.634 2190.739 L 6494.634 2193.139 L 6495.834 2193.139 L 6497.034 2194.339 L 6501.833 2194.339 L 6504.233 2196.739 L 6505.433 2199.139 L 6509.033 2199.139 L 6509.033 2202.739 L 6515.033 2199.139 L 6516.233 2199.139 L 6518.633 2197.939 L 6519.833 2199.139 L 6524.633 2199.139 L 6527.033 2201.539 L 6531.833 2201.539 L 6534.232 2200.339 L 6536.632 2205.139 L 6540.232 2205.139 L 6542.632 2202.739 L 6543.832 2200.339 L 6546.232 2199.139 L 6547.432 2195.539 L 6548.632 2194.339 L 6549.832 2194.339 L 6549.832 2193.139 L 6551.032 2193.139 L 6551.032 2190.739 L 6552.232 2190.739 L 6552.232 2193.139 L 6554.632 2194.339 L 6553.432 2196.739 L 6555.832 2196.739 L 6557.032 2195.539 L 6558.232 2195.539 L 6557.032 2191.939 L 6559.432 2189.539 L 6558.232 2188.339 L 6564.232 2188.339 L 6565.432 2187.139 L 6566.632 2184.74 L 6567.832 2183.54 L 6567.832 2184.74 L 6570.231 2187.139 L 6572.631 2187.139 L 6575.031 2185.939 L 6577.431 2183.54 L 6579.831 2183.54 L 6581.031 2182.34 L 6579.831 2181.14 L 6579.831 2176.34 L 6584.631 2178.74 L 6585.831 2177.54 L 6588.231 2176.34 L 6588.231 2175.14 L 6589.431 2172.74 L 6588.231 2171.54 L 6589.431 2169.14 L 6591.831 2167.94 L 6593.031 2167.94 L 6591.831 2166.74 L 6594.231 2163.14 L 6603.831 2163.14 L 6602.631 2163.14 L 6601.431 2160.74 L 6601.431 2158.34 L 6602.631 2157.14 L 6600.231 2154.74 L 6602.631 2153.54 L 6600.231 2152.34 L 6602.631 2149.94 L 6603.831 2149.94 L 6603.831 2147.541 L 6605.031 2146.341 L 6611.03 2142.741 L 6612.23 2142.741 L 6613.43 2143.941 L 6617.03 2145.141 L 6623.03 2145.141 L 6624.23 2142.741 L 6631.43 2142.741 L 6633.83 2140.341 L 6636.23 2139.141 L 6638.63 2140.341 L 6642.23 2140.341 L 6642.23 2137.941 L 6648.229 2137.941 L 6648.229 2136.741 L 6650.629 2136.741 L 6651.829 2137.941 L 6656.629 2136.741 L 6656.629 2131.941 L 6657.829 2130.741 L 6667.429 2130.741 L 6669.829 2125.941 L 6674.629 2125.941 L 6678.229 2122.341 L 6683.028 2121.141 L 6684.228 2119.941 L 6686.628 2121.141 L 6689.028 2121.141 L 6690.228 2118.741 L 6691.428 2116.341 L 6692.628 2115.141 L 6693.828 2115.141 L 6696.228 2116.341 L 6697.428 2118.741 L 6701.028 2117.541 L 6703.428 2118.741 L 6707.028 2118.741 L 6705.828 2119.941 L 6707.028 2125.941 L 6707.028 2128.341 L 6708.228 2130.741 L 6705.828 2136.741 L 6708.228 2137.941 L 6709.428 2137.941 L 6708.228 2141.541 L 6707.028 2142.741 L 6703.428 2143.941 L 6703.428 2146.341 L 6701.028 2147.541 L 6697.428 2148.741 L 6696.228 2149.94 L 6695.028 2149.94 L 6692.628 2152.34 L 6689.028 2155.94 L 6689.028 2161.94 L 6686.628 2161.94 L 6683.028 2160.74 L 6680.628 2161.94 L 6679.428 2165.54 L 6678.229 2166.74 L 6673.429 2169.14 L 6672.229 2169.14 L 6671.029 2172.74 L 6671.029 2177.54 L 6668.629 2179.94 L 6668.629 2182.34 L 6667.429 2183.54 L 6667.429 2185.939 L 6668.629 2188.339 L 6669.829 2189.539 L 6668.629 2193.139 L 6667.429 2203.939 L 6663.829 2207.539 L 6654.229 2207.539 L 6651.829 2211.139 L 6651.829 2212.339 L 6653.029 2213.539 L 6651.829 2218.339 L 6651.829 2220.739 L 6653.029 2220.739 L 6653.029 2227.938 L 6654.229 2230.338 L 6653.029 2232.738 L 6654.229 2233.938 L 6651.829 2239.938 L 6665.029 2237.538 L 6667.429 2237.538 L 6677.029 2238.738 L 6681.828 2236.338 L 6686.628 2237.538 L 6685.428 2239.938 L 6687.828 2242.338 L 6690.228 2243.538 L 6690.228 2248.338 L 6689.028 2250.738 L 6691.428 2253.138 L 6691.428 2254.338 L 6692.628 2255.538 L 6692.628 2257.937 L 6696.228 2260.337 L 6703.428 2260.337 L 6710.628 2255.538 L 6714.228 2250.738 L 6715.427 2250.738 L 6723.827 2248.338 L 6726.227 2247.138 L 6729.827 2245.938 L 6731.027 2244.738 L 6737.027 2239.938 L 6739.427 2239.938 L 6740.627 2242.338 L 6741.827 2245.938 L 6741.827 2248.338 L 6743.027 2250.738 L 6743.027 2251.938 L 6745.427 2251.938 L 6744.227 2253.138 L 6744.227 2254.338 L 6747.827 2250.738 L 6752.626 2248.338 L 6753.826 2248.338 L 6759.826 2245.938 L 6765.826 2243.538 L 6777.826 2254.338 L 6777.826 2263.937 L 6785.026 2262.737 L 6782.626 2271.137 L 6780.226 2274.737 L 6780.226 2277.137 L 6779.026 2280.737 L 6782.626 2286.737 L 6787.425 2289.137 L 6788.625 2289.137 L 6792.225 2279.537 L 6798.225 2279.537 L 6801.825 2280.737 L 6806.625 2280.737 L 6813.825 2269.937 L 6813.825 2268.737 L 6812.625 2266.337 L 6813.825 2265.137 L 6815.025 2263.937 L 6817.425 2263.937 L 6819.825 2261.537 L 6823.424 2260.337 L 6824.624 2259.137 L 6825.824 2251.938 L 6824.624 2248.338 L 6823.424 2247.138 L 6822.225 2245.938 L 6821.025 2245.938 L 6821.025 2244.738 L 6819.825 2244.738 L 6817.425 2243.538 L 6815.025 2239.938 L 6817.425 2237.538 L 6818.625 2229.138 L 6822.225 2221.938 L 6821.025 2219.539 L 6823.424 2218.339 L 6824.624 2219.539 L 6830.624 2221.938 L 6833.024 2225.538 L 6834.224 2224.338 L 6836.624 2225.538 L 6836.624 2224.338 L 6835.424 2219.539 L 6835.424 2212.339 L 6834.224 2211.139 L 6833.024 2211.139 L 6830.624 2209.939 L 6829.424 2208.739 L 6828.224 2205.139 L 6825.824 2203.939 L 6822.225 2201.539 L 6821.025 2201.539 L 6821.025 2197.939 L 6819.825 2194.339 L 6819.825 2191.939 L 6821.025 2189.539 L 6824.624 2183.54 L 6824.624 2181.14 L 6825.824 2175.14 L 6832.924 2176.34 L 6837.724 2176.34 L 6843.724 2164.34 L 6849.724 2166.74 L 6853.324 2165.54 L 6859.323 2161.94 L 6861.723 2164.34 L 6864.123 2166.74 L 6864.123 2173.94 L 6861.723 2177.54 L 6861.723 2182.34 L 6862.923 2182.34 L 6866.523 2183.54 L 6868.923 2184.74 L 6870.123 2190.739 L 6874.923 2189.539 L 6883.323 2189.539 L 6888.123 2188.339 L 6894.123 2188.339 L 6895.322 2187.139 L 6896.522 2187.139 L 6898.922 2185.939 L 6900.122 2184.74 L 6901.322 2184.74 L 6901.322 2185.939 L 6902.522 2185.939 L 6902.522 2184.74 L 6904.922 2189.539 L 6907.322 2191.939 L 6912.122 2193.139 L 6912.122 2196.739 L 6913.322 2197.939 L 6918.122 2199.139 L 6920.522 2199.139 L 6924.122 2200.339 L 6939.721 2199.139 L 6952.921 2199.139 L 6954.121 2197.939 L 6962.521 2196.739 L 6964.921 2196.739 L 6966.121 2195.539 L 6969.72 2191.939 L 6972.12 2193.139 L 6973.32 2193.139 L 6973.32 2191.939 L 6974.52 2191.939 L 6978.12 2193.139 L 6980.52 2194.339 L 6984.12 2194.339 L 6986.52 2196.739 L 6986.52 2197.939 L 6987.72 2199.139 L 6991.32 2199.139 L 6991.32 2200.339 L 6992.52 2200.339 L 6993.72 2197.939 L 6997.32 2197.939 L 6997.32 2196.739 L 6998.52 2197.939 L 7002.12 2197.939 L 7003.32 2199.139 L 7003.32 2197.939 L 7004.519 2199.139 L 7006.919 2199.139 L 7008.119 2197.939 L 7009.319 2197.939 L 7011.719 2199.139 L 7012.919 2197.939 L 7012.919 2199.139 L 7015.319 2199.139 L 7018.919 2200.339 L 7020.119 2200.339 L 7023.719 2202.739 L 7026.119 2203.939 L 7029.719 2208.739 L 7032.119 2209.939 L 7041.718 2209.939 L 7045.318 2207.539 L 7050.118 2207.539 L 7051.318 2205.139 L 7052.518 2205.139 L 7053.718 2208.739 L 7054.918 2211.139 L 7056.118 2211.139 L 7060.918 2212.339 L 7063.318 2211.139 L 7064.518 2211.139 L 7066.918 2207.539 L 7069.318 2207.539 L 7070.518 2202.739 L 7071.718 2202.739 L 7072.918 2201.539 L 7074.118 2201.539 L 7078.917 2206.339 L 7080.117 2206.339 L 7083.717 2205.139 L 7086.117 2202.739 L 7088.517 2202.739 L 7092.117 2201.539 L 7094.517 2200.339 L 7095.717 2199.139 L 7096.917 2200.339 L 7096.917 2226.738 L 7099.317 2232.738 L 7100.517 2235.138 L 7102.917 2236.338 L 7101.717 2237.538 L 7101.717 2239.938 L 7102.917 2242.338 L 7101.717 2243.538 L 7102.917 2244.738 L 7101.717 2248.338 L 7102.917 2248.338 L 7102.917 2250.738 L 7101.717 2250.738 L 7105.317 2250.738 L 7105.317 2260.337 L 7107.717 2266.337 L 7107.717 2268.737 L 7111.317 2272.337 L 7113.716 2273.537 L 7116.116 2274.737 L 7114.916 2277.137 L 7113.716 2279.537 L 7113.716 2280.737 L 7114.916 2284.337 L 7117.316 2286.737 L 7116.116 2287.937 L 7113.716 2289.137 L 7114.916 2289.137 L 7114.916 2290.337 L 7116.116 2290.337 L 7116.116 2289.137 L 7117.316 2289.137 L 7117.316 2293.936 L 7116.116 2293.936 L 7116.116 2295.136 L 7114.916 2295.136 L 7114.916 2293.936 L 7113.716 2292.737 L 7113.716 2293.936 L 7114.916 2297.536 L 7116.116 2297.536 L 7117.316 2295.136 L 7119.716 2292.737 L 7119.716 2289.137 L 7118.516 2286.737 L 7120.916 2286.737 L 7120.916 2298.736 L 7118.516 2299.936 L 7118.516 2302.336 L 7119.716 2304.736 L 7120.916 2305.936 L 7119.716 2310.736 L 7122.116 2313.136 L 7122.116 2316.736 L 7124.516 2319.136 L 7126.916 2319.136 L 7126.916 2328.736 L 7125.716 2331.135 L 7124.516 2335.935 L 7125.716 2340.735 L 7125.716 2346.735 L 7126.916 2347.935 L 7125.716 2350.335 L 7126.916 2352.735 L 7125.716 2357.535 L 7126.916 2359.935 L 7125.716 2362.335 L 7124.516 2365.934 L 7124.516 2377.934 L 7125.716 2379.134 L 7124.516 2380.334 L 7123.316 2381.534 L 7124.516 2386.334 L 7122.116 2388.734 L 7120.916 2392.334 L 7118.516 2392.334 L 7116.116 2391.134 L 7113.716 2392.334 L 7110.117 2389.934 L 7108.917 2392.334 L 7107.717 2392.334 L 7107.717 2391.134 L 7105.317 2391.134 L 7104.117 2389.934 L 7102.917 2388.734 L 7099.317 2391.134 L 7098.117 2391.134 L 7095.717 2387.534 L 7093.317 2385.134 L 7093.317 2383.934 L 7092.117 2381.534 L 7093.317 2379.134 L 7093.317 2376.734 L 7089.717 2374.334 L 7084.917 2370.734 L 7082.517 2368.334 L 7078.917 2365.934 L 7077.717 2364.735 L 7076.517 2364.735 L 7075.318 2365.934 L 7072.918 2367.134 L 7069.318 2365.934 L 7068.118 2365.934 L 7064.518 2364.735 L 7063.318 2364.735 L 7060.918 2363.535 L 7058.518 2364.735 L 7057.318 2364.735 L 7054.918 2363.535 L 7050.118 2362.335 L 7047.718 2361.135 L 7040.518 2363.535 L 7036.919 2367.134 L 7030.919 2367.134 L 7032.119 2368.334 L 7032.119 2369.534 L 7028.519 2369.534 L 7028.519 2373.134 L 7024.919 2373.134 L 7023.719 2374.334 L 7018.919 2376.734 L 7017.719 2379.134 L 7016.519 2379.134 L 7014.119 2377.934 L 7012.919 2375.534 L 7010.519 2375.534 L 7005.719 2374.334 L 7002.12 2375.534 L 7000.92 2381.534 L 7000.92 2383.934 L 7002.12 2386.334 L 7000.92 2387.534 L 6999.72 2388.734 L 6998.52 2389.934 L 6998.52 2393.534 L 6997.32 2397.134 L 6996.12 2398.334 L 6996.12 2399.534 L 6997.32 2400.734 L 6999.72 2399.534 L 6998.52 2401.934 L 6998.52 2403.133 L 6997.32 2403.133 L 6996.12 2405.533 L 6999.72 2410.333 L 6997.32 2410.333 L 6996.12 2411.533 L 6991.32 2412.733 L 6988.92 2411.533 L 6982.92 2411.533 L 6981.72 2412.733 L 6981.72 2413.933 L 6979.32 2416.333 L 6978.12 2417.533 L 6975.72 2419.933 L 6968.52 2419.933 L 6967.321 2418.733 L 6964.921 2419.933 L 6964.921 2421.133 L 6963.721 2421.133 L 6960.121 2422.333 L 6958.921 2422.333 L 6958.921 2423.533 L 6957.721 2424.733 L 6956.521 2424.733 L 6952.921 2427.133 L 6950.521 2427.133 L 6946.921 2429.533 L 6944.521 2429.533 L 6942.121 2428.333 L 6938.521 2429.533 L 6936.121 2429.533 L 6934.921 2430.733 L 6934.921 2434.333 L 6931.321 2436.733 L 6925.322 2435.533 L 6924.122 2436.733 L 6919.322 2436.733 L 6916.922 2439.132 L 6915.722 2439.132 L 6914.522 2441.532 L 6913.322 2440.332 L 6909.722 2440.332 L 6907.322 2437.933 L 6906.122 2437.933 L 6904.922 2439.132 L 6901.322 2435.533 L 6895.322 2434.333 L 6892.923 2435.533 L 6882.123 2435.533 L 6878.523 2436.733 L 6877.323 2433.133 L 6876.123 2431.933 L 6870.123 2436.733 L 6868.923 2437.933 L 6868.923 2439.132 L 6871.323 2440.332 L 6871.323 2441.532 L 6870.123 2443.932 L 6866.523 2443.932 L 6862.923 2441.532 L 6861.723 2440.332 L 6850.924 2440.332 L 6849.724 2439.132 L 6847.324 2440.332 L 6843.724 2440.332 L 6841.324 2441.532 L 6838.924 2441.532 L 6837.724 2442.732 L 6837.724 2451.132 L 6836.524 2452.332 L 6837.724 2453.532 L 6837.724 2455.932 L 6836.524 2455.932 L 6835.324 2458.332 L 6835.324 2459.532 L 6831.724 2459.532 L 6829.324 2460.732 L 6828.124 2459.532 L 6825.724 2460.732 L 6818.525 2457.132 L 6816.125 2455.932 L 6813.725 2457.132 L 6812.525 2458.332 L 6811.325 2459.532 L 6812.525 2463.132 L 6811.325 2465.532 L 6812.525 2466.732 L 6811.325 2467.932 L 6810.125 2466.732 L 6805.325 2465.532 L 6804.125 2469.132 L 6804.125 2471.532 L 6802.925 2472.732 L 6802.925 2484.731 L 6799.325 2487.131 L 6798.125 2488.331 L 6798.125 2489.531 L 6799.325 2489.531 L 6799.325 2491.931 L 6801.725 2491.931 L 6802.925 2493.131 L 6802.925 2495.531 L 6800.525 2496.731 L 6795.725 2497.931 L 6792.125 2499.131 L 6790.925 2500.331 L 6792.125 2503.931 L 6788.525 2503.931 L 6786.126 2502.731 L 6786.126 2503.931 L 6787.325 2505.131 L 6786.126 2505.131 L 6786.126 2506.331 L 6782.526 2506.331 L 6781.326 2507.531 L 6780.126 2509.931 L 6778.926 2511.13 L 6776.526 2509.931 L 6771.726 2509.931 L 6770.526 2512.33 L 6762.126 2515.93 L 6758.526 2518.33 L 6754.926 2518.33 L 6753.726 2520.73 L 6750.127 2524.33 L 6746.527 2525.53 L 6746.527 2527.93 L 6745.327 2529.13 L 6740.527 2529.13 L 6738.127 2530.33 L 6733.327 2527.93 L 6729.727 2523.13 L 6728.527 2523.13 L 6721.327 2521.93 L 6720.127 2518.33 L 6715.327 2513.53 L 6715.327 2506.331 L 6711.728 2507.531 L 6709.328 2506.331 L 6708.128 2505.131 L 6708.128 2503.931 L 6710.528 2502.731 L 6709.328 2500.331 L 6710.528 2497.931 L 6711.728 2497.931 L 6711.728 2496.731 L 6710.528 2493.131 L 6711.728 2490.731 L 6709.328 2487.131 L 6709.328 2484.731 L 6710.528 2481.131 L 6710.528 2476.331 L 6709.328 2475.131 L 6708.128 2473.932 L 6705.728 2473.932 L 6705.728 2472.732 L 6704.528 2472.732 L 6703.328 2471.532 L 6703.328 2467.932 L 6700.928 2466.732 L 6698.528 2467.932 L 6698.528 2470.332 L 6696.128 2470.332 L 6696.128 2469.132 L 6694.928 2470.332 L 6693.728 2469.132 L 6690.128 2469.132 L 6687.728 2470.332 L 6685.328 2469.132 L 6680.528 2469.132 L 6676.929 2471.532 L 6676.929 2470.332 L 6674.529 2470.332 L 6675.729 2466.732 L 6675.729 2465.532 L 6676.929 2465.532 L 6680.528 2464.332 L 6681.728 2463.132 L 6682.928 2463.132 L 6682.928 2461.932 L 6681.728 2460.732 L 6682.928 2459.532 L 6680.528 2459.532 L 6680.528 2458.332 L 6682.928 2458.332 L 6682.928 2457.132 L 6686.528 2457.132 L 6693.728 2452.332 L 6693.728 2449.932 L 6692.528 2448.732 L 6693.728 2447.532 L 6697.328 2446.332 L 6697.328 2442.732 L 6694.928 2442.732 L 6693.728 2441.532 L 6696.128 2440.332 L 6697.328 2439.132 L 6698.528 2440.332 L 6702.128 2437.933 L 6703.328 2436.733 L 6704.528 2436.733 L 6705.728 2437.933 L 6706.928 2439.132 L 6706.928 2437.933 L 6708.128 2436.733 L 6709.328 2436.733 L 6710.528 2434.333 L 6709.328 2434.333 L 6709.328 2433.133 L 6712.928 2428.333 L 6710.528 2425.933 L 6710.528 2422.333 L 6708.128 2419.933 L 6706.928 2418.733 L 6705.728 2416.333 L 6705.728 2415.133 L 6704.528 2413.933 L 6702.128 2411.533 L 6702.128 2406.733 L 6704.528 2405.533 L 6705.728 2401.934 L 6706.928 2398.334 L 6709.328 2395.934 L 6712.928 2393.534 L 6715.327 2389.934 L 6718.927 2389.934 L 6721.327 2387.534 L 6724.927 2387.534 L 6727.327 2385.134 L 6732.127 2383.934 L 6732.127 2382.734 L 6735.727 2381.534 L 6736.927 2382.734 L 6739.327 2380.334 L 6739.327 2379.134 L 6738.127 2379.134 L 6738.127 2376.734 L 6735.727 2375.534 L 6734.527 2374.334 L 6733.327 2371.934 L 6734.527 2370.734 L 6734.527 2369.534 L 6732.127 2369.534 L 6734.527 2365.934 L 6732.127 2363.535 L 6728.527 2361.135 L 6727.327 2361.135 L 6727.327 2362.335 L 6724.927 2362.335 L 6723.727 2359.935 L 6723.727 2358.735 L 6721.327 2357.535 L 6717.727 2357.535 L 6715.327 2356.335 L 6714.128 2355.135 L 6712.928 2356.335 L 6711.728 2353.935 L 6708.128 2353.935 L 6706.928 2351.535 L 6705.728 2349.135 L 6702.128 2346.735 L 6699.728 2345.535 L 6696.128 2343.135 L 6687.728 2343.135 L 6686.528 2345.535 L 6678.129 2345.535 L 6675.729 2349.135 L 6674.529 2351.535 L 6675.729 2353.935 L 6668.529 2357.535 L 6664.929 2357.535 L 6663.729 2358.735 L 6661.329 2357.535 L 6660.129 2357.535 L 6658.929 2358.735 L 6654.129 2357.535 L 6650.529 2358.735 L 6649.329 2359.935 L 6650.529 2362.335 L 6650.529 2364.735 L 6649.329 2365.934 L 6648.129 2369.534 L 6646.929 2369.534 L 6645.729 2370.734 L 6645.729 2371.934 L 6644.529 2373.134 L 6643.329 2374.334 L 6643.329 2379.134 L 6639.73 2380.334 L 6636.13 2381.534 L 6632.53 2383.934 L 6628.93 2385.134 L 6628.93 2387.534 L 6627.73 2388.734 L 6625.33 2389.934 L 6622.93 2388.734 L 6621.73 2389.934 L 6620.53 2387.534 L 6616.93 2389.934 L 6616.93 2392.334 L 6612.13 2393.534 L 6612.13 2397.134 L 6609.73 2398.334 L 6608.53 2398.334 L 6607.33 2401.934 L 6606.131 2401.934 L 6604.931 2404.333 L 6603.731 2405.533 L 6603.731 2406.733 L 6602.531 2407.933 L 6604.931 2409.133 L 6606.131 2410.333 L 6606.131 2412.733 L 6603.731 2413.933 L 6603.731 2415.133 L 6601.331 2412.733 L 6601.331 2410.333 L 6600.131 2410.333 L 6600.131 2407.933 L 6598.931 2406.733 L 6596.531 2406.733 L 6594.131 2410.333 L 6588.131 2410.333 L 6585.731 2411.533 L 6584.531 2412.733 L 6580.931 2417.533 L 6578.531 2418.733 L 6577.331 2419.933 L 6578.531 2421.133 L 6579.731 2422.333 L 6573.731 2422.333 L 6573.731 2425.933 L 6570.131 2428.333 L 6570.131 2430.733 L 6567.732 2431.933 L 6566.532 2433.133 L 6565.332 2434.333 L 6562.932 2433.133 L 6561.732 2434.333 L 6559.332 2434.333 L 6559.332 2431.933 L 6556.932 2430.733 L 6553.332 2429.533 L 6548.532 2433.133 L 6547.332 2434.333 L 6547.332 2439.132 L 6548.532 2441.532 L 6548.532 2442.732 L 6547.332 2443.932 L 6540.132 2442.732 L 6538.932 2441.532 L 6538.932 2440.332 L 6537.732 2439.132 L 6536.532 2437.933 L 6535.332 2435.533 L 6534.132 2435.533 L 6531.733 2434.333 L 6529.333 2436.733 L 6525.733 2439.132 L 6523.333 2440.332 L 6522.133 2441.532 L 6520.933 2442.732 L 6518.533 2442.732 L 6518.533 2443.932 L 6513.733 2443.932 L 6511.333 2445.132 L 6510.133 2443.932 L 6507.733 2441.532 L 6506.533 2436.733 L 6507.733 2434.333 L 6506.533 2433.133 L 6507.733 2431.933 L 6504.133 2431.933 L 6506.533 2428.333 L 6505.333 2427.133 L 6504.133 2425.933 L 6505.333 2423.533 L 6504.133 2423.533 L 6504.133 2419.933 L 6502.933 2418.733 L 6501.733 2419.933 L 6500.533 2418.733 L 6499.333 2419.933 L 6496.934 2416.333 L 6495.734 2417.533 L 6494.534 2418.733 L 6494.534 2419.933 L 6493.334 2421.133 L 6488.534 2422.333 L 6489.734 2423.533 L 6488.534 2425.933 L 6484.934 2425.933 L 6483.734 2423.533 L 6480.134 2423.533 L 6477.734 2425.933 L 6474.134 2425.933 L 6472.934 2427.133 L 6472.934 2429.533 L 6469.334 2429.533 L 6466.934 2430.733 L 6464.534 2429.533 L 6460.935 2430.733 L 6459.735 2429.533 L 6458.535 2430.733 L 6458.535 2428.333 L 6457.335 2430.733 L 6454.935 2430.733 L 6454.935 2428.333 L 6452.535 2427.133 L 6452.535 2424.733 L 6451.335 2422.333 L 6450.135 2422.333 L 6450.135 2418.733 L 6446.535 2417.533 L 6446.535 2416.333 L 6445.335 2416.333 L 6445.335 2415.133 L 6442.935 2412.733 L 6441.735 2412.733 L 6439.335 2407.933 L 6436.935 2407.933 L 6435.735 2405.533 L 6433.335 2405.533 L 6433.335 2404.333 L 6434.535 2403.133 L 6434.535 2399.534 L 6435.735 2398.334 L 6439.335 2398.334 L 6440.535 2397.134 L 6444.135 2395.934 L 6444.135 2394.734 L 6445.335 2393.534 L 6444.135 2392.334 L 6445.335 2391.134 L 6445.335 2388.734 L 6444.135 2387.534 L 6446.535 2387.534 L 6445.335 2386.334 L 6446.535 2383.934 L 6448.935 2381.534 L 6447.735 2379.134 L 6446.535 2377.934 L 6446.535 2376.734 L 6453.735 2375.534 L 6453.735 2374.334 L 6454.935 2373.134 L 6454.935 2371.934 L 6457.335 2371.934 L 6457.335 2368.334 L 6454.935 2368.334 L 6456.135 2365.934 L 6457.335 2364.735 L 6458.535 2361.135 L 6460.935 2357.535 L 6463.334 2355.135 L 6463.334 2350.335 L 6464.534 2349.135 L 6465.734 2346.735 L 6464.534 2343.135 L 6464.534 2340.735 L 6463.334 2340.735 L 6462.134 2338.335 L 6463.334 2337.135 L 6462.134 2335.935 L 6457.335 2338.335 L 6454.935 2337.135 L 6453.735 2335.935 L 6451.335 2334.735 L 6451.335 2332.335 L 6450.135 2331.135 L 6451.335 2328.736 L 6450.135 2327.536 L 6447.735 2327.536 L 6446.535 2326.336 L 6442.935 2326.336 L 6439.335 2327.536 L 6439.335 2325.136 L 6440.535 2323.936 L 6439.335 2322.736 L 6440.535 2321.536 L 6440.535 2316.736 L 6441.735 2315.536 L 6442.935 2313.136 L 6444.135 2309.536 L 6444.135 2308.336 L 6442.935 2307.136 L 6441.735 2305.936 L 6440.535 2304.736 L 6441.735 2302.336 L 6441.735 2301.136 L 6438.135 2299.936 L 6438.135 2297.536 L 6434.535 2296.336 L 6433.335 2296.336 L 6430.935 2295.136 L 6427.335 2292.737 L 6426.135 2292.737 L 6424.936 2291.537 L 6426.135 2290.337 L 6427.335 2290.337 L 6428.535 2287.937 L 6429.735 2287.937 L 6428.535 2286.737 L 6428.535 2285.537 L 6426.135 2285.537 L 6424.936 2283.137 L 6427.335 2281.937 L 6426.135 2279.537 L 6426.135 2277.137 L 6425.036 2275.937 Z " fill="#F3AA47" vector-effect="non-scaling-stroke" stroke-width="1" stroke-linejoin="miter" stroke-linecap="butt" stroke-miterlimit="4"/></svg>