<?xml version="1.0" standalone="no"?><!-- Generator: Gravit.io --><svg xmlns="http://www.w3.org/2000/svg" xmlns:xlink="http://www.w3.org/1999/xlink" style="isolation:isolate" viewBox="5965.848 2340.435 1161.868 405.989" width="1161.868" height="405.989"><path d=" M 5967.848 2602.828 L 5971.448 2602.828 L 5976.248 2600.428 L 5977.448 2599.228 L 5981.048 2594.428 L 5987.048 2594.428 L 5989.448 2593.228 L 5990.648 2592.028 L 5993.047 2592.028 L 5995.447 2589.628 L 5994.247 2586.028 L 5994.247 2583.628 L 5995.447 2583.628 L 5996.647 2582.429 L 5999.047 2582.429 L 6000.247 2581.229 L 6001.447 2580.029 L 6002.647 2578.829 L 6005.047 2574.029 L 6005.047 2571.629 L 6007.447 2571.629 L 6008.647 2572.829 L 6009.847 2572.829 L 6012.247 2571.629 L 6013.447 2569.229 L 6014.647 2569.229 L 6015.847 2568.029 L 6017.047 2564.429 L 6017.047 2560.829 L 6021.847 2562.029 L 6023.047 2556.029 L 6024.247 2552.429 L 6030.246 2551.229 L 6031.446 2547.629 L 6032.646 2547.629 L 6035.046 2546.43 L 6037.446 2548.829 L 6037.446 2550.029 L 6038.646 2551.229 L 6042.246 2553.629 L 6044.646 2556.029 L 6047.046 2553.629 L 6048.246 2551.229 L 6048.246 2546.43 L 6049.446 2545.23 L 6050.646 2545.23 L 6050.646 2541.63 L 6049.446 2541.63 L 6050.646 2539.23 L 6054.246 2539.23 L 6055.446 2540.43 L 6056.646 2542.83 L 6056.646 2544.03 L 6060.246 2544.03 L 6063.846 2540.43 L 6062.646 2535.63 L 6063.846 2534.43 L 6063.846 2533.23 L 6068.645 2532.03 L 6068.645 2529.63 L 6069.845 2529.63 L 6069.845 2527.23 L 6071.045 2526.03 L 6069.845 2521.23 L 6072.245 2520.03 L 6073.445 2518.83 L 6077.045 2517.63 L 6078.245 2516.43 L 6079.445 2515.23 L 6083.045 2515.23 L 6083.045 2514.03 L 6084.245 2511.63 L 6085.445 2510.43 L 6086.645 2508.031 L 6089.045 2508.031 L 6090.245 2506.831 L 6090.245 2504.431 L 6091.445 2503.231 L 6093.845 2503.231 L 6095.045 2502.031 L 6095.045 2500.831 L 6096.245 2499.631 L 6102.244 2502.031 L 6102.244 2500.831 L 6103.444 2499.631 L 6103.444 2497.231 L 6102.244 2496.031 L 6101.044 2493.631 L 6102.244 2488.831 L 6104.644 2482.831 L 6105.844 2479.231 L 6111.844 2468.432 L 6111.844 2464.832 L 6113.044 2450.432 L 6113.044 2448.032 L 6111.844 2444.432 L 6111.844 2443.232 L 6109.444 2440.832 L 6108.244 2439.632 L 6107.044 2439.632 L 6097.445 2436.033 L 6092.645 2434.833 L 6089.045 2431.233 L 6087.845 2424.033 L 6090.245 2416.833 L 6093.845 2409.633 L 6093.845 2401.234 L 6092.645 2400.034 L 6092.645 2398.834 L 6086.645 2391.634 L 6085.445 2390.434 L 6081.845 2380.834 L 6081.845 2378.434 L 6083.045 2376.034 L 6089.045 2374.834 L 6091.445 2373.634 L 6092.645 2371.234 L 6110.544 2364.035 L 6118.944 2362.835 L 6141.743 2362.835 L 6151.343 2360.435 L 6156.143 2362.835 L 6158.543 2362.835 L 6159.743 2364.035 L 6164.543 2371.234 L 6181.342 2367.634 L 6194.542 2365.235 L 6204.142 2365.235 L 6206.542 2362.835 L 6211.341 2364.035 L 6214.941 2362.835 L 6223.341 2353.235 L 6224.541 2353.235 L 6226.941 2354.435 L 6232.941 2352.035 L 6234.141 2350.835 L 6237.741 2352.035 L 6244.941 2352.035 L 6250.94 2350.835 L 6259.34 2349.635 L 6262.94 2349.635 L 6266.54 2348.435 L 6267.74 2348.435 L 6270.14 2350.835 L 6273.74 2353.235 L 6277.34 2353.235 L 6278.54 2354.435 L 6279.74 2354.435 L 6282.139 2358.035 L 6284.539 2360.435 L 6288.139 2362.835 L 6292.939 2366.434 L 6294.139 2366.434 L 6296.539 2368.834 L 6297.739 2371.234 L 6300.139 2373.634 L 6304.939 2374.834 L 6306.139 2374.834 L 6310.939 2377.234 L 6313.339 2378.434 L 6314.539 2378.434 L 6319.338 2382.034 L 6321.738 2384.434 L 6326.538 2389.234 L 6328.938 2390.434 L 6328.938 2391.634 L 6330.138 2396.434 L 6332.538 2400.034 L 6333.738 2401.234 L 6334.938 2401.234 L 6336.138 2402.433 L 6334.938 2402.433 L 6332.538 2404.833 L 6331.338 2406.033 L 6331.338 2409.633 L 6330.138 2410.833 L 6330.138 2413.233 L 6334.938 2413.233 L 6336.138 2412.033 L 6337.338 2413.233 L 6337.338 2414.433 L 6340.938 2415.633 L 6340.938 2419.233 L 6339.738 2420.433 L 6342.138 2420.433 L 6343.338 2419.233 L 6345.738 2419.233 L 6348.138 2418.033 L 6351.738 2419.233 L 6354.137 2422.833 L 6358.937 2422.833 L 6361.337 2424.033 L 6362.537 2427.633 L 6366.137 2430.033 L 6366.137 2432.433 L 6367.337 2434.833 L 6368.537 2439.632 L 6368.537 2442.032 L 6369.737 2444.432 L 6367.337 2446.832 L 6368.537 2448.032 L 6373.337 2444.432 L 6375.737 2440.832 L 6380.537 2442.032 L 6381.737 2440.832 L 6382.937 2440.832 L 6384.137 2444.432 L 6384.137 2445.632 L 6387.737 2446.832 L 6388.937 2445.632 L 6391.336 2445.632 L 6391.336 2443.232 L 6392.536 2442.032 L 6393.736 2439.632 L 6394.936 2437.233 L 6393.736 2434.833 L 6394.936 2432.433 L 6394.936 2430.033 L 6396.136 2430.033 L 6397.336 2428.833 L 6398.536 2430.033 L 6399.736 2430.033 L 6399.736 2427.633 L 6402.136 2427.633 L 6403.336 2428.833 L 6405.736 2427.633 L 6405.736 2424.033 L 6408.136 2421.633 L 6410.536 2422.833 L 6416.536 2422.833 L 6417.736 2419.233 L 6417.736 2416.833 L 6415.336 2415.633 L 6416.536 2413.233 L 6417.736 2413.233 L 6417.736 2414.433 L 6422.536 2414.433 L 6423.736 2413.233 L 6423.736 2412.033 L 6424.936 2413.233 L 6427.335 2412.033 L 6429.735 2412.033 L 6430.935 2409.633 L 6432.135 2408.433 L 6430.935 2407.233 L 6433.335 2406.033 L 6434.535 2406.033 L 6434.535 2404.833 L 6436.935 2404.833 L 6438.135 2407.233 L 6440.535 2407.233 L 6442.935 2412.033 L 6444.135 2412.033 L 6446.535 2414.433 L 6446.535 2415.633 L 6447.735 2415.633 L 6447.735 2416.833 L 6451.335 2418.033 L 6451.335 2421.633 L 6452.535 2421.633 L 6453.735 2424.033 L 6453.735 2426.433 L 6456.135 2427.633 L 6456.135 2430.033 L 6458.535 2430.033 L 6459.735 2427.633 L 6459.735 2430.033 L 6460.935 2428.833 L 6462.134 2430.033 L 6465.734 2428.833 L 6468.134 2430.033 L 6470.534 2428.833 L 6474.134 2428.833 L 6474.134 2426.433 L 6475.334 2425.233 L 6478.934 2425.233 L 6481.334 2422.833 L 6484.934 2422.833 L 6486.134 2425.233 L 6489.734 2425.233 L 6490.934 2422.833 L 6489.734 2421.633 L 6494.534 2420.433 L 6495.734 2419.233 L 6495.734 2418.033 L 6496.934 2416.833 L 6498.133 2415.633 L 6500.533 2419.233 L 6501.733 2418.033 L 6502.933 2419.233 L 6504.133 2418.033 L 6505.333 2419.233 L 6505.333 2422.833 L 6506.533 2422.833 L 6505.333 2425.233 L 6506.533 2426.433 L 6507.733 2427.633 L 6505.333 2431.233 L 6508.933 2431.233 L 6507.733 2432.433 L 6508.933 2433.633 L 6507.733 2436.033 L 6508.933 2440.832 L 6511.333 2443.232 L 6512.533 2444.432 L 6514.933 2443.232 L 6519.733 2443.232 L 6519.733 2442.032 L 6522.133 2442.032 L 6523.333 2440.832 L 6524.533 2439.632 L 6526.933 2438.432 L 6530.533 2436.033 L 6532.933 2433.633 L 6535.332 2434.833 L 6536.532 2434.833 L 6537.732 2437.233 L 6538.932 2438.432 L 6540.132 2439.632 L 6540.132 2440.832 L 6541.332 2442.032 L 6548.532 2443.232 L 6549.732 2442.032 L 6549.732 2440.832 L 6548.532 2438.432 L 6548.532 2433.633 L 6549.732 2432.433 L 6554.532 2428.833 L 6558.132 2430.033 L 6560.532 2431.233 L 6560.532 2433.633 L 6562.932 2433.633 L 6564.132 2432.433 L 6566.532 2433.633 L 6567.732 2432.433 L 6568.932 2431.233 L 6571.331 2430.033 L 6571.331 2427.633 L 6574.931 2425.233 L 6574.931 2421.633 L 6580.931 2421.633 L 6579.731 2420.433 L 6578.531 2419.233 L 6579.731 2418.033 L 6582.131 2416.833 L 6585.731 2412.033 L 6586.931 2410.833 L 6589.331 2409.633 L 6595.331 2409.633 L 6597.731 2406.033 L 6600.131 2406.033 L 6601.331 2407.233 L 6601.331 2409.633 L 6602.531 2409.633 L 6602.531 2412.033 L 6604.931 2414.433 L 6604.931 2413.233 L 6607.33 2412.033 L 6607.33 2409.633 L 6606.131 2408.433 L 6603.731 2407.233 L 6604.931 2406.033 L 6604.931 2404.833 L 6606.131 2403.633 L 6607.33 2401.234 L 6608.53 2401.234 L 6609.73 2397.634 L 6610.93 2397.634 L 6613.33 2396.434 L 6613.33 2392.834 L 6618.13 2391.634 L 6618.13 2389.234 L 6621.73 2386.834 L 6622.93 2389.234 L 6624.13 2388.034 L 6626.53 2389.234 L 6628.93 2388.034 L 6630.13 2386.834 L 6630.13 2384.434 L 6633.73 2383.234 L 6637.33 2380.834 L 6640.93 2379.634 L 6644.529 2378.434 L 6644.529 2373.634 L 6645.729 2372.434 L 6646.929 2371.234 L 6646.929 2370.034 L 6648.129 2368.834 L 6649.329 2368.834 L 6650.529 2365.235 L 6651.729 2364.035 L 6651.729 2361.635 L 6650.529 2359.235 L 6651.729 2358.035 L 6655.329 2356.835 L 6660.129 2358.035 L 6661.329 2356.835 L 6662.529 2356.835 L 6664.929 2358.035 L 6666.129 2356.835 L 6669.729 2356.835 L 6676.929 2353.235 L 6675.729 2350.835 L 6676.929 2348.435 L 6679.328 2344.835 L 6687.728 2344.835 L 6688.928 2342.435 L 6697.328 2342.435 L 6700.928 2344.835 L 6703.328 2346.035 L 6706.928 2348.435 L 6708.128 2350.835 L 6709.328 2353.235 L 6712.928 2353.235 L 6714.128 2355.635 L 6715.327 2354.435 L 6716.527 2355.635 L 6718.927 2356.835 L 6722.527 2356.835 L 6724.927 2358.035 L 6724.927 2359.235 L 6726.127 2361.635 L 6728.527 2361.635 L 6728.527 2360.435 L 6729.727 2360.435 L 6733.327 2362.835 L 6735.727 2365.235 L 6733.327 2368.834 L 6735.727 2368.834 L 6735.727 2370.034 L 6734.527 2371.234 L 6735.727 2373.634 L 6736.927 2374.834 L 6739.327 2376.034 L 6739.327 2378.434 L 6740.527 2378.434 L 6740.527 2379.634 L 6738.127 2382.034 L 6736.927 2380.834 L 6733.327 2382.034 L 6733.327 2383.234 L 6728.527 2384.434 L 6726.127 2386.834 L 6722.527 2386.834 L 6720.127 2389.234 L 6716.527 2389.234 L 6714.128 2392.834 L 6710.528 2395.234 L 6708.128 2397.634 L 6706.928 2401.234 L 6705.728 2404.833 L 6703.328 2406.033 L 6703.328 2410.833 L 6705.728 2413.233 L 6706.928 2414.433 L 6706.928 2415.633 L 6708.128 2418.033 L 6709.328 2419.233 L 6711.728 2421.633 L 6711.728 2425.233 L 6714.128 2427.633 L 6710.528 2432.433 L 6710.528 2433.633 L 6711.728 2433.633 L 6710.528 2436.033 L 6709.328 2436.033 L 6708.128 2437.233 L 6708.128 2438.432 L 6706.928 2437.233 L 6705.728 2436.033 L 6704.528 2436.033 L 6703.328 2437.233 L 6699.728 2439.632 L 6698.528 2438.432 L 6697.328 2439.632 L 6694.928 2440.832 L 6696.128 2442.032 L 6698.528 2442.032 L 6698.528 2445.632 L 6694.928 2446.832 L 6693.728 2448.032 L 6694.928 2449.232 L 6694.928 2451.632 L 6687.728 2456.432 L 6684.128 2456.432 L 6684.128 2457.632 L 6681.728 2457.632 L 6681.728 2458.832 L 6684.128 2458.832 L 6682.928 2460.032 L 6684.128 2461.232 L 6684.128 2462.432 L 6682.928 2462.432 L 6681.728 2463.632 L 6678.129 2464.832 L 6676.929 2464.832 L 6676.929 2466.032 L 6675.729 2469.632 L 6678.129 2469.632 L 6678.129 2470.832 L 6681.728 2468.432 L 6686.528 2468.432 L 6688.928 2469.632 L 6691.328 2468.432 L 6694.928 2468.432 L 6696.128 2469.632 L 6697.328 2468.432 L 6697.328 2469.632 L 6699.728 2469.632 L 6699.728 2467.232 L 6702.128 2466.032 L 6704.528 2467.232 L 6704.528 2470.832 L 6705.728 2472.032 L 6706.928 2472.032 L 6706.928 2473.232 L 6709.328 2473.232 L 6710.528 2474.431 L 6711.728 2475.631 L 6711.728 2480.431 L 6710.528 2484.031 L 6710.528 2486.431 L 6712.928 2490.031 L 6711.728 2492.431 L 6712.928 2496.031 L 6712.928 2497.231 L 6711.728 2497.231 L 6710.528 2499.631 L 6711.728 2502.031 L 6709.328 2503.231 L 6709.328 2504.431 L 6710.528 2505.631 L 6712.928 2506.831 L 6716.527 2505.631 L 6716.527 2512.83 L 6721.327 2517.63 L 6722.527 2521.23 L 6729.727 2522.43 L 6730.927 2522.43 L 6734.527 2527.23 L 6739.327 2529.63 L 6741.727 2528.43 L 6746.527 2528.43 L 6747.727 2527.23 L 6747.727 2524.83 L 6751.326 2523.63 L 6754.926 2520.03 L 6756.126 2517.63 L 6759.726 2517.63 L 6763.326 2515.23 L 6771.726 2511.63 L 6772.926 2509.231 L 6777.726 2509.231 L 6780.126 2510.43 L 6781.326 2509.231 L 6782.526 2506.831 L 6783.726 2505.631 L 6787.325 2505.631 L 6787.325 2504.431 L 6788.525 2504.431 L 6787.325 2503.231 L 6787.325 2502.031 L 6789.725 2503.231 L 6793.325 2503.231 L 6792.125 2499.631 L 6793.325 2498.431 L 6796.925 2497.231 L 6801.725 2496.031 L 6804.125 2494.831 L 6804.125 2492.431 L 6802.925 2491.231 L 6800.525 2491.231 L 6800.525 2488.831 L 6799.325 2488.831 L 6799.325 2487.631 L 6800.525 2486.431 L 6804.125 2484.031 L 6804.125 2472.032 L 6805.325 2470.832 L 6805.325 2468.432 L 6806.525 2464.832 L 6811.325 2466.032 L 6812.525 2467.232 L 6813.725 2466.032 L 6812.525 2464.832 L 6813.725 2462.432 L 6812.525 2458.832 L 6813.725 2457.632 L 6814.925 2456.432 L 6817.325 2455.232 L 6819.725 2456.432 L 6826.924 2460.032 L 6829.324 2458.832 L 6830.524 2460.032 L 6832.924 2458.832 L 6836.524 2458.832 L 6836.524 2457.632 L 6837.724 2455.232 L 6838.924 2455.232 L 6838.924 2452.832 L 6837.724 2451.632 L 6838.924 2450.432 L 6838.924 2442.032 L 6840.124 2440.832 L 6842.524 2440.832 L 6844.924 2439.632 L 6848.524 2439.632 L 6850.924 2438.432 L 6852.124 2439.632 L 6862.923 2439.632 L 6864.123 2440.832 L 6867.723 2443.232 L 6871.323 2443.232 L 6872.523 2440.832 L 6872.523 2439.632 L 6870.123 2438.432 L 6870.123 2437.233 L 6871.323 2436.033 L 6877.323 2431.233 L 6878.523 2432.433 L 6879.723 2436.033 L 6883.323 2434.833 L 6894.123 2434.833 L 6896.522 2433.633 L 6902.522 2434.833 L 6906.122 2438.432 L 6907.322 2437.233 L 6908.522 2437.233 L 6910.922 2439.632 L 6914.522 2439.632 L 6915.722 2440.832 L 6916.922 2438.432 L 6918.122 2438.432 L 6920.522 2436.033 L 6925.322 2436.033 L 6926.522 2434.833 L 6932.521 2436.033 L 6936.121 2433.633 L 6936.121 2430.033 L 6937.321 2428.833 L 6939.721 2428.833 L 6943.321 2427.633 L 6945.721 2428.833 L 6948.121 2428.833 L 6951.721 2426.433 L 6954.121 2426.433 L 6957.721 2424.033 L 6958.921 2424.033 L 6960.121 2422.833 L 6960.121 2421.633 L 6961.321 2421.633 L 6964.921 2420.433 L 6966.121 2420.433 L 6966.121 2419.233 L 6968.52 2418.033 L 6969.72 2419.233 L 6976.92 2419.233 L 6979.32 2416.833 L 6980.52 2415.633 L 6982.92 2413.233 L 6982.92 2412.033 L 6984.12 2410.833 L 6990.12 2410.833 L 6992.52 2412.033 L 6997.32 2410.833 L 6998.52 2409.633 L 7000.92 2409.633 L 6997.32 2404.833 L 6998.52 2402.433 L 6999.72 2402.433 L 6999.72 2401.234 L 7000.92 2398.834 L 6998.52 2400.034 L 6997.32 2398.834 L 6997.32 2397.634 L 6998.52 2396.434 L 6999.72 2392.834 L 6999.72 2389.234 L 7000.92 2388.034 L 7002.12 2386.834 L 7003.32 2385.634 L 7002.12 2383.234 L 7002.12 2380.834 L 7003.32 2374.834 L 7006.919 2373.634 L 7011.719 2374.834 L 7014.119 2374.834 L 7015.319 2377.234 L 7017.719 2378.434 L 7018.919 2378.434 L 7020.119 2376.034 L 7024.919 2373.634 L 7026.119 2372.434 L 7029.719 2372.434 L 7029.719 2368.834 L 7033.319 2368.834 L 7033.319 2367.634 L 7032.119 2366.434 L 7038.119 2366.434 L 7041.718 2362.835 L 7048.918 2360.435 L 7051.318 2361.635 L 7056.118 2362.835 L 7058.518 2364.035 L 7059.718 2364.035 L 7062.118 2362.835 L 7064.518 2364.035 L 7065.718 2364.035 L 7069.318 2365.235 L 7070.518 2365.235 L 7074.118 2366.434 L 7076.517 2365.235 L 7077.717 2364.035 L 7078.917 2364.035 L 7080.117 2365.235 L 7083.717 2367.634 L 7086.117 2370.034 L 7090.917 2373.634 L 7094.517 2376.034 L 7094.517 2378.434 L 7093.317 2380.834 L 7094.517 2383.234 L 7094.517 2384.434 L 7096.917 2386.834 L 7099.317 2390.434 L 7100.517 2390.434 L 7104.117 2388.034 L 7105.317 2389.234 L 7106.517 2390.434 L 7108.917 2390.434 L 7108.917 2391.634 L 7110.117 2391.634 L 7111.317 2389.234 L 7114.916 2391.634 L 7117.316 2390.434 L 7119.716 2391.634 L 7120.916 2391.634 L 7122.116 2392.834 L 7119.716 2392.834 L 7120.916 2395.234 L 7122.116 2397.634 L 7123.316 2398.834 L 7123.316 2401.234 L 7125.716 2403.633 L 7125.716 2406.033 L 7123.316 2409.633 L 7120.916 2416.833 L 7119.716 2416.833 L 7118.516 2418.033 L 7119.716 2419.233 L 7122.116 2419.233 L 7120.916 2421.633 L 7122.116 2424.033 L 7123.316 2427.633 L 7120.916 2436.033 L 7120.916 2439.632 L 7118.516 2439.632 L 7118.516 2440.832 L 7119.716 2443.232 L 7119.716 2445.632 L 7120.916 2445.632 L 7120.916 2451.632 L 7123.316 2454.032 L 7123.316 2458.832 L 7122.116 2467.232 L 7120.916 2472.032 L 7120.916 2475.631 L 7116.116 2480.431 L 7116.116 2482.831 L 7112.516 2491.231 L 7107.717 2504.431 L 7106.517 2508.031 L 7106.517 2511.63 L 7105.317 2515.23 L 7106.517 2515.23 L 7102.917 2521.23 L 7101.717 2524.83 L 7100.517 2527.23 L 7100.517 2528.43 L 7102.917 2529.63 L 7100.517 2535.63 L 7100.517 2536.83 L 7101.717 2536.83 L 7102.917 2538.03 L 7101.717 2539.23 L 7099.317 2539.23 L 7098.117 2540.43 L 7100.517 2542.83 L 7095.717 2553.629 L 7094.517 2558.429 L 7093.317 2560.829 L 7092.117 2563.229 L 7092.117 2566.829 L 7090.917 2568.029 L 7090.917 2570.429 L 7092.117 2572.829 L 7090.917 2574.029 L 7090.917 2577.629 L 7089.717 2577.629 L 7088.517 2576.429 L 7087.317 2577.629 L 7086.117 2578.829 L 7084.917 2581.229 L 7083.717 2582.429 L 7083.717 2586.028 L 7080.117 2592.028 L 7078.917 2593.228 L 7080.117 2596.828 L 7077.717 2598.028 L 7076.517 2600.428 L 7077.717 2602.828 L 7077.717 2604.028 L 7076.517 2605.228 L 7075.318 2607.628 L 7076.517 2610.028 L 7072.918 2614.828 L 7072.918 2617.228 L 7074.118 2617.228 L 7072.918 2619.627 L 7071.718 2619.627 L 7068.118 2624.427 L 7068.118 2628.027 L 7069.318 2631.627 L 7069.318 2632.827 L 7066.918 2634.027 L 7064.518 2641.227 L 7064.518 2638.827 L 7060.918 2636.427 L 7052.518 2636.427 L 7050.118 2635.227 L 7047.718 2636.427 L 7042.918 2634.027 L 7039.319 2634.027 L 7029.719 2631.627 L 7021.319 2629.227 L 7020.119 2626.827 L 7015.319 2626.827 L 7015.319 2628.027 L 7011.719 2628.027 L 7010.519 2626.827 L 7010.519 2625.627 L 7009.319 2625.627 L 7010.519 2623.227 L 7006.919 2623.227 L 7006.919 2624.427 L 7004.519 2624.427 L 7004.519 2625.627 L 7003.32 2624.427 L 7003.32 2623.227 L 7002.12 2624.427 L 7002.12 2623.227 L 6999.72 2623.227 L 6997.32 2625.627 L 6997.32 2623.227 L 6996.12 2624.427 L 6994.92 2625.627 L 6992.52 2625.627 L 6991.32 2628.027 L 6988.92 2628.027 L 6987.72 2629.227 L 6986.52 2631.627 L 6982.92 2631.627 L 6980.52 2634.027 L 6979.32 2635.227 L 6975.72 2635.227 L 6973.32 2637.627 L 6969.72 2637.627 L 6968.52 2640.027 L 6966.121 2638.827 L 6964.921 2640.027 L 6962.521 2640.027 L 6960.121 2641.227 L 6957.721 2640.027 L 6955.321 2638.827 L 6954.121 2637.627 L 6952.921 2637.627 L 6954.121 2636.427 L 6952.921 2635.227 L 6954.121 2632.827 L 6954.121 2630.427 L 6954.121 2631.627 L 6952.921 2629.227 L 6951.721 2629.227 L 6949.321 2631.627 L 6946.921 2630.427 L 6945.721 2632.827 L 6942.121 2632.827 L 6939.721 2630.427 L 6934.921 2631.627 L 6933.721 2630.427 L 6932.521 2631.627 L 6930.122 2631.627 L 6930.122 2632.827 L 6928.922 2635.227 L 6925.322 2635.227 L 6924.122 2636.427 L 6921.722 2637.627 L 6921.722 2638.827 L 6916.922 2638.827 L 6914.522 2641.227 L 6909.722 2640.027 L 6903.722 2641.227 L 6900.122 2646.027 L 6892.923 2648.427 L 6891.723 2650.827 L 6892.923 2653.227 L 6895.322 2654.427 L 6896.522 2656.826 L 6895.322 2658.026 L 6895.322 2659.226 L 6892.923 2661.626 L 6890.523 2662.826 L 6890.523 2664.026 L 6883.323 2664.026 L 6882.123 2665.226 L 6879.723 2665.226 L 6878.523 2668.826 L 6877.323 2670.026 L 6876.123 2670.026 L 6876.123 2672.426 L 6873.723 2674.826 L 6867.723 2674.826 L 6867.723 2677.226 L 6868.923 2678.426 L 6868.923 2682.026 L 6871.323 2682.026 L 6872.523 2683.226 L 6872.523 2685.626 L 6874.923 2686.826 L 6874.923 2688.026 L 6871.323 2689.226 L 6870.123 2688.026 L 6870.123 2689.226 L 6868.923 2689.226 L 6868.923 2688.026 L 6867.723 2688.026 L 6866.523 2686.826 L 6864.123 2688.026 L 6862.923 2688.026 L 6862.923 2689.226 L 6861.723 2688.026 L 6860.523 2689.226 L 6860.523 2688.026 L 6859.323 2689.226 L 6858.124 2690.426 L 6856.924 2692.825 L 6855.724 2694.025 L 6854.524 2694.025 L 6852.124 2692.825 L 6852.124 2694.025 L 6853.324 2695.225 L 6852.124 2696.425 L 6850.924 2697.625 L 6848.524 2696.425 L 6846.124 2697.625 L 6843.724 2697.625 L 6842.524 2696.425 L 6841.324 2698.825 L 6840.124 2697.625 L 6840.124 2695.225 L 6837.724 2695.225 L 6837.724 2696.425 L 6835.324 2697.625 L 6835.324 2698.825 L 6834.124 2698.825 L 6832.924 2700.025 L 6831.724 2701.225 L 6830.524 2700.025 L 6829.324 2700.025 L 6828.124 2702.425 L 6828.124 2703.625 L 6826.924 2704.825 L 6825.724 2706.025 L 6813.725 2709.625 L 6813.725 2714.425 L 6814.925 2714.425 L 6814.925 2716.825 L 6813.725 2716.825 L 6811.325 2718.025 L 6810.125 2718.025 L 6807.725 2719.225 L 6807.725 2716.825 L 6806.525 2716.825 L 6806.525 2715.625 L 6805.325 2716.825 L 6805.325 2715.625 L 6804.125 2716.825 L 6802.925 2715.625 L 6802.925 2714.425 L 6801.725 2714.425 L 6800.525 2713.225 L 6800.525 2714.425 L 6798.125 2713.225 L 6794.525 2708.425 L 6792.125 2707.225 L 6781.326 2706.025 L 6774.126 2709.625 L 6766.926 2709.625 L 6765.726 2707.225 L 6764.526 2706.025 L 6760.926 2706.025 L 6759.726 2707.225 L 6760.926 2707.225 L 6757.326 2708.425 L 6756.126 2708.425 L 6753.726 2710.825 L 6751.326 2715.625 L 6752.526 2716.825 L 6752.526 2718.025 L 6748.927 2720.425 L 6748.927 2722.825 L 6750.127 2724.025 L 6750.127 2725.225 L 6748.927 2725.225 L 6747.727 2726.425 L 6746.527 2726.425 L 6742.927 2722.825 L 6738.127 2720.425 L 6734.527 2714.425 L 6729.727 2714.425 L 6728.527 2712.025 L 6728.527 2714.425 L 6727.327 2712.025 L 6728.527 2708.425 L 6724.927 2703.625 L 6723.727 2702.425 L 6718.927 2700.025 L 6717.727 2700.025 L 6715.327 2703.625 L 6712.928 2704.825 L 6709.328 2707.225 L 6708.128 2706.025 L 6708.128 2702.425 L 6710.528 2700.025 L 6703.328 2695.225 L 6700.928 2696.425 L 6697.328 2700.025 L 6697.328 2694.025 L 6696.128 2694.025 L 6694.928 2691.625 L 6694.928 2689.226 L 6692.528 2686.826 L 6691.328 2685.626 L 6688.928 2683.226 L 6685.328 2678.426 L 6682.928 2676.026 L 6682.928 2673.626 L 6680.528 2673.626 L 6679.328 2671.226 L 6667.329 2666.426 L 6664.929 2664.026 L 6661.329 2661.626 L 6655.329 2661.626 L 6650.529 2656.826 L 6651.729 2655.626 L 6651.729 2650.827 L 6648.129 2650.827 L 6645.729 2649.627 L 6644.529 2649.627 L 6642.13 2648.427 L 6638.53 2652.027 L 6634.93 2650.827 L 6632.53 2652.027 L 6630.13 2654.427 L 6628.93 2656.826 L 6630.13 2658.026 L 6628.93 2659.226 L 6624.13 2659.226 L 6621.73 2658.026 L 6620.53 2656.826 L 6621.73 2655.626 L 6621.73 2654.427 L 6616.93 2656.826 L 6616.93 2654.427 L 6614.53 2655.626 L 6614.53 2654.427 L 6615.73 2653.227 L 6616.93 2652.027 L 6616.93 2648.427 L 6614.53 2647.227 L 6613.33 2644.827 L 6613.33 2643.627 L 6610.93 2641.227 L 6609.73 2638.827 L 6608.53 2637.627 L 6608.53 2636.427 L 6607.33 2636.427 L 6606.131 2635.227 L 6606.131 2632.827 L 6603.731 2630.427 L 6602.531 2631.627 L 6600.131 2631.627 L 6596.531 2635.227 L 6595.331 2635.227 L 6591.731 2637.627 L 6592.931 2638.827 L 6592.931 2641.227 L 6590.531 2643.627 L 6591.731 2644.827 L 6590.531 2652.027 L 6589.331 2653.227 L 6588.131 2655.626 L 6585.731 2658.026 L 6583.331 2659.226 L 6583.331 2660.426 L 6582.131 2664.026 L 6580.931 2662.826 L 6578.531 2664.026 L 6577.331 2666.426 L 6572.531 2671.226 L 6571.331 2673.626 L 6570.131 2674.826 L 6568.932 2676.026 L 6568.932 2677.226 L 6566.532 2679.626 L 6565.332 2683.226 L 6562.932 2684.426 L 6556.932 2684.426 L 6555.732 2686.826 L 6552.132 2686.826 L 6549.732 2688.026 L 6544.932 2688.026 L 6543.732 2689.226 L 6540.132 2692.825 L 6536.532 2696.425 L 6534.132 2701.225 L 6534.132 2704.825 L 6529.333 2709.625 L 6525.733 2710.825 L 6519.733 2716.825 L 6517.333 2709.625 L 6511.333 2696.525 L 6512.533 2694.125 L 6510.133 2688.126 L 6507.733 2684.526 L 6506.533 2683.326 L 6505.333 2682.126 L 6504.133 2677.326 L 6507.733 2673.726 L 6505.333 2673.726 L 6504.133 2671.326 L 6505.333 2668.926 L 6508.933 2666.526 L 6510.133 2665.326 L 6510.133 2664.126 L 6508.933 2660.526 L 6505.333 2656.926 L 6505.333 2654.527 L 6501.733 2654.527 L 6499.333 2655.726 L 6498.133 2655.726 L 6493.334 2660.526 L 6489.734 2664.126 L 6486.134 2662.926 L 6483.734 2661.726 L 6481.334 2660.526 L 6476.534 2656.926 L 6472.934 2653.327 L 6470.534 2649.727 L 6469.334 2647.327 L 6469.334 2646.127 L 6470.534 2644.927 L 6470.534 2643.727 L 6471.734 2642.527 L 6476.534 2638.927 L 6477.734 2636.527 L 6478.934 2631.727 L 6476.534 2629.327 L 6471.734 2625.727 L 6464.534 2624.527 L 6460.935 2625.727 L 6454.935 2635.327 L 6453.735 2637.727 L 6453.735 2648.527 L 6451.335 2653.327 L 6450.135 2653.327 L 6447.735 2654.527 L 6442.935 2652.127 L 6440.535 2647.327 L 6439.335 2644.927 L 6439.335 2641.327 L 6438.135 2635.327 L 6436.935 2631.727 L 6434.535 2629.327 L 6430.935 2628.127 L 6426.135 2623.327 L 6421.336 2619.727 L 6420.136 2618.528 L 6418.936 2618.528 L 6410.536 2617.328 L 6408.136 2617.328 L 6405.736 2618.528 L 6398.536 2619.727 L 6394.936 2620.927 L 6392.536 2620.927 L 6391.336 2619.727 L 6388.937 2618.528 L 6386.537 2613.728 L 6381.737 2611.328 L 6379.337 2608.928 L 6378.137 2608.928 L 6373.337 2607.728 L 6368.537 2606.528 L 6362.537 2605.328 L 6357.737 2604.128 L 6357.737 2602.928 L 6355.337 2600.528 L 6354.137 2601.728 L 6352.938 2602.928 L 6349.338 2604.128 L 6345.738 2602.928 L 6345.738 2604.128 L 6344.538 2604.128 L 6343.338 2602.928 L 6342.138 2601.728 L 6340.938 2599.328 L 6340.938 2592.128 L 6342.138 2590.928 L 6340.938 2588.528 L 6339.738 2587.328 L 6337.338 2586.128 L 6336.138 2582.529 L 6336.138 2580.129 L 6334.938 2577.729 L 6333.738 2576.529 L 6324.138 2576.529 L 6321.738 2574.129 L 6320.538 2572.929 L 6319.338 2571.729 L 6316.939 2571.729 L 6312.139 2572.929 L 6310.939 2572.929 L 6309.739 2576.529 L 6304.939 2576.529 L 6303.739 2577.729 L 6303.739 2580.129 L 6300.139 2582.529 L 6292.939 2584.928 L 6291.739 2586.128 L 6286.939 2587.328 L 6285.739 2588.528 L 6284.539 2589.728 L 6284.539 2590.928 L 6277.34 2593.328 L 6273.74 2593.328 L 6270.14 2594.528 L 6263.04 2594.528 L 6261.84 2598.128 L 6264.24 2602.928 L 6265.44 2608.928 L 6265.44 2612.528 L 6266.64 2616.128 L 6265.44 2617.328 L 6264.24 2618.528 L 6263.04 2619.727 L 6260.64 2619.727 L 6252.24 2618.528 L 6245.04 2623.327 L 6242.641 2623.327 L 6240.241 2622.127 L 6230.641 2624.527 L 6227.041 2625.727 L 6225.841 2626.927 L 6225.841 2631.727 L 6229.441 2638.927 L 6230.641 2643.727 L 6227.041 2650.927 L 6224.641 2652.127 L 6223.441 2655.726 L 6222.241 2656.926 L 6215.041 2665.326 L 6211.441 2666.526 L 6209.041 2667.726 L 6197.042 2667.726 L 6194.642 2670.126 L 6192.242 2672.526 L 6185.142 2676.126 L 6179.142 2676.126 L 6177.942 2673.726 L 6174.342 2671.326 L 6170.743 2667.726 L 6169.543 2667.726 L 6168.343 2666.526 L 6164.743 2666.526 L 6163.543 2667.726 L 6159.943 2671.326 L 6157.543 2678.426 L 6156.343 2684.426 L 6157.543 2689.226 L 6156.343 2692.825 L 6153.943 2706.025 L 6151.543 2708.425 L 6149.143 2715.625 L 6149.143 2720.425 L 6144.343 2725.225 L 6143.143 2725.225 L 6139.543 2724.025 L 6135.944 2720.425 L 6133.544 2720.425 L 6131.144 2722.825 L 6127.544 2730.024 L 6125.144 2733.624 L 6123.944 2732.424 L 6120.344 2731.224 L 6117.944 2731.224 L 6114.344 2732.424 L 6113.144 2733.624 L 6111.944 2738.424 L 6110.744 2738.424 L 6108.344 2740.824 L 6107.144 2742.024 L 6103.544 2742.024 L 6097.545 2744.424 L 6092.745 2743.224 L 6087.945 2742.024 L 6081.945 2738.424 L 6080.745 2737.224 L 6075.945 2737.224 L 6071.145 2739.624 L 6072.345 2737.224 L 6073.545 2734.824 L 6073.545 2731.224 L 6075.945 2730.024 L 6077.145 2730.024 L 6077.145 2726.425 L 6075.945 2724.025 L 6078.345 2721.625 L 6077.145 2719.225 L 6078.345 2718.025 L 6074.745 2713.225 L 6075.945 2712.025 L 6077.145 2712.025 L 6077.145 2710.825 L 6080.745 2712.025 L 6083.145 2710.825 L 6083.145 2708.425 L 6086.745 2707.225 L 6087.945 2706.025 L 6087.945 2703.625 L 6086.745 2703.625 L 6086.745 2701.225 L 6085.545 2698.825 L 6087.945 2695.225 L 6087.945 2694.025 L 6089.145 2691.625 L 6089.145 2688.026 L 6090.345 2685.626 L 6087.945 2684.426 L 6086.745 2682.026 L 6081.945 2682.026 L 6078.345 2679.626 L 6075.945 2678.426 L 6074.745 2678.426 L 6074.745 2676.026 L 6073.545 2676.026 L 6071.145 2674.826 L 6068.745 2676.026 L 6068.745 2674.826 L 6066.345 2674.826 L 6065.145 2672.426 L 6062.746 2671.226 L 6063.946 2668.826 L 6062.746 2667.626 L 6062.746 2664.026 L 6061.546 2662.826 L 6061.546 2660.426 L 6060.346 2658.026 L 6059.146 2655.626 L 6057.946 2653.227 L 6057.946 2647.227 L 6055.546 2647.227 L 6055.546 2642.427 L 6051.946 2641.227 L 6051.946 2638.827 L 6049.546 2636.427 L 6049.546 2631.627 L 6048.346 2631.627 L 6045.946 2629.227 L 6045.946 2626.827 L 6041.146 2628.027 L 6038.746 2628.027 L 6038.746 2625.627 L 6035.146 2624.427 L 6032.746 2625.627 L 6031.546 2625.627 L 6027.947 2628.027 L 6025.547 2626.827 L 6026.747 2622.027 L 6025.547 2617.228 L 6018.347 2617.228 L 6017.147 2618.428 L 6017.147 2617.228 L 6013.547 2617.228 L 6012.347 2614.828 L 6011.147 2613.628 L 6011.147 2612.428 L 6009.947 2611.228 L 6008.747 2608.828 L 6008.747 2607.628 L 6009.947 2606.428 L 6009.947 2605.228 L 6011.147 2602.828 L 6002.747 2604.028 L 6001.547 2602.828 L 6000.347 2604.028 L 5999.147 2602.828 L 5997.947 2604.028 L 5996.747 2602.828 L 5995.547 2604.028 L 5991.948 2602.828 L 5990.748 2602.828 L 5989.548 2604.028 L 5989.548 2605.228 L 5985.948 2605.228 L 5983.548 2607.628 L 5981.148 2608.828 L 5979.948 2608.828 L 5976.348 2606.428 L 5972.748 2606.428 L 5967.848 2602.828 Z " fill="#F3AA47" vector-effect="non-scaling-stroke" stroke-width="1" stroke-linejoin="miter" stroke-linecap="butt" stroke-miterlimit="4"/></svg>