<?xml version="1.0" standalone="no"?><!-- Generator: Gravit.io --><svg xmlns="http://www.w3.org/2000/svg" xmlns:xlink="http://www.w3.org/1999/xlink" style="isolation:isolate" viewBox="5148.271 1513.058 998.672 1496.559" width="998.672" height="1496.559"><path d=" M 5158.671 2885.32 L 5157.471 2878.12 L 5158.671 2875.72 L 5158.671 2873.32 L 5162.27 2873.32 L 5163.47 2869.721 L 5164.67 2868.521 L 5164.67 2867.321 L 5167.07 2866.121 L 5168.27 2862.521 L 5169.47 2858.921 L 5170.67 2857.721 L 5173.07 2850.621 L 5170.67 2848.221 L 5171.87 2848.221 L 5171.87 2845.821 L 5173.07 2841.021 L 5173.07 2839.821 L 5175.47 2837.421 L 5175.47 2835.022 L 5176.67 2831.422 L 5176.67 2830.222 L 5177.87 2827.822 L 5176.67 2824.222 L 5175.47 2823.022 L 5174.27 2821.822 L 5174.27 2815.822 L 5173.07 2814.622 L 5173.07 2813.422 L 5175.47 2809.822 L 5175.47 2808.622 L 5176.67 2803.822 L 5176.67 2802.622 L 5177.87 2801.422 L 5180.27 2800.222 L 5181.47 2796.623 L 5181.47 2794.223 L 5180.27 2791.823 L 5181.47 2790.623 L 5180.27 2788.223 L 5180.27 2787.023 L 5179.07 2785.823 L 5180.27 2784.623 L 5177.87 2783.423 L 5180.27 2779.823 L 5179.07 2775.023 L 5180.27 2771.423 L 5180.27 2770.223 L 5181.47 2770.223 L 5181.47 2769.023 L 5180.27 2766.623 L 5179.07 2765.423 L 5177.87 2764.223 L 5179.07 2763.024 L 5177.87 2760.624 L 5177.87 2758.224 L 5180.27 2755.824 L 5179.07 2753.424 L 5181.47 2752.224 L 5181.47 2751.024 L 5182.67 2747.424 L 5185.07 2746.224 L 5185.07 2745.024 L 5187.47 2743.824 L 5186.27 2741.424 L 5187.47 2740.224 L 5186.27 2740.224 L 5187.47 2739.024 L 5186.27 2737.824 L 5186.27 2736.624 L 5185.07 2736.624 L 5186.27 2735.424 L 5185.07 2735.424 L 5185.07 2731.824 L 5181.47 2727.025 L 5180.27 2724.625 L 5177.87 2722.225 L 5176.67 2721.025 L 5174.27 2721.025 L 5171.87 2719.825 L 5170.67 2718.625 L 5169.47 2719.825 L 5168.27 2718.625 L 5169.47 2716.225 L 5168.27 2716.225 L 5168.27 2713.825 L 5167.07 2713.825 L 5167.07 2712.625 L 5165.87 2710.225 L 5165.87 2709.025 L 5168.27 2709.025 L 5168.27 2706.625 L 5167.07 2704.225 L 5167.07 2701.825 L 5168.27 2698.225 L 5167.07 2698.225 L 5167.07 2694.625 L 5165.87 2691.025 L 5167.07 2691.025 L 5168.27 2689.826 L 5165.87 2687.426 L 5164.67 2686.226 L 5163.47 2682.626 L 5162.27 2681.426 L 5162.27 2674.226 L 5163.47 2674.226 L 5163.47 2671.826 L 5162.27 2671.826 L 5162.27 2668.226 L 5161.071 2667.026 L 5159.871 2665.826 L 5161.071 2663.426 L 5159.871 2661.026 L 5159.871 2658.626 L 5156.271 2656.226 L 5155.071 2652.627 L 5152.671 2650.227 L 5152.671 2649.027 L 5151.471 2645.427 L 5150.271 2643.027 L 5152.671 2640.627 L 5152.671 2634.627 L 5155.071 2633.427 L 5153.871 2632.227 L 5155.071 2631.027 L 5156.271 2628.627 L 5157.471 2627.427 L 5158.671 2627.427 L 5159.871 2626.227 L 5159.871 2625.027 L 5157.471 2623.827 L 5156.271 2622.627 L 5157.471 2620.227 L 5159.871 2619.027 L 5161.071 2616.628 L 5161.071 2615.428 L 5162.27 2615.428 L 5165.87 2611.828 L 5168.27 2613.028 L 5169.47 2608.228 L 5171.87 2607.028 L 5174.27 2607.028 L 5173.07 2604.628 L 5175.47 2603.428 L 5177.87 2603.428 L 5181.47 2595.028 L 5182.67 2593.828 L 5181.47 2592.628 L 5182.67 2589.028 L 5183.87 2586.628 L 5185.07 2586.628 L 5185.07 2585.428 L 5188.67 2586.628 L 5191.07 2584.228 L 5186.27 2581.829 L 5186.27 2580.629 L 5191.07 2577.029 L 5192.27 2575.829 L 5192.27 2573.429 L 5193.47 2572.229 L 5192.27 2569.829 L 5193.47 2568.629 L 5195.87 2565.029 L 5194.67 2563.829 L 5195.87 2560.229 L 5194.67 2555.429 L 5195.87 2554.229 L 5197.07 2551.829 L 5197.07 2548.229 L 5199.469 2547.029 L 5198.269 2545.83 L 5200.669 2544.63 L 5201.869 2544.63 L 5203.069 2543.43 L 5201.869 2541.03 L 5204.269 2539.83 L 5204.269 2535.03 L 5206.669 2532.63 L 5206.669 2529.03 L 5209.069 2526.63 L 5209.069 2519.43 L 5218.669 2511.03 L 5217.469 2508.631 L 5218.669 2507.431 L 5219.869 2505.031 L 5222.269 2505.031 L 5223.469 2502.631 L 5222.269 2499.031 L 5223.469 2496.631 L 5224.669 2494.231 L 5223.469 2491.831 L 5225.869 2487.031 L 5225.869 2483.431 L 5227.069 2482.231 L 5224.669 2478.631 L 5227.069 2476.231 L 5229.469 2476.231 L 5229.469 2475.031 L 5225.869 2472.632 L 5228.269 2469.032 L 5229.469 2467.832 L 5229.469 2466.632 L 5228.269 2465.432 L 5229.469 2464.232 L 5230.669 2463.032 L 5230.669 2459.432 L 5231.869 2459.432 L 5234.268 2458.232 L 5234.268 2457.032 L 5230.669 2454.632 L 5234.268 2453.432 L 5234.268 2452.232 L 5231.869 2451.032 L 5230.669 2448.632 L 5231.869 2448.632 L 5233.069 2447.432 L 5233.069 2445.032 L 5235.468 2443.832 L 5236.668 2441.432 L 5235.468 2437.833 L 5237.868 2436.633 L 5237.868 2434.233 L 5239.068 2435.433 L 5240.268 2434.233 L 5239.068 2433.033 L 5240.268 2430.633 L 5239.068 2428.233 L 5240.268 2427.033 L 5240.268 2428.233 L 5241.468 2428.233 L 5241.468 2427.033 L 5240.268 2424.633 L 5241.468 2422.233 L 5243.868 2421.033 L 5243.868 2417.433 L 5245.068 2417.433 L 5247.468 2416.233 L 5245.068 2415.033 L 5245.068 2413.833 L 5246.268 2413.833 L 5248.668 2415.033 L 5249.868 2415.033 L 5248.668 2412.633 L 5249.868 2411.433 L 5252.268 2411.433 L 5253.468 2410.233 L 5253.468 2409.033 L 5254.668 2409.033 L 5255.868 2407.833 L 5255.868 2405.433 L 5257.068 2403.033 L 5258.268 2403.033 L 5260.668 2404.233 L 5265.468 2399.434 L 5266.668 2397.034 L 5269.068 2395.834 L 5273.867 2395.834 L 5276.267 2394.634 L 5279.867 2395.834 L 5282.267 2393.434 L 5283.467 2392.234 L 5284.667 2392.234 L 5287.067 2393.434 L 5287.067 2394.634 L 5288.267 2394.634 L 5290.667 2392.234 L 5294.267 2391.034 L 5295.467 2387.434 L 5299.067 2385.034 L 5300.267 2386.234 L 5302.667 2386.234 L 5303.867 2385.034 L 5311.066 2382.634 L 5314.666 2383.834 L 5315.866 2383.834 L 5318.266 2385.034 L 5323.066 2381.434 L 5325.466 2381.434 L 5327.866 2379.034 L 5331.466 2379.034 L 5333.866 2377.834 L 5337.466 2376.634 L 5338.666 2377.834 L 5339.866 2376.634 L 5341.066 2374.234 L 5342.265 2371.834 L 5343.465 2369.434 L 5344.665 2368.234 L 5347.065 2369.434 L 5349.465 2368.234 L 5350.665 2365.835 L 5351.865 2364.635 L 5351.865 2363.435 L 5353.065 2362.235 L 5357.865 2359.835 L 5359.065 2357.435 L 5363.865 2358.635 L 5365.065 2359.835 L 5372.265 2357.435 L 5374.665 2362.235 L 5377.065 2363.435 L 5381.864 2363.435 L 5383.064 2357.435 L 5384.264 2356.235 L 5385.464 2351.435 L 5386.664 2351.435 L 5389.064 2350.235 L 5390.264 2349.035 L 5393.864 2347.835 L 5397.464 2341.835 L 5397.464 2340.635 L 5401.064 2338.235 L 5402.264 2337.035 L 5403.464 2333.435 L 5409.464 2332.235 L 5410.664 2332.235 L 5411.864 2327.436 L 5414.264 2325.036 L 5416.663 2325.036 L 5416.663 2323.836 L 5421.463 2321.436 L 5426.263 2320.236 L 5429.863 2316.636 L 5432.263 2314.236 L 5435.863 2313.036 L 5438.263 2313.036 L 5444.263 2310.636 L 5447.863 2313.036 L 5449.063 2313.036 L 5452.662 2307.036 L 5455.062 2304.636 L 5455.062 2303.436 L 5453.862 2299.836 L 5455.062 2297.436 L 5456.262 2295.036 L 5456.262 2291.437 L 5461.062 2291.437 L 5467.062 2284.237 L 5467.062 2279.437 L 5469.462 2278.237 L 5471.862 2278.237 L 5471.862 2272.237 L 5474.262 2268.637 L 5479.062 2266.237 L 5480.262 2262.637 L 5481.462 2261.437 L 5482.662 2261.437 L 5482.662 2265.037 L 5485.062 2265.037 L 5486.262 2262.637 L 5482.662 2257.837 L 5482.662 2255.438 L 5487.461 2255.438 L 5489.861 2259.037 L 5491.061 2259.037 L 5492.261 2256.638 L 5492.261 2251.838 L 5493.461 2249.438 L 5495.861 2249.438 L 5497.061 2248.238 L 5505.461 2247.038 L 5507.861 2244.638 L 5510.261 2244.638 L 5512.661 2245.838 L 5512.661 2248.238 L 5515.061 2249.438 L 5516.261 2249.438 L 5517.461 2247.038 L 5518.661 2245.838 L 5524.66 2247.038 L 5529.46 2243.438 L 5535.46 2242.238 L 5536.66 2239.838 L 5537.86 2238.638 L 5539.06 2237.438 L 5542.66 2239.838 L 5545.06 2237.438 L 5551.06 2237.438 L 5553.46 2236.238 L 5554.66 2236.238 L 5554.66 2237.438 L 5555.86 2238.638 L 5560.659 2237.438 L 5563.059 2238.638 L 5566.659 2239.838 L 5570.259 2243.438 L 5573.859 2244.638 L 5576.259 2247.038 L 5578.659 2247.038 L 5578.659 2245.838 L 5581.059 2245.838 L 5582.259 2247.038 L 5582.259 2248.238 L 5583.459 2251.838 L 5584.659 2253.038 L 5590.659 2255.438 L 5591.859 2256.638 L 5593.059 2259.037 L 5594.259 2261.437 L 5599.058 2263.837 L 5599.058 2262.637 L 5601.458 2261.437 L 5605.058 2262.637 L 5607.458 2262.637 L 5609.858 2261.437 L 5611.058 2261.437 L 5611.058 2257.837 L 5615.858 2259.037 L 5618.258 2254.238 L 5625.458 2255.438 L 5630.258 2254.238 L 5633.857 2251.838 L 5635.057 2249.438 L 5636.257 2249.438 L 5643.457 2248.238 L 5649.457 2249.438 L 5653.057 2251.838 L 5656.657 2251.838 L 5661.457 2249.438 L 5665.057 2245.838 L 5668.656 2245.838 L 5671.056 2248.238 L 5673.456 2248.238 L 5678.256 2247.038 L 5679.456 2247.038 L 5681.856 2244.638 L 5683.056 2239.838 L 5689.056 2237.438 L 5693.856 2231.438 L 5695.056 2227.838 L 5695.056 2225.438 L 5696.256 2218.239 L 5699.856 2213.439 L 5699.856 2207.439 L 5702.256 2202.639 L 5699.856 2201.439 L 5699.856 2200.239 L 5701.056 2199.039 L 5703.455 2197.839 L 5702.256 2194.239 L 5703.455 2190.639 L 5701.056 2187.039 L 5701.056 2185.839 L 5704.655 2179.84 L 5704.655 2176.24 L 5705.855 2175.04 L 5709.455 2171.44 L 5709.455 2170.24 L 5708.255 2169.04 L 5705.855 2170.24 L 5704.655 2169.04 L 5705.855 2165.44 L 5707.055 2160.64 L 5705.855 2158.24 L 5705.855 2155.84 L 5704.655 2154.64 L 5703.455 2152.24 L 5703.455 2151.04 L 5702.256 2151.04 L 5698.656 2149.84 L 5695.056 2148.641 L 5691.456 2143.841 L 5687.856 2143.841 L 5685.456 2141.441 L 5684.256 2140.241 L 5683.056 2133.041 L 5683.056 2131.841 L 5680.656 2130.641 L 5678.256 2129.441 L 5673.456 2129.441 L 5671.056 2127.041 L 5669.856 2122.241 L 5666.257 2118.641 L 5666.257 2117.441 L 5667.456 2116.241 L 5669.856 2115.041 L 5669.856 2113.841 L 5671.056 2112.642 L 5671.056 2107.842 L 5669.856 2106.642 L 5667.456 2104.242 L 5665.057 2101.842 L 5665.057 2099.442 L 5663.857 2094.642 L 5662.657 2093.442 L 5662.657 2091.042 L 5666.257 2085.042 L 5662.657 2077.842 L 5663.857 2074.243 L 5662.657 2071.843 L 5661.457 2065.843 L 5662.657 2063.443 L 5662.657 2062.243 L 5666.257 2062.243 L 5666.257 2059.843 L 5663.857 2051.443 L 5665.057 2045.443 L 5665.057 2044.243 L 5663.857 2043.043 L 5662.657 2041.843 L 5662.657 2039.444 L 5663.857 2038.244 L 5665.057 2035.844 L 5671.056 2034.644 L 5673.456 2034.644 L 5674.656 2032.244 L 5675.856 2028.644 L 5679.456 2026.244 L 5680.656 2019.044 L 5684.256 2015.444 L 5684.256 2014.244 L 5685.456 2009.444 L 5686.656 2008.244 L 5691.456 2007.044 L 5693.856 2004.645 L 5695.056 1999.845 L 5696.256 1998.645 L 5701.056 1997.445 L 5703.455 1996.245 L 5703.455 1993.845 L 5708.255 1991.445 L 5710.655 1990.245 L 5711.855 1987.845 L 5713.055 1981.845 L 5713.055 1978.245 L 5710.655 1972.245 L 5710.655 1969.845 L 5715.455 1963.846 L 5715.455 1960.246 L 5714.255 1954.246 L 5713.055 1950.646 L 5711.855 1943.446 L 5709.455 1939.846 L 5708.255 1939.846 L 5708.255 1932.646 L 5704.655 1924.247 L 5704.655 1921.847 L 5705.855 1915.847 L 5703.455 1913.447 L 5703.455 1912.247 L 5698.656 1907.447 L 5698.656 1901.447 L 5697.456 1897.847 L 5691.456 1891.848 L 5690.256 1891.848 L 5689.056 1888.248 L 5689.056 1884.648 L 5692.656 1881.048 L 5693.856 1878.648 L 5693.856 1876.248 L 5690.256 1873.848 L 5689.056 1872.648 L 5687.856 1870.248 L 5689.056 1867.848 L 5691.456 1865.448 L 5693.856 1864.248 L 5693.856 1863.048 L 5695.056 1861.848 L 5701.056 1853.449 L 5702.256 1851.049 L 5703.455 1848.649 L 5703.455 1847.449 L 5702.256 1842.649 L 5704.655 1839.049 L 5704.655 1835.449 L 5705.855 1835.449 L 5705.855 1831.849 L 5702.256 1829.449 L 5701.056 1827.049 L 5702.256 1822.25 L 5699.856 1819.85 L 5692.656 1815.05 L 5692.656 1813.85 L 5691.456 1813.85 L 5689.056 1815.05 L 5686.656 1815.05 L 5686.656 1805.45 L 5683.056 1799.45 L 5683.056 1797.05 L 5681.856 1791.05 L 5681.856 1787.451 L 5683.056 1783.851 L 5690.256 1775.451 L 5691.456 1774.251 L 5692.656 1773.051 L 5699.856 1773.051 L 5699.856 1771.851 L 5696.256 1769.451 L 5697.456 1767.051 L 5698.656 1765.851 L 5702.256 1764.651 L 5704.655 1762.251 L 5704.655 1758.651 L 5707.055 1751.452 L 5708.255 1750.252 L 5710.655 1743.052 L 5713.055 1743.052 L 5714.255 1744.252 L 5715.455 1744.252 L 5716.655 1740.652 L 5717.855 1737.052 L 5726.255 1731.052 L 5728.655 1728.652 L 5728.655 1721.452 L 5735.855 1709.453 L 5737.055 1708.253 L 5738.255 1707.053 L 5737.055 1704.653 L 5735.855 1701.053 L 5737.055 1699.853 L 5738.255 1697.453 L 5738.255 1695.053 L 5735.855 1690.253 L 5735.855 1687.853 L 5737.055 1685.453 L 5740.654 1681.853 L 5744.254 1677.054 L 5746.654 1677.054 L 5747.854 1674.654 L 5747.854 1673.454 L 5749.054 1669.854 L 5752.654 1667.454 L 5755.054 1666.254 L 5757.454 1663.854 L 5762.254 1657.854 L 5762.254 1654.254 L 5763.454 1651.854 L 5767.054 1649.454 L 5767.054 1645.854 L 5768.254 1643.455 L 5769.454 1644.654 L 5770.654 1644.654 L 5770.654 1648.254 L 5773.054 1650.654 L 5775.454 1650.654 L 5777.853 1649.454 L 5780.253 1645.854 L 5782.653 1645.854 L 5782.653 1648.254 L 5783.853 1649.454 L 5786.253 1648.254 L 5787.453 1645.854 L 5787.453 1643.455 L 5791.053 1644.654 L 5793.453 1644.654 L 5798.253 1641.055 L 5799.453 1642.255 L 5804.253 1644.654 L 5805.453 1644.654 L 5807.853 1643.455 L 5813.852 1641.055 L 5819.852 1642.255 L 5821.052 1641.055 L 5821.052 1642.255 L 5822.252 1639.855 L 5821.052 1636.255 L 5823.452 1635.055 L 5823.452 1633.855 L 5829.452 1632.655 L 5831.852 1627.855 L 5834.252 1626.655 L 5834.252 1623.055 L 5835.452 1620.655 L 5836.652 1619.455 L 5839.052 1619.455 L 5839.052 1615.855 L 5833.052 1615.855 L 5833.052 1613.455 L 5834.252 1612.255 L 5836.652 1609.855 L 5842.652 1609.855 L 5845.052 1608.655 L 5851.051 1607.455 L 5854.651 1607.455 L 5857.051 1606.256 L 5859.451 1602.656 L 5860.651 1602.656 L 5860.651 1601.456 L 5861.851 1597.856 L 5863.051 1595.456 L 5864.251 1595.456 L 5866.651 1596.656 L 5867.851 1596.656 L 5867.851 1589.456 L 5870.251 1587.056 L 5870.251 1582.256 L 5871.451 1581.056 L 5873.851 1579.856 L 5876.251 1578.656 L 5879.851 1573.856 L 5881.051 1571.456 L 5885.85 1567.857 L 5888.25 1566.657 L 5889.45 1560.657 L 5889.45 1559.457 L 5893.05 1555.857 L 5891.85 1552.257 L 5890.65 1551.057 L 5885.85 1547.457 L 5884.65 1546.257 L 5882.251 1542.657 L 5879.851 1540.257 L 5881.051 1535.457 L 5881.051 1531.858 L 5884.65 1530.658 L 5884.65 1529.458 L 5883.451 1527.058 L 5883.451 1521.058 L 5887.05 1517.458 L 5889.45 1515.058 L 5891.85 1516.258 L 5894.25 1521.058 L 5900.25 1525.858 L 5903.85 1527.058 L 5905.05 1527.058 L 5912.15 1534.258 L 5916.95 1536.657 L 5916.95 1537.857 L 5921.749 1541.457 L 5928.949 1545.057 L 5930.149 1545.057 L 5933.749 1543.857 L 5934.949 1543.857 L 5938.549 1546.257 L 5943.349 1546.257 L 5945.749 1543.857 L 5948.149 1543.857 L 5954.149 1545.057 L 5955.349 1546.257 L 5956.548 1545.057 L 5958.948 1546.257 L 5962.548 1545.057 L 5967.348 1547.457 L 5968.548 1547.457 L 5973.348 1549.857 L 5974.548 1548.657 L 5975.748 1548.657 L 5975.748 1553.457 L 5976.948 1553.457 L 5976.948 1554.657 L 5980.548 1557.057 L 5985.348 1557.057 L 5985.348 1559.457 L 5987.748 1563.057 L 5987.748 1565.457 L 5988.948 1567.857 L 5987.748 1567.857 L 5988.948 1569.057 L 5987.748 1571.456 L 5987.748 1572.656 L 5986.548 1575.056 L 5987.748 1575.056 L 5987.748 1578.656 L 5985.348 1579.856 L 5985.348 1581.056 L 5982.948 1581.056 L 5982.948 1583.456 L 5980.548 1585.856 L 5976.948 1589.456 L 5975.748 1591.856 L 5975.748 1595.456 L 5964.948 1614.655 L 5962.548 1620.655 L 5962.548 1621.855 L 5960.148 1624.255 L 5960.148 1626.655 L 5958.948 1629.055 L 5958.948 1630.255 L 5962.548 1629.055 L 5962.548 1635.055 L 5963.748 1635.055 L 5964.948 1637.455 L 5972.148 1637.455 L 5972.148 1644.554 L 5974.548 1646.954 L 5975.748 1651.754 L 5975.748 1652.954 L 5978.148 1651.754 L 5980.548 1651.754 L 5976.948 1652.954 L 5975.748 1654.154 L 5975.748 1660.154 L 5973.348 1663.754 L 5968.548 1663.754 L 5968.548 1664.954 L 5967.348 1666.154 L 5967.348 1667.354 L 5969.748 1668.554 L 5972.148 1669.754 L 5974.548 1675.754 L 5973.348 1684.153 L 5972.148 1685.353 L 5973.348 1686.553 L 5975.748 1687.753 L 5981.748 1687.753 L 5984.148 1690.153 L 5987.748 1690.153 L 5991.348 1692.553 L 5991.348 1693.753 L 5988.948 1693.753 L 5987.748 1694.953 L 5986.548 1700.953 L 5988.948 1703.353 L 5986.548 1706.953 L 5980.548 1712.953 L 5980.548 1714.153 L 5982.948 1711.753 L 5982.948 1712.953 L 5984.148 1712.953 L 5985.348 1716.552 L 5985.348 1717.752 L 5986.548 1718.952 L 5987.748 1720.152 L 5987.748 1721.352 L 5988.948 1723.752 L 5990.148 1726.152 L 5992.547 1728.552 L 5994.947 1733.352 L 5992.547 1739.352 L 5991.348 1739.352 L 5991.348 1740.552 L 5990.148 1740.552 L 5990.148 1741.752 L 5988.948 1742.952 L 5990.148 1745.352 L 5991.348 1747.752 L 5987.748 1750.152 L 5987.748 1751.352 L 5988.948 1751.352 L 5991.348 1750.152 L 5993.747 1748.952 L 5996.147 1748.952 L 5998.547 1747.752 L 5999.747 1748.952 L 6000.947 1747.752 L 6000.947 1748.952 L 6003.347 1750.152 L 6004.547 1750.152 L 6008.147 1751.352 L 6011.747 1751.352 L 6012.947 1752.551 L 6012.947 1753.751 L 6010.547 1756.151 L 6011.747 1758.551 L 6009.347 1765.751 L 6008.147 1766.951 L 6010.547 1770.551 L 6010.547 1772.951 L 6012.947 1774.151 L 6017.747 1775.351 L 6015.347 1777.751 L 6009.347 1787.351 L 6011.747 1801.75 L 6011.747 1805.35 L 6009.347 1806.55 L 6006.947 1811.35 L 6004.547 1813.75 L 6004.547 1819.75 L 6002.147 1824.549 L 6002.147 1830.549 L 5999.747 1834.149 L 5999.747 1838.949 L 5997.347 1841.349 L 5996.147 1844.949 L 5994.947 1844.949 L 5993.747 1848.549 L 5990.148 1848.549 L 5991.348 1849.749 L 5993.747 1849.749 L 5993.747 1852.149 L 5992.547 1855.749 L 5992.547 1858.149 L 5997.347 1860.548 L 6000.947 1865.348 L 6002.147 1866.548 L 5997.347 1872.548 L 5992.547 1877.348 L 5991.348 1879.748 L 5991.348 1880.948 L 5988.948 1882.148 L 5988.948 1883.348 L 5991.348 1884.548 L 5996.147 1885.748 L 5996.147 1886.948 L 5993.747 1888.148 L 5992.547 1891.748 L 5992.547 1892.948 L 5990.148 1894.148 L 5991.348 1900.147 L 5988.948 1902.547 L 5992.547 1907.347 L 5991.348 1909.747 L 5993.747 1913.347 L 5993.747 1915.747 L 5996.147 1915.747 L 5996.147 1916.947 L 5997.347 1918.147 L 5998.547 1915.747 L 6000.947 1916.947 L 6006.947 1925.347 L 6008.147 1924.147 L 6009.347 1924.147 L 6009.347 1926.547 L 6011.747 1927.747 L 6011.747 1931.347 L 6010.547 1936.146 L 6016.547 1936.146 L 6016.547 1938.546 L 6017.747 1938.546 L 6017.747 1939.746 L 6018.947 1940.946 L 6018.947 1943.346 L 6023.747 1945.746 L 6026.147 1943.346 L 6027.347 1943.346 L 6028.546 1946.946 L 6030.946 1945.746 L 6030.946 1949.346 L 6035.746 1951.746 L 6036.946 1955.346 L 6038.146 1954.146 L 6039.346 1954.146 L 6041.746 1957.746 L 6045.346 1957.746 L 6046.546 1960.146 L 6045.346 1963.746 L 6046.546 1968.545 L 6042.946 1970.945 L 6046.546 1973.345 L 6047.746 1973.345 L 6048.946 1975.745 L 6046.546 1976.945 L 6046.546 1981.745 L 6048.946 1982.945 L 6048.946 1985.345 L 6047.746 1988.945 L 6045.346 1990.145 L 6044.146 1993.745 L 6045.346 1994.945 L 6047.746 1998.545 L 6048.946 2000.945 L 6047.746 2002.145 L 6044.146 2002.145 L 6042.946 2003.345 L 6042.946 2004.545 L 6044.146 2006.944 L 6045.346 2008.144 L 6046.546 2009.344 L 6047.746 2011.744 L 6047.746 2012.944 L 6045.346 2015.344 L 6045.346 2021.344 L 6044.146 2022.544 L 6045.346 2024.944 L 6045.346 2027.344 L 6048.946 2029.744 L 6048.946 2034.544 L 6050.146 2036.944 L 6051.346 2039.344 L 6050.146 2044.143 L 6048.946 2046.543 L 6045.346 2047.743 L 6044.146 2048.943 L 6045.346 2051.343 L 6046.546 2056.143 L 6048.946 2059.743 L 6047.746 2062.143 L 6048.946 2066.943 L 6050.146 2071.743 L 6048.946 2077.742 L 6050.146 2081.342 L 6052.546 2087.342 L 6051.346 2090.942 L 6054.946 2094.542 L 6054.946 2104.142 L 6053.746 2107.742 L 6052.546 2108.942 L 6052.546 2110.142 L 6050.146 2112.542 L 6050.146 2118.541 L 6053.746 2117.341 L 6056.146 2119.741 L 6058.546 2128.141 L 6060.946 2132.941 L 6059.746 2136.541 L 6059.746 2149.74 L 6064.545 2155.74 L 6066.945 2161.74 L 6068.145 2162.94 L 6070.545 2164.14 L 6071.745 2165.34 L 6071.745 2171.34 L 6070.545 2177.34 L 6068.145 2178.54 L 6068.145 2180.94 L 6069.345 2186.939 L 6069.345 2195.339 L 6070.545 2200.139 L 6070.545 2204.939 L 6077.745 2212.139 L 6080.145 2218.139 L 6080.145 2219.339 L 6082.545 2221.738 L 6082.545 2222.938 L 6080.145 2227.738 L 6081.345 2228.938 L 6084.945 2232.538 L 6094.545 2232.538 L 6098.145 2236.138 L 6101.744 2238.538 L 6102.944 2239.738 L 6110.144 2240.938 L 6118.544 2242.138 L 6123.344 2242.138 L 6125.744 2243.338 L 6126.944 2244.538 L 6129.344 2246.938 L 6129.344 2248.138 L 6130.544 2251.738 L 6131.744 2252.938 L 6132.944 2256.538 L 6134.144 2257.737 L 6136.544 2257.737 L 6138.943 2255.338 L 6141.343 2254.138 L 6144.943 2255.338 L 6144.943 2256.538 L 6142.543 2258.937 L 6141.343 2260.137 L 6138.943 2262.537 L 6137.743 2264.937 L 6136.544 2264.937 L 6134.144 2266.137 L 6134.144 2270.937 L 6132.944 2273.337 L 6135.344 2279.337 L 6134.144 2281.737 L 6134.144 2290.137 L 6137.743 2291.337 L 6137.743 2292.537 L 6134.144 2293.736 L 6134.144 2294.936 L 6132.944 2293.736 L 6132.944 2296.136 L 6134.144 2296.136 L 6134.144 2297.336 L 6131.744 2299.736 L 6131.744 2300.936 L 6129.344 2305.736 L 6126.944 2306.936 L 6126.944 2308.136 L 6123.344 2312.936 L 6124.544 2315.336 L 6122.144 2322.536 L 6122.144 2324.936 L 6120.944 2326.136 L 6119.744 2332.135 L 6118.544 2341.735 L 6119.744 2346.535 L 6118.544 2348.935 L 6113.744 2351.335 L 6114.944 2353.735 L 6112.544 2363.335 L 6094.645 2370.534 L 6093.445 2372.934 L 6091.045 2374.134 L 6085.045 2375.334 L 6083.845 2377.734 L 6083.845 2380.134 L 6087.445 2389.734 L 6088.645 2390.934 L 6094.645 2398.134 L 6094.645 2399.334 L 6095.845 2400.534 L 6095.845 2408.933 L 6092.245 2416.133 L 6089.845 2423.333 L 6091.045 2430.533 L 6094.645 2434.133 L 6099.445 2435.333 L 6109.044 2438.932 L 6110.244 2438.932 L 6111.444 2440.132 L 6113.844 2442.532 L 6113.844 2443.732 L 6115.044 2447.332 L 6115.044 2449.732 L 6113.844 2464.132 L 6113.844 2467.732 L 6107.844 2478.531 L 6106.644 2482.131 L 6104.244 2488.131 L 6103.044 2492.931 L 6104.244 2495.331 L 6105.444 2496.531 L 6105.444 2498.931 L 6104.244 2500.131 L 6104.244 2501.331 L 6098.245 2498.931 L 6097.045 2500.131 L 6097.045 2501.331 L 6095.845 2502.531 L 6093.445 2502.531 L 6092.245 2503.731 L 6092.245 2506.131 L 6091.045 2507.331 L 6088.645 2507.331 L 6087.445 2509.731 L 6086.245 2510.93 L 6085.045 2513.33 L 6085.045 2514.53 L 6081.445 2514.53 L 6080.245 2515.73 L 6079.045 2516.93 L 6075.445 2518.13 L 6074.245 2519.33 L 6071.845 2520.53 L 6073.045 2525.33 L 6071.845 2526.53 L 6071.845 2528.93 L 6070.645 2528.93 L 6070.645 2531.33 L 6065.845 2532.53 L 6065.845 2533.73 L 6064.645 2534.93 L 6065.845 2539.73 L 6062.246 2543.33 L 6058.646 2543.33 L 6058.646 2542.13 L 6057.446 2539.73 L 6056.246 2538.53 L 6052.646 2538.53 L 6051.446 2540.93 L 6052.646 2540.93 L 6052.646 2544.53 L 6051.446 2544.53 L 6050.246 2545.73 L 6050.246 2550.529 L 6049.046 2552.929 L 6046.646 2555.329 L 6044.246 2552.929 L 6040.646 2550.529 L 6039.446 2549.329 L 6039.446 2548.129 L 6037.046 2545.73 L 6034.646 2546.929 L 6033.446 2546.929 L 6032.246 2550.529 L 6026.247 2551.729 L 6025.047 2555.329 L 6023.847 2561.329 L 6019.047 2560.129 L 6019.047 2563.729 L 6017.847 2567.329 L 6016.647 2568.529 L 6015.447 2568.529 L 6014.247 2570.929 L 6011.847 2572.129 L 6010.647 2572.129 L 6009.447 2570.929 L 6007.047 2570.929 L 6007.047 2573.329 L 6004.647 2578.129 L 6003.447 2579.329 L 6002.247 2580.529 L 6001.047 2581.729 L 5998.647 2581.729 L 5997.447 2582.928 L 5996.247 2582.928 L 5996.247 2585.328 L 5997.447 2588.928 L 5995.047 2591.328 L 5992.647 2591.328 L 5991.448 2592.528 L 5989.048 2593.728 L 5983.048 2593.728 L 5979.448 2598.528 L 5978.248 2599.728 L 5973.448 2602.128 L 5966.248 2602.128 L 5966.248 2603.328 L 5963.848 2605.728 L 5962.648 2609.328 L 5960.248 2614.128 L 5957.848 2620.127 L 5956.648 2618.927 L 5951.849 2624.927 L 5949.449 2627.327 L 5947.049 2627.327 L 5945.849 2630.927 L 5944.649 2630.927 L 5944.649 2632.127 L 5943.449 2633.327 L 5943.449 2635.727 L 5942.249 2638.127 L 5941.049 2638.127 L 5939.849 2642.927 L 5937.449 2644.127 L 5937.449 2648.927 L 5933.849 2650.127 L 5932.649 2647.727 L 5926.649 2647.727 L 5925.449 2650.127 L 5923.049 2650.127 L 5923.049 2652.527 L 5921.849 2652.527 L 5914.65 2653.727 L 5914.65 2656.126 L 5913.45 2658.526 L 5905.05 2658.526 L 5905.05 2659.726 L 5903.85 2664.526 L 5903.85 2672.926 L 5899.05 2676.526 L 5896.65 2678.926 L 5895.45 2678.926 L 5891.85 2682.526 L 5891.85 2686.126 L 5888.25 2689.726 L 5885.85 2700.525 L 5883.451 2700.525 L 5881.051 2699.325 L 5879.851 2699.325 L 5877.451 2701.725 L 5873.851 2702.925 L 5872.651 2705.325 L 5871.451 2706.525 L 5870.251 2706.525 L 5867.851 2704.125 L 5864.251 2704.125 L 5861.851 2700.525 L 5857.051 2704.125 L 5852.251 2701.725 L 5849.851 2702.925 L 5845.052 2702.925 L 5839.052 2706.525 L 5835.452 2707.725 L 5824.652 2707.725 L 5822.252 2708.925 L 5819.852 2708.925 L 5817.452 2707.725 L 5816.252 2707.725 L 5813.852 2708.925 L 5810.253 2711.325 L 5809.053 2712.525 L 5805.453 2712.525 L 5801.853 2713.725 L 5800.653 2713.725 L 5799.453 2716.125 L 5793.453 2719.725 L 5793.453 2724.525 L 5792.253 2724.525 L 5791.053 2725.725 L 5786.253 2728.124 L 5782.653 2730.524 L 5781.453 2731.724 L 5781.453 2736.524 L 5780.253 2737.724 L 5777.853 2738.924 L 5776.653 2740.124 L 5773.054 2738.924 L 5770.654 2740.124 L 5769.454 2741.324 L 5770.654 2743.724 L 5769.454 2746.124 L 5764.654 2747.324 L 5759.854 2746.124 L 5756.254 2747.324 L 5752.654 2746.124 L 5751.454 2747.324 L 5750.254 2749.724 L 5746.654 2754.524 L 5745.454 2753.324 L 5743.054 2754.524 L 5740.654 2754.524 L 5737.055 2755.724 L 5734.655 2755.724 L 5734.655 2754.524 L 5731.055 2753.324 L 5729.855 2752.124 L 5729.855 2756.924 L 5727.455 2759.324 L 5725.055 2761.724 L 5722.655 2762.924 L 5722.655 2766.523 L 5721.455 2767.723 L 5714.255 2768.923 L 5711.855 2768.923 L 5711.855 2765.323 L 5709.455 2761.724 L 5709.455 2758.124 L 5708.255 2755.724 L 5707.055 2755.724 L 5704.655 2758.124 L 5702.256 2758.124 L 5698.656 2753.324 L 5696.256 2752.124 L 5692.656 2752.124 L 5689.056 2749.724 L 5689.056 2748.524 L 5687.856 2746.124 L 5686.656 2741.324 L 5686.656 2738.924 L 5687.856 2735.324 L 5686.656 2734.124 L 5686.656 2732.924 L 5684.256 2730.524 L 5681.856 2729.324 L 5678.256 2730.524 L 5677.056 2730.524 L 5669.856 2731.724 L 5669.856 2728.124 L 5665.057 2728.124 L 5665.057 2726.925 L 5662.657 2725.725 L 5661.457 2725.725 L 5661.457 2724.525 L 5660.257 2724.525 L 5659.057 2723.325 L 5657.857 2724.525 L 5656.657 2724.525 L 5656.657 2726.925 L 5654.257 2724.525 L 5651.857 2724.525 L 5649.457 2730.524 L 5645.857 2732.924 L 5644.657 2731.724 L 5643.457 2729.324 L 5639.857 2729.324 L 5637.457 2730.524 L 5632.657 2730.524 L 5631.457 2732.924 L 5629.058 2732.924 L 5627.858 2728.124 L 5626.658 2728.124 L 5624.258 2726.925 L 5621.858 2723.325 L 5617.058 2723.325 L 5613.458 2719.725 L 5609.858 2713.725 L 5608.658 2711.325 L 5603.858 2705.325 L 5601.458 2704.125 L 5600.258 2704.125 L 5597.858 2702.925 L 5594.259 2704.125 L 5591.859 2705.325 L 5587.059 2710.125 L 5584.659 2712.525 L 5583.459 2712.525 L 5579.859 2713.725 L 5578.659 2713.725 L 5575.059 2717.325 L 5571.459 2722.125 L 5569.059 2723.325 L 5561.859 2729.324 L 5558.26 2731.724 L 5547.46 2735.324 L 5543.86 2736.524 L 5541.46 2738.924 L 5539.06 2743.724 L 5535.46 2746.124 L 5529.46 2755.724 L 5529.46 2758.124 L 5530.66 2762.924 L 5530.66 2767.723 L 5533.06 2768.923 L 5531.86 2768.923 L 5531.86 2770.123 L 5530.66 2772.523 L 5534.26 2773.723 L 5539.06 2782.123 L 5539.06 2788.123 L 5541.46 2795.223 L 5543.86 2796.423 L 5545.06 2797.623 L 5552.16 2800.022 L 5553.36 2802.422 L 5556.96 2802.422 L 5559.359 2804.822 L 5561.759 2806.022 L 5564.159 2808.422 L 5564.159 2809.622 L 5561.759 2812.022 L 5561.759 2814.422 L 5560.559 2816.822 L 5556.96 2818.022 L 5556.96 2820.422 L 5554.56 2820.422 L 5554.56 2824.022 L 5556.96 2824.022 L 5558.16 2825.222 L 5558.16 2826.422 L 5555.76 2831.222 L 5559.359 2834.822 L 5561.759 2836.021 L 5562.959 2838.421 L 5561.759 2843.221 L 5558.16 2845.621 L 5556.96 2849.221 L 5556.96 2851.621 L 5546.16 2851.621 L 5544.96 2852.821 L 5542.56 2856.421 L 5543.76 2858.821 L 5543.76 2862.421 L 5542.56 2870.821 L 5538.96 2875.62 L 5531.76 2882.82 L 5531.76 2893.62 L 5529.36 2896.02 L 5525.76 2898.42 L 5523.36 2900.82 L 5522.161 2902.02 L 5520.961 2905.62 L 5518.561 2908.019 L 5517.361 2914.019 L 5517.361 2915.219 L 5508.961 2915.219 L 5504.161 2912.819 L 5501.761 2911.619 L 5499.361 2911.619 L 5498.161 2914.019 L 5496.961 2918.819 L 5498.161 2924.819 L 5498.161 2926.019 L 5495.761 2928.419 L 5494.561 2929.619 L 5490.961 2941.619 L 5489.761 2944.018 L 5488.561 2945.218 L 5484.962 2945.218 L 5483.762 2946.418 L 5481.362 2951.218 L 5480.162 2953.618 L 5478.962 2953.618 L 5476.562 2954.818 L 5474.162 2954.818 L 5471.762 2953.618 L 5469.362 2952.418 L 5465.762 2950.018 L 5464.562 2950.018 L 5460.962 2952.418 L 5459.762 2952.418 L 5456.162 2951.218 L 5452.562 2948.818 L 5448.963 2941.619 L 5447.763 2940.419 L 5446.563 2939.219 L 5444.163 2938.019 L 5441.763 2938.019 L 5440.563 2939.219 L 5433.363 2947.618 L 5432.163 2948.818 L 5428.563 2950.018 L 5423.763 2948.818 L 5422.563 2948.818 L 5421.363 2950.018 L 5420.163 2952.418 L 5417.763 2954.818 L 5414.164 2956.018 L 5410.564 2956.018 L 5405.764 2952.418 L 5400.964 2952.418 L 5398.564 2953.618 L 5396.164 2958.418 L 5394.964 2959.618 L 5392.564 2960.818 L 5388.964 2960.818 L 5386.564 2962.018 L 5385.364 2963.218 L 5385.364 2964.418 L 5384.164 2964.418 L 5386.564 2971.618 L 5385.364 2975.218 L 5385.364 2976.418 L 5381.764 2977.618 L 5376.965 2976.418 L 5374.565 2977.618 L 5373.365 2978.818 L 5369.765 2980.017 L 5368.565 2981.217 L 5368.565 2984.817 L 5363.765 2984.817 L 5360.165 2992.017 L 5360.165 2995.617 L 5358.965 2996.817 L 5357.765 2998.017 L 5352.965 3001.617 L 5351.765 2999.217 L 5350.565 2999.217 L 5346.965 3002.817 L 5344.565 3002.817 L 5343.365 3004.017 L 5342.165 3004.017 L 5338.566 3007.617 L 5331.366 3001.617 L 5331.366 3000.417 L 5330.166 3000.417 L 5326.566 2999.217 L 5322.966 2999.217 L 5320.566 2995.617 L 5318.166 2994.417 L 5316.966 2993.217 L 5314.566 2992.017 L 5313.366 2990.817 L 5310.966 2990.817 L 5307.366 2992.017 L 5306.166 2990.817 L 5298.967 2990.817 L 5289.367 2989.617 L 5288.167 2989.617 L 5288.167 2988.417 L 5286.967 2987.217 L 5282.167 2987.217 L 5280.967 2986.017 L 5278.567 2980.017 L 5278.567 2978.818 L 5274.967 2977.618 L 5268.968 2976.418 L 5262.968 2971.618 L 5260.568 2960.818 L 5260.568 2959.618 L 5259.368 2958.418 L 5258.168 2956.018 L 5255.768 2956.018 L 5253.368 2954.818 L 5252.168 2954.818 L 5250.968 2953.618 L 5249.768 2952.418 L 5249.768 2951.218 L 5248.568 2942.819 L 5247.368 2939.219 L 5248.568 2936.819 L 5248.568 2933.219 L 5247.368 2930.819 L 5249.768 2927.219 L 5254.568 2922.419 L 5255.768 2921.219 L 5255.768 2918.819 L 5250.968 2915.219 L 5249.768 2911.619 L 5250.968 2905.62 L 5249.768 2903.22 L 5244.968 2899.62 L 5242.568 2894.82 L 5240.168 2893.62 L 5238.968 2892.42 L 5235.368 2890.02 L 5234.168 2888.82 L 5234.168 2882.82 L 5232.969 2881.62 L 5228.169 2878.02 L 5225.769 2874.42 L 5225.769 2863.621 L 5223.369 2860.021 L 5220.969 2857.621 L 5219.769 2857.621 L 5213.769 2861.221 L 5211.369 2861.221 L 5207.769 2864.821 L 5205.369 2866.021 L 5198.169 2866.021 L 5195.77 2869.621 L 5196.97 2872.02 L 5198.169 2875.62 L 5196.97 2879.22 L 5194.57 2881.62 L 5186.17 2886.42 L 5177.77 2885.22 L 5170.57 2881.62 L 5162.17 2884.02 L 5158.671 2885.32 Z " fill="#F3AA47" vector-effect="non-scaling-stroke" stroke-width="1" stroke-linejoin="miter" stroke-linecap="butt" stroke-miterlimit="4"/></svg>