<?xml version="1.0" standalone="no"?><!-- Generator: Gravit.io --><svg xmlns="http://www.w3.org/2000/svg" xmlns:xlink="http://www.w3.org/1999/xlink" style="isolation:isolate" viewBox="3092.428 5941.335 1411.461 1218.666" width="1411.461" height="1218.666"><path d=" M 3151.926 6470.021 L 3153.126 6462.821 L 3151.926 6455.621 L 3151.926 6453.221 L 3157.926 6443.622 L 3166.326 6436.522 L 3169.926 6435.322 L 3179.525 6435.322 L 3186.725 6432.922 L 3187.925 6431.722 L 3192.725 6428.122 L 3201.125 6420.922 L 3211.924 6406.523 L 3215.524 6401.723 L 3221.524 6396.923 L 3226.324 6389.723 L 3234.724 6384.923 L 3239.524 6382.523 L 3241.924 6380.123 L 3245.524 6377.723 L 3249.123 6372.924 L 3249.123 6366.924 L 3250.323 6360.924 L 3252.723 6359.724 L 3259.923 6359.724 L 3262.323 6358.524 L 3270.723 6342.924 L 3271.923 6339.324 L 3270.723 6334.525 L 3274.323 6327.325 L 3279.123 6321.325 L 3281.523 6314.125 L 3285.122 6312.925 L 3291.122 6312.925 L 3295.922 6309.325 L 3298.322 6308.125 L 3310.322 6306.925 L 3312.722 6306.925 L 3313.922 6299.726 L 3316.322 6296.126 L 3312.722 6292.526 L 3313.922 6287.726 L 3316.322 6285.326 L 3318.722 6284.126 L 3327.121 6281.726 L 3329.521 6279.326 L 3333.121 6274.526 L 3334.321 6272.126 L 3334.321 6267.326 L 3333.121 6258.927 L 3334.321 6255.327 L 3336.721 6254.127 L 3340.321 6251.727 L 3353.521 6251.727 L 3358.32 6245.727 L 3360.72 6240.927 L 3364.32 6236.127 L 3378.72 6224.128 L 3383.52 6221.728 L 3385.92 6219.328 L 3387.12 6216.928 L 3384.72 6214.528 L 3382.32 6210.928 L 3382.32 6206.128 L 3384.72 6202.528 L 3389.52 6201.328 L 3395.519 6200.128 L 3401.519 6198.928 L 3406.319 6197.728 L 3407.519 6196.528 L 3407.519 6195.328 L 3403.919 6186.929 L 3403.919 6183.329 L 3408.719 6176.129 L 3413.519 6174.929 L 3418.319 6177.329 L 3429.118 6177.329 L 3432.718 6178.529 L 3433.918 6179.729 L 3435.118 6183.329 L 3436.318 6185.729 L 3437.518 6188.129 L 3439.918 6188.129 L 3441.118 6185.729 L 3441.118 6182.129 L 3444.718 6172.529 L 3444.718 6170.129 L 3438.718 6166.529 L 3433.918 6162.929 L 3426.719 6160.529 L 3425.519 6156.93 L 3426.719 6154.53 L 3433.918 6152.13 L 3439.918 6150.93 L 3447.118 6144.93 L 3448.318 6143.73 L 3450.718 6142.53 L 3451.918 6142.53 L 3453.118 6141.33 L 3451.918 6138.93 L 3454.318 6137.73 L 3453.118 6135.33 L 3454.318 6134.13 L 3455.518 6131.73 L 3457.918 6131.73 L 3460.318 6132.93 L 3460.318 6134.13 L 3459.118 6136.53 L 3459.118 6137.73 L 3463.917 6140.13 L 3465.117 6140.13 L 3466.317 6138.93 L 3466.317 6135.33 L 3468.717 6132.93 L 3472.317 6131.73 L 3474.717 6126.93 L 3475.917 6124.53 L 3478.317 6124.53 L 3480.717 6128.13 L 3484.317 6128.13 L 3485.517 6125.73 L 3490.317 6120.931 L 3497.517 6117.331 L 3498.717 6116.131 L 3498.717 6113.731 L 3496.317 6110.131 L 3495.117 6110.131 L 3495.117 6107.731 L 3497.517 6105.331 L 3502.316 6105.331 L 3503.516 6104.131 L 3504.716 6099.331 L 3505.916 6096.931 L 3509.516 6096.931 L 3514.316 6098.131 L 3516.716 6098.131 L 3517.916 6095.731 L 3521.516 6089.731 L 3528.716 6083.732 L 3531.116 6083.732 L 3533.516 6084.932 L 3535.916 6088.531 L 3538.315 6090.931 L 3539.515 6092.131 L 3540.715 6090.931 L 3541.915 6089.731 L 3540.715 6084.932 L 3541.915 6083.732 L 3544.315 6082.532 L 3549.115 6081.332 L 3553.915 6083.732 L 3557.515 6084.932 L 3558.715 6082.532 L 3558.715 6080.132 L 3557.515 6077.732 L 3549.115 6074.132 L 3547.915 6071.732 L 3549.115 6070.532 L 3550.315 6069.332 L 3553.915 6068.132 L 3559.915 6072.932 L 3561.115 6074.132 L 3563.515 6072.932 L 3564.715 6069.332 L 3567.115 6069.332 L 3570.715 6070.532 L 3571.915 6070.532 L 3574.314 6069.332 L 3575.514 6066.932 L 3575.514 6065.732 L 3580.314 6060.932 L 3580.314 6045.333 L 3581.514 6042.933 L 3588.714 6042.933 L 3589.914 6041.733 L 3591.114 6038.133 L 3592.314 6032.133 L 3595.914 6024.933 L 3597.114 6024.933 L 3599.514 6026.133 L 3600.714 6033.333 L 3603.114 6034.533 L 3605.514 6034.533 L 3606.714 6033.333 L 3609.113 6030.933 L 3612.713 6030.933 L 3619.913 6033.333 L 3621.113 6032.133 L 3621.113 6029.733 L 3619.913 6024.933 L 3619.913 6022.533 L 3621.113 6020.133 L 3622.313 6020.133 L 3623.513 6021.333 L 3625.913 6027.333 L 3629.513 6027.333 L 3630.713 6024.933 L 3631.913 6021.333 L 3635.513 6015.333 L 3635.513 6012.934 L 3636.713 6010.534 L 3637.913 6010.534 L 3639.113 6011.734 L 3642.713 6015.333 L 3645.112 6020.133 L 3646.312 6020.133 L 3648.712 6018.933 L 3649.912 6016.533 L 3651.112 6015.333 L 3659.512 6015.333 L 3661.912 6014.133 L 3661.912 6011.734 L 3660.712 6010.534 L 3657.112 6008.134 L 3657.112 6005.734 L 3663.112 6005.734 L 3664.312 6004.534 L 3666.712 6002.134 L 3667.912 6002.134 L 3671.512 6004.534 L 3671.512 6005.734 L 3675.112 6010.534 L 3676.312 6011.734 L 3678.712 6012.934 L 3681.111 6011.734 L 3681.111 6009.334 L 3679.912 6005.734 L 3679.912 6002.134 L 3681.111 6002.134 L 3683.511 6003.334 L 3685.911 6005.734 L 3688.311 6009.334 L 3689.511 6009.334 L 3693.111 6008.134 L 3693.111 6003.334 L 3694.311 6000.934 L 3695.511 5999.734 L 3699.111 5999.734 L 3701.511 5998.534 L 3702.711 5996.134 L 3702.711 5991.334 L 3703.911 5987.734 L 3706.311 5984.134 L 3706.311 5981.734 L 3707.511 5976.935 L 3709.911 5974.535 L 3711.111 5974.535 L 3712.311 5975.735 L 3712.311 5981.734 L 3714.711 5982.934 L 3726.71 5982.934 L 3727.91 5980.534 L 3730.31 5975.735 L 3735.11 5974.535 L 3737.51 5970.935 L 3737.51 5967.335 L 3738.71 5964.935 L 3742.31 5963.735 L 3747.11 5963.735 L 3747.11 5957.735 L 3748.31 5956.535 L 3750.71 5956.535 L 3753.109 5957.735 L 3754.309 5960.135 L 3756.709 5960.135 L 3759.109 5956.535 L 3760.309 5952.935 L 3761.509 5951.735 L 3765.109 5951.735 L 3767.509 5957.735 L 3768.709 5958.935 L 3769.909 5958.935 L 3771.109 5960.135 L 3773.509 5960.135 L 3774.709 5958.935 L 3779.509 5955.335 L 3781.909 5956.535 L 3784.309 5962.535 L 3786.709 5962.535 L 3789.108 5961.335 L 3790.308 5961.335 L 3791.508 5960.135 L 3793.908 5958.935 L 3795.108 5957.735 L 3798.708 5957.735 L 3801.108 5958.935 L 3801.108 5960.135 L 3802.308 5961.335 L 3802.308 5967.335 L 3803.508 5968.535 L 3804.708 5968.535 L 3807.108 5962.535 L 3811.908 5962.535 L 3816.708 5960.135 L 3820.308 5960.135 L 3823.908 5963.735 L 3826.307 5964.935 L 3829.907 5964.935 L 3829.907 5960.135 L 3827.507 5957.735 L 3827.507 5952.935 L 3832.307 5952.935 L 3833.507 5955.335 L 3835.907 5956.535 L 3844.307 5954.135 L 3845.507 5951.735 L 3846.707 5948.135 L 3849.107 5945.735 L 3850.307 5945.735 L 3851.507 5944.535 L 3852.707 5945.735 L 3853.907 5948.135 L 3855.107 5949.335 L 3862.306 5949.335 L 3862.306 5950.535 L 3863.506 5951.735 L 3864.706 5951.735 L 3864.706 5955.335 L 3863.506 5957.735 L 3859.907 5963.735 L 3859.907 5967.335 L 3862.306 5967.335 L 3864.706 5963.735 L 3871.906 5960.135 L 3874.306 5958.935 L 3875.506 5958.935 L 3881.506 5962.535 L 3883.906 5962.535 L 3885.106 5961.335 L 3886.306 5955.335 L 3886.306 5954.135 L 3887.506 5954.135 L 3888.706 5952.935 L 3889.906 5954.135 L 3892.306 5958.935 L 3892.306 5960.135 L 3893.506 5960.135 L 3897.106 5958.935 L 3904.305 5956.535 L 3904.305 5952.935 L 3903.105 5949.335 L 3903.105 5946.935 L 3906.705 5943.335 L 3912.705 5943.335 L 3913.905 5944.535 L 3912.705 5946.935 L 3909.105 5951.735 L 3909.105 5955.335 L 3910.305 5956.535 L 3911.505 5956.535 L 3916.305 5952.935 L 3917.505 5952.935 L 3918.705 5955.335 L 3919.905 5955.335 L 3919.905 5957.735 L 3917.505 5961.335 L 3916.305 5962.535 L 3916.305 5966.135 L 3917.505 5966.135 L 3918.705 5967.335 L 3921.105 5968.535 L 3922.305 5967.335 L 3922.305 5961.335 L 3923.505 5957.735 L 3924.705 5957.735 L 3928.305 5958.935 L 3928.305 5963.735 L 3929.505 5964.935 L 3930.705 5964.935 L 3934.304 5963.735 L 3936.704 5962.535 L 3936.704 5961.335 L 3941.504 5958.935 L 3942.704 5958.935 L 3943.904 5960.135 L 3943.904 5966.135 L 3946.304 5966.135 L 3948.704 5964.935 L 3953.504 5964.935 L 3954.704 5966.135 L 3958.304 5966.135 L 3958.304 5967.335 L 3959.504 5967.335 L 3959.504 5968.535 L 3958.304 5972.135 L 3958.304 5973.335 L 3960.704 5974.535 L 3960.704 5975.735 L 3961.904 5974.535 L 3964.304 5972.135 L 3965.504 5970.935 L 3966.704 5970.935 L 3967.904 5973.335 L 3969.104 5976.935 L 3969.104 5978.134 L 3970.303 5979.334 L 3971.503 5979.334 L 3973.903 5976.935 L 3973.903 5973.335 L 3975.103 5972.135 L 3977.503 5972.135 L 3979.903 5975.735 L 3982.303 5976.935 L 3983.503 5976.935 L 3984.703 5975.735 L 3988.303 5974.535 L 3989.503 5973.335 L 3994.303 5973.335 L 3996.703 5972.135 L 3999.103 5975.735 L 4005.103 5976.935 L 4008.702 5976.935 L 4008.702 5970.935 L 4014.702 5967.335 L 4017.102 5967.335 L 4017.102 5968.535 L 4015.902 5972.135 L 4015.902 5975.735 L 4019.502 5979.334 L 4020.702 5980.534 L 4021.902 5981.734 L 4023.102 5981.734 L 4024.302 5980.534 L 4023.102 5975.735 L 4023.102 5974.535 L 4025.502 5974.535 L 4025.502 5975.735 L 4026.702 5975.735 L 4025.502 5980.534 L 4026.702 5984.134 L 4029.102 5982.934 L 4031.502 5980.534 L 4032.702 5980.534 L 4035.102 5982.934 L 4037.502 5984.134 L 4039.902 5986.534 L 4041.102 5986.534 L 4041.102 5985.334 L 4042.301 5984.134 L 4041.102 5981.734 L 4039.902 5979.334 L 4039.902 5975.735 L 4047.101 5975.735 L 4048.301 5974.535 L 4051.901 5976.935 L 4050.701 5978.134 L 4047.101 5979.334 L 4044.701 5981.734 L 4044.701 5982.934 L 4049.501 5984.134 L 4050.701 5984.134 L 4053.101 5987.734 L 4054.301 5987.734 L 4054.301 5988.934 L 4055.501 5988.934 L 4056.701 5987.734 L 4057.901 5985.334 L 4059.101 5981.734 L 4061.501 5979.334 L 4062.701 5978.134 L 4063.901 5978.134 L 4065.101 5979.334 L 4063.901 5985.334 L 4066.301 5985.334 L 4068.701 5984.134 L 4071.101 5984.134 L 4072.301 5982.934 L 4074.701 5984.134 L 4074.701 5990.134 L 4075.901 5991.334 L 4078.3 5991.334 L 4080.7 5990.134 L 4084.3 5991.334 L 4086.7 5991.334 L 4090.3 5988.934 L 4091.5 5988.934 L 4091.5 5991.334 L 4089.1 5992.534 L 4090.3 5993.734 L 4090.3 5994.934 L 4092.7 5996.134 L 4093.9 5997.334 L 4096.3 5996.134 L 4099.9 5996.134 L 4102.3 5997.334 L 4102.3 5999.734 L 4092.7 5999.734 L 4092.7 6002.134 L 4095.1 6003.334 L 4101.1 6003.334 L 4104.7 6006.934 L 4104.7 6009.334 L 4099.9 6012.934 L 4101.1 6014.133 L 4103.5 6014.133 L 4105.9 6012.934 L 4108.3 6011.734 L 4109.5 6011.734 L 4110.7 6012.934 L 4110.7 6018.933 L 4113.1 6022.533 L 4115.499 6022.533 L 4115.499 6021.333 L 4114.299 6017.733 L 4115.499 6016.533 L 4115.499 6015.333 L 4121.499 6015.333 L 4121.499 6016.533 L 4119.099 6022.533 L 4120.299 6023.733 L 4122.699 6022.533 L 4125.099 6021.333 L 4128.699 6024.933 L 4131.099 6024.933 L 4131.099 6022.533 L 4128.699 6020.133 L 4128.699 6017.733 L 4131.099 6017.733 L 4137.099 6016.533 L 4137.099 6017.733 L 4139.499 6018.933 L 4141.899 6021.333 L 4143.099 6021.333 L 4144.299 6020.133 L 4145.499 6016.533 L 4146.699 6015.333 L 4149.099 6015.333 L 4151.498 6016.533 L 4151.498 6017.733 L 4150.298 6020.133 L 4151.498 6022.533 L 4155.098 6022.533 L 4156.298 6021.333 L 4156.298 6017.733 L 4159.898 6017.733 L 4159.898 6018.933 L 4161.098 6018.933 L 4158.698 6026.133 L 4159.898 6027.333 L 4162.298 6027.333 L 4164.698 6023.733 L 4168.298 6023.733 L 4168.298 6026.133 L 4167.098 6030.933 L 4168.298 6033.333 L 4169.498 6034.533 L 4170.698 6034.533 L 4171.898 6032.133 L 4171.898 6030.933 L 4173.098 6030.933 L 4173.098 6029.733 L 4175.498 6030.933 L 4180.298 6029.733 L 4183.898 6029.733 L 4185.098 6032.133 L 4186.297 6032.133 L 4186.297 6036.933 L 4187.497 6038.133 L 4188.697 6039.333 L 4189.897 6039.333 L 4189.897 6040.533 L 4193.497 6044.133 L 4193.497 6047.733 L 4195.897 6047.733 L 4197.097 6045.333 L 4198.297 6044.133 L 4199.497 6042.933 L 4201.897 6041.733 L 4204.297 6042.933 L 4204.297 6044.133 L 4203.097 6048.933 L 4205.497 6050.132 L 4207.897 6052.532 L 4211.497 6050.132 L 4213.897 6051.332 L 4215.097 6051.332 L 4215.097 6054.932 L 4216.297 6056.132 L 4215.097 6057.332 L 4215.097 6059.732 L 4218.697 6060.932 L 4221.097 6059.732 L 4222.297 6062.132 L 4222.297 6064.532 L 4225.896 6066.932 L 4227.096 6069.332 L 4228.296 6070.532 L 4229.496 6069.332 L 4230.696 6068.132 L 4233.096 6069.332 L 4236.696 6069.332 L 4239.096 6071.732 L 4242.696 6074.132 L 4246.296 6074.132 L 4246.296 6075.332 L 4247.496 6078.932 L 4247.496 6080.132 L 4248.696 6080.132 L 4252.296 6078.932 L 4253.496 6078.932 L 4255.896 6080.132 L 4257.096 6081.332 L 4255.896 6084.932 L 4257.096 6086.132 L 4260.695 6086.132 L 4260.695 6092.131 L 4263.095 6094.531 L 4266.695 6096.931 L 4266.695 6101.731 L 4267.895 6102.931 L 4267.895 6104.131 L 4270.295 6104.131 L 4271.495 6100.531 L 4272.695 6099.331 L 4273.895 6100.531 L 4275.095 6102.931 L 4279.895 6105.331 L 4282.295 6105.331 L 4283.495 6106.531 L 4282.295 6108.931 L 4284.695 6111.331 L 4283.495 6112.531 L 4289.495 6113.731 L 4291.895 6116.131 L 4291.895 6120.931 L 4290.695 6123.33 L 4288.295 6124.53 L 4287.095 6125.73 L 4290.695 6126.93 L 4291.895 6128.13 L 4293.095 6130.53 L 4291.895 6134.13 L 4293.095 6135.33 L 4295.494 6135.33 L 4299.094 6131.73 L 4300.294 6131.73 L 4302.694 6135.33 L 4302.694 6136.53 L 4307.494 6135.33 L 4307.494 6136.53 L 4308.694 6136.53 L 4307.494 6138.93 L 4308.694 6142.53 L 4307.494 6144.93 L 4307.494 6146.13 L 4309.894 6147.33 L 4311.094 6144.93 L 4312.294 6146.13 L 4312.294 6147.33 L 4313.494 6148.53 L 4313.494 6155.73 L 4314.694 6155.73 L 4320.694 6159.329 L 4324.294 6159.329 L 4324.294 6162.929 L 4326.694 6164.129 L 4327.894 6165.329 L 4330.294 6168.929 L 4329.094 6172.529 L 4332.693 6173.729 L 4336.293 6177.329 L 4335.093 6179.729 L 4336.293 6182.129 L 4338.693 6182.129 L 4341.093 6179.729 L 4342.293 6179.729 L 4344.693 6182.129 L 4347.093 6185.729 L 4349.493 6186.929 L 4350.693 6188.129 L 4353.093 6188.129 L 4353.093 6184.529 L 4355.493 6184.529 L 4359.093 6185.729 L 4366.293 6185.729 L 4368.692 6188.129 L 4369.892 6189.329 L 4377.092 6189.329 L 4378.292 6191.729 L 4380.692 6191.729 L 4381.892 6188.129 L 4383.092 6186.929 L 4384.292 6186.929 L 4385.492 6188.129 L 4385.492 6195.328 L 4386.692 6194.129 L 4387.892 6194.129 L 4386.692 6190.529 L 4387.892 6190.529 L 4389.092 6189.329 L 4391.492 6189.329 L 4393.892 6190.529 L 4395.092 6191.729 L 4395.092 6192.929 L 4396.292 6192.929 L 4398.692 6194.129 L 4402.292 6192.929 L 4402.292 6191.729 L 4401.092 6191.729 L 4399.892 6190.529 L 4403.491 6188.129 L 4403.491 6189.329 L 4405.891 6194.129 L 4407.091 6195.328 L 4408.291 6194.129 L 4410.691 6191.729 L 4411.891 6191.729 L 4413.091 6192.929 L 4415.491 6192.929 L 4417.891 6196.528 L 4417.891 6200.128 L 4419.091 6201.328 L 4422.691 6200.128 L 4421.491 6197.728 L 4419.091 6194.129 L 4420.291 6194.129 L 4421.491 6191.729 L 4423.891 6190.529 L 4423.891 6189.329 L 4425.091 6188.129 L 4425.091 6189.329 L 4427.491 6190.529 L 4427.491 6191.729 L 4426.291 6192.929 L 4425.091 6195.328 L 4425.091 6196.528 L 4427.491 6196.528 L 4429.891 6198.928 L 4432.291 6196.528 L 4434.691 6197.728 L 4440.69 6197.728 L 4441.89 6196.528 L 4443.09 6194.129 L 4444.29 6192.929 L 4446.69 6194.129 L 4449.09 6192.929 L 4449.09 6191.729 L 4450.29 6190.529 L 4451.49 6190.529 L 4452.69 6192.929 L 4455.09 6192.929 L 4456.29 6195.328 L 4457.49 6197.728 L 4459.89 6196.528 L 4458.69 6195.328 L 4457.49 6194.129 L 4458.69 6192.929 L 4459.89 6192.929 L 4463.49 6195.328 L 4464.69 6195.328 L 4465.89 6194.129 L 4467.09 6194.129 L 4465.89 6191.729 L 4465.89 6190.529 L 4468.29 6191.729 L 4469.49 6190.529 L 4471.89 6191.729 L 4473.09 6191.729 L 4471.89 6191.729 L 4468.29 6192.929 L 4470.69 6194.129 L 4470.69 6198.928 L 4475.489 6198.928 L 4474.29 6200.128 L 4475.489 6201.328 L 4477.889 6197.728 L 4480.289 6198.928 L 4479.089 6197.728 L 4479.089 6195.328 L 4480.289 6195.328 L 4481.489 6198.928 L 4482.689 6198.928 L 4483.889 6200.128 L 4485.089 6201.328 L 4486.289 6200.128 L 4485.089 6198.928 L 4486.289 6196.528 L 4485.089 6196.528 L 4487.489 6195.328 L 4487.489 6194.129 L 4488.689 6194.129 L 4488.689 6198.928 L 4487.489 6200.128 L 4488.689 6201.328 L 4492.289 6200.128 L 4492.289 6201.328 L 4493.489 6201.328 L 4492.289 6202.528 L 4494.689 6204.928 L 4492.289 6207.328 L 4491.089 6209.728 L 4492.289 6209.728 L 4494.689 6210.928 L 4495.889 6214.528 L 4497.089 6215.728 L 4498.289 6214.528 L 4498.289 6220.528 L 4500.689 6220.528 L 4501.889 6222.928 L 4500.689 6224.128 L 4499.489 6225.328 L 4498.289 6225.328 L 4498.289 6224.128 L 4494.689 6224.128 L 4489.889 6225.328 L 4489.889 6222.928 L 4487.489 6225.328 L 4486.289 6225.328 L 4485.089 6224.128 L 4485.089 6221.728 L 4483.889 6222.928 L 4482.689 6222.928 L 4481.489 6225.328 L 4480.289 6226.528 L 4479.089 6227.728 L 4480.289 6228.928 L 4479.089 6230.128 L 4480.289 6230.128 L 4477.889 6231.327 L 4476.689 6232.527 L 4475.489 6232.527 L 4475.489 6233.727 L 4476.689 6233.727 L 4476.689 6236.127 L 4477.889 6236.127 L 4479.089 6237.327 L 4476.689 6237.327 L 4475.489 6238.527 L 4475.489 6240.927 L 4474.29 6240.927 L 4474.29 6238.527 L 4470.69 6238.527 L 4471.89 6238.527 L 4469.49 6238.527 L 4469.49 6242.127 L 4468.29 6244.527 L 4469.49 6245.727 L 4467.09 6246.927 L 4467.09 6245.727 L 4465.89 6245.727 L 4468.29 6242.127 L 4467.09 6240.927 L 4465.89 6242.127 L 4464.69 6242.127 L 4463.49 6240.927 L 4463.49 6239.727 L 4462.29 6240.927 L 4459.89 6240.927 L 4458.69 6243.327 L 4458.69 6245.727 L 4461.09 6246.927 L 4459.89 6246.927 L 4459.89 6248.127 L 4458.69 6249.327 L 4456.29 6248.127 L 4456.29 6249.327 L 4456.29 6248.127 L 4455.09 6249.327 L 4455.09 6251.727 L 4453.89 6252.927 L 4455.09 6252.927 L 4455.09 6255.327 L 4456.29 6255.327 L 4456.29 6257.727 L 4453.89 6256.527 L 4453.89 6261.327 L 4455.09 6261.327 L 4453.89 6266.127 L 4456.29 6264.927 L 4456.29 6266.127 L 4455.09 6266.127 L 4455.09 6267.326 L 4453.89 6268.526 L 4452.69 6269.726 L 4456.29 6268.526 L 4456.29 6270.926 L 4457.49 6269.726 L 4459.89 6269.726 L 4458.69 6269.726 L 4458.69 6270.926 L 4457.49 6270.926 L 4457.49 6272.126 L 4456.29 6272.126 L 4456.29 6274.526 L 4453.89 6275.726 L 4455.09 6276.926 L 4452.69 6278.126 L 4453.89 6279.326 L 4457.49 6279.326 L 4456.29 6279.326 L 4456.29 6281.726 L 4455.09 6281.726 L 4455.09 6285.326 L 4457.49 6286.526 L 4458.69 6287.726 L 4461.09 6288.926 L 4458.69 6290.126 L 4457.49 6288.926 L 4457.49 6292.526 L 4456.29 6291.326 L 4455.09 6292.526 L 4455.09 6294.926 L 4452.69 6297.326 L 4456.29 6296.126 L 4457.49 6296.126 L 4457.49 6297.326 L 4456.29 6297.326 L 4456.29 6298.526 L 4455.09 6298.526 L 4455.09 6299.726 L 4453.89 6300.926 L 4453.89 6302.126 L 4445.49 6305.725 L 4449.09 6305.725 L 4449.09 6306.925 L 4449.09 6305.725 L 4452.69 6304.525 L 4455.09 6304.525 L 4456.29 6303.325 L 4457.49 6303.325 L 4457.49 6304.525 L 4455.09 6304.525 L 4456.29 6305.725 L 4453.89 6305.725 L 4455.09 6306.925 L 4455.09 6308.125 L 4452.69 6308.125 L 4452.69 6310.525 L 4453.89 6310.525 L 4452.69 6311.725 L 4452.69 6314.125 L 4453.89 6314.125 L 4449.09 6314.125 L 4450.29 6316.525 L 4449.09 6317.725 L 4449.09 6316.525 L 4444.29 6316.525 L 4445.49 6317.725 L 4445.49 6321.325 L 4443.09 6321.325 L 4443.09 6322.525 L 4441.89 6323.725 L 4443.09 6324.925 L 4444.29 6326.125 L 4441.89 6326.125 L 4440.69 6324.925 L 4439.49 6326.125 L 4437.091 6326.125 L 4435.891 6327.325 L 4435.891 6324.925 L 4433.491 6327.325 L 4433.491 6326.125 L 4432.291 6324.925 L 4433.491 6324.925 L 4431.091 6324.925 L 4431.091 6323.725 L 4433.491 6322.525 L 4433.491 6321.325 L 4434.691 6321.325 L 4432.291 6321.325 L 4429.891 6322.525 L 4429.891 6326.125 L 4431.091 6326.125 L 4431.091 6328.525 L 4432.291 6328.525 L 4431.091 6328.525 L 4431.091 6333.325 L 4432.291 6332.125 L 4431.091 6333.325 L 4432.291 6334.525 L 4429.891 6335.725 L 4431.091 6333.325 L 4427.491 6335.725 L 4427.491 6333.325 L 4428.691 6333.325 L 4429.891 6330.925 L 4426.291 6330.925 L 4426.291 6329.725 L 4423.891 6329.725 L 4425.091 6328.525 L 4422.691 6328.525 L 4422.691 6327.325 L 4420.291 6329.725 L 4422.691 6329.725 L 4423.891 6330.925 L 4423.891 6332.125 L 4420.291 6333.325 L 4421.491 6333.325 L 4420.291 6334.525 L 4421.491 6334.525 L 4422.691 6335.725 L 4421.491 6335.725 L 4417.891 6338.125 L 4420.291 6338.125 L 4420.291 6339.324 L 4422.691 6339.324 L 4421.491 6339.324 L 4421.491 6342.924 L 4420.291 6344.124 L 4421.491 6344.124 L 4421.491 6345.324 L 4422.691 6346.524 L 4422.691 6347.724 L 4423.891 6347.724 L 4423.891 6345.324 L 4425.091 6344.124 L 4425.091 6345.324 L 4426.291 6345.324 L 4426.291 6346.524 L 4428.691 6347.724 L 4427.491 6347.724 L 4428.691 6348.924 L 4431.091 6348.924 L 4432.291 6350.124 L 4432.291 6351.324 L 4434.691 6351.324 L 4433.491 6352.524 L 4437.091 6352.524 L 4437.091 6353.724 L 4435.891 6354.924 L 4438.291 6354.924 L 4440.69 6356.124 L 4435.891 6348.924 L 4433.491 6348.924 L 4431.091 6346.524 L 4428.691 6344.124 L 4427.491 6344.124 L 4426.291 6339.324 L 4431.091 6339.324 L 4434.691 6338.125 L 4435.891 6338.125 L 4435.891 6336.925 L 4439.49 6336.925 L 4440.69 6335.725 L 4445.49 6333.325 L 4446.69 6334.525 L 4449.09 6333.325 L 4451.49 6332.125 L 4452.69 6329.725 L 4453.89 6328.525 L 4456.29 6328.525 L 4456.29 6329.725 L 4458.69 6329.725 L 4459.89 6330.925 L 4462.29 6330.925 L 4464.69 6332.125 L 4468.29 6333.325 L 4470.69 6333.325 L 4471.89 6335.725 L 4471.89 6336.925 L 4473.09 6336.925 L 4474.29 6338.125 L 4473.09 6338.125 L 4473.09 6339.324 L 4475.489 6340.524 L 4474.29 6341.724 L 4474.29 6342.924 L 4477.889 6342.924 L 4479.089 6344.124 L 4479.089 6345.324 L 4480.289 6344.124 L 4480.289 6345.324 L 4483.889 6345.324 L 4487.489 6347.724 L 4488.689 6347.724 L 4491.089 6346.524 L 4492.289 6347.724 L 4492.289 6348.924 L 4493.489 6350.124 L 4493.489 6348.924 L 4493.489 6350.124 L 4494.689 6350.124 L 4492.289 6351.324 L 4492.289 6352.524 L 4498.289 6352.524 L 4494.689 6356.124 L 4494.689 6358.524 L 4491.089 6362.124 L 4481.489 6372.924 L 4461.09 6402.823 L 4458.69 6406.423 L 4457.49 6408.823 L 4455.09 6411.223 L 4453.89 6413.622 L 4449.09 6423.222 L 4444.29 6432.822 L 4439.49 6441.222 L 4435.891 6449.621 L 4433.491 6453.221 L 4426.291 6470.021 L 4421.491 6480.821 L 4419.091 6486.82 L 4416.691 6492.82 L 4409.491 6511.92 L 4407.091 6517.92 L 4404.691 6523.919 L 4404.691 6526.319 L 4402.292 6529.919 L 4401.092 6534.719 L 4396.292 6549.119 L 4392.692 6557.518 L 4387.892 6565.918 L 4381.892 6576.718 L 4368.792 6593.517 L 4362.793 6601.917 L 4347.193 6624.717 L 4327.994 6651.016 L 4326.794 6653.416 L 4315.994 6670.215 L 4311.194 6677.315 L 4305.194 6683.315 L 4296.794 6692.915 L 4290.795 6700.115 L 4282.395 6707.314 L 4278.795 6709.714 L 4263.195 6722.814 L 4248.796 6736.014 L 4239.196 6743.213 L 4236.796 6746.813 L 4230.796 6754.013 L 4225.996 6760.013 L 4212.897 6769.613 L 4199.697 6780.412 L 4187.697 6788.812 L 4176.898 6794.812 L 4160.098 6804.412 L 4143.299 6812.811 L 4126.499 6822.411 L 4114.499 6830.811 L 4107.3 6836.811 L 4097.7 6846.41 L 4080.9 6864.31 L 4079.7 6867.91 L 4079.7 6872.71 L 4076.101 6867.91 L 4072.501 6869.11 L 4066.501 6873.91 L 4060.501 6877.51 L 4053.301 6885.909 L 4047.301 6893.109 L 4038.902 6905.109 L 4032.902 6915.909 L 4028.102 6927.908 L 4019.702 6949.508 L 4018.502 6955.507 L 4014.902 6972.307 L 4011.302 6984.307 L 4002.903 7003.406 L 3995.703 7015.406 L 3987.303 7033.305 L 3982.503 7041.705 L 3976.503 7050.105 L 3963.304 7066.904 L 3952.504 7076.504 L 3909.405 7111.203 L 3890.306 7128.003 L 3873.506 7141.202 L 3868.706 7144.802 L 3850.707 7156.802 L 3849.507 7156.802 L 3847.107 7158.002 L 3845.907 7156.802 L 3842.307 7156.802 L 3841.107 7155.602 L 3841.107 7154.402 L 3839.907 7150.802 L 3839.907 7148.402 L 3838.707 7147.202 L 3824.308 7146.002 L 3823.108 7146.002 L 3823.108 7144.802 L 3824.308 7143.602 L 3823.108 7142.402 L 3823.108 7141.202 L 3821.908 7138.802 L 3823.108 7137.602 L 3824.308 7135.202 L 3821.908 7132.803 L 3823.108 7130.403 L 3824.308 7129.203 L 3824.308 7117.203 L 3826.707 7104.003 L 3827.907 7084.904 L 3824.308 7066.904 L 3825.507 7049.005 L 3837.507 7031.105 L 3854.307 7021.506 L 3862.706 7022.706 L 3873.506 7009.506 L 3862.706 7005.906 L 3866.306 7002.306 L 3867.506 7004.706 L 3866.306 7004.706 L 3867.506 7005.906 L 3868.706 7005.906 L 3866.306 7002.306 L 3884.306 6993.906 L 3889.106 6986.707 L 3887.906 6985.507 L 3891.506 6981.907 L 3902.305 6979.507 L 3904.705 6973.507 L 3886.806 6957.907 L 3886.806 6959.107 L 3885.606 6957.907 L 3884.406 6956.707 L 3878.406 6955.507 L 3874.806 6953.107 L 3873.606 6948.308 L 3868.806 6949.508 L 3867.606 6951.908 L 3866.406 6951.908 L 3865.206 6950.708 L 3864.006 6949.508 L 3860.407 6947.108 L 3858.007 6945.908 L 3855.607 6947.108 L 3854.407 6947.108 L 3852.007 6943.508 L 3850.807 6943.508 L 3848.407 6945.908 L 3844.807 6943.508 L 3843.607 6942.308 L 3843.607 6941.108 L 3842.407 6941.108 L 3841.207 6942.308 L 3838.807 6937.508 L 3836.407 6933.908 L 3836.407 6932.708 L 3835.207 6930.308 L 3835.207 6926.708 L 3828.107 6926.708 L 3825.707 6927.908 L 3825.707 6926.708 L 3824.508 6927.908 L 3820.908 6925.508 L 3820.908 6924.308 L 3818.508 6924.308 L 3817.308 6921.908 L 3813.708 6920.708 L 3813.708 6918.308 L 3811.308 6917.108 L 3808.908 6914.709 L 3808.908 6911.109 L 3802.908 6908.709 L 3804.108 6907.509 L 3805.308 6902.709 L 3804.108 6900.309 L 3804.108 6897.909 L 3801.708 6896.709 L 3801.708 6895.509 L 3802.908 6895.509 L 3804.108 6893.109 L 3801.708 6891.909 L 3801.708 6889.509 L 3799.308 6888.309 L 3798.108 6885.909 L 3798.108 6882.309 L 3795.708 6878.71 L 3794.508 6877.51 L 3794.508 6876.31 L 3793.308 6876.31 L 3792.108 6875.11 L 3793.308 6873.91 L 3790.908 6872.71 L 3790.908 6871.51 L 3789.708 6870.31 L 3790.908 6866.71 L 3787.309 6866.71 L 3788.509 6865.51 L 3788.509 6864.31 L 3786.109 6859.51 L 3787.309 6858.31 L 3786.109 6857.11 L 3788.509 6858.31 L 3789.708 6857.11 L 3786.109 6855.91 L 3786.109 6853.51 L 3783.709 6853.51 L 3783.709 6852.31 L 3782.509 6853.51 L 3781.309 6852.31 L 3778.909 6851.11 L 3777.709 6852.31 L 3777.709 6851.11 L 3775.309 6851.11 L 3772.909 6849.91 L 3771.709 6849.91 L 3770.509 6848.71 L 3769.309 6846.31 L 3768.109 6846.31 L 3769.309 6845.11 L 3768.109 6843.911 L 3766.909 6843.911 L 3766.909 6839.111 L 3764.509 6837.911 L 3763.309 6839.111 L 3759.709 6837.911 L 3758.509 6835.511 L 3756.109 6834.311 L 3756.109 6833.111 L 3752.51 6831.911 L 3750.11 6830.711 L 3747.71 6830.711 L 3745.31 6828.311 L 3745.31 6827.111 L 3746.51 6827.111 L 3746.51 6825.911 L 3747.71 6825.911 L 3747.71 6824.711 L 3746.51 6824.711 L 3745.31 6823.511 L 3740.51 6823.511 L 3739.31 6822.311 L 3738.11 6822.311 L 3738.11 6821.111 L 3736.91 6821.111 L 3735.71 6819.911 L 3734.51 6819.911 L 3735.71 6819.911 L 3733.31 6819.911 L 3732.11 6821.111 L 3730.91 6821.111 L 3730.91 6822.311 L 3728.51 6824.711 L 3727.31 6823.511 L 3724.91 6827.111 L 3724.91 6825.911 L 3722.51 6825.911 L 3722.51 6824.711 L 3721.31 6823.511 L 3722.51 6823.511 L 3721.31 6822.311 L 3715.311 6819.911 L 3715.311 6817.511 L 3712.911 6815.111 L 3660.212 6775.612 L 3661.412 6773.212 L 3660.212 6772.013 L 3659.012 6770.813 L 3657.812 6768.413 L 3660.212 6767.213 L 3660.212 6766.013 L 3660.212 6767.213 L 3660.212 6766.013 L 3659.012 6763.613 L 3657.812 6764.813 L 3656.612 6761.213 L 3655.412 6760.013 L 3653.012 6758.813 L 3654.212 6757.613 L 3649.412 6750.413 L 3648.212 6749.213 L 3647.012 6748.013 L 3643.413 6748.013 L 3643.413 6746.813 L 3642.213 6746.813 L 3642.213 6745.613 L 3638.613 6744.413 L 3638.613 6742.013 L 3637.413 6740.813 L 3637.413 6739.613 L 3620.013 6739.613 L 3617.613 6737.213 L 3616.413 6737.213 L 3615.213 6736.014 L 3614.013 6737.213 L 3611.613 6737.213 L 3610.413 6734.814 L 3604.414 6733.614 L 3599.614 6736.014 L 3597.214 6734.814 L 3596.014 6736.014 L 3592.414 6736.014 L 3591.214 6737.213 L 3587.614 6732.414 L 3586.414 6732.414 L 3587.614 6731.214 L 3584.014 6728.814 L 3581.614 6726.414 L 3582.814 6726.414 L 3581.614 6725.214 L 3580.414 6725.214 L 3580.414 6726.414 L 3579.214 6726.414 L 3575.614 6725.214 L 3574.414 6726.414 L 3573.214 6726.414 L 3573.214 6724.014 L 3574.414 6724.014 L 3573.214 6722.814 L 3573.214 6721.614 L 3569.615 6720.414 L 3569.615 6719.214 L 3570.815 6718.014 L 3570.815 6716.814 L 3569.615 6715.614 L 3566.015 6714.414 L 3564.815 6713.214 L 3566.015 6712.014 L 3564.815 6710.814 L 3562.415 6709.614 L 3563.615 6708.414 L 3562.415 6708.414 L 3562.415 6707.214 L 3561.215 6706.014 L 3561.215 6704.814 L 3561.215 6706.014 L 3558.815 6704.814 L 3556.415 6706.014 L 3555.215 6707.214 L 3556.415 6707.214 L 3556.415 6709.614 L 3554.015 6713.214 L 3552.815 6714.414 L 3551.615 6714.414 L 3551.615 6716.814 L 3549.215 6716.814 L 3548.015 6715.614 L 3544.415 6714.414 L 3543.215 6713.214 L 3540.815 6713.214 L 3540.815 6712.014 L 3538.415 6712.014 L 3534.816 6709.614 L 3534.816 6708.414 L 3532.416 6708.414 L 3533.616 6707.214 L 3532.416 6706.014 L 3530.016 6706.014 L 3530.016 6704.814 L 3520.416 6703.614 L 3519.216 6703.614 L 3519.216 6702.414 L 3518.016 6702.414 L 3518.016 6696.415 L 3516.816 6695.215 L 3518.016 6694.015 L 3515.616 6691.615 L 3512.016 6691.615 L 3512.016 6690.415 L 3514.416 6689.215 L 3513.216 6688.015 L 3510.816 6686.815 L 3510.816 6685.615 L 3512.016 6685.615 L 3510.816 6684.415 L 3510.816 6683.215 L 3508.416 6682.015 L 3507.216 6683.215 L 3506.016 6683.215 L 3506.016 6682.015 L 3504.816 6682.015 L 3503.616 6680.815 L 3502.416 6680.815 L 3502.416 6678.415 L 3503.616 6678.415 L 3503.616 6674.815 L 3504.816 6672.415 L 3502.416 6672.415 L 3500.016 6668.815 L 3500.016 6670.015 L 3498.817 6668.815 L 3500.016 6667.615 L 3500.016 6664.016 L 3498.817 6664.016 L 3496.417 6662.816 L 3496.417 6660.416 L 3494.017 6660.416 L 3491.617 6661.616 L 3490.417 6661.616 L 3490.417 6660.416 L 3489.217 6659.216 L 3486.817 6659.216 L 3484.417 6658.016 L 3485.617 6655.616 L 3486.817 6654.416 L 3486.817 6653.216 L 3485.617 6652.016 L 3484.417 6652.016 L 3484.417 6649.616 L 3482.017 6649.616 L 3480.817 6647.216 L 3477.217 6648.416 L 3476.017 6647.216 L 3476.017 6643.616 L 3473.617 6642.416 L 3472.417 6641.216 L 3472.417 6638.816 L 3468.817 6637.616 L 3467.617 6638.816 L 3467.617 6637.616 L 3465.217 6636.416 L 3464.017 6634.016 L 3462.818 6632.816 L 3462.818 6630.416 L 3461.618 6628.017 L 3460.418 6628.017 L 3460.418 6626.817 L 3459.218 6626.817 L 3458.018 6628.017 L 3455.618 6629.216 L 3454.418 6629.216 L 3454.418 6628.017 L 3452.018 6628.017 L 3450.818 6629.216 L 3449.618 6629.216 L 3448.418 6630.416 L 3447.218 6632.816 L 3446.018 6631.616 L 3444.818 6634.016 L 3447.218 6635.216 L 3446.018 6635.216 L 3446.018 6637.616 L 3448.418 6640.016 L 3447.218 6642.416 L 3446.018 6642.416 L 3444.818 6644.816 L 3446.018 6646.016 L 3444.818 6647.216 L 3444.818 6648.416 L 3440.018 6648.416 L 3440.018 6647.216 L 3438.818 6646.016 L 3437.618 6648.416 L 3436.418 6648.416 L 3435.218 6646.016 L 3434.018 6646.016 L 3435.218 6647.216 L 3434.018 6647.216 L 3434.018 6650.816 L 3432.818 6652.016 L 3434.018 6653.216 L 3430.418 6653.216 L 3430.418 6654.416 L 3429.218 6656.816 L 3425.619 6655.616 L 3426.819 6658.016 L 3424.419 6659.216 L 3418.419 6659.216 L 3418.419 6660.416 L 3416.019 6664.016 L 3416.019 6665.215 L 3412.419 6664.016 L 3411.219 6665.215 L 3408.819 6670.015 L 3406.419 6670.015 L 3406.419 6671.215 L 3405.219 6671.215 L 3402.819 6668.815 L 3401.619 6670.015 L 3399.219 6670.015 L 3398.019 6671.215 L 3396.819 6672.415 L 3393.219 6671.215 L 3389.62 6670.015 L 3387.22 6671.215 L 3387.22 6672.415 L 3383.62 6671.215 L 3383.62 6670.015 L 3382.42 6665.215 L 3382.42 6656.816 L 3383.62 6653.216 L 3384.82 6652.016 L 3383.62 6650.816 L 3383.62 6647.216 L 3382.42 6647.216 L 3384.82 6642.416 L 3383.62 6641.216 L 3383.62 6637.616 L 3387.22 6632.816 L 3387.22 6630.416 L 3386.02 6629.216 L 3384.82 6628.017 L 3383.62 6624.417 L 3382.42 6623.217 L 3382.42 6622.017 L 3383.62 6622.017 L 3381.22 6620.817 L 3381.22 6617.217 L 3378.82 6617.217 L 3378.82 6616.017 L 3376.42 6616.017 L 3374.02 6614.817 L 3374.02 6611.217 L 3372.82 6610.017 L 3371.62 6610.017 L 3369.22 6612.417 L 3368.02 6612.417 L 3366.82 6607.617 L 3365.62 6607.617 L 3363.22 6608.817 L 3362.02 6608.817 L 3362.02 6607.617 L 3363.22 6605.217 L 3362.02 6605.217 L 3360.82 6604.017 L 3358.42 6602.817 L 3358.42 6600.417 L 3360.82 6599.217 L 3360.82 6598.017 L 3358.42 6598.017 L 3356.02 6595.617 L 3354.821 6593.217 L 3356.02 6590.818 L 3353.621 6589.618 L 3352.421 6588.418 L 3354.821 6586.018 L 3351.221 6584.818 L 3346.421 6584.818 L 3345.221 6583.618 L 3344.021 6582.418 L 3344.021 6581.218 L 3345.221 6581.218 L 3345.221 6580.018 L 3342.821 6578.818 L 3341.621 6578.818 L 3340.421 6581.218 L 3339.221 6581.218 L 3339.221 6578.818 L 3340.421 6577.618 L 3339.221 6576.418 L 3338.021 6575.218 L 3336.821 6576.418 L 3335.621 6576.418 L 3335.621 6575.218 L 3334.421 6572.818 L 3334.421 6570.418 L 3333.221 6569.218 L 3333.221 6570.418 L 3330.821 6571.618 L 3327.221 6570.418 L 3326.021 6570.418 L 3326.021 6568.018 L 3323.621 6566.818 L 3323.621 6565.618 L 3322.421 6564.418 L 3321.221 6564.418 L 3321.221 6565.618 L 3317.622 6565.618 L 3316.422 6564.418 L 3317.622 6564.418 L 3317.622 6563.218 L 3315.222 6563.218 L 3315.222 6560.818 L 3314.022 6559.618 L 3314.022 6558.418 L 3315.222 6558.418 L 3315.222 6556.018 L 3312.822 6556.018 L 3311.622 6552.419 L 3310.422 6553.619 L 3308.022 6553.619 L 3305.622 6551.219 L 3306.822 6550.019 L 3305.622 6548.819 L 3303.222 6544.019 L 3300.822 6545.219 L 3299.622 6547.619 L 3298.422 6547.619 L 3297.222 6545.219 L 3296.022 6544.019 L 3296.022 6541.619 L 3293.622 6540.419 L 3288.822 6540.419 L 3288.822 6539.219 L 3287.622 6536.819 L 3290.022 6535.619 L 3290.022 6532.019 L 3288.822 6530.819 L 3287.622 6533.219 L 3284.022 6529.619 L 3284.022 6527.219 L 3280.423 6528.419 L 3279.223 6528.419 L 3276.823 6529.619 L 3275.623 6528.419 L 3278.023 6526.019 L 3276.823 6522.419 L 3274.423 6523.619 L 3272.023 6521.219 L 3274.423 6521.219 L 3274.423 6520.019 L 3272.023 6517.62 L 3270.823 6515.22 L 3267.223 6515.22 L 3267.223 6514.02 L 3270.823 6512.82 L 3270.823 6511.62 L 3269.623 6512.82 L 3268.423 6511.62 L 3268.423 6510.42 L 3266.023 6511.62 L 3264.823 6510.42 L 3262.423 6511.62 L 3260.023 6509.22 L 3260.023 6506.82 L 3258.823 6506.82 L 3256.423 6505.62 L 3251.623 6504.42 L 3248.023 6504.42 L 3246.824 6502.02 L 3248.023 6498.42 L 3248.023 6497.22 L 3244.424 6496.02 L 3243.224 6493.62 L 3240.824 6493.62 L 3239.624 6492.42 L 3237.224 6491.22 L 3231.224 6491.22 L 3231.224 6490.02 L 3228.824 6490.02 L 3225.224 6494.82 L 3225.224 6493.62 L 3224.024 6494.82 L 3224.024 6493.62 L 3222.824 6492.42 L 3220.424 6491.22 L 3216.824 6492.42 L 3213.224 6492.42 L 3212.024 6490.02 L 3204.825 6490.02 L 3203.625 6491.22 L 3203.625 6493.62 L 3201.225 6493.62 L 3198.825 6492.42 L 3196.425 6492.42 L 3196.425 6491.22 L 3197.625 6491.22 L 3197.625 6490.02 L 3196.425 6490.02 L 3194.025 6492.42 L 3192.825 6494.82 L 3194.025 6494.82 L 3192.825 6496.02 L 3191.625 6496.02 L 3188.025 6494.82 L 3188.025 6497.22 L 3190.425 6497.22 L 3190.425 6499.62 L 3188.025 6500.82 L 3185.625 6500.82 L 3183.225 6505.62 L 3180.825 6508.02 L 3180.825 6510.42 L 3178.425 6510.42 L 3178.425 6512.82 L 3179.625 6514.02 L 3178.425 6514.02 L 3179.625 6514.02 L 3179.625 6515.22 L 3180.825 6517.62 L 3179.625 6518.82 L 3178.425 6520.019 L 3177.225 6520.019 L 3173.626 6522.419 L 3172.426 6526.019 L 3170.026 6527.219 L 3165.226 6527.219 L 3164.026 6526.019 L 3164.026 6524.819 L 3162.826 6523.619 L 3161.626 6524.819 L 3161.626 6526.019 L 3159.226 6528.419 L 3158.026 6528.419 L 3156.826 6526.019 L 3154.426 6522.419 L 3153.226 6521.219 L 3152.026 6523.619 L 3146.026 6526.019 L 3144.826 6523.619 L 3143.626 6524.819 L 3140.026 6527.219 L 3140.026 6529.619 L 3134.027 6529.619 L 3134.027 6527.219 L 3135.227 6526.019 L 3132.827 6524.819 L 3129.227 6524.819 L 3126.827 6523.619 L 3122.027 6523.619 L 3120.827 6527.219 L 3116.027 6526.019 L 3111.227 6524.819 L 3110.027 6522.419 L 3108.827 6521.219 L 3110.027 6514.12 L 3108.827 6512.92 L 3100.428 6509.32 L 3096.828 6508.12 L 3094.428 6509.32 L 3096.828 6506.92 L 3105.227 6506.92 L 3111.227 6504.52 L 3123.227 6497.32 L 3126.827 6493.72 L 3129.227 6487.72 L 3132.827 6484.12 L 3136.427 6480.521 L 3147.226 6474.521 L 3151.926 6470.021 Z " fill="#F3AA47" vector-effect="non-scaling-stroke" stroke-width="1" stroke-linejoin="miter" stroke-linecap="butt" stroke-miterlimit="4"/></svg>