<?xml version="1.0" standalone="no"?><!-- Generator: Gravit.io --><svg xmlns="http://www.w3.org/2000/svg" xmlns:xlink="http://www.w3.org/1999/xlink" style="isolation:isolate" viewBox="6455.335 1896.147 642.282 395.189" width="642.282" height="395.189"><path d=" M 6458.535 2162.14 L 6458.535 2160.94 L 6460.935 2159.74 L 6462.134 2158.54 L 6463.334 2154.94 L 6465.734 2156.14 L 6466.934 2153.74 L 6468.134 2152.54 L 6468.134 2151.34 L 6466.934 2150.14 L 6466.934 2146.541 L 6471.734 2145.341 L 6471.734 2142.941 L 6476.534 2138.141 L 6476.534 2136.941 L 6477.734 2134.541 L 6478.934 2130.941 L 6480.134 2130.941 L 6482.534 2128.541 L 6481.334 2126.141 L 6483.734 2124.941 L 6487.334 2121.341 L 6488.534 2121.341 L 6489.734 2120.141 L 6490.934 2121.341 L 6492.134 2120.141 L 6492.134 2122.541 L 6493.334 2122.541 L 6493.334 2123.741 L 6494.534 2126.141 L 6495.734 2127.341 L 6499.333 2124.941 L 6499.333 2122.541 L 6500.533 2124.941 L 6504.133 2124.941 L 6506.533 2126.141 L 6508.933 2123.741 L 6511.333 2123.741 L 6511.333 2122.541 L 6513.733 2120.141 L 6514.933 2120.141 L 6516.133 2118.941 L 6516.133 2112.942 L 6517.333 2110.542 L 6524.533 2104.542 L 6526.933 2103.342 L 6528.133 2102.142 L 6529.333 2102.142 L 6531.733 2100.942 L 6531.733 2097.342 L 6534.132 2094.942 L 6535.332 2092.542 L 6537.732 2090.142 L 6540.132 2082.942 L 6538.932 2080.542 L 6541.332 2078.142 L 6541.332 2076.942 L 6547.332 2070.943 L 6549.732 2066.143 L 6552.132 2061.343 L 6549.732 2061.343 L 6549.732 2060.143 L 6547.332 2060.143 L 6544.932 2061.343 L 6544.932 2058.943 L 6546.132 2055.343 L 6546.132 2050.543 L 6547.332 2049.343 L 6550.932 2045.743 L 6554.532 2044.543 L 6558.132 2037.344 L 6560.532 2034.944 L 6560.532 2032.544 L 6561.732 2031.344 L 6561.732 2030.144 L 6567.732 2026.544 L 6570.131 2025.344 L 6572.531 2020.544 L 6574.931 2020.544 L 6577.331 2019.344 L 6578.531 2016.944 L 6579.731 2015.744 L 6580.931 2009.744 L 6580.931 2007.344 L 6584.531 2002.545 L 6585.731 2000.145 L 6584.531 1996.545 L 6585.731 1995.345 L 6585.731 1994.145 L 6586.931 1990.545 L 6589.331 1989.345 L 6594.131 1985.745 L 6596.531 1983.345 L 6597.731 1982.145 L 6598.931 1982.145 L 6598.931 1980.945 L 6597.731 1978.545 L 6597.731 1976.145 L 6598.931 1972.545 L 6598.931 1970.145 L 6597.731 1968.945 L 6597.731 1966.546 L 6600.131 1962.946 L 6601.331 1953.346 L 6607.33 1947.346 L 6608.53 1942.546 L 6609.73 1941.346 L 6610.93 1940.146 L 6616.93 1937.746 L 6620.53 1928.147 L 6621.73 1922.147 L 6624.13 1914.947 L 6654.029 1907.747 L 6657.629 1906.547 L 6674.429 1902.947 L 6691.228 1899.347 L 6692.428 1898.147 L 6693.628 1900.547 L 6697.228 1906.547 L 6699.628 1908.947 L 6704.428 1913.747 L 6708.028 1916.147 L 6709.228 1916.147 L 6712.828 1917.347 L 6715.227 1916.147 L 6717.627 1914.947 L 6720.027 1914.947 L 6722.427 1916.147 L 6727.227 1918.547 L 6729.627 1919.747 L 6732.027 1918.547 L 6736.827 1916.147 L 6741.627 1916.147 L 6742.827 1914.947 L 6744.027 1913.747 L 6751.226 1918.547 L 6754.826 1919.747 L 6758.426 1919.747 L 6762.026 1923.347 L 6765.626 1928.147 L 6772.826 1935.346 L 6778.826 1937.746 L 6782.426 1940.146 L 6784.826 1938.946 L 6783.626 1940.146 L 6786.026 1942.546 L 6787.225 1941.346 L 6788.425 1940.146 L 6789.625 1940.146 L 6789.625 1943.746 L 6792.025 1944.946 L 6795.625 1943.746 L 6802.825 1944.946 L 6804.025 1942.546 L 6806.425 1943.746 L 6807.625 1942.546 L 6810.025 1942.546 L 6814.825 1943.746 L 6816.025 1942.546 L 6820.825 1942.546 L 6824.424 1940.146 L 6828.024 1940.146 L 6836.424 1941.346 L 6842.424 1942.546 L 6848.424 1944.946 L 6852.024 1944.946 L 6853.224 1943.746 L 6855.624 1944.946 L 6859.223 1946.146 L 6859.223 1947.346 L 6862.823 1944.946 L 6865.223 1944.946 L 6871.223 1946.146 L 6886.823 1946.146 L 6891.623 1944.946 L 6896.422 1942.546 L 6900.022 1940.146 L 6903.622 1940.146 L 6907.222 1937.746 L 6912.022 1937.746 L 6913.222 1936.546 L 6922.822 1936.546 L 6930.022 1938.946 L 6934.821 1941.346 L 6939.621 1941.346 L 6944.421 1942.546 L 6949.221 1941.346 L 6950.421 1942.546 L 6951.621 1942.546 L 6954.021 1943.746 L 6956.421 1944.946 L 6963.621 1946.146 L 6964.821 1947.346 L 6967.221 1947.346 L 6976.82 1949.746 L 6978.02 1950.946 L 6979.22 1949.746 L 6981.62 1949.746 L 6981.62 1948.546 L 6990.02 1953.346 L 6996.02 1954.546 L 7000.82 1956.946 L 7004.419 1956.946 L 7008.019 1961.746 L 7009.219 1964.146 L 7011.619 1965.346 L 7016.419 1968.945 L 7021.219 1974.945 L 7022.419 1977.345 L 7023.619 1978.545 L 7024.819 1982.145 L 7027.219 1991.745 L 7028.419 1994.145 L 7030.819 1996.545 L 7033.219 1997.745 L 7035.619 2000.145 L 7035.619 2002.545 L 7038.019 2006.144 L 7039.219 2006.144 L 7039.219 2012.144 L 7040.418 2013.344 L 7042.818 2015.744 L 7044.018 2016.944 L 7044.018 2015.744 L 7044.018 2019.344 L 7045.218 2021.744 L 7045.218 2022.944 L 7046.418 2024.144 L 7046.418 2027.744 L 7047.618 2030.144 L 7048.818 2033.744 L 7050.018 2033.744 L 7050.018 2039.744 L 7051.218 2043.343 L 7052.418 2043.343 L 7052.418 2051.743 L 7053.618 2054.143 L 7056.018 2054.143 L 7056.018 2055.343 L 7054.818 2063.743 L 7054.818 2066.143 L 7056.018 2067.343 L 7056.018 2070.943 L 7057.218 2073.343 L 7058.418 2073.343 L 7058.418 2086.542 L 7059.618 2088.942 L 7060.818 2090.142 L 7062.018 2088.942 L 7063.218 2088.942 L 7063.218 2099.742 L 7064.418 2104.542 L 7068.018 2104.542 L 7069.218 2108.142 L 7070.418 2108.142 L 7070.418 2109.342 L 7071.618 2111.742 L 7070.418 2116.541 L 7071.618 2120.141 L 7071.618 2121.341 L 7072.818 2121.341 L 7072.818 2135.741 L 7074.018 2144.141 L 7074.018 2142.941 L 7075.218 2144.141 L 7075.218 2145.341 L 7076.417 2148.941 L 7077.617 2151.34 L 7078.817 2151.34 L 7080.017 2152.54 L 7083.617 2152.54 L 7083.617 2153.74 L 7084.817 2163.34 L 7084.817 2166.94 L 7083.617 2168.14 L 7084.817 2172.94 L 7086.017 2176.54 L 7087.217 2177.74 L 7090.817 2177.74 L 7092.017 2178.94 L 7093.217 2183.74 L 7095.617 2190.939 L 7095.617 2199.339 L 7094.417 2200.539 L 7092.017 2201.739 L 7088.417 2202.939 L 7086.017 2202.939 L 7083.617 2205.339 L 7080.017 2206.539 L 7078.817 2206.539 L 7074.018 2201.739 L 7072.818 2201.739 L 7071.618 2202.939 L 7070.418 2202.939 L 7069.218 2207.739 L 7066.818 2207.739 L 7064.418 2211.339 L 7063.218 2211.339 L 7060.818 2212.539 L 7056.018 2211.339 L 7054.818 2211.339 L 7053.618 2208.939 L 7052.418 2205.339 L 7051.218 2205.339 L 7050.018 2207.739 L 7045.218 2207.739 L 7041.618 2210.139 L 7032.019 2210.139 L 7029.619 2208.939 L 7026.019 2204.139 L 7023.619 2202.939 L 7020.019 2200.539 L 7018.819 2200.539 L 7015.219 2199.339 L 7012.819 2199.339 L 7012.819 2198.139 L 7011.619 2199.339 L 7009.219 2198.139 L 7008.019 2198.139 L 7006.819 2199.339 L 7004.419 2199.339 L 7003.22 2198.139 L 7003.22 2199.339 L 7002.02 2198.139 L 6998.42 2198.139 L 6997.22 2196.939 L 6997.22 2198.139 L 6993.62 2198.139 L 6992.42 2200.539 L 6991.22 2200.539 L 6991.22 2199.339 L 6987.62 2199.339 L 6986.42 2198.139 L 6986.42 2196.939 L 6984.02 2194.539 L 6980.42 2194.539 L 6978.02 2193.339 L 6974.42 2192.139 L 6973.22 2192.139 L 6973.22 2193.339 L 6972.02 2193.339 L 6969.62 2192.139 L 6966.021 2195.739 L 6964.821 2196.939 L 6962.421 2196.939 L 6954.021 2198.139 L 6952.821 2199.339 L 6939.621 2199.339 L 6924.022 2200.539 L 6920.422 2199.339 L 6918.022 2199.339 L 6913.222 2198.139 L 6912.022 2196.939 L 6912.022 2193.339 L 6907.222 2192.139 L 6904.822 2189.739 L 6902.422 2184.94 L 6902.422 2186.139 L 6901.222 2186.139 L 6901.222 2184.94 L 6900.022 2184.94 L 6898.822 2186.139 L 6896.422 2187.339 L 6895.222 2187.339 L 6894.023 2188.539 L 6888.023 2188.539 L 6883.223 2189.739 L 6874.823 2189.739 L 6870.023 2190.939 L 6868.823 2184.94 L 6866.423 2183.74 L 6862.823 2182.54 L 6861.623 2182.54 L 6861.623 2177.74 L 6864.023 2174.14 L 6864.023 2166.94 L 6861.623 2164.54 L 6859.223 2162.14 L 6853.224 2165.74 L 6849.624 2166.94 L 6843.624 2164.54 L 6837.624 2176.54 L 6832.824 2176.54 L 6825.724 2175.34 L 6824.524 2181.34 L 6824.524 2183.74 L 6820.925 2189.739 L 6819.725 2192.139 L 6819.725 2194.539 L 6820.925 2198.139 L 6820.925 2201.739 L 6822.125 2201.739 L 6825.724 2204.139 L 6828.124 2205.339 L 6829.324 2208.939 L 6830.524 2210.139 L 6832.924 2211.339 L 6834.124 2211.339 L 6835.324 2212.539 L 6835.324 2219.739 L 6836.524 2224.538 L 6836.524 2225.738 L 6834.124 2224.538 L 6832.924 2225.738 L 6830.524 2222.138 L 6824.524 2219.739 L 6823.324 2218.539 L 6820.925 2219.739 L 6822.125 2222.138 L 6818.525 2229.338 L 6817.325 2237.738 L 6814.925 2240.138 L 6817.325 2243.738 L 6819.725 2244.938 L 6820.925 2244.938 L 6820.925 2246.138 L 6822.125 2246.138 L 6823.324 2247.338 L 6824.524 2248.538 L 6825.724 2252.138 L 6824.524 2259.337 L 6823.324 2260.537 L 6819.725 2261.737 L 6817.325 2264.137 L 6814.925 2264.137 L 6813.725 2265.337 L 6812.525 2266.537 L 6813.725 2268.937 L 6813.725 2270.137 L 6806.525 2280.937 L 6801.725 2280.937 L 6798.125 2279.737 L 6792.125 2279.737 L 6788.525 2289.337 L 6787.325 2289.337 L 6782.526 2286.937 L 6778.926 2280.937 L 6780.126 2277.337 L 6780.126 2274.937 L 6782.526 2271.337 L 6784.926 2262.937 L 6777.726 2264.137 L 6777.726 2254.538 L 6765.726 2243.738 L 6759.726 2246.138 L 6753.726 2248.538 L 6752.526 2248.538 L 6747.727 2250.938 L 6744.127 2254.538 L 6744.127 2253.338 L 6745.327 2252.138 L 6742.927 2252.138 L 6742.927 2250.938 L 6741.727 2248.538 L 6741.727 2246.138 L 6740.527 2242.538 L 6739.327 2240.138 L 6736.927 2240.138 L 6730.927 2244.938 L 6729.727 2246.138 L 6726.127 2247.338 L 6723.727 2248.538 L 6715.327 2250.938 L 6714.128 2250.938 L 6710.528 2255.738 L 6703.328 2260.537 L 6696.128 2260.537 L 6692.528 2258.137 L 6692.528 2255.738 L 6691.328 2254.538 L 6691.328 2253.338 L 6688.928 2250.938 L 6690.128 2248.538 L 6690.128 2243.738 L 6687.728 2242.538 L 6685.328 2240.138 L 6686.528 2237.738 L 6681.728 2236.538 L 6676.929 2238.938 L 6667.329 2237.738 L 6664.929 2237.738 L 6651.729 2240.138 L 6654.129 2234.138 L 6652.929 2232.938 L 6654.129 2230.538 L 6652.929 2228.138 L 6652.929 2220.939 L 6651.729 2220.939 L 6651.729 2218.539 L 6652.929 2213.739 L 6651.729 2212.539 L 6651.729 2211.339 L 6654.129 2207.739 L 6663.729 2207.739 L 6667.329 2204.139 L 6668.529 2193.339 L 6669.729 2189.739 L 6668.529 2188.539 L 6667.329 2186.139 L 6667.329 2183.74 L 6668.529 2182.54 L 6668.529 2180.14 L 6670.929 2177.74 L 6670.929 2172.94 L 6672.129 2169.34 L 6673.329 2169.34 L 6678.129 2166.94 L 6679.328 2165.74 L 6680.528 2162.14 L 6682.928 2160.94 L 6686.528 2162.14 L 6688.928 2162.14 L 6688.928 2156.14 L 6692.528 2152.54 L 6694.928 2150.14 L 6696.128 2150.14 L 6697.328 2148.941 L 6700.928 2147.741 L 6703.328 2146.541 L 6703.328 2144.141 L 6706.928 2142.941 L 6708.128 2141.741 L 6709.328 2138.141 L 6708.128 2138.141 L 6705.728 2136.941 L 6708.128 2130.941 L 6706.928 2128.541 L 6706.928 2126.141 L 6705.728 2120.141 L 6706.928 2118.941 L 6703.328 2118.941 L 6700.928 2117.741 L 6697.328 2118.941 L 6696.128 2116.541 L 6693.728 2115.341 L 6692.528 2115.341 L 6691.328 2116.541 L 6690.128 2118.941 L 6688.928 2121.341 L 6686.528 2121.341 L 6684.128 2120.141 L 6682.928 2121.341 L 6678.129 2122.541 L 6674.529 2126.141 L 6669.729 2126.141 L 6667.329 2130.941 L 6657.729 2130.941 L 6656.529 2132.141 L 6656.529 2136.941 L 6651.729 2138.141 L 6650.529 2136.941 L 6648.129 2136.941 L 6648.129 2138.141 L 6642.13 2138.141 L 6642.13 2140.541 L 6638.53 2140.541 L 6636.13 2139.341 L 6633.73 2140.541 L 6631.33 2142.941 L 6624.13 2142.941 L 6622.93 2145.341 L 6616.93 2145.341 L 6613.33 2144.141 L 6612.13 2142.941 L 6610.93 2142.941 L 6604.931 2146.541 L 6603.731 2147.741 L 6603.731 2150.14 L 6602.531 2150.14 L 6600.131 2152.54 L 6602.531 2153.74 L 6600.131 2154.94 L 6602.531 2157.34 L 6601.331 2158.54 L 6601.331 2160.94 L 6602.531 2163.34 L 6603.731 2163.34 L 6594.131 2163.34 L 6591.731 2166.94 L 6592.931 2168.14 L 6591.731 2168.14 L 6589.331 2169.34 L 6588.131 2171.74 L 6589.331 2172.94 L 6588.131 2175.34 L 6588.131 2176.54 L 6585.731 2177.74 L 6584.531 2178.94 L 6579.731 2176.54 L 6579.731 2181.34 L 6580.931 2182.54 L 6579.731 2183.74 L 6577.331 2183.74 L 6574.931 2186.139 L 6572.531 2187.339 L 6570.131 2187.339 L 6567.732 2184.94 L 6567.732 2183.74 L 6566.532 2184.94 L 6565.332 2187.339 L 6564.132 2188.539 L 6558.132 2188.539 L 6559.332 2189.739 L 6556.932 2192.139 L 6558.132 2195.739 L 6556.932 2195.739 L 6555.732 2196.939 L 6553.332 2196.939 L 6554.532 2194.539 L 6552.132 2193.339 L 6552.132 2190.939 L 6550.932 2190.939 L 6550.932 2193.339 L 6549.732 2193.339 L 6549.732 2194.539 L 6548.532 2194.539 L 6547.332 2195.739 L 6546.132 2199.339 L 6543.732 2200.539 L 6542.532 2202.939 L 6540.132 2205.339 L 6536.532 2205.339 L 6534.132 2200.539 L 6531.733 2201.739 L 6526.933 2201.739 L 6524.533 2199.339 L 6519.733 2199.339 L 6518.533 2198.139 L 6516.133 2199.339 L 6514.933 2199.339 L 6508.933 2202.939 L 6508.933 2199.339 L 6505.333 2199.339 L 6504.133 2196.939 L 6501.733 2194.539 L 6496.934 2194.539 L 6495.734 2193.339 L 6494.534 2193.339 L 6494.534 2190.939 L 6493.334 2189.739 L 6492.134 2187.339 L 6490.934 2186.139 L 6489.734 2184.94 L 6488.534 2184.94 L 6484.934 2186.139 L 6481.334 2183.74 L 6480.134 2182.54 L 6477.734 2182.54 L 6474.134 2183.74 L 6475.334 2180.14 L 6474.134 2177.74 L 6476.534 2174.14 L 6478.934 2170.54 L 6476.534 2171.74 L 6474.134 2172.94 L 6472.934 2172.94 L 6470.534 2175.34 L 6469.334 2174.14 L 6468.134 2174.14 L 6465.734 2172.94 L 6464.534 2172.94 L 6463.334 2174.14 L 6464.534 2175.34 L 6460.935 2175.34 L 6458.535 2174.14 L 6457.335 2170.54 L 6457.335 2168.14 L 6459.735 2165.74 L 6459.735 2162.14 L 6458.535 2162.14 L 6458.535 2162.14 Z " fill="#F3AA47" vector-effect="non-scaling-stroke" stroke-width="1" stroke-linejoin="miter" stroke-linecap="butt" stroke-miterlimit="4"/></svg>