<?xml version="1.0" standalone="no"?><!-- Generator: Gravit.io --><svg xmlns="http://www.w3.org/2000/svg" xmlns:xlink="http://www.w3.org/1999/xlink" style="isolation:isolate" viewBox="5344.765 4793.367 695.581 476.087" width="695.581" height="476.087"><path d=" M 5346.365 5239.055 L 5347.565 5237.855 L 5347.565 5235.455 L 5349.965 5234.255 L 5351.165 5234.255 L 5351.165 5233.055 L 5352.365 5233.055 L 5353.565 5231.855 L 5355.965 5231.855 L 5357.165 5230.655 L 5355.965 5228.255 L 5358.365 5227.055 L 5357.165 5225.855 L 5359.565 5224.655 L 5358.365 5223.455 L 5359.565 5222.255 L 5358.365 5222.255 L 5359.565 5219.855 L 5358.365 5219.855 L 5358.365 5218.656 L 5357.165 5218.656 L 5358.365 5217.456 L 5358.365 5213.856 L 5359.565 5212.656 L 5359.565 5211.456 L 5360.765 5210.256 L 5360.765 5207.856 L 5361.965 5206.656 L 5361.965 5205.456 L 5360.765 5205.456 L 5361.965 5203.056 L 5360.765 5201.856 L 5361.965 5200.656 L 5361.965 5198.256 L 5369.165 5198.256 L 5369.165 5197.056 L 5370.365 5195.856 L 5369.165 5194.656 L 5371.565 5192.256 L 5375.165 5189.856 L 5376.365 5188.656 L 5377.565 5189.856 L 5381.164 5189.856 L 5383.564 5186.256 L 5385.964 5188.656 L 5389.564 5186.256 L 5389.564 5185.056 L 5390.764 5183.856 L 5395.564 5181.457 L 5396.764 5181.457 L 5400.364 5179.057 L 5403.964 5181.457 L 5406.364 5180.257 L 5408.764 5177.857 L 5411.164 5176.657 L 5413.564 5174.257 L 5417.163 5174.257 L 5418.363 5175.457 L 5417.163 5177.857 L 5418.363 5177.857 L 5418.363 5179.057 L 5419.563 5179.057 L 5419.563 5180.257 L 5423.163 5179.057 L 5424.363 5179.057 L 5425.563 5177.857 L 5426.763 5175.457 L 5427.963 5174.257 L 5431.563 5174.257 L 5431.563 5175.457 L 5436.363 5175.457 L 5444.763 5171.857 L 5445.963 5173.057 L 5444.763 5174.257 L 5445.963 5174.257 L 5445.963 5173.057 L 5449.563 5170.657 L 5451.962 5170.657 L 5451.962 5171.857 L 5454.362 5170.657 L 5456.762 5165.857 L 5459.162 5165.857 L 5459.162 5163.457 L 5456.762 5163.457 L 5457.962 5162.257 L 5456.762 5161.057 L 5456.762 5159.857 L 5457.962 5157.457 L 5460.362 5157.457 L 5459.162 5156.257 L 5462.762 5152.657 L 5466.362 5152.657 L 5467.562 5151.457 L 5466.362 5151.457 L 5466.362 5150.257 L 5467.562 5150.257 L 5469.962 5149.057 L 5471.162 5147.857 L 5471.162 5145.458 L 5472.362 5145.458 L 5473.562 5144.258 L 5473.562 5141.858 L 5471.162 5139.458 L 5468.762 5137.058 L 5469.962 5135.858 L 5468.762 5134.658 L 5467.562 5134.658 L 5466.362 5133.458 L 5466.362 5131.058 L 5465.162 5131.058 L 5463.962 5132.258 L 5462.762 5129.858 L 5459.162 5129.858 L 5457.962 5131.058 L 5454.362 5128.658 L 5451.962 5129.858 L 5451.962 5131.058 L 5450.762 5128.658 L 5448.363 5128.658 L 5447.163 5127.458 L 5445.963 5128.658 L 5444.763 5126.258 L 5442.363 5127.458 L 5441.163 5126.258 L 5441.163 5128.658 L 5439.963 5127.458 L 5439.963 5128.658 L 5441.163 5131.058 L 5438.763 5131.058 L 5438.763 5127.458 L 5437.563 5127.458 L 5438.763 5125.058 L 5436.363 5125.058 L 5433.963 5123.858 L 5432.763 5123.858 L 5432.763 5125.058 L 5430.363 5126.258 L 5430.363 5127.458 L 5431.563 5128.658 L 5431.563 5129.858 L 5430.363 5129.858 L 5429.163 5128.658 L 5426.763 5128.658 L 5424.363 5129.858 L 5423.163 5131.058 L 5421.963 5131.058 L 5420.763 5132.258 L 5418.363 5131.058 L 5417.163 5129.858 L 5415.963 5129.858 L 5417.163 5131.058 L 5413.564 5135.858 L 5412.364 5135.858 L 5411.164 5134.658 L 5407.564 5134.658 L 5408.764 5135.858 L 5407.564 5135.858 L 5407.564 5134.658 L 5409.964 5132.258 L 5407.564 5132.258 L 5405.164 5129.858 L 5402.764 5131.058 L 5401.564 5128.658 L 5399.164 5133.458 L 5397.964 5133.458 L 5396.764 5131.058 L 5395.564 5129.858 L 5395.564 5131.058 L 5394.364 5132.258 L 5391.964 5129.858 L 5390.764 5131.058 L 5389.564 5129.858 L 5388.364 5129.858 L 5388.364 5125.058 L 5389.564 5121.458 L 5388.364 5120.258 L 5387.164 5121.458 L 5385.964 5120.258 L 5382.364 5121.458 L 5382.364 5119.058 L 5383.564 5117.858 L 5382.364 5115.458 L 5381.164 5114.258 L 5379.964 5114.258 L 5378.764 5113.058 L 5376.365 5113.058 L 5376.365 5109.459 L 5375.165 5109.459 L 5373.965 5108.259 L 5375.165 5105.859 L 5375.165 5104.659 L 5373.965 5099.859 L 5371.565 5097.459 L 5369.165 5095.059 L 5366.765 5095.059 L 5364.365 5093.859 L 5359.565 5093.859 L 5360.765 5091.459 L 5361.965 5090.259 L 5363.165 5090.259 L 5364.365 5089.059 L 5365.565 5089.059 L 5367.965 5087.859 L 5370.365 5087.859 L 5372.765 5085.459 L 5373.965 5085.459 L 5377.565 5087.859 L 5379.964 5086.659 L 5382.364 5087.859 L 5384.764 5087.859 L 5385.964 5089.059 L 5385.964 5087.859 L 5388.364 5085.459 L 5388.364 5084.259 L 5391.964 5083.059 L 5391.964 5080.659 L 5393.164 5079.459 L 5396.764 5078.259 L 5397.964 5078.259 L 5399.164 5079.459 L 5401.564 5078.259 L 5402.764 5079.459 L 5406.364 5078.259 L 5406.364 5079.459 L 5408.764 5079.459 L 5408.764 5078.259 L 5411.164 5077.059 L 5411.164 5075.859 L 5414.763 5074.66 L 5419.563 5069.86 L 5420.763 5071.06 L 5420.763 5068.66 L 5421.963 5066.26 L 5424.363 5066.26 L 5425.563 5065.06 L 5427.963 5066.26 L 5432.763 5066.26 L 5432.763 5068.66 L 5435.163 5068.66 L 5436.363 5067.46 L 5438.763 5065.06 L 5439.963 5066.26 L 5444.763 5066.26 L 5445.963 5067.46 L 5447.163 5066.26 L 5449.563 5066.26 L 5450.762 5063.86 L 5450.762 5065.06 L 5451.962 5063.86 L 5454.362 5063.86 L 5455.562 5065.06 L 5455.562 5063.86 L 5456.762 5068.66 L 5457.962 5067.46 L 5459.162 5068.66 L 5460.362 5067.46 L 5462.762 5066.26 L 5462.762 5065.06 L 5465.162 5063.86 L 5465.162 5065.06 L 5466.362 5065.06 L 5468.762 5063.86 L 5469.962 5061.46 L 5473.562 5061.46 L 5474.762 5060.26 L 5475.962 5057.86 L 5477.162 5059.06 L 5478.362 5057.86 L 5480.762 5057.86 L 5480.762 5053.06 L 5481.962 5054.26 L 5484.362 5053.06 L 5484.362 5050.66 L 5486.761 5051.86 L 5486.761 5053.06 L 5487.961 5051.86 L 5489.161 5051.86 L 5489.161 5049.46 L 5490.361 5049.46 L 5495.161 5048.26 L 5495.161 5047.06 L 5498.761 5047.06 L 5501.161 5049.46 L 5502.361 5048.26 L 5503.561 5048.26 L 5504.761 5047.06 L 5505.961 5047.06 L 5505.961 5045.86 L 5509.561 5044.66 L 5510.761 5044.66 L 5513.161 5043.46 L 5520.261 5041.06 L 5521.461 5039.86 L 5523.86 5039.86 L 5523.86 5037.461 L 5525.06 5038.661 L 5525.06 5037.461 L 5526.26 5037.461 L 5527.46 5036.261 L 5529.86 5037.461 L 5532.26 5036.261 L 5534.66 5035.061 L 5537.06 5035.061 L 5541.86 5031.461 L 5544.26 5031.461 L 5544.26 5032.661 L 5545.46 5033.861 L 5544.26 5033.861 L 5546.66 5035.061 L 5546.66 5036.261 L 5547.86 5036.261 L 5549.06 5037.461 L 5551.46 5033.861 L 5555.06 5033.861 L 5556.26 5032.661 L 5558.66 5032.661 L 5559.859 5035.061 L 5559.859 5036.261 L 5561.059 5035.061 L 5561.059 5032.661 L 5563.459 5032.661 L 5563.459 5031.461 L 5565.859 5031.461 L 5568.259 5033.861 L 5569.459 5032.661 L 5569.459 5035.061 L 5570.659 5035.061 L 5570.659 5032.661 L 5571.859 5032.661 L 5573.059 5030.261 L 5574.259 5030.261 L 5575.459 5029.061 L 5575.459 5032.661 L 5577.859 5033.861 L 5579.059 5035.061 L 5580.259 5033.861 L 5586.259 5032.661 L 5587.459 5030.261 L 5588.659 5030.261 L 5589.859 5031.461 L 5589.859 5032.661 L 5597.058 5032.661 L 5601.858 5030.261 L 5603.058 5029.061 L 5605.458 5029.061 L 5610.258 5025.461 L 5613.858 5023.061 L 5613.858 5021.861 L 5616.258 5020.661 L 5617.458 5020.661 L 5618.658 5021.861 L 5621.058 5021.861 L 5622.258 5020.661 L 5623.458 5021.861 L 5625.858 5023.061 L 5629.458 5021.861 L 5631.857 5021.861 L 5633.057 5020.661 L 5634.257 5021.861 L 5635.457 5020.661 L 5636.657 5021.861 L 5636.657 5023.061 L 5637.857 5024.261 L 5639.057 5024.261 L 5640.257 5025.461 L 5641.457 5025.461 L 5642.657 5024.261 L 5642.657 5025.461 L 5643.857 5026.661 L 5648.657 5023.061 L 5649.857 5023.061 L 5649.857 5024.261 L 5652.257 5025.461 L 5655.857 5025.461 L 5655.857 5030.261 L 5652.257 5032.661 L 5652.257 5033.861 L 5653.457 5037.461 L 5654.657 5039.86 L 5657.057 5038.661 L 5657.057 5036.261 L 5660.657 5035.061 L 5665.457 5035.061 L 5665.457 5036.261 L 5670.256 5035.061 L 5672.656 5031.461 L 5673.856 5030.261 L 5672.656 5029.061 L 5672.656 5027.861 L 5675.056 5026.661 L 5678.656 5025.461 L 5679.856 5025.461 L 5684.656 5021.861 L 5685.856 5021.861 L 5688.256 5020.661 L 5695.456 5018.261 L 5700.256 5013.461 L 5700.256 5012.261 L 5706.255 5009.861 L 5715.855 5007.461 L 5720.655 5005.061 L 5721.855 5003.861 L 5729.055 5000.262 L 5736.255 4997.862 L 5737.455 4996.662 L 5741.054 4995.462 L 5745.854 4994.262 L 5748.254 4993.062 L 5750.654 4993.062 L 5753.054 4991.862 L 5753.054 4989.462 L 5761.454 4985.862 L 5773.454 4981.062 L 5774.654 4979.862 L 5786.653 4976.262 L 5787.853 4973.862 L 5789.053 4973.862 L 5792.653 4972.662 L 5796.253 4972.662 L 5801.053 4971.462 L 5801.053 4970.262 L 5808.253 4967.862 L 5808.253 4961.863 L 5807.053 4960.663 L 5805.853 4961.863 L 5804.653 4959.463 L 5805.853 4959.463 L 5804.653 4958.263 L 5802.253 4957.063 L 5798.653 4957.063 L 5797.453 4958.263 L 5796.253 4958.263 L 5795.053 4957.063 L 5795.053 4954.663 L 5791.453 4954.663 L 5790.253 4953.463 L 5792.653 4951.063 L 5791.453 4951.063 L 5790.253 4949.863 L 5793.853 4945.063 L 5795.053 4943.863 L 5798.653 4941.463 L 5797.453 4940.263 L 5797.453 4939.063 L 5801.053 4937.863 L 5801.053 4936.663 L 5802.253 4935.463 L 5802.253 4934.263 L 5803.453 4933.063 L 5805.853 4933.063 L 5807.053 4929.464 L 5809.453 4928.264 L 5810.653 4927.064 L 5808.253 4923.464 L 5808.253 4922.264 L 5804.653 4921.064 L 5805.853 4918.664 L 5805.853 4916.264 L 5807.053 4915.064 L 5807.053 4911.464 L 5808.253 4910.264 L 5809.453 4911.464 L 5811.852 4911.464 L 5813.052 4910.264 L 5814.252 4909.064 L 5811.852 4907.864 L 5810.653 4907.864 L 5813.052 4906.664 L 5813.052 4905.464 L 5815.452 4904.264 L 5814.252 4901.864 L 5815.452 4900.664 L 5814.252 4899.464 L 5816.652 4898.264 L 5815.452 4897.064 L 5814.252 4897.064 L 5814.252 4895.864 L 5815.452 4893.465 L 5815.452 4888.665 L 5816.652 4887.465 L 5817.852 4886.265 L 5820.252 4885.065 L 5821.452 4883.865 L 5822.652 4882.665 L 5821.452 4881.465 L 5822.652 4879.065 L 5821.452 4877.865 L 5821.452 4879.065 L 5820.252 4877.865 L 5820.252 4875.465 L 5821.452 4874.265 L 5819.052 4869.465 L 5820.252 4869.465 L 5820.252 4868.265 L 5821.452 4867.065 L 5821.452 4865.865 L 5822.652 4864.665 L 5823.852 4863.465 L 5825.052 4861.065 L 5826.252 4861.065 L 5826.252 4856.266 L 5831.052 4856.266 L 5831.052 4855.066 L 5832.252 4853.866 L 5832.252 4851.466 L 5834.652 4851.466 L 5834.652 4850.266 L 5838.252 4846.666 L 5838.252 4843.066 L 5839.452 4844.266 L 5841.852 4844.266 L 5841.852 4843.066 L 5840.652 4841.866 L 5838.252 4839.466 L 5835.852 4839.466 L 5834.652 4838.266 L 5833.452 4838.266 L 5831.052 4835.866 L 5831.052 4834.666 L 5828.652 4833.466 L 5828.652 4832.266 L 5831.052 4829.866 L 5833.452 4828.666 L 5834.652 4829.866 L 5835.852 4829.866 L 5835.852 4828.666 L 5837.052 4827.466 L 5839.452 4825.066 L 5840.652 4826.266 L 5844.252 4826.266 L 5847.851 4825.066 L 5849.051 4823.866 L 5851.451 4823.866 L 5855.051 4825.066 L 5856.251 4823.866 L 5859.851 4825.066 L 5859.851 4822.666 L 5861.051 4821.467 L 5861.051 4822.666 L 5862.251 4820.267 L 5861.051 4819.067 L 5862.251 4817.867 L 5862.251 4815.467 L 5864.651 4814.267 L 5863.451 4813.067 L 5864.651 4811.867 L 5867.051 4810.667 L 5868.251 4809.467 L 5869.451 4808.267 L 5867.051 4805.867 L 5869.451 4801.067 L 5868.251 4799.867 L 5873.051 4799.867 L 5874.251 4798.667 L 5876.651 4798.667 L 5877.851 4797.467 L 5876.651 4796.267 L 5877.851 4795.067 L 5879.051 4795.067 L 5881.451 4793.867 L 5882.651 4796.267 L 5885.05 4797.467 L 5886.25 4798.667 L 5886.25 4799.867 L 5888.65 4801.067 L 5889.85 4799.867 L 5888.65 4802.267 L 5891.05 4802.267 L 5892.25 4801.067 L 5897.05 4801.067 L 5897.05 4802.267 L 5899.45 4802.267 L 5899.45 4804.667 L 5900.65 4803.467 L 5901.85 4804.667 L 5901.85 4807.067 L 5900.65 4810.667 L 5901.85 4813.067 L 5901.85 4814.267 L 5904.25 4813.067 L 5906.65 4814.267 L 5905.45 4814.267 L 5904.25 4817.867 L 5904.25 4819.067 L 5905.45 4819.067 L 5904.25 4822.666 L 5903.05 4823.866 L 5901.85 4823.866 L 5903.05 4827.466 L 5905.45 4828.666 L 5905.45 4833.466 L 5906.65 4833.466 L 5906.65 4835.866 L 5905.45 4835.866 L 5905.45 4838.266 L 5904.25 4839.466 L 5906.65 4840.666 L 5905.45 4841.866 L 5904.25 4841.866 L 5904.25 4843.066 L 5905.45 4845.466 L 5905.45 4847.866 L 5904.25 4847.866 L 5904.25 4846.666 L 5903.05 4846.666 L 5903.05 4849.066 L 5904.25 4849.066 L 5904.25 4850.266 L 5905.45 4850.266 L 5903.05 4855.066 L 5903.05 4856.266 L 5907.85 4856.266 L 5907.85 4857.466 L 5905.45 4858.665 L 5905.45 4859.865 L 5907.85 4859.865 L 5907.85 4858.665 L 5910.25 4858.665 L 5911.45 4859.865 L 5912.65 4859.865 L 5912.65 4861.065 L 5913.85 4859.865 L 5915.05 4859.865 L 5915.05 4861.065 L 5917.45 4862.265 L 5917.45 4863.465 L 5921.049 4863.465 L 5924.649 4865.865 L 5928.249 4864.665 L 5929.449 4867.065 L 5931.849 4868.265 L 5931.849 4869.465 L 5933.049 4870.665 L 5934.249 4868.265 L 5935.449 4870.665 L 5939.049 4869.465 L 5941.449 4871.865 L 5941.449 4869.465 L 5942.649 4869.465 L 5943.849 4870.665 L 5947.449 4870.665 L 5947.449 4873.065 L 5949.849 4874.265 L 5952.249 4875.465 L 5953.449 4876.665 L 5955.849 4876.665 L 5958.248 4874.265 L 5959.448 4874.265 L 5959.448 4873.065 L 5960.648 4874.265 L 5961.848 4873.065 L 5963.048 4874.265 L 5965.448 4874.265 L 5965.448 4873.065 L 5966.648 4874.265 L 5967.848 4874.265 L 5972.648 4875.465 L 5973.848 4875.465 L 5975.048 4876.665 L 5976.248 4876.665 L 5976.248 4877.865 L 5977.448 4876.665 L 5979.848 4880.265 L 5982.248 4880.265 L 5983.448 4881.465 L 5983.448 4880.265 L 5985.848 4880.265 L 5987.048 4877.865 L 5991.848 4877.865 L 5991.848 4879.065 L 5993.047 4879.065 L 5993.047 4880.265 L 5995.447 4880.265 L 5996.647 4881.465 L 5999.047 4881.465 L 5999.047 4882.665 L 5999.047 4881.465 L 6000.247 4881.465 L 6000.247 4880.265 L 6000.247 4881.465 L 6001.447 4880.265 L 6000.247 4881.465 L 6005.047 4881.465 L 6007.447 4880.265 L 6008.647 4879.065 L 6011.047 4879.065 L 6014.647 4877.865 L 6015.847 4876.665 L 6017.047 4877.865 L 6018.247 4877.865 L 6019.447 4879.065 L 6020.647 4879.065 L 6023.047 4880.265 L 6025.447 4883.865 L 6027.847 4882.665 L 6031.446 4882.665 L 6032.646 4886.265 L 6032.646 4888.665 L 6033.846 4889.865 L 6035.046 4889.865 L 6036.246 4888.665 L 6036.246 4889.865 L 6037.446 4889.865 L 6037.446 4891.065 L 6038.646 4891.065 L 6038.646 4892.265 L 6039.846 4892.265 L 6039.846 4894.664 L 6038.646 4899.464 L 6039.846 4903.064 L 6038.646 4903.064 L 6036.246 4909.064 L 6035.046 4909.064 L 6032.646 4910.264 L 6031.446 4913.864 L 6027.847 4918.664 L 6025.447 4921.064 L 6024.247 4922.264 L 6020.647 4925.864 L 6019.447 4930.663 L 6019.447 4936.663 L 6023.047 4943.863 L 6024.247 4946.263 L 6026.647 4947.463 L 6029.046 4947.463 L 6030.246 4948.663 L 6030.246 4947.463 L 6030.246 4948.663 L 6027.847 4961.863 L 6027.847 4969.062 L 6031.446 4982.262 L 6036.246 5003.761 L 6037.446 5009.761 L 6037.446 5014.561 L 6035.046 5019.361 L 6033.846 5021.761 L 6031.446 5022.961 L 6024.247 5026.561 L 6018.247 5030.161 L 6009.847 5036.161 L 6005.047 5039.76 L 5996.647 5043.36 L 5989.448 5045.76 L 5981.048 5049.36 L 5957.148 5055.36 L 5947.549 5057.76 L 5937.949 5061.36 L 5930.749 5064.96 L 5925.949 5066.16 L 5922.349 5068.56 L 5910.35 5074.56 L 5901.95 5081.759 L 5899.55 5081.759 L 5897.15 5084.159 L 5895.95 5085.359 L 5895.95 5087.759 L 5897.15 5087.759 L 5895.95 5088.959 L 5897.15 5090.159 L 5893.55 5092.559 L 5892.35 5092.559 L 5887.55 5094.959 L 5883.95 5098.559 L 5881.551 5100.959 L 5881.551 5103.359 L 5880.351 5106.959 L 5879.151 5106.959 L 5877.951 5108.159 L 5875.551 5108.159 L 5873.151 5109.359 L 5870.751 5114.158 L 5869.551 5115.358 L 5868.351 5117.758 L 5867.151 5117.758 L 5865.951 5115.358 L 5863.551 5116.558 L 5861.151 5118.958 L 5859.951 5121.358 L 5857.551 5128.558 L 5856.351 5130.958 L 5856.351 5140.558 L 5858.751 5150.157 L 5859.951 5152.557 L 5863.551 5152.557 L 5863.551 5153.757 L 5865.951 5157.357 L 5868.351 5159.757 L 5870.751 5159.757 L 5871.951 5158.557 L 5870.751 5157.357 L 5873.151 5157.357 L 5873.151 5156.157 L 5875.551 5157.357 L 5876.751 5156.157 L 5876.751 5153.757 L 5877.951 5154.957 L 5877.951 5153.757 L 5879.151 5154.957 L 5877.951 5156.157 L 5880.351 5157.357 L 5879.151 5158.557 L 5877.951 5158.557 L 5876.751 5160.957 L 5876.751 5159.757 L 5875.551 5159.757 L 5876.751 5162.157 L 5875.551 5160.957 L 5874.351 5162.157 L 5873.151 5162.157 L 5871.951 5160.957 L 5869.551 5162.157 L 5868.351 5164.557 L 5868.351 5168.157 L 5865.951 5166.957 L 5865.951 5168.157 L 5861.151 5169.357 L 5858.751 5174.157 L 5858.751 5177.757 L 5859.951 5176.557 L 5858.751 5177.757 L 5858.751 5178.957 L 5857.551 5180.157 L 5856.351 5180.157 L 5855.151 5181.357 L 5855.151 5180.157 L 5853.951 5180.157 L 5851.551 5182.557 L 5850.351 5183.756 L 5849.151 5187.356 L 5849.151 5189.756 L 5850.351 5192.156 L 5851.551 5192.156 L 5851.551 5193.356 L 5852.751 5194.556 L 5853.951 5193.356 L 5855.151 5192.156 L 5855.151 5193.356 L 5853.951 5194.556 L 5856.351 5194.556 L 5855.151 5195.756 L 5853.951 5194.556 L 5852.751 5195.756 L 5853.951 5195.756 L 5852.751 5196.956 L 5852.751 5198.156 L 5853.951 5198.156 L 5853.951 5201.756 L 5852.751 5199.356 L 5849.151 5198.156 L 5850.351 5196.956 L 5847.951 5195.756 L 5841.952 5193.356 L 5804.853 5190.956 L 5791.653 5189.756 L 5771.254 5189.756 L 5768.854 5190.956 L 5765.254 5189.756 L 5743.654 5189.756 L 5736.455 5190.956 L 5735.255 5192.156 L 5735.255 5194.556 L 5732.855 5194.556 L 5729.255 5193.356 L 5712.455 5194.556 L 5701.656 5195.756 L 5693.256 5196.956 L 5687.256 5195.756 L 5680.056 5195.756 L 5677.656 5196.956 L 5675.256 5196.956 L 5674.056 5198.156 L 5672.856 5196.956 L 5671.656 5196.956 L 5670.456 5198.156 L 5670.456 5196.956 L 5671.656 5196.956 L 5669.256 5194.556 L 5664.457 5193.356 L 5659.657 5193.356 L 5658.457 5192.156 L 5658.457 5190.956 L 5654.857 5190.956 L 5657.257 5189.756 L 5657.257 5187.356 L 5658.457 5188.556 L 5659.657 5188.556 L 5658.457 5189.756 L 5660.857 5189.756 L 5662.057 5188.556 L 5662.057 5186.156 L 5659.657 5186.156 L 5658.457 5184.956 L 5657.257 5184.956 L 5656.057 5186.156 L 5654.857 5183.756 L 5657.257 5182.557 L 5657.257 5181.357 L 5654.857 5180.157 L 5656.057 5178.957 L 5657.257 5178.957 L 5658.457 5180.157 L 5659.657 5177.757 L 5660.857 5175.357 L 5663.257 5172.957 L 5662.057 5171.757 L 5662.057 5170.557 L 5664.457 5168.157 L 5668.056 5165.757 L 5665.657 5164.557 L 5664.457 5163.357 L 5666.857 5160.957 L 5666.857 5159.757 L 5668.056 5158.557 L 5674.056 5154.957 L 5674.056 5151.357 L 5672.856 5150.157 L 5672.856 5148.957 L 5674.056 5147.757 L 5672.856 5146.558 L 5674.056 5145.358 L 5671.656 5145.358 L 5671.656 5144.158 L 5670.456 5145.358 L 5669.256 5144.158 L 5668.056 5144.158 L 5664.457 5142.958 L 5663.257 5144.158 L 5659.657 5144.158 L 5660.857 5146.558 L 5659.657 5145.358 L 5658.457 5146.558 L 5658.457 5147.757 L 5657.257 5148.957 L 5656.057 5150.157 L 5653.657 5148.957 L 5652.457 5147.757 L 5650.057 5148.957 L 5650.057 5150.157 L 5647.657 5150.157 L 5641.657 5151.357 L 5641.657 5152.557 L 5640.457 5153.757 L 5638.057 5153.757 L 5636.857 5154.957 L 5635.657 5154.957 L 5636.857 5156.157 L 5634.457 5157.357 L 5633.257 5157.357 L 5634.457 5157.357 L 5630.858 5159.757 L 5630.858 5160.957 L 5629.658 5162.157 L 5630.858 5162.157 L 5628.458 5165.757 L 5628.458 5166.957 L 5629.658 5168.157 L 5630.858 5166.957 L 5630.858 5168.157 L 5632.057 5169.357 L 5634.457 5171.757 L 5635.657 5172.957 L 5636.857 5176.557 L 5638.057 5175.357 L 5636.857 5171.757 L 5635.657 5170.557 L 5635.657 5169.357 L 5633.257 5169.357 L 5632.057 5166.957 L 5633.257 5165.757 L 5634.457 5166.957 L 5635.657 5166.957 L 5635.657 5165.757 L 5638.057 5163.357 L 5639.257 5162.157 L 5640.457 5162.157 L 5642.857 5164.557 L 5646.457 5164.557 L 5645.257 5163.357 L 5646.457 5162.157 L 5647.657 5162.157 L 5648.857 5160.957 L 5648.857 5162.157 L 5650.057 5160.957 L 5651.257 5160.957 L 5651.257 5162.157 L 5650.057 5163.357 L 5647.657 5165.757 L 5647.657 5166.957 L 5648.857 5169.357 L 5650.057 5169.357 L 5648.857 5170.557 L 5647.657 5169.357 L 5646.457 5171.757 L 5645.257 5169.357 L 5642.857 5169.357 L 5641.657 5168.157 L 5639.257 5169.357 L 5636.857 5171.757 L 5638.057 5172.957 L 5639.257 5171.757 L 5639.257 5172.957 L 5640.457 5174.157 L 5639.257 5172.957 L 5638.057 5172.957 L 5638.057 5174.157 L 5639.257 5175.357 L 5642.857 5175.357 L 5640.457 5176.557 L 5641.657 5177.757 L 5638.057 5177.757 L 5639.257 5178.957 L 5640.457 5178.957 L 5642.857 5177.757 L 5644.057 5178.957 L 5641.657 5181.357 L 5642.857 5182.557 L 5645.257 5181.357 L 5647.657 5181.357 L 5647.657 5182.557 L 5647.657 5181.357 L 5647.657 5182.557 L 5650.057 5182.557 L 5647.657 5182.557 L 5648.857 5183.756 L 5651.257 5183.756 L 5651.257 5186.156 L 5648.857 5186.156 L 5648.857 5187.356 L 5648.857 5186.156 L 5650.057 5187.356 L 5648.857 5189.756 L 5650.057 5190.956 L 5647.657 5190.956 L 5647.657 5192.156 L 5648.857 5193.356 L 5650.057 5190.956 L 5652.457 5190.956 L 5651.257 5190.956 L 5652.457 5192.156 L 5650.057 5193.356 L 5651.257 5193.356 L 5651.257 5194.556 L 5650.057 5194.556 L 5646.457 5196.956 L 5646.457 5198.156 L 5647.657 5199.356 L 5640.457 5199.356 L 5635.657 5201.756 L 5630.858 5201.756 L 5628.458 5202.956 L 5628.458 5204.156 L 5627.258 5204.156 L 5626.058 5202.956 L 5624.858 5201.756 L 5622.458 5200.556 L 5622.458 5199.356 L 5620.058 5199.356 L 5618.858 5198.156 L 5615.258 5196.956 L 5611.658 5196.956 L 5609.258 5198.156 L 5608.058 5196.956 L 5606.858 5198.156 L 5608.058 5199.356 L 5606.858 5198.156 L 5605.658 5199.356 L 5606.858 5199.356 L 5606.858 5200.556 L 5610.458 5199.356 L 5610.458 5200.556 L 5611.658 5199.356 L 5610.458 5198.156 L 5616.458 5198.156 L 5618.858 5199.356 L 5616.458 5199.356 L 5617.658 5199.356 L 5617.658 5200.556 L 5616.458 5199.356 L 5615.258 5200.556 L 5622.358 5200.556 L 5622.358 5201.756 L 5623.558 5201.756 L 5624.758 5202.956 L 5627.158 5204.156 L 5616.358 5204.156 L 5600.758 5205.356 L 5597.158 5206.556 L 5595.958 5207.756 L 5595.958 5208.956 L 5595.958 5207.756 L 5592.359 5207.756 L 5589.959 5208.956 L 5588.759 5210.156 L 5583.959 5211.356 L 5581.559 5212.556 L 5581.559 5216.156 L 5581.559 5214.956 L 5577.959 5214.956 L 5579.159 5214.956 L 5579.159 5213.756 L 5576.759 5212.556 L 5574.359 5211.356 L 5561.259 5211.356 L 5542.06 5212.556 L 5527.66 5214.956 L 5510.861 5217.356 L 5504.861 5219.755 L 5502.461 5219.755 L 5501.261 5218.556 L 5501.261 5216.156 L 5500.061 5216.156 L 5501.261 5214.956 L 5502.461 5214.956 L 5503.661 5213.756 L 5503.661 5212.556 L 5504.861 5212.556 L 5507.261 5210.156 L 5510.861 5208.956 L 5512.061 5210.156 L 5514.461 5212.556 L 5516.861 5212.556 L 5520.461 5213.756 L 5522.86 5213.756 L 5524.06 5212.556 L 5524.06 5208.956 L 5521.661 5207.756 L 5519.261 5206.556 L 5518.061 5205.356 L 5519.261 5206.556 L 5521.661 5207.756 L 5526.46 5210.156 L 5532.46 5212.556 L 5538.46 5212.556 L 5554.06 5211.356 L 5561.259 5208.956 L 5570.859 5207.756 L 5572.059 5207.756 L 5573.259 5208.956 L 5579.259 5211.356 L 5579.259 5213.756 L 5580.459 5211.356 L 5580.459 5210.156 L 5579.259 5210.156 L 5579.259 5211.356 L 5578.059 5210.156 L 5576.859 5208.956 L 5575.659 5207.756 L 5574.459 5207.756 L 5573.259 5205.356 L 5569.659 5204.156 L 5568.459 5202.956 L 5566.059 5202.956 L 5566.059 5201.756 L 5563.659 5201.756 L 5561.259 5199.356 L 5560.059 5198.156 L 5557.66 5199.356 L 5557.66 5200.556 L 5556.46 5199.356 L 5555.26 5199.356 L 5552.86 5195.756 L 5551.66 5196.956 L 5551.66 5195.756 L 5550.46 5193.356 L 5544.46 5189.756 L 5544.46 5188.556 L 5543.26 5189.756 L 5542.06 5188.556 L 5542.06 5187.356 L 5540.86 5187.356 L 5538.46 5186.156 L 5537.26 5186.156 L 5534.86 5187.356 L 5534.86 5186.156 L 5533.66 5184.956 L 5534.86 5187.356 L 5532.46 5188.556 L 5530.06 5188.556 L 5528.86 5187.356 L 5531.26 5186.156 L 5532.46 5184.956 L 5531.26 5183.756 L 5527.66 5183.756 L 5525.26 5184.956 L 5524.06 5186.156 L 5522.86 5187.356 L 5525.26 5188.556 L 5524.06 5190.956 L 5524.06 5192.156 L 5525.26 5192.156 L 5522.86 5192.156 L 5520.461 5194.556 L 5519.261 5194.556 L 5518.061 5193.356 L 5519.261 5192.156 L 5518.061 5190.956 L 5516.861 5190.956 L 5516.861 5192.156 L 5516.861 5190.956 L 5518.061 5190.956 L 5518.061 5189.756 L 5520.461 5188.556 L 5521.661 5189.756 L 5521.661 5188.556 L 5522.86 5188.556 L 5522.86 5187.356 L 5521.661 5187.356 L 5518.061 5188.556 L 5510.861 5188.556 L 5508.461 5189.756 L 5504.861 5189.756 L 5503.661 5190.956 L 5502.461 5190.956 L 5500.061 5192.156 L 5498.861 5193.356 L 5498.861 5194.556 L 5497.661 5194.556 L 5496.461 5198.156 L 5494.061 5199.356 L 5492.861 5198.156 L 5495.261 5194.556 L 5494.061 5193.356 L 5495.261 5192.156 L 5494.061 5190.956 L 5491.661 5192.156 L 5489.261 5193.356 L 5488.061 5194.556 L 5488.061 5195.756 L 5489.261 5196.956 L 5488.061 5200.556 L 5485.662 5200.556 L 5485.662 5202.956 L 5482.062 5205.356 L 5477.262 5207.756 L 5476.062 5207.756 L 5476.062 5208.956 L 5474.862 5207.756 L 5474.862 5208.956 L 5473.662 5208.956 L 5474.862 5207.756 L 5473.662 5207.756 L 5471.262 5208.956 L 5472.462 5208.956 L 5472.462 5210.156 L 5471.262 5211.356 L 5470.062 5210.156 L 5470.062 5211.356 L 5467.662 5211.356 L 5468.862 5208.956 L 5467.662 5208.956 L 5461.662 5211.356 L 5460.462 5212.556 L 5459.262 5211.356 L 5459.262 5210.156 L 5458.062 5211.356 L 5458.062 5210.156 L 5459.262 5210.156 L 5460.462 5206.556 L 5462.862 5205.356 L 5462.862 5204.156 L 5461.662 5204.156 L 5459.262 5201.756 L 5458.062 5201.756 L 5458.062 5200.556 L 5456.862 5202.956 L 5455.662 5201.756 L 5454.462 5202.956 L 5453.262 5204.156 L 5453.262 5205.356 L 5452.062 5204.156 L 5450.862 5205.356 L 5450.862 5206.556 L 5449.663 5206.556 L 5448.463 5205.356 L 5449.663 5202.956 L 5448.463 5201.756 L 5448.463 5202.956 L 5446.063 5202.956 L 5446.063 5204.156 L 5446.063 5202.956 L 5444.863 5204.156 L 5444.863 5205.356 L 5443.663 5205.356 L 5443.663 5206.556 L 5442.463 5205.356 L 5440.063 5207.756 L 5440.063 5205.356 L 5438.863 5205.356 L 5438.863 5202.956 L 5440.063 5201.756 L 5441.263 5200.556 L 5444.863 5200.556 L 5444.863 5198.156 L 5446.063 5199.356 L 5447.263 5198.156 L 5447.263 5196.956 L 5448.463 5194.556 L 5449.663 5194.556 L 5449.663 5193.356 L 5447.263 5194.556 L 5446.063 5193.356 L 5443.663 5194.556 L 5443.663 5195.756 L 5443.663 5194.556 L 5442.463 5193.356 L 5444.863 5193.356 L 5443.663 5193.356 L 5443.663 5192.156 L 5444.863 5190.956 L 5446.063 5189.756 L 5444.863 5189.756 L 5444.863 5187.356 L 5443.663 5188.556 L 5442.463 5187.356 L 5441.263 5187.356 L 5440.063 5188.556 L 5438.863 5187.356 L 5437.663 5187.356 L 5438.863 5188.556 L 5437.663 5188.556 L 5438.863 5189.756 L 5436.463 5189.756 L 5437.663 5192.156 L 5437.663 5190.956 L 5441.263 5192.156 L 5438.863 5193.356 L 5437.663 5194.556 L 5436.463 5194.556 L 5436.463 5195.756 L 5435.263 5195.756 L 5435.263 5196.956 L 5434.063 5195.756 L 5435.263 5194.556 L 5432.863 5192.156 L 5430.463 5193.356 L 5429.263 5190.956 L 5429.263 5192.156 L 5428.063 5192.156 L 5428.063 5194.556 L 5426.863 5193.356 L 5426.863 5194.556 L 5425.663 5194.556 L 5425.663 5196.956 L 5426.863 5198.156 L 5425.663 5198.156 L 5425.663 5199.356 L 5424.463 5200.556 L 5426.863 5200.556 L 5426.863 5201.756 L 5424.463 5201.756 L 5423.263 5204.156 L 5424.463 5205.356 L 5426.863 5205.356 L 5424.463 5206.556 L 5422.063 5204.156 L 5420.863 5205.356 L 5420.863 5202.956 L 5419.663 5202.956 L 5419.663 5204.156 L 5418.463 5202.956 L 5417.263 5202.956 L 5416.063 5205.356 L 5413.664 5207.756 L 5412.464 5206.556 L 5408.864 5206.556 L 5405.264 5208.956 L 5404.064 5208.956 L 5401.664 5210.156 L 5400.464 5210.156 L 5400.464 5211.356 L 5399.264 5212.556 L 5396.864 5213.756 L 5398.064 5211.356 L 5398.064 5210.156 L 5396.864 5210.156 L 5394.464 5211.356 L 5394.464 5210.156 L 5394.464 5211.356 L 5394.464 5210.156 L 5393.264 5210.156 L 5389.664 5211.356 L 5389.664 5210.156 L 5388.464 5210.156 L 5387.264 5212.556 L 5386.064 5211.356 L 5386.064 5212.556 L 5384.864 5211.356 L 5382.464 5213.756 L 5382.464 5214.956 L 5381.264 5214.956 L 5381.264 5216.156 L 5380.064 5217.356 L 5381.264 5218.556 L 5380.064 5218.556 L 5378.864 5219.755 L 5378.864 5223.355 L 5381.264 5224.555 L 5381.264 5225.755 L 5381.264 5224.555 L 5380.064 5225.755 L 5378.864 5225.755 L 5378.864 5228.155 L 5380.064 5228.155 L 5378.864 5230.555 L 5377.665 5230.555 L 5377.665 5231.755 L 5378.864 5232.955 L 5376.465 5234.155 L 5376.465 5235.355 L 5375.265 5235.355 L 5377.665 5235.355 L 5376.465 5236.555 L 5375.265 5236.555 L 5375.265 5238.955 L 5376.465 5240.155 L 5377.665 5241.355 L 5376.465 5242.555 L 5377.665 5242.555 L 5376.465 5243.755 L 5380.064 5243.755 L 5380.064 5242.555 L 5381.264 5242.555 L 5382.464 5241.355 L 5383.664 5241.355 L 5382.464 5240.155 L 5383.664 5240.155 L 5383.664 5238.955 L 5384.864 5240.155 L 5384.864 5238.955 L 5386.064 5238.955 L 5387.264 5235.355 L 5388.464 5235.355 L 5388.464 5237.755 L 5392.064 5237.755 L 5392.064 5238.955 L 5393.264 5238.955 L 5392.064 5240.155 L 5392.064 5242.555 L 5389.664 5242.555 L 5389.664 5243.755 L 5387.264 5243.755 L 5388.464 5243.755 L 5388.464 5242.555 L 5389.664 5243.755 L 5389.664 5242.555 L 5390.864 5242.555 L 5390.864 5241.355 L 5389.664 5241.355 L 5389.664 5240.155 L 5387.264 5242.555 L 5387.264 5241.355 L 5384.864 5240.155 L 5386.064 5242.555 L 5384.864 5243.755 L 5386.064 5242.555 L 5387.264 5242.555 L 5384.864 5244.955 L 5383.664 5244.955 L 5382.464 5246.155 L 5382.464 5244.955 L 5381.264 5246.155 L 5382.464 5246.155 L 5380.064 5247.355 L 5382.464 5247.355 L 5383.664 5246.155 L 5383.664 5247.355 L 5384.864 5247.355 L 5386.064 5244.955 L 5390.864 5244.955 L 5394.464 5243.755 L 5392.064 5246.155 L 5389.664 5252.155 L 5386.064 5254.555 L 5386.064 5255.754 L 5389.664 5256.954 L 5388.464 5255.754 L 5388.464 5254.555 L 5389.664 5254.555 L 5390.864 5253.355 L 5393.264 5248.555 L 5396.864 5246.155 L 5396.864 5244.955 L 5400.464 5243.755 L 5404.064 5242.555 L 5404.064 5241.355 L 5404.064 5242.555 L 5402.864 5243.755 L 5400.464 5246.155 L 5400.464 5247.355 L 5399.264 5249.755 L 5400.464 5250.955 L 5404.064 5252.155 L 5405.264 5250.955 L 5405.264 5252.155 L 5407.664 5250.955 L 5411.264 5253.355 L 5410.064 5253.355 L 5411.264 5253.355 L 5412.464 5254.555 L 5413.664 5254.555 L 5413.664 5255.754 L 5412.464 5256.954 L 5411.264 5254.555 L 5407.664 5254.555 L 5406.464 5256.954 L 5405.264 5258.154 L 5404.064 5256.954 L 5402.864 5260.554 L 5402.864 5261.754 L 5399.264 5266.554 L 5398.064 5267.754 L 5396.864 5267.754 L 5395.664 5268.954 L 5395.664 5265.354 L 5393.264 5265.354 L 5393.264 5264.154 L 5392.064 5264.154 L 5390.864 5265.354 L 5390.864 5266.554 L 5390.864 5262.954 L 5389.664 5261.754 L 5388.464 5262.954 L 5387.264 5264.154 L 5384.864 5264.154 L 5386.064 5265.354 L 5383.664 5264.154 L 5382.464 5262.954 L 5382.464 5265.354 L 5381.264 5265.354 L 5378.864 5264.154 L 5375.265 5265.354 L 5375.265 5267.754 L 5375.265 5266.554 L 5374.065 5266.554 L 5372.865 5267.754 L 5374.065 5268.954 L 5372.865 5267.754 L 5371.665 5266.554 L 5370.465 5266.554 L 5368.065 5264.154 L 5364.465 5262.954 L 5365.665 5262.954 L 5364.465 5260.554 L 5364.465 5259.354 L 5363.265 5256.954 L 5363.265 5255.754 L 5359.665 5254.555 L 5359.665 5253.355 L 5356.065 5254.555 L 5357.265 5253.355 L 5356.065 5252.155 L 5356.065 5250.955 L 5353.665 5249.755 L 5354.865 5248.555 L 5351.265 5247.355 L 5347.665 5247.355 L 5347.665 5243.755 L 5346.465 5243.755 L 5345.265 5242.555 L 5346.465 5241.355 L 5346.465 5239.055 L 5346.365 5239.055 Z  M 5909.05 5092.959 L 5909.05 5091.759 L 5910.25 5091.759 L 5910.25 5092.959 L 5909.05 5092.959 Z  M 5906.65 5094.159 L 5907.85 5092.959 L 5909.05 5094.159 L 5907.85 5094.159 L 5909.05 5095.359 L 5906.65 5095.359 L 5906.65 5094.159 Z  M 5644.457 5207.856 L 5644.457 5206.656 L 5644.457 5207.856 Z  M 5588.159 5211.456 L 5589.359 5211.456 L 5588.159 5211.456 Z  M 5482.862 5205.456 L 5482.862 5206.656 L 5482.862 5205.456 Z  M 5382.264 5221.055 L 5382.264 5222.255 L 5383.464 5222.255 L 5382.264 5222.255 L 5382.264 5221.055 Z  M 5525.96 5192.356 L 5525.96 5191.156 L 5525.96 5192.356 L 5527.16 5192.356 L 5527.16 5193.556 L 5525.96 5193.556 L 5527.16 5193.556 L 5525.96 5193.556 L 5525.96 5192.356 Z  M 5507.961 5192.356 L 5507.961 5191.156 L 5509.161 5191.156 L 5507.961 5192.356 Z  M 5630.158 5207.856 L 5628.958 5207.856 L 5628.958 5206.656 L 5630.158 5206.656 L 5630.158 5207.856 Z  M 5381.064 5221.055 L 5381.064 5222.255 L 5381.064 5221.055 Z  M 5384.664 5245.055 L 5383.464 5243.855 L 5382.264 5245.055 L 5384.664 5245.055 Z  M 5381.064 5234.255 L 5382.264 5234.255 L 5381.064 5234.255 Z  M 5401.464 5250.955 L 5401.464 5249.755 L 5401.464 5250.955 Z  M 5396.664 5217.456 L 5397.864 5217.456 L 5396.664 5217.456 L 5396.664 5218.656 L 5396.664 5217.456 Z  M 5402.664 5211.456 L 5405.064 5211.456 L 5405.064 5212.656 L 5403.864 5212.656 L 5403.864 5213.856 L 5403.864 5212.656 L 5403.864 5213.856 L 5402.664 5213.856 L 5402.664 5212.656 L 5403.864 5212.656 L 5403.864 5211.456 L 5402.664 5211.456 Z  M 5510.361 5194.756 L 5511.561 5194.756 L 5510.361 5194.756 Z  M 5390.664 5212.656 L 5393.064 5212.656 L 5391.864 5212.656 L 5391.864 5213.856 L 5390.664 5213.856 L 5390.664 5215.056 L 5390.664 5212.656 Z  M 5578.659 5216.256 L 5579.859 5216.256 L 5578.659 5216.256 Z  M 5478.062 5209.056 L 5478.062 5210.256 L 5478.062 5209.056 L 5478.062 5210.256 L 5478.062 5209.056 Z  M 5624.158 5209.056 L 5624.158 5207.856 L 5625.358 5207.856 L 5625.358 5209.056 L 5624.158 5209.056 Z  M 5510.361 5206.656 L 5510.361 5205.456 L 5510.361 5206.656 Z  M 5642.057 5206.656 L 5643.257 5206.656 L 5642.057 5206.656 Z  M 5401.464 5266.554 L 5401.464 5265.354 L 5402.664 5265.354 L 5401.464 5265.354 L 5401.464 5266.554 Z  M 5384.664 5231.855 L 5384.664 5230.655 L 5385.864 5230.655 L 5384.664 5230.655 L 5384.664 5231.855 Z  M 5511.561 5205.456 L 5511.561 5206.656 L 5511.561 5205.456 Z  M 5517.561 5200.656 L 5517.561 5199.456 L 5518.761 5199.456 L 5518.761 5200.656 L 5517.561 5200.656 Z  M 5642.057 5209.056 L 5643.257 5209.056 L 5643.257 5207.856 L 5643.257 5209.056 L 5642.057 5209.056 Z  M 5385.864 5235.455 L 5385.864 5234.255 L 5385.864 5236.655 L 5385.864 5235.455 Z  M 5399.064 5237.855 L 5400.264 5237.855 L 5400.264 5239.055 L 5399.064 5239.055 L 5399.064 5240.255 L 5396.664 5241.455 L 5395.464 5242.655 L 5393.064 5242.655 L 5395.464 5241.455 L 5397.864 5239.055 L 5399.064 5239.055 L 5399.064 5237.855 Z  M 5394.264 5213.856 L 5394.264 5212.656 L 5395.464 5212.656 L 5395.464 5211.456 L 5396.664 5211.456 L 5395.464 5212.656 L 5395.464 5213.856 L 5394.264 5213.856 Z  M 5588.159 5213.856 L 5588.159 5212.656 L 5588.159 5213.856 Z  M 5400.264 5236.655 L 5400.264 5235.455 L 5401.464 5235.455 L 5401.464 5236.655 L 5400.264 5236.655 Z  M 5651.657 5212.656 L 5652.857 5212.656 L 5652.857 5213.856 L 5652.857 5212.656 L 5651.657 5212.656 Z  M 5517.561 5198.356 L 5518.761 5198.356 L 5517.561 5198.356 Z  M 5479.262 5209.056 L 5479.262 5207.856 L 5480.462 5209.056 L 5479.262 5209.056 Z  M 5643.257 5213.856 L 5644.457 5213.856 L 5644.457 5215.056 L 5643.257 5215.056 L 5643.257 5213.856 Z  M 5388.264 5215.056 L 5388.264 5213.856 L 5389.464 5213.856 L 5389.464 5215.056 L 5389.464 5213.856 L 5389.464 5215.056 L 5388.264 5215.056 Z  M 5658.857 5159.957 L 5658.857 5156.357 L 5660.057 5156.357 L 5658.857 5157.557 L 5660.057 5158.757 L 5658.857 5159.957 Z  M 5379.864 5230.655 L 5381.064 5229.455 L 5382.264 5230.655 L 5379.864 5233.055 L 5379.864 5230.655 Z  M 5492.461 5203.156 L 5493.661 5201.956 L 5496.061 5200.756 L 5497.261 5203.156 L 5494.861 5204.356 L 5494.861 5203.156 L 5493.661 5204.356 L 5492.461 5203.156 Z  M 5512.761 5203.156 L 5512.761 5201.956 L 5513.961 5200.756 L 5515.161 5199.556 L 5516.361 5199.556 L 5516.361 5200.756 L 5515.161 5201.956 L 5513.961 5204.356 L 5512.761 5203.156 Z  M 5636.057 5176.757 L 5636.057 5179.157 L 5637.257 5177.957 L 5637.257 5176.757 L 5636.057 5176.757 Z  M 5457.662 5239.055 L 5456.462 5239.055 L 5457.662 5237.855 L 5456.462 5236.655 L 5454.062 5237.855 L 5455.262 5235.455 L 5454.062 5234.255 L 5448.063 5234.255 L 5445.663 5235.455 L 5446.863 5236.655 L 5443.263 5240.255 L 5443.263 5242.655 L 5440.863 5242.655 L 5442.063 5241.455 L 5439.663 5241.455 L 5439.663 5240.255 L 5440.863 5239.055 L 5442.063 5236.655 L 5442.063 5235.455 L 5440.863 5234.255 L 5438.463 5236.655 L 5438.463 5234.255 L 5436.063 5235.455 L 5434.863 5234.255 L 5434.863 5233.055 L 5437.263 5231.855 L 5438.463 5231.855 L 5439.663 5230.655 L 5440.863 5230.655 L 5442.063 5229.455 L 5444.463 5229.455 L 5445.663 5228.255 L 5444.463 5227.055 L 5445.663 5225.855 L 5446.863 5227.055 L 5446.863 5224.655 L 5450.462 5222.255 L 5449.263 5225.855 L 5450.462 5225.855 L 5450.462 5227.055 L 5451.662 5227.055 L 5452.862 5224.655 L 5454.062 5224.655 L 5452.862 5223.455 L 5456.462 5223.455 L 5456.462 5222.255 L 5457.662 5222.255 L 5457.662 5219.855 L 5456.462 5219.855 L 5460.062 5218.656 L 5460.062 5217.456 L 5461.262 5217.456 L 5461.262 5218.656 L 5464.862 5218.656 L 5464.862 5219.855 L 5467.262 5219.855 L 5467.262 5221.055 L 5468.462 5221.055 L 5463.662 5221.055 L 5463.662 5222.255 L 5464.862 5222.255 L 5466.062 5221.055 L 5466.062 5223.455 L 5472.062 5223.455 L 5472.062 5227.055 L 5474.462 5227.055 L 5474.462 5225.855 L 5475.662 5225.855 L 5475.662 5224.655 L 5479.262 5223.455 L 5480.462 5224.655 L 5479.262 5225.855 L 5476.862 5227.055 L 5478.062 5228.255 L 5476.862 5230.655 L 5479.262 5230.655 L 5481.662 5228.255 L 5481.662 5229.455 L 5482.862 5231.855 L 5486.462 5231.855 L 5485.262 5234.255 L 5482.862 5234.255 L 5481.662 5235.455 L 5479.262 5235.455 L 5480.462 5234.255 L 5479.262 5233.055 L 5478.062 5231.855 L 5474.462 5233.055 L 5472.062 5235.455 L 5470.862 5234.255 L 5469.662 5234.255 L 5468.462 5236.655 L 5469.662 5236.655 L 5469.662 5237.855 L 5467.262 5239.055 L 5467.262 5237.855 L 5466.062 5236.655 L 5462.462 5237.855 L 5458.862 5237.855 L 5457.662 5239.055 Z " fill="#F3AA47" vector-effect="non-scaling-stroke" stroke-width="1" stroke-linejoin="miter" stroke-linecap="butt" stroke-miterlimit="4"/></svg>