<?xml version="1.0" standalone="no"?><!-- Generator: Gravit.io --><svg xmlns="http://www.w3.org/2000/svg" xmlns:xlink="http://www.w3.org/1999/xlink" style="isolation:isolate" viewBox="1478.572 2465.932 1246.366 1047.871" width="1246.366" height="1047.871"><path d=" M 1480.572 2803.922 L 1485.372 2800.322 L 1485.372 2795.523 L 1484.172 2794.323 L 1485.372 2793.123 L 1487.772 2794.323 L 1494.972 2794.323 L 1498.572 2791.923 L 1500.972 2789.523 L 1502.172 2785.923 L 1512.972 2779.923 L 1515.371 2777.523 L 1518.971 2778.723 L 1520.171 2777.523 L 1524.971 2776.323 L 1527.371 2772.723 L 1534.571 2771.523 L 1534.571 2767.923 L 1535.771 2765.523 L 1540.571 2761.924 L 1545.371 2757.124 L 1547.771 2752.324 L 1553.77 2747.524 L 1553.77 2739.124 L 1552.57 2735.524 L 1548.971 2733.124 L 1548.971 2731.924 L 1550.17 2730.724 L 1556.17 2733.124 L 1557.37 2733.124 L 1559.77 2731.924 L 1563.37 2734.324 L 1565.77 2731.924 L 1566.97 2733.124 L 1566.97 2735.524 L 1571.77 2735.524 L 1572.97 2734.324 L 1571.77 2730.724 L 1576.57 2730.724 L 1580.17 2734.324 L 1581.37 2734.324 L 1583.77 2733.124 L 1586.169 2733.124 L 1592.169 2735.524 L 1594.569 2733.124 L 1595.769 2733.124 L 1599.369 2730.724 L 1601.769 2730.724 L 1605.369 2731.924 L 1612.569 2731.924 L 1614.969 2730.724 L 1614.969 2729.524 L 1622.168 2729.524 L 1624.568 2730.724 L 1628.168 2730.724 L 1628.168 2733.124 L 1630.568 2734.324 L 1631.768 2735.524 L 1635.368 2737.924 L 1636.568 2741.524 L 1637.768 2743.924 L 1641.368 2745.124 L 1643.768 2745.124 L 1647.368 2748.724 L 1648.568 2748.724 L 1649.768 2749.924 L 1649.768 2753.524 L 1650.968 2753.524 L 1653.368 2752.324 L 1654.568 2758.324 L 1655.768 2758.324 L 1656.968 2759.524 L 1658.167 2763.124 L 1659.367 2763.124 L 1661.767 2760.724 L 1662.967 2759.524 L 1665.367 2759.524 L 1666.567 2757.124 L 1667.767 2757.124 L 1670.167 2758.324 L 1671.367 2758.324 L 1676.167 2748.724 L 1678.567 2747.524 L 1679.767 2737.924 L 1684.567 2737.924 L 1685.767 2735.524 L 1686.967 2734.324 L 1690.567 2733.124 L 1694.166 2731.924 L 1698.966 2731.924 L 1701.366 2733.124 L 1707.366 2737.924 L 1709.766 2737.924 L 1710.966 2739.124 L 1710.966 2741.524 L 1712.166 2742.724 L 1715.766 2741.524 L 1716.966 2739.124 L 1719.366 2741.524 L 1721.766 2740.324 L 1722.966 2741.524 L 1722.966 2739.124 L 1720.566 2733.124 L 1719.366 2730.724 L 1719.366 2729.524 L 1720.566 2723.525 L 1720.566 2713.925 L 1721.766 2712.725 L 1726.566 2715.125 L 1730.165 2717.525 L 1731.365 2717.525 L 1732.565 2716.325 L 1732.565 2715.125 L 1737.365 2715.125 L 1738.565 2712.725 L 1746.965 2707.925 L 1749.365 2705.525 L 1755.365 2703.125 L 1756.565 2703.125 L 1762.565 2706.725 L 1762.565 2712.725 L 1766.164 2718.725 L 1764.965 2723.525 L 1764.965 2724.725 L 1768.564 2725.925 L 1768.564 2728.324 L 1766.164 2731.924 L 1766.164 2734.324 L 1768.564 2734.324 L 1772.164 2735.524 L 1774.564 2737.924 L 1779.364 2734.324 L 1781.764 2734.324 L 1784.164 2733.124 L 1782.964 2730.724 L 1784.164 2729.524 L 1790.164 2729.524 L 1791.364 2728.324 L 1791.364 2727.124 L 1793.764 2724.725 L 1792.564 2721.125 L 1793.764 2721.125 L 1794.964 2719.925 L 1796.164 2718.725 L 1798.564 2718.725 L 1797.364 2716.325 L 1799.764 2713.925 L 1799.764 2711.525 L 1802.164 2709.125 L 1805.763 2709.125 L 1808.163 2706.725 L 1808.163 2705.525 L 1810.563 2704.325 L 1810.563 2703.125 L 1811.763 2699.525 L 1812.963 2697.125 L 1814.163 2695.925 L 1812.963 2693.525 L 1812.963 2692.325 L 1811.763 2689.926 L 1811.763 2683.926 L 1810.563 2682.726 L 1810.563 2679.126 L 1811.763 2677.926 L 1814.163 2669.526 L 1814.163 2663.526 L 1816.563 2664.726 L 1817.763 2663.526 L 1818.963 2661.126 L 1822.563 2658.726 L 1827.363 2655.126 L 1832.163 2653.927 L 1836.963 2653.927 L 1838.163 2655.126 L 1841.762 2659.926 L 1842.962 2659.926 L 1846.562 2658.726 L 1851.362 2655.126 L 1851.362 2653.927 L 1853.762 2653.927 L 1854.962 2655.126 L 1857.362 2658.726 L 1859.762 2657.526 L 1863.362 2657.526 L 1868.162 2658.726 L 1870.562 2658.726 L 1871.762 2657.526 L 1874.162 2656.326 L 1874.162 2653.927 L 1875.361 2653.927 L 1877.761 2652.727 L 1878.961 2651.527 L 1881.361 2651.527 L 1888.561 2652.727 L 1893.361 2651.527 L 1896.961 2651.527 L 1899.361 2650.327 L 1904.161 2649.127 L 1908.961 2646.727 L 1918.56 2643.127 L 1920.96 2643.127 L 1920.96 2646.727 L 1918.56 2652.727 L 1918.56 2653.927 L 1920.96 2655.126 L 1923.36 2655.126 L 1929.36 2653.927 L 1935.36 2655.126 L 1944.96 2649.127 L 1949.759 2649.127 L 1950.959 2647.927 L 1950.959 2645.527 L 1949.759 2637.127 L 1949.759 2632.327 L 1948.559 2628.727 L 1948.559 2626.327 L 1952.159 2622.727 L 1953.359 2620.327 L 1950.959 2615.528 L 1950.959 2609.528 L 1953.359 2605.928 L 1954.559 2604.728 L 1956.959 2605.928 L 1959.359 2605.928 L 1962.959 2603.528 L 1964.159 2603.528 L 1971.359 2604.728 L 1970.159 2599.928 L 1973.759 2595.128 L 1972.559 2593.928 L 1973.759 2592.728 L 1974.959 2590.328 L 1974.959 2587.928 L 1977.359 2586.728 L 1978.559 2580.729 L 1979.759 2579.529 L 1980.959 2579.529 L 1982.159 2580.729 L 1982.159 2581.929 L 1984.558 2584.328 L 1985.758 2584.328 L 1989.358 2578.329 L 1989.358 2575.929 L 1988.158 2575.929 L 1985.758 2573.529 L 1985.758 2569.929 L 1982.159 2566.329 L 1980.959 2562.729 L 1980.959 2561.529 L 1986.958 2556.729 L 1986.958 2554.329 L 1984.558 2551.929 L 1979.759 2550.729 L 1979.759 2548.329 L 1985.758 2544.73 L 1985.758 2533.93 L 1988.158 2532.73 L 1991.758 2533.93 L 1992.958 2532.73 L 1995.358 2529.13 L 1996.558 2526.73 L 2000.158 2526.73 L 2003.758 2527.93 L 2007.358 2529.13 L 2013.358 2533.93 L 2014.558 2533.93 L 2015.758 2532.73 L 2018.158 2529.13 L 2018.158 2526.73 L 2020.557 2523.13 L 2025.357 2519.53 L 2020.557 2511.13 L 2020.557 2509.931 L 2024.157 2506.331 L 2030.157 2502.731 L 2033.757 2496.731 L 2034.957 2495.531 L 2036.157 2491.931 L 2034.957 2490.731 L 2034.957 2488.331 L 2038.557 2485.931 L 2039.757 2482.331 L 2042.157 2481.131 L 2043.357 2478.731 L 2042.157 2476.331 L 2043.357 2467.932 L 2058.956 2469.132 L 2176.253 2469.132 L 2178.653 2471.532 L 2179.853 2471.532 L 2181.053 2472.732 L 2182.253 2472.732 L 2184.653 2476.331 L 2185.853 2478.731 L 2190.653 2478.731 L 2197.853 2482.331 L 2201.452 2485.931 L 2203.852 2488.331 L 2207.452 2490.731 L 2207.452 2491.931 L 2209.852 2494.331 L 2208.652 2495.531 L 2209.852 2499.131 L 2211.052 2500.331 L 2209.852 2502.731 L 2208.652 2503.931 L 2208.652 2506.331 L 2209.852 2508.731 L 2212.252 2509.931 L 2214.652 2514.73 L 2213.452 2515.93 L 2214.652 2517.13 L 2221.852 2520.73 L 2223.052 2523.13 L 2224.252 2524.33 L 2225.452 2523.13 L 2226.652 2524.33 L 2227.852 2524.33 L 2229.052 2525.53 L 2230.252 2525.53 L 2231.452 2529.13 L 2230.252 2531.53 L 2231.452 2531.53 L 2231.452 2533.93 L 2232.652 2536.33 L 2231.452 2538.73 L 2233.852 2538.73 L 2235.052 2541.13 L 2236.251 2542.33 L 2236.251 2543.53 L 2237.451 2543.53 L 2241.051 2539.93 L 2243.451 2538.73 L 2244.651 2536.33 L 2245.851 2536.33 L 2247.051 2535.13 L 2249.451 2537.53 L 2250.651 2539.93 L 2253.051 2541.13 L 2257.851 2542.33 L 2260.251 2542.33 L 2262.651 2543.53 L 2265.051 2544.73 L 2266.251 2545.93 L 2266.251 2548.329 L 2265.051 2550.729 L 2263.851 2555.529 L 2265.051 2560.329 L 2265.051 2563.929 L 2266.251 2566.329 L 2267.451 2567.529 L 2269.851 2567.529 L 2271.051 2569.929 L 2269.851 2573.529 L 2272.25 2575.929 L 2271.051 2578.329 L 2268.651 2581.929 L 2268.651 2583.128 L 2269.851 2584.328 L 2278.25 2590.328 L 2279.45 2590.328 L 2280.65 2587.928 L 2277.05 2584.328 L 2277.05 2581.929 L 2278.25 2580.729 L 2280.65 2579.529 L 2281.85 2578.329 L 2286.65 2579.529 L 2289.05 2581.929 L 2296.15 2581.929 L 2297.35 2585.528 L 2298.55 2587.928 L 2298.55 2590.328 L 2294.95 2590.328 L 2293.75 2591.528 L 2297.35 2593.928 L 2299.75 2597.528 L 2298.55 2599.928 L 2299.75 2602.328 L 2302.15 2603.528 L 2303.35 2604.728 L 2302.15 2607.128 L 2302.15 2608.328 L 2306.95 2620.327 L 2311.749 2621.527 L 2316.549 2619.127 L 2323.749 2619.127 L 2326.149 2623.927 L 2328.549 2625.127 L 2330.949 2628.727 L 2330.949 2632.327 L 2332.149 2633.527 L 2333.349 2632.327 L 2340.549 2634.727 L 2342.949 2633.527 L 2346.548 2633.527 L 2346.548 2631.127 L 2350.148 2631.127 L 2353.748 2628.727 L 2353.748 2623.927 L 2354.948 2622.727 L 2353.748 2620.327 L 2354.948 2617.928 L 2357.348 2615.528 L 2357.348 2609.528 L 2358.548 2607.128 L 2359.748 2607.128 L 2363.348 2609.528 L 2366.948 2609.528 L 2369.348 2610.728 L 2371.748 2608.328 L 2371.748 2607.128 L 2374.148 2605.928 L 2374.148 2604.728 L 2375.348 2603.528 L 2374.148 2602.328 L 2375.348 2599.928 L 2377.748 2599.928 L 2380.148 2598.728 L 2381.347 2602.328 L 2382.547 2603.528 L 2387.347 2602.328 L 2390.947 2603.528 L 2392.147 2604.728 L 2394.547 2605.928 L 2395.747 2607.128 L 2394.547 2610.728 L 2395.747 2611.928 L 2399.347 2619.127 L 2402.947 2619.127 L 2404.147 2620.327 L 2405.347 2620.327 L 2410.147 2622.727 L 2413.747 2622.727 L 2413.747 2625.127 L 2414.947 2626.327 L 2416.147 2631.127 L 2419.746 2634.727 L 2420.946 2638.327 L 2423.346 2640.727 L 2419.746 2645.527 L 2418.546 2646.727 L 2413.747 2656.326 L 2412.547 2659.926 L 2412.547 2663.526 L 2410.147 2665.926 L 2410.147 2668.326 L 2408.947 2668.326 L 2407.747 2671.926 L 2407.747 2679.126 L 2410.147 2682.726 L 2411.347 2683.926 L 2412.547 2687.526 L 2413.747 2688.726 L 2413.747 2692.325 L 2412.547 2698.325 L 2413.747 2700.725 L 2412.547 2701.925 L 2411.347 2700.725 L 2407.747 2699.525 L 2404.147 2699.525 L 2401.747 2700.725 L 2400.547 2703.125 L 2394.547 2703.125 L 2394.547 2706.725 L 2395.747 2707.925 L 2398.147 2706.725 L 2398.147 2707.925 L 2396.947 2711.525 L 2398.147 2713.925 L 2396.947 2715.125 L 2395.747 2717.525 L 2395.747 2722.325 L 2398.147 2721.125 L 2398.147 2722.325 L 2400.547 2723.525 L 2404.147 2723.525 L 2406.547 2725.925 L 2408.947 2727.124 L 2406.547 2728.324 L 2408.947 2731.924 L 2407.747 2733.124 L 2407.747 2735.524 L 2406.547 2735.524 L 2402.947 2739.124 L 2404.147 2740.324 L 2404.147 2741.524 L 2405.347 2742.724 L 2406.547 2743.924 L 2413.747 2747.524 L 2408.947 2748.724 L 2408.947 2749.924 L 2412.547 2753.524 L 2414.947 2752.324 L 2414.947 2754.724 L 2416.147 2754.724 L 2416.147 2759.524 L 2417.346 2759.524 L 2417.346 2760.724 L 2418.546 2760.724 L 2418.546 2761.924 L 2417.346 2767.923 L 2418.546 2770.323 L 2419.746 2770.323 L 2420.946 2769.123 L 2420.946 2770.323 L 2422.146 2770.323 L 2420.946 2771.523 L 2418.546 2776.323 L 2416.147 2776.323 L 2417.346 2779.923 L 2417.346 2782.323 L 2413.747 2783.523 L 2412.547 2785.923 L 2410.147 2785.923 L 2408.947 2784.723 L 2404.147 2787.123 L 2405.347 2788.323 L 2407.747 2788.323 L 2412.547 2790.723 L 2412.547 2794.323 L 2408.947 2799.123 L 2411.347 2800.322 L 2413.747 2801.522 L 2413.747 2802.722 L 2412.547 2805.122 L 2414.947 2806.322 L 2414.947 2809.922 L 2416.147 2813.522 L 2416.147 2818.322 L 2413.747 2820.722 L 2413.747 2825.522 L 2412.547 2826.722 L 2413.747 2827.922 L 2413.747 2829.122 L 2412.547 2829.122 L 2411.347 2831.522 L 2412.547 2832.722 L 2412.547 2836.321 L 2410.147 2837.521 L 2410.147 2838.721 L 2407.747 2844.721 L 2404.147 2847.121 L 2404.147 2848.321 L 2402.947 2849.521 L 2404.147 2853.121 L 2402.947 2853.121 L 2402.947 2855.521 L 2401.747 2857.921 L 2401.747 2860.321 L 2400.547 2866.321 L 2400.547 2867.521 L 2404.147 2867.521 L 2404.147 2868.721 L 2407.747 2869.921 L 2407.747 2873.52 L 2408.947 2874.72 L 2404.147 2875.92 L 2404.147 2883.12 L 2405.347 2885.52 L 2407.747 2889.12 L 2410.147 2892.72 L 2407.747 2893.92 L 2408.947 2896.32 L 2410.147 2896.32 L 2411.347 2898.72 L 2414.947 2898.72 L 2416.147 2902.32 L 2417.346 2902.32 L 2417.346 2907.12 L 2418.546 2909.519 L 2419.746 2909.519 L 2420.946 2910.719 L 2423.346 2911.919 L 2422.146 2913.119 L 2422.146 2914.319 L 2424.546 2914.319 L 2423.346 2920.319 L 2422.146 2921.519 L 2423.346 2922.719 L 2420.946 2927.519 L 2420.946 2934.719 L 2423.346 2937.119 L 2423.346 2939.519 L 2420.946 2941.919 L 2422.146 2945.518 L 2420.946 2946.718 L 2422.146 2949.118 L 2419.746 2952.718 L 2420.946 2953.918 L 2420.946 2961.118 L 2419.746 2961.118 L 2418.546 2962.318 L 2418.546 2965.918 L 2420.946 2968.318 L 2422.146 2968.318 L 2422.146 2969.518 L 2419.746 2970.718 L 2419.746 2971.918 L 2420.946 2974.318 L 2420.946 2976.718 L 2422.146 2977.918 L 2420.946 2981.517 L 2422.146 2983.917 L 2419.746 2983.917 L 2419.746 2982.717 L 2418.546 2981.517 L 2418.546 2980.317 L 2417.346 2981.517 L 2416.147 2982.717 L 2417.346 2985.117 L 2416.147 2987.517 L 2416.147 2991.117 L 2413.747 2992.317 L 2413.747 2999.417 L 2412.547 2999.417 L 2413.747 3000.617 L 2413.747 3003.017 L 2414.947 3003.017 L 2414.947 3005.417 L 2413.747 3009.017 L 2413.747 3011.417 L 2412.547 3012.617 L 2412.547 3016.216 L 2408.947 3016.216 L 2408.947 3017.416 L 2430.546 3018.616 L 2602.941 3018.616 L 2602.941 3022.216 L 2604.141 3023.416 L 2605.341 3023.416 L 2604.141 3028.216 L 2605.341 3028.216 L 2606.541 3027.016 L 2608.941 3028.216 L 2610.141 3029.416 L 2608.941 3033.016 L 2611.341 3033.016 L 2611.341 3034.216 L 2612.541 3035.416 L 2612.541 3036.616 L 2613.741 3037.816 L 2617.341 3037.816 L 2620.941 3040.216 L 2622.141 3039.016 L 2620.941 3039.016 L 2622.141 3035.416 L 2620.941 3034.216 L 2623.341 3035.416 L 2626.941 3031.816 L 2628.141 3031.816 L 2629.341 3030.616 L 2630.541 3031.816 L 2632.941 3031.816 L 2632.941 3036.616 L 2634.14 3037.816 L 2640.14 3037.816 L 2642.54 3039.016 L 2644.94 3040.216 L 2646.14 3040.216 L 2648.54 3041.416 L 2649.74 3039.016 L 2650.94 3039.016 L 2654.54 3037.816 L 2655.74 3039.016 L 2656.94 3040.216 L 2659.34 3039.016 L 2661.74 3040.216 L 2662.94 3039.016 L 2664.14 3040.216 L 2666.54 3040.216 L 2666.54 3039.016 L 2667.74 3037.816 L 2668.94 3039.016 L 2670.139 3043.816 L 2674.939 3042.616 L 2676.139 3041.416 L 2677.339 3043.816 L 2678.539 3043.816 L 2679.739 3041.416 L 2679.739 3042.616 L 2684.539 3042.616 L 2684.539 3041.416 L 2686.939 3042.616 L 2685.739 3046.216 L 2684.539 3045.016 L 2685.739 3047.416 L 2683.339 3047.416 L 2683.339 3048.616 L 2684.539 3049.816 L 2684.539 3051.016 L 2685.739 3053.415 L 2688.139 3053.415 L 2688.139 3054.615 L 2689.339 3054.615 L 2688.139 3055.815 L 2686.939 3057.015 L 2685.739 3057.015 L 2685.739 3063.015 L 2688.139 3066.615 L 2688.139 3069.015 L 2689.339 3071.415 L 2689.339 3073.815 L 2691.739 3076.215 L 2695.339 3077.415 L 2696.539 3081.015 L 2696.539 3083.415 L 2695.339 3084.615 L 2696.539 3084.615 L 2695.339 3085.815 L 2696.539 3089.414 L 2696.539 3093.014 L 2695.339 3095.414 L 2695.339 3096.614 L 2694.139 3097.814 L 2692.939 3097.814 L 2691.739 3099.014 L 2690.539 3100.214 L 2686.939 3100.214 L 2684.539 3106.214 L 2682.139 3107.414 L 2680.939 3108.614 L 2679.739 3109.814 L 2678.539 3111.014 L 2677.339 3109.814 L 2677.339 3112.214 L 2674.939 3114.614 L 2672.539 3118.214 L 2672.539 3119.414 L 2668.94 3120.614 L 2668.94 3121.814 L 2667.74 3121.814 L 2666.54 3123.014 L 2666.54 3121.814 L 2665.34 3123.014 L 2666.54 3124.214 L 2665.34 3124.214 L 2666.54 3125.413 L 2664.14 3125.413 L 2665.34 3126.613 L 2662.94 3126.613 L 2661.74 3127.813 L 2662.94 3129.013 L 2661.74 3130.213 L 2662.94 3132.613 L 2661.74 3133.813 L 2662.94 3133.813 L 2661.74 3136.213 L 2662.94 3137.413 L 2661.74 3137.413 L 2661.74 3144.613 L 2660.54 3144.613 L 2661.74 3145.813 L 2661.74 3149.413 L 2660.54 3150.613 L 2662.94 3151.813 L 2661.74 3153.013 L 2662.94 3156.613 L 2662.94 3159.013 L 2664.14 3159.013 L 2664.14 3161.412 L 2662.94 3161.412 L 2662.94 3162.612 L 2664.14 3162.612 L 2664.14 3163.812 L 2662.94 3165.012 L 2665.34 3165.012 L 2665.34 3166.212 L 2664.14 3166.212 L 2665.34 3167.412 L 2664.14 3168.612 L 2665.34 3169.812 L 2664.14 3169.812 L 2665.34 3172.212 L 2662.94 3173.412 L 2664.14 3172.212 L 2665.34 3173.412 L 2665.34 3177.012 L 2665.34 3175.812 L 2666.54 3175.812 L 2666.54 3177.012 L 2667.74 3177.012 L 2667.74 3178.212 L 2668.94 3179.412 L 2668.94 3181.812 L 2671.339 3183.012 L 2673.739 3184.212 L 2674.939 3183.012 L 2676.139 3184.212 L 2677.339 3183.012 L 2678.539 3184.212 L 2680.939 3183.012 L 2683.339 3186.612 L 2684.539 3186.612 L 2685.739 3187.812 L 2684.539 3190.212 L 2685.739 3192.612 L 2685.739 3195.012 L 2684.539 3195.012 L 2688.139 3197.411 L 2686.939 3198.611 L 2688.139 3199.811 L 2688.139 3201.011 L 2685.739 3201.011 L 2688.139 3202.211 L 2688.139 3203.411 L 2686.939 3205.811 L 2685.739 3208.211 L 2688.139 3208.211 L 2688.139 3210.611 L 2689.339 3211.811 L 2689.339 3213.011 L 2690.539 3213.011 L 2690.539 3214.211 L 2691.739 3214.211 L 2695.339 3216.611 L 2696.539 3220.211 L 2697.739 3220.211 L 2700.139 3223.811 L 2700.139 3234.61 L 2698.939 3235.81 L 2698.939 3238.21 L 2700.139 3241.81 L 2700.139 3243.01 L 2701.339 3245.41 L 2701.339 3247.81 L 2702.539 3247.81 L 2722.938 3264.61 L 2719.338 3265.81 L 2716.938 3268.21 L 2716.938 3269.409 L 2714.538 3271.809 L 2714.538 3274.209 L 2713.338 3274.209 L 2712.138 3275.409 L 2712.138 3277.809 L 2709.738 3280.209 L 2710.938 3286.209 L 2709.738 3288.609 L 2708.538 3289.809 L 2706.138 3291.009 L 2703.739 3289.809 L 2702.539 3288.609 L 2700.139 3289.809 L 2700.139 3288.609 L 2698.939 3289.809 L 2695.339 3289.809 L 2695.339 3291.009 L 2694.139 3291.009 L 2694.139 3293.409 L 2690.539 3294.609 L 2686.939 3299.409 L 2682.139 3300.609 L 2680.939 3301.809 L 2678.539 3304.209 L 2677.339 3305.408 L 2677.339 3307.808 L 2676.139 3311.408 L 2674.939 3311.408 L 2672.539 3312.608 L 2670.139 3315.008 L 2671.339 3317.408 L 2671.339 3319.808 L 2668.94 3323.408 L 2668.94 3328.208 L 2666.54 3334.208 L 2666.54 3337.808 L 2668.94 3343.807 L 2668.94 3348.607 L 2667.74 3354.607 L 2668.94 3363.007 L 2667.74 3366.607 L 2664.14 3370.207 L 2661.74 3377.406 L 2659.34 3377.406 L 2658.14 3379.806 L 2656.94 3378.606 L 2654.54 3378.606 L 2653.34 3379.806 L 2649.74 3378.606 L 2648.54 3379.806 L 2648.54 3381.006 L 2647.34 3382.206 L 2646.14 3384.606 L 2644.94 3385.806 L 2644.94 3389.406 L 2643.74 3389.406 L 2642.54 3390.606 L 2640.14 3390.606 L 2640.14 3393.006 L 2638.94 3395.406 L 2637.74 3395.406 L 2635.34 3399.006 L 2632.941 3399.006 L 2632.941 3401.406 L 2631.741 3402.606 L 2632.941 3403.806 L 2632.941 3406.206 L 2634.14 3407.406 L 2632.941 3409.806 L 2635.34 3411.006 L 2630.541 3417.005 L 2628.141 3417.005 L 2628.141 3420.605 L 2625.741 3424.205 L 2625.741 3426.605 L 2624.541 3426.605 L 2624.541 3431.405 L 2623.341 3431.405 L 2622.141 3435.005 L 2619.741 3435.005 L 2619.741 3438.605 L 2618.541 3439.805 L 2618.541 3438.605 L 2618.541 3441.005 L 2617.341 3443.405 L 2616.141 3443.405 L 2617.341 3445.805 L 2617.341 3451.804 L 2616.141 3451.804 L 2616.141 3453.004 L 2614.941 3453.004 L 2614.941 3456.604 L 2617.341 3459.004 L 2614.941 3460.204 L 2614.941 3465.004 L 2613.741 3467.404 L 2611.341 3467.404 L 2611.341 3468.604 L 2610.141 3468.604 L 2606.541 3472.204 L 2606.541 3473.404 L 2601.741 3474.604 L 2600.541 3473.404 L 2598.141 3474.604 L 2596.941 3475.804 L 2596.941 3474.604 L 2593.342 3475.804 L 2588.542 3479.404 L 2588.542 3483.004 L 2586.142 3483.004 L 2586.142 3484.204 L 2584.942 3484.204 L 2583.742 3485.404 L 2580.142 3487.803 L 2578.942 3487.803 L 2577.742 3489.003 L 2576.542 3489.003 L 2574.142 3487.803 L 2570.542 3489.003 L 2570.542 3490.203 L 2569.342 3491.403 L 2569.342 3493.803 L 2568.142 3492.603 L 2566.942 3495.003 L 2564.542 3495.003 L 2564.542 3496.203 L 2563.342 3496.203 L 2563.342 3497.403 L 2560.942 3498.603 L 2560.942 3501.003 L 2559.743 3502.203 L 2560.942 3503.403 L 2559.743 3503.403 L 2558.543 3504.603 L 2559.743 3504.603 L 2558.543 3504.603 L 2559.743 3505.803 L 2558.543 3507.003 L 2557.343 3507.003 L 2557.343 3508.203 L 2556.143 3508.203 L 2556.143 3509.403 L 2557.343 3510.603 L 2556.143 3511.803 L 2551.343 3509.403 L 2548.943 3510.603 L 2546.543 3509.403 L 2546.543 3505.803 L 2545.343 3505.803 L 2542.943 3504.603 L 2539.343 3503.403 L 2538.143 3501.003 L 2535.743 3499.803 L 2533.343 3499.803 L 2527.343 3497.403 L 2526.143 3495.003 L 2521.344 3491.403 L 2520.144 3489.003 L 2518.944 3486.603 L 2520.144 3484.204 L 2518.944 3483.004 L 2517.744 3483.004 L 2514.144 3485.404 L 2512.944 3485.404 L 2511.744 3483.004 L 2508.144 3483.004 L 2508.144 3484.204 L 2504.544 3485.404 L 2503.344 3480.604 L 2504.544 3480.604 L 2505.744 3481.804 L 2505.744 3480.604 L 2504.544 3479.404 L 2504.544 3477.004 L 2505.744 3475.804 L 2506.944 3477.004 L 2508.144 3475.804 L 2503.344 3473.404 L 2500.944 3474.604 L 2498.544 3473.404 L 2496.144 3473.404 L 2496.144 3474.604 L 2499.744 3475.804 L 2498.544 3477.004 L 2496.144 3478.204 L 2494.944 3478.204 L 2493.744 3475.804 L 2492.544 3475.804 L 2490.144 3474.604 L 2488.944 3474.604 L 2488.944 3477.004 L 2487.745 3479.404 L 2487.745 3480.604 L 2486.545 3481.804 L 2482.945 3479.404 L 2480.545 3481.804 L 2481.745 3478.204 L 2480.545 3478.204 L 2479.345 3479.404 L 2480.545 3480.604 L 2479.345 3481.804 L 2478.145 3480.604 L 2478.145 3479.404 L 2475.745 3478.204 L 2473.345 3478.204 L 2473.345 3477.004 L 2472.145 3479.404 L 2473.345 3480.604 L 2470.945 3483.004 L 2468.545 3480.604 L 2466.145 3481.804 L 2464.945 3480.604 L 2463.745 3479.404 L 2462.545 3478.204 L 2462.545 3475.804 L 2458.945 3475.804 L 2456.545 3477.004 L 2455.345 3475.804 L 2455.345 3473.404 L 2452.945 3472.204 L 2451.746 3472.204 L 2452.945 3475.804 L 2450.546 3477.004 L 2445.746 3477.004 L 2445.746 3479.404 L 2437.346 3479.404 L 2433.746 3480.604 L 2434.946 3483.004 L 2432.546 3483.004 L 2430.146 3484.204 L 2422.946 3486.603 L 2419.346 3484.204 L 2415.747 3484.204 L 2413.347 3483.004 L 2410.947 3481.804 L 2410.947 3480.604 L 2407.347 3479.404 L 2404.947 3479.404 L 2403.747 3478.204 L 2404.947 3474.604 L 2403.747 3473.404 L 2402.547 3474.604 L 2402.547 3475.804 L 2400.147 3475.804 L 2397.747 3478.204 L 2396.547 3478.204 L 2396.547 3475.804 L 2395.347 3475.804 L 2395.347 3478.204 L 2394.147 3478.204 L 2391.747 3477.004 L 2391.747 3479.404 L 2390.547 3479.404 L 2386.947 3478.204 L 2386.947 3477.004 L 2384.547 3478.204 L 2382.147 3475.804 L 2383.347 3477.004 L 2380.947 3478.204 L 2377.348 3480.604 L 2376.148 3479.404 L 2376.148 3480.604 L 2373.748 3480.604 L 2372.548 3479.404 L 2371.348 3480.604 L 2372.548 3481.804 L 2371.348 3483.004 L 2370.148 3483.004 L 2370.148 3479.404 L 2368.948 3479.404 L 2367.748 3481.804 L 2366.548 3483.004 L 2362.948 3481.804 L 2361.748 3480.604 L 2361.748 3483.004 L 2360.548 3483.004 L 2360.548 3481.804 L 2358.148 3483.004 L 2356.948 3485.404 L 2356.948 3480.604 L 2355.748 3480.604 L 2354.548 3483.004 L 2352.148 3481.804 L 2352.148 3478.204 L 2349.748 3475.804 L 2349.748 3468.604 L 2347.348 3463.804 L 2347.348 3462.604 L 2344.948 3463.804 L 2343.749 3463.804 L 2341.349 3462.604 L 2341.349 3461.404 L 2338.949 3459.004 L 2337.749 3460.204 L 2336.549 3459.004 L 2334.149 3459.004 L 2335.349 3456.604 L 2334.149 3455.404 L 2332.949 3455.404 L 2334.149 3453.004 L 2332.949 3451.804 L 2329.349 3450.604 L 2329.349 3451.804 L 2330.549 3451.804 L 2329.349 3453.004 L 2326.949 3449.405 L 2326.949 3444.605 L 2324.549 3444.605 L 2323.349 3445.805 L 2320.949 3442.205 L 2318.549 3442.205 L 2318.549 3437.405 L 2316.149 3438.605 L 2313.749 3437.405 L 2313.749 3436.205 L 2312.549 3436.205 L 2311.349 3433.805 L 2308.949 3431.405 L 2308.949 3430.205 L 2310.149 3427.805 L 2310.149 3424.205 L 2308.949 3423.005 L 2307.75 3417.005 L 2308.949 3414.605 L 2307.75 3413.405 L 2306.55 3412.206 L 2305.35 3412.206 L 2304.15 3414.605 L 2302.95 3414.605 L 2301.75 3412.206 L 2300.55 3411.006 L 2299.35 3409.806 L 2299.35 3406.206 L 2296.95 3406.206 L 2296.95 3411.006 L 2295.75 3413.405 L 2293.35 3412.206 L 2293.35 3407.406 L 2290.95 3405.006 L 2289.75 3405.006 L 2288.55 3407.406 L 2287.35 3406.206 L 2286.15 3406.206 L 2284.95 3411.006 L 2282.55 3411.006 L 2282.55 3412.206 L 2280.15 3411.006 L 2281.35 3413.405 L 2280.15 3413.405 L 2277.75 3411.006 L 2276.55 3412.206 L 2275.35 3409.806 L 2272.95 3409.806 L 2271.751 3412.206 L 2270.551 3409.806 L 2268.151 3412.206 L 2268.151 3411.006 L 2269.351 3411.006 L 2268.151 3409.806 L 2266.951 3411.006 L 2264.551 3409.806 L 2263.351 3411.006 L 2260.951 3408.606 L 2259.751 3409.806 L 2258.551 3408.606 L 2258.551 3405.006 L 2256.151 3408.606 L 2254.951 3406.206 L 2252.551 3403.806 L 2252.551 3400.206 L 2251.351 3399.006 L 2250.151 3399.006 L 2248.951 3401.406 L 2247.751 3400.206 L 2248.951 3397.806 L 2248.951 3396.606 L 2247.751 3396.606 L 2246.551 3399.006 L 2245.351 3399.006 L 2245.351 3395.406 L 2244.151 3395.406 L 2242.951 3396.606 L 2244.151 3399.006 L 2240.551 3400.206 L 2236.951 3396.606 L 2234.552 3397.806 L 2232.152 3397.806 L 2229.752 3396.606 L 2220.152 3391.806 L 2220.152 3389.406 L 2222.552 3388.206 L 2221.352 3387.006 L 2218.952 3388.206 L 2217.752 3388.206 L 2216.552 3387.006 L 2217.752 3384.606 L 2217.752 3383.406 L 2214.152 3383.406 L 2215.352 3379.806 L 2215.352 3378.606 L 2214.152 3378.606 L 2211.752 3379.806 L 2211.752 3381.006 L 2209.352 3383.406 L 2205.752 3383.406 L 2205.752 3385.806 L 2204.552 3384.606 L 2203.352 3385.806 L 2200.952 3384.606 L 2199.752 3387.006 L 2199.752 3389.406 L 2197.353 3387.006 L 2197.353 3384.606 L 2196.153 3384.606 L 2194.953 3388.206 L 2191.353 3387.006 L 2188.953 3383.406 L 2186.553 3378.606 L 2186.553 3373.807 L 2182.953 3372.607 L 2181.753 3373.807 L 2180.553 3375.007 L 2179.353 3375.007 L 2178.153 3373.807 L 2179.353 3371.407 L 2176.953 3369.007 L 2175.753 3369.007 L 2173.353 3364.207 L 2170.953 3363.007 L 2170.953 3359.407 L 2168.553 3358.207 L 2166.153 3355.807 L 2163.753 3355.807 L 2162.554 3357.007 L 2162.554 3358.207 L 2161.354 3359.407 L 2161.354 3357.007 L 2158.954 3357.007 L 2157.754 3359.407 L 2156.554 3359.407 L 2155.354 3358.207 L 2155.354 3357.007 L 2150.554 3355.807 L 2149.354 3353.407 L 2150.554 3349.807 L 2148.154 3349.807 L 2148.154 3346.207 L 2145.754 3345.007 L 2143.354 3337.808 L 2142.154 3335.408 L 2139.754 3335.408 L 2137.354 3334.208 L 2138.554 3330.608 L 2140.954 3329.408 L 2140.954 3328.208 L 2139.754 3327.008 L 2134.954 3327.008 L 2134.954 3325.808 L 2136.154 3324.608 L 2136.154 3322.208 L 2130.154 3322.208 L 2130.154 3319.808 L 2127.754 3321.008 L 2127.754 3318.608 L 2125.355 3318.608 L 2125.355 3315.008 L 2124.155 3315.008 L 2122.955 3316.208 L 2124.155 3318.608 L 2121.755 3319.808 L 2119.355 3317.408 L 2118.155 3316.208 L 2116.955 3317.408 L 2118.155 3319.808 L 2118.155 3321.008 L 2116.955 3322.208 L 2113.355 3322.208 L 2112.155 3323.408 L 2108.555 3323.408 L 2108.555 3324.608 L 2109.755 3324.608 L 2109.755 3325.808 L 2110.955 3327.008 L 2110.955 3328.208 L 2108.555 3328.208 L 2107.355 3327.008 L 2100.255 3327.008 L 2094.255 3324.608 L 2090.656 3322.208 L 2087.056 3323.408 L 2085.856 3322.208 L 2081.056 3318.608 L 2079.856 3313.808 L 2077.456 3312.608 L 2076.256 3313.808 L 2075.056 3312.608 L 2073.856 3311.408 L 2077.456 3311.408 L 2075.056 3309.008 L 2075.056 3305.408 L 2063.056 3305.408 L 2058.256 3301.809 L 2054.657 3294.609 L 2051.057 3293.409 L 2047.457 3292.209 L 2043.857 3291.009 L 2042.657 3288.609 L 2036.657 3286.209 L 2033.057 3287.409 L 2030.657 3285.009 L 2022.257 3282.609 L 2017.458 3282.609 L 2013.858 3280.209 L 2012.658 3281.409 L 2010.258 3283.809 L 2009.058 3285.009 L 2007.858 3283.809 L 2005.458 3287.409 L 2001.858 3286.209 L 1998.258 3283.809 L 1995.858 3283.809 L 1994.658 3285.009 L 1994.658 3287.409 L 1993.458 3291.009 L 1993.458 3294.609 L 1992.258 3295.809 L 1989.858 3295.809 L 1986.258 3298.209 L 1982.659 3299.409 L 1981.459 3298.209 L 1976.659 3294.609 L 1975.459 3294.609 L 1975.459 3295.809 L 1974.259 3297.009 L 1971.859 3294.609 L 1969.459 3297.009 L 1968.259 3297.009 L 1967.059 3293.409 L 1964.659 3292.209 L 1963.459 3292.209 L 1962.259 3293.409 L 1959.859 3293.409 L 1959.859 3291.009 L 1958.659 3291.009 L 1957.459 3292.209 L 1955.059 3294.609 L 1953.859 3294.609 L 1953.859 3291.009 L 1952.659 3289.809 L 1950.259 3289.809 L 1949.059 3294.609 L 1949.059 3295.809 L 1945.46 3295.809 L 1944.26 3294.609 L 1945.46 3292.209 L 1945.46 3287.409 L 1943.06 3287.409 L 1941.86 3288.609 L 1940.66 3288.609 L 1938.26 3287.409 L 1937.06 3287.409 L 1934.66 3285.009 L 1931.06 3289.809 L 1927.46 3291.009 L 1926.26 3293.409 L 1925.06 3294.609 L 1923.86 3293.409 L 1922.66 3292.209 L 1923.86 3288.609 L 1923.86 3286.209 L 1914.26 3286.209 L 1904.661 3285.009 L 1902.261 3282.609 L 1901.061 3281.409 L 1896.261 3276.609 L 1893.861 3273.009 L 1891.461 3271.809 L 1886.661 3269.409 L 1885.461 3265.81 L 1885.461 3264.61 L 1886.661 3262.21 L 1887.861 3256.21 L 1887.861 3250.21 L 1886.661 3244.21 L 1885.461 3243.01 L 1883.061 3244.21 L 1878.261 3246.61 L 1877.061 3246.61 L 1874.661 3243.01 L 1873.462 3241.81 L 1866.262 3241.81 L 1856.662 3238.21 L 1851.862 3237.01 L 1849.462 3234.61 L 1848.262 3228.611 L 1849.462 3225.011 L 1851.862 3221.411 L 1851.862 3220.211 L 1849.462 3217.811 L 1848.262 3219.011 L 1844.662 3220.211 L 1845.862 3223.811 L 1845.862 3227.411 L 1844.662 3231.011 L 1841.062 3231.011 L 1839.862 3228.611 L 1842.262 3222.611 L 1841.062 3221.411 L 1839.862 3220.211 L 1836.263 3217.811 L 1833.863 3217.811 L 1832.663 3220.211 L 1829.063 3225.011 L 1827.863 3225.011 L 1826.663 3222.611 L 1826.663 3220.211 L 1829.063 3216.611 L 1831.463 3215.411 L 1832.663 3213.011 L 1831.463 3210.611 L 1829.063 3205.811 L 1827.863 3204.611 L 1819.463 3204.611 L 1813.463 3208.211 L 1811.063 3205.811 L 1808.663 3202.211 L 1807.463 3201.011 L 1805.063 3202.211 L 1803.863 3205.811 L 1801.464 3205.811 L 1799.064 3201.011 L 1797.864 3201.011 L 1794.264 3202.211 L 1793.064 3202.211 L 1793.064 3199.811 L 1794.264 3197.411 L 1793.064 3196.212 L 1791.864 3197.411 L 1791.864 3196.212 L 1794.264 3192.612 L 1796.664 3184.212 L 1795.464 3183.012 L 1793.064 3181.812 L 1788.264 3181.812 L 1785.864 3178.212 L 1785.864 3177.012 L 1788.264 3171.012 L 1788.264 3165.012 L 1784.664 3154.213 L 1784.664 3151.813 L 1783.464 3149.413 L 1781.064 3149.413 L 1776.264 3151.813 L 1766.664 3151.813 L 1765.465 3153.013 L 1767.864 3155.413 L 1767.864 3157.813 L 1765.465 3157.813 L 1758.265 3154.213 L 1753.465 3150.613 L 1752.265 3149.413 L 1753.465 3148.213 L 1758.265 3143.413 L 1760.665 3138.613 L 1760.665 3137.413 L 1758.265 3132.613 L 1758.265 3131.413 L 1759.465 3129.013 L 1757.065 3126.613 L 1757.065 3124.214 L 1760.665 3120.614 L 1761.865 3117.014 L 1760.665 3115.814 L 1759.465 3114.614 L 1753.465 3114.614 L 1746.265 3112.214 L 1745.065 3112.214 L 1743.865 3109.814 L 1741.465 3096.614 L 1741.465 3090.614 L 1739.065 3084.615 L 1740.265 3082.215 L 1746.265 3081.015 L 1747.465 3079.815 L 1746.265 3077.415 L 1739.065 3077.415 L 1737.865 3076.215 L 1735.465 3066.615 L 1735.465 3060.615 L 1736.665 3059.415 L 1741.465 3058.215 L 1742.665 3057.015 L 1741.465 3054.615 L 1736.665 3054.615 L 1734.265 3047.416 L 1734.265 3045.016 L 1736.665 3042.616 L 1740.265 3039.016 L 1748.665 3036.616 L 1749.865 3034.216 L 1748.665 3031.816 L 1746.265 3027.016 L 1745.065 3025.816 L 1751.065 3021.016 L 1754.665 3018.616 L 1754.665 3017.416 L 1751.065 3013.817 L 1749.865 3010.217 L 1748.665 3006.617 L 1748.665 3005.417 L 1752.265 3006.617 L 1749.865 2997.017 L 1742.665 2987.417 L 1739.065 2985.017 L 1736.665 2985.017 L 1734.265 2983.817 L 1734.265 2980.217 L 1736.665 2980.217 L 1737.865 2976.618 L 1736.665 2973.018 L 1737.865 2968.218 L 1737.865 2964.618 L 1736.665 2961.018 L 1735.465 2957.418 L 1731.865 2956.218 L 1728.266 2956.218 L 1727.066 2955.018 L 1727.066 2953.818 L 1725.866 2952.618 L 1724.666 2951.418 L 1725.866 2950.218 L 1725.866 2947.818 L 1728.266 2946.618 L 1728.266 2944.218 L 1727.066 2939.419 L 1724.666 2935.819 L 1725.866 2931.019 L 1723.466 2928.619 L 1722.266 2926.219 L 1723.466 2922.619 L 1727.066 2922.619 L 1729.466 2920.219 L 1731.865 2916.619 L 1731.865 2910.619 L 1729.466 2905.82 L 1731.865 2902.22 L 1734.265 2901.02 L 1737.865 2896.22 L 1741.465 2892.62 L 1743.865 2885.42 L 1745.065 2884.22 L 1746.265 2881.82 L 1747.465 2879.42 L 1747.465 2877.02 L 1745.065 2872.22 L 1745.065 2868.621 L 1746.265 2863.821 L 1745.065 2856.621 L 1742.665 2854.221 L 1741.465 2849.421 L 1740.265 2847.021 L 1742.665 2838.621 L 1741.465 2833.822 L 1740.265 2831.422 L 1740.265 2825.422 L 1741.465 2820.622 L 1747.465 2814.622 L 1748.665 2809.822 L 1747.465 2807.422 L 1742.665 2803.822 L 1740.265 2797.823 L 1737.865 2793.023 L 1736.665 2788.223 L 1734.265 2785.823 L 1729.466 2781.023 L 1719.866 2777.423 L 1719.866 2778.623 L 1721.066 2779.823 L 1721.066 2781.023 L 1719.866 2783.423 L 1715.066 2785.823 L 1713.866 2785.823 L 1712.666 2784.623 L 1712.666 2785.823 L 1713.866 2788.223 L 1710.266 2789.423 L 1710.266 2799.023 L 1707.866 2800.222 L 1704.266 2797.823 L 1703.066 2802.622 L 1700.666 2802.622 L 1699.466 2803.822 L 1699.466 2805.022 L 1700.666 2808.622 L 1700.666 2809.822 L 1699.466 2809.822 L 1698.266 2808.622 L 1693.467 2809.822 L 1693.467 2806.222 L 1692.267 2806.222 L 1689.867 2807.422 L 1688.667 2808.622 L 1687.467 2807.422 L 1686.267 2802.622 L 1685.067 2802.622 L 1683.867 2805.022 L 1683.867 2803.822 L 1682.667 2802.622 L 1685.067 2800.222 L 1682.667 2800.222 L 1680.267 2797.823 L 1676.667 2801.422 L 1676.667 2803.822 L 1673.067 2802.622 L 1675.467 2799.023 L 1673.067 2796.623 L 1673.067 2795.423 L 1677.867 2795.423 L 1679.067 2794.223 L 1677.867 2794.223 L 1677.867 2791.823 L 1675.467 2793.023 L 1674.267 2794.223 L 1669.467 2794.223 L 1668.267 2795.423 L 1668.267 2797.823 L 1667.067 2797.823 L 1664.667 2795.423 L 1662.267 2794.223 L 1663.467 2791.823 L 1663.467 2789.423 L 1661.067 2790.623 L 1661.067 2791.823 L 1662.267 2795.423 L 1661.067 2796.623 L 1659.867 2799.023 L 1658.667 2800.222 L 1657.468 2799.023 L 1657.468 2800.222 L 1656.268 2799.023 L 1655.068 2796.623 L 1657.468 2795.423 L 1657.468 2794.223 L 1656.268 2794.223 L 1655.068 2793.023 L 1653.868 2793.023 L 1653.868 2795.423 L 1651.468 2795.423 L 1651.468 2797.823 L 1650.268 2799.023 L 1650.268 2800.222 L 1644.268 2800.222 L 1645.468 2797.823 L 1645.468 2796.623 L 1646.668 2795.423 L 1645.468 2794.223 L 1644.268 2793.023 L 1641.868 2793.023 L 1639.468 2794.223 L 1639.468 2795.423 L 1637.068 2795.423 L 1637.068 2793.023 L 1635.868 2793.023 L 1634.668 2794.223 L 1635.868 2795.423 L 1634.668 2795.423 L 1633.468 2796.623 L 1633.468 2795.423 L 1632.268 2794.223 L 1629.868 2795.423 L 1627.468 2796.623 L 1626.268 2801.422 L 1628.668 2802.622 L 1627.468 2802.622 L 1625.068 2801.422 L 1625.068 2803.822 L 1623.868 2802.622 L 1622.668 2802.622 L 1622.668 2800.222 L 1619.069 2803.822 L 1617.869 2803.822 L 1615.469 2799.023 L 1609.469 2799.023 L 1607.069 2800.222 L 1608.269 2801.422 L 1607.069 2801.422 L 1605.869 2803.822 L 1604.669 2802.622 L 1604.669 2799.023 L 1602.269 2799.023 L 1602.269 2800.222 L 1599.869 2800.222 L 1599.869 2799.023 L 1598.669 2800.222 L 1597.469 2799.023 L 1596.269 2800.222 L 1595.069 2799.023 L 1591.469 2800.222 L 1591.469 2802.622 L 1587.869 2802.622 L 1587.869 2803.822 L 1589.069 2806.222 L 1587.869 2805.022 L 1586.669 2806.222 L 1587.869 2806.222 L 1585.47 2807.422 L 1584.27 2807.422 L 1583.07 2806.222 L 1579.47 2803.822 L 1579.47 2806.222 L 1578.27 2805.022 L 1578.27 2806.222 L 1577.07 2807.422 L 1575.87 2807.422 L 1573.47 2808.622 L 1573.47 2806.222 L 1572.27 2807.422 L 1572.27 2809.822 L 1571.07 2809.822 L 1568.67 2808.622 L 1567.47 2808.622 L 1566.27 2807.422 L 1565.07 2808.622 L 1560.27 2808.622 L 1559.07 2809.822 L 1559.07 2813.422 L 1554.27 2814.622 L 1550.67 2813.422 L 1550.67 2814.622 L 1549.47 2815.822 L 1549.47 2817.022 L 1548.271 2817.022 L 1547.071 2818.222 L 1547.071 2819.422 L 1549.47 2819.422 L 1547.071 2819.422 L 1545.871 2818.222 L 1547.071 2814.622 L 1544.671 2813.422 L 1543.471 2814.622 L 1541.071 2814.622 L 1542.271 2815.822 L 1541.071 2815.822 L 1538.671 2814.622 L 1535.071 2814.622 L 1535.071 2817.022 L 1533.871 2817.022 L 1533.871 2815.822 L 1531.471 2815.822 L 1530.271 2817.022 L 1529.071 2817.022 L 1525.471 2815.822 L 1525.471 2818.222 L 1523.071 2817.022 L 1521.871 2817.022 L 1523.071 2818.222 L 1521.871 2819.422 L 1520.671 2818.222 L 1519.471 2819.422 L 1519.471 2820.622 L 1518.271 2819.422 L 1512.272 2818.222 L 1480.572 2803.922 Z " fill="#F3AA47" vector-effect="non-scaling-stroke" stroke-width="1" stroke-linejoin="miter" stroke-linecap="butt" stroke-miterlimit="4"/></svg>