<?xml version="1.0" standalone="no"?><!-- Generator: Gravit.io --><svg xmlns="http://www.w3.org/2000/svg" xmlns:xlink="http://www.w3.org/1999/xlink" style="isolation:isolate" viewBox="1827.963 58.998 1052.671 1252.765" width="1052.671" height="1252.765"><path d=" M 1942.76 385.489 L 1942.76 372.29 L 1939.16 367.49 L 1931.96 360.29 L 1929.56 356.69 L 1925.96 354.29 L 1925.96 353.09 L 1923.56 347.09 L 1917.56 343.49 L 1915.16 341.091 L 1906.761 336.291 L 1903.161 335.091 L 1899.561 332.691 L 1895.961 331.491 L 1891.161 332.691 L 1889.961 331.491 L 1886.361 326.691 L 1882.761 320.691 L 1877.961 317.091 L 1874.362 313.491 L 1873.162 305.092 L 1869.562 303.892 L 1865.962 301.492 L 1863.562 296.692 L 1859.962 294.292 L 1856.362 291.892 L 1856.362 290.692 L 1855.162 289.492 L 1853.962 284.692 L 1850.362 279.892 L 1847.962 272.692 L 1845.562 270.293 L 1841.962 267.893 L 1837.163 264.293 L 1832.363 260.693 L 1829.963 253.493 L 1829.963 247.493 L 1831.163 243.893 L 1834.763 240.293 L 1837.163 240.293 L 1852.762 247.493 L 1858.762 253.493 L 1864.762 266.693 L 1870.762 271.492 L 1876.761 273.892 L 1879.161 271.492 L 1882.761 271.492 L 1886.361 272.692 L 1886.361 271.492 L 1894.761 270.293 L 1899.561 267.893 L 1906.761 267.893 L 1916.36 269.093 L 1921.16 267.893 L 1923.56 266.693 L 1927.16 266.693 L 1927.16 269.093 L 1930.76 269.093 L 1934.36 270.293 L 1936.76 271.492 L 1941.56 271.492 L 1945.16 269.093 L 1946.36 269.093 L 1948.759 272.692 L 1951.159 272.692 L 1954.759 276.292 L 1958.359 282.292 L 1958.359 284.692 L 1957.159 285.892 L 1958.359 288.292 L 1961.959 291.892 L 1966.759 301.492 L 1969.159 302.692 L 1969.159 303.892 L 1975.159 305.092 L 1975.159 309.891 L 1977.559 311.091 L 1978.759 311.091 L 1981.159 315.891 L 1982.359 315.891 L 1982.359 312.291 L 1983.558 313.491 L 1984.758 311.091 L 1985.958 309.891 L 1987.158 307.491 L 1988.358 306.292 L 1990.758 306.292 L 1991.958 305.092 L 1993.158 303.892 L 1994.358 305.092 L 1999.158 302.692 L 2000.358 301.492 L 2001.558 302.692 L 2001.558 301.492 L 2002.758 301.492 L 2003.958 302.692 L 2003.958 303.892 L 2007.558 303.892 L 2011.158 305.092 L 2015.958 303.892 L 2018.358 303.892 L 2021.957 305.092 L 2020.757 306.292 L 2021.957 307.491 L 2024.357 308.691 L 2025.557 309.891 L 2026.757 309.891 L 2026.757 308.691 L 2029.157 308.691 L 2031.557 309.891 L 2035.157 306.292 L 2032.757 306.292 L 2031.557 305.092 L 2031.557 303.892 L 2029.157 303.892 L 2027.957 302.692 L 2027.957 301.492 L 2029.157 300.292 L 2029.157 299.092 L 2030.357 295.492 L 2030.357 289.492 L 2032.757 289.492 L 2035.157 290.692 L 2036.357 291.892 L 2038.757 296.692 L 2041.157 297.892 L 2043.557 301.492 L 2047.157 305.092 L 2048.357 307.491 L 2047.157 309.891 L 2048.357 311.091 L 2047.157 312.291 L 2047.157 313.491 L 2050.757 313.491 L 2054.357 312.291 L 2054.357 317.091 L 2056.756 317.091 L 2057.956 318.291 L 2059.156 318.291 L 2061.556 320.691 L 2062.756 319.491 L 2063.956 321.891 L 2063.956 319.491 L 2062.756 315.891 L 2063.956 315.891 L 2065.156 317.091 L 2065.156 315.891 L 2066.356 315.891 L 2068.756 317.091 L 2069.956 317.091 L 2072.356 318.291 L 2074.756 317.091 L 2074.756 313.491 L 2078.356 309.891 L 2079.556 308.691 L 2077.156 306.292 L 2078.356 305.092 L 2078.356 303.892 L 2073.556 303.892 L 2074.756 301.492 L 2072.356 301.492 L 2072.356 300.292 L 2075.956 296.692 L 2078.356 296.692 L 2081.956 295.492 L 2089.156 300.292 L 2092.755 300.292 L 2095.155 299.092 L 2096.355 299.092 L 2096.355 297.892 L 2097.555 295.492 L 2098.755 296.692 L 2099.955 297.892 L 2101.155 297.892 L 2102.355 300.292 L 2107.155 299.092 L 2108.355 300.292 L 2113.155 301.492 L 2115.555 301.492 L 2113.155 311.091 L 2110.755 313.491 L 2110.755 319.491 L 2111.955 320.691 L 2111.955 321.891 L 2115.555 326.691 L 2120.355 326.691 L 2122.755 327.891 L 2129.954 327.891 L 2133.554 330.291 L 2137.154 332.691 L 2137.154 335.091 L 2139.554 337.491 L 2140.754 337.491 L 2141.954 338.691 L 2141.954 339.891 L 2140.754 341.091 L 2140.754 345.89 L 2139.554 348.29 L 2137.154 348.29 L 2139.554 349.49 L 2146.654 353.09 L 2146.654 356.69 L 2149.054 356.69 L 2151.454 360.29 L 2153.854 362.69 L 2155.054 363.89 L 2158.654 363.89 L 2159.854 362.69 L 2164.653 357.89 L 2165.853 355.49 L 2165.853 351.99 L 2168.253 351.99 L 2171.853 349.59 L 2174.253 347.19 L 2177.853 344.79 L 2181.453 339.991 L 2183.853 341.191 L 2186.253 341.191 L 2187.453 343.59 L 2188.653 343.59 L 2189.853 347.19 L 2191.053 347.19 L 2192.253 349.59 L 2195.853 351.99 L 2197.053 351.99 L 2197.053 349.59 L 2198.253 349.59 L 2198.253 347.19 L 2199.453 345.99 L 2198.253 343.59 L 2199.453 339.991 L 2198.253 336.391 L 2198.253 332.791 L 2197.053 331.591 L 2199.453 329.191 L 2199.453 327.991 L 2197.053 327.991 L 2195.853 325.591 L 2192.253 323.191 L 2192.253 321.991 L 2195.853 319.591 L 2194.653 319.591 L 2194.653 318.391 L 2192.253 317.191 L 2191.053 314.791 L 2191.053 313.591 L 2188.653 312.391 L 2189.853 307.591 L 2189.853 303.992 L 2193.453 302.792 L 2195.853 300.392 L 2197.053 296.792 L 2193.453 295.592 L 2192.253 290.792 L 2193.453 290.792 L 2195.853 288.392 L 2195.853 285.992 L 2198.253 284.792 L 2204.252 287.192 L 2206.652 285.992 L 2212.652 285.992 L 2212.652 284.792 L 2213.852 283.592 L 2217.452 284.792 L 2221.052 284.792 L 2222.252 285.992 L 2224.652 285.992 L 2225.852 288.392 L 2225.852 289.592 L 2230.652 289.592 L 2229.452 288.392 L 2229.452 285.992 L 2231.852 284.792 L 2233.052 284.792 L 2234.252 283.592 L 2233.052 281.192 L 2233.052 277.592 L 2231.852 278.792 L 2229.452 277.592 L 2230.652 277.592 L 2231.852 275.192 L 2230.652 272.792 L 2233.052 272.792 L 2236.651 271.592 L 2236.651 270.393 L 2234.252 267.993 L 2239.051 269.193 L 2239.051 267.993 L 2240.251 266.793 L 2241.451 266.793 L 2242.651 267.993 L 2243.851 269.193 L 2245.051 266.793 L 2247.451 266.793 L 2247.451 264.393 L 2248.651 264.393 L 2247.451 263.193 L 2245.051 263.193 L 2246.251 260.793 L 2247.451 259.593 L 2248.651 260.793 L 2249.851 260.793 L 2249.851 259.593 L 2254.651 259.593 L 2254.651 258.393 L 2255.851 259.593 L 2257.051 259.593 L 2258.251 260.793 L 2259.451 260.793 L 2259.451 259.593 L 2263.051 263.193 L 2264.251 263.193 L 2264.251 261.993 L 2266.651 261.993 L 2266.651 265.593 L 2267.851 265.593 L 2270.251 267.993 L 2271.451 266.793 L 2272.65 266.793 L 2272.65 267.993 L 2275.05 267.993 L 2277.45 266.793 L 2278.65 269.193 L 2283.45 269.193 L 2285.85 271.592 L 2287.05 270.393 L 2288.25 271.592 L 2290.65 272.792 L 2294.25 271.592 L 2294.25 275.192 L 2297.85 276.392 L 2300.25 276.392 L 2302.65 277.592 L 2302.65 278.792 L 2303.85 277.592 L 2305.05 276.392 L 2308.649 276.392 L 2308.649 273.992 L 2307.45 273.992 L 2307.45 271.592 L 2309.849 271.592 L 2311.049 270.393 L 2311.049 269.193 L 2312.249 269.193 L 2313.449 270.393 L 2314.649 270.393 L 2315.849 269.193 L 2314.649 267.993 L 2314.649 264.393 L 2317.049 263.193 L 2320.649 265.593 L 2321.849 264.393 L 2323.049 263.193 L 2323.049 265.593 L 2324.249 264.393 L 2326.649 264.393 L 2327.849 261.993 L 2329.049 263.193 L 2330.249 260.793 L 2331.449 259.593 L 2332.649 259.593 L 2331.449 260.793 L 2331.449 263.193 L 2332.649 264.393 L 2337.449 269.193 L 2338.649 272.792 L 2341.049 273.992 L 2341.049 270.393 L 2342.249 265.593 L 2342.249 264.393 L 2344.648 264.393 L 2345.848 263.193 L 2348.248 264.393 L 2350.648 264.393 L 2351.848 263.193 L 2350.648 261.993 L 2351.848 260.793 L 2355.448 260.793 L 2355.448 261.993 L 2357.848 263.193 L 2360.248 263.193 L 2360.248 261.993 L 2361.448 258.393 L 2360.248 255.993 L 2362.648 255.993 L 2362.648 253.593 L 2363.848 252.393 L 2363.848 251.193 L 2366.248 249.993 L 2366.248 251.193 L 2369.848 251.193 L 2369.848 249.993 L 2368.648 248.793 L 2368.648 247.593 L 2369.848 247.593 L 2374.648 246.393 L 2375.848 243.993 L 2377.048 243.993 L 2377.048 245.193 L 2375.848 246.393 L 2377.048 247.593 L 2380.647 246.393 L 2385.447 246.393 L 2386.647 245.193 L 2389.047 245.193 L 2389.047 246.393 L 2391.447 246.393 L 2391.447 248.793 L 2393.847 248.793 L 2395.047 246.393 L 2397.447 245.193 L 2398.647 247.593 L 2401.047 247.593 L 2404.647 246.393 L 2405.847 246.393 L 2407.047 245.193 L 2407.047 243.993 L 2409.447 242.793 L 2411.847 240.393 L 2413.047 240.393 L 2413.047 239.193 L 2414.247 235.593 L 2415.447 234.394 L 2413.047 233.194 L 2413.047 231.994 L 2411.847 229.594 L 2413.047 229.594 L 2414.247 228.394 L 2413.047 224.794 L 2413.047 222.394 L 2414.247 221.194 L 2414.247 218.794 L 2419.046 217.594 L 2421.446 215.194 L 2422.646 215.194 L 2423.846 212.794 L 2427.446 212.794 L 2428.646 213.994 L 2427.446 215.194 L 2429.846 215.194 L 2429.846 213.994 L 2433.446 213.994 L 2433.446 215.194 L 2439.446 215.194 L 2443.046 216.394 L 2445.446 216.394 L 2445.446 213.994 L 2449.046 213.994 L 2447.846 211.594 L 2450.246 210.394 L 2450.246 209.194 L 2455.045 209.194 L 2453.845 207.994 L 2456.245 206.794 L 2456.245 205.594 L 2452.645 204.394 L 2452.645 201.994 L 2451.446 201.994 L 2450.246 200.794 L 2449.046 200.794 L 2449.046 199.594 L 2446.646 198.395 L 2447.846 194.795 L 2451.446 194.795 L 2451.446 193.595 L 2452.645 194.795 L 2455.045 194.795 L 2456.245 195.995 L 2457.445 195.995 L 2457.445 193.595 L 2459.845 194.795 L 2461.045 197.195 L 2462.245 194.795 L 2467.045 197.195 L 2467.045 194.795 L 2469.445 198.395 L 2470.645 197.195 L 2471.845 197.195 L 2474.245 199.594 L 2475.445 200.794 L 2476.645 200.794 L 2476.645 201.994 L 2479.045 201.994 L 2479.045 204.394 L 2481.445 201.994 L 2482.645 201.994 L 2482.645 200.794 L 2486.245 199.594 L 2488.644 197.195 L 2491.044 198.395 L 2492.244 198.395 L 2493.444 197.195 L 2501.844 197.195 L 2501.844 198.395 L 2506.644 198.395 L 2506.644 197.195 L 2507.844 193.595 L 2511.444 193.595 L 2512.644 192.395 L 2513.844 189.995 L 2512.644 186.395 L 2516.244 186.395 L 2517.444 185.195 L 2516.244 183.995 L 2515.044 182.795 L 2517.444 180.395 L 2516.244 179.195 L 2516.244 176.795 L 2513.844 175.595 L 2513.844 173.195 L 2517.444 173.195 L 2517.444 171.995 L 2519.844 170.795 L 2521.044 168.395 L 2521.044 164.795 L 2523.444 162.396 L 2527.043 162.396 L 2528.243 163.595 L 2531.843 164.795 L 2535.443 159.996 L 2536.643 159.996 L 2539.043 158.796 L 2537.843 157.596 L 2539.043 156.396 L 2542.643 156.396 L 2542.643 155.196 L 2547.443 153.996 L 2549.843 155.196 L 2551.043 153.996 L 2552.243 151.596 L 2553.443 151.596 L 2554.643 150.396 L 2553.443 150.396 L 2554.643 149.196 L 2553.443 147.996 L 2554.643 146.796 L 2557.043 144.396 L 2559.443 144.396 L 2560.643 143.196 L 2560.643 141.996 L 2563.042 140.796 L 2563.042 139.996 L 2565.442 137.596 L 2566.642 135.196 L 2567.842 133.996 L 2566.642 132.796 L 2566.642 131.596 L 2571.442 130.396 L 2571.442 127.996 L 2573.842 125.597 L 2575.042 124.397 L 2577.442 124.397 L 2578.642 118.397 L 2577.442 115.997 L 2576.242 111.197 L 2573.842 109.997 L 2573.842 107.597 L 2571.442 105.197 L 2570.242 101.597 L 2567.842 100.397 L 2569.042 95.597 L 2567.842 93.197 L 2569.042 90.797 L 2569.042 89.598 L 2567.842 88.398 L 2566.642 90.797 L 2566.642 89.598 L 2565.442 85.998 L 2566.642 83.598 L 2565.442 81.198 L 2561.842 78.798 L 2561.842 76.398 L 2560.643 75.198 L 2554.643 75.198 L 2552.243 73.998 L 2554.643 70.398 L 2557.043 70.398 L 2559.443 69.198 L 2561.842 67.998 L 2565.442 69.198 L 2566.642 69.198 L 2569.042 70.398 L 2571.442 71.598 L 2573.842 70.398 L 2575.042 71.598 L 2576.242 70.398 L 2577.442 70.398 L 2577.442 72.998 L 2581.042 75.398 L 2585.842 75.398 L 2587.042 74.198 L 2589.442 72.998 L 2594.242 74.198 L 2602.641 74.198 L 2603.841 77.798 L 2605.041 77.798 L 2608.641 75.398 L 2608.641 71.798 L 2611.041 72.998 L 2614.641 70.598 L 2617.041 71.798 L 2617.041 74.198 L 2619.441 72.998 L 2626.641 72.998 L 2627.841 69.398 L 2632.641 69.398 L 2632.641 68.198 L 2633.84 68.198 L 2635.04 66.998 L 2635.04 64.598 L 2638.64 64.598 L 2641.04 63.398 L 2642.24 62.198 L 2644.64 60.998 L 2647.04 62.198 L 2648.24 64.598 L 2648.24 66.998 L 2651.84 69.398 L 2654.24 68.198 L 2657.84 65.798 L 2659.04 69.398 L 2663.84 75.398 L 2665.04 83.798 L 2665.04 84.998 L 2668.64 84.998 L 2669.839 86.198 L 2671.039 87.398 L 2671.039 88.598 L 2672.239 90.997 L 2673.439 90.997 L 2677.039 93.397 L 2677.039 94.597 L 2678.239 93.397 L 2680.639 94.597 L 2681.839 94.597 L 2683.039 95.797 L 2681.839 96.997 L 2683.039 98.197 L 2680.639 100.597 L 2683.039 101.797 L 2683.039 102.997 L 2681.839 104.197 L 2681.839 108.997 L 2684.239 113.797 L 2683.039 114.997 L 2684.239 116.197 L 2683.039 118.597 L 2684.239 120.997 L 2683.039 120.997 L 2683.039 123.397 L 2681.839 125.797 L 2680.639 128.196 L 2679.439 140.196 L 2678.239 141.396 L 2677.039 142.596 L 2675.839 144.996 L 2677.039 146.196 L 2675.839 148.596 L 2674.639 149.796 L 2677.039 152.196 L 2677.039 158.196 L 2674.639 162.995 L 2677.039 164.195 L 2677.039 165.395 L 2671.039 171.395 L 2668.64 174.995 L 2667.44 176.195 L 2668.64 177.395 L 2668.64 182.195 L 2663.84 184.595 L 2662.64 183.395 L 2661.44 184.595 L 2660.24 184.595 L 2657.84 185.795 L 2659.04 189.395 L 2656.64 189.395 L 2657.84 191.795 L 2655.44 191.795 L 2655.44 190.595 L 2654.24 190.595 L 2653.04 191.795 L 2653.04 194.195 L 2654.24 195.395 L 2653.04 200.194 L 2654.24 201.394 L 2663.84 201.394 L 2662.64 198.994 L 2666.24 197.795 L 2666.24 200.194 L 2668.64 198.994 L 2669.839 200.194 L 2669.839 202.594 L 2674.639 202.594 L 2675.839 203.794 L 2678.239 202.594 L 2679.439 203.794 L 2680.639 202.594 L 2681.839 202.594 L 2683.039 204.994 L 2685.439 206.194 L 2686.639 204.994 L 2686.639 206.194 L 2687.839 206.194 L 2686.639 204.994 L 2687.839 201.394 L 2689.039 201.394 L 2689.039 202.594 L 2692.639 203.794 L 2693.839 202.594 L 2693.839 203.794 L 2696.239 204.994 L 2695.039 206.194 L 2698.639 207.394 L 2697.439 208.594 L 2698.639 209.794 L 2701.039 207.394 L 2703.439 207.394 L 2704.639 204.994 L 2704.639 206.194 L 2707.038 207.394 L 2705.838 209.794 L 2707.038 210.994 L 2709.438 210.994 L 2711.838 209.794 L 2713.038 210.994 L 2715.438 212.194 L 2716.638 210.994 L 2716.638 208.594 L 2717.838 208.594 L 2719.038 212.194 L 2721.438 212.194 L 2721.438 213.394 L 2723.838 213.394 L 2726.238 216.994 L 2728.638 216.994 L 2731.038 219.394 L 2732.238 220.594 L 2735.838 224.194 L 2738.238 222.994 L 2740.638 225.394 L 2738.238 226.594 L 2739.438 230.194 L 2739.438 231.394 L 2737.038 232.594 L 2734.638 234.993 L 2734.638 237.393 L 2732.238 237.393 L 2731.038 239.793 L 2729.838 240.993 L 2729.838 243.393 L 2732.238 243.393 L 2733.438 244.593 L 2728.638 250.593 L 2729.838 251.793 L 2729.838 255.393 L 2731.038 258.993 L 2731.038 260.193 L 2733.438 262.593 L 2734.638 263.793 L 2738.238 266.193 L 2745.437 266.193 L 2750.237 268.593 L 2749.037 272.192 L 2747.837 273.392 L 2744.237 280.592 L 2745.437 280.592 L 2747.837 282.992 L 2750.237 282.992 L 2750.237 286.592 L 2753.837 287.792 L 2753.837 290.192 L 2752.637 290.192 L 2751.437 288.992 L 2751.437 290.192 L 2752.637 291.392 L 2755.037 288.992 L 2755.037 291.392 L 2753.837 292.592 L 2755.037 293.792 L 2756.237 292.592 L 2757.437 292.592 L 2756.237 293.792 L 2757.437 294.992 L 2755.037 297.392 L 2755.037 298.592 L 2757.437 298.592 L 2758.637 299.792 L 2759.837 297.392 L 2762.237 297.392 L 2762.237 298.592 L 2765.837 298.592 L 2767.037 300.992 L 2767.037 302.192 L 2768.237 303.392 L 2765.837 304.592 L 2765.837 306.992 L 2764.637 306.992 L 2763.437 305.792 L 2762.237 305.792 L 2763.437 306.992 L 2762.237 308.191 L 2758.637 308.191 L 2758.637 312.991 L 2756.237 310.591 L 2757.437 312.991 L 2755.037 312.991 L 2753.837 314.191 L 2753.837 318.991 L 2755.037 318.991 L 2755.037 322.591 L 2756.237 323.791 L 2756.237 326.191 L 2755.037 324.991 L 2753.837 326.191 L 2752.637 327.391 L 2753.837 328.591 L 2753.837 329.791 L 2752.637 330.991 L 2751.437 328.591 L 2750.237 330.991 L 2747.837 332.191 L 2746.637 332.191 L 2747.837 330.991 L 2747.837 329.791 L 2746.637 329.791 L 2745.437 332.191 L 2744.237 332.191 L 2741.837 333.391 L 2740.638 335.791 L 2738.238 336.991 L 2738.238 338.191 L 2739.438 338.191 L 2739.438 339.391 L 2740.638 340.591 L 2741.837 341.791 L 2740.638 342.991 L 2741.837 345.39 L 2740.638 347.79 L 2738.238 348.99 L 2737.038 347.79 L 2735.838 350.19 L 2734.638 350.19 L 2733.438 351.39 L 2732.238 352.59 L 2731.038 353.79 L 2731.038 354.99 L 2727.438 354.99 L 2726.238 356.19 L 2725.038 359.79 L 2722.638 359.79 L 2723.838 360.99 L 2721.438 360.99 L 2719.038 363.39 L 2717.838 362.19 L 2716.638 363.39 L 2714.238 362.19 L 2714.238 364.59 L 2713.038 363.39 L 2710.638 364.59 L 2708.238 364.59 L 2708.238 366.99 L 2707.038 369.39 L 2705.838 370.59 L 2707.038 370.59 L 2707.038 371.79 L 2704.639 372.99 L 2705.838 374.19 L 2709.438 374.19 L 2709.438 376.59 L 2710.638 378.99 L 2714.238 380.189 L 2716.638 382.589 L 2716.638 386.189 L 2713.038 387.389 L 2713.038 388.589 L 2715.438 388.589 L 2715.438 389.789 L 2713.038 389.789 L 2711.838 392.189 L 2710.638 394.589 L 2710.638 398.189 L 2711.838 398.189 L 2714.238 396.989 L 2715.438 396.989 L 2714.238 400.589 L 2715.438 406.589 L 2716.638 407.789 L 2716.638 410.189 L 2715.438 411.389 L 2713.038 410.189 L 2711.838 411.389 L 2713.038 414.989 L 2711.838 416.188 L 2710.638 417.388 L 2709.438 418.588 L 2708.238 419.788 L 2707.038 424.588 L 2704.639 424.588 L 2703.439 428.188 L 2703.439 430.588 L 2702.239 431.788 L 2704.639 434.188 L 2702.239 435.388 L 2698.639 435.388 L 2698.639 436.588 L 2697.439 441.388 L 2699.839 447.388 L 2698.639 448.588 L 2696.239 448.588 L 2698.639 448.588 L 2698.639 449.788 L 2697.439 449.788 L 2696.239 450.988 L 2696.239 452.187 L 2698.639 452.187 L 2698.639 454.587 L 2697.439 454.587 L 2696.239 453.387 L 2695.039 455.787 L 2692.639 456.987 L 2692.639 459.387 L 2690.239 460.587 L 2690.239 461.787 L 2691.439 465.387 L 2690.239 467.787 L 2689.039 470.187 L 2689.039 472.587 L 2691.439 474.987 L 2690.239 476.187 L 2689.039 482.187 L 2689.039 483.387 L 2685.439 488.186 L 2684.239 491.786 L 2686.639 492.986 L 2686.639 494.186 L 2684.239 496.586 L 2685.439 498.986 L 2684.239 500.186 L 2685.439 502.586 L 2684.239 503.786 L 2684.239 510.986 L 2683.039 514.586 L 2684.239 521.786 L 2683.039 524.185 L 2684.239 531.385 L 2684.239 532.585 L 2686.639 536.185 L 2687.839 537.385 L 2686.639 539.785 L 2686.639 540.985 L 2689.039 543.385 L 2689.039 545.785 L 2690.239 546.985 L 2687.839 546.985 L 2687.839 549.385 L 2689.039 549.385 L 2692.639 551.785 L 2695.039 554.185 L 2693.839 556.585 L 2697.439 561.384 L 2696.239 562.584 L 2696.239 564.984 L 2697.439 566.184 L 2697.439 567.384 L 2701.039 569.784 L 2699.839 572.184 L 2701.039 573.384 L 2701.039 574.584 L 2699.839 578.184 L 2702.239 580.584 L 2701.039 580.584 L 2701.039 582.984 L 2698.639 585.384 L 2698.639 586.584 L 2701.039 591.384 L 2703.439 593.784 L 2704.639 591.384 L 2705.838 593.784 L 2708.238 596.183 L 2708.238 597.383 L 2709.438 597.383 L 2710.638 599.783 L 2711.838 598.583 L 2713.038 597.383 L 2713.038 599.783 L 2716.638 600.983 L 2717.838 603.383 L 2720.238 605.783 L 2721.438 605.783 L 2722.638 604.583 L 2728.638 604.583 L 2728.638 605.783 L 2731.038 606.983 L 2729.838 609.383 L 2732.238 611.783 L 2732.238 614.183 L 2729.838 615.383 L 2731.038 620.183 L 2729.838 620.183 L 2731.038 621.383 L 2729.838 623.783 L 2728.638 624.983 L 2728.638 630.983 L 2731.038 633.382 L 2729.838 634.582 L 2731.038 635.782 L 2731.038 639.382 L 2728.638 640.582 L 2727.438 644.182 L 2728.638 648.982 L 2729.838 648.982 L 2729.838 650.182 L 2731.038 651.382 L 2729.838 652.582 L 2732.238 652.582 L 2731.038 653.782 L 2729.838 653.782 L 2728.638 654.982 L 2729.838 654.982 L 2729.838 660.982 L 2728.638 660.982 L 2727.438 662.182 L 2728.638 663.382 L 2727.438 666.982 L 2727.438 670.581 L 2725.038 671.781 L 2726.238 674.181 L 2725.038 675.381 L 2727.438 678.981 L 2726.238 682.581 L 2727.438 684.981 L 2731.038 684.981 L 2733.438 683.781 L 2737.038 683.781 L 2738.238 686.181 L 2739.438 687.381 L 2741.837 684.981 L 2740.638 682.581 L 2741.837 681.381 L 2741.837 682.581 L 2744.237 686.181 L 2743.037 689.781 L 2743.037 690.981 L 2741.837 692.181 L 2741.837 690.981 L 2739.438 692.181 L 2738.238 694.581 L 2739.438 695.781 L 2738.238 695.781 L 2737.038 698.181 L 2738.238 699.381 L 2737.038 700.581 L 2737.038 701.781 L 2740.638 701.781 L 2741.837 704.181 L 2741.837 705.38 L 2743.037 704.181 L 2746.637 705.38 L 2747.837 706.58 L 2750.237 708.98 L 2751.437 707.78 L 2755.037 707.78 L 2756.237 706.58 L 2758.637 705.38 L 2761.037 707.78 L 2762.237 706.58 L 2762.237 707.78 L 2763.437 707.78 L 2764.637 708.98 L 2764.637 710.18 L 2765.837 711.38 L 2765.837 713.78 L 2768.237 716.18 L 2768.237 718.58 L 2769.437 718.58 L 2769.437 717.38 L 2770.637 716.18 L 2771.837 717.38 L 2771.837 723.38 L 2773.037 725.78 L 2776.637 726.98 L 2780.236 726.98 L 2781.436 731.78 L 2783.836 732.98 L 2782.636 736.58 L 2783.836 738.98 L 2786.236 738.98 L 2788.636 737.78 L 2788.636 741.379 L 2791.036 743.779 L 2791.036 744.979 L 2792.236 744.979 L 2791.036 747.379 L 2794.636 747.379 L 2794.636 748.579 L 2795.836 747.379 L 2795.836 744.979 L 2799.436 744.979 L 2800.636 746.179 L 2800.636 747.379 L 2801.836 752.179 L 2800.636 753.379 L 2800.636 755.779 L 2803.036 755.779 L 2804.236 754.579 L 2805.436 754.579 L 2807.836 756.979 L 2809.036 758.179 L 2807.836 759.379 L 2809.036 760.579 L 2810.236 764.179 L 2809.036 765.379 L 2810.236 765.379 L 2811.436 766.579 L 2812.636 767.779 L 2813.835 768.979 L 2817.435 768.979 L 2818.635 771.379 L 2822.235 772.579 L 2822.235 771.379 L 2825.835 771.379 L 2828.235 773.779 L 2829.435 774.979 L 2830.635 774.979 L 2831.835 776.179 L 2835.435 776.179 L 2837.835 777.378 L 2840.235 776.179 L 2841.435 777.378 L 2842.635 776.179 L 2843.835 778.578 L 2845.035 779.778 L 2846.235 779.778 L 2847.435 778.578 L 2848.635 778.578 L 2849.834 780.978 L 2854.634 779.778 L 2857.034 780.978 L 2859.434 780.978 L 2859.434 779.778 L 2860.634 780.978 L 2861.834 783.378 L 2863.034 784.578 L 2864.234 783.378 L 2865.434 783.378 L 2873.834 782.178 L 2873.834 784.578 L 2872.634 785.778 L 2872.634 786.978 L 2873.834 788.178 L 2876.234 789.378 L 2878.634 792.978 L 2876.234 794.178 L 2876.234 795.378 L 2875.034 796.578 L 2877.434 797.778 L 2877.434 973.773 L 2676.239 973.773 L 2673.839 979.773 L 2672.639 991.773 L 2670.239 994.172 L 2667.84 995.372 L 2661.84 997.772 L 2661.84 998.972 L 2658.24 1002.572 L 2658.24 1004.972 L 2659.44 1006.172 L 2660.64 1007.372 L 2658.24 1009.772 L 2658.24 1013.372 L 2657.04 1014.572 L 2658.24 1016.972 L 2654.64 1018.172 L 2652.24 1021.772 L 2649.84 1021.772 L 2651.04 1022.972 L 2646.24 1027.772 L 2646.24 1032.571 L 2643.84 1037.371 L 2642.64 1039.771 L 2641.44 1042.171 L 2642.64 1043.371 L 2642.64 1044.571 L 2643.84 1045.771 L 2642.64 1048.171 L 2641.44 1048.171 L 2637.84 1051.771 L 2639.04 1054.171 L 2636.64 1052.971 L 2635.44 1054.171 L 2635.44 1056.571 L 2634.24 1058.971 L 2631.841 1060.171 L 2630.641 1058.971 L 2629.441 1060.171 L 2630.641 1063.771 L 2629.441 1068.57 L 2628.241 1069.77 L 2631.841 1074.57 L 2630.641 1075.77 L 2629.441 1076.97 L 2629.441 1081.77 L 2625.841 1081.77 L 2625.841 1082.97 L 2627.041 1086.57 L 2625.841 1088.97 L 2625.841 1090.17 L 2623.441 1091.37 L 2622.241 1094.97 L 2621.041 1096.17 L 2622.241 1097.37 L 2621.041 1098.57 L 2622.241 1099.77 L 2622.241 1102.169 L 2615.041 1106.969 L 2615.041 1109.369 L 2613.841 1111.769 L 2613.841 1112.969 L 2611.441 1114.169 L 2612.641 1121.369 L 2612.641 1122.569 L 2615.041 1123.769 L 2615.041 1126.169 L 2613.841 1127.369 L 2615.041 1129.769 L 2617.441 1128.569 L 2617.441 1130.969 L 2619.841 1132.169 L 2621.041 1134.569 L 2622.241 1135.769 L 2624.641 1138.168 L 2627.041 1138.168 L 2627.041 1141.768 L 2629.441 1144.168 L 2628.241 1147.768 L 2629.441 1147.768 L 2629.441 1151.368 L 2628.241 1153.768 L 2627.041 1153.768 L 2622.241 1156.168 L 2621.041 1157.368 L 2616.241 1157.368 L 2615.041 1159.768 L 2611.441 1159.768 L 2609.041 1160.968 L 2607.841 1162.168 L 2606.641 1163.368 L 2605.441 1162.168 L 2598.241 1162.168 L 2595.842 1164.568 L 2594.642 1165.768 L 2595.842 1166.968 L 2594.642 1168.168 L 2595.842 1169.368 L 2594.642 1171.768 L 2593.442 1171.768 L 2591.042 1174.167 L 2593.442 1175.367 L 2593.442 1176.567 L 2588.642 1181.367 L 2587.442 1181.367 L 2586.242 1180.167 L 2583.842 1180.167 L 2583.842 1178.967 L 2577.842 1176.567 L 2577.842 1180.167 L 2574.242 1178.967 L 2573.042 1178.967 L 2571.842 1180.167 L 2570.642 1180.167 L 2570.642 1181.367 L 2567.042 1182.567 L 2564.642 1184.967 L 2563.442 1183.767 L 2564.642 1181.367 L 2563.442 1181.367 L 2557.443 1178.967 L 2556.243 1180.167 L 2552.643 1177.767 L 2549.043 1178.967 L 2550.243 1176.567 L 2549.043 1175.367 L 2547.843 1172.968 L 2549.043 1170.568 L 2547.843 1169.368 L 2549.043 1166.968 L 2545.443 1165.768 L 2545.443 1164.568 L 2546.643 1163.368 L 2547.843 1160.968 L 2546.643 1158.568 L 2545.443 1159.768 L 2544.243 1158.568 L 2543.043 1157.368 L 2541.843 1157.368 L 2541.843 1148.968 L 2539.443 1147.768 L 2533.443 1147.768 L 2532.243 1144.168 L 2532.243 1140.568 L 2531.043 1139.368 L 2529.843 1138.168 L 2526.243 1140.568 L 2521.444 1135.769 L 2521.444 1133.369 L 2520.244 1133.369 L 2520.244 1128.569 L 2521.444 1127.369 L 2520.244 1122.569 L 2517.844 1122.569 L 2516.644 1123.769 L 2515.444 1123.769 L 2514.244 1122.569 L 2513.044 1123.769 L 2505.844 1123.769 L 2501.044 1121.369 L 2497.444 1121.369 L 2496.244 1120.169 L 2495.044 1115.369 L 2490.244 1112.969 L 2489.044 1112.969 L 2485.445 1114.169 L 2484.245 1112.969 L 2483.045 1111.769 L 2479.445 1112.969 L 2478.245 1114.169 L 2478.245 1115.369 L 2474.645 1114.169 L 2471.045 1114.169 L 2468.645 1112.969 L 2467.445 1112.969 L 2466.245 1114.169 L 2466.245 1116.569 L 2467.445 1118.969 L 2466.245 1120.169 L 2466.245 1123.769 L 2465.045 1124.969 L 2456.645 1126.169 L 2453.045 1126.169 L 2448.246 1130.969 L 2444.646 1129.769 L 2442.246 1130.969 L 2441.046 1132.169 L 2436.246 1134.569 L 2433.846 1136.969 L 2430.246 1136.969 L 2430.246 1140.568 L 2429.046 1141.768 L 2425.446 1141.768 L 2424.246 1142.968 L 2421.846 1146.568 L 2421.846 1150.168 L 2420.646 1152.568 L 2414.647 1157.368 L 2411.047 1159.768 L 2408.647 1165.768 L 2408.647 1174.167 L 2409.847 1175.367 L 2409.847 1176.567 L 2407.447 1178.967 L 2407.447 1184.967 L 2403.847 1187.367 L 2403.847 1190.967 L 2402.647 1192.167 L 2403.847 1195.767 L 2402.647 1200.567 L 2403.847 1201.767 L 2406.247 1201.767 L 2406.247 1205.367 L 2408.647 1207.767 L 2409.847 1210.166 L 2409.847 1214.966 L 2408.647 1217.366 L 2405.047 1217.366 L 2403.847 1218.566 L 2403.847 1219.766 L 2406.247 1222.166 L 2403.847 1223.366 L 2403.847 1224.566 L 2405.047 1225.766 L 2406.247 1228.166 L 2405.047 1229.366 L 2403.847 1231.766 L 2402.647 1234.166 L 2403.847 1237.766 L 2402.647 1238.966 L 2401.447 1240.166 L 2400.247 1244.966 L 2399.047 1248.565 L 2397.847 1254.565 L 2395.447 1256.965 L 2394.247 1259.365 L 2397.847 1260.565 L 2402.647 1265.365 L 2402.647 1267.765 L 2401.447 1270.165 L 2400.247 1271.365 L 2396.647 1276.165 L 2396.647 1277.365 L 2397.847 1277.365 L 2402.647 1278.565 L 2403.847 1282.165 L 2408.647 1282.165 L 2411.047 1283.364 L 2411.047 1288.164 L 2414.647 1295.364 L 2420.646 1297.764 L 2421.846 1300.164 L 2423.046 1301.364 L 2423.046 1303.764 L 2421.846 1304.964 L 2421.846 1309.764 L 2420.646 1309.764 L 2419.446 1308.564 L 2409.847 1300.164 L 2407.447 1294.164 L 2405.047 1290.564 L 2399.047 1285.764 L 2393.047 1283.364 L 2389.447 1282.165 L 2378.648 1278.565 L 2375.048 1274.965 L 2370.248 1273.765 L 2366.648 1272.565 L 2364.248 1273.765 L 2361.848 1276.165 L 2359.448 1277.365 L 2352.248 1277.365 L 2347.448 1276.165 L 2346.248 1272.565 L 2345.048 1267.765 L 2342.649 1264.165 L 2337.849 1258.165 L 2336.649 1252.165 L 2335.449 1248.565 L 2330.649 1243.766 L 2330.649 1240.166 L 2327.049 1231.766 L 2325.849 1229.366 L 2322.249 1225.766 L 2318.649 1222.166 L 2313.849 1222.166 L 2311.449 1220.966 L 2310.249 1219.766 L 2309.049 1218.566 L 2307.85 1217.366 L 2309.049 1214.966 L 2306.65 1210.166 L 2304.25 1210.166 L 2303.05 1208.967 L 2301.85 1208.967 L 2299.45 1206.567 L 2298.25 1205.367 L 2293.45 1204.167 L 2293.45 1200.567 L 2291.05 1200.567 L 2288.65 1199.367 L 2283.85 1199.367 L 2281.45 1195.767 L 2279.05 1193.367 L 2276.65 1194.567 L 2276.65 1193.367 L 2274.25 1190.967 L 2273.05 1188.567 L 2270.651 1188.567 L 2269.451 1186.167 L 2265.851 1181.367 L 2264.651 1181.367 L 2264.651 1180.167 L 2262.251 1178.967 L 2263.451 1177.767 L 2263.451 1176.567 L 2262.251 1175.367 L 2262.251 1174.167 L 2259.851 1172.968 L 2258.651 1170.568 L 2253.851 1169.368 L 2252.651 1168.168 L 2250.251 1168.168 L 2250.251 1169.368 L 2249.051 1168.168 L 2247.851 1168.168 L 2246.651 1165.768 L 2244.251 1166.968 L 2240.651 1164.568 L 2239.451 1160.968 L 2239.451 1159.768 L 2241.851 1158.568 L 2240.651 1154.968 L 2239.451 1154.968 L 2239.451 1151.368 L 2241.851 1150.168 L 2241.851 1146.568 L 2243.051 1145.368 L 2246.651 1147.768 L 2246.651 1146.568 L 2249.051 1147.768 L 2253.851 1147.768 L 2253.851 1148.968 L 2255.051 1150.168 L 2256.251 1151.368 L 2257.451 1153.768 L 2259.851 1152.568 L 2259.851 1151.368 L 2261.051 1150.168 L 2264.651 1151.368 L 2265.851 1150.168 L 2264.651 1148.968 L 2263.451 1148.968 L 2263.451 1145.368 L 2267.051 1145.368 L 2267.051 1144.168 L 2268.251 1145.368 L 2270.651 1144.168 L 2270.651 1141.768 L 2274.25 1141.768 L 2275.45 1140.568 L 2276.65 1140.568 L 2277.85 1139.368 L 2277.85 1138.168 L 2276.65 1135.769 L 2275.45 1134.569 L 2275.45 1133.369 L 2277.85 1133.369 L 2277.85 1130.969 L 2275.45 1128.569 L 2274.25 1127.369 L 2274.25 1124.969 L 2273.05 1122.569 L 2274.25 1121.369 L 2274.25 1120.169 L 2275.45 1118.969 L 2274.25 1115.369 L 2275.45 1114.169 L 2276.65 1114.169 L 2277.85 1111.769 L 2277.85 1109.369 L 2279.05 1108.169 L 2280.25 1109.369 L 2281.45 1106.969 L 2280.25 1106.969 L 2280.25 1104.569 L 2285.05 1102.169 L 2286.25 1100.97 L 2288.65 1099.77 L 2289.85 1096.17 L 2291.05 1096.17 L 2291.05 1094.97 L 2293.45 1093.77 L 2292.25 1090.17 L 2293.45 1088.97 L 2294.65 1087.77 L 2294.65 1082.97 L 2295.85 1081.77 L 2289.85 1078.17 L 2288.65 1079.37 L 2287.45 1079.37 L 2286.25 1078.17 L 2285.05 1076.97 L 2286.25 1075.77 L 2283.85 1072.17 L 2283.85 1070.97 L 2286.25 1069.77 L 2287.45 1067.37 L 2285.05 1067.37 L 2283.85 1064.971 L 2283.85 1061.371 L 2286.25 1060.171 L 2285.05 1056.571 L 2286.25 1054.171 L 2286.25 1052.971 L 2283.85 1051.771 L 2281.45 1051.771 L 2279.05 1049.371 L 2277.85 1046.971 L 2276.65 1044.571 L 2273.05 1039.771 L 2273.05 1037.371 L 2271.85 1034.971 L 2270.651 1033.771 L 2270.651 1032.571 L 2271.85 1032.571 L 2271.85 1026.572 L 2268.251 1015.772 L 2264.651 1014.572 L 2263.451 1012.172 L 2259.851 1010.972 L 2256.251 1008.572 L 2253.851 1004.972 L 2253.851 990.573 L 2251.451 985.773 L 2249.051 983.373 L 2249.051 977.373 L 2246.651 971.373 L 2247.851 964.173 L 2246.651 960.573 L 2247.851 956.974 L 2249.051 954.574 L 2249.051 953.374 L 2250.251 952.174 L 2249.051 949.774 L 2247.851 944.974 L 2246.651 943.774 L 2243.051 938.974 L 2239.451 941.374 L 2237.051 941.374 L 2237.051 932.974 L 2234.652 929.374 L 2235.851 922.174 L 2237.051 915.075 L 2233.452 898.275 L 2234.652 895.875 L 2235.851 892.275 L 2240.651 885.075 L 2246.651 880.276 L 2247.851 879.076 L 2247.851 871.876 L 2246.651 870.676 L 2244.251 868.276 L 2243.051 863.476 L 2245.451 855.076 L 2249.051 851.476 L 2250.251 846.677 L 2250.251 844.277 L 2247.851 840.677 L 2245.451 837.077 L 2244.251 834.677 L 2245.451 832.277 L 2244.251 831.077 L 2244.251 828.677 L 2245.451 825.077 L 2245.451 823.877 L 2235.851 823.877 L 2232.252 816.677 L 2231.052 807.078 L 2225.052 792.678 L 2221.452 774.779 L 2219.052 773.579 L 2217.852 769.979 L 2219.052 767.579 L 2219.052 764.979 L 2216.652 758.979 L 2215.452 757.779 L 2214.252 757.779 L 2209.452 755.379 L 2205.852 751.779 L 2202.252 749.379 L 2199.852 746.979 L 2198.653 742.179 L 2196.253 740.979 L 2195.053 738.58 L 2191.453 733.78 L 2186.653 731.38 L 2186.653 727.78 L 2187.853 722.98 L 2192.653 718.18 L 2193.853 715.78 L 2195.053 714.58 L 2199.852 710.98 L 2201.052 708.58 L 2199.852 689.481 L 2204.652 678.681 L 2205.852 672.681 L 2204.652 666.682 L 2202.252 664.282 L 2201.052 664.282 L 2197.453 661.882 L 2185.453 658.282 L 2185.453 657.082 L 2183.053 653.482 L 2180.653 653.482 L 2166.253 651.082 L 2161.454 649.882 L 2155.454 652.282 L 2148.254 653.482 L 2139.854 648.682 L 2137.454 645.082 L 2133.854 641.482 L 2131.454 639.082 L 2129.054 634.282 L 2127.854 630.683 L 2127.854 624.683 L 2124.255 624.683 L 2123.055 623.483 L 2118.255 623.483 L 2106.255 627.083 L 2102.655 628.283 L 2097.855 625.883 L 2088.256 619.883 L 2087.056 617.483 L 2081.056 611.483 L 2081.056 610.283 L 2082.256 606.683 L 2081.056 601.883 L 2077.456 589.884 L 2077.456 587.484 L 2082.256 581.484 L 2082.256 577.884 L 2079.856 576.684 L 2073.856 575.484 L 2064.256 576.684 L 2047.457 580.284 L 2036.657 583.884 L 2030.657 585.084 L 2013.858 585.084 L 2005.458 581.484 L 1999.458 579.084 L 1994.658 577.884 L 1982.659 573.084 L 1979.059 570.684 L 1977.859 571.884 L 1975.459 569.484 L 1974.259 569.484 L 1973.059 570.684 L 1970.659 570.684 L 1969.459 569.484 L 1970.659 568.284 L 1968.259 567.084 L 1968.259 565.884 L 1965.859 565.884 L 1964.659 564.684 L 1965.859 562.284 L 1967.059 558.685 L 1967.059 556.285 L 1968.259 553.885 L 1968.259 550.285 L 1969.459 551.485 L 1970.659 551.485 L 1970.659 547.885 L 1974.259 545.485 L 1974.259 543.085 L 1976.659 540.685 L 1977.859 538.285 L 1977.859 535.885 L 1976.659 533.485 L 1977.859 533.485 L 1977.859 531.085 L 1975.459 528.685 L 1975.459 527.985 L 1977.859 525.585 L 1979.059 525.585 L 1977.859 523.186 L 1975.459 521.986 L 1975.459 518.386 L 1976.659 517.186 L 1976.659 515.986 L 1974.259 515.986 L 1974.259 513.586 L 1973.059 511.186 L 1973.059 509.986 L 1974.259 508.786 L 1973.059 507.586 L 1967.059 503.986 L 1965.859 501.586 L 1963.459 496.786 L 1963.459 485.987 L 1957.459 483.587 L 1956.259 481.187 L 1953.859 477.587 L 1952.659 473.987 L 1946.66 467.987 L 1944.26 463.187 L 1937.06 457.187 L 1933.46 453.587 L 1934.66 451.188 L 1937.06 446.388 L 1938.26 442.788 L 1938.26 429.688 L 1933.46 416.488 L 1934.66 404.489 L 1931.06 402.089 L 1929.86 399.689 L 1931.06 396.089 L 1933.46 393.689 L 1939.46 387.689 L 1941.86 384.089 L 1942.76 385.489 Z " fill="#F3AA47" vector-effect="non-scaling-stroke" stroke-width="1" stroke-linejoin="miter" stroke-linecap="butt" stroke-miterlimit="4"/></svg>