<?xml version="1.0" standalone="no"?><!-- Generator: Gravit.io --><svg xmlns="http://www.w3.org/2000/svg" xmlns:xlink="http://www.w3.org/1999/xlink" style="isolation:isolate" viewBox="3766.609 5738.641 967.273 618.883" width="967.273" height="618.883"><path d=" M 3768.309 5959.935 L 3768.309 5958.735 L 3767.109 5957.535 L 3768.309 5956.335 L 3774.309 5955.135 L 3774.309 5953.935 L 3770.709 5955.135 L 3769.509 5952.735 L 3770.709 5952.735 L 3773.109 5951.535 L 3773.109 5949.135 L 3770.709 5947.935 L 3770.709 5946.735 L 3771.909 5946.735 L 3773.109 5949.135 L 3774.309 5949.135 L 3777.909 5947.935 L 3773.109 5944.335 L 3773.109 5943.135 L 3774.309 5940.736 L 3776.709 5943.135 L 3779.109 5943.135 L 3777.909 5941.935 L 3776.709 5941.935 L 3774.309 5939.536 L 3773.109 5937.136 L 3775.509 5937.136 L 3777.909 5939.536 L 3779.109 5941.935 L 3781.509 5940.736 L 3780.309 5939.536 L 3777.909 5938.336 L 3776.709 5933.536 L 3777.909 5934.736 L 3780.309 5937.136 L 3781.509 5935.936 L 3782.709 5934.736 L 3782.709 5933.536 L 3781.509 5932.336 L 3780.309 5929.936 L 3782.709 5929.936 L 3783.909 5932.336 L 3786.309 5929.936 L 3783.909 5927.536 L 3788.709 5927.536 L 3788.709 5926.336 L 3785.109 5923.936 L 3786.309 5923.936 L 3786.309 5921.536 L 3788.709 5922.736 L 3791.108 5921.536 L 3791.108 5920.336 L 3789.908 5917.936 L 3789.908 5916.736 L 3794.708 5919.136 L 3797.108 5919.136 L 3794.708 5917.936 L 3792.308 5915.536 L 3794.708 5914.336 L 3795.908 5913.136 L 3794.708 5911.936 L 3795.908 5909.536 L 3792.308 5908.336 L 3793.508 5907.136 L 3794.708 5904.737 L 3792.308 5904.737 L 3792.308 5903.537 L 3798.308 5904.737 L 3798.308 5903.537 L 3797.108 5902.337 L 3795.908 5901.137 L 3792.308 5901.137 L 3792.308 5899.937 L 3793.508 5899.937 L 3792.308 5898.737 L 3791.108 5896.337 L 3789.908 5895.137 L 3789.908 5893.937 L 3791.108 5895.137 L 3792.308 5895.137 L 3791.108 5892.737 L 3789.908 5892.737 L 3788.709 5890.337 L 3788.709 5889.137 L 3791.108 5887.937 L 3791.108 5886.737 L 3788.709 5886.737 L 3788.709 5887.937 L 3786.309 5887.937 L 3783.909 5885.537 L 3786.309 5886.737 L 3787.509 5885.537 L 3788.709 5885.537 L 3788.709 5883.137 L 3787.509 5881.937 L 3786.309 5879.537 L 3785.109 5881.937 L 3782.709 5881.937 L 3783.909 5879.537 L 3781.509 5878.337 L 3781.509 5875.937 L 3782.709 5878.337 L 3785.109 5877.137 L 3786.309 5874.737 L 3783.909 5872.337 L 3783.909 5871.137 L 3785.109 5871.137 L 3786.309 5873.537 L 3788.709 5871.137 L 3786.309 5869.937 L 3786.309 5868.738 L 3788.709 5868.738 L 3787.509 5866.338 L 3787.509 5865.138 L 3787.509 5866.338 L 3785.109 5866.338 L 3785.109 5865.138 L 3783.909 5865.138 L 3781.509 5863.938 L 3782.709 5862.738 L 3783.909 5863.938 L 3783.909 5861.538 L 3785.109 5861.538 L 3786.309 5859.138 L 3785.109 5857.938 L 3786.309 5857.938 L 3786.309 5854.338 L 3787.509 5854.338 L 3787.509 5849.538 L 3789.908 5849.538 L 3789.908 5848.338 L 3788.709 5848.338 L 3786.309 5849.538 L 3785.109 5849.538 L 3787.509 5848.338 L 3786.309 5847.138 L 3783.909 5845.938 L 3786.309 5844.738 L 3787.509 5845.938 L 3787.509 5844.738 L 3788.709 5842.338 L 3786.309 5842.338 L 3786.309 5838.738 L 3787.509 5838.738 L 3787.509 5839.938 L 3788.709 5838.738 L 3791.108 5839.938 L 3789.908 5837.538 L 3791.108 5836.338 L 3792.308 5836.338 L 3791.108 5833.938 L 3792.308 5833.938 L 3791.108 5832.739 L 3789.908 5835.138 L 3789.908 5832.739 L 3788.709 5832.739 L 3791.108 5831.539 L 3792.308 5832.739 L 3792.308 5830.339 L 3791.108 5829.139 L 3791.108 5827.939 L 3792.308 5826.739 L 3792.308 5827.939 L 3793.508 5827.939 L 3793.508 5825.539 L 3792.308 5825.539 L 3792.308 5823.139 L 3791.108 5823.139 L 3789.908 5821.939 L 3791.108 5821.939 L 3792.308 5820.739 L 3789.908 5819.539 L 3789.908 5817.139 L 3791.108 5817.139 L 3792.308 5815.939 L 3791.108 5814.739 L 3791.108 5813.539 L 3793.508 5812.339 L 3792.308 5811.139 L 3793.508 5811.139 L 3793.508 5808.739 L 3795.908 5807.539 L 3797.108 5807.539 L 3795.908 5806.339 L 3797.108 5806.339 L 3797.108 5805.139 L 3799.508 5801.539 L 3800.708 5799.139 L 3801.908 5796.74 L 3801.908 5793.14 L 3804.308 5794.34 L 3807.908 5794.34 L 3811.508 5793.14 L 3812.708 5796.74 L 3813.908 5796.74 L 3817.508 5799.139 L 3817.508 5800.339 L 3822.308 5800.339 L 3827.107 5801.539 L 3830.707 5800.339 L 3833.107 5800.339 L 3836.707 5797.939 L 3839.107 5797.939 L 3840.307 5796.74 L 3847.507 5791.94 L 3848.707 5790.74 L 3851.107 5793.14 L 3852.307 5791.94 L 3853.507 5793.14 L 3853.507 5791.94 L 3855.907 5791.94 L 3855.907 5793.14 L 3858.307 5793.14 L 3859.507 5794.34 L 3860.707 5794.34 L 3865.506 5791.94 L 3865.506 5794.34 L 3866.706 5794.34 L 3869.106 5797.939 L 3869.106 5799.139 L 3870.306 5800.339 L 3870.306 5801.539 L 3871.506 5801.539 L 3873.906 5803.939 L 3878.706 5806.339 L 3878.706 5807.539 L 3879.906 5807.539 L 3882.306 5809.939 L 3884.706 5809.939 L 3885.906 5811.139 L 3887.106 5811.139 L 3888.306 5809.939 L 3889.506 5809.939 L 3890.706 5812.339 L 3891.906 5813.539 L 3893.106 5814.739 L 3895.506 5815.939 L 3896.706 5815.939 L 3897.905 5817.139 L 3899.105 5818.339 L 3901.505 5818.339 L 3906.305 5815.939 L 3909.905 5814.739 L 3917.105 5809.939 L 3924.305 5813.539 L 3926.705 5812.339 L 3927.905 5812.339 L 3930.305 5811.139 L 3931.505 5812.339 L 3937.504 5812.339 L 3942.304 5809.939 L 3949.504 5809.939 L 3950.704 5811.139 L 3951.904 5811.139 L 3954.304 5809.939 L 3956.704 5811.139 L 3957.904 5811.139 L 3959.104 5809.939 L 3960.304 5809.939 L 3961.504 5808.739 L 3963.904 5809.939 L 3965.104 5812.339 L 3966.304 5811.139 L 3967.504 5812.339 L 3968.704 5812.339 L 3972.303 5811.139 L 3975.903 5814.739 L 3978.303 5815.939 L 3979.503 5817.139 L 3979.503 5818.339 L 3981.903 5819.539 L 3983.103 5820.739 L 3983.103 5821.939 L 3985.503 5821.939 L 3986.703 5823.139 L 3989.103 5820.739 L 3991.503 5821.939 L 3992.703 5820.739 L 3993.903 5821.939 L 3996.303 5820.739 L 3999.903 5819.539 L 4004.703 5823.139 L 4007.102 5823.139 L 4009.502 5826.739 L 4017.902 5826.739 L 4020.302 5825.539 L 4021.502 5824.339 L 4022.702 5825.539 L 4023.902 5826.739 L 4025.102 5826.739 L 4027.502 5825.539 L 4029.902 5827.939 L 4031.102 5825.539 L 4032.302 5827.939 L 4034.702 5826.739 L 4038.302 5826.739 L 4041.901 5830.339 L 4041.901 5831.539 L 4043.101 5831.539 L 4045.501 5830.339 L 4047.901 5830.339 L 4049.101 5831.539 L 4052.701 5831.539 L 4056.301 5830.339 L 4058.701 5827.939 L 4063.501 5832.739 L 4068.301 5832.739 L 4069.501 5833.938 L 4071.901 5833.938 L 4074.301 5835.138 L 4074.301 5838.738 L 4075.501 5839.938 L 4076.701 5839.938 L 4077.9 5842.338 L 4080.3 5842.338 L 4081.5 5843.538 L 4082.7 5843.538 L 4083.9 5844.738 L 4086.3 5845.938 L 4086.3 5847.138 L 4088.7 5847.138 L 4088.7 5848.338 L 4089.9 5850.738 L 4094.7 5849.538 L 4094.7 5850.738 L 4097.1 5850.738 L 4099.5 5851.938 L 4100.7 5850.738 L 4104.3 5853.138 L 4109.1 5853.138 L 4112.7 5854.338 L 4112.7 5855.538 L 4113.9 5856.738 L 4115.099 5856.738 L 4117.499 5854.338 L 4119.899 5855.538 L 4123.499 5853.138 L 4127.099 5854.338 L 4129.499 5854.338 L 4139.099 5851.938 L 4143.899 5853.138 L 4146.299 5853.138 L 4151.098 5849.538 L 4154.698 5851.938 L 4157.098 5854.338 L 4174.998 5854.338 L 4178.598 5853.138 L 4180.998 5854.338 L 4182.198 5856.738 L 4183.398 5857.938 L 4182.198 5860.338 L 4185.798 5860.338 L 4186.997 5861.538 L 4188.197 5863.938 L 4188.197 5866.338 L 4190.597 5868.738 L 4191.797 5872.337 L 4196.597 5874.737 L 4195.397 5877.137 L 4197.797 5875.937 L 4198.997 5874.737 L 4198.997 5872.337 L 4196.597 5869.937 L 4198.997 5867.538 L 4201.397 5867.538 L 4203.797 5866.338 L 4206.197 5866.338 L 4209.797 5865.138 L 4210.997 5865.138 L 4210.997 5866.338 L 4213.397 5865.138 L 4214.597 5866.338 L 4218.197 5866.338 L 4218.197 5863.938 L 4219.397 5863.938 L 4219.397 5862.738 L 4221.797 5862.738 L 4222.996 5861.538 L 4226.596 5861.538 L 4226.596 5860.338 L 4227.796 5859.138 L 4226.596 5856.738 L 4228.996 5855.538 L 4228.996 5851.938 L 4230.196 5850.738 L 4227.796 5849.538 L 4227.796 5848.338 L 4228.996 5847.138 L 4226.596 5845.938 L 4226.596 5844.738 L 4225.396 5844.738 L 4224.196 5842.338 L 4222.996 5842.338 L 4221.797 5839.938 L 4220.597 5838.738 L 4220.597 5836.338 L 4221.797 5836.338 L 4221.797 5835.138 L 4224.196 5833.938 L 4222.996 5832.739 L 4224.196 5831.539 L 4221.797 5830.339 L 4219.397 5830.339 L 4219.397 5829.139 L 4220.597 5827.939 L 4216.997 5826.739 L 4215.797 5824.339 L 4215.797 5823.139 L 4218.197 5821.939 L 4216.997 5820.739 L 4216.997 5819.539 L 4219.397 5820.739 L 4219.397 5818.339 L 4220.597 5817.139 L 4224.196 5815.939 L 4222.996 5814.739 L 4221.797 5813.539 L 4224.196 5811.139 L 4224.196 5809.939 L 4222.996 5809.939 L 4224.196 5807.539 L 4225.396 5807.539 L 4225.396 5806.339 L 4228.996 5805.139 L 4230.196 5803.939 L 4231.396 5801.539 L 4236.196 5801.539 L 4238.596 5800.339 L 4239.796 5800.339 L 4239.796 5799.139 L 4242.196 5797.939 L 4243.396 5799.139 L 4244.596 5799.139 L 4244.596 5797.939 L 4246.996 5797.939 L 4249.396 5796.74 L 4250.596 5795.54 L 4251.796 5794.34 L 4251.796 5791.94 L 4252.996 5791.94 L 4254.196 5788.34 L 4257.796 5790.74 L 4258.995 5791.94 L 4268.595 5788.34 L 4269.795 5789.54 L 4273.395 5791.94 L 4273.395 5795.54 L 4276.995 5795.54 L 4278.195 5797.939 L 4279.395 5797.939 L 4280.595 5795.54 L 4278.195 5790.74 L 4279.395 5789.54 L 4280.595 5789.54 L 4284.195 5793.14 L 4284.195 5799.139 L 4287.795 5799.139 L 4288.995 5797.939 L 4290.195 5794.34 L 4291.395 5790.74 L 4292.595 5790.74 L 4296.194 5795.54 L 4297.394 5796.74 L 4298.594 5795.54 L 4299.794 5791.94 L 4302.194 5790.74 L 4303.394 5789.54 L 4304.594 5788.34 L 4311.794 5787.14 L 4312.994 5788.34 L 4312.994 5791.94 L 4317.794 5791.94 L 4318.994 5790.74 L 4315.394 5783.54 L 4320.194 5781.14 L 4321.394 5779.94 L 4323.794 5776.34 L 4324.994 5773.94 L 4326.194 5772.74 L 4328.594 5771.54 L 4329.794 5770.34 L 4330.993 5770.34 L 4328.594 5765.54 L 4330.993 5763.14 L 4332.193 5760.741 L 4334.593 5758.341 L 4339.393 5759.541 L 4341.793 5759.541 L 4345.393 5758.341 L 4346.593 5758.341 L 4347.793 5757.141 L 4347.793 5754.741 L 4345.393 5754.741 L 4342.993 5755.941 L 4341.793 5755.941 L 4340.593 5754.741 L 4340.593 5751.141 L 4344.193 5747.541 L 4345.393 5747.541 L 4346.593 5751.141 L 4347.793 5751.141 L 4347.793 5754.741 L 4352.593 5752.341 L 4354.993 5751.141 L 4356.193 5752.341 L 4357.393 5751.141 L 4358.593 5752.341 L 4360.993 5752.341 L 4359.793 5752.341 L 4360.993 5753.541 L 4360.993 5751.141 L 4362.193 5751.141 L 4362.193 5752.341 L 4364.593 5752.341 L 4364.593 5753.541 L 4364.593 5752.341 L 4366.992 5753.541 L 4365.793 5754.741 L 4366.992 5755.941 L 4368.192 5758.341 L 4372.992 5758.341 L 4374.192 5757.141 L 4374.192 5758.341 L 4380.192 5761.94 L 4381.392 5764.34 L 4380.192 5766.74 L 4380.192 5767.94 L 4381.392 5766.74 L 4381.392 5767.94 L 4382.592 5769.14 L 4384.992 5770.34 L 4386.192 5771.54 L 4387.392 5770.34 L 4388.592 5771.54 L 4388.592 5770.34 L 4386.192 5770.34 L 4386.192 5769.14 L 4387.392 5769.14 L 4387.392 5767.94 L 4386.192 5766.74 L 4387.392 5765.54 L 4387.392 5764.34 L 4386.192 5761.94 L 4388.592 5761.94 L 4388.592 5759.541 L 4392.192 5757.141 L 4395.792 5755.941 L 4398.192 5754.741 L 4400.592 5755.941 L 4400.592 5752.341 L 4404.191 5753.541 L 4404.191 5755.941 L 4405.391 5758.341 L 4406.591 5757.141 L 4407.791 5757.141 L 4408.991 5758.341 L 4411.391 5758.341 L 4411.391 5759.541 L 4412.591 5760.741 L 4413.791 5759.541 L 4414.991 5758.341 L 4416.191 5757.141 L 4417.391 5754.741 L 4416.191 5753.541 L 4416.191 5754.741 L 4414.991 5754.741 L 4413.791 5753.541 L 4412.591 5753.541 L 4413.791 5752.341 L 4414.991 5751.141 L 4416.191 5752.341 L 4418.591 5751.141 L 4419.791 5752.341 L 4418.591 5755.941 L 4418.591 5757.141 L 4420.991 5754.741 L 4423.391 5758.341 L 4424.591 5755.941 L 4425.791 5757.141 L 4429.391 5754.741 L 4430.591 5751.141 L 4431.791 5754.741 L 4431.791 5755.941 L 4431.791 5754.741 L 4432.991 5753.541 L 4435.391 5753.541 L 4437.791 5752.341 L 4440.19 5752.341 L 4443.79 5754.741 L 4444.99 5753.541 L 4443.79 5751.141 L 4443.79 5749.941 L 4446.19 5749.941 L 4446.19 5748.741 L 4449.79 5749.941 L 4450.99 5751.141 L 4450.99 5754.741 L 4449.79 5757.141 L 4454.59 5752.341 L 4452.19 5751.141 L 4453.39 5749.941 L 4455.79 5748.741 L 4456.99 5749.941 L 4455.79 5751.141 L 4456.99 5752.341 L 4460.59 5751.141 L 4461.79 5752.341 L 4462.99 5753.541 L 4464.19 5752.341 L 4468.99 5753.541 L 4467.79 5754.741 L 4468.99 5755.941 L 4470.19 5757.141 L 4471.39 5757.141 L 4472.59 5758.341 L 4473.79 5758.341 L 4473.79 5755.941 L 4474.99 5757.141 L 4474.99 5759.541 L 4472.59 5760.741 L 4473.79 5760.741 L 4474.99 5759.541 L 4474.99 5761.94 L 4476.189 5764.34 L 4477.389 5764.34 L 4478.589 5763.14 L 4479.789 5766.74 L 4482.189 5767.94 L 4482.189 5766.74 L 4483.389 5765.54 L 4484.589 5769.14 L 4485.789 5769.14 L 4485.789 5766.74 L 4484.589 5766.74 L 4484.589 5765.54 L 4485.789 5765.54 L 4486.989 5767.94 L 4489.389 5769.14 L 4489.389 5772.74 L 4494.189 5772.74 L 4491.789 5775.14 L 4492.989 5777.54 L 4494.189 5777.54 L 4496.589 5775.14 L 4498.989 5776.34 L 4500.189 5778.74 L 4502.589 5778.74 L 4500.189 5781.14 L 4501.389 5781.14 L 4502.589 5782.34 L 4503.789 5781.14 L 4504.989 5782.34 L 4504.989 5781.14 L 4506.189 5781.14 L 4506.189 5782.34 L 4507.389 5782.34 L 4507.389 5784.74 L 4509.789 5783.54 L 4509.789 5781.14 L 4510.989 5781.14 L 4510.989 5783.54 L 4509.789 5784.74 L 4512.188 5785.94 L 4513.388 5785.94 L 4513.388 5784.74 L 4513.388 5785.94 L 4514.588 5785.94 L 4515.788 5788.34 L 4515.788 5787.14 L 4518.188 5787.14 L 4518.188 5788.34 L 4519.388 5788.34 L 4519.388 5785.94 L 4521.788 5789.54 L 4524.188 5790.74 L 4525.388 5788.34 L 4524.188 5788.34 L 4527.788 5788.34 L 4526.588 5787.14 L 4526.588 5785.94 L 4527.788 5785.94 L 4528.988 5788.34 L 4528.988 5787.14 L 4530.188 5788.34 L 4531.388 5787.14 L 4532.588 5788.34 L 4532.588 5787.14 L 4533.788 5787.14 L 4534.988 5785.94 L 4534.988 5784.74 L 4534.988 5785.94 L 4533.788 5783.54 L 4534.988 5783.54 L 4536.188 5782.34 L 4534.988 5782.34 L 4536.188 5781.14 L 4536.188 5779.94 L 4537.388 5781.14 L 4539.788 5778.74 L 4540.988 5776.34 L 4544.588 5776.34 L 4544.588 5778.74 L 4545.788 5777.54 L 4546.988 5777.54 L 4548.187 5776.34 L 4548.187 5777.54 L 4548.187 5775.14 L 4550.587 5776.34 L 4551.787 5773.94 L 4551.787 5775.14 L 4552.987 5776.34 L 4552.987 5775.14 L 4556.587 5775.14 L 4556.587 5773.94 L 4557.787 5773.94 L 4557.787 5772.74 L 4558.987 5772.74 L 4557.787 5771.54 L 4558.987 5772.74 L 4558.987 5771.54 L 4560.187 5771.54 L 4560.187 5770.34 L 4561.387 5770.34 L 4562.587 5769.14 L 4566.187 5766.74 L 4568.587 5766.74 L 4568.587 5767.94 L 4569.787 5766.74 L 4568.587 5765.54 L 4570.987 5765.54 L 4570.987 5764.34 L 4569.787 5764.34 L 4570.987 5764.34 L 4569.787 5763.14 L 4569.787 5761.94 L 4570.987 5760.741 L 4572.187 5760.741 L 4573.387 5761.94 L 4573.387 5760.741 L 4574.587 5761.94 L 4574.587 5760.741 L 4575.787 5759.541 L 4574.587 5759.541 L 4576.987 5759.541 L 4576.987 5755.941 L 4579.387 5754.741 L 4580.587 5753.541 L 4579.387 5752.341 L 4581.787 5752.341 L 4584.186 5751.141 L 4585.386 5749.941 L 4587.786 5749.941 L 4587.786 5748.741 L 4590.186 5748.741 L 4591.386 5747.541 L 4592.586 5747.541 L 4593.786 5748.741 L 4594.986 5748.741 L 4596.186 5749.941 L 4596.186 5748.741 L 4597.386 5748.741 L 4597.386 5749.941 L 4598.586 5747.541 L 4599.786 5747.541 L 4598.586 5747.541 L 4599.786 5746.341 L 4602.186 5747.541 L 4603.386 5746.341 L 4604.586 5748.741 L 4605.786 5748.741 L 4605.786 5747.541 L 4608.186 5747.541 L 4609.386 5746.341 L 4609.386 5748.741 L 4611.786 5751.141 L 4612.986 5749.941 L 4614.186 5749.941 L 4615.386 5747.541 L 4616.586 5747.541 L 4617.786 5749.941 L 4621.385 5749.941 L 4621.385 5748.741 L 4622.585 5748.741 L 4623.785 5747.541 L 4624.985 5747.541 L 4624.985 5746.341 L 4626.185 5745.141 L 4627.385 5743.941 L 4628.585 5743.941 L 4628.585 5745.141 L 4630.985 5745.141 L 4628.585 5743.941 L 4678.884 5743.941 L 4678.884 5742.741 L 4681.284 5742.741 L 4681.284 5741.541 L 4684.884 5739.141 L 4686.084 5740.341 L 4687.284 5741.541 L 4687.284 5742.741 L 4688.484 5742.741 L 4688.484 5743.941 L 4690.884 5743.941 L 4690.884 5742.741 L 4692.083 5743.941 L 4693.283 5742.741 L 4693.283 5746.341 L 4690.884 5757.141 L 4692.083 5759.541 L 4693.283 5760.741 L 4693.283 5769.14 L 4695.683 5777.54 L 4704.083 5777.54 L 4705.283 5776.34 L 4706.483 5777.54 L 4705.283 5783.54 L 4707.683 5787.14 L 4710.083 5788.34 L 4710.083 5787.14 L 4711.283 5785.94 L 4711.283 5787.14 L 4710.083 5789.54 L 4708.883 5790.74 L 4704.083 5799.139 L 4700.483 5806.339 L 4699.283 5812.339 L 4694.483 5820.739 L 4693.283 5825.539 L 4693.283 5829.139 L 4689.684 5833.938 L 4687.284 5839.938 L 4683.684 5847.138 L 4682.484 5850.738 L 4681.284 5851.938 L 4678.884 5859.138 L 4677.684 5868.738 L 4677.684 5872.337 L 4678.884 5874.737 L 4677.684 5878.337 L 4678.884 5884.337 L 4680.084 5885.537 L 4681.284 5886.737 L 4683.684 5887.937 L 4683.684 5885.537 L 4686.084 5886.737 L 4687.284 5889.137 L 4688.484 5890.337 L 4692.083 5890.337 L 4693.283 5887.937 L 4693.283 5889.137 L 4695.683 5889.137 L 4694.483 5891.537 L 4695.683 5891.537 L 4694.483 5891.537 L 4693.283 5892.737 L 4692.083 5897.537 L 4688.484 5897.537 L 4687.284 5898.737 L 4686.084 5905.936 L 4684.884 5910.736 L 4686.084 5913.136 L 4684.884 5914.336 L 4687.284 5916.736 L 4688.484 5915.536 L 4687.284 5917.936 L 4687.284 5921.536 L 4688.484 5921.536 L 4687.284 5922.736 L 4688.484 5923.936 L 4687.284 5923.936 L 4686.084 5925.136 L 4688.484 5928.736 L 4690.884 5929.936 L 4692.083 5929.936 L 4692.083 5928.736 L 4693.283 5927.536 L 4694.483 5928.736 L 4694.483 5927.536 L 4695.683 5927.536 L 4695.683 5928.736 L 4696.883 5931.136 L 4698.083 5931.136 L 4696.883 5932.336 L 4698.083 5933.536 L 4696.883 5933.536 L 4696.883 5935.936 L 4695.683 5937.136 L 4694.483 5940.736 L 4693.283 5941.935 L 4694.483 5944.335 L 4693.283 5944.335 L 4693.283 5945.535 L 4692.083 5946.735 L 4692.083 5945.535 L 4690.884 5945.535 L 4690.884 5947.935 L 4692.083 5951.535 L 4695.683 5955.135 L 4698.083 5957.535 L 4701.683 5957.535 L 4704.083 5956.335 L 4704.083 5955.135 L 4705.283 5952.735 L 4705.283 5951.535 L 4706.483 5950.335 L 4707.683 5951.535 L 4708.883 5949.135 L 4710.083 5950.335 L 4707.683 5952.735 L 4710.083 5956.335 L 4713.683 5956.335 L 4713.683 5953.935 L 4714.883 5956.335 L 4716.083 5955.135 L 4714.883 5957.535 L 4713.683 5957.535 L 4712.483 5958.735 L 4711.283 5959.935 L 4710.083 5962.335 L 4711.283 5965.935 L 4714.883 5965.935 L 4713.683 5967.135 L 4712.483 5967.135 L 4711.283 5968.335 L 4710.083 5968.335 L 4707.683 5969.535 L 4707.683 5968.335 L 4710.083 5967.135 L 4710.083 5965.935 L 4707.683 5963.535 L 4705.283 5962.335 L 4701.683 5963.535 L 4700.483 5964.735 L 4698.083 5965.935 L 4695.683 5968.335 L 4695.683 5967.135 L 4693.283 5969.535 L 4690.884 5969.535 L 4690.884 5974.335 L 4689.684 5975.535 L 4689.684 5979.134 L 4692.083 5983.934 L 4693.283 5986.334 L 4695.683 5987.534 L 4695.683 5986.334 L 4696.883 5986.334 L 4698.083 5985.134 L 4699.283 5985.134 L 4699.283 5986.334 L 4700.483 5986.334 L 4700.483 5985.134 L 4701.683 5985.134 L 4702.883 5983.934 L 4702.883 5988.734 L 4704.083 5989.934 L 4706.483 5989.934 L 4705.283 5991.134 L 4705.283 5992.334 L 4704.083 5992.334 L 4704.083 5994.734 L 4705.283 5997.134 L 4704.083 5999.534 L 4704.083 5998.334 L 4702.883 5997.134 L 4702.883 5995.934 L 4700.483 5995.934 L 4699.283 6000.734 L 4699.283 6001.934 L 4700.483 6003.134 L 4698.083 6003.134 L 4698.083 6004.334 L 4699.283 6004.334 L 4698.083 6006.734 L 4696.883 6006.734 L 4695.683 6007.934 L 4694.483 6007.934 L 4693.283 6006.734 L 4692.083 6006.734 L 4688.484 6007.934 L 4687.284 6010.334 L 4686.084 6012.734 L 4686.084 6016.333 L 4684.884 6017.533 L 4687.284 6023.533 L 4687.284 6025.933 L 4690.884 6028.333 L 4689.684 6030.733 L 4692.083 6033.133 L 4696.883 6034.333 L 4696.883 6035.533 L 4698.083 6037.933 L 4696.883 6039.133 L 4698.083 6039.133 L 4696.883 6040.333 L 4695.683 6041.533 L 4693.283 6041.533 L 4693.283 6039.133 L 4689.684 6039.133 L 4687.284 6040.333 L 4688.484 6040.333 L 4687.284 6042.733 L 4687.284 6045.133 L 4686.084 6046.333 L 4684.884 6045.133 L 4684.884 6046.333 L 4686.084 6047.533 L 4688.484 6048.733 L 4692.083 6049.933 L 4692.083 6053.532 L 4693.283 6055.932 L 4693.283 6058.332 L 4692.083 6060.732 L 4693.283 6063.132 L 4694.483 6065.532 L 4693.283 6067.932 L 4693.283 6069.132 L 4692.083 6070.332 L 4694.483 6072.732 L 4693.283 6076.332 L 4695.683 6078.732 L 4696.883 6083.532 L 4695.683 6084.732 L 4695.683 6083.532 L 4694.483 6083.532 L 4693.283 6084.732 L 4692.083 6087.131 L 4693.283 6089.531 L 4694.483 6090.731 L 4694.483 6089.531 L 4696.883 6089.531 L 4696.883 6091.931 L 4695.683 6094.331 L 4694.483 6094.331 L 4693.283 6096.731 L 4689.684 6099.131 L 4689.684 6101.531 L 4688.484 6102.731 L 4688.484 6103.931 L 4689.684 6105.131 L 4688.484 6106.331 L 4687.284 6109.931 L 4687.284 6113.531 L 4689.684 6115.931 L 4690.884 6114.731 L 4693.283 6117.131 L 4692.083 6118.331 L 4692.083 6117.131 L 4690.884 6118.331 L 4690.884 6123.13 L 4689.684 6123.13 L 4688.484 6125.53 L 4687.284 6126.73 L 4687.284 6127.93 L 4686.084 6130.33 L 4686.084 6131.53 L 4687.284 6131.53 L 4686.084 6131.53 L 4686.084 6132.73 L 4687.284 6132.73 L 4687.284 6133.93 L 4686.084 6133.93 L 4684.884 6135.13 L 4684.884 6136.33 L 4686.084 6136.33 L 4684.884 6137.53 L 4683.684 6138.73 L 4683.684 6139.93 L 4681.284 6144.73 L 4681.284 6145.93 L 4682.484 6145.93 L 4682.484 6147.13 L 4681.284 6148.33 L 4681.284 6153.13 L 4683.684 6154.33 L 4683.684 6153.13 L 4684.884 6154.33 L 4678.884 6157.93 L 4674.084 6166.329 L 4672.884 6171.129 L 4674.084 6172.329 L 4675.284 6172.329 L 4674.084 6173.529 L 4670.484 6178.329 L 4668.084 6181.929 L 4666.884 6186.729 L 4666.884 6187.929 L 4668.084 6187.929 L 4666.884 6189.129 L 4664.484 6192.729 L 4663.284 6196.328 L 4663.284 6201.128 L 4666.884 6201.128 L 4666.884 6202.328 L 4668.084 6203.528 L 4666.884 6203.528 L 4664.484 6205.928 L 4664.484 6207.128 L 4665.684 6207.128 L 4664.484 6209.528 L 4662.084 6210.728 L 4659.684 6213.128 L 4660.884 6214.328 L 4659.684 6215.528 L 4658.484 6215.528 L 4654.885 6217.928 L 4654.885 6220.328 L 4656.084 6221.528 L 4653.685 6222.728 L 4652.485 6221.528 L 4651.285 6222.728 L 4650.085 6222.728 L 4647.685 6223.928 L 4638.085 6227.528 L 4622.485 6235.927 L 4608.086 6245.527 L 4588.986 6257.527 L 4571.087 6271.826 L 4566.287 6276.626 L 4563.887 6277.826 L 4555.487 6285.026 L 4547.088 6293.426 L 4532.688 6309.025 L 4531.488 6310.225 L 4508.689 6336.625 L 4496.689 6353.424 L 4490.689 6353.424 L 4490.689 6352.224 L 4493.089 6351.024 L 4491.889 6351.024 L 4491.889 6349.824 L 4491.889 6351.024 L 4490.689 6349.824 L 4490.689 6348.624 L 4489.489 6347.424 L 4487.089 6348.624 L 4485.889 6348.624 L 4482.289 6346.224 L 4478.689 6346.224 L 4478.689 6345.024 L 4477.489 6346.224 L 4477.489 6345.024 L 4476.289 6343.824 L 4472.69 6343.824 L 4472.69 6342.624 L 4473.89 6341.424 L 4471.49 6340.224 L 4471.49 6339.025 L 4472.69 6339.025 L 4471.49 6337.825 L 4470.29 6337.825 L 4470.29 6336.625 L 4469.09 6334.225 L 4466.69 6334.225 L 4463.09 6333.025 L 4460.69 6331.825 L 4458.29 6331.825 L 4457.09 6330.625 L 4454.69 6330.625 L 4454.69 6329.425 L 4452.29 6329.425 L 4451.09 6330.625 L 4449.89 6333.025 L 4447.49 6334.225 L 4445.09 6335.425 L 4443.89 6334.225 L 4439.09 6336.625 L 4437.891 6337.825 L 4434.291 6337.825 L 4434.291 6339.025 L 4433.091 6339.025 L 4429.491 6340.224 L 4424.691 6340.224 L 4425.891 6345.024 L 4427.091 6345.024 L 4429.491 6347.424 L 4431.891 6349.824 L 4434.291 6349.824 L 4439.09 6357.024 L 4436.691 6355.824 L 4434.291 6355.824 L 4435.491 6354.624 L 4435.491 6353.424 L 4431.891 6353.424 L 4433.091 6352.224 L 4430.691 6352.224 L 4430.691 6351.024 L 4429.491 6349.824 L 4427.091 6349.824 L 4425.891 6348.624 L 4427.091 6348.624 L 4424.691 6347.424 L 4424.691 6346.224 L 4423.491 6346.224 L 4423.491 6345.024 L 4422.291 6346.224 L 4422.291 6348.624 L 4421.091 6348.624 L 4421.091 6347.424 L 4419.891 6346.224 L 4419.891 6345.024 L 4418.691 6345.024 L 4419.891 6343.824 L 4419.891 6340.224 L 4421.091 6340.224 L 4418.691 6340.224 L 4418.691 6339.025 L 4416.291 6339.025 L 4419.891 6336.625 L 4421.091 6336.625 L 4419.891 6335.425 L 4418.691 6335.425 L 4419.891 6334.225 L 4418.691 6334.225 L 4422.291 6333.025 L 4422.291 6331.825 L 4421.091 6330.625 L 4418.691 6330.625 L 4421.091 6328.225 L 4421.091 6329.425 L 4423.491 6329.425 L 4422.291 6330.625 L 4424.691 6330.625 L 4424.691 6331.825 L 4428.291 6331.825 L 4427.091 6334.225 L 4425.891 6334.225 L 4425.891 6336.625 L 4429.491 6334.225 L 4428.291 6336.625 L 4430.691 6335.425 L 4429.491 6334.225 L 4430.691 6333.025 L 4429.491 6334.225 L 4429.491 6329.425 L 4430.691 6329.425 L 4429.491 6329.425 L 4429.491 6327.025 L 4428.291 6327.025 L 4428.291 6323.425 L 4430.691 6322.225 L 4433.091 6322.225 L 4431.891 6322.225 L 4431.891 6323.425 L 4429.491 6324.625 L 4429.491 6325.825 L 4431.891 6325.825 L 4430.691 6325.825 L 4431.891 6327.025 L 4431.891 6328.225 L 4434.291 6325.825 L 4434.291 6328.225 L 4435.491 6327.025 L 4437.891 6327.025 L 4439.09 6325.825 L 4440.29 6327.025 L 4442.69 6327.025 L 4441.49 6325.825 L 4440.29 6324.625 L 4441.49 6323.425 L 4441.49 6322.225 L 4443.89 6322.225 L 4443.89 6318.625 L 4442.69 6317.425 L 4447.49 6317.425 L 4447.49 6318.625 L 4448.69 6317.425 L 4447.49 6315.025 L 4452.29 6315.025 L 4451.09 6315.025 L 4451.09 6312.625 L 4452.29 6311.425 L 4451.09 6311.425 L 4451.09 6309.025 L 4453.49 6309.025 L 4453.49 6307.825 L 4452.29 6306.625 L 4454.69 6306.625 L 4453.49 6305.425 L 4455.89 6305.425 L 4455.89 6304.225 L 4454.69 6304.225 L 4453.49 6305.425 L 4451.09 6305.425 L 4447.49 6306.625 L 4447.49 6307.825 L 4447.49 6306.625 L 4443.89 6306.625 L 4452.29 6303.025 L 4452.29 6301.826 L 4453.49 6300.626 L 4453.49 6299.426 L 4454.69 6299.426 L 4454.69 6298.226 L 4455.89 6298.226 L 4455.89 6297.026 L 4454.69 6297.026 L 4451.09 6298.226 L 4453.49 6295.826 L 4453.49 6293.426 L 4454.69 6292.226 L 4455.89 6293.426 L 4455.89 6289.826 L 4457.09 6291.026 L 4459.49 6289.826 L 4457.09 6288.626 L 4455.89 6287.426 L 4453.49 6286.226 L 4453.49 6282.626 L 4454.69 6282.626 L 4454.69 6280.226 L 4455.89 6280.226 L 4452.29 6280.226 L 4451.09 6279.026 L 4453.49 6277.826 L 4452.29 6276.626 L 4454.69 6275.426 L 4454.69 6273.026 L 4455.89 6273.026 L 4455.89 6271.826 L 4457.09 6271.826 L 4457.09 6270.626 L 4458.29 6270.626 L 4455.89 6270.626 L 4454.69 6271.826 L 4454.69 6269.426 L 4451.09 6270.626 L 4452.29 6269.426 L 4453.49 6268.226 L 4453.49 6267.026 L 4454.69 6267.026 L 4454.69 6265.827 L 4452.29 6267.026 L 4453.49 6262.227 L 4452.29 6262.227 L 4452.29 6257.427 L 4454.69 6258.627 L 4454.69 6256.227 L 4453.49 6256.227 L 4453.49 6253.827 L 4452.29 6253.827 L 4453.49 6252.627 L 4453.49 6250.227 L 4454.69 6249.027 L 4454.69 6250.227 L 4454.69 6249.027 L 4457.09 6250.227 L 4458.29 6249.027 L 4458.29 6247.827 L 4459.49 6247.827 L 4457.09 6246.627 L 4457.09 6244.227 L 4458.29 6241.827 L 4460.69 6241.827 L 4461.89 6240.627 L 4461.89 6241.827 L 4463.09 6243.027 L 4464.29 6243.027 L 4465.49 6241.827 L 4466.69 6243.027 L 4464.29 6246.627 L 4465.49 6246.627 L 4465.49 6247.827 L 4467.89 6246.627 L 4466.69 6245.427 L 4467.89 6243.027 L 4467.89 6239.427 L 4470.29 6239.427 L 4469.09 6239.427 L 4472.69 6239.427 L 4472.69 6241.827 L 4473.89 6241.827 L 4473.89 6239.427 L 4475.09 6238.227 L 4477.489 6238.227 L 4476.289 6237.027 L 4475.09 6237.027 L 4475.09 6234.627 L 4473.89 6234.627 L 4473.89 6233.427 L 4475.09 6233.427 L 4476.289 6232.227 L 4478.689 6231.027 L 4477.489 6231.027 L 4478.689 6229.828 L 4477.489 6228.628 L 4478.689 6227.428 L 4479.889 6226.228 L 4481.089 6223.828 L 4482.289 6223.828 L 4483.489 6222.628 L 4483.489 6225.028 L 4484.689 6226.228 L 4485.889 6226.228 L 4488.289 6223.828 L 4488.289 6226.228 L 4493.089 6225.028 L 4496.689 6225.028 L 4496.689 6226.228 L 4497.889 6226.228 L 4499.089 6225.028 L 4500.289 6223.828 L 4499.089 6221.428 L 4496.689 6221.428 L 4496.689 6215.428 L 4495.489 6216.628 L 4494.289 6215.428 L 4493.089 6211.828 L 4490.689 6210.628 L 4489.489 6210.628 L 4490.689 6208.228 L 4493.089 6205.828 L 4490.689 6203.428 L 4491.889 6202.228 L 4490.689 6202.228 L 4490.689 6201.028 L 4487.089 6202.228 L 4485.889 6201.028 L 4487.089 6199.828 L 4487.089 6195.028 L 4485.889 6195.028 L 4485.889 6196.228 L 4483.489 6197.428 L 4484.689 6197.428 L 4483.489 6199.828 L 4484.689 6201.028 L 4483.489 6202.228 L 4482.289 6201.028 L 4481.089 6199.828 L 4479.889 6199.828 L 4478.689 6196.228 L 4477.489 6196.228 L 4477.489 6198.628 L 4478.689 6199.828 L 4476.289 6198.628 L 4473.89 6202.228 L 4472.69 6201.028 L 4473.89 6199.828 L 4469.09 6199.828 L 4469.09 6195.028 L 4466.69 6193.829 L 4470.29 6192.629 L 4471.49 6192.629 L 4470.29 6192.629 L 4467.89 6191.429 L 4466.69 6192.629 L 4464.29 6191.429 L 4464.29 6192.629 L 4465.49 6195.028 L 4464.29 6195.028 L 4463.09 6196.228 L 4461.89 6196.228 L 4458.29 6193.829 L 4457.09 6193.829 L 4455.89 6195.028 L 4457.09 6196.228 L 4458.29 6197.428 L 4455.89 6198.628 L 4454.69 6196.228 L 4453.49 6193.829 L 4451.09 6193.829 L 4449.89 6191.429 L 4448.69 6191.429 L 4447.49 6192.629 L 4447.49 6193.829 L 4445.09 6195.028 L 4442.69 6193.829 L 4441.49 6195.028 L 4440.29 6197.428 L 4439.09 6198.628 L 4433.091 6198.628 L 4430.691 6197.428 L 4428.291 6199.828 L 4425.891 6197.428 L 4423.491 6197.428 L 4423.491 6196.228 L 4424.691 6193.829 L 4425.891 6192.629 L 4425.891 6191.429 L 4423.491 6190.229 L 4423.491 6189.029 L 4422.291 6190.229 L 4422.291 6191.429 L 4419.891 6192.629 L 4418.691 6195.028 L 4417.491 6195.028 L 4419.891 6198.628 L 4421.091 6201.028 L 4417.491 6202.228 L 4416.291 6201.028 L 4416.291 6197.428 L 4413.891 6193.829 L 4411.491 6193.829 L 4410.291 6192.629 L 4409.091 6192.629 L 4406.691 6195.028 L 4405.491 6196.228 L 4404.291 6195.028 L 4401.892 6190.229 L 4401.892 6189.029 L 4398.292 6191.429 L 4399.492 6192.629 L 4400.692 6192.629 L 4400.692 6193.829 L 4397.092 6195.028 L 4394.692 6193.829 L 4393.492 6193.829 L 4393.492 6192.629 L 4392.292 6191.429 L 4389.892 6190.229 L 4387.492 6190.229 L 4386.292 6191.429 L 4385.092 6191.429 L 4386.292 6195.028 L 4385.092 6195.028 L 4383.892 6196.228 L 4383.892 6189.029 L 4382.692 6187.829 L 4381.492 6187.829 L 4380.292 6189.029 L 4379.092 6192.629 L 4376.692 6192.629 L 4375.492 6190.229 L 4368.292 6190.229 L 4367.092 6189.029 L 4364.693 6186.629 L 4357.493 6186.629 L 4353.893 6185.429 L 4351.493 6185.429 L 4351.493 6189.029 L 4349.093 6189.029 L 4347.893 6187.829 L 4345.493 6186.629 L 4343.093 6183.029 L 4340.693 6180.629 L 4339.493 6180.629 L 4337.093 6183.029 L 4334.693 6183.029 L 4333.493 6180.629 L 4334.693 6178.229 L 4331.093 6174.629 L 4327.494 6173.429 L 4328.694 6169.829 L 4326.294 6166.229 L 4325.094 6165.029 L 4322.694 6163.829 L 4322.694 6160.229 L 4319.094 6160.229 L 4313.094 6156.63 L 4311.894 6156.63 L 4311.894 6149.43 L 4310.694 6148.23 L 4310.694 6147.03 L 4309.494 6145.83 L 4308.294 6148.23 L 4305.894 6147.03 L 4305.894 6145.83 L 4307.094 6143.43 L 4305.894 6139.83 L 4307.094 6137.43 L 4305.894 6137.43 L 4305.894 6136.23 L 4301.094 6137.43 L 4301.094 6136.23 L 4298.694 6132.63 L 4297.494 6132.63 L 4293.895 6136.23 L 4291.495 6136.23 L 4290.295 6135.03 L 4291.495 6131.43 L 4290.295 6129.03 L 4289.095 6127.83 L 4285.495 6126.63 L 4286.695 6125.43 L 4289.095 6124.23 L 4290.295 6121.831 L 4290.295 6117.031 L 4287.895 6114.631 L 4281.895 6113.431 L 4283.095 6112.231 L 4280.695 6109.831 L 4281.895 6107.431 L 4280.695 6106.231 L 4278.295 6106.231 L 4273.495 6103.831 L 4272.295 6101.431 L 4271.095 6100.231 L 4269.895 6101.431 L 4268.695 6105.031 L 4266.295 6105.031 L 4266.295 6103.831 L 4265.095 6102.631 L 4265.095 6097.831 L 4261.495 6095.431 L 4259.095 6093.031 L 4259.095 6087.031 L 4255.496 6087.031 L 4254.296 6085.832 L 4255.496 6082.232 L 4254.296 6081.032 L 4251.896 6079.832 L 4250.696 6079.832 L 4247.096 6081.032 L 4245.896 6081.032 L 4245.896 6079.832 L 4244.696 6076.232 L 4244.696 6075.032 L 4241.096 6075.032 L 4237.496 6072.632 L 4235.096 6070.232 L 4231.496 6070.232 L 4229.096 6069.032 L 4227.896 6070.232 L 4226.696 6071.432 L 4225.496 6070.232 L 4224.296 6067.832 L 4220.697 6065.432 L 4220.697 6063.032 L 4219.497 6060.632 L 4217.097 6061.832 L 4213.497 6060.632 L 4213.497 6058.232 L 4214.697 6057.032 L 4213.497 6055.832 L 4213.497 6052.232 L 4212.297 6052.232 L 4209.897 6051.032 L 4206.297 6053.432 L 4203.897 6051.032 L 4201.497 6049.833 L 4202.697 6045.033 L 4202.697 6043.833 L 4200.297 6042.633 L 4197.897 6043.833 L 4196.697 6045.033 L 4195.497 6046.233 L 4194.297 6048.633 L 4191.897 6048.633 L 4191.897 6045.033 L 4188.297 6041.433 L 4188.297 6040.233 L 4187.097 6040.233 L 4185.898 6039.033 L 4184.698 6037.833 L 4184.698 6033.033 L 4183.498 6033.033 L 4182.298 6030.633 L 4178.698 6030.633 L 4173.898 6031.833 L 4171.498 6030.633 L 4171.498 6031.833 L 4170.298 6031.833 L 4170.298 6033.033 L 4169.098 6035.433 L 4167.898 6035.433 L 4166.698 6034.233 L 4165.498 6031.833 L 4166.698 6027.033 L 4166.698 6024.633 L 4163.098 6024.633 L 4160.698 6028.233 L 4158.298 6028.233 L 4157.098 6027.033 L 4159.498 6019.833 L 4158.298 6019.833 L 4158.298 6018.633 L 4154.698 6018.633 L 4154.698 6022.233 L 4153.498 6023.433 L 4149.899 6023.433 L 4148.699 6021.033 L 4149.899 6018.633 L 4149.899 6017.433 L 4147.499 6016.233 L 4145.099 6016.233 L 4143.899 6017.433 L 4142.699 6021.033 L 4141.499 6022.233 L 4140.299 6022.233 L 4137.899 6019.833 L 4135.499 6018.633 L 4135.499 6017.433 L 4129.499 6018.633 L 4127.099 6018.633 L 4127.099 6021.033 L 4129.499 6023.433 L 4129.499 6025.833 L 4127.099 6025.833 L 4123.499 6022.233 L 4121.099 6023.433 L 4118.699 6024.633 L 4117.499 6023.433 L 4119.899 6017.433 L 4119.899 6016.233 L 4113.9 6016.233 L 4113.9 6017.433 L 4112.7 6018.633 L 4113.9 6022.233 L 4113.9 6023.433 L 4111.5 6023.433 L 4109.1 6019.833 L 4109.1 6013.834 L 4107.9 6012.634 L 4106.7 6012.634 L 4104.3 6013.834 L 4101.9 6015.033 L 4099.5 6015.033 L 4098.3 6013.834 L 4103.1 6010.234 L 4103.1 6007.834 L 4099.5 6004.234 L 4093.5 6004.234 L 4091.1 6003.034 L 4091.1 6000.634 L 4100.7 6000.634 L 4100.7 5998.234 L 4098.3 5997.034 L 4094.7 5997.034 L 4092.3 5998.234 L 4091.1 5997.034 L 4088.7 5995.834 L 4088.7 5994.634 L 4087.5 5993.434 L 4089.9 5992.234 L 4089.9 5989.834 L 4088.7 5989.834 L 4085.1 5992.234 L 4082.7 5992.234 L 4079.1 5991.034 L 4076.701 5992.234 L 4074.301 5992.234 L 4073.101 5991.034 L 4073.101 5985.034 L 4070.701 5983.834 L 4069.501 5985.034 L 4067.101 5985.034 L 4064.701 5986.234 L 4062.301 5986.234 L 4063.501 5980.234 L 4062.301 5979.034 L 4061.101 5979.034 L 4059.901 5980.234 L 4057.501 5982.634 L 4056.301 5986.234 L 4055.101 5988.634 L 4053.901 5989.834 L 4052.701 5989.834 L 4052.701 5988.634 L 4051.501 5988.634 L 4049.101 5985.034 L 4047.901 5985.034 L 4043.101 5983.834 L 4043.101 5982.634 L 4045.501 5980.234 L 4049.101 5979.034 L 4050.301 5977.835 L 4046.701 5975.435 L 4045.501 5976.635 L 4038.302 5976.635 L 4038.302 5980.234 L 4039.502 5982.634 L 4040.702 5985.034 L 4039.502 5986.234 L 4039.502 5987.434 L 4038.302 5987.434 L 4035.902 5985.034 L 4033.502 5983.834 L 4031.102 5981.434 L 4029.902 5981.434 L 4027.502 5983.834 L 4025.102 5985.034 L 4023.902 5981.434 L 4025.102 5976.635 L 4023.902 5976.635 L 4023.902 5975.435 L 4021.502 5975.435 L 4021.502 5976.635 L 4022.702 5981.434 L 4021.502 5982.634 L 4020.302 5982.634 L 4019.102 5981.434 L 4017.902 5980.234 L 4014.302 5976.635 L 4014.302 5973.035 L 4015.502 5969.435 L 4015.502 5968.235 L 4013.102 5968.235 L 4007.102 5971.835 L 4007.102 5977.835 L 4003.503 5977.835 L 3997.503 5976.635 L 3995.103 5973.035 L 3992.703 5974.235 L 3987.903 5974.235 L 3986.703 5975.435 L 3983.103 5976.635 L 3981.903 5977.835 L 3980.703 5977.835 L 3978.303 5976.635 L 3975.903 5973.035 L 3973.503 5973.035 L 3972.303 5974.235 L 3972.303 5977.835 L 3969.903 5980.234 L 3968.704 5980.234 L 3967.504 5979.034 L 3967.504 5977.835 L 3966.304 5974.235 L 3965.104 5971.835 L 3963.904 5971.835 L 3962.704 5973.035 L 3960.304 5975.435 L 3959.104 5976.635 L 3959.104 5975.435 L 3956.704 5974.235 L 3956.704 5973.035 L 3957.904 5969.435 L 3957.904 5968.235 L 3956.704 5968.235 L 3956.704 5967.035 L 3953.104 5967.035 L 3951.904 5965.835 L 3947.104 5965.835 L 3944.704 5967.035 L 3942.304 5967.035 L 3942.304 5961.035 L 3941.104 5959.835 L 3939.904 5959.835 L 3935.104 5962.235 L 3935.104 5963.435 L 3932.705 5964.635 L 3929.105 5965.835 L 3927.905 5965.835 L 3926.705 5964.635 L 3926.705 5959.835 L 3923.105 5958.635 L 3921.905 5958.635 L 3920.705 5962.235 L 3920.705 5968.235 L 3919.505 5969.435 L 3917.105 5968.235 L 3915.905 5967.035 L 3914.705 5967.035 L 3914.705 5963.435 L 3915.905 5962.235 L 3918.305 5958.635 L 3918.305 5956.235 L 3917.105 5956.235 L 3915.905 5953.835 L 3914.705 5953.835 L 3909.905 5957.435 L 3908.705 5957.435 L 3907.505 5956.235 L 3907.505 5952.635 L 3911.105 5947.835 L 3912.305 5945.435 L 3911.105 5944.235 L 3905.105 5944.235 L 3901.505 5947.835 L 3901.505 5950.235 L 3902.705 5953.835 L 3902.705 5957.435 L 3895.506 5959.835 L 3891.906 5961.035 L 3890.706 5961.035 L 3890.706 5959.835 L 3888.306 5955.035 L 3887.106 5953.835 L 3885.906 5955.035 L 3884.706 5955.035 L 3884.706 5956.235 L 3883.506 5962.235 L 3882.306 5963.435 L 3879.906 5963.435 L 3873.906 5959.835 L 3872.706 5959.835 L 3870.306 5961.035 L 3863.106 5964.635 L 3860.707 5968.235 L 3858.307 5968.235 L 3858.307 5964.635 L 3861.906 5958.635 L 3863.106 5956.235 L 3863.106 5952.635 L 3861.906 5952.635 L 3860.707 5951.435 L 3860.707 5950.235 L 3853.507 5950.235 L 3852.307 5949.035 L 3851.107 5946.635 L 3849.907 5945.435 L 3848.707 5946.635 L 3847.507 5946.635 L 3845.107 5949.035 L 3843.907 5952.635 L 3842.707 5955.035 L 3834.307 5957.435 L 3831.907 5956.235 L 3830.707 5953.835 L 3825.907 5953.835 L 3825.907 5958.635 L 3828.307 5961.035 L 3828.307 5965.835 L 3824.708 5965.835 L 3822.308 5964.635 L 3818.708 5961.035 L 3815.108 5961.035 L 3810.308 5963.435 L 3805.508 5963.435 L 3803.108 5969.435 L 3801.908 5969.435 L 3800.708 5968.235 L 3800.708 5962.235 L 3799.508 5961.035 L 3799.508 5959.835 L 3797.108 5958.635 L 3793.508 5958.635 L 3792.308 5959.835 L 3789.908 5961.035 L 3788.709 5962.235 L 3787.509 5962.235 L 3785.109 5963.435 L 3782.709 5963.435 L 3780.309 5957.435 L 3777.909 5956.235 L 3773.109 5959.835 L 3771.909 5961.035 L 3769.509 5961.035 L 3768.309 5959.935 Z  M 4696.183 6019.733 L 4696.183 6018.533 L 4696.183 6019.733 Z  M 4696.183 6056.832 L 4696.183 6055.632 L 4697.383 6055.632 L 4696.183 6054.432 L 4696.183 6050.832 L 4698.583 6047.233 L 4700.983 6046.033 L 4704.583 6047.233 L 4703.383 6041.233 L 4702.183 6040.033 L 4700.983 6041.233 L 4699.783 6040.033 L 4699.783 6038.833 L 4697.383 6037.633 L 4697.383 6036.433 L 4699.783 6035.233 L 4700.983 6034.033 L 4702.183 6032.833 L 4705.783 6034.033 L 4705.783 6032.833 L 4704.583 6031.633 L 4705.783 6030.433 L 4706.983 6029.233 L 4704.583 6028.033 L 4703.383 6026.833 L 4704.583 6025.633 L 4703.383 6024.433 L 4705.783 6023.233 L 4705.783 6022.033 L 4704.583 6020.833 L 4703.383 6019.633 L 4702.183 6018.433 L 4700.983 6018.433 L 4700.983 6016.033 L 4702.183 6014.833 L 4703.383 6014.833 L 4703.383 6013.634 L 4704.583 6013.634 L 4704.583 6011.234 L 4700.983 6011.234 L 4699.783 6012.434 L 4700.983 6011.234 L 4703.383 6010.034 L 4704.583 6007.634 L 4708.183 6008.834 L 4711.783 6008.834 L 4712.983 6007.634 L 4717.783 6006.434 L 4721.383 6005.234 L 4721.383 6002.834 L 4720.183 6001.634 L 4721.383 6004.034 L 4720.183 6000.434 L 4720.183 5999.234 L 4721.383 6000.434 L 4722.583 5999.234 L 4723.783 5998.034 L 4723.783 6002.834 L 4724.983 6002.834 L 4726.183 6006.434 L 4727.383 6008.834 L 4730.982 6010.034 L 4732.182 6007.634 L 4733.382 6008.834 L 4733.382 6010.034 L 4730.982 6011.234 L 4730.982 6017.233 L 4727.383 6018.433 L 4723.783 6024.433 L 4721.383 6028.033 L 4721.383 6034.033 L 4722.583 6032.833 L 4723.783 6032.833 L 4722.583 6035.233 L 4722.583 6036.433 L 4721.383 6037.633 L 4720.183 6040.033 L 4720.183 6041.233 L 4718.983 6041.233 L 4717.783 6042.433 L 4717.783 6043.633 L 4714.183 6047.233 L 4712.983 6049.633 L 4711.783 6054.432 L 4708.183 6059.232 L 4708.183 6060.432 L 4706.983 6062.832 L 4706.983 6065.232 L 4708.183 6065.232 L 4708.183 6066.432 L 4710.583 6066.432 L 4710.583 6067.632 L 4712.983 6067.632 L 4712.983 6068.832 L 4711.783 6068.832 L 4710.583 6070.032 L 4710.583 6071.232 L 4711.783 6071.232 L 4710.583 6072.432 L 4708.183 6073.632 L 4706.983 6072.432 L 4706.983 6071.232 L 4705.783 6071.232 L 4703.383 6072.432 L 4702.183 6073.632 L 4700.983 6078.432 L 4700.983 6079.632 L 4697.383 6082.032 L 4697.383 6080.832 L 4696.183 6080.832 L 4697.383 6078.432 L 4698.583 6077.232 L 4696.183 6074.832 L 4697.383 6073.632 L 4696.183 6072.432 L 4694.983 6071.232 L 4694.983 6068.832 L 4693.783 6067.632 L 4696.183 6067.632 L 4697.383 6065.232 L 4698.583 6064.032 L 4697.383 6059.232 L 4699.783 6055.632 L 4697.383 6055.632 L 4697.383 6056.832 L 4696.183 6056.832 L 4696.183 6056.832 Z  M 4697.383 6016.133 L 4696.183 6016.133 L 4697.383 6016.133 L 4697.383 6014.933 L 4697.383 6017.333 L 4697.383 6016.133 Z " fill="#F3AA47" vector-effect="non-scaling-stroke" stroke-width="1" stroke-linejoin="miter" stroke-linecap="butt" stroke-miterlimit="4"/></svg>