<?xml version="1.0" standalone="no"?><!-- Generator: Gravit.io --><svg xmlns="http://www.w3.org/2000/svg" xmlns:xlink="http://www.w3.org/1999/xlink" style="isolation:isolate" viewBox="3895.106 4614.872 1582.256 1008.772" width="1582.256" height="1008.772"><path d=" M 3896.806 5132.558 L 3895.606 5131.358 L 3895.606 5128.958 L 3896.806 5126.558 L 3900.405 5121.758 L 3904.005 5118.158 L 3905.205 5116.958 L 3912.405 5114.558 L 3913.605 5113.358 L 3916.005 5109.759 L 3923.205 5106.159 L 3924.405 5106.159 L 3925.605 5104.959 L 3935.204 5102.559 L 3940.004 5100.159 L 3941.204 5100.159 L 3943.604 5095.359 L 3949.604 5090.559 L 3950.804 5088.159 L 3960.404 5082.159 L 3964.004 5080.959 L 3968.804 5077.359 L 3976.003 5074.959 L 3979.603 5072.56 L 3982.003 5071.36 L 3985.603 5068.96 L 3989.203 5065.36 L 3995.203 5064.16 L 4000.003 5061.76 L 4003.603 5060.56 L 4004.803 5059.36 L 4006.002 5059.36 L 4007.202 5056.96 L 4010.802 5053.36 L 4012.002 5052.16 L 4020.402 5046.16 L 4021.602 5042.56 L 4022.802 5041.36 L 4025.202 5038.96 L 4031.202 5030.561 L 4036.002 5014.961 L 4037.202 5011.361 L 4043.201 5004.161 L 4045.601 5004.161 L 4045.601 5002.961 L 4048.001 5001.762 L 4050.401 4998.162 L 4058.801 4992.162 L 4060.001 4988.562 L 4060.001 4986.162 L 4063.601 4977.762 L 4067.201 4975.362 L 4074.401 4972.962 L 4075.601 4970.562 L 4078 4968.162 L 4082.8 4959.763 L 4082.8 4954.963 L 4080.4 4950.163 L 4080.4 4946.563 L 4074.401 4941.763 L 4073.201 4939.363 L 4075.601 4935.763 L 4078 4930.963 L 4080.4 4929.764 L 4081.6 4929.764 L 4088.8 4930.963 L 4092.4 4930.963 L 4097.2 4928.564 L 4098.4 4927.364 L 4100.8 4923.764 L 4104.4 4920.164 L 4105.6 4916.564 L 4106.8 4912.964 L 4108 4908.164 L 4115.099 4902.164 L 4116.299 4900.964 L 4116.299 4897.364 L 4117.499 4892.565 L 4118.699 4886.565 L 4117.499 4885.365 L 4116.299 4878.165 L 4113.9 4874.565 L 4112.7 4873.365 L 4113.9 4870.965 L 4112.7 4864.965 L 4113.9 4862.565 L 4115.099 4861.365 L 4119.899 4861.365 L 4123.499 4860.165 L 4124.699 4860.165 L 4125.899 4857.766 L 4129.499 4856.566 L 4131.899 4850.566 L 4131.899 4846.966 L 4134.299 4843.366 L 4135.499 4839.766 L 4140.299 4833.766 L 4142.699 4832.566 L 4151.098 4832.566 L 4158.298 4827.766 L 4159.498 4825.366 L 4160.698 4816.967 L 4158.298 4814.567 L 4157.098 4810.967 L 4157.098 4804.967 L 4158.298 4798.967 L 4158.298 4796.567 L 4155.898 4792.967 L 4157.098 4786.967 L 4163.098 4773.768 L 4164.298 4772.568 L 4165.498 4771.368 L 4165.498 4770.168 L 4166.698 4768.968 L 4167.898 4767.768 L 4176.298 4762.968 L 4179.898 4759.368 L 4181.098 4755.768 L 4187.097 4746.169 L 4189.497 4743.769 L 4194.297 4740.169 L 4196.697 4738.969 L 4196.697 4737.769 L 4202.697 4726.969 L 4205.097 4725.769 L 4206.297 4720.969 L 4207.497 4719.769 L 4208.697 4719.769 L 4212.297 4717.369 L 4215.897 4714.969 L 4226.696 4712.57 L 4233.896 4712.57 L 4238.696 4711.37 L 4242.296 4710.17 L 4243.496 4710.17 L 4245.896 4708.97 L 4248.296 4706.57 L 4250.696 4705.37 L 4256.696 4700.57 L 4257.896 4698.17 L 4260.295 4690.97 L 4263.895 4682.57 L 4268.695 4672.971 L 4268.695 4670.571 L 4274.695 4662.171 L 4274.695 4660.971 L 4278.295 4660.971 L 4280.695 4658.571 L 4284.295 4656.171 L 4284.295 4653.771 L 4291.495 4653.771 L 4295.094 4650.171 L 4296.294 4648.971 L 4301.094 4647.771 L 4304.694 4645.371 L 4304.694 4644.171 L 4307.094 4644.171 L 4316.694 4641.771 L 4325.094 4639.372 L 4326.294 4639.372 L 4328.694 4638.172 L 4329.894 4638.172 L 4333.493 4632.172 L 4335.893 4629.772 L 4338.293 4628.572 L 4341.893 4623.772 L 4343.093 4621.372 L 4349.093 4621.372 L 4351.493 4618.972 L 4353.893 4617.772 L 4357.493 4617.772 L 4359.893 4616.572 L 4362.293 4615.372 L 4364.693 4616.572 L 4368.292 4617.772 L 4371.892 4618.972 L 4379.092 4627.372 L 4382.692 4628.572 L 4382.692 4630.972 L 4386.292 4630.972 L 4388.692 4632.172 L 4389.892 4632.172 L 4394.692 4630.972 L 4401.892 4633.372 L 4406.691 4630.972 L 4410.291 4630.972 L 4415.091 4632.172 L 4416.291 4633.372 L 4417.491 4633.372 L 4421.091 4632.172 L 4428.191 4632.172 L 4429.391 4633.372 L 4431.791 4634.572 L 4436.591 4639.372 L 4437.791 4640.572 L 4440.19 4640.572 L 4442.59 4641.771 L 4452.19 4640.572 L 4461.79 4644.171 L 4464.19 4645.371 L 4471.39 4645.371 L 4474.99 4642.971 L 4482.089 4641.771 L 4490.489 4641.771 L 4496.489 4642.971 L 4510.889 4642.971 L 4510.889 4641.771 L 4514.488 4640.572 L 4519.288 4639.372 L 4522.888 4639.372 L 4524.088 4638.172 L 4528.888 4639.372 L 4532.488 4640.572 L 4534.888 4645.371 L 4536.088 4646.571 L 4540.888 4651.371 L 4544.488 4651.371 L 4558.887 4652.571 L 4562.487 4651.371 L 4566.087 4648.971 L 4569.687 4647.771 L 4575.687 4648.971 L 4576.887 4648.971 L 4578.087 4650.171 L 4578.087 4654.971 L 4575.687 4656.171 L 4572.087 4656.171 L 4569.687 4658.571 L 4567.287 4668.171 L 4567.287 4674.171 L 4568.487 4676.571 L 4568.487 4686.17 L 4574.487 4696.97 L 4575.687 4700.57 L 4575.687 4702.97 L 4580.487 4710.17 L 4581.687 4710.17 L 4587.686 4711.37 L 4590.086 4712.57 L 4591.286 4712.57 L 4591.286 4711.37 L 4598.486 4706.57 L 4600.886 4704.17 L 4605.686 4693.37 L 4610.486 4683.77 L 4611.686 4682.57 L 4616.486 4682.57 L 4618.886 4683.77 L 4623.685 4684.97 L 4624.885 4687.37 L 4627.285 4693.37 L 4628.485 4702.97 L 4628.485 4706.57 L 4627.285 4726.969 L 4628.485 4728.169 L 4639.285 4735.369 L 4641.685 4735.369 L 4642.885 4734.169 L 4645.285 4729.369 L 4645.285 4724.569 L 4642.885 4718.569 L 4644.085 4712.57 L 4641.685 4708.97 L 4641.685 4704.17 L 4644.085 4699.37 L 4646.485 4696.97 L 4647.685 4695.77 L 4647.685 4694.57 L 4646.485 4692.17 L 4647.685 4688.57 L 4648.885 4687.37 L 4652.485 4684.97 L 4660.884 4684.97 L 4665.684 4683.77 L 4669.284 4682.57 L 4670.484 4682.57 L 4676.484 4684.97 L 4680.084 4684.97 L 4681.284 4686.17 L 4684.884 4686.17 L 4688.484 4684.97 L 4693.283 4680.17 L 4695.683 4678.97 L 4700.483 4678.97 L 4704.083 4680.17 L 4712.483 4680.17 L 4718.483 4677.77 L 4720.883 4677.77 L 4726.883 4676.571 L 4731.682 4677.77 L 4736.482 4677.77 L 4738.882 4676.571 L 4742.482 4676.571 L 4746.082 4677.77 L 4748.482 4680.17 L 4749.682 4681.37 L 4755.682 4681.37 L 4758.082 4680.17 L 4759.282 4680.17 L 4760.482 4677.77 L 4760.482 4676.571 L 4754.482 4670.571 L 4754.482 4669.371 L 4755.682 4663.371 L 4754.482 4662.171 L 4755.682 4660.971 L 4759.282 4660.971 L 4760.482 4662.171 L 4762.882 4663.371 L 4766.481 4669.371 L 4767.681 4672.971 L 4768.881 4674.171 L 4771.281 4674.171 L 4772.481 4677.77 L 4776.081 4678.97 L 4778.481 4681.37 L 4782.081 4682.57 L 4785.681 4682.57 L 4790.481 4680.17 L 4791.681 4676.571 L 4795.281 4677.77 L 4797.681 4674.171 L 4798.881 4671.771 L 4800.081 4669.371 L 4800.081 4663.371 L 4801.28 4662.171 L 4802.48 4662.171 L 4807.28 4665.771 L 4808.48 4671.771 L 4810.88 4675.371 L 4815.68 4677.77 L 4816.88 4677.77 L 4820.48 4674.171 L 4821.68 4671.771 L 4821.68 4666.971 L 4822.88 4664.571 L 4822.88 4663.371 L 4821.68 4662.171 L 4820.48 4662.171 L 4820.48 4658.571 L 4821.68 4657.371 L 4824.08 4653.771 L 4825.28 4653.771 L 4827.68 4654.971 L 4833.68 4652.571 L 4839.679 4652.571 L 4843.279 4653.771 L 4845.679 4652.571 L 4849.279 4651.371 L 4850.479 4651.371 L 4856.479 4656.171 L 4856.479 4658.571 L 4858.879 4660.971 L 4860.079 4662.171 L 4862.479 4664.571 L 4864.879 4663.371 L 4867.279 4663.371 L 4870.879 4659.771 L 4870.879 4656.171 L 4873.278 4654.971 L 4878.078 4654.971 L 4878.078 4653.771 L 4880.478 4652.571 L 4885.278 4652.571 L 4887.678 4650.171 L 4890.078 4650.171 L 4891.278 4648.971 L 4892.478 4647.771 L 4892.478 4648.971 L 4896.078 4652.571 L 4898.478 4654.971 L 4899.678 4657.371 L 4899.678 4659.771 L 4897.278 4660.971 L 4897.278 4664.571 L 4902.078 4666.971 L 4903.278 4670.571 L 4909.277 4670.571 L 4911.677 4674.171 L 4914.077 4674.171 L 4916.477 4676.571 L 4921.277 4677.77 L 4923.677 4682.57 L 4927.277 4683.77 L 4928.477 4683.77 L 4929.677 4686.17 L 4929.677 4689.77 L 4930.877 4689.77 L 4932.077 4692.17 L 4934.477 4695.77 L 4934.477 4696.97 L 4932.077 4702.97 L 4930.877 4702.97 L 4928.477 4706.57 L 4927.277 4706.57 L 4926.077 4708.97 L 4926.077 4712.57 L 4924.877 4712.57 L 4924.877 4716.169 L 4923.677 4716.169 L 4924.877 4717.369 L 4922.477 4718.569 L 4923.677 4722.169 L 4923.677 4725.769 L 4924.877 4725.769 L 4923.677 4728.169 L 4924.877 4729.369 L 4923.677 4730.569 L 4924.877 4730.569 L 4923.677 4731.769 L 4924.877 4731.769 L 4923.677 4732.969 L 4923.677 4734.169 L 4924.877 4734.169 L 4924.877 4735.369 L 4923.677 4736.569 L 4923.677 4737.769 L 4927.277 4740.169 L 4929.677 4740.169 L 4930.877 4742.569 L 4934.477 4743.769 L 4938.077 4747.369 L 4940.477 4747.369 L 4942.877 4748.569 L 4947.676 4749.769 L 4948.876 4752.168 L 4950.076 4752.168 L 4950.076 4754.568 L 4951.276 4756.968 L 4950.076 4758.168 L 4952.476 4762.968 L 4953.676 4762.968 L 4953.676 4766.568 L 4956.076 4767.768 L 4956.076 4771.368 L 4958.476 4772.568 L 4958.476 4774.968 L 4957.276 4777.368 L 4957.276 4779.768 L 4956.076 4782.168 L 4954.876 4783.368 L 4954.876 4784.568 L 4948.876 4784.568 L 4946.476 4783.368 L 4945.276 4784.568 L 4945.276 4785.768 L 4942.877 4788.167 L 4944.077 4790.567 L 4942.877 4790.567 L 4941.677 4795.367 L 4940.477 4796.567 L 4939.277 4796.567 L 4938.077 4800.167 L 4935.677 4801.367 L 4938.077 4806.167 L 4935.677 4810.967 L 4933.277 4816.967 L 4935.677 4821.767 L 4938.077 4824.166 L 4941.677 4824.166 L 4941.677 4826.566 L 4942.877 4828.966 L 4945.276 4828.966 L 4946.476 4831.366 L 4948.876 4832.566 L 4950.076 4833.766 L 4948.876 4837.366 L 4948.876 4839.766 L 4947.676 4840.966 L 4948.876 4844.566 L 4950.076 4848.166 L 4951.276 4850.566 L 4950.076 4854.166 L 4951.276 4854.166 L 4952.476 4855.366 L 4956.076 4856.566 L 4956.076 4857.766 L 4953.676 4857.766 L 4953.676 4860.165 L 4951.276 4861.365 L 4954.876 4864.965 L 4953.676 4868.565 L 4954.876 4869.765 L 4954.876 4870.965 L 4957.276 4874.565 L 4958.476 4876.965 L 4958.476 4875.765 L 4964.476 4875.765 L 4963.276 4876.965 L 4963.276 4878.165 L 4962.076 4879.365 L 4962.076 4881.765 L 4964.476 4880.565 L 4965.676 4882.965 L 4966.876 4882.965 L 4966.876 4884.165 L 4968.076 4886.565 L 4968.076 4890.165 L 4970.476 4892.565 L 4969.276 4893.765 L 4970.476 4893.765 L 4971.676 4896.164 L 4971.676 4897.364 L 4972.876 4899.764 L 4975.276 4900.964 L 4976.476 4902.164 L 4975.276 4903.364 L 4974.076 4904.564 L 4975.276 4906.964 L 4974.076 4909.364 L 4972.876 4909.364 L 4974.076 4911.764 L 4974.076 4912.964 L 4972.876 4912.964 L 4974.076 4914.164 L 4975.276 4914.164 L 4976.476 4915.364 L 4977.676 4914.164 L 4977.676 4915.364 L 4980.076 4914.164 L 4982.475 4914.164 L 4983.675 4915.364 L 4984.875 4914.164 L 4987.275 4915.364 L 4988.475 4914.164 L 4989.675 4915.364 L 4989.675 4914.164 L 4992.075 4914.164 L 4993.275 4912.964 L 4994.475 4912.964 L 4995.675 4911.764 L 4999.275 4910.564 L 4999.275 4909.364 L 5000.475 4909.364 L 5000.475 4908.164 L 5002.875 4908.164 L 5004.075 4906.964 L 5004.075 4905.764 L 5005.275 4904.564 L 5007.675 4904.564 L 5012.475 4905.764 L 5013.675 4904.564 L 5014.875 4903.364 L 5018.474 4903.364 L 5017.274 4905.764 L 5018.474 4906.964 L 5022.074 4909.364 L 5024.474 4909.364 L 5024.474 4908.164 L 5025.674 4909.364 L 5026.874 4911.764 L 5029.274 4908.164 L 5030.474 4906.964 L 5031.674 4905.764 L 5032.874 4905.764 L 5034.074 4903.364 L 5037.674 4903.364 L 5037.674 4909.364 L 5038.874 4910.564 L 5040.074 4912.964 L 5041.274 4912.964 L 5042.474 4914.164 L 5042.474 4915.364 L 5043.674 4915.364 L 5042.474 4916.564 L 5043.674 4917.764 L 5046.074 4918.964 L 5046.074 4917.764 L 5050.874 4915.364 L 5050.874 4916.564 L 5053.273 4917.764 L 5055.673 4917.764 L 5058.073 4918.964 L 5060.473 4918.964 L 5060.473 4921.364 L 5061.673 4922.564 L 5061.673 4924.964 L 5062.873 4926.164 L 5060.473 4928.564 L 5060.473 4930.963 L 5059.273 4932.163 L 5060.473 4934.563 L 5061.673 4935.763 L 5064.073 4938.163 L 5064.073 4939.363 L 5062.873 4939.363 L 5061.673 4940.563 L 5061.673 4941.763 L 5060.473 4944.163 L 5060.473 4945.363 L 5059.273 4946.563 L 5060.473 4947.763 L 5060.473 4948.963 L 5058.073 4950.163 L 5058.073 4952.563 L 5055.673 4952.563 L 5054.473 4953.763 L 5055.673 4956.163 L 5054.473 4956.163 L 5052.074 4957.363 L 5052.074 4960.963 L 5049.674 4962.163 L 5042.474 4960.963 L 5042.474 4963.363 L 5041.274 4964.563 L 5041.274 4965.763 L 5042.474 4968.162 L 5041.274 4970.562 L 5041.274 4977.762 L 5038.874 4977.762 L 5037.674 4978.962 L 5036.474 4978.962 L 5037.674 4981.362 L 5034.074 4984.962 L 5034.074 4986.162 L 5031.674 4987.362 L 5030.474 4989.762 L 5031.674 4992.162 L 5034.074 4992.162 L 5036.474 4995.762 L 5036.474 4996.962 L 5037.674 4998.162 L 5036.474 5000.562 L 5035.274 5001.762 L 5034.074 5001.762 L 5032.874 5002.961 L 5035.274 5005.361 L 5034.074 5007.761 L 5036.474 5008.961 L 5036.474 5011.361 L 5038.874 5014.961 L 5040.074 5016.161 L 5041.274 5016.161 L 5042.474 5018.561 L 5043.674 5019.761 L 5043.674 5023.361 L 5042.474 5023.361 L 5038.874 5020.961 L 5037.674 5022.161 L 5036.474 5022.161 L 5036.474 5023.361 L 5035.274 5024.561 L 5032.874 5023.361 L 5032.874 5024.561 L 5031.674 5024.561 L 5030.474 5026.961 L 5032.874 5029.361 L 5035.274 5030.561 L 5035.274 5031.761 L 5031.674 5032.961 L 5029.274 5032.961 L 5026.874 5034.161 L 5025.674 5032.961 L 5024.474 5032.961 L 5024.474 5035.361 L 5025.674 5036.561 L 5031.674 5036.561 L 5034.074 5037.761 L 5037.674 5036.561 L 5040.074 5038.96 L 5042.474 5040.16 L 5043.674 5043.76 L 5046.074 5043.76 L 5046.074 5044.96 L 5043.674 5047.36 L 5038.874 5048.56 L 5037.674 5052.16 L 5032.874 5052.16 L 5034.074 5053.36 L 5031.674 5059.36 L 5032.874 5060.56 L 5029.274 5062.96 L 5030.474 5065.36 L 5029.274 5064.16 L 5028.074 5066.56 L 5026.874 5067.76 L 5026.874 5068.96 L 5028.074 5070.16 L 5026.874 5071.36 L 5028.074 5073.76 L 5025.674 5076.159 L 5024.474 5076.159 L 5025.674 5077.359 L 5026.874 5077.359 L 5026.874 5078.559 L 5028.074 5078.559 L 5028.074 5079.759 L 5029.274 5080.959 L 5029.274 5083.359 L 5030.474 5083.359 L 5030.474 5084.559 L 5031.674 5084.559 L 5032.874 5086.959 L 5035.274 5086.959 L 5034.074 5089.359 L 5035.274 5090.559 L 5034.074 5094.159 L 5034.074 5095.359 L 5037.674 5096.559 L 5037.674 5097.759 L 5038.874 5097.759 L 5040.074 5098.959 L 5043.674 5100.159 L 5043.674 5098.959 L 5046.074 5100.159 L 5049.674 5100.159 L 5050.874 5101.359 L 5050.874 5102.559 L 5052.074 5101.359 L 5054.473 5101.359 L 5055.673 5102.559 L 5054.473 5103.759 L 5054.473 5104.959 L 5055.673 5104.959 L 5058.073 5106.159 L 5058.073 5108.559 L 5056.873 5109.759 L 5062.873 5112.158 L 5062.873 5114.558 L 5065.273 5113.358 L 5066.473 5114.558 L 5072.473 5114.558 L 5072.473 5116.958 L 5074.873 5116.958 L 5074.873 5118.158 L 5077.273 5119.358 L 5078.473 5119.358 L 5079.673 5118.158 L 5079.673 5120.558 L 5076.073 5124.158 L 5076.073 5126.558 L 5079.673 5126.558 L 5077.273 5128.958 L 5080.873 5132.558 L 5077.273 5133.758 L 5077.273 5134.958 L 5078.473 5136.158 L 5080.873 5136.158 L 5082.073 5137.358 L 5083.273 5138.558 L 5083.273 5140.958 L 5080.873 5142.158 L 5079.673 5142.158 L 5080.873 5140.958 L 5079.673 5139.758 L 5078.473 5140.958 L 5076.073 5139.758 L 5074.873 5140.958 L 5071.273 5142.158 L 5071.273 5143.358 L 5068.873 5142.158 L 5067.673 5143.358 L 5067.673 5144.558 L 5068.873 5145.758 L 5067.673 5146.958 L 5068.873 5148.157 L 5071.273 5148.157 L 5072.473 5151.757 L 5074.873 5151.757 L 5074.873 5152.957 L 5077.273 5154.157 L 5077.273 5152.957 L 5080.873 5155.357 L 5083.273 5155.357 L 5084.473 5154.157 L 5084.473 5155.357 L 5085.673 5155.357 L 5088.073 5158.957 L 5089.272 5157.757 L 5092.872 5157.757 L 5092.872 5158.957 L 5091.672 5160.157 L 5091.672 5161.357 L 5090.472 5161.357 L 5090.472 5162.557 L 5088.073 5163.757 L 5085.673 5168.557 L 5085.673 5170.957 L 5086.873 5172.157 L 5085.673 5173.357 L 5086.873 5176.957 L 5084.473 5176.957 L 5084.473 5178.157 L 5085.673 5178.157 L 5085.673 5179.357 L 5086.873 5180.557 L 5088.073 5182.957 L 5091.672 5184.156 L 5092.872 5182.957 L 5096.472 5181.757 L 5100.072 5182.957 L 5102.472 5179.357 L 5106.072 5179.357 L 5106.072 5181.757 L 5108.472 5181.757 L 5109.672 5182.957 L 5110.872 5180.557 L 5116.872 5178.157 L 5118.072 5176.957 L 5119.272 5178.157 L 5125.272 5176.957 L 5126.471 5175.757 L 5126.471 5176.957 L 5127.671 5180.557 L 5127.671 5181.757 L 5126.471 5185.356 L 5125.272 5186.556 L 5127.671 5187.756 L 5130.071 5185.356 L 5132.471 5185.356 L 5134.871 5182.957 L 5138.471 5181.757 L 5143.271 5182.957 L 5146.871 5180.557 L 5150.471 5181.757 L 5151.671 5180.557 L 5154.071 5179.357 L 5154.071 5178.157 L 5156.471 5176.957 L 5158.871 5175.757 L 5160.071 5174.557 L 5161.271 5173.357 L 5163.67 5173.357 L 5166.07 5170.957 L 5166.07 5169.757 L 5168.47 5168.557 L 5169.67 5168.557 L 5168.47 5170.957 L 5168.47 5172.157 L 5170.87 5172.157 L 5170.87 5175.757 L 5172.07 5175.757 L 5172.07 5179.357 L 5173.27 5179.357 L 5175.67 5178.157 L 5176.87 5178.157 L 5176.87 5174.557 L 5178.07 5174.557 L 5179.27 5172.157 L 5182.87 5172.157 L 5182.87 5170.957 L 5185.27 5172.157 L 5185.27 5170.957 L 5187.67 5172.157 L 5187.67 5174.557 L 5188.87 5175.757 L 5190.07 5175.757 L 5192.47 5174.557 L 5193.67 5173.357 L 5193.67 5172.157 L 5192.47 5166.157 L 5194.87 5166.157 L 5196.07 5163.757 L 5197.27 5164.957 L 5198.469 5167.357 L 5199.669 5167.357 L 5200.869 5168.557 L 5203.269 5168.557 L 5203.269 5167.357 L 5202.069 5167.357 L 5200.869 5166.157 L 5199.669 5164.957 L 5199.669 5163.757 L 5200.869 5161.357 L 5202.069 5161.357 L 5203.269 5160.157 L 5203.269 5157.757 L 5202.069 5157.757 L 5202.069 5155.357 L 5199.669 5151.757 L 5200.869 5151.757 L 5194.87 5151.757 L 5191.27 5152.957 L 5187.67 5154.157 L 5186.47 5154.157 L 5184.07 5151.757 L 5185.27 5146.958 L 5190.07 5145.758 L 5191.27 5144.558 L 5194.87 5143.358 L 5194.87 5142.158 L 5196.07 5142.158 L 5197.27 5140.958 L 5197.27 5139.758 L 5199.669 5139.758 L 5202.069 5140.958 L 5203.269 5139.758 L 5206.869 5138.558 L 5205.669 5138.558 L 5205.669 5137.358 L 5203.269 5136.158 L 5202.069 5132.558 L 5199.669 5132.558 L 5199.669 5131.358 L 5198.469 5130.158 L 5199.669 5128.958 L 5200.869 5127.758 L 5200.869 5126.558 L 5202.069 5125.358 L 5205.669 5126.558 L 5209.269 5124.158 L 5211.669 5125.358 L 5211.669 5126.558 L 5212.869 5128.958 L 5211.669 5128.958 L 5210.469 5131.358 L 5211.669 5131.358 L 5209.269 5133.758 L 5209.269 5134.958 L 5208.069 5136.158 L 5210.469 5138.558 L 5211.669 5138.558 L 5214.069 5137.358 L 5220.069 5136.158 L 5222.469 5132.558 L 5224.869 5132.558 L 5226.069 5131.358 L 5224.869 5131.358 L 5227.269 5128.958 L 5227.269 5131.358 L 5229.669 5131.358 L 5230.869 5133.758 L 5227.269 5136.158 L 5226.069 5137.358 L 5226.069 5138.558 L 5227.269 5139.758 L 5232.069 5138.558 L 5233.269 5138.558 L 5234.468 5137.358 L 5235.668 5137.358 L 5240.468 5133.758 L 5242.868 5134.958 L 5245.268 5128.958 L 5244.068 5127.758 L 5245.268 5127.758 L 5248.868 5130.158 L 5250.068 5130.158 L 5251.268 5131.358 L 5252.468 5132.558 L 5254.868 5132.558 L 5256.068 5133.758 L 5257.268 5134.958 L 5256.068 5138.558 L 5259.668 5138.558 L 5263.268 5136.158 L 5265.668 5136.158 L 5266.868 5133.758 L 5269.268 5133.758 L 5270.467 5132.558 L 5276.467 5131.358 L 5280.067 5132.558 L 5281.267 5131.358 L 5282.467 5131.358 L 5282.467 5130.158 L 5283.667 5127.758 L 5282.467 5126.558 L 5288.467 5122.958 L 5289.667 5122.958 L 5292.067 5121.758 L 5293.267 5121.758 L 5298.067 5120.558 L 5300.467 5118.158 L 5299.267 5116.958 L 5299.267 5115.758 L 5300.467 5114.558 L 5302.867 5112.158 L 5304.067 5112.158 L 5306.466 5110.959 L 5307.666 5109.759 L 5308.866 5109.759 L 5311.266 5108.559 L 5312.466 5107.359 L 5314.866 5108.559 L 5318.466 5106.159 L 5322.066 5104.959 L 5324.466 5103.759 L 5324.466 5104.959 L 5330.466 5104.959 L 5335.266 5106.159 L 5336.466 5104.959 L 5340.066 5102.559 L 5347.265 5102.559 L 5348.465 5098.959 L 5350.865 5097.759 L 5352.065 5096.559 L 5353.265 5096.559 L 5354.465 5097.759 L 5358.065 5097.759 L 5360.465 5096.559 L 5362.865 5095.359 L 5362.865 5094.159 L 5367.665 5094.159 L 5370.065 5095.359 L 5372.465 5095.359 L 5374.865 5097.759 L 5377.265 5100.159 L 5378.464 5104.959 L 5378.464 5106.159 L 5377.265 5108.559 L 5378.464 5109.759 L 5379.664 5109.759 L 5379.664 5113.358 L 5382.064 5113.358 L 5383.264 5114.558 L 5384.464 5114.558 L 5385.664 5115.758 L 5386.864 5118.158 L 5385.664 5119.358 L 5385.664 5121.758 L 5389.264 5120.558 L 5390.464 5121.758 L 5391.664 5120.558 L 5392.864 5121.758 L 5391.664 5125.358 L 5391.664 5130.158 L 5392.864 5130.158 L 5394.064 5131.358 L 5395.264 5130.158 L 5397.664 5132.558 L 5398.864 5131.358 L 5398.864 5130.158 L 5400.064 5131.358 L 5401.264 5133.758 L 5402.464 5133.758 L 5404.864 5128.958 L 5406.064 5131.358 L 5408.464 5130.158 L 5410.864 5132.558 L 5413.264 5132.558 L 5410.864 5134.958 L 5410.864 5136.158 L 5412.064 5136.158 L 5410.864 5134.958 L 5414.463 5134.958 L 5415.663 5136.158 L 5416.863 5136.158 L 5420.463 5131.358 L 5419.263 5130.158 L 5420.463 5130.158 L 5421.663 5131.358 L 5424.063 5132.558 L 5425.263 5131.358 L 5426.463 5131.358 L 5427.663 5130.158 L 5430.063 5128.958 L 5432.463 5128.958 L 5433.663 5130.158 L 5434.863 5130.158 L 5434.863 5128.958 L 5433.663 5127.758 L 5433.663 5126.558 L 5436.063 5125.358 L 5436.063 5124.158 L 5437.263 5124.158 L 5439.663 5125.358 L 5442.063 5125.358 L 5440.863 5127.758 L 5442.063 5127.758 L 5442.063 5131.358 L 5444.463 5131.358 L 5443.263 5128.958 L 5443.263 5127.758 L 5444.463 5128.958 L 5444.463 5126.558 L 5445.663 5127.758 L 5448.063 5126.558 L 5449.263 5128.958 L 5450.462 5127.758 L 5451.662 5128.958 L 5454.062 5128.958 L 5455.262 5131.358 L 5455.262 5130.158 L 5457.662 5128.958 L 5461.262 5131.358 L 5462.462 5130.158 L 5466.062 5130.158 L 5467.262 5132.558 L 5468.462 5131.358 L 5469.662 5131.358 L 5469.662 5133.758 L 5470.862 5134.958 L 5472.062 5134.958 L 5473.262 5136.158 L 5472.062 5137.358 L 5474.462 5139.758 L 5476.862 5142.158 L 5476.862 5144.558 L 5475.662 5145.758 L 5474.462 5145.758 L 5474.462 5148.157 L 5473.262 5149.357 L 5470.862 5150.557 L 5469.662 5150.557 L 5469.662 5151.757 L 5470.862 5151.757 L 5469.662 5152.957 L 5466.062 5152.957 L 5462.462 5156.557 L 5463.662 5157.757 L 5461.262 5157.757 L 5460.062 5160.157 L 5460.062 5161.357 L 5461.262 5162.557 L 5460.062 5163.757 L 5462.462 5163.757 L 5462.462 5166.157 L 5460.062 5166.157 L 5457.662 5170.957 L 5455.262 5172.157 L 5455.262 5170.957 L 5452.862 5170.957 L 5449.263 5173.357 L 5449.263 5174.557 L 5448.063 5174.557 L 5449.263 5173.357 L 5448.063 5172.157 L 5439.663 5175.757 L 5434.863 5175.757 L 5434.863 5174.557 L 5431.263 5174.557 L 5430.063 5175.757 L 5428.863 5178.157 L 5427.663 5179.357 L 5426.463 5179.357 L 5422.863 5180.557 L 5422.863 5179.357 L 5421.663 5179.357 L 5421.663 5178.157 L 5420.463 5178.157 L 5421.663 5175.757 L 5420.463 5174.557 L 5416.863 5174.557 L 5414.463 5176.957 L 5412.064 5178.157 L 5409.664 5180.557 L 5407.264 5181.757 L 5403.664 5179.357 L 5400.064 5181.757 L 5398.864 5181.757 L 5394.064 5184.156 L 5392.864 5185.356 L 5392.864 5186.556 L 5389.264 5188.956 L 5386.864 5186.556 L 5384.464 5190.156 L 5380.864 5190.156 L 5379.664 5188.956 L 5378.464 5190.156 L 5374.865 5192.556 L 5372.465 5194.956 L 5373.665 5196.156 L 5372.465 5197.356 L 5372.465 5198.556 L 5365.265 5198.556 L 5365.265 5200.956 L 5364.065 5202.156 L 5365.265 5203.356 L 5364.065 5205.756 L 5365.265 5205.756 L 5365.265 5206.956 L 5364.065 5208.156 L 5364.065 5210.556 L 5362.865 5211.756 L 5362.865 5212.956 L 5361.665 5214.156 L 5361.665 5217.756 L 5360.465 5218.956 L 5361.665 5218.956 L 5361.665 5220.155 L 5362.865 5220.155 L 5361.665 5222.555 L 5362.865 5222.555 L 5361.665 5223.755 L 5362.865 5224.955 L 5360.465 5226.155 L 5361.665 5227.355 L 5359.265 5228.555 L 5360.465 5230.955 L 5359.265 5232.155 L 5356.865 5232.155 L 5355.665 5233.355 L 5354.465 5233.355 L 5354.465 5234.555 L 5353.265 5234.555 L 5350.865 5235.755 L 5350.865 5238.155 L 5349.665 5239.355 L 5349.665 5241.755 L 5348.465 5242.955 L 5349.665 5244.155 L 5350.865 5244.155 L 5350.865 5247.755 L 5354.465 5247.755 L 5358.065 5248.955 L 5356.865 5250.155 L 5359.265 5251.355 L 5359.265 5252.555 L 5360.465 5253.755 L 5359.265 5254.955 L 5362.865 5253.755 L 5362.865 5254.955 L 5366.465 5256.154 L 5366.465 5257.354 L 5367.665 5259.754 L 5367.665 5260.954 L 5368.865 5263.354 L 5367.665 5263.354 L 5371.265 5264.554 L 5373.665 5266.954 L 5374.865 5266.954 L 5376.065 5268.154 L 5377.265 5269.354 L 5373.665 5269.354 L 5367.665 5270.554 L 5366.465 5269.354 L 5364.065 5269.354 L 5364.065 5270.554 L 5362.865 5271.754 L 5360.465 5271.754 L 5359.265 5272.954 L 5355.665 5272.954 L 5356.865 5271.754 L 5358.065 5269.354 L 5354.465 5268.154 L 5352.065 5268.154 L 5348.465 5270.554 L 5348.465 5266.954 L 5349.665 5265.754 L 5348.465 5263.354 L 5344.865 5263.354 L 5343.665 5265.754 L 5342.465 5266.954 L 5338.866 5266.954 L 5337.666 5268.154 L 5337.666 5270.554 L 5336.466 5271.754 L 5335.266 5271.754 L 5334.066 5272.954 L 5334.066 5274.154 L 5332.866 5275.354 L 5331.666 5274.154 L 5330.466 5274.154 L 5328.066 5276.554 L 5326.866 5277.754 L 5323.266 5277.754 L 5320.866 5280.154 L 5320.866 5278.954 L 5319.666 5277.754 L 5318.466 5278.954 L 5317.266 5280.154 L 5318.466 5280.154 L 5317.266 5280.154 L 5317.266 5283.754 L 5318.466 5284.954 L 5319.666 5286.154 L 5322.066 5283.754 L 5323.266 5283.754 L 5323.266 5286.154 L 5325.666 5286.154 L 5320.866 5286.154 L 5319.666 5287.354 L 5317.266 5287.354 L 5316.066 5290.954 L 5316.066 5292.153 L 5317.266 5292.153 L 5314.866 5294.553 L 5314.866 5296.953 L 5313.666 5295.753 L 5313.666 5292.153 L 5311.266 5292.153 L 5310.066 5293.353 L 5311.266 5290.954 L 5310.066 5290.954 L 5308.866 5292.153 L 5306.466 5293.353 L 5310.066 5294.553 L 5308.866 5295.753 L 5310.066 5295.753 L 5310.066 5296.953 L 5308.866 5298.153 L 5308.866 5296.953 L 5307.666 5296.953 L 5307.666 5295.753 L 5305.267 5294.553 L 5304.067 5295.753 L 5305.267 5293.353 L 5302.867 5293.353 L 5302.867 5292.153 L 5300.467 5293.353 L 5299.267 5292.153 L 5298.067 5292.153 L 5298.067 5294.553 L 5300.467 5295.753 L 5299.267 5298.153 L 5300.467 5298.153 L 5300.467 5300.553 L 5295.667 5300.553 L 5295.667 5298.153 L 5294.467 5296.953 L 5290.867 5298.153 L 5288.467 5300.553 L 5288.467 5301.753 L 5290.867 5302.953 L 5290.867 5301.753 L 5290.867 5305.353 L 5292.067 5305.353 L 5290.867 5305.353 L 5292.067 5306.553 L 5292.067 5307.753 L 5287.267 5307.753 L 5286.067 5310.153 L 5283.667 5310.153 L 5284.867 5310.153 L 5283.667 5308.953 L 5282.467 5311.353 L 5282.467 5308.953 L 5278.867 5308.953 L 5280.067 5307.753 L 5278.867 5306.553 L 5276.467 5306.553 L 5272.867 5307.753 L 5269.268 5310.153 L 5265.668 5314.953 L 5265.668 5316.153 L 5263.268 5317.353 L 5262.068 5316.153 L 5259.668 5317.353 L 5258.468 5317.353 L 5258.468 5316.153 L 5257.268 5316.153 L 5254.868 5317.353 L 5252.468 5320.953 L 5252.468 5326.953 L 5253.668 5330.552 L 5254.868 5334.152 L 5258.468 5334.152 L 5258.468 5336.552 L 5256.068 5338.952 L 5258.468 5343.752 L 5258.468 5349.752 L 5257.268 5348.552 L 5257.268 5350.952 L 5254.868 5352.152 L 5252.468 5353.352 L 5251.268 5352.152 L 5250.068 5353.352 L 5250.068 5352.152 L 5246.468 5350.952 L 5244.068 5353.352 L 5242.868 5353.352 L 5241.668 5354.552 L 5240.468 5354.552 L 5240.468 5355.752 L 5238.068 5355.752 L 5238.068 5353.352 L 5234.468 5353.352 L 5234.468 5350.952 L 5233.269 5349.752 L 5230.869 5349.752 L 5230.869 5347.352 L 5229.669 5346.152 L 5224.869 5346.152 L 5223.669 5347.352 L 5220.069 5348.552 L 5218.869 5348.552 L 5217.669 5347.352 L 5218.869 5344.952 L 5215.269 5344.952 L 5215.269 5343.752 L 5212.869 5343.752 L 5211.669 5344.952 L 5211.669 5343.752 L 5208.069 5343.752 L 5206.869 5344.952 L 5205.669 5342.552 L 5194.87 5342.552 L 5194.87 5341.352 L 5193.67 5341.352 L 5187.67 5342.552 L 5187.67 5341.352 L 5185.27 5340.152 L 5179.27 5340.152 L 5169.67 5341.352 L 5156.571 5344.952 L 5154.171 5346.152 L 5152.971 5348.552 L 5150.571 5347.352 L 5146.971 5349.752 L 5145.771 5350.952 L 5145.771 5352.152 L 5144.571 5353.352 L 5143.371 5353.352 L 5144.571 5352.152 L 5143.371 5350.952 L 5142.171 5349.752 L 5138.571 5350.952 L 5131.371 5354.552 L 5128.971 5355.752 L 5128.971 5358.152 L 5127.771 5358.152 L 5126.571 5359.352 L 5130.171 5358.152 L 5128.971 5359.352 L 5127.771 5361.752 L 5127.771 5364.151 L 5125.371 5365.351 L 5125.371 5366.551 L 5126.571 5366.551 L 5125.371 5367.751 L 5124.172 5367.751 L 5120.572 5370.151 L 5120.572 5372.551 L 5121.772 5373.751 L 5122.972 5372.551 L 5122.972 5373.751 L 5124.172 5373.751 L 5122.972 5374.951 L 5121.772 5376.151 L 5119.372 5377.351 L 5119.372 5382.151 L 5120.572 5382.151 L 5118.172 5382.151 L 5116.972 5383.351 L 5116.972 5384.551 L 5115.772 5383.351 L 5116.972 5382.151 L 5108.572 5382.151 L 5106.172 5384.551 L 5104.972 5385.751 L 5106.172 5386.951 L 5103.772 5386.951 L 5102.572 5388.151 L 5102.572 5390.551 L 5101.372 5392.951 L 5101.372 5391.751 L 5102.572 5389.351 L 5101.372 5388.151 L 5100.172 5386.951 L 5098.972 5388.151 L 5097.772 5389.351 L 5097.772 5388.151 L 5095.372 5388.151 L 5095.372 5384.551 L 5097.772 5383.351 L 5096.572 5380.951 L 5095.372 5379.751 L 5091.772 5378.551 L 5086.973 5378.551 L 5086.973 5380.951 L 5085.773 5378.551 L 5084.573 5378.551 L 5083.373 5379.751 L 5084.573 5379.751 L 5085.773 5382.151 L 5085.773 5383.351 L 5083.373 5383.351 L 5083.373 5385.751 L 5084.573 5386.951 L 5083.373 5386.951 L 5083.373 5388.151 L 5082.173 5390.551 L 5080.973 5390.551 L 5082.173 5388.151 L 5078.573 5386.951 L 5071.373 5388.151 L 5064.173 5391.751 L 5044.974 5400.15 L 5027.074 5410.95 L 5012.675 5418.15 L 5010.275 5420.55 L 5006.675 5421.75 L 4994.675 5430.15 L 4986.275 5434.95 L 4975.476 5444.549 L 4975.476 5449.349 L 4974.276 5450.549 L 4971.876 5452.949 L 4973.076 5454.149 L 4974.276 5455.349 L 4974.276 5456.549 L 4975.476 5456.549 L 4974.276 5457.749 L 4975.476 5458.949 L 4974.276 5458.949 L 4974.276 5460.149 L 4973.076 5458.949 L 4971.876 5460.149 L 4971.876 5461.349 L 4970.676 5461.349 L 4967.076 5462.549 L 4962.276 5464.949 L 4959.876 5467.349 L 4951.476 5473.348 L 4944.277 5478.148 L 4943.077 5479.348 L 4943.077 5481.748 L 4940.677 5482.948 L 4935.877 5486.548 L 4935.877 5487.748 L 4931.077 5488.948 L 4905.978 5504.548 L 4904.778 5504.548 L 4904.778 5505.748 L 4898.778 5509.347 L 4897.578 5511.747 L 4889.178 5514.147 L 4881.978 5518.947 L 4866.379 5528.547 L 4860.379 5533.347 L 4838.779 5550.146 L 4826.78 5562.146 L 4820.78 5569.246 L 4819.58 5572.846 L 4818.38 5576.446 L 4814.78 5576.446 L 4814.78 5577.646 L 4815.98 5581.245 L 4817.18 5582.445 L 4817.18 5586.045 L 4814.78 5588.445 L 4813.58 5593.245 L 4813.58 5594.445 L 4814.78 5594.445 L 4814.78 5596.845 L 4814.78 5595.645 L 4812.38 5595.645 L 4808.78 5598.045 L 4803.98 5602.845 L 4794.381 5610.045 L 4782.381 5623.144 L 4781.181 5623.144 L 4781.181 5620.744 L 4783.581 5618.344 L 4794.381 5608.745 L 4793.181 5607.545 L 4794.381 5606.345 L 4791.981 5606.345 L 4790.781 5607.545 L 4788.381 5606.345 L 4788.381 5609.945 L 4785.981 5609.945 L 4784.781 5611.145 L 4783.581 5609.945 L 4781.181 5611.145 L 4778.781 5612.345 L 4772.781 5607.545 L 4771.581 5606.345 L 4770.381 5603.945 L 4767.981 5603.945 L 4765.581 5602.745 L 4764.381 5600.345 L 4767.981 5599.145 L 4769.181 5596.745 L 4769.181 5594.345 L 4770.381 5594.345 L 4771.581 5593.145 L 4769.181 5591.945 L 4766.781 5590.745 L 4766.781 5589.545 L 4764.381 5587.145 L 4764.381 5585.945 L 4761.982 5582.345 L 4761.982 5581.145 L 4760.782 5579.946 L 4761.982 5577.546 L 4760.782 5573.946 L 4761.982 5572.746 L 4761.982 5571.546 L 4760.782 5571.546 L 4758.382 5570.346 L 4758.382 5569.146 L 4759.582 5567.946 L 4758.382 5567.946 L 4758.382 5566.746 L 4757.182 5565.546 L 4755.982 5564.346 L 4754.782 5561.946 L 4753.582 5563.146 L 4753.582 5565.546 L 4751.182 5565.546 L 4751.182 5567.946 L 4749.982 5569.146 L 4749.982 5572.746 L 4748.782 5572.746 L 4747.582 5570.346 L 4746.382 5570.346 L 4746.382 5571.546 L 4743.982 5573.946 L 4742.782 5576.346 L 4740.382 5578.746 L 4740.382 5576.346 L 4741.582 5576.346 L 4741.582 5572.746 L 4740.382 5572.746 L 4739.182 5573.946 L 4739.182 5572.746 L 4736.782 5572.746 L 4736.782 5570.346 L 4733.182 5566.746 L 4731.982 5566.746 L 4731.982 5565.546 L 4729.582 5564.346 L 4725.983 5563.146 L 4724.783 5564.346 L 4722.383 5564.346 L 4715.183 5569.146 L 4713.983 5573.946 L 4713.983 5576.346 L 4711.583 5576.346 L 4710.383 5577.546 L 4707.983 5581.145 L 4706.783 5582.345 L 4705.583 5584.745 L 4704.383 5584.745 L 4701.983 5582.345 L 4700.783 5581.145 L 4699.583 5579.946 L 4699.583 5577.546 L 4698.383 5576.346 L 4698.383 5575.146 L 4695.983 5575.146 L 4695.983 5572.746 L 4694.783 5571.546 L 4694.783 5570.346 L 4693.583 5570.346 L 4693.583 5565.546 L 4694.783 5565.546 L 4694.783 5564.346 L 4697.183 5563.146 L 4698.383 5560.746 L 4698.383 5558.346 L 4699.583 5557.146 L 4698.383 5555.946 L 4699.583 5554.746 L 4698.383 5553.546 L 4698.383 5547.546 L 4699.583 5547.546 L 4699.583 5548.746 L 4700.783 5546.346 L 4699.583 5546.346 L 4700.783 5545.146 L 4701.983 5543.947 L 4701.983 5541.547 L 4698.383 5541.547 L 4699.583 5540.347 L 4698.383 5537.947 L 4699.583 5535.547 L 4700.783 5534.347 L 4700.783 5530.747 L 4704.383 5528.347 L 4705.583 5527.147 L 4707.983 5525.947 L 4707.983 5523.547 L 4709.183 5523.547 L 4709.183 5521.147 L 4710.383 5519.947 L 4710.383 5518.747 L 4709.183 5517.547 L 4709.183 5518.747 L 4705.583 5518.747 L 4705.583 5517.547 L 4704.383 5516.347 L 4703.183 5516.347 L 4703.183 5515.147 L 4701.983 5515.147 L 4701.983 5513.947 L 4699.583 5513.947 L 4698.383 5511.547 L 4698.383 5510.347 L 4697.183 5509.147 L 4695.983 5506.748 L 4694.783 5507.948 L 4693.583 5506.748 L 4692.383 5505.548 L 4691.184 5506.748 L 4689.984 5505.548 L 4687.584 5507.948 L 4685.184 5507.948 L 4685.184 5509.147 L 4682.784 5510.347 L 4681.584 5512.747 L 4679.184 5511.547 L 4680.384 5511.547 L 4679.184 5510.347 L 4680.384 5509.147 L 4679.184 5509.147 L 4680.384 5507.948 L 4679.184 5506.748 L 4676.784 5505.548 L 4676.784 5510.347 L 4675.584 5509.147 L 4674.384 5507.948 L 4669.584 5509.147 L 4667.184 5510.347 L 4665.984 5510.347 L 4665.984 5507.948 L 4664.784 5507.948 L 4663.584 5510.347 L 4661.184 5511.547 L 4659.984 5507.948 L 4657.584 5506.748 L 4655.185 5506.748 L 4653.985 5504.348 L 4652.785 5503.148 L 4650.385 5505.548 L 4647.985 5503.148 L 4646.785 5504.348 L 4649.185 5506.748 L 4647.985 5506.748 L 4645.585 5505.548 L 4639.585 5506.748 L 4638.385 5506.748 L 4638.385 5507.948 L 4637.185 5507.948 L 4635.985 5506.748 L 4632.385 5506.748 L 4629.985 5509.147 L 4628.785 5506.748 L 4626.385 5506.748 L 4626.385 5505.548 L 4623.985 5505.548 L 4623.985 5503.148 L 4622.785 5503.148 L 4620.385 5504.348 L 4621.585 5500.748 L 4622.785 5500.748 L 4622.785 5499.548 L 4621.585 5499.548 L 4619.186 5500.748 L 4616.786 5499.548 L 4615.586 5499.548 L 4614.386 5500.748 L 4615.586 5501.948 L 4616.786 5500.748 L 4615.586 5501.948 L 4615.586 5504.348 L 4614.386 5505.548 L 4613.186 5507.948 L 4611.986 5507.948 L 4610.786 5509.147 L 4609.586 5509.147 L 4608.386 5506.748 L 4607.186 5506.748 L 4607.186 5507.948 L 4604.786 5507.948 L 4604.786 5506.748 L 4603.586 5506.748 L 4602.386 5509.147 L 4599.986 5507.948 L 4598.786 5506.748 L 4589.186 5506.748 L 4587.986 5507.948 L 4587.986 5509.147 L 4585.586 5509.147 L 4585.586 5511.547 L 4579.587 5511.547 L 4577.187 5510.347 L 4573.587 5510.347 L 4569.987 5506.748 L 4568.787 5506.748 L 4568.787 5505.548 L 4567.587 5505.548 L 4568.787 5503.148 L 4568.787 5501.948 L 4567.587 5501.948 L 4567.587 5500.748 L 4566.387 5500.748 L 4567.587 5497.148 L 4566.387 5495.948 L 4566.387 5494.748 L 4567.587 5493.548 L 4568.787 5492.348 L 4566.387 5491.148 L 4567.587 5491.148 L 4567.587 5489.948 L 4566.387 5487.548 L 4566.387 5485.148 L 4567.587 5485.148 L 4568.787 5483.948 L 4569.987 5485.148 L 4571.187 5482.748 L 4572.387 5481.548 L 4571.187 5480.348 L 4571.187 5477.948 L 4569.987 5475.548 L 4571.187 5475.548 L 4574.787 5474.348 L 4574.787 5471.949 L 4575.987 5470.749 L 4577.187 5469.549 L 4578.387 5469.549 L 4578.387 5467.149 L 4577.187 5467.149 L 4578.387 5464.749 L 4577.187 5463.549 L 4579.587 5461.149 L 4580.787 5458.749 L 4580.787 5457.549 L 4579.587 5457.549 L 4578.387 5459.949 L 4577.187 5458.749 L 4577.187 5457.549 L 4579.587 5453.949 L 4581.987 5450.349 L 4583.187 5450.349 L 4586.786 5446.749 L 4585.586 5445.549 L 4583.187 5445.549 L 4581.987 5444.349 L 4578.387 5444.349 L 4578.387 5441.949 L 4577.187 5441.949 L 4574.787 5439.549 L 4573.587 5439.549 L 4572.387 5440.749 L 4571.187 5439.549 L 4571.187 5437.149 L 4569.987 5435.95 L 4568.787 5434.75 L 4569.987 5432.35 L 4568.787 5431.15 L 4567.587 5431.15 L 4568.787 5429.95 L 4567.587 5428.75 L 4565.187 5428.75 L 4565.187 5427.55 L 4560.387 5423.95 L 4559.187 5422.75 L 4561.587 5421.55 L 4561.587 5413.15 L 4563.987 5411.95 L 4562.787 5410.75 L 4562.787 5409.55 L 4561.587 5409.55 L 4557.987 5407.15 L 4557.987 5405.95 L 4556.787 5404.75 L 4555.587 5405.95 L 4554.387 5404.75 L 4553.187 5405.95 L 4553.187 5404.75 L 4549.587 5403.55 L 4550.787 5402.35 L 4549.587 5402.35 L 4550.787 5401.15 L 4547.188 5399.95 L 4545.988 5399.95 L 4545.988 5398.751 L 4544.788 5397.551 L 4545.988 5396.351 L 4544.788 5396.351 L 4544.788 5395.151 L 4542.388 5393.951 L 4541.188 5392.751 L 4539.988 5391.551 L 4539.988 5389.151 L 4538.788 5389.151 L 4538.788 5387.951 L 4535.188 5387.951 L 4536.388 5386.751 L 4535.188 5386.751 L 4536.388 5386.751 L 4537.588 5385.551 L 4536.388 5385.551 L 4536.388 5384.351 L 4535.188 5383.151 L 4533.988 5383.151 L 4533.988 5381.951 L 4535.188 5380.751 L 4535.188 5379.551 L 4532.788 5378.351 L 4531.588 5378.351 L 4531.588 5377.151 L 4533.988 5377.151 L 4533.988 5375.951 L 4532.788 5375.951 L 4532.788 5374.751 L 4531.588 5373.551 L 4530.388 5374.751 L 4529.188 5372.351 L 4532.788 5372.351 L 4531.588 5371.151 L 4531.588 5369.951 L 4530.388 5369.951 L 4530.388 5368.751 L 4527.988 5369.951 L 4527.988 5371.151 L 4525.588 5369.951 L 4524.388 5369.951 L 4524.388 5368.751 L 4523.188 5367.551 L 4521.988 5366.351 L 4520.788 5365.151 L 4520.788 5361.552 L 4518.388 5363.951 L 4517.188 5361.552 L 4515.988 5360.352 L 4515.988 5357.952 L 4514.788 5356.752 L 4515.988 5356.752 L 4517.188 5355.552 L 4514.788 5354.352 L 4515.988 5354.352 L 4518.388 5355.552 L 4517.188 5354.352 L 4517.188 5353.152 L 4518.388 5353.152 L 4520.788 5351.952 L 4523.188 5350.752 L 4523.188 5345.952 L 4521.988 5343.552 L 4521.988 5342.352 L 4523.188 5341.152 L 4520.788 5339.952 L 4521.988 5338.752 L 4521.988 5335.152 L 4524.388 5336.352 L 4525.588 5336.352 L 4524.388 5333.952 L 4524.388 5332.752 L 4525.588 5330.352 L 4524.388 5329.152 L 4524.388 5327.952 L 4523.188 5327.952 L 4523.188 5326.753 L 4521.988 5326.753 L 4520.788 5325.553 L 4519.588 5325.553 L 4519.588 5323.153 L 4518.388 5323.153 L 4518.388 5321.953 L 4515.988 5320.753 L 4515.988 5319.553 L 4513.588 5318.353 L 4514.788 5317.153 L 4514.788 5315.953 L 4513.588 5315.953 L 4513.588 5313.553 L 4512.388 5312.353 L 4513.588 5309.953 L 4515.988 5307.553 L 4515.988 5306.353 L 4514.788 5305.153 L 4515.988 5302.753 L 4514.788 5300.353 L 4515.988 5299.153 L 4512.388 5296.753 L 4511.189 5295.553 L 4512.388 5294.353 L 4513.588 5294.353 L 4512.388 5291.953 L 4513.588 5290.754 L 4513.588 5288.354 L 4515.988 5289.554 L 4515.988 5283.554 L 4517.188 5282.354 L 4518.388 5281.154 L 4519.588 5281.154 L 4520.788 5282.354 L 4521.988 5282.354 L 4520.788 5281.154 L 4521.988 5279.954 L 4519.588 5279.954 L 4519.588 5277.554 L 4518.388 5277.554 L 4517.188 5276.354 L 4515.988 5276.354 L 4515.988 5273.954 L 4512.388 5273.954 L 4512.388 5272.754 L 4515.988 5271.554 L 4517.188 5272.754 L 4518.388 5271.554 L 4517.188 5270.354 L 4517.188 5269.154 L 4513.588 5266.754 L 4509.989 5266.754 L 4509.989 5263.154 L 4511.189 5264.354 L 4512.388 5261.954 L 4512.388 5259.554 L 4511.189 5257.154 L 4511.189 5253.555 L 4508.789 5248.755 L 4507.589 5247.555 L 4508.789 5245.155 L 4507.589 5245.155 L 4506.389 5243.955 L 4506.389 5240.355 L 4502.789 5234.355 L 4501.589 5233.155 L 4502.789 5231.955 L 4499.189 5231.955 L 4497.989 5230.755 L 4497.989 5229.555 L 4496.789 5230.755 L 4495.589 5228.355 L 4493.189 5227.155 L 4491.989 5225.955 L 4494.389 5222.355 L 4493.189 5221.155 L 4491.989 5219.955 L 4489.589 5219.955 L 4487.189 5221.155 L 4484.789 5219.955 L 4482.389 5219.955 L 4481.189 5218.756 L 4479.989 5218.756 L 4478.789 5217.556 L 4478.789 5216.356 L 4477.589 5216.356 L 4476.389 5215.156 L 4475.189 5213.956 L 4471.59 5215.156 L 4469.19 5215.156 L 4467.99 5213.956 L 4466.79 5212.756 L 4465.59 5213.956 L 4463.19 5211.556 L 4460.79 5211.556 L 4460.79 5206.756 L 4461.99 5204.356 L 4461.99 5203.156 L 4463.19 5203.156 L 4463.19 5201.956 L 4459.59 5199.556 L 4457.19 5198.356 L 4453.59 5198.356 L 4449.99 5194.756 L 4449.99 5193.556 L 4451.19 5192.356 L 4452.39 5188.756 L 4451.19 5186.356 L 4451.19 5185.156 L 4447.59 5182.757 L 4446.39 5183.956 L 4446.39 5185.156 L 4447.59 5187.556 L 4446.39 5188.756 L 4443.99 5188.756 L 4442.79 5185.156 L 4440.39 5185.156 L 4436.791 5183.956 L 4436.791 5185.156 L 4433.191 5188.756 L 4430.791 5187.556 L 4428.391 5187.556 L 4425.991 5191.156 L 4422.391 5191.156 L 4418.791 5189.956 L 4416.391 5192.356 L 4412.791 5193.556 L 4409.191 5193.556 L 4406.791 5192.356 L 4404.391 5193.556 L 4403.191 5193.556 L 4403.191 5192.356 L 4401.992 5191.156 L 4397.192 5188.756 L 4394.792 5189.956 L 4392.392 5189.956 L 4391.192 5192.356 L 4385.192 5192.356 L 4383.992 5189.956 L 4381.592 5187.556 L 4381.592 5186.356 L 4377.992 5183.956 L 4375.592 5185.156 L 4373.192 5185.156 L 4371.992 5186.356 L 4371.992 5189.956 L 4370.792 5189.956 L 4369.592 5192.356 L 4365.993 5191.156 L 4363.593 5192.356 L 4359.993 5189.956 L 4358.793 5189.956 L 4356.393 5192.356 L 4353.993 5191.156 L 4352.793 5189.956 L 4351.593 5187.556 L 4350.393 5186.356 L 4347.993 5185.156 L 4343.193 5183.956 L 4340.793 5186.356 L 4338.393 5187.556 L 4335.993 5186.356 L 4332.393 5185.156 L 4331.193 5182.757 L 4327.594 5182.757 L 4326.394 5183.956 L 4325.194 5185.156 L 4320.394 5193.556 L 4316.794 5194.756 L 4314.394 5194.756 L 4313.194 5193.556 L 4311.994 5192.356 L 4304.794 5192.356 L 4303.594 5191.156 L 4304.794 5183.956 L 4304.794 5181.557 L 4301.194 5180.357 L 4299.994 5176.757 L 4298.794 5175.557 L 4296.394 5170.757 L 4289.195 5165.957 L 4287.995 5164.757 L 4281.995 5164.757 L 4279.595 5165.957 L 4278.395 5165.957 L 4275.995 5162.357 L 4272.395 5162.357 L 4269.995 5163.557 L 4267.595 5163.557 L 4257.996 5158.757 L 4248.396 5158.757 L 4241.196 5156.357 L 4237.596 5153.957 L 4235.196 5152.757 L 4231.596 5151.557 L 4230.396 5151.557 L 4226.796 5149.157 L 4225.596 5144.358 L 4224.396 5144.358 L 4221.997 5141.958 L 4219.597 5140.758 L 4215.997 5141.958 L 4214.797 5141.958 L 4209.997 5140.758 L 4207.597 5140.758 L 4202.797 5139.558 L 4200.397 5140.758 L 4197.997 5140.758 L 4193.197 5138.358 L 4189.597 5138.358 L 4185.998 5143.158 L 4184.798 5143.158 L 4179.998 5145.558 L 4177.598 5145.558 L 4176.398 5144.358 L 4171.598 5145.558 L 4170.398 5146.758 L 4167.998 5145.558 L 4164.398 5144.358 L 4159.598 5140.758 L 4157.198 5139.558 L 4148.799 5139.558 L 4145.199 5141.958 L 4141.599 5141.958 L 4140.399 5139.558 L 4139.199 5134.758 L 4139.199 5133.558 L 4136.799 5133.558 L 4135.599 5132.358 L 4134.399 5132.358 L 4131.999 5131.158 L 4118.799 5134.758 L 4117.599 5134.758 L 4113.999 5133.558 L 4111.6 5131.158 L 4110.4 5129.958 L 4109.2 5128.758 L 4102 5122.758 L 4098.4 5122.758 L 4092.4 5119.158 L 4087.6 5117.958 L 4081.6 5117.958 L 4075.601 5114.358 L 4073.201 5113.158 L 4072.001 5113.158 L 4069.601 5114.358 L 4068.401 5115.558 L 4066.001 5119.158 L 4064.801 5122.758 L 4064.801 5123.958 L 4063.601 5128.758 L 4063.601 5129.958 L 4064.801 5137.158 L 4060.001 5138.358 L 4057.601 5139.558 L 4052.801 5141.958 L 4051.601 5141.958 L 4051.601 5135.958 L 4049.201 5132.358 L 4048.001 5131.158 L 4043.201 5132.358 L 4040.802 5133.558 L 4038.402 5135.958 L 4034.802 5134.758 L 4026.402 5134.758 L 4020.402 5132.358 L 4018.002 5131.158 L 4016.802 5131.158 L 4015.602 5129.958 L 4013.202 5129.958 L 4013.202 5131.158 L 4010.802 5131.158 L 4004.803 5134.758 L 4003.603 5134.758 L 4000.003 5132.358 L 3997.603 5131.158 L 3996.403 5131.158 L 3991.603 5126.358 L 3989.203 5122.758 L 3988.003 5122.758 L 3985.603 5123.958 L 3974.803 5131.158 L 3967.604 5133.558 L 3964.004 5133.558 L 3959.204 5131.158 L 3954.404 5129.958 L 3953.204 5128.758 L 3948.404 5128.758 L 3942.404 5131.158 L 3940.004 5129.958 L 3931.605 5123.958 L 3928.005 5122.758 L 3919.605 5123.958 L 3918.405 5125.158 L 3916.005 5126.358 L 3913.605 5127.558 L 3913.605 5128.758 L 3911.205 5129.958 L 3908.805 5132.358 L 3906.405 5134.758 L 3901.605 5135.958 L 3899.205 5139.558 L 3898.005 5135.958 L 3896.806 5132.558 Z  M 5352.665 5274.954 L 5352.665 5276.154 L 5351.465 5276.154 L 5351.465 5274.954 L 5352.665 5273.754 L 5351.465 5273.754 L 5351.465 5274.954 M 5321.466 5337.252 L 5321.466 5336.052 L 5321.466 5337.252 L 5323.866 5337.252 L 5322.666 5338.452 L 5323.866 5338.452 L 5323.866 5339.652 L 5322.666 5340.852 L 5322.666 5339.652 L 5321.466 5338.452 L 5321.466 5337.252 Z  M 5145.471 5352.852 L 5145.471 5351.652 L 5145.471 5352.852 Z  M 5287.967 5298.953 L 5289.167 5298.953 L 5287.967 5298.953 Z  M 5319.066 5296.553 L 5317.866 5296.553 L 5319.066 5295.353 L 5319.066 5296.553 L 5317.866 5296.553 L 5319.066 5296.553 Z  M 5343.065 5266.554 L 5343.065 5265.354 L 5343.065 5266.554 Z  M 5271.267 5308.453 L 5271.267 5307.253 L 5271.267 5308.453 Z  M 5273.567 5369.551 L 5273.567 5368.351 L 5273.567 5369.551 Z  M 5341.866 5278.554 L 5343.065 5278.554 L 5343.065 5279.754 L 5341.866 5279.754 L 5341.866 5278.554 Z  M 5268.768 5369.551 L 5268.768 5368.351 L 5268.768 5369.551 Z  M 5277.167 5357.652 L 5275.967 5357.652 L 5275.967 5358.852 L 5274.767 5358.852 L 5274.767 5360.052 L 5278.367 5361.252 L 5277.167 5362.452 L 5278.367 5363.652 L 5279.567 5363.652 L 5281.967 5366.051 L 5283.167 5363.652 L 5284.367 5364.851 L 5285.567 5364.851 L 5286.767 5366.051 L 5285.567 5367.251 L 5284.367 5366.051 L 5284.367 5373.151 L 5285.567 5373.151 L 5284.367 5374.351 L 5284.367 5375.551 L 5281.967 5377.951 L 5278.367 5376.751 L 5275.967 5373.151 L 5277.167 5370.751 L 5274.767 5367.151 L 5272.367 5368.351 L 5272.367 5367.151 L 5271.167 5368.351 L 5269.967 5368.351 L 5268.768 5367.151 L 5267.568 5368.351 L 5266.368 5368.351 L 5266.368 5369.551 L 5263.968 5368.351 L 5262.768 5370.751 L 5255.668 5371.951 L 5254.468 5371.951 L 5250.868 5373.151 L 5247.268 5371.951 L 5244.868 5368.351 L 5244.868 5362.352 L 5246.068 5362.352 L 5248.468 5359.952 L 5249.668 5359.952 L 5249.668 5358.752 L 5252.068 5357.552 L 5253.268 5357.552 L 5252.068 5356.352 L 5253.268 5356.352 L 5259.268 5350.352 L 5261.668 5349.152 L 5261.668 5344.352 L 5262.868 5344.352 L 5262.868 5343.152 L 5264.068 5341.952 L 5264.068 5339.552 L 5265.268 5335.952 L 5265.268 5333.552 L 5267.668 5332.352 L 5270.067 5333.552 L 5271.267 5334.752 L 5274.867 5334.752 L 5274.867 5335.952 L 5277.267 5335.952 L 5278.467 5337.152 L 5279.667 5337.152 L 5280.867 5338.352 L 5280.867 5339.552 L 5282.067 5340.752 L 5283.267 5340.752 L 5284.467 5343.152 L 5285.667 5343.152 L 5284.467 5344.352 L 5284.467 5346.752 L 5283.267 5349.152 L 5284.467 5349.152 L 5284.467 5350.352 L 5282.067 5351.552 L 5283.267 5352.752 L 5284.467 5352.752 L 5283.267 5353.952 L 5285.667 5353.952 L 5284.467 5355.152 L 5280.867 5353.952 L 5278.467 5353.952 L 5276.067 5356.352 L 5277.267 5356.352 L 5277.267 5357.652 L 5277.167 5357.652 Z  M 5320.266 5301.353 L 5321.466 5301.353 L 5320.266 5301.353 Z  M 5285.567 5350.452 L 5285.567 5349.252 L 5286.767 5350.452 L 5285.567 5350.452 Z  M 4976.676 5450.949 L 4977.876 5450.949 L 4976.676 5450.949 Z  M 5343.065 5270.154 L 5344.265 5270.154 L 5343.065 5270.154 L 5343.065 5271.354 L 5341.866 5270.154 L 5343.065 5270.154 Z  M 5335.866 5272.554 L 5334.666 5272.554 L 5334.666 5271.354 L 5335.866 5271.354 L 5335.866 5272.554 Z  M 5199.369 5345.652 L 5200.569 5345.652 L 5199.369 5345.652 Z  M 5232.869 5357.652 L 5232.869 5356.452 L 5234.068 5356.452 L 5234.068 5355.252 L 5234.068 5357.652 L 5232.869 5357.652 Z  M 4988.675 5452.149 L 4989.875 5452.149 L 4989.875 5453.349 L 4988.675 5453.349 L 4988.675 5452.149 Z  M 4989.875 5455.749 L 4989.875 5454.549 L 4991.075 5454.549 L 4991.075 5455.749 L 4989.875 5455.749 Z  M 5350.265 5278.554 L 5350.265 5279.754 L 5350.265 5278.554 L 5351.465 5278.554 L 5351.465 5277.354 L 5351.465 5279.754 L 5350.265 5278.554 Z  M 5198.169 5347.952 L 5198.169 5346.752 L 5199.369 5346.752 L 5199.369 5347.952 L 5198.169 5347.952 Z  M 5273.567 5310.853 L 5274.767 5309.653 L 5275.967 5309.653 L 5275.967 5310.853 L 5273.567 5310.853 Z  M 5187.37 5358.752 L 5187.37 5357.552 L 5189.77 5357.552 L 5188.57 5358.752 L 5188.57 5359.952 L 5187.37 5359.952 L 5187.37 5358.752 Z  M 5297.567 5304.953 L 5298.767 5303.753 L 5299.967 5304.953 L 5299.967 5306.153 L 5298.767 5304.953 L 5297.567 5306.153 L 5297.567 5304.953 Z  M 5297.567 5347.952 L 5299.967 5346.752 L 5301.167 5345.552 L 5301.167 5346.752 L 5305.966 5349.152 L 5304.767 5350.352 L 5302.367 5349.152 L 5299.967 5351.552 L 5298.767 5349.152 L 5297.567 5347.952 Z  M 5315.466 5298.953 L 5315.466 5297.753 L 5319.066 5298.953 L 5319.066 5300.153 L 5315.466 5301.353 L 5311.866 5304.953 L 5311.866 5301.353 L 5310.666 5300.153 L 5311.866 5298.953 L 5311.866 5297.753 L 5311.866 5298.953 L 5313.066 5300.153 L 5314.266 5300.153 L 5315.466 5298.953 Z " fill="#F3AA47" vector-effect="non-scaling-stroke" stroke-width="1" stroke-linejoin="miter" stroke-linecap="butt" stroke-miterlimit="4"/></svg>