<?xml version="1.0" standalone="no"?><!-- Generator: Gravit.io --><svg xmlns="http://www.w3.org/2000/svg" xmlns:xlink="http://www.w3.org/1999/xlink" style="isolation:isolate" viewBox="6515.333 2747.524 330.391 378.39" width="330.391" height="378.39"><path d=" M 6518.533 2982.317 L 6519.733 2982.317 L 6520.933 2979.917 L 6522.133 2976.318 L 6522.133 2969.118 L 6523.333 2966.718 L 6524.533 2966.718 L 6528.133 2965.518 L 6529.333 2967.918 L 6532.933 2967.918 L 6535.332 2969.118 L 6537.732 2969.118 L 6538.932 2966.718 L 6541.332 2967.918 L 6543.732 2965.518 L 6544.932 2966.718 L 6546.132 2967.918 L 6549.732 2966.718 L 6550.932 2966.718 L 6552.132 2969.118 L 6553.332 2969.118 L 6555.732 2971.518 L 6555.732 2977.518 L 6560.532 2977.518 L 6565.332 2975.118 L 6571.331 2972.718 L 6592.931 2964.318 L 6590.531 2943.918 L 6590.531 2942.719 L 6589.331 2941.519 L 6589.331 2940.319 L 6588.131 2939.119 L 6588.131 2937.919 L 6590.531 2937.919 L 6590.531 2936.719 L 6591.731 2935.519 L 6591.731 2936.719 L 6591.731 2934.319 L 6592.931 2931.919 L 6592.931 2929.519 L 6591.731 2925.919 L 6585.731 2915.119 L 6586.931 2913.919 L 6585.731 2911.519 L 6589.331 2910.319 L 6588.131 2910.319 L 6588.131 2909.119 L 6589.331 2907.919 L 6589.331 2906.72 L 6591.731 2906.72 L 6591.731 2905.52 L 6592.931 2904.32 L 6594.131 2904.32 L 6597.731 2901.92 L 6598.931 2900.72 L 6602.531 2900.72 L 6607.33 2898.32 L 6606.131 2897.12 L 6606.131 2895.92 L 6601.331 2873.12 L 6598.931 2871.92 L 6598.931 2870.721 L 6600.131 2864.721 L 6600.131 2862.321 L 6596.531 2857.521 L 6591.731 2847.921 L 6591.731 2840.721 L 6590.531 2838.321 L 6582.131 2833.522 L 6580.931 2834.722 L 6577.331 2833.522 L 6573.731 2833.522 L 6573.731 2831.122 L 6571.331 2831.122 L 6568.932 2832.322 L 6567.732 2832.322 L 6566.532 2831.122 L 6562.932 2823.922 L 6560.532 2822.722 L 6560.532 2821.522 L 6562.932 2817.922 L 6562.932 2814.322 L 6565.332 2811.922 L 6565.332 2810.722 L 6564.132 2809.522 L 6565.332 2807.122 L 6566.532 2804.722 L 6565.332 2803.522 L 6564.132 2803.522 L 6560.532 2802.322 L 6556.932 2798.723 L 6556.932 2797.523 L 6555.732 2797.523 L 6553.332 2792.723 L 6553.332 2780.723 L 6555.732 2779.523 L 6556.932 2777.123 L 6559.332 2774.723 L 6561.732 2774.723 L 6562.932 2773.523 L 6561.732 2772.323 L 6559.332 2771.123 L 6558.132 2769.923 L 6556.932 2768.723 L 6554.532 2767.523 L 6553.332 2765.123 L 6553.332 2760.324 L 6554.532 2759.124 L 6555.732 2760.324 L 6555.732 2759.124 L 6556.932 2757.924 L 6556.932 2756.724 L 6555.732 2755.524 L 6556.932 2754.324 L 6558.132 2753.124 L 6558.132 2751.924 L 6559.332 2749.524 L 6561.732 2751.924 L 6567.732 2753.124 L 6574.931 2755.524 L 6578.531 2754.324 L 6579.731 2754.324 L 6580.931 2755.524 L 6588.131 2761.524 L 6589.331 2761.524 L 6589.331 2763.923 L 6592.931 2763.923 L 6594.131 2766.323 L 6596.531 2768.723 L 6597.731 2772.323 L 6598.931 2772.323 L 6603.731 2769.923 L 6604.931 2769.923 L 6610.93 2771.123 L 6615.73 2773.523 L 6618.13 2774.723 L 6619.33 2777.123 L 6620.53 2779.523 L 6620.53 2780.723 L 6633.73 2789.123 L 6636.13 2790.323 L 6639.73 2790.323 L 6654.129 2792.723 L 6661.329 2793.923 L 6662.529 2795.123 L 6667.329 2797.523 L 6670.929 2798.723 L 6673.329 2798.723 L 6674.529 2799.922 L 6675.729 2801.122 L 6680.528 2804.722 L 6684.128 2805.922 L 6686.528 2807.122 L 6690.128 2810.722 L 6692.528 2814.322 L 6693.728 2816.722 L 6693.728 2817.922 L 6694.928 2819.122 L 6702.128 2819.122 L 6710.528 2820.322 L 6714.128 2822.722 L 6723.727 2831.122 L 6728.527 2835.921 L 6732.127 2835.921 L 6735.727 2833.522 L 6738.127 2833.522 L 6742.927 2835.921 L 6742.927 2837.121 L 6744.127 2839.521 L 6744.127 2847.921 L 6745.327 2849.121 L 6745.327 2851.521 L 6746.527 2855.121 L 6748.927 2857.521 L 6751.326 2861.121 L 6752.526 2863.521 L 6758.526 2864.721 L 6760.926 2867.121 L 6763.326 2867.121 L 6764.526 2869.521 L 6764.526 2873.12 L 6765.726 2874.32 L 6769.326 2876.72 L 6770.526 2877.92 L 6776.526 2879.12 L 6777.726 2879.12 L 6781.326 2880.32 L 6781.326 2881.52 L 6780.126 2882.72 L 6781.326 2882.72 L 6783.726 2883.92 L 6786.126 2886.32 L 6787.325 2886.32 L 6789.725 2887.52 L 6793.325 2887.52 L 6794.525 2886.32 L 6798.125 2886.32 L 6800.525 2883.92 L 6802.925 2883.92 L 6804.125 2885.12 L 6805.325 2886.32 L 6805.325 2887.52 L 6808.925 2889.92 L 6810.125 2892.32 L 6812.525 2895.92 L 6813.725 2898.32 L 6813.725 2904.32 L 6814.925 2909.119 L 6813.725 2913.919 L 6817.325 2916.319 L 6818.525 2915.119 L 6823.324 2915.119 L 6822.125 2915.119 L 6822.125 2916.319 L 6823.324 2916.319 L 6826.924 2915.119 L 6828.124 2915.119 L 6828.124 2913.919 L 6831.724 2911.519 L 6832.924 2912.719 L 6836.524 2915.119 L 6837.724 2915.119 L 6838.924 2918.719 L 6842.524 2925.919 L 6843.724 2928.319 L 6843.724 2933.119 L 6842.524 2931.919 L 6836.524 2933.119 L 6825.724 2935.519 L 6811.325 2941.519 L 6804.125 2945.118 L 6798.125 2949.918 L 6793.325 2953.518 L 6784.926 2957.118 L 6770.526 2966.718 L 6764.526 2972.718 L 6763.326 2973.918 L 6747.727 2989.517 L 6742.927 2995.517 L 6738.127 3002.717 L 6732.127 3011.117 L 6732.127 3013.517 L 6727.327 3019.516 L 6714.128 3038.716 L 6709.328 3048.316 L 6710.528 3049.516 L 6700.928 3060.315 L 6691.328 3072.315 L 6685.328 3083.115 L 6680.528 3097.514 L 6679.328 3098.714 L 6679.328 3101.114 L 6673.329 3101.114 L 6672.129 3103.514 L 6670.929 3103.514 L 6667.329 3107.114 L 6663.729 3110.714 L 6658.929 3114.314 L 6656.529 3115.514 L 6648.129 3115.514 L 6645.729 3117.914 L 6645.729 3120.314 L 6638.53 3120.314 L 6637.33 3119.114 L 6634.93 3119.114 L 6636.13 3120.314 L 6634.93 3120.314 L 6633.73 3119.114 L 6634.93 3116.714 L 6632.53 3116.714 L 6630.13 3117.914 L 6627.73 3117.914 L 6626.53 3116.714 L 6625.33 3114.314 L 6624.13 3114.314 L 6622.93 3115.514 L 6621.73 3114.314 L 6621.73 3116.714 L 6619.33 3116.714 L 6620.53 3119.114 L 6618.13 3121.514 L 6618.13 3123.914 L 6615.73 3122.714 L 6613.33 3122.714 L 6614.53 3119.114 L 6613.33 3119.114 L 6610.93 3120.314 L 6608.53 3120.314 L 6608.53 3117.914 L 6604.931 3117.914 L 6602.531 3115.514 L 6601.331 3116.714 L 6600.131 3115.514 L 6597.731 3115.514 L 6596.531 3114.314 L 6595.331 3115.514 L 6592.931 3114.314 L 6592.931 3111.914 L 6594.131 3110.714 L 6592.931 3109.514 L 6591.731 3109.514 L 6589.331 3108.314 L 6588.131 3108.314 L 6586.931 3105.914 L 6585.731 3105.914 L 6584.531 3104.714 L 6584.531 3102.314 L 6586.931 3102.314 L 6586.931 3099.914 L 6583.331 3101.114 L 6583.331 3099.914 L 6580.931 3098.714 L 6584.531 3098.714 L 6582.131 3097.514 L 6580.931 3097.514 L 6579.731 3099.914 L 6579.731 3098.714 L 6578.531 3099.914 L 6577.331 3098.714 L 6577.331 3095.114 L 6576.131 3095.114 L 6574.931 3093.914 L 6572.531 3093.914 L 6572.531 3095.114 L 6571.331 3095.114 L 6571.331 3097.514 L 6570.131 3097.514 L 6570.131 3096.314 L 6568.932 3095.114 L 6567.732 3093.914 L 6568.932 3093.914 L 6568.932 3092.714 L 6567.732 3092.714 L 6566.532 3093.914 L 6566.532 3091.514 L 6564.132 3091.514 L 6564.132 3090.314 L 6565.332 3089.114 L 6565.332 3087.915 L 6564.132 3086.715 L 6562.932 3083.115 L 6562.932 3081.915 L 6561.732 3083.115 L 6560.532 3081.915 L 6560.532 3080.715 L 6562.932 3080.715 L 6560.532 3079.515 L 6560.532 3078.315 L 6561.732 3078.315 L 6559.332 3074.715 L 6559.332 3072.315 L 6561.732 3071.115 L 6561.732 3069.915 L 6562.932 3068.715 L 6561.732 3067.515 L 6562.932 3066.315 L 6562.932 3065.115 L 6561.732 3065.115 L 6561.732 3063.915 L 6562.932 3063.915 L 6561.732 3061.515 L 6562.932 3061.515 L 6564.132 3060.315 L 6564.132 3056.715 L 6565.332 3055.515 L 6562.932 3055.515 L 6560.532 3054.315 L 6559.332 3055.515 L 6555.732 3051.916 L 6554.532 3053.115 L 6552.132 3051.916 L 6549.732 3049.516 L 6547.332 3048.316 L 6548.532 3047.116 L 6547.332 3045.916 L 6548.532 3043.516 L 6548.532 3042.316 L 6547.332 3042.316 L 6544.932 3041.116 L 6543.732 3038.716 L 6543.732 3037.516 L 6544.932 3037.516 L 6546.132 3033.916 L 6546.132 3031.516 L 6544.932 3031.516 L 6544.932 3030.316 L 6543.732 3030.316 L 6543.732 3029.116 L 6542.532 3029.116 L 6541.332 3027.916 L 6541.332 3026.716 L 6542.532 3026.716 L 6541.332 3024.316 L 6541.332 3023.116 L 6540.132 3021.916 L 6537.732 3020.716 L 6537.732 3023.116 L 6536.532 3023.116 L 6535.332 3021.916 L 6534.132 3019.516 L 6529.333 3017.116 L 6528.133 3014.717 L 6526.933 3013.517 L 6528.133 3011.117 L 6528.133 3009.917 L 6524.533 3008.717 L 6524.533 3006.317 L 6523.333 3006.317 L 6522.133 3007.517 L 6522.133 3006.317 L 6519.733 3005.117 L 6519.733 3001.517 L 6517.333 2997.917 L 6517.333 2995.517 L 6518.533 2993.117 L 6519.733 2991.917 L 6518.533 2988.317 L 6517.333 2988.317 L 6518.533 2985.917 L 6517.333 2983.517 L 6518.533 2982.317 Z " fill="#F3AA47" vector-effect="non-scaling-stroke" stroke-width="1" stroke-linejoin="miter" stroke-linecap="butt" stroke-miterlimit="4"/></svg>