<?xml version="1.0" standalone="no"?><!-- Generator: Gravit.io --><svg xmlns="http://www.w3.org/2000/svg" xmlns:xlink="http://www.w3.org/1999/xlink" style="isolation:isolate" viewBox="4311.494 1955.346 895.575 1515.858" width="895.575" height="1515.858"><path d=" M 4313.494 3099.614 L 4315.894 3094.814 L 4315.894 3090.014 L 4318.294 3085.215 L 4319.494 3081.615 L 4319.494 3079.215 L 4320.694 3076.815 L 4321.894 3075.615 L 4324.294 3073.215 L 4326.694 3072.015 L 4327.894 3064.815 L 4329.094 3060.015 L 4327.894 3056.415 L 4327.894 3054.015 L 4326.694 3049.216 L 4327.894 3045.616 L 4327.894 3043.216 L 4330.294 3042.016 L 4331.493 3038.416 L 4335.093 3036.016 L 4335.093 3034.816 L 4336.293 3032.416 L 4336.293 3027.616 L 4335.093 3025.216 L 4335.093 3020.416 L 4333.893 3016.816 L 4335.093 3014.417 L 4332.693 3008.417 L 4335.093 3004.817 L 4338.693 3001.217 L 4338.693 2998.817 L 4337.493 2996.417 L 4335.093 2995.217 L 4335.093 2989.217 L 4336.293 2986.817 L 4336.293 2985.617 L 4337.493 2984.417 L 4339.893 2984.417 L 4339.893 2980.817 L 4343.493 2974.818 L 4342.293 2971.218 L 4342.293 2968.818 L 4341.093 2966.418 L 4341.093 2962.818 L 4337.493 2960.418 L 4337.493 2958.018 L 4341.093 2954.418 L 4343.493 2950.818 L 4344.693 2948.418 L 4348.293 2948.418 L 4349.493 2947.218 L 4350.693 2943.619 L 4353.093 2940.019 L 4351.893 2936.419 L 4353.093 2932.819 L 4353.093 2929.219 L 4356.693 2928.019 L 4357.893 2928.019 L 4359.093 2926.819 L 4357.893 2923.219 L 4360.293 2911.219 L 4365.093 2908.819 L 4366.293 2906.42 L 4369.892 2904.02 L 4371.092 2902.82 L 4369.892 2899.22 L 4369.892 2898.02 L 4373.492 2889.62 L 4374.692 2883.62 L 4377.092 2877.62 L 4375.892 2869.221 L 4374.692 2869.221 L 4374.692 2868.021 L 4375.892 2862.021 L 4378.292 2857.221 L 4380.692 2854.821 L 4381.892 2851.221 L 4384.292 2848.821 L 4389.092 2846.421 L 4391.492 2844.021 L 4392.692 2840.421 L 4392.692 2835.621 L 4395.092 2832.022 L 4395.092 2829.622 L 4397.492 2826.022 L 4397.492 2821.222 L 4401.092 2814.022 L 4404.691 2810.422 L 4404.691 2808.022 L 4405.891 2806.822 L 4407.091 2803.222 L 4408.291 2799.622 L 4409.491 2793.623 L 4416.691 2785.223 L 4416.691 2782.823 L 4417.891 2781.623 L 4417.891 2778.023 L 4420.291 2774.423 L 4420.291 2769.623 L 4422.691 2768.423 L 4423.891 2766.023 L 4425.091 2763.623 L 4425.091 2760.024 L 4426.291 2757.624 L 4428.691 2755.224 L 4427.491 2751.624 L 4425.091 2748.024 L 4425.091 2746.824 L 4426.291 2746.824 L 4426.291 2742.024 L 4428.691 2733.624 L 4433.491 2728.824 L 4434.691 2724.025 L 4434.691 2716.825 L 4435.891 2712.025 L 4435.891 2710.825 L 4438.291 2708.425 L 4440.69 2706.025 L 4444.29 2704.825 L 4445.49 2697.625 L 4450.29 2697.625 L 4455.09 2691.625 L 4461.09 2686.826 L 4461.09 2683.226 L 4462.29 2682.026 L 4467.09 2674.826 L 4469.49 2670.026 L 4470.69 2666.426 L 4470.69 2664.026 L 4471.89 2660.426 L 4481.489 2652.027 L 4482.689 2648.427 L 4485.089 2643.627 L 4487.489 2641.227 L 4489.889 2637.627 L 4492.289 2636.427 L 4500.689 2629.227 L 4507.889 2626.827 L 4512.688 2626.827 L 4516.288 2625.627 L 4517.488 2623.227 L 4521.088 2618.428 L 4525.888 2611.228 L 4534.288 2599.228 L 4536.688 2595.628 L 4537.888 2590.828 L 4540.288 2588.428 L 4541.488 2584.828 L 4548.687 2578.829 L 4551.087 2575.229 L 4551.087 2572.829 L 4552.287 2562.029 L 4553.487 2559.629 L 4554.687 2556.029 L 4559.487 2548.829 L 4560.687 2548.829 L 4565.487 2546.43 L 4569.087 2544.03 L 4571.487 2541.63 L 4573.887 2535.63 L 4575.087 2532.03 L 4576.287 2522.43 L 4579.887 2515.23 L 4582.287 2510.43 L 4583.487 2508.031 L 4584.686 2504.431 L 4585.886 2498.431 L 4584.686 2494.831 L 4585.886 2492.431 L 4585.886 2488.831 L 4587.086 2487.631 L 4587.086 2486.431 L 4589.486 2485.231 L 4590.686 2482.831 L 4590.686 2474.431 L 4589.486 2468.432 L 4591.886 2464.832 L 4591.886 2460.032 L 4593.086 2455.232 L 4591.886 2446.832 L 4591.886 2442.032 L 4593.086 2440.832 L 4594.286 2438.432 L 4594.286 2437.233 L 4593.086 2434.833 L 4590.686 2433.633 L 4585.886 2432.433 L 4582.287 2430.033 L 4578.687 2425.233 L 4575.087 2422.833 L 4569.087 2418.033 L 4564.287 2415.633 L 4561.887 2413.233 L 4560.687 2410.833 L 4557.087 2402.433 L 4557.087 2401.234 L 4553.487 2394.034 L 4553.487 2390.434 L 4554.687 2380.834 L 4557.087 2379.634 L 4559.487 2374.834 L 4564.287 2368.834 L 4571.487 2361.635 L 4573.887 2359.235 L 4573.887 2358.035 L 4576.287 2354.435 L 4579.887 2349.635 L 4583.487 2344.835 L 4584.686 2340.035 L 4588.286 2334.035 L 4589.486 2330.435 L 4588.286 2325.636 L 4587.086 2314.836 L 4587.086 2295.736 L 4584.686 2287.337 L 4583.487 2286.137 L 4583.487 2280.137 L 4584.686 2277.737 L 4588.286 2274.137 L 4589.486 2271.737 L 4590.686 2271.737 L 4594.286 2270.537 L 4601.486 2266.937 L 4606.286 2262.137 L 4613.486 2257.338 L 4615.886 2254.938 L 4618.286 2251.338 L 4626.685 2251.338 L 4631.485 2248.938 L 4633.885 2247.738 L 4636.285 2246.538 L 4643.485 2245.338 L 4654.285 2245.338 L 4660.284 2242.938 L 4661.484 2242.938 L 4663.884 2240.538 L 4667.484 2234.538 L 4677.084 2232.138 L 4680.684 2229.738 L 4681.884 2227.338 L 4683.084 2224.938 L 4683.084 2220.139 L 4680.684 2212.939 L 4680.684 2210.539 L 4681.884 2206.939 L 4684.284 2204.539 L 4684.284 2200.939 L 4686.684 2197.339 L 4687.884 2196.139 L 4690.284 2191.339 L 4698.683 2184.14 L 4701.083 2182.94 L 4704.683 2179.34 L 4705.883 2176.94 L 4708.283 2173.34 L 4709.483 2172.14 L 4719.083 2172.14 L 4722.683 2173.34 L 4727.483 2176.94 L 4729.882 2178.14 L 4731.082 2176.94 L 4732.282 2172.14 L 4731.082 2168.54 L 4729.882 2167.34 L 4727.483 2166.14 L 4725.083 2164.94 L 4723.883 2162.54 L 4723.883 2161.34 L 4725.083 2160.14 L 4723.883 2157.74 L 4722.683 2151.74 L 4721.483 2148.141 L 4721.483 2140.941 L 4723.883 2138.541 L 4726.283 2136.141 L 4728.682 2134.941 L 4733.482 2136.141 L 4739.482 2133.741 L 4744.282 2130.141 L 4746.682 2127.741 L 4747.882 2124.141 L 4747.882 2121.741 L 4744.282 2116.941 L 4739.482 2115.741 L 4738.282 2114.541 L 4738.282 2112.142 L 4739.482 2109.742 L 4741.882 2106.142 L 4744.282 2103.742 L 4746.682 2102.542 L 4753.882 2101.342 L 4757.482 2098.942 L 4757.482 2094.142 L 4755.082 2090.542 L 4755.082 2089.342 L 4750.282 2084.542 L 4747.882 2080.942 L 4746.682 2079.742 L 4746.682 2078.542 L 4745.482 2070.143 L 4745.482 2064.143 L 4746.682 2061.743 L 4747.882 2059.343 L 4750.282 2058.143 L 4758.682 2059.343 L 4762.282 2058.143 L 4763.482 2058.143 L 4764.681 2056.943 L 4767.081 2055.743 L 4769.481 2052.143 L 4773.081 2044.943 L 4774.281 2042.543 L 4774.281 2036.544 L 4767.081 2031.744 L 4764.681 2030.544 L 4763.482 2029.344 L 4761.082 2026.944 L 4757.482 2026.944 L 4751.482 2025.744 L 4749.082 2024.544 L 4746.682 2023.344 L 4745.482 2022.144 L 4741.882 2017.344 L 4740.682 2016.144 L 4740.682 2017.344 L 4740.682 2014.944 L 4738.282 2011.344 L 4737.082 2008.944 L 4737.082 2005.344 L 4734.682 2002.945 L 4733.482 2001.745 L 4732.282 1999.345 L 4729.882 1998.145 L 4728.682 1998.145 L 4727.483 2000.545 L 4723.883 1999.345 L 4720.283 2000.545 L 4719.083 2000.545 L 4717.883 2001.745 L 4715.483 2001.745 L 4714.283 2002.945 L 4710.683 2004.145 L 4708.283 2004.145 L 4699.883 2002.945 L 4691.484 2002.945 L 4686.684 2001.745 L 4684.284 1996.945 L 4683.084 1996.945 L 4678.284 1995.745 L 4671.084 1995.745 L 4671.084 1994.545 L 4668.684 1994.545 L 4666.284 1993.345 L 4665.084 1992.145 L 4665.084 1989.745 L 4667.484 1990.945 L 4668.684 1989.745 L 4672.284 1990.945 L 4673.484 1989.745 L 4674.684 1984.945 L 4675.884 1983.745 L 4678.284 1982.545 L 4683.084 1983.745 L 4685.484 1984.945 L 4686.684 1987.345 L 4690.284 1988.545 L 4691.484 1987.345 L 4695.083 1983.745 L 4697.483 1977.745 L 4697.483 1974.145 L 4698.683 1970.545 L 4698.683 1968.146 L 4702.283 1963.346 L 4705.883 1960.946 L 4711.883 1962.146 L 4715.483 1959.746 L 4733.482 1957.346 L 4735.882 1958.546 L 4741.882 1963.346 L 4746.682 1963.346 L 4750.282 1965.746 L 4755.082 1968.146 L 4757.482 1969.345 L 4758.682 1969.345 L 4761.082 1971.745 L 4764.681 1972.945 L 4767.081 1974.145 L 4779.081 1975.345 L 4783.881 1976.545 L 4789.881 1975.345 L 4795.881 1969.345 L 4799.481 1969.345 L 4805.48 1970.545 L 4810.28 1970.545 L 4818.68 1974.145 L 4819.88 1976.545 L 4821.08 1980.145 L 4821.08 1988.545 L 4825.88 1994.545 L 4828.28 1996.945 L 4834.28 1996.945 L 4839.079 1995.745 L 4843.879 1995.745 L 4853.479 2001.745 L 4857.079 2002.945 L 4865.479 2010.144 L 4872.678 2012.544 L 4875.078 2011.344 L 4876.278 2011.344 L 4887.078 2022.144 L 4889.478 2029.344 L 4889.478 2035.344 L 4890.678 2040.144 L 4890.678 2047.343 L 4888.278 2055.743 L 4887.078 2059.343 L 4889.478 2064.143 L 4891.878 2066.543 L 4896.678 2077.342 L 4897.878 2083.342 L 4899.078 2084.542 L 4899.078 2096.542 L 4895.478 2107.342 L 4897.878 2110.942 L 4899.078 2115.741 L 4899.078 2120.541 L 4897.878 2125.341 L 4899.078 2130.141 L 4901.478 2140.941 L 4903.878 2146.941 L 4906.278 2150.54 L 4907.478 2154.14 L 4907.478 2160.14 L 4902.678 2169.74 L 4902.678 2170.94 L 4901.478 2176.94 L 4900.278 2181.74 L 4899.078 2186.539 L 4897.878 2187.739 L 4901.478 2197.339 L 4900.278 2199.739 L 4899.078 2199.739 L 4894.278 2206.939 L 4894.278 2209.339 L 4893.078 2210.539 L 4893.078 2220.139 L 4890.678 2223.738 L 4887.078 2230.938 L 4888.278 2234.538 L 4887.078 2235.738 L 4887.078 2246.538 L 4883.478 2252.538 L 4881.078 2259.737 L 4881.078 2260.937 L 4882.278 2260.937 L 4882.278 2262.137 L 4884.678 2268.137 L 4885.878 2271.737 L 4884.678 2274.137 L 4881.078 2281.337 L 4881.078 2286.137 L 4879.878 2288.537 L 4878.678 2292.137 L 4878.678 2293.337 L 4877.478 2295.736 L 4872.678 2300.536 L 4870.279 2301.736 L 4865.479 2307.736 L 4864.279 2312.536 L 4860.679 2317.336 L 4858.279 2318.536 L 4855.879 2317.336 L 4852.279 2316.136 L 4849.879 2316.136 L 4848.679 2317.336 L 4842.679 2320.936 L 4842.679 2328.136 L 4845.079 2330.535 L 4852.279 2334.135 L 4855.879 2337.735 L 4859.479 2346.135 L 4864.279 2346.135 L 4867.879 2340.135 L 4870.279 2338.935 L 4878.678 2338.935 L 4879.878 2340.135 L 4887.078 2344.935 L 4889.478 2349.735 L 4890.678 2352.135 L 4889.478 2358.135 L 4884.678 2360.535 L 4884.678 2361.735 L 4875.078 2365.335 L 4872.678 2366.534 L 4870.279 2371.334 L 4875.078 2372.534 L 4877.478 2371.334 L 4881.078 2370.134 L 4885.878 2370.134 L 4885.878 2372.534 L 4887.078 2378.534 L 4889.478 2380.934 L 4889.478 2386.934 L 4890.678 2388.134 L 4891.878 2388.134 L 4893.078 2385.734 L 4897.878 2385.734 L 4899.078 2386.934 L 4900.278 2388.134 L 4900.278 2389.334 L 4899.078 2390.534 L 4897.878 2391.734 L 4897.878 2392.934 L 4900.278 2392.934 L 4902.678 2394.134 L 4903.878 2394.134 L 4905.078 2395.334 L 4903.878 2397.734 L 4907.478 2400.134 L 4907.478 2403.733 L 4906.278 2406.133 L 4906.278 2407.333 L 4907.478 2409.733 L 4909.877 2410.933 L 4912.277 2408.533 L 4912.277 2407.333 L 4909.877 2407.333 L 4908.677 2404.933 L 4908.677 2403.733 L 4912.277 2403.733 L 4913.477 2406.133 L 4915.877 2407.333 L 4918.277 2409.733 L 4919.477 2410.933 L 4918.277 2412.133 L 4914.677 2412.133 L 4915.877 2413.333 L 4915.877 2415.733 L 4921.877 2416.933 L 4921.877 2419.333 L 4920.677 2419.333 L 4919.477 2418.133 L 4919.477 2419.333 L 4920.677 2420.533 L 4919.477 2421.733 L 4919.477 2424.133 L 4920.677 2424.133 L 4921.877 2425.333 L 4923.077 2424.133 L 4925.477 2425.333 L 4926.677 2424.133 L 4926.677 2426.533 L 4929.077 2426.533 L 4929.077 2427.733 L 4927.877 2430.133 L 4929.077 2428.933 L 4931.477 2428.933 L 4930.277 2430.133 L 4931.477 2433.733 L 4932.677 2436.133 L 4931.477 2437.333 L 4933.877 2437.333 L 4931.477 2438.532 L 4931.477 2439.732 L 4933.877 2439.732 L 4933.877 2440.932 L 4935.077 2442.132 L 4936.277 2443.332 L 4938.677 2443.332 L 4938.677 2444.532 L 4939.877 2444.532 L 4939.877 2445.732 L 4942.277 2444.532 L 4942.277 2446.932 L 4943.477 2446.932 L 4943.477 2449.332 L 4945.876 2451.732 L 4947.076 2452.932 L 4947.076 2454.132 L 4949.476 2454.132 L 4949.476 2460.132 L 4951.876 2458.932 L 4953.076 2458.932 L 4954.276 2462.532 L 4955.476 2461.332 L 4954.276 2464.932 L 4955.476 2466.132 L 4956.676 2464.932 L 4956.676 2467.332 L 4955.476 2467.332 L 4957.876 2469.732 L 4955.476 2470.932 L 4960.276 2470.932 L 4963.876 2474.531 L 4963.876 2478.131 L 4966.276 2479.331 L 4965.076 2480.531 L 4967.476 2481.731 L 4967.476 2482.931 L 4971.076 2482.931 L 4971.076 2484.131 L 4974.676 2484.131 L 4974.676 2485.331 L 4975.876 2485.331 L 4977.076 2481.731 L 4978.276 2482.931 L 4978.276 2481.731 L 4981.875 2480.531 L 4980.676 2479.331 L 4983.075 2478.131 L 4983.075 2474.531 L 4984.275 2474.531 L 4985.475 2472.132 L 4989.075 2472.132 L 4989.075 2469.732 L 4990.275 2469.732 L 4991.475 2470.932 L 4992.675 2470.932 L 4993.875 2468.532 L 4995.075 2468.532 L 4995.075 2466.132 L 4997.475 2464.932 L 4997.475 2466.132 L 4998.675 2467.332 L 4999.875 2466.132 L 5001.075 2464.932 L 5002.275 2467.332 L 5003.475 2467.332 L 5003.475 2466.132 L 5004.675 2466.132 L 5008.275 2464.932 L 5009.475 2463.732 L 5010.675 2464.932 L 5011.875 2464.932 L 5011.875 2463.732 L 5013.075 2464.932 L 5013.075 2463.732 L 5014.275 2462.532 L 5015.475 2461.332 L 5015.475 2462.532 L 5016.675 2462.532 L 5017.874 2458.932 L 5019.074 2460.132 L 5020.274 2458.932 L 5022.674 2458.932 L 5023.874 2457.732 L 5025.074 2457.732 L 5026.274 2456.532 L 5028.674 2457.732 L 5032.274 2457.732 L 5033.474 2455.332 L 5034.674 2455.332 L 5037.074 2456.532 L 5038.274 2456.532 L 5040.674 2454.132 L 5044.274 2454.132 L 5046.674 2455.332 L 5046.674 2456.532 L 5049.074 2456.532 L 5050.274 2457.732 L 5052.674 2458.932 L 5052.674 2462.532 L 5055.073 2463.732 L 5059.873 2466.132 L 5064.673 2469.732 L 5065.873 2472.132 L 5065.873 2473.332 L 5067.073 2474.531 L 5067.073 2482.931 L 5069.473 2485.331 L 5069.473 2487.731 L 5068.273 2488.931 L 5065.873 2488.931 L 5064.673 2491.331 L 5064.673 2493.731 L 5061.073 2503.331 L 5061.073 2505.731 L 5063.473 2506.931 L 5065.873 2509.331 L 5064.673 2510.53 L 5062.273 2512.93 L 5061.073 2516.53 L 5062.273 2522.53 L 5059.873 2526.13 L 5057.473 2528.53 L 5055.073 2530.93 L 5052.674 2532.13 L 5049.074 2532.13 L 5046.674 2533.33 L 5044.274 2533.33 L 5039.474 2530.93 L 5034.674 2533.33 L 5032.274 2534.53 L 5029.874 2535.73 L 5026.274 2536.93 L 5025.074 2539.33 L 5023.874 2540.53 L 5022.674 2542.93 L 5021.474 2541.73 L 5016.675 2541.73 L 5013.075 2540.53 L 5013.075 2542.93 L 5011.875 2542.93 L 5013.075 2545.33 L 5010.675 2546.529 L 5009.475 2545.33 L 5010.675 2548.929 L 5010.675 2551.329 L 5009.475 2553.729 L 5010.675 2554.929 L 5007.075 2558.529 L 5005.875 2559.729 L 5004.675 2557.329 L 5003.475 2558.529 L 5003.475 2559.729 L 5001.075 2559.729 L 5001.075 2562.129 L 5002.275 2564.529 L 5001.075 2564.529 L 5002.275 2565.729 L 5001.075 2566.929 L 5002.275 2568.129 L 5001.075 2569.329 L 5002.275 2570.529 L 5001.075 2570.529 L 5001.075 2571.729 L 4999.875 2572.929 L 4999.875 2574.129 L 4998.675 2575.329 L 4997.475 2574.129 L 4997.475 2575.329 L 4996.275 2575.329 L 4997.475 2576.529 L 4996.275 2576.529 L 4996.275 2577.729 L 4995.075 2576.529 L 4995.075 2577.729 L 4993.875 2577.729 L 4993.875 2576.529 L 4993.875 2578.929 L 4992.675 2577.729 L 4992.675 2581.329 L 4991.475 2581.329 L 4990.275 2580.129 L 4990.275 2581.329 L 4989.075 2581.329 L 4990.275 2581.329 L 4990.275 2582.529 L 4991.475 2581.329 L 4992.675 2582.529 L 4992.675 2583.728 L 4991.475 2583.728 L 4992.675 2584.928 L 4991.475 2584.928 L 4991.475 2586.128 L 4990.275 2586.128 L 4990.275 2587.328 L 4989.075 2588.528 L 4990.275 2589.728 L 4989.075 2590.928 L 4991.475 2592.128 L 4992.675 2592.128 L 4991.475 2593.328 L 4993.875 2593.328 L 4992.675 2594.528 L 4993.875 2595.728 L 4995.075 2598.128 L 4993.875 2599.328 L 4992.675 2599.328 L 4990.275 2601.728 L 4990.275 2605.328 L 4986.675 2605.328 L 4987.875 2608.928 L 4989.075 2610.128 L 4989.075 2612.528 L 4990.275 2612.528 L 4990.275 2613.728 L 4991.475 2613.728 L 4992.675 2617.328 L 4991.475 2618.528 L 4991.475 2622.127 L 4990.275 2623.327 L 4991.475 2624.527 L 4990.275 2625.727 L 4989.075 2625.727 L 4989.075 2626.927 L 4990.275 2628.127 L 4989.075 2629.327 L 4985.475 2629.327 L 4983.075 2631.727 L 4981.875 2632.927 L 4980.676 2631.727 L 4978.276 2631.727 L 4975.876 2632.927 L 4977.076 2635.327 L 4977.076 2636.527 L 4978.276 2637.727 L 4979.476 2637.727 L 4980.676 2640.127 L 4978.276 2641.327 L 4978.276 2642.527 L 4975.876 2643.727 L 4975.876 2644.927 L 4973.476 2646.127 L 4972.276 2646.127 L 4971.076 2647.327 L 4972.276 2649.727 L 4972.276 2650.927 L 4971.076 2652.127 L 4971.076 2653.327 L 4968.676 2653.327 L 4968.676 2652.127 L 4968.676 2653.327 L 4967.476 2655.726 L 4967.476 2656.926 L 4963.876 2656.926 L 4962.676 2658.126 L 4965.076 2659.326 L 4966.276 2658.126 L 4966.276 2659.326 L 4967.476 2659.326 L 4967.476 2660.526 L 4965.076 2661.726 L 4965.076 2664.126 L 4963.876 2664.126 L 4965.076 2665.326 L 4962.676 2665.326 L 4962.676 2666.526 L 4966.276 2668.926 L 4966.276 2667.726 L 4968.676 2667.726 L 4971.076 2668.926 L 4973.476 2667.726 L 4972.276 2670.126 L 4974.676 2670.126 L 4974.676 2668.926 L 4977.076 2668.926 L 4979.476 2670.126 L 4985.475 2667.726 L 4989.075 2667.726 L 4990.275 2670.126 L 4989.075 2671.326 L 4986.675 2671.326 L 4987.875 2672.526 L 4986.675 2672.526 L 4987.875 2673.726 L 4986.675 2674.926 L 4987.875 2677.326 L 4986.675 2677.326 L 4987.875 2679.726 L 4991.475 2679.726 L 4992.675 2678.526 L 4993.875 2677.326 L 4993.875 2680.926 L 4995.075 2680.926 L 4999.875 2682.126 L 5001.075 2683.326 L 5002.275 2685.726 L 5001.075 2689.326 L 5001.075 2690.526 L 5003.475 2691.725 L 5005.875 2690.526 L 5005.875 2691.725 L 5007.075 2694.125 L 5005.875 2696.525 L 5004.675 2698.925 L 5007.075 2702.525 L 5005.875 2703.725 L 5004.675 2704.925 L 5004.675 2706.125 L 5002.275 2707.325 L 5002.275 2709.725 L 5003.475 2712.125 L 5007.075 2710.925 L 5008.275 2710.925 L 5008.275 2713.325 L 5010.675 2716.925 L 5013.075 2719.325 L 5014.275 2720.525 L 5015.475 2721.725 L 5017.874 2725.325 L 5016.675 2728.924 L 5016.675 2730.124 L 5020.274 2731.324 L 5020.274 2730.124 L 5021.474 2728.924 L 5023.874 2727.724 L 5028.674 2727.724 L 5032.274 2726.525 L 5033.474 2726.525 L 5035.874 2728.924 L 5039.474 2730.124 L 5038.274 2731.324 L 5037.074 2733.724 L 5037.074 2736.124 L 5038.274 2737.324 L 5040.674 2739.724 L 5043.074 2739.724 L 5045.474 2740.924 L 5046.674 2743.324 L 5050.274 2742.124 L 5052.674 2743.324 L 5052.674 2745.724 L 5050.274 2748.124 L 5050.274 2749.324 L 5052.674 2752.924 L 5052.674 2754.124 L 5056.273 2755.324 L 5056.273 2756.524 L 5049.074 2761.324 L 5046.674 2762.524 L 5046.674 2766.123 L 5044.274 2769.723 L 5044.274 2774.523 L 5043.074 2776.923 L 5035.874 2781.723 L 5037.074 2786.523 L 5037.074 2788.923 L 5038.274 2790.123 L 5038.274 2791.323 L 5046.674 2791.323 L 5050.274 2793.723 L 5051.474 2796.123 L 5050.274 2797.323 L 5049.074 2800.922 L 5049.074 2802.122 L 5052.674 2803.322 L 5056.273 2803.322 L 5061.073 2800.922 L 5062.273 2803.322 L 5064.673 2805.722 L 5063.473 2809.322 L 5064.673 2809.322 L 5067.073 2811.722 L 5064.673 2812.922 L 5064.673 2814.122 L 5068.273 2815.322 L 5068.273 2818.922 L 5067.073 2820.122 L 5067.073 2823.722 L 5069.473 2826.122 L 5067.073 2828.522 L 5068.273 2833.322 L 5067.073 2835.721 L 5070.673 2840.521 L 5070.673 2846.521 L 5071.873 2847.721 L 5073.073 2851.321 L 5076.673 2852.521 L 5077.873 2852.521 L 5083.873 2859.721 L 5086.273 2868.121 L 5089.872 2869.321 L 5093.472 2871.72 L 5095.872 2869.321 L 5098.272 2870.521 L 5103.072 2870.521 L 5109.072 2869.321 L 5113.872 2868.121 L 5116.272 2869.321 L 5117.472 2870.521 L 5118.672 2871.72 L 5122.272 2876.52 L 5127.071 2875.32 L 5134.271 2876.52 L 5142.671 2870.521 L 5145.071 2869.321 L 5146.271 2869.321 L 5147.471 2870.521 L 5148.671 2881.32 L 5151.071 2884.92 L 5152.271 2883.72 L 5155.871 2882.52 L 5160.671 2884.92 L 5164.27 2883.72 L 5172.67 2881.32 L 5179.87 2884.92 L 5188.27 2886.12 L 5196.67 2881.32 L 5199.069 2878.92 L 5200.269 2875.32 L 5199.069 2871.72 L 5197.869 2869.321 L 5200.269 2865.721 L 5201.469 2868.121 L 5205.069 2868.121 L 5205.069 2870.521 L 5203.869 2871.72 L 5205.069 2876.52 L 5205.069 2886.12 L 5203.869 2887.32 L 5202.669 2889.72 L 5200.269 2895.72 L 5197.869 2900.52 L 5195.47 2901.72 L 5188.27 2901.72 L 5185.87 2902.92 L 5183.47 2904.12 L 5182.27 2904.12 L 5182.27 2906.52 L 5181.07 2908.919 L 5183.47 2912.519 L 5182.27 2917.319 L 5175.07 2917.319 L 5171.47 2919.719 L 5169.07 2922.119 L 5167.87 2924.519 L 5160.671 2929.319 L 5158.271 2930.519 L 5157.071 2934.119 L 5154.671 2934.119 L 5152.271 2935.319 L 5148.671 2935.319 L 5147.471 2936.519 L 5146.271 2941.319 L 5141.471 2942.519 L 5141.471 2946.118 L 5140.271 2947.318 L 5137.871 2948.518 L 5134.271 2947.318 L 5130.671 2950.918 L 5127.071 2950.918 L 5123.472 2952.118 L 5122.272 2950.918 L 5118.672 2952.118 L 5118.672 2953.318 L 5116.272 2954.518 L 5113.872 2955.718 L 5113.872 2956.918 L 5115.072 2958.118 L 5117.472 2961.718 L 5118.672 2962.918 L 5118.672 2964.118 L 5117.472 2968.918 L 5113.872 2971.318 L 5106.672 2976.118 L 5107.872 2976.118 L 5111.472 2977.318 L 5111.472 2982.117 L 5110.272 2984.517 L 5107.872 2985.717 L 5103.072 2988.117 L 5101.872 2989.317 L 5100.672 2991.717 L 5099.472 2995.317 L 5099.472 2996.517 L 5101.872 3001.317 L 5101.872 3002.517 L 5095.872 3006.117 L 5093.472 3009.717 L 5087.473 3013.317 L 5086.273 3014.517 L 5085.073 3016.916 L 5081.473 3019.316 L 5080.273 3019.316 L 5080.273 3022.916 L 5076.673 3026.516 L 5073.073 3036.116 L 5071.873 3048.116 L 5068.273 3054.115 L 5065.873 3057.715 L 5063.473 3057.715 L 5049.074 3064.915 L 5044.274 3066.115 L 5045.474 3068.515 L 5044.274 3072.115 L 5043.074 3072.115 L 5043.074 3074.515 L 5044.274 3075.715 L 5044.274 3078.115 L 5045.474 3082.915 L 5047.874 3086.515 L 5051.474 3087.715 L 5052.674 3087.715 L 5055.073 3088.914 L 5055.073 3094.914 L 5058.673 3097.314 L 5058.673 3104.514 L 5059.873 3108.114 L 5061.073 3109.314 L 5062.273 3110.514 L 5065.873 3111.714 L 5067.073 3114.114 L 5073.073 3114.114 L 5076.673 3115.314 L 5077.873 3117.714 L 5079.073 3118.914 L 5080.273 3118.914 L 5082.673 3117.714 L 5087.473 3117.714 L 5089.872 3118.914 L 5095.872 3117.714 L 5100.672 3120.114 L 5104.272 3121.314 L 5105.472 3121.314 L 5107.872 3122.514 L 5110.272 3122.514 L 5112.672 3124.913 L 5112.672 3126.113 L 5113.872 3128.513 L 5116.272 3129.713 L 5118.672 3130.913 L 5119.872 3129.713 L 5122.272 3128.513 L 5123.472 3130.913 L 5127.071 3130.913 L 5129.471 3129.713 L 5130.671 3130.913 L 5134.271 3132.113 L 5135.471 3132.113 L 5136.671 3133.313 L 5136.671 3136.913 L 5128.271 3138.113 L 5124.672 3139.313 L 5121.072 3138.113 L 5118.672 3139.313 L 5112.672 3136.913 L 5106.672 3133.313 L 5103.072 3133.313 L 5100.672 3134.513 L 5098.272 3133.313 L 5095.872 3134.513 L 5095.872 3136.913 L 5097.072 3139.313 L 5098.272 3140.513 L 5099.472 3144.113 L 5099.472 3146.513 L 5097.072 3147.713 L 5093.472 3153.713 L 5087.473 3156.113 L 5085.073 3157.313 L 5086.273 3158.513 L 5089.872 3157.313 L 5092.272 3159.713 L 5094.672 3160.912 L 5094.672 3162.112 L 5092.272 3163.312 L 5092.272 3164.512 L 5093.472 3165.712 L 5092.272 3168.112 L 5089.872 3169.312 L 5089.872 3171.712 L 5088.673 3172.912 L 5086.273 3171.712 L 5085.073 3172.912 L 5086.273 3175.312 L 5085.073 3177.712 L 5087.473 3181.312 L 5089.872 3180.112 L 5091.072 3181.312 L 5093.472 3183.712 L 5095.872 3183.712 L 5100.672 3181.312 L 5104.272 3182.512 L 5106.672 3183.712 L 5109.072 3184.912 L 5113.872 3183.712 L 5116.272 3181.312 L 5119.872 3181.312 L 5121.072 3183.712 L 5121.072 3186.112 L 5117.472 3189.712 L 5113.872 3189.712 L 5107.872 3192.112 L 5100.772 3193.312 L 5098.372 3193.312 L 5093.572 3194.512 L 5092.372 3196.911 L 5091.172 3198.111 L 5088.773 3199.311 L 5085.173 3202.911 L 5085.173 3205.311 L 5083.973 3205.311 L 5081.573 3206.511 L 5081.573 3208.911 L 5083.973 3211.311 L 5083.973 3212.511 L 5085.173 3213.711 L 5082.773 3214.911 L 5083.973 3217.311 L 5083.973 3218.511 L 5086.373 3219.711 L 5087.573 3222.111 L 5086.373 3224.511 L 5086.373 3226.911 L 5085.173 3230.511 L 5085.173 3231.711 L 5082.773 3232.91 L 5083.973 3234.11 L 5083.973 3236.51 L 5082.773 3237.71 L 5086.373 3238.91 L 5086.373 3241.31 L 5087.573 3242.51 L 5086.373 3246.11 L 5083.973 3247.31 L 5085.173 3247.31 L 5087.573 3250.91 L 5086.373 3252.11 L 5085.173 3254.51 L 5088.773 3255.71 L 5089.972 3255.71 L 5093.572 3256.91 L 5094.772 3256.91 L 5094.772 3258.11 L 5089.972 3259.31 L 5089.972 3261.71 L 5088.773 3262.91 L 5089.972 3264.11 L 5091.172 3262.91 L 5092.372 3265.31 L 5094.772 3266.51 L 5095.972 3266.51 L 5099.572 3268.909 L 5100.772 3271.309 L 5099.572 3272.509 L 5099.572 3274.909 L 5098.372 3276.109 L 5098.372 3277.309 L 5099.572 3278.509 L 5100.772 3277.309 L 5104.372 3277.309 L 5106.772 3279.709 L 5107.972 3282.109 L 5107.972 3283.309 L 5106.772 3285.709 L 5106.772 3291.709 L 5111.572 3292.909 L 5119.972 3289.309 L 5123.572 3288.109 L 5124.772 3290.509 L 5123.572 3292.909 L 5124.772 3295.309 L 5123.572 3298.909 L 5116.372 3298.909 L 5111.572 3300.109 L 5107.972 3301.309 L 5106.772 3301.309 L 5105.572 3302.509 L 5104.372 3306.108 L 5103.172 3307.308 L 5101.972 3308.508 L 5103.172 3310.908 L 5100.772 3316.908 L 5103.172 3318.108 L 5103.172 3319.308 L 5105.572 3319.308 L 5106.772 3321.708 L 5104.372 3324.108 L 5101.972 3325.308 L 5099.572 3328.908 L 5100.772 3328.908 L 5100.772 3330.108 L 5103.172 3331.308 L 5104.372 3332.508 L 5104.372 3337.308 L 5101.972 3338.508 L 5103.172 3340.908 L 5103.172 3343.307 L 5101.972 3344.507 L 5101.972 3349.307 L 5103.172 3350.507 L 5104.372 3351.707 L 5105.572 3354.107 L 5103.172 3356.507 L 5099.572 3358.907 L 5101.972 3362.507 L 5100.772 3364.907 L 5099.572 3367.307 L 5099.572 3369.707 L 5098.372 3375.707 L 5101.972 3374.507 L 5103.172 3372.107 L 5104.372 3372.107 L 5112.772 3373.307 L 5116.372 3370.907 L 5118.772 3370.907 L 5127.171 3367.307 L 5129.571 3368.507 L 5131.971 3369.707 L 5130.771 3370.907 L 5125.971 3373.307 L 5123.572 3372.107 L 5119.972 3373.307 L 5119.972 3374.507 L 5118.772 3375.707 L 5117.572 3376.907 L 5112.772 3376.907 L 5109.172 3378.106 L 5109.172 3376.907 L 5103.172 3379.306 L 5101.972 3378.106 L 5100.772 3379.306 L 5097.172 3380.506 L 5092.372 3380.506 L 5092.372 3381.706 L 5087.573 3382.906 L 5085.173 3381.706 L 5086.373 3379.306 L 5085.173 3378.106 L 5086.373 3376.907 L 5086.373 3373.307 L 5087.573 3372.107 L 5087.573 3367.307 L 5086.373 3366.107 L 5087.573 3364.907 L 5086.373 3363.707 L 5087.573 3362.507 L 5086.373 3362.507 L 5087.573 3360.107 L 5085.173 3358.907 L 5085.173 3356.507 L 5085.173 3357.707 L 5083.973 3356.507 L 5081.573 3357.707 L 5080.373 3356.507 L 5079.173 3356.507 L 5079.173 3352.907 L 5077.973 3351.707 L 5075.573 3372.007 L 5074.373 3372.007 L 5073.173 3373.207 L 5071.973 3374.407 L 5071.973 3379.206 L 5039.674 3379.206 L 5019.274 3378.006 L 5007.275 3385.206 L 5006.075 3385.206 L 5007.275 3386.406 L 5004.875 3387.606 L 5004.875 3390.006 L 5003.675 3390.006 L 5002.475 3392.406 L 5002.475 3393.606 L 5001.275 3393.606 L 5001.275 3396.006 L 4997.675 3397.206 L 4997.675 3394.806 L 4996.475 3396.006 L 4996.475 3393.606 L 4994.075 3393.606 L 4992.875 3396.006 L 4990.475 3397.206 L 4988.075 3399.606 L 4988.075 3400.806 L 4984.475 3402.006 L 4983.275 3404.406 L 4980.875 3404.406 L 4978.476 3406.806 L 4978.476 3408.006 L 4977.276 3408.006 L 4977.276 3406.806 L 4973.676 3406.806 L 4973.676 3410.406 L 4971.276 3410.406 L 4968.876 3411.606 L 4967.676 3411.606 L 4966.476 3412.806 L 4964.076 3414.005 L 4962.876 3412.806 L 4962.876 3414.005 L 4960.476 3414.005 L 4960.476 3416.405 L 4959.276 3417.605 L 4959.276 3416.405 L 4958.076 3415.205 L 4956.876 3416.405 L 4956.876 3417.605 L 4955.676 3417.605 L 4955.676 3415.205 L 4954.476 3416.405 L 4952.076 3416.405 L 4949.676 3418.805 L 4950.876 3418.805 L 4950.876 3421.205 L 4948.476 3422.405 L 4946.076 3421.205 L 4944.876 3422.405 L 4942.477 3421.205 L 4943.677 3420.005 L 4942.477 3418.805 L 4940.077 3420.005 L 4937.677 3418.805 L 4936.477 3420.005 L 4934.077 3420.005 L 4934.077 3421.205 L 4930.477 3422.405 L 4931.677 3426.005 L 4930.477 3427.205 L 4928.077 3427.205 L 4928.077 3429.605 L 4926.877 3429.605 L 4925.677 3432.005 L 4923.277 3432.005 L 4924.477 3430.805 L 4923.277 3430.805 L 4923.277 3429.605 L 4919.677 3429.605 L 4918.477 3430.805 L 4914.877 3429.605 L 4912.477 3429.605 L 4910.077 3427.205 L 4908.877 3426.005 L 4907.678 3428.405 L 4906.478 3428.405 L 4905.278 3429.605 L 4905.278 3432.005 L 4901.678 3433.205 L 4900.478 3436.805 L 4899.278 3436.805 L 4898.078 3435.605 L 4898.078 3433.205 L 4894.478 3429.605 L 4895.678 3428.405 L 4899.278 3427.205 L 4898.078 3426.005 L 4895.678 3424.805 L 4893.278 3426.005 L 4888.478 3424.805 L 4888.478 3422.405 L 4890.878 3417.605 L 4888.478 3417.605 L 4886.078 3418.805 L 4884.878 3418.805 L 4882.478 3417.605 L 4881.278 3417.605 L 4878.878 3418.805 L 4875.278 3417.605 L 4874.078 3411.606 L 4875.278 3406.806 L 4874.078 3405.606 L 4870.479 3405.606 L 4865.679 3403.206 L 4864.479 3404.406 L 4863.279 3403.206 L 4862.079 3405.606 L 4860.879 3406.806 L 4860.879 3408.006 L 4859.679 3408.006 L 4860.879 3409.206 L 4860.879 3411.606 L 4859.679 3411.606 L 4859.679 3412.806 L 4858.479 3414.005 L 4856.079 3415.205 L 4859.679 3416.405 L 4858.479 3418.805 L 4857.279 3420.005 L 4858.479 3420.005 L 4857.279 3421.205 L 4858.479 3422.405 L 4857.279 3422.405 L 4857.279 3423.605 L 4859.679 3424.805 L 4859.679 3426.005 L 4858.479 3427.205 L 4860.879 3428.405 L 4860.879 3429.605 L 4862.079 3432.005 L 4859.679 3434.405 L 4858.479 3434.405 L 4858.479 3439.205 L 4859.679 3441.605 L 4858.479 3442.805 L 4859.679 3446.405 L 4859.679 3448.805 L 4862.079 3451.204 L 4864.479 3451.204 L 4864.479 3454.804 L 4863.279 3456.004 L 4862.079 3456.004 L 4860.879 3458.404 L 4859.679 3459.604 L 4858.479 3462.004 L 4857.279 3463.204 L 4856.079 3465.604 L 4854.879 3469.204 L 4833.28 3445.305 L 4833.28 3444.105 L 4829.68 3441.705 L 4826.08 3442.905 L 4822.48 3441.705 L 4821.28 3442.905 L 4818.88 3442.905 L 4817.68 3441.705 L 4817.68 3440.505 L 4816.48 3441.705 L 4815.28 3441.705 L 4815.28 3439.305 L 4814.08 3438.105 L 4812.88 3438.105 L 4812.88 3439.305 L 4812.88 3438.105 L 4810.48 3438.105 L 4809.28 3436.905 L 4808.08 3440.505 L 4805.68 3440.505 L 4804.48 3441.705 L 4803.28 3440.505 L 4803.28 3439.305 L 4802.08 3438.105 L 4800.88 3434.505 L 4798.481 3434.505 L 4794.881 3435.705 L 4793.681 3433.305 L 4792.481 3434.505 L 4792.481 3433.305 L 4793.681 3432.105 L 4792.481 3430.905 L 4788.881 3430.905 L 4788.881 3427.305 L 4787.681 3428.505 L 4787.681 3427.305 L 4785.281 3428.505 L 4785.281 3427.305 L 4784.081 3428.505 L 4785.281 3433.305 L 4784.081 3433.305 L 4784.081 3436.905 L 4781.681 3436.905 L 4780.481 3438.105 L 4779.281 3436.905 L 4778.081 3438.105 L 4776.881 3436.905 L 4776.881 3438.105 L 4773.281 3439.305 L 4772.081 3440.505 L 4770.881 3439.305 L 4770.881 3440.505 L 4769.681 3439.305 L 4768.481 3440.505 L 4768.481 3439.305 L 4770.881 3435.705 L 4770.881 3429.705 L 4769.681 3429.705 L 4768.481 3428.505 L 4768.481 3427.305 L 4769.681 3426.105 L 4770.881 3424.905 L 4769.681 3422.505 L 4769.681 3417.705 L 4770.881 3416.505 L 4770.881 3414.105 L 4772.081 3412.906 L 4772.081 3411.706 L 4770.881 3412.906 L 4769.681 3412.906 L 4767.281 3411.706 L 4766.081 3412.906 L 4764.881 3412.906 L 4763.682 3414.105 L 4763.682 3415.305 L 4761.282 3416.505 L 4760.082 3415.305 L 4758.882 3416.505 L 4757.682 3415.305 L 4756.482 3417.705 L 4755.282 3417.705 L 4755.282 3418.905 L 4754.082 3420.105 L 4751.682 3420.105 L 4751.682 3421.305 L 4750.482 3421.305 L 4749.282 3422.505 L 4749.282 3420.105 L 4749.282 3421.305 L 4746.882 3421.305 L 4746.882 3424.905 L 4743.282 3426.105 L 4744.482 3426.105 L 4743.282 3426.105 L 4744.482 3426.105 L 4744.482 3427.305 L 4742.082 3427.305 L 4742.082 3426.105 L 4737.282 3426.105 L 4738.482 3427.305 L 4737.282 3428.505 L 4738.482 3429.705 L 4737.282 3429.705 L 4736.082 3428.505 L 4734.882 3428.505 L 4733.682 3429.705 L 4732.482 3429.705 L 4732.482 3430.905 L 4731.282 3430.905 L 4730.082 3433.305 L 4730.082 3432.105 L 4728.882 3433.305 L 4726.483 3433.305 L 4724.083 3434.505 L 4722.883 3433.305 L 4721.683 3434.505 L 4721.683 3436.905 L 4720.483 3438.105 L 4719.283 3435.705 L 4716.883 3435.705 L 4716.883 3432.105 L 4718.083 3432.105 L 4716.883 3430.905 L 4716.883 3429.705 L 4718.083 3429.705 L 4715.683 3428.505 L 4715.683 3427.305 L 4714.483 3427.305 L 4714.483 3421.305 L 4713.283 3420.105 L 4714.483 3418.905 L 4714.483 3414.105 L 4715.683 3414.105 L 4714.483 3410.506 L 4714.483 3409.306 L 4713.283 3408.106 L 4713.283 3410.506 L 4712.083 3410.506 L 4710.883 3409.306 L 4708.483 3408.106 L 4706.083 3410.506 L 4706.083 3415.305 L 4704.883 3417.705 L 4704.883 3418.905 L 4702.483 3420.105 L 4700.083 3421.305 L 4700.083 3424.905 L 4701.283 3426.105 L 4700.083 3427.305 L 4700.083 3430.905 L 4698.883 3434.505 L 4700.083 3435.705 L 4700.083 3439.305 L 4697.683 3441.705 L 4695.283 3441.705 L 4691.684 3438.105 L 4692.883 3435.705 L 4694.083 3432.105 L 4694.083 3430.905 L 4692.883 3429.705 L 4691.684 3427.305 L 4692.883 3427.305 L 4695.283 3424.905 L 4695.283 3418.905 L 4696.483 3418.905 L 4695.283 3417.705 L 4696.483 3416.505 L 4694.083 3415.305 L 4694.083 3412.906 L 4692.883 3411.706 L 4694.083 3411.706 L 4694.083 3410.506 L 4695.283 3410.506 L 4695.283 3408.106 L 4696.483 3406.906 L 4695.283 3403.306 L 4692.883 3403.306 L 4694.083 3402.106 L 4692.883 3399.706 L 4692.883 3398.506 L 4691.684 3398.506 L 4691.684 3394.906 L 4690.484 3394.906 L 4689.284 3393.706 L 4686.884 3393.706 L 4685.684 3390.106 L 4685.684 3386.506 L 4682.084 3386.506 L 4682.084 3385.306 L 4680.884 3384.106 L 4679.684 3385.306 L 4678.484 3382.906 L 4677.284 3382.906 L 4677.284 3385.306 L 4676.084 3385.306 L 4676.084 3384.106 L 4673.684 3384.106 L 4673.684 3385.306 L 4672.484 3384.106 L 4671.284 3385.306 L 4670.084 3382.906 L 4668.884 3382.906 L 4668.884 3376.907 L 4667.684 3374.507 L 4668.884 3372.107 L 4667.684 3369.707 L 4666.484 3369.707 L 4665.284 3367.307 L 4664.084 3367.307 L 4662.884 3366.107 L 4659.284 3362.507 L 4659.284 3363.707 L 4658.084 3363.707 L 4658.084 3361.307 L 4656.884 3361.307 L 4655.685 3360.107 L 4654.485 3360.107 L 4654.485 3358.907 L 4653.285 3357.707 L 4653.285 3356.507 L 4652.085 3356.507 L 4650.885 3355.307 L 4650.885 3356.507 L 4649.685 3356.507 L 4648.485 3355.307 L 4649.685 3352.907 L 4648.485 3351.707 L 4648.485 3349.307 L 4646.085 3349.307 L 4644.885 3348.107 L 4643.685 3349.307 L 4644.885 3350.507 L 4643.685 3350.507 L 4642.485 3351.707 L 4625.685 3376.807 L 4624.485 3374.407 L 4620.885 3372.007 L 4619.685 3369.607 L 4618.486 3368.407 L 4617.286 3367.207 L 4616.086 3367.207 L 4613.686 3368.407 L 4612.486 3368.407 L 4612.486 3367.207 L 4607.686 3367.207 L 4606.486 3364.807 L 4606.486 3363.607 L 4607.686 3363.607 L 4606.486 3362.407 L 4608.886 3360.007 L 4608.886 3357.607 L 4610.086 3356.407 L 4606.486 3356.407 L 4604.086 3354.007 L 4602.886 3354.007 L 4600.486 3345.607 L 4596.886 3348.007 L 4595.686 3351.607 L 4594.486 3351.607 L 4592.086 3354.007 L 4588.486 3356.407 L 4587.286 3357.607 L 4587.286 3360.007 L 4584.886 3361.207 L 4583.686 3362.407 L 4582.487 3361.207 L 4581.287 3362.407 L 4580.087 3363.607 L 4580.087 3364.807 L 4577.687 3366.007 L 4577.687 3369.607 L 4576.487 3372.007 L 4576.487 3373.207 L 4575.287 3373.207 L 4574.087 3374.407 L 4571.687 3379.206 L 4571.687 3380.406 L 4572.887 3380.406 L 4572.887 3382.806 L 4571.687 3382.806 L 4568.087 3388.806 L 4564.487 3393.606 L 4562.087 3396.006 L 4558.487 3403.206 L 4558.487 3404.406 L 4560.887 3405.606 L 4560.887 3408.006 L 4559.687 3410.406 L 4558.487 3412.806 L 4560.887 3416.405 L 4559.687 3418.805 L 4560.887 3421.205 L 4559.687 3423.605 L 4560.887 3427.205 L 4560.887 3430.805 L 4556.087 3434.405 L 4539.288 3424.805 L 4514.188 3410.406 L 4461.49 3379.306 L 4460.29 3378.106 L 4459.09 3378.106 L 4455.49 3376.907 L 4453.09 3376.907 L 4448.29 3373.307 L 4447.09 3374.507 L 4444.69 3372.107 L 4442.29 3370.907 L 4438.691 3372.107 L 4437.491 3372.107 L 4436.291 3369.707 L 4432.691 3369.707 L 4431.491 3367.307 L 4426.691 3367.307 L 4425.491 3368.507 L 4423.091 3367.307 L 4418.291 3366.107 L 4417.091 3364.907 L 4414.691 3366.107 L 4413.491 3364.907 L 4412.291 3364.907 L 4412.291 3366.107 L 4409.891 3364.907 L 4409.891 3363.707 L 4408.691 3363.707 L 4407.491 3361.307 L 4407.491 3362.507 L 4405.091 3361.307 L 4405.091 3358.907 L 4403.891 3358.907 L 4403.891 3357.707 L 4402.692 3358.907 L 4402.692 3357.707 L 4400.292 3357.707 L 4400.292 3356.507 L 4397.892 3356.507 L 4399.092 3356.507 L 4396.692 3355.307 L 4396.692 3356.507 L 4395.492 3355.307 L 4394.292 3355.307 L 4394.292 3354.107 L 4393.092 3355.307 L 4393.092 3352.907 L 4391.892 3352.907 L 4391.892 3351.707 L 4390.692 3351.707 L 4390.692 3349.307 L 4389.492 3348.107 L 4390.692 3345.707 L 4391.892 3344.507 L 4390.692 3342.107 L 4393.092 3339.708 L 4391.892 3338.508 L 4393.092 3337.308 L 4391.892 3337.308 L 4394.292 3336.108 L 4394.292 3332.508 L 4391.892 3331.308 L 4393.092 3330.108 L 4393.092 3328.908 L 4391.892 3326.508 L 4393.092 3325.308 L 4393.092 3327.708 L 4393.092 3326.508 L 4394.292 3326.508 L 4395.492 3327.708 L 4395.492 3325.308 L 4396.692 3326.508 L 4397.892 3326.508 L 4396.692 3325.308 L 4397.892 3322.908 L 4397.892 3321.708 L 4399.092 3319.308 L 4399.092 3318.108 L 4400.292 3315.708 L 4401.492 3316.908 L 4402.692 3315.708 L 4401.492 3310.908 L 4402.692 3307.308 L 4403.891 3307.308 L 4403.891 3308.508 L 4405.091 3308.508 L 4408.691 3306.108 L 4408.691 3304.909 L 4411.091 3304.909 L 4409.891 3303.709 L 4408.691 3302.509 L 4408.691 3303.709 L 4407.491 3304.909 L 4407.491 3302.509 L 4405.091 3301.309 L 4403.891 3298.909 L 4406.291 3296.509 L 4406.291 3290.509 L 4407.491 3290.509 L 4408.691 3289.309 L 4408.691 3286.909 L 4409.891 3285.709 L 4412.291 3284.509 L 4413.491 3283.309 L 4413.491 3282.109 L 4415.891 3282.109 L 4415.891 3280.909 L 4417.091 3280.909 L 4417.091 3277.309 L 4419.491 3273.709 L 4414.691 3276.109 L 4414.691 3278.509 L 4413.491 3279.709 L 4412.291 3279.709 L 4411.091 3278.509 L 4411.091 3277.309 L 4409.891 3277.309 L 4409.891 3278.509 L 4412.291 3279.709 L 4412.291 3280.909 L 4409.891 3280.909 L 4407.491 3282.109 L 4406.291 3282.109 L 4408.691 3283.309 L 4405.091 3283.309 L 4403.891 3285.709 L 4400.292 3285.709 L 4399.092 3289.309 L 4394.292 3289.309 L 4394.292 3290.509 L 4389.492 3292.909 L 4388.292 3294.109 L 4388.292 3295.309 L 4389.492 3296.509 L 4389.492 3297.709 L 4387.092 3296.509 L 4385.892 3296.509 L 4387.092 3298.909 L 4385.892 3300.109 L 4383.492 3298.909 L 4383.492 3301.309 L 4379.892 3301.309 L 4381.092 3302.509 L 4379.892 3303.709 L 4379.892 3307.308 L 4377.492 3307.308 L 4376.292 3309.708 L 4375.092 3312.108 L 4376.292 3312.108 L 4375.092 3313.308 L 4372.692 3314.508 L 4371.492 3315.708 L 4372.692 3319.308 L 4371.492 3320.508 L 4369.092 3319.308 L 4366.693 3321.708 L 4367.892 3321.708 L 4367.892 3320.508 L 4369.092 3320.508 L 4369.092 3321.708 L 4367.892 3322.908 L 4369.092 3324.108 L 4367.892 3325.308 L 4369.092 3327.708 L 4367.892 3328.908 L 4363.093 3328.908 L 4363.093 3330.108 L 4360.693 3331.308 L 4360.693 3332.508 L 4361.893 3333.708 L 4363.093 3334.908 L 4361.893 3336.108 L 4359.493 3337.308 L 4359.493 3339.708 L 4361.893 3339.708 L 4360.693 3340.908 L 4360.693 3343.307 L 4359.493 3343.307 L 4358.293 3345.707 L 4359.493 3350.507 L 4358.293 3350.507 L 4357.093 3351.707 L 4358.293 3352.907 L 4357.093 3355.307 L 4354.693 3358.907 L 4354.693 3356.507 L 4353.493 3354.107 L 4351.093 3355.307 L 4345.093 3355.307 L 4339.093 3352.907 L 4339.093 3351.707 L 4342.693 3349.307 L 4342.693 3348.107 L 4337.893 3348.107 L 4336.693 3351.707 L 4335.493 3351.707 L 4334.293 3350.507 L 4334.293 3348.107 L 4336.693 3343.307 L 4333.093 3343.307 L 4334.293 3340.908 L 4334.293 3336.108 L 4331.893 3333.708 L 4333.093 3330.108 L 4330.693 3330.108 L 4329.494 3325.308 L 4330.693 3322.908 L 4330.693 3320.508 L 4329.494 3319.308 L 4321.094 3320.508 L 4321.094 3315.708 L 4319.894 3313.308 L 4321.094 3310.908 L 4322.294 3309.708 L 4325.894 3310.908 L 4327.094 3310.908 L 4327.094 3308.508 L 4323.494 3306.108 L 4324.694 3302.509 L 4327.094 3300.109 L 4328.294 3294.109 L 4330.693 3290.509 L 4329.494 3285.709 L 4331.893 3284.509 L 4334.293 3285.709 L 4334.293 3284.509 L 4335.493 3279.709 L 4333.093 3278.509 L 4334.293 3272.509 L 4333.093 3268.909 L 4330.693 3265.31 L 4331.893 3261.71 L 4330.693 3260.51 L 4330.693 3255.71 L 4333.093 3253.31 L 4333.093 3250.91 L 4330.693 3247.31 L 4330.693 3242.51 L 4329.494 3241.31 L 4324.694 3242.51 L 4323.494 3238.91 L 4324.694 3236.51 L 4324.694 3230.511 L 4325.894 3228.111 L 4325.894 3224.511 L 4327.094 3217.311 L 4327.094 3213.711 L 4323.494 3210.111 L 4323.494 3208.911 L 4324.694 3205.311 L 4324.694 3204.111 L 4323.494 3202.911 L 4324.694 3200.511 L 4329.494 3195.712 L 4329.494 3192.112 L 4327.094 3188.512 L 4328.294 3186.112 L 4331.893 3184.912 L 4331.893 3181.312 L 4328.294 3177.712 L 4324.694 3177.712 L 4323.494 3176.512 L 4323.494 3170.512 L 4322.294 3168.112 L 4321.094 3165.712 L 4319.894 3159.713 L 4318.694 3157.313 L 4317.494 3154.913 L 4317.494 3153.713 L 4322.294 3148.913 L 4323.494 3147.713 L 4325.894 3146.513 L 4327.094 3144.113 L 4328.294 3142.913 L 4328.294 3138.113 L 4327.094 3134.513 L 4328.294 3132.113 L 4328.294 3127.313 L 4327.094 3126.113 L 4323.494 3126.113 L 4318.694 3124.913 L 4317.494 3124.913 L 4313.894 3117.714 L 4315.094 3112.914 L 4313.894 3110.514 L 4313.894 3099.614 L 4313.494 3099.614 Z " fill="#F3AA47" vector-effect="non-scaling-stroke" stroke-width="1" stroke-linejoin="miter" stroke-linecap="butt" stroke-miterlimit="4"/></svg>